  0
SECTION
  2
HEADER
  9
$ACADVER
  1
AC1024
  9
$ACADMAINTVER
 70
6
  9
$DWGCODEPAGE
  3
ANSI_1252
  9
$LASTSAVEDBY
  1
ezdxf
  9
$INSBASE
 10
0.0
 20
0.0
 30
0.0
  9
$EXTMIN
 10
1e+20
 20
1e+20
 30
1e+20
  9
$EXTMAX
 10
-1e+20
 20
-1e+20
 30
-1e+20
  9
$LIMMIN
 10
0.0
 20
0.0
  9
$LIMMAX
 10
420.0
 20
297.0
  9
$ORTHOMODE
 70
0
  9
$REGENMODE
 70
1
  9
$FILLMODE
 70
1
  9
$QTEXTMODE
 70
0
  9
$MIRRTEXT
 70
1
  9
$LTSCALE
 40
1.0
  9
$ATTMODE
 70
1
  9
$TEXTSIZE
 40
2.5
  9
$TRACEWID
 40
1.0
  9
$TEXTSTYLE
  7
Standard
  9
$CLAYER
  8
0
  9
$CELTYPE
  6
ByLayer
  9
$CECOLOR
 62
256
  9
$CELTSCALE
 40
1.0
  9
$DISPSILH
 70
0
  9
$DIMSCALE
 40
1.0
  9
$DIMASZ
 40
2.5
  9
$DIMEXO
 40
0.625
  9
$DIMDLI
 40
3.75
  9
$DIMRND
 40
0.0
  9
$DIMDLE
 40
0.0
  9
$DIMEXE
 40
1.25
  9
$DIMTP
 40
0.0
  9
$DIMTM
 40
0.0
  9
$DIMTXT
 40
2.5
  9
$DIMCEN
 40
2.5
  9
$DIMTSZ
 40
0.0
  9
$DIMTOL
 70
0
  9
$DIMLIM
 70
0
  9
$DIMTIH
 70
0
  9
$DIMTOH
 70
0
  9
$DIMSE1
 70
0
  9
$DIMSE2
 70
0
  9
$DIMTAD
 70
1
  9
$DIMZIN
 70
8
  9
$DIMBLK
  1

  9
$DIMASO
 70
1
  9
$DIMSHO
 70
1
  9
$DIMPOST
  1

  9
$DIMAPOST
  1

  9
$DIMALT
 70
0
  9
$DIMALTD
 70
3
  9
$DIMALTF
 40
0.03937007874
  9
$DIMLFAC
 40
1.0
  9
$DIMTOFL
 70
1
  9
$DIMTVP
 40
0.0
  9
$DIMTIX
 70
0
  9
$DIMSOXD
 70
0
  9
$DIMSAH
 70
0
  9
$DIMBLK1
  1

  9
$DIMBLK2
  1

  9
$DIMSTYLE
  2
ISO-25
  9
$DIMCLRD
 70
0
  9
$DIMCLRE
 70
0
  9
$DIMCLRT
 70
0
  9
$DIMTFAC
 40
1.0
  9
$DIMGAP
 40
0.625
  9
$DIMJUST
 70
0
  9
$DIMSD1
 70
0
  9
$DIMSD2
 70
0
  9
$DIMTOLJ
 70
0
  9
$DIMTZIN
 70
8
  9
$DIMALTZ
 70
0
  9
$DIMALTTZ
 70
0
  9
$DIMUPT
 70
0
  9
$DIMDEC
 70
2
  9
$DIMTDEC
 70
2
  9
$DIMALTU
 70
2
  9
$DIMALTTD
 70
3
  9
$DIMTXSTY
  7
Standard
  9
$DIMAUNIT
 70
0
  9
$DIMADEC
 70
0
  9
$DIMALTRND
 40
0.0
  9
$DIMAZIN
 70
0
  9
$DIMDSEP
 70
44
  9
$DIMATFIT
 70
3
  9
$DIMFRAC
 70
0
  9
$DIMLDRBLK
  1

  9
$DIMLUNIT
 70
2
  9
$DIMLWD
 70
-2
  9
$DIMLWE
 70
-2
  9
$DIMTMOVE
 70
0
  9
$DIMFXL
 40
1.0
  9
$DIMFXLON
 70
0
  9
$DIMJOGANG
 40
0.785398163397
  9
$DIMTFILL
 70
0
  9
$DIMTFILLCLR
 70
0
  9
$DIMARCSYM
 70
0
  9
$DIMLTYPE
  6

  9
$DIMLTEX1
  6

  9
$DIMLTEX2
  6

  9
$DIMTXTDIRECTION
 70
0
  9
$LUNITS
 70
2
  9
$LUPREC
 70
4
  9
$SKETCHINC
 40
1.0
  9
$FILLETRAD
 40
10.0
  9
$AUNITS
 70
0
  9
$AUPREC
 70
2
  9
$MENU
  1
.
  9
$ELEVATION
 40
0.0
  9
$PELEVATION
 40
0.0
  9
$THICKNESS
 40
0.0
  9
$LIMCHECK
 70
0
  9
$CHAMFERA
 40
0.0
  9
$CHAMFERB
 40
0.0
  9
$CHAMFERC
 40
0.0
  9
$CHAMFERD
 40
0.0
  9
$SKPOLY
 70
0
  9
$TDCREATE
 40
2461258.4786921297
  9
$TDUCREATE
 40
2458532.153996898
  9
$TDUPDATE
 40
2461258.4786921297
  9
$TDUUPDATE
 40
2458532.1544311
  9
$TDINDWG
 40
0.0
  9
$TDUSRTIMER
 40
0.0
  9
$USRTIMER
 70
1
  9
$ANGBASE
 50
0.0
  9
$ANGDIR
 70
0
  9
$PDMODE
 70
0
  9
$PDSIZE
 40
0.0
  9
$PLINEWID
 40
0.0
  9
$SPLFRAME
 70
0
  9
$SPLINETYPE
 70
6
  9
$SPLINESEGS
 70
8
  9
$HANDSEED
  5
25B
  9
$SURFTAB1
 70
6
  9
$SURFTAB2
 70
6
  9
$SURFTYPE
 70
6
  9
$SURFU
 70
6
  9
$SURFV
 70
6
  9
$UCSBASE
  2

  9
$UCSNAME
  2

  9
$UCSORG
 10
0.0
 20
0.0
 30
0.0
  9
$UCSXDIR
 10
1.0
 20
0.0
 30
0.0
  9
$UCSYDIR
 10
0.0
 20
1.0
 30
0.0
  9
$UCSORTHOREF
  2

  9
$UCSORTHOVIEW
 70
0
  9
$UCSORGTOP
 10
0.0
 20
0.0
 30
0.0
  9
$UCSORGBOTTOM
 10
0.0
 20
0.0
 30
0.0
  9
$UCSORGLEFT
 10
0.0
 20
0.0
 30
0.0
  9
$UCSORGRIGHT
 10
0.0
 20
0.0
 30
0.0
  9
$UCSORGFRONT
 10
0.0
 20
0.0
 30
0.0
  9
$UCSORGBACK
 10
0.0
 20
0.0
 30
0.0
  9
$PUCSBASE
  2

  9
$PUCSNAME
  2

  9
$PUCSORG
 10
0.0
 20
0.0
 30
0.0
  9
$PUCSXDIR
 10
1.0
 20
0.0
 30
0.0
  9
$PUCSYDIR
 10
0.0
 20
1.0
 30
0.0
  9
$PUCSORTHOREF
  2

  9
$PUCSORTHOVIEW
 70
0
  9
$PUCSORGTOP
 10
0.0
 20
0.0
 30
0.0
  9
$PUCSORGBOTTOM
 10
0.0
 20
0.0
 30
0.0
  9
$PUCSORGLEFT
 10
0.0
 20
0.0
 30
0.0
  9
$PUCSORGRIGHT
 10
0.0
 20
0.0
 30
0.0
  9
$PUCSORGFRONT
 10
0.0
 20
0.0
 30
0.0
  9
$PUCSORGBACK
 10
0.0
 20
0.0
 30
0.0
  9
$USERI1
 70
0
  9
$USERI2
 70
0
  9
$USERI3
 70
0
  9
$USERI4
 70
0
  9
$USERI5
 70
0
  9
$USERR1
 40
0.0
  9
$USERR2
 40
0.0
  9
$USERR3
 40
0.0
  9
$USERR4
 40
0.0
  9
$USERR5
 40
0.0
  9
$WORLDVIEW
 70
1
  9
$SHADEDGE
 70
3
  9
$SHADEDIF
 70
70
  9
$TILEMODE
 70
1
  9
$MAXACTVP
 70
64
  9
$PINSBASE
 10
0.0
 20
0.0
 30
0.0
  9
$PLIMCHECK
 70
0
  9
$PEXTMIN
 10
1e+20
 20
1e+20
 30
1e+20
  9
$PEXTMAX
 10
-1e+20
 20
-1e+20
 30
-1e+20
  9
$PLIMMIN
 10
0.0
 20
0.0
  9
$PLIMMAX
 10
420.0
 20
297.0
  9
$UNITMODE
 70
0
  9
$VISRETAIN
 70
1
  9
$PLINEGEN
 70
0
  9
$PSLTSCALE
 70
1
  9
$TREEDEPTH
 70
3020
  9
$CMLSTYLE
  2
Standard
  9
$CMLJUST
 70
0
  9
$CMLSCALE
 40
20.0
  9
$PROXYGRAPHICS
 70
1
  9
$MEASUREMENT
 70
1
  9
$CELWEIGHT
370
-1
  9
$ENDCAPS
280
0
  9
$JOINSTYLE
280
0
  9
$LWDISPLAY
290
0
  9
$INSUNITS
 70
6
  9
$HYPERLINKBASE
  1

  9
$STYLESHEET
  1

  9
$XEDIT
290
1
  9
$CEPSNTYPE
380
0
  9
$PSTYLEMODE
290
1
  9
$FINGERPRINTGUID
  2
{B3E00B9F-99C4-4E9D-A1CC-8466877F6AA8}
  9
$VERSIONGUID
  2
{E089C39A-F5A7-4227-B61E-569108530EDF}
  9
$EXTNAMES
290
1
  9
$PSVPSCALE
 40
0.0
  9
$OLESTARTUP
290
0
  9
$SORTENTS
280
127
  9
$INDEXCTL
280
0
  9
$HIDETEXT
280
1
  9
$XCLIPFRAME
280
1
  9
$HALOGAP
280
0
  9
$OBSCOLOR
 70
257
  9
$OBSLTYPE
280
0
  9
$INTERSECTIONDISPLAY
280
0
  9
$INTERSECTIONCOLOR
 70
257
  9
$DIMASSOC
280
2
  9
$PROJECTNAME
  1

  9
$CAMERADISPLAY
290
0
  9
$LENSLENGTH
 40
50.0
  9
$CAMERAHEIGHT
 40
0.0
  9
$STEPSPERSEC
 40
24.0
  9
$STEPSIZE
 40
100.0
  9
$3DDWFPREC
 40
2.0
  9
$PSOLWIDTH
 40
0.005
  9
$PSOLHEIGHT
 40
0.08
  9
$LOFTANG1
 40
1.570796326795
  9
$LOFTANG2
 40
1.570796326795
  9
$LOFTMAG1
 40
0.0
  9
$LOFTMAG2
 40
0.0
  9
$LOFTPARAM
 70
7
  9
$LOFTNORMALS
280
1
  9
$LATITUDE
 40
37.795
  9
$LONGITUDE
 40
-122.394
  9
$NORTHDIRECTION
 40
0.0
  9
$TIMEZONE
 70
-8000
  9
$LIGHTGLYPHDISPLAY
280
1
  9
$TILEMODELIGHTSYNCH
280
1
  9
$CMATERIAL
347
20
  9
$SOLIDHIST
280
0
  9
$SHOWHIST
280
1
  9
$DWFFRAME
280
2
  9
$DGNFRAME
280
2
  9
$REALWORLDSCALE
290
1
  9
$INTERFERECOLOR
 62
256
  9
$CSHADOW
280
0
  9
$SHADOWPLANELOCATION
 40
0.0
  0
ENDSEC
  0
SECTION
  2
CLASSES
  0
CLASS
  1
ACDBDICTIONARYWDFLT
  2
AcDbDictionaryWithDefault
  3
ObjectDBX Classes
 90
0
 91
0
280
0
281
0
  0
CLASS
  1
SUN
  2
AcDbSun
  3
SCENEOE
 90
1153
 91
0
280
0
281
0
  0
CLASS
  1
VISUALSTYLE
  2
AcDbVisualStyle
  3
ObjectDBX Classes
 90
4095
 91
0
280
0
281
0
  0
CLASS
  1
MATERIAL
  2
AcDbMaterial
  3
ObjectDBX Classes
 90
1153
 91
0
280
0
281
0
  0
CLASS
  1
SCALE
  2
AcDbScale
  3
ObjectDBX Classes
 90
1153
 91
0
280
0
281
0
  0
CLASS
  1
TABLESTYLE
  2
AcDbTableStyle
  3
ObjectDBX Classes
 90
4095
 91
0
280
0
281
0
  0
CLASS
  1
MLEADERSTYLE
  2
AcDbMLeaderStyle
  3
ACDB_MLEADERSTYLE_CLASS
 90
4095
 91
0
280
0
281
0
  0
CLASS
  1
DICTIONARYVAR
  2
AcDbDictionaryVar
  3
ObjectDBX Classes
 90
0
 91
0
280
0
281
0
  0
CLASS
  1
CELLSTYLEMAP
  2
AcDbCellStyleMap
  3
ObjectDBX Classes
 90
1152
 91
0
280
0
281
0
  0
CLASS
  1
MENTALRAYRENDERSETTINGS
  2
AcDbMentalRayRenderSettings
  3
SCENEOE
 90
1024
 91
0
280
0
281
0
  0
CLASS
  1
ACDBDETAILVIEWSTYLE
  2
AcDbDetailViewStyle
  3
ObjectDBX Classes
 90
1025
 91
0
280
0
281
0
  0
CLASS
  1
ACDBSECTIONVIEWSTYLE
  2
AcDbSectionViewStyle
  3
ObjectDBX Classes
 90
1025
 91
0
280
0
281
0
  0
CLASS
  1
RASTERVARIABLES
  2
AcDbRasterVariables
  3
ISM
 90
0
 91
0
280
0
281
0
  0
CLASS
  1
LAYOUT
  2
AcDbLayout
  3
ObjectDBX Classes
 90
0
 91
0
280
0
281
0
  0
CLASS
  1
ACDBPLACEHOLDER
  2
AcDbPlaceHolder
  3
ObjectDBX Classes
 90
0
 91
0
280
0
281
0
  0
ENDSEC
  0
SECTION
  2
TABLES
  0
TABLE
  2
VPORT
  5
8
330
0
100
AcDbSymbolTable
 70
1
  0
VPORT
  5
23
330
8
100
AcDbSymbolTableRecord
100
AcDbViewportTableRecord
  2
*Active
 70
0
 10
0.0
 20
0.0
 11
1.0
 21
1.0
 12
0.0
 22
0.0
 13
0.0
 23
0.0
 14
0.5
 24
0.5
 15
0.5
 25
0.5
 16
0.0
 26
0.0
 36
1.0
 17
0.0
 27
0.0
 37
0.0
 40
1000.0
 41
1.34
 42
50.0
 43
0.0
 44
0.0
 50
0.0
 51
0.0
 71
0
 72
1000
 73
1
 74
3
 75
0
 76
0
 77
0
 78
0
281
0
 65
0
146
0.0
  0
ENDTAB
  0
TABLE
  2
LTYPE
  5
2
330
0
100
AcDbSymbolTable
 70
3
  0
LTYPE
  5
24
330
2
100
AcDbSymbolTableRecord
100
AcDbLinetypeTableRecord
  2
ByBlock
 70
0
  3

 72
65
 73
0
 40
0.0
  0
LTYPE
  5
25
330
2
100
AcDbSymbolTableRecord
100
AcDbLinetypeTableRecord
  2
ByLayer
 70
0
  3

 72
65
 73
0
 40
0.0
  0
LTYPE
  5
26
330
2
100
AcDbSymbolTableRecord
100
AcDbLinetypeTableRecord
  2
Continuous
 70
0
  3

 72
65
 73
0
 40
0.0
  0
ENDTAB
  0
TABLE
  2
LAYER
  5
1
330
0
100
AcDbSymbolTable
 70
17
  0
LAYER
  5
27
330
1
100
AcDbSymbolTableRecord
100
AcDbLayerTableRecord
  2
0
 70
0
 62
7
  6
Continuous
370
-3
390
13
347
21
  0
LAYER
  5
28
330
1
100
AcDbSymbolTableRecord
100
AcDbLayerTableRecord
  2
Defpoints
 70
0
 62
7
  6
Continuous
290
0
370
-3
390
13
347
21
  0
LAYER
  5
2F
330
1
100
AcDbSymbolTableRecord
100
AcDbLayerTableRecord
  2
WALL_REF
 70
0
 62
1
  6
Continuous
370
-3
390
13
347
21
  0
LAYER
  5
30
330
1
100
AcDbSymbolTableRecord
100
AcDbLayerTableRecord
  2
WALING
 70
0
 62
6
  6
Continuous
370
-3
390
13
347
21
  0
LAYER
  5
31
330
1
100
AcDbSymbolTableRecord
100
AcDbLayerTableRecord
  2
STRUT
 70
0
 62
4
  6
Continuous
370
-3
390
13
347
21
  0
LAYER
  5
32
330
1
100
AcDbSymbolTableRecord
100
AcDbLayerTableRecord
  2
CORNER
 70
0
 62
2
  6
Continuous
370
-3
390
13
347
21
  0
LAYER
  5
33
330
1
100
AcDbSymbolTableRecord
100
AcDbLayerTableRecord
  2
TIE
 70
0
 62
8
  6
Continuous
370
-3
390
13
347
21
  0
LAYER
  5
34
330
1
100
AcDbSymbolTableRecord
100
AcDbLayerTableRecord
  2
TRUSS_WEB
 70
0
 62
30
  6
Continuous
370
-3
390
13
347
21
  0
LAYER
  5
35
330
1
100
AcDbSymbolTableRecord
100
AcDbLayerTableRecord
  2
RING_STRUT
 70
0
 62
140
  6
Continuous
370
-3
390
13
347
21
  0
LAYER
  5
36
330
1
100
AcDbSymbolTableRecord
100
AcDbLayerTableRecord
  2
RADIAL_STRUT
 70
0
 62
5
  6
Continuous
370
-3
390
13
347
21
  0
LAYER
  5
37
330
1
100
AcDbSymbolTableRecord
100
AcDbLayerTableRecord
  2
PILLAR
 70
0
 62
7
  6
Continuous
370
-3
390
13
347
21
  0
LAYER
  5
38
330
1
100
AcDbSymbolTableRecord
100
AcDbLayerTableRecord
  2
STRUT_OUTLINE
 70
0
 62
9
  6
Continuous
370
-3
390
13
347
21
  0
LAYER
  5
39
330
1
100
AcDbSymbolTableRecord
100
AcDbLayerTableRecord
  2
WALING_OUTLINE
 70
0
 62
213
  6
Continuous
370
-3
390
13
347
21
  0
LAYER
  5
3A
330
1
100
AcDbSymbolTableRecord
100
AcDbLayerTableRecord
  2
TRUSS_CHORD
 70
0
 62
3
  6
Continuous
370
-3
390
13
347
21
  0
LAYER
  5
3B
330
1
100
AcDbSymbolTableRecord
100
AcDbLayerTableRecord
  2
DEBUG_NODE
 70
0
 62
1
  6
Continuous
370
-3
390
13
347
21
  0
LAYER
  5
3C
330
1
100
AcDbSymbolTableRecord
100
AcDbLayerTableRecord
  2
DEBUG_ISSUE
 70
0
 62
1
  6
Continuous
370
-3
390
13
347
21
  0
LAYER
  5
3D
330
1
100
AcDbSymbolTableRecord
100
AcDbLayerTableRecord
  2
CORE_PROTECTION
 70
0
 62
1
  6
Continuous
370
-3
390
13
347
21
  0
ENDTAB
  0
TABLE
  2
STYLE
  5
5
330
0
100
AcDbSymbolTable
 70
1
  0
STYLE
  5
29
330
5
100
AcDbSymbolTableRecord
100
AcDbTextStyleTableRecord
  2
Standard
 70
0
 40
0.0
 41
1.0
 50
0.0
 71
0
 42
2.5
  3
txt
  4

  0
ENDTAB
  0
TABLE
  2
VIEW
  5
7
330
0
100
AcDbSymbolTable
 70
0
  0
ENDTAB
  0
TABLE
  2
UCS
  5
6
330
0
100
AcDbSymbolTable
 70
0
  0
ENDTAB
  0
TABLE
  2
APPID
  5
3
330
0
100
AcDbSymbolTable
 70
3
  0
APPID
  5
2A
330
3
100
AcDbSymbolTableRecord
100
AcDbRegAppTableRecord
  2
ACAD
 70
0
  0
APPID
  5
258
330
3
100
AcDbSymbolTableRecord
100
AcDbRegAppTableRecord
  2
HATCHBACKGROUNDCOLOR
 70
0
  0
APPID
  5
259
330
3
100
AcDbSymbolTableRecord
100
AcDbRegAppTableRecord
  2
EZDXF
 70
0
  0
ENDTAB
  0
TABLE
  2
DIMSTYLE
  5
4
330
0
100
AcDbSymbolTable
 70
1
100
AcDbDimStyleTable
  0
DIMSTYLE
105
2B
330
4
100
AcDbSymbolTableRecord
100
AcDbDimStyleTableRecord
  2
Standard
 70
0
 40
1.0
 41
2.5
 42
0.625
 43
3.75
 44
1.25
 45
0.0
 46
0.0
 47
0.0
 48
0.0
 49
2.5
140
2.5
141
2.5
142
0.0
143
0.03937007874
144
1.0
145
0.0
146
1.0
147
0.625
148
0.0
 69
0
 70
0
 71
0
 72
0
 73
0
 74
0
 75
0
 76
0
 77
1
 78
8
 79
3
170
0
171
3
172
1
173
0
174
0
175
0
176
0
177
0
178
0
179
2
271
2
272
2
273
2
274
3
275
0
276
0
277
2
278
44
279
0
280
0
281
0
282
0
283
0
284
8
285
0
286
0
288
0
289
3
290
0
371
-2
372
-2
  0
ENDTAB
  0
TABLE
  2
BLOCK_RECORD
  5
9
330
0
100
AcDbSymbolTable
 70
2
  0
BLOCK_RECORD
  5
17
330
9
100
AcDbSymbolTableRecord
100
AcDbBlockTableRecord
  2
*Model_Space
340
1A
 70
0
280
1
281
0
  0
BLOCK_RECORD
  5
1B
330
9
100
AcDbSymbolTableRecord
100
AcDbBlockTableRecord
  2
*Paper_Space
340
1E
 70
0
280
1
281
0
  0
ENDTAB
  0
ENDSEC
  0
SECTION
  2
BLOCKS
  0
BLOCK
  5
18
330
17
100
AcDbEntity
  8
0
100
AcDbBlockBegin
  2
*Model_Space
 70
0
 10
0.0
 20
0.0
 30
0.0
  3
*Model_Space
  1

  0
ENDBLK
  5
19
330
17
100
AcDbEntity
  8
0
100
AcDbBlockEnd
  0
BLOCK
  5
1C
330
1B
100
AcDbEntity
  8
0
100
AcDbBlockBegin
  2
*Paper_Space
 70
0
 10
0.0
 20
0.0
 30
0.0
  3
*Paper_Space
  1

  0
ENDBLK
  5
1D
330
1B
100
AcDbEntity
  8
0
100
AcDbBlockEnd
  0
ENDSEC
  0
SECTION
  2
ENTITIES
  0
LWPOLYLINE
  5
3E
330
17
100
AcDbEntity
  8
WALL_REF
100
AcDbPolyline
 90
6
 70
1
 10
0.0
 20
0.0
 10
60.0
 20
0.0
 10
60.0
 20
20.0
 10
30.0
 20
20.0
 10
30.0
 20
40.0
 10
0.0
 20
40.0
  0
LWPOLYLINE
  5
3F
330
17
100
AcDbEntity
  8
TRUSS_WEB
100
AcDbPolyline
 90
2
 70
0
 10
-2.0
 20
22.0
 10
2.5
 20
25.375
  0
LWPOLYLINE
  5
40
330
17
100
AcDbEntity
  8
TRUSS_WEB
100
AcDbPolyline
 90
2
 70
0
 10
2.5
 20
25.375
 10
-2.0
 20
28.75
  0
LWPOLYLINE
  5
41
330
17
100
AcDbEntity
  8
TRUSS_CHORD
100
AcDbPolyline
 90
2
 70
0
 10
27.5
 20
28.75
 10
27.5
 20
22.0
  0
LWPOLYLINE
  5
42
330
17
100
AcDbEntity
  8
TRUSS_CHORD
100
AcDbPolyline
 90
2
 70
0
 10
12.0
 20
17.5
 10
21.0
 20
17.5
  0
LWPOLYLINE
  5
43
330
17
100
AcDbEntity
  8
TRUSS_CHORD
100
AcDbPolyline
 90
2
 70
0
 10
32.0
 20
17.5
 10
39.0
 20
17.5
  0
LWPOLYLINE
  5
44
330
17
100
AcDbEntity
  8
TRUSS_WEB
100
AcDbPolyline
 90
2
 70
0
 10
20.25
 20
37.5
 10
20.999999984247623
 20
38.72727270149611
  0
LWPOLYLINE
  5
45
330
17
100
AcDbEntity
  8
WALING
100
AcDbPolyline
 90
2
 70
1
 10
-2.0
 20
-2.0
 10
-2.0
 20
2.5
  0
LWPOLYLINE
  5
46
330
17
100
AcDbEntity
  8
WALING
100
AcDbPolyline
 90
2
 70
1
 10
-2.0
 20
2.5
 10
-2.0
 20
7.0
  0
LWPOLYLINE
  5
47
330
17
100
AcDbEntity
  8
WALING
100
AcDbPolyline
 90
2
 70
1
 10
-2.0
 20
7.0
 10
-2.0
 20
11.25
  0
LWPOLYLINE
  5
48
330
17
100
AcDbEntity
  8
WALING
100
AcDbPolyline
 90
2
 70
1
 10
-2.0
 20
11.25
 10
-2.0
 20
16.625
  0
LWPOLYLINE
  5
49
330
17
100
AcDbEntity
  8
WALING
100
AcDbPolyline
 90
2
 70
1
 10
-2.0
 20
16.625
 10
-2.0
 20
17.5
  0
LWPOLYLINE
  5
4A
330
17
100
AcDbEntity
  8
WALING
100
AcDbPolyline
 90
2
 70
1
 10
-2.0
 20
17.5
 10
-2.0
 20
22.0
  0
LWPOLYLINE
  5
4B
330
17
100
AcDbEntity
  8
WALING
100
AcDbPolyline
 90
2
 70
1
 10
-2.0
 20
22.0
 10
-2.0
 20
28.75
  0
LWPOLYLINE
  5
4C
330
17
100
AcDbEntity
  8
WALING
100
AcDbPolyline
 90
2
 70
1
 10
-2.0
 20
28.75
 10
-2.0
 20
33.0
  0
LWPOLYLINE
  5
4D
330
17
100
AcDbEntity
  8
WALING
100
AcDbPolyline
 90
2
 70
1
 10
-2.0
 20
33.0
 10
-2.0
 20
37.5
  0
LWPOLYLINE
  5
4E
330
17
100
AcDbEntity
  8
WALING
100
AcDbPolyline
 90
3
 70
1
 10
-2.0
 20
37.5
 10
-2.0
 20
42.0
 10
2.5
 20
42.0
  0
LWPOLYLINE
  5
4F
330
17
100
AcDbEntity
  8
WALING
100
AcDbPolyline
 90
2
 70
1
 10
2.5
 20
42.0
 10
7.0
 20
42.0
  0
LWPOLYLINE
  5
50
330
17
100
AcDbEntity
  8
WALING
100
AcDbPolyline
 90
2
 70
1
 10
7.0
 20
42.0
 10
12.0
 20
42.0
  0
LWPOLYLINE
  5
51
330
17
100
AcDbEntity
  8
WALING
100
AcDbPolyline
 90
2
 70
1
 10
12.0
 20
42.0
 10
17.5
 20
42.0
  0
LWPOLYLINE
  5
52
330
17
100
AcDbEntity
  8
WALING
100
AcDbPolyline
 90
2
 70
1
 10
17.5
 20
42.0
 10
21.0
 20
42.0
  0
LWPOLYLINE
  5
53
330
17
100
AcDbEntity
  8
WALING
100
AcDbPolyline
 90
2
 70
1
 10
21.0
 20
42.0
 10
23.0
 20
42.0
  0
LWPOLYLINE
  5
54
330
17
100
AcDbEntity
  8
WALING
100
AcDbPolyline
 90
2
 70
1
 10
23.0
 20
42.0
 10
27.5
 20
42.0
  0
LWPOLYLINE
  5
55
330
17
100
AcDbEntity
  8
WALING
100
AcDbPolyline
 90
3
 70
1
 10
27.5
 20
42.0
 10
32.0
 20
42.0
 10
32.0
 20
37.5
  0
LWPOLYLINE
  5
56
330
17
100
AcDbEntity
  8
WALING
100
AcDbPolyline
 90
2
 70
1
 10
32.0
 20
37.5
 10
32.0
 20
33.205771
  0
LWPOLYLINE
  5
57
330
17
100
AcDbEntity
  8
WALING
100
AcDbPolyline
 90
2
 70
1
 10
32.0
 20
33.205771
 10
32.0
 20
33.0
  0
LWPOLYLINE
  5
58
330
17
100
AcDbEntity
  8
WALING
100
AcDbPolyline
 90
2
 70
1
 10
32.0
 20
33.0
 10
32.0
 20
30.794229
  0
LWPOLYLINE
  5
59
330
17
100
AcDbEntity
  8
WALING
100
AcDbPolyline
 90
2
 70
1
 10
32.0
 20
30.794229
 10
32.0
 20
28.75
  0
LWPOLYLINE
  5
5A
330
17
100
AcDbEntity
  8
WALING
100
AcDbPolyline
 90
2
 70
1
 10
32.0
 20
28.75
 10
32.0
 20
22.0
  0
LWPOLYLINE
  5
5B
330
17
100
AcDbEntity
  8
WALING
100
AcDbPolyline
 90
2
 70
1
 10
32.0
 20
22.0
 10
39.0
 20
22.0
  0
LWPOLYLINE
  5
5C
330
17
100
AcDbEntity
  8
WALING
100
AcDbPolyline
 90
2
 70
1
 10
39.0
 20
22.0
 10
41.0
 20
22.0
  0
LWPOLYLINE
  5
5D
330
17
100
AcDbEntity
  8
WALING
100
AcDbPolyline
 90
2
 70
1
 10
41.0
 20
22.0
 10
48.0
 20
22.0
  0
LWPOLYLINE
  5
5E
330
17
100
AcDbEntity
  8
WALING
100
AcDbPolyline
 90
2
 70
1
 10
48.0
 20
22.0
 10
53.0
 20
22.0
  0
LWPOLYLINE
  5
5F
330
17
100
AcDbEntity
  8
WALING
100
AcDbPolyline
 90
2
 70
1
 10
53.0
 20
22.0
 10
57.5
 20
22.0
  0
LWPOLYLINE
  5
60
330
17
100
AcDbEntity
  8
WALING
100
AcDbPolyline
 90
3
 70
1
 10
57.5
 20
22.0
 10
62.0
 20
22.0
 10
62.0
 20
17.5
  0
LWPOLYLINE
  5
61
330
17
100
AcDbEntity
  8
WALING
100
AcDbPolyline
 90
2
 70
1
 10
62.0
 20
17.5
 10
62.0
 20
13.0
  0
LWPOLYLINE
  5
62
330
17
100
AcDbEntity
  8
WALING
100
AcDbPolyline
 90
2
 70
1
 10
62.0
 20
13.0
 10
62.0
 20
11.25
  0
LWPOLYLINE
  5
63
330
17
100
AcDbEntity
  8
WALING
100
AcDbPolyline
 90
2
 70
1
 10
62.0
 20
11.25
 10
62.0
 20
7.0
  0
LWPOLYLINE
  5
64
330
17
100
AcDbEntity
  8
WALING
100
AcDbPolyline
 90
2
 70
1
 10
62.0
 20
7.0
 10
62.0
 20
2.5
  0
LWPOLYLINE
  5
65
330
17
100
AcDbEntity
  8
WALING
100
AcDbPolyline
 90
3
 70
1
 10
62.0
 20
2.5
 10
62.0
 20
-2.0
 10
57.5
 20
-2.0
  0
LWPOLYLINE
  5
66
330
17
100
AcDbEntity
  8
WALING
100
AcDbPolyline
 90
2
 70
1
 10
57.5
 20
-2.0
 10
53.0
 20
-2.0
  0
LWPOLYLINE
  5
67
330
17
100
AcDbEntity
  8
WALING
100
AcDbPolyline
 90
2
 70
1
 10
53.0
 20
-2.0
 10
48.0
 20
-2.0
  0
LWPOLYLINE
  5
68
330
17
100
AcDbEntity
  8
WALING
100
AcDbPolyline
 90
2
 70
1
 10
48.0
 20
-2.0
 10
39.0
 20
-2.0
  0
LWPOLYLINE
  5
69
330
17
100
AcDbEntity
  8
WALING
100
AcDbPolyline
 90
2
 70
1
 10
39.0
 20
-2.0
 10
32.0
 20
-2.0
  0
LWPOLYLINE
  5
6A
330
17
100
AcDbEntity
  8
WALING
100
AcDbPolyline
 90
2
 70
1
 10
32.0
 20
-2.0
 10
27.5
 20
-2.0
  0
LWPOLYLINE
  5
6B
330
17
100
AcDbEntity
  8
WALING
100
AcDbPolyline
 90
2
 70
1
 10
27.5
 20
-2.0
 10
26.5
 20
-2.0
  0
LWPOLYLINE
  5
6C
330
17
100
AcDbEntity
  8
WALING
100
AcDbPolyline
 90
2
 70
1
 10
26.5
 20
-2.0
 10
21.0
 20
-2.0
  0
LWPOLYLINE
  5
6D
330
17
100
AcDbEntity
  8
WALING
100
AcDbPolyline
 90
2
 70
1
 10
21.0
 20
-2.0
 10
12.0
 20
-2.0
  0
LWPOLYLINE
  5
6E
330
17
100
AcDbEntity
  8
WALING
100
AcDbPolyline
 90
2
 70
1
 10
12.0
 20
-2.0
 10
7.0
 20
-2.0
  0
LWPOLYLINE
  5
6F
330
17
100
AcDbEntity
  8
WALING
100
AcDbPolyline
 90
2
 70
1
 10
7.0
 20
-2.0
 10
2.5
 20
-2.0
  0
LWPOLYLINE
  5
70
330
17
100
AcDbEntity
  8
WALING
100
AcDbPolyline
 90
2
 70
1
 10
2.5
 20
-2.0
 10
-2.0
 20
-2.0
  0
LWPOLYLINE
  5
71
330
17
100
AcDbEntity
  8
STRUT
100
AcDbPolyline
 90
2
 70
0
 10
12.0
 20
-2.0
 10
12.0
 20
2.5
  0
LWPOLYLINE
  5
72
330
17
100
AcDbEntity
  8
STRUT
100
AcDbPolyline
 90
2
 70
0
 10
12.0
 20
2.5
 10
12.0
 20
11.25
  0
LWPOLYLINE
  5
73
330
17
100
AcDbEntity
  8
STRUT
100
AcDbPolyline
 90
2
 70
0
 10
12.0
 20
11.25
 10
12.0
 20
17.5
  0
LWPOLYLINE
  5
74
330
17
100
AcDbEntity
  8
STRUT
100
AcDbPolyline
 90
2
 70
0
 10
12.0
 20
17.5
 10
12.0
 20
22.0
  0
LWPOLYLINE
  5
75
330
17
100
AcDbEntity
  8
STRUT
100
AcDbPolyline
 90
2
 70
0
 10
12.0
 20
22.0
 10
12.0
 20
28.75
  0
LWPOLYLINE
  5
76
330
17
100
AcDbEntity
  8
STRUT
100
AcDbPolyline
 90
2
 70
0
 10
12.0
 20
28.75
 10
12.0
 20
37.5
  0
LWPOLYLINE
  5
77
330
17
100
AcDbEntity
  8
STRUT
100
AcDbPolyline
 90
2
 70
0
 10
12.0
 20
37.5
 10
12.0
 20
42.0
  0
LWPOLYLINE
  5
78
330
17
100
AcDbEntity
  8
STRUT
100
AcDbPolyline
 90
2
 70
0
 10
21.0
 20
-2.0
 10
21.0
 20
2.5
  0
LWPOLYLINE
  5
79
330
17
100
AcDbEntity
  8
STRUT
100
AcDbPolyline
 90
2
 70
0
 10
21.0
 20
2.5
 10
21.0
 20
11.25
  0
LWPOLYLINE
  5
7A
330
17
100
AcDbEntity
  8
STRUT
100
AcDbPolyline
 90
2
 70
0
 10
21.0
 20
11.25
 10
21.0
 20
17.5
  0
LWPOLYLINE
  5
7B
330
17
100
AcDbEntity
  8
STRUT
100
AcDbPolyline
 90
2
 70
0
 10
21.0
 20
17.5
 10
21.0
 20
22.0
  0
LWPOLYLINE
  5
7C
330
17
100
AcDbEntity
  8
STRUT
100
AcDbPolyline
 90
2
 70
0
 10
21.0
 20
22.0
 10
21.0
 20
28.75
  0
LWPOLYLINE
  5
7D
330
17
100
AcDbEntity
  8
STRUT
100
AcDbPolyline
 90
2
 70
0
 10
21.0
 20
28.75
 10
21.0
 20
37.5
  0
LWPOLYLINE
  5
7E
330
17
100
AcDbEntity
  8
STRUT
100
AcDbPolyline
 90
2
 70
0
 10
21.0
 20
37.5
 10
21.0
 20
38.727273
  0
LWPOLYLINE
  5
7F
330
17
100
AcDbEntity
  8
STRUT
100
AcDbPolyline
 90
2
 70
0
 10
21.0
 20
38.727273
 10
21.0
 20
42.0
  0
LWPOLYLINE
  5
80
330
17
100
AcDbEntity
  8
STRUT
100
AcDbPolyline
 90
2
 70
0
 10
39.0
 20
-2.0
 10
39.0
 20
2.5
  0
LWPOLYLINE
  5
81
330
17
100
AcDbEntity
  8
STRUT
100
AcDbPolyline
 90
2
 70
0
 10
39.0
 20
2.5
 10
39.0
 20
11.25
  0
LWPOLYLINE
  5
82
330
17
100
AcDbEntity
  8
STRUT
100
AcDbPolyline
 90
2
 70
0
 10
39.0
 20
11.25
 10
39.0
 20
17.5
  0
LWPOLYLINE
  5
83
330
17
100
AcDbEntity
  8
STRUT
100
AcDbPolyline
 90
2
 70
0
 10
39.0
 20
17.5
 10
39.0
 20
22.0
  0
LWPOLYLINE
  5
84
330
17
100
AcDbEntity
  8
STRUT
100
AcDbPolyline
 90
2
 70
0
 10
48.0
 20
-2.0
 10
48.0
 20
2.5
  0
LWPOLYLINE
  5
85
330
17
100
AcDbEntity
  8
STRUT
100
AcDbPolyline
 90
2
 70
0
 10
48.0
 20
2.5
 10
48.0
 20
11.25
  0
LWPOLYLINE
  5
86
330
17
100
AcDbEntity
  8
STRUT
100
AcDbPolyline
 90
2
 70
0
 10
48.0
 20
11.25
 10
48.0
 20
17.5
  0
LWPOLYLINE
  5
87
330
17
100
AcDbEntity
  8
STRUT
100
AcDbPolyline
 90
2
 70
0
 10
48.0
 20
17.5
 10
48.0
 20
22.0
  0
LWPOLYLINE
  5
88
330
17
100
AcDbEntity
  8
STRUT
100
AcDbPolyline
 90
2
 70
0
 10
-2.0
 20
11.25
 10
2.5
 20
11.25
  0
LWPOLYLINE
  5
89
330
17
100
AcDbEntity
  8
STRUT
100
AcDbPolyline
 90
2
 70
0
 10
2.5
 20
11.25
 10
12.0
 20
11.25
  0
LWPOLYLINE
  5
8A
330
17
100
AcDbEntity
  8
STRUT
100
AcDbPolyline
 90
2
 70
0
 10
12.0
 20
11.25
 10
21.0
 20
11.25
  0
LWPOLYLINE
  5
8B
330
17
100
AcDbEntity
  8
STRUT
100
AcDbPolyline
 90
2
 70
0
 10
21.0
 20
11.25
 10
27.5
 20
11.25
  0
LWPOLYLINE
  5
8C
330
17
100
AcDbEntity
  8
STRUT
100
AcDbPolyline
 90
2
 70
0
 10
27.5
 20
11.25
 10
32.0
 20
11.25
  0
LWPOLYLINE
  5
8D
330
17
100
AcDbEntity
  8
STRUT
100
AcDbPolyline
 90
2
 70
0
 10
32.0
 20
11.25
 10
39.0
 20
11.25
  0
LWPOLYLINE
  5
8E
330
17
100
AcDbEntity
  8
STRUT
100
AcDbPolyline
 90
2
 70
0
 10
39.0
 20
11.25
 10
48.0
 20
11.25
  0
LWPOLYLINE
  5
8F
330
17
100
AcDbEntity
  8
STRUT
100
AcDbPolyline
 90
2
 70
0
 10
48.0
 20
11.25
 10
57.5
 20
11.25
  0
LWPOLYLINE
  5
90
330
17
100
AcDbEntity
  8
STRUT
100
AcDbPolyline
 90
2
 70
0
 10
57.5
 20
11.25
 10
59.375
 20
11.25
  0
LWPOLYLINE
  5
91
330
17
100
AcDbEntity
  8
STRUT
100
AcDbPolyline
 90
2
 70
0
 10
59.375
 20
11.25
 10
62.0
 20
11.25
  0
LWPOLYLINE
  5
92
330
17
100
AcDbEntity
  8
STRUT
100
AcDbPolyline
 90
2
 70
0
 10
-2.0
 20
28.75
 10
2.5
 20
28.75
  0
LWPOLYLINE
  5
93
330
17
100
AcDbEntity
  8
STRUT
100
AcDbPolyline
 90
2
 70
0
 10
2.5
 20
28.75
 10
12.0
 20
28.75
  0
LWPOLYLINE
  5
94
330
17
100
AcDbEntity
  8
STRUT
100
AcDbPolyline
 90
2
 70
0
 10
12.0
 20
28.75
 10
21.0
 20
28.75
  0
LWPOLYLINE
  5
95
330
17
100
AcDbEntity
  8
STRUT
100
AcDbPolyline
 90
2
 70
0
 10
21.0
 20
28.75
 10
27.5
 20
28.75
  0
LWPOLYLINE
  5
96
330
17
100
AcDbEntity
  8
STRUT
100
AcDbPolyline
 90
2
 70
0
 10
27.5
 20
28.75
 10
32.0
 20
28.75
  0
LWPOLYLINE
  5
97
330
17
100
AcDbEntity
  8
STRUT
100
AcDbPolyline
 90
2
 70
0
 10
32.0
 20
22.0
 10
32.0
 20
17.5
  0
LWPOLYLINE
  5
98
330
17
100
AcDbEntity
  8
STRUT
100
AcDbPolyline
 90
2
 70
0
 10
32.0
 20
17.5
 10
32.0
 20
11.25
  0
LWPOLYLINE
  5
99
330
17
100
AcDbEntity
  8
STRUT
100
AcDbPolyline
 90
2
 70
0
 10
32.0
 20
11.25
 10
32.0
 20
2.5
  0
LWPOLYLINE
  5
9A
330
17
100
AcDbEntity
  8
STRUT
100
AcDbPolyline
 90
2
 70
0
 10
32.0
 20
2.5
 10
32.0
 20
-2.0
  0
LWPOLYLINE
  5
9B
330
17
100
AcDbEntity
  8
STRUT
100
AcDbPolyline
 90
2
 70
0
 10
32.0
 20
22.0
 10
27.5
 20
22.0
  0
LWPOLYLINE
  5
9C
330
17
100
AcDbEntity
  8
STRUT
100
AcDbPolyline
 90
2
 70
0
 10
27.5
 20
22.0
 10
21.0
 20
22.0
  0
LWPOLYLINE
  5
9D
330
17
100
AcDbEntity
  8
STRUT
100
AcDbPolyline
 90
2
 70
0
 10
21.0
 20
22.0
 10
12.0
 20
22.0
  0
LWPOLYLINE
  5
9E
330
17
100
AcDbEntity
  8
STRUT
100
AcDbPolyline
 90
2
 70
0
 10
12.0
 20
22.0
 10
2.5
 20
22.0
  0
LWPOLYLINE
  5
9F
330
17
100
AcDbEntity
  8
STRUT
100
AcDbPolyline
 90
2
 70
0
 10
2.5
 20
22.0
 10
-2.0
 20
22.0
  0
LWPOLYLINE
  5
A0
330
17
100
AcDbEntity
  8
TRUSS_WEB
100
AcDbPolyline
 90
2
 70
0
 10
-2.0
 20
7.0
 10
2.4999997202719513
 20
9.1249998679062
  0
LWPOLYLINE
  5
A1
330
17
100
AcDbEntity
  8
TRUSS_WEB
100
AcDbPolyline
 90
2
 70
0
 10
2.5
 20
9.125
 10
-1.9999997202719513
 20
11.2499998679062
  0
LWPOLYLINE
  5
A2
330
17
100
AcDbEntity
  8
TRUSS_WEB
100
AcDbPolyline
 90
2
 70
0
 10
-2.0
 20
11.25
 10
2.4999995980445284
 20
13.937499759943261
  0
LWPOLYLINE
  5
A3
330
17
100
AcDbEntity
  8
TRUSS_WEB
100
AcDbPolyline
 90
2
 70
0
 10
2.5
 20
13.9375
 10
-1.9999995980445284
 20
16.62499975994326
  0
LWPOLYLINE
  5
A4
330
17
100
AcDbEntity
  8
TRUSS_WEB
100
AcDbPolyline
 90
2
 70
0
 10
-2.0
 20
16.625
 10
-0.5348838917317009
 20
17.49999989799357
  0
LWPOLYLINE
  5
A5
330
17
100
AcDbEntity
  8
TRUSS_WEB
100
AcDbPolyline
 90
2
 70
0
 10
-0.5348838917317009
 20
17.49999989799357
 10
2.4999995980445284
 20
19.31249975994326
  0
LWPOLYLINE
  5
A6
330
17
100
AcDbEntity
  8
TRUSS_WEB
100
AcDbPolyline
 90
2
 70
0
 10
2.5
 20
19.3125
 10
-1.9999995980445284
 20
21.99999975994326
  0
LWPOLYLINE
  5
A7
330
17
100
AcDbEntity
  8
TRUSS_WEB
100
AcDbPolyline
 90
2
 70
0
 10
-2.0
 20
28.75
 10
2.4999997202719513
 20
30.874999867906197
  0
LWPOLYLINE
  5
A8
330
17
100
AcDbEntity
  8
TRUSS_WEB
100
AcDbPolyline
 90
2
 70
0
 10
2.5
 20
30.875
 10
-1.9999997202719513
 20
32.9999998679062
  0
LWPOLYLINE
  5
A9
330
17
100
AcDbEntity
  8
TRUSS_WEB
100
AcDbPolyline
 90
2
 70
0
 10
7.0
 20
42.0
 10
9.49999996576533
 20
37.50000006162241
  0
LWPOLYLINE
  5
AA
330
17
100
AcDbEntity
  8
TRUSS_WEB
100
AcDbPolyline
 90
2
 70
0
 10
9.5
 20
37.5
 10
11.99999996576533
 20
41.99999993837759
  0
LWPOLYLINE
  5
AB
330
17
100
AcDbEntity
  8
TRUSS_WEB
100
AcDbPolyline
 90
2
 70
0
 10
12.0
 20
42.0
 10
14.75
 20
37.5
  0
LWPOLYLINE
  5
AC
330
17
100
AcDbEntity
  8
TRUSS_WEB
100
AcDbPolyline
 90
2
 70
0
 10
14.75
 20
37.5
 10
17.5
 20
42.0
  0
LWPOLYLINE
  5
AD
330
17
100
AcDbEntity
  8
TRUSS_WEB
100
AcDbPolyline
 90
2
 70
0
 10
17.5
 20
42.0
 10
20.25
 20
37.5
  0
LWPOLYLINE
  5
AE
330
17
100
AcDbEntity
  8
TRUSS_WEB
100
AcDbPolyline
 90
2
 70
0
 10
32.0
 20
33.205771
 10
31.837713832700068
 20
33.162286565726355
  0
LWPOLYLINE
  5
AF
330
17
100
AcDbEntity
  8
TRUSS_WEB
100
AcDbPolyline
 90
2
 70
0
 10
31.837713832700068
 20
33.162286565726355
 10
27.5
 20
32.0
  0
LWPOLYLINE
  5
B0
330
17
100
AcDbEntity
  8
TRUSS_WEB
100
AcDbPolyline
 90
2
 70
0
 10
27.5
 20
32.0
 10
32.0
 20
30.794229
  0
LWPOLYLINE
  5
B1
330
17
100
AcDbEntity
  8
TRUSS_WEB
100
AcDbPolyline
 90
2
 70
0
 10
41.0
 20
22.0
 10
44.4999999229531
 20
17.5000000990603
  0
LWPOLYLINE
  5
B2
330
17
100
AcDbEntity
  8
TRUSS_WEB
100
AcDbPolyline
 90
2
 70
0
 10
44.5
 20
17.5
 10
47.9999999229531
 20
21.9999999009397
  0
LWPOLYLINE
  5
B3
330
17
100
AcDbEntity
  8
TRUSS_WEB
100
AcDbPolyline
 90
2
 70
0
 10
48.0
 20
22.0
 10
50.499999965765326
 20
17.50000006162241
  0
LWPOLYLINE
  5
B4
330
17
100
AcDbEntity
  8
TRUSS_WEB
100
AcDbPolyline
 90
2
 70
0
 10
50.5
 20
17.5
 10
52.999999965765326
 20
21.99999993837759
  0
LWPOLYLINE
  5
B5
330
17
100
AcDbEntity
  8
TRUSS_WEB
100
AcDbPolyline
 90
2
 70
0
 10
57.5
 20
10.0
 10
62.0
 20
7.0
  0
LWPOLYLINE
  5
B6
330
17
100
AcDbEntity
  8
TRUSS_WEB
100
AcDbPolyline
 90
2
 70
0
 10
53.0
 20
-2.0
 10
50.500000034234674
 20
2.4999999383775933
  0
LWPOLYLINE
  5
B7
330
17
100
AcDbEntity
  8
TRUSS_WEB
100
AcDbPolyline
 90
2
 70
0
 10
50.5
 20
2.5
 10
48.000000034234674
 20
-1.9999999383775933
  0
LWPOLYLINE
  5
B8
330
17
100
AcDbEntity
  8
TRUSS_WEB
100
AcDbPolyline
 90
2
 70
0
 10
48.0
 20
-2.0
 10
43.500000021693275
 20
2.4999999783067226
  0
LWPOLYLINE
  5
B9
330
17
100
AcDbEntity
  8
TRUSS_WEB
100
AcDbPolyline
 90
2
 70
0
 10
43.5
 20
2.5
 10
39.000000021693275
 20
-1.9999999783067226
  0
LWPOLYLINE
  5
BA
330
17
100
AcDbEntity
  8
TRUSS_WEB
100
AcDbPolyline
 90
2
 70
0
 10
39.0
 20
-2.0
 10
35.5000000770469
 20
2.4999999009396996
  0
LWPOLYLINE
  5
BB
330
17
100
AcDbEntity
  8
TRUSS_WEB
100
AcDbPolyline
 90
2
 70
0
 10
35.5
 20
2.5
 10
32.0000000770469
 20
-1.9999999009396996
  0
LWPOLYLINE
  5
BC
330
17
100
AcDbEntity
  8
TRUSS_WEB
100
AcDbPolyline
 90
2
 70
0
 10
32.0
 20
-2.0
 10
29.25
 20
2.5
  0
LWPOLYLINE
  5
BD
330
17
100
AcDbEntity
  8
TRUSS_WEB
100
AcDbPolyline
 90
2
 70
0
 10
29.25
 20
2.5
 10
27.500000210572214
 20
-0.3636360190636494
  0
LWPOLYLINE
  5
BE
330
17
100
AcDbEntity
  8
TRUSS_WEB
100
AcDbPolyline
 90
2
 70
0
 10
27.500000210572214
 20
-0.3636360190636494
 10
26.5
 20
-2.0
  0
LWPOLYLINE
  5
BF
330
17
100
AcDbEntity
  8
TRUSS_WEB
100
AcDbPolyline
 90
2
 70
0
 10
26.5
 20
-2.0
 10
23.75
 20
2.5
  0
LWPOLYLINE
  5
C0
330
17
100
AcDbEntity
  8
TRUSS_WEB
100
AcDbPolyline
 90
2
 70
0
 10
23.75
 20
2.5
 10
21.0
 20
-2.0
  0
LWPOLYLINE
  5
C1
330
17
100
AcDbEntity
  8
TRUSS_WEB
100
AcDbPolyline
 90
2
 70
0
 10
21.0
 20
-2.0
 10
16.50000002169328
 20
2.4999999783067226
  0
LWPOLYLINE
  5
C2
330
17
100
AcDbEntity
  8
TRUSS_WEB
100
AcDbPolyline
 90
2
 70
0
 10
16.5
 20
2.5
 10
12.000000021693278
 20
-1.9999999783067226
  0
LWPOLYLINE
  5
C3
330
17
100
AcDbEntity
  8
TRUSS_WEB
100
AcDbPolyline
 90
2
 70
0
 10
12.0
 20
-2.0
 10
9.50000003423467
 20
2.4999999383775933
  0
LWPOLYLINE
  5
C4
330
17
100
AcDbEntity
  8
TRUSS_WEB
100
AcDbPolyline
 90
2
 70
0
 10
9.5
 20
2.5
 10
7.00000003423467
 20
-1.9999999383775933
  0
LWPOLYLINE
  5
C5
330
17
100
AcDbEntity
  8
TRUSS_WEB
100
AcDbPolyline
 90
2
 70
0
 10
2.5
 20
-2.0
 10
-1.9999999783067226
 20
2.4999999783067226
  0
LWPOLYLINE
  5
C6
330
17
100
AcDbEntity
  8
TRUSS_WEB
100
AcDbPolyline
 90
2
 70
0
 10
7.0
 20
-2.0
 10
2.5000000216932774
 20
2.4999999783067226
  0
LWPOLYLINE
  5
C7
330
17
100
AcDbEntity
  8
TRUSS_WEB
100
AcDbPolyline
 90
2
 70
0
 10
2.5000000216932774
 20
2.4999999783067226
 10
-1.9999999566134452
 20
6.999999956613445
  0
LWPOLYLINE
  5
C8
330
17
100
AcDbEntity
  8
TRUSS_WEB
100
AcDbPolyline
 90
2
 70
0
 10
-2.0
 20
37.5
 10
2.4999999783067226
 20
41.999999978306725
  0
LWPOLYLINE
  5
C9
330
17
100
AcDbEntity
  8
TRUSS_WEB
100
AcDbPolyline
 90
2
 70
0
 10
-2.0
 20
33.0
 10
2.4999999783067226
 20
37.499999978306725
  0
LWPOLYLINE
  5
CA
330
17
100
AcDbEntity
  8
TRUSS_WEB
100
AcDbPolyline
 90
2
 70
0
 10
2.4999999783067226
 20
37.499999978306725
 10
6.999999956613445
 20
41.99999995661344
  0
LWPOLYLINE
  5
CB
330
17
100
AcDbEntity
  8
TRUSS_WEB
100
AcDbPolyline
 90
2
 70
0
 10
27.5
 20
42.0
 10
31.99999997830672
 20
37.500000021693275
  0
LWPOLYLINE
  5
CC
330
17
100
AcDbEntity
  8
TRUSS_WEB
100
AcDbPolyline
 90
2
 70
0
 10
23.0
 20
42.0
 10
27.49999997830672
 20
37.500000021693275
  0
LWPOLYLINE
  5
CD
330
17
100
AcDbEntity
  8
TRUSS_WEB
100
AcDbPolyline
 90
2
 70
0
 10
27.49999997830672
 20
37.500000021693275
 10
31.837714000583663
 20
33.16228599941634
  0
LWPOLYLINE
  5
CE
330
17
100
AcDbEntity
  8
TRUSS_WEB
100
AcDbPolyline
 90
2
 70
0
 10
31.837714000583663
 20
33.16228599941634
 10
31.999999956613443
 20
33.00000004338656
  0
LWPOLYLINE
  5
CF
330
17
100
AcDbEntity
  8
TRUSS_WEB
100
AcDbPolyline
 90
2
 70
0
 10
57.5
 20
22.0
 10
61.999999978306725
 20
17.50000002169328
  0
LWPOLYLINE
  5
D0
330
17
100
AcDbEntity
  8
TRUSS_WEB
100
AcDbPolyline
 90
2
 70
0
 10
53.0
 20
22.0
 10
57.499999978306725
 20
17.50000002169328
  0
LWPOLYLINE
  5
D1
330
17
100
AcDbEntity
  8
TRUSS_WEB
100
AcDbPolyline
 90
2
 70
0
 10
57.499999978306725
 20
17.50000002169328
 10
61.99999995661344
 20
13.000000043386555
  0
LWPOLYLINE
  5
D2
330
17
100
AcDbEntity
  8
TRUSS_WEB
100
AcDbPolyline
 90
2
 70
0
 10
62.0
 20
2.5
 10
57.500000021693275
 20
-1.9999999783067226
  0
LWPOLYLINE
  5
D3
330
17
100
AcDbEntity
  8
TRUSS_WEB
100
AcDbPolyline
 90
2
 70
0
 10
62.0
 20
7.0
 10
57.500000021693275
 20
2.5000000216932774
  0
LWPOLYLINE
  5
D4
330
17
100
AcDbEntity
  8
TRUSS_WEB
100
AcDbPolyline
 90
2
 70
0
 10
57.500000021693275
 20
2.5000000216932774
 10
53.00000004338656
 20
-1.9999999566134452
  0
LWPOLYLINE
  5
D5
330
17
100
AcDbEntity
  8
TRUSS_CHORD
100
AcDbPolyline
 90
2
 70
0
 10
2.5
 20
-2.0
 10
2.5
 20
2.5
  0
LWPOLYLINE
  5
D6
330
17
100
AcDbEntity
  8
TRUSS_CHORD
100
AcDbPolyline
 90
2
 70
0
 10
2.5
 20
2.5
 10
2.5
 20
9.125
  0
LWPOLYLINE
  5
D7
330
17
100
AcDbEntity
  8
TRUSS_CHORD
100
AcDbPolyline
 90
2
 70
0
 10
2.5
 20
9.125
 10
2.5
 20
11.25
  0
LWPOLYLINE
  5
D8
330
17
100
AcDbEntity
  8
TRUSS_CHORD
100
AcDbPolyline
 90
2
 70
0
 10
2.5
 20
11.25
 10
2.5
 20
13.9375
  0
LWPOLYLINE
  5
D9
330
17
100
AcDbEntity
  8
TRUSS_CHORD
100
AcDbPolyline
 90
2
 70
0
 10
2.5
 20
13.9375
 10
2.5
 20
17.5
  0
LWPOLYLINE
  5
DA
330
17
100
AcDbEntity
  8
TRUSS_CHORD
100
AcDbPolyline
 90
2
 70
0
 10
2.5
 20
17.5
 10
2.5
 20
19.3125
  0
LWPOLYLINE
  5
DB
330
17
100
AcDbEntity
  8
TRUSS_CHORD
100
AcDbPolyline
 90
2
 70
0
 10
2.5
 20
19.3125
 10
2.5
 20
22.0
  0
LWPOLYLINE
  5
DC
330
17
100
AcDbEntity
  8
TRUSS_CHORD
100
AcDbPolyline
 90
2
 70
0
 10
2.5
 20
22.0
 10
2.5
 20
25.375
  0
LWPOLYLINE
  5
DD
330
17
100
AcDbEntity
  8
TRUSS_CHORD
100
AcDbPolyline
 90
2
 70
0
 10
2.5
 20
25.375
 10
2.5
 20
28.75
  0
LWPOLYLINE
  5
DE
330
17
100
AcDbEntity
  8
TRUSS_CHORD
100
AcDbPolyline
 90
2
 70
0
 10
2.5
 20
28.75
 10
2.5
 20
30.875
  0
LWPOLYLINE
  5
DF
330
17
100
AcDbEntity
  8
TRUSS_CHORD
100
AcDbPolyline
 90
2
 70
0
 10
2.5
 20
30.875
 10
2.5
 20
37.5
  0
LWPOLYLINE
  5
E0
330
17
100
AcDbEntity
  8
TRUSS_CHORD
100
AcDbPolyline
 90
2
 70
0
 10
2.5
 20
37.5
 10
2.5
 20
42.0
  0
LWPOLYLINE
  5
E1
330
17
100
AcDbEntity
  8
TRUSS_CHORD
100
AcDbPolyline
 90
2
 70
0
 10
-2.0
 20
37.5
 10
2.5
 20
37.5
  0
LWPOLYLINE
  5
E2
330
17
100
AcDbEntity
  8
TRUSS_CHORD
100
AcDbPolyline
 90
2
 70
0
 10
2.5
 20
37.5
 10
9.5
 20
37.5
  0
LWPOLYLINE
  5
E3
330
17
100
AcDbEntity
  8
TRUSS_CHORD
100
AcDbPolyline
 90
2
 70
0
 10
9.5
 20
37.5
 10
12.0
 20
37.5
  0
LWPOLYLINE
  5
E4
330
17
100
AcDbEntity
  8
TRUSS_CHORD
100
AcDbPolyline
 90
2
 70
0
 10
12.0
 20
37.5
 10
14.75
 20
37.5
  0
LWPOLYLINE
  5
E5
330
17
100
AcDbEntity
  8
TRUSS_CHORD
100
AcDbPolyline
 90
2
 70
0
 10
14.75
 20
37.5
 10
20.25
 20
37.5
  0
LWPOLYLINE
  5
E6
330
17
100
AcDbEntity
  8
TRUSS_CHORD
100
AcDbPolyline
 90
2
 70
0
 10
20.25
 20
37.5
 10
21.0
 20
37.5
  0
LWPOLYLINE
  5
E7
330
17
100
AcDbEntity
  8
TRUSS_CHORD
100
AcDbPolyline
 90
2
 70
0
 10
21.0
 20
37.5
 10
27.5
 20
37.5
  0
LWPOLYLINE
  5
E8
330
17
100
AcDbEntity
  8
TRUSS_CHORD
100
AcDbPolyline
 90
2
 70
0
 10
27.5
 20
37.5
 10
32.0
 20
37.5
  0
LWPOLYLINE
  5
E9
330
17
100
AcDbEntity
  8
TRUSS_CHORD
100
AcDbPolyline
 90
2
 70
0
 10
27.5
 20
42.0
 10
27.5
 20
37.5
  0
LWPOLYLINE
  5
EA
330
17
100
AcDbEntity
  8
TRUSS_CHORD
100
AcDbPolyline
 90
2
 70
0
 10
27.5
 20
37.5
 10
27.5
 20
32.0
  0
LWPOLYLINE
  5
EB
330
17
100
AcDbEntity
  8
TRUSS_CHORD
100
AcDbPolyline
 90
2
 70
0
 10
27.5
 20
32.0
 10
27.5
 20
28.75
  0
LWPOLYLINE
  5
EC
330
17
100
AcDbEntity
  8
TRUSS_CHORD
100
AcDbPolyline
 90
2
 70
0
 10
27.5
 20
22.0
 10
27.5
 20
17.5
  0
LWPOLYLINE
  5
ED
330
17
100
AcDbEntity
  8
TRUSS_CHORD
100
AcDbPolyline
 90
2
 70
0
 10
27.5
 20
17.5
 10
27.5
 20
11.25
  0
LWPOLYLINE
  5
EE
330
17
100
AcDbEntity
  8
TRUSS_CHORD
100
AcDbPolyline
 90
2
 70
0
 10
27.5
 20
11.25
 10
27.5
 20
2.5
  0
LWPOLYLINE
  5
EF
330
17
100
AcDbEntity
  8
TRUSS_CHORD
100
AcDbPolyline
 90
2
 70
0
 10
27.5
 20
2.5
 10
27.5
 20
-0.3636359999999996
  0
LWPOLYLINE
  5
F0
330
17
100
AcDbEntity
  8
TRUSS_CHORD
100
AcDbPolyline
 90
2
 70
0
 10
27.5
 20
-0.3636359999999996
 10
27.5
 20
-2.0
  0
LWPOLYLINE
  5
F1
330
17
100
AcDbEntity
  8
TRUSS_CHORD
100
AcDbPolyline
 90
2
 70
0
 10
-2.0
 20
17.5
 10
-0.5348839999999999
 20
17.5
  0
LWPOLYLINE
  5
F2
330
17
100
AcDbEntity
  8
TRUSS_CHORD
100
AcDbPolyline
 90
2
 70
0
 10
-0.5348839999999999
 20
17.5
 10
2.5
 20
17.5
  0
LWPOLYLINE
  5
F3
330
17
100
AcDbEntity
  8
TRUSS_CHORD
100
AcDbPolyline
 90
2
 70
0
 10
2.5
 20
17.5
 10
12.0
 20
17.5
  0
LWPOLYLINE
  5
F4
330
17
100
AcDbEntity
  8
TRUSS_CHORD
100
AcDbPolyline
 90
2
 70
0
 10
21.0
 20
17.5
 10
27.5
 20
17.5
  0
LWPOLYLINE
  5
F5
330
17
100
AcDbEntity
  8
TRUSS_CHORD
100
AcDbPolyline
 90
2
 70
0
 10
27.5
 20
17.5
 10
32.0
 20
17.5
  0
LWPOLYLINE
  5
F6
330
17
100
AcDbEntity
  8
TRUSS_CHORD
100
AcDbPolyline
 90
2
 70
0
 10
39.0
 20
17.5
 10
44.5
 20
17.5
  0
LWPOLYLINE
  5
F7
330
17
100
AcDbEntity
  8
TRUSS_CHORD
100
AcDbPolyline
 90
2
 70
0
 10
44.5
 20
17.5
 10
48.0
 20
17.5
  0
LWPOLYLINE
  5
F8
330
17
100
AcDbEntity
  8
TRUSS_CHORD
100
AcDbPolyline
 90
2
 70
0
 10
48.0
 20
17.5
 10
50.5
 20
17.5
  0
LWPOLYLINE
  5
F9
330
17
100
AcDbEntity
  8
TRUSS_CHORD
100
AcDbPolyline
 90
2
 70
0
 10
50.5
 20
17.5
 10
57.5
 20
17.5
  0
LWPOLYLINE
  5
FA
330
17
100
AcDbEntity
  8
TRUSS_CHORD
100
AcDbPolyline
 90
2
 70
0
 10
57.5
 20
17.5
 10
62.0
 20
17.5
  0
LWPOLYLINE
  5
FB
330
17
100
AcDbEntity
  8
TRUSS_CHORD
100
AcDbPolyline
 90
2
 70
0
 10
57.5
 20
22.0
 10
57.5
 20
17.5
  0
LWPOLYLINE
  5
FC
330
17
100
AcDbEntity
  8
TRUSS_CHORD
100
AcDbPolyline
 90
2
 70
0
 10
57.5
 20
17.5
 10
57.5
 20
11.25
  0
LWPOLYLINE
  5
FD
330
17
100
AcDbEntity
  8
TRUSS_CHORD
100
AcDbPolyline
 90
2
 70
0
 10
57.5
 20
11.25
 10
57.5
 20
10.0
  0
LWPOLYLINE
  5
FE
330
17
100
AcDbEntity
  8
TRUSS_CHORD
100
AcDbPolyline
 90
2
 70
0
 10
57.5
 20
10.0
 10
57.5
 20
2.5
  0
LWPOLYLINE
  5
FF
330
17
100
AcDbEntity
  8
TRUSS_CHORD
100
AcDbPolyline
 90
2
 70
0
 10
57.5
 20
2.5
 10
57.5
 20
-2.0
  0
LWPOLYLINE
  5
100
330
17
100
AcDbEntity
  8
TRUSS_CHORD
100
AcDbPolyline
 90
2
 70
0
 10
62.0
 20
2.5
 10
57.5
 20
2.5
  0
LWPOLYLINE
  5
101
330
17
100
AcDbEntity
  8
TRUSS_CHORD
100
AcDbPolyline
 90
2
 70
0
 10
57.5
 20
2.5
 10
50.5
 20
2.5
  0
LWPOLYLINE
  5
102
330
17
100
AcDbEntity
  8
TRUSS_CHORD
100
AcDbPolyline
 90
2
 70
0
 10
50.5
 20
2.5
 10
48.0
 20
2.5
  0
LWPOLYLINE
  5
103
330
17
100
AcDbEntity
  8
TRUSS_CHORD
100
AcDbPolyline
 90
2
 70
0
 10
48.0
 20
2.5
 10
43.5
 20
2.5
  0
LWPOLYLINE
  5
104
330
17
100
AcDbEntity
  8
TRUSS_CHORD
100
AcDbPolyline
 90
2
 70
0
 10
43.5
 20
2.5
 10
39.0
 20
2.5
  0
LWPOLYLINE
  5
105
330
17
100
AcDbEntity
  8
TRUSS_CHORD
100
AcDbPolyline
 90
2
 70
0
 10
39.0
 20
2.5
 10
35.5
 20
2.5
  0
LWPOLYLINE
  5
106
330
17
100
AcDbEntity
  8
TRUSS_CHORD
100
AcDbPolyline
 90
2
 70
0
 10
35.5
 20
2.5
 10
32.0
 20
2.5
  0
LWPOLYLINE
  5
107
330
17
100
AcDbEntity
  8
TRUSS_CHORD
100
AcDbPolyline
 90
2
 70
0
 10
32.0
 20
2.5
 10
29.25
 20
2.5
  0
LWPOLYLINE
  5
108
330
17
100
AcDbEntity
  8
TRUSS_CHORD
100
AcDbPolyline
 90
2
 70
0
 10
29.25
 20
2.5
 10
27.5
 20
2.5
  0
LWPOLYLINE
  5
109
330
17
100
AcDbEntity
  8
TRUSS_CHORD
100
AcDbPolyline
 90
2
 70
0
 10
27.5
 20
2.5
 10
23.75
 20
2.5
  0
LWPOLYLINE
  5
10A
330
17
100
AcDbEntity
  8
TRUSS_CHORD
100
AcDbPolyline
 90
2
 70
0
 10
23.75
 20
2.5
 10
21.0
 20
2.5
  0
LWPOLYLINE
  5
10B
330
17
100
AcDbEntity
  8
TRUSS_CHORD
100
AcDbPolyline
 90
2
 70
0
 10
21.0
 20
2.5
 10
16.5
 20
2.5
  0
LWPOLYLINE
  5
10C
330
17
100
AcDbEntity
  8
TRUSS_CHORD
100
AcDbPolyline
 90
2
 70
0
 10
16.5
 20
2.5
 10
12.0
 20
2.5
  0
LWPOLYLINE
  5
10D
330
17
100
AcDbEntity
  8
TRUSS_CHORD
100
AcDbPolyline
 90
2
 70
0
 10
12.0
 20
2.5
 10
9.5
 20
2.5
  0
LWPOLYLINE
  5
10E
330
17
100
AcDbEntity
  8
TRUSS_CHORD
100
AcDbPolyline
 90
2
 70
0
 10
9.5
 20
2.5
 10
2.5
 20
2.5
  0
LWPOLYLINE
  5
10F
330
17
100
AcDbEntity
  8
TRUSS_CHORD
100
AcDbPolyline
 90
2
 70
0
 10
2.5
 20
2.5
 10
-2.0
 20
2.5
  0
LWPOLYLINE
  5
110
330
17
100
AcDbEntity
  8
TRUSS_WEB
100
AcDbPolyline
 90
2
 70
0
 10
20.999999984247623
 20
38.72727270149611
 10
23.0
 20
42.0
  0
LWPOLYLINE
  5
111
330
17
100
AcDbEntity
  8
TRUSS_WEB
100
AcDbPolyline
 90
2
 70
0
 10
62.0
 20
13.0
 10
59.375000304556195
 20
11.250000203037462
  0
LWPOLYLINE
  5
112
330
17
100
AcDbEntity
  8
TRUSS_WEB
100
AcDbPolyline
 90
2
 70
0
 10
59.375000304556195
 20
11.250000203037462
 10
57.5
 20
10.0
  0
LWPOLYLINE
  5
113
330
17
100
AcDbEntity
  8
STRUT_OUTLINE
100
AcDbPolyline
 90
5
 70
1
 10
2.26
 20
25.695
 10
2.74
 20
25.055
 10
-1.76
 20
21.68
 10
-2.24
 20
22.32
 10
2.26
 20
25.695
  0
LWPOLYLINE
  5
114
330
17
100
AcDbEntity
  8
STRUT_OUTLINE
100
AcDbPolyline
 90
5
 70
1
 10
-2.24
 20
28.43
 10
-1.76
 20
29.07
 10
2.74
 20
25.695
 10
2.26
 20
25.055
 10
-2.24
 20
28.43
  0
LWPOLYLINE
  5
115
330
17
100
AcDbEntity
  8
TRUSS_CHORD
100
AcDbPolyline
 90
5
 70
1
 10
27.9
 20
22.0
 10
27.1
 20
22.0
 10
27.1
 20
28.75
 10
27.9
 20
28.75
 10
27.9
 20
22.0
  0
LWPOLYLINE
  5
116
330
17
100
AcDbEntity
  8
TRUSS_CHORD
100
AcDbPolyline
 90
5
 70
1
 10
21.0
 20
17.9
 10
21.0
 20
17.1
 10
12.0
 20
17.1
 10
12.0
 20
17.9
 10
21.0
 20
17.9
  0
LWPOLYLINE
  5
117
330
17
100
AcDbEntity
  8
TRUSS_CHORD
100
AcDbPolyline
 90
5
 70
1
 10
39.0
 20
17.9
 10
39.0
 20
17.1
 10
32.0
 20
17.1
 10
32.0
 20
17.9
 10
39.0
 20
17.9
  0
LWPOLYLINE
  5
118
330
17
100
AcDbEntity
  8
STRUT_OUTLINE
100
AcDbPolyline
 90
5
 70
1
 10
20.65868725078684
 20
38.9358527052777
 10
21.341312717708405
 20
38.51869269771452
 10
20.591312733460782
 20
37.29141999621841
 10
19.908687266539218
 20
37.70858000378159
 10
20.65868725078684
 20
38.9358527052777
  0
LWPOLYLINE
  5
119
330
17
100
AcDbEntity
  8
WALING_OUTLINE
100
AcDbPolyline
 90
5
 70
1
 10
-2.4
 20
2.5
 10
-1.6
 20
2.5
 10
-1.6
 20
-2.0
 10
-2.4
 20
-2.0
 10
-2.4
 20
2.5
  0
LWPOLYLINE
  5
11A
330
17
100
AcDbEntity
  8
WALING_OUTLINE
100
AcDbPolyline
 90
5
 70
1
 10
-2.4
 20
7.0
 10
-1.6
 20
7.0
 10
-1.6
 20
2.5
 10
-2.4
 20
2.5
 10
-2.4
 20
7.0
  0
LWPOLYLINE
  5
11B
330
17
100
AcDbEntity
  8
WALING_OUTLINE
100
AcDbPolyline
 90
5
 70
1
 10
-2.4
 20
11.25
 10
-1.6
 20
11.25
 10
-1.6
 20
7.0
 10
-2.4
 20
7.0
 10
-2.4
 20
11.25
  0
LWPOLYLINE
  5
11C
330
17
100
AcDbEntity
  8
WALING_OUTLINE
100
AcDbPolyline
 90
5
 70
1
 10
-2.4
 20
16.625
 10
-1.6
 20
16.625
 10
-1.6
 20
11.25
 10
-2.4
 20
11.25
 10
-2.4
 20
16.625
  0
LWPOLYLINE
  5
11D
330
17
100
AcDbEntity
  8
WALING_OUTLINE
100
AcDbPolyline
 90
5
 70
1
 10
-2.4
 20
17.5
 10
-1.6
 20
17.5
 10
-1.6
 20
16.625
 10
-2.4
 20
16.625
 10
-2.4
 20
17.5
  0
LWPOLYLINE
  5
11E
330
17
100
AcDbEntity
  8
WALING_OUTLINE
100
AcDbPolyline
 90
5
 70
1
 10
-2.4
 20
22.0
 10
-1.6
 20
22.0
 10
-1.6
 20
17.5
 10
-2.4
 20
17.5
 10
-2.4
 20
22.0
  0
LWPOLYLINE
  5
11F
330
17
100
AcDbEntity
  8
WALING_OUTLINE
100
AcDbPolyline
 90
5
 70
1
 10
-2.4
 20
28.75
 10
-1.6
 20
28.75
 10
-1.6
 20
22.0
 10
-2.4
 20
22.0
 10
-2.4
 20
28.75
  0
LWPOLYLINE
  5
120
330
17
100
AcDbEntity
  8
WALING_OUTLINE
100
AcDbPolyline
 90
5
 70
1
 10
-2.4
 20
33.0
 10
-1.6
 20
33.0
 10
-1.6
 20
28.75
 10
-2.4
 20
28.75
 10
-2.4
 20
33.0
  0
LWPOLYLINE
  5
121
330
17
100
AcDbEntity
  8
WALING_OUTLINE
100
AcDbPolyline
 90
5
 70
1
 10
-2.4
 20
37.5
 10
-1.6
 20
37.5
 10
-1.6
 20
33.0
 10
-2.4
 20
33.0
 10
-2.4
 20
37.5
  0
LWPOLYLINE
  5
122
330
17
100
AcDbEntity
  8
WALING_OUTLINE
100
AcDbPolyline
 90
7
 70
1
 10
-2.4
 20
42.4
 10
2.5
 20
42.4
 10
2.5
 20
41.6
 10
-1.6
 20
41.6
 10
-1.6
 20
37.5
 10
-2.4
 20
37.5
 10
-2.4
 20
42.4
  0
LWPOLYLINE
  5
123
330
17
100
AcDbEntity
  8
WALING_OUTLINE
100
AcDbPolyline
 90
5
 70
1
 10
7.0
 20
42.4
 10
7.0
 20
41.6
 10
2.5
 20
41.6
 10
2.5
 20
42.4
 10
7.0
 20
42.4
  0
LWPOLYLINE
  5
124
330
17
100
AcDbEntity
  8
WALING_OUTLINE
100
AcDbPolyline
 90
5
 70
1
 10
12.0
 20
42.4
 10
12.0
 20
41.6
 10
7.0
 20
41.6
 10
7.0
 20
42.4
 10
12.0
 20
42.4
  0
LWPOLYLINE
  5
125
330
17
100
AcDbEntity
  8
WALING_OUTLINE
100
AcDbPolyline
 90
5
 70
1
 10
17.5
 20
42.4
 10
17.5
 20
41.6
 10
12.0
 20
41.6
 10
12.0
 20
42.4
 10
17.5
 20
42.4
  0
LWPOLYLINE
  5
126
330
17
100
AcDbEntity
  8
WALING_OUTLINE
100
AcDbPolyline
 90
5
 70
1
 10
21.0
 20
42.4
 10
21.0
 20
41.6
 10
17.5
 20
41.6
 10
17.5
 20
42.4
 10
21.0
 20
42.4
  0
LWPOLYLINE
  5
127
330
17
100
AcDbEntity
  8
WALING_OUTLINE
100
AcDbPolyline
 90
5
 70
1
 10
23.0
 20
42.4
 10
23.0
 20
41.6
 10
21.0
 20
41.6
 10
21.0
 20
42.4
 10
23.0
 20
42.4
  0
LWPOLYLINE
  5
128
330
17
100
AcDbEntity
  8
WALING_OUTLINE
100
AcDbPolyline
 90
5
 70
1
 10
27.5
 20
42.4
 10
27.5
 20
41.6
 10
23.0
 20
41.6
 10
23.0
 20
42.4
 10
27.5
 20
42.4
  0
LWPOLYLINE
  5
129
330
17
100
AcDbEntity
  8
WALING_OUTLINE
100
AcDbPolyline
 90
7
 70
1
 10
32.4
 20
42.4
 10
32.4
 20
37.5
 10
31.6
 20
37.5
 10
31.6
 20
41.6
 10
27.5
 20
41.6
 10
27.5
 20
42.4
 10
32.4
 20
42.4
  0
LWPOLYLINE
  5
12A
330
17
100
AcDbEntity
  8
WALING_OUTLINE
100
AcDbPolyline
 90
5
 70
1
 10
32.4
 20
33.205771
 10
31.6
 20
33.205771
 10
31.6
 20
37.5
 10
32.4
 20
37.5
 10
32.4
 20
33.205771
  0
LWPOLYLINE
  5
12B
330
17
100
AcDbEntity
  8
WALING_OUTLINE
100
AcDbPolyline
 90
5
 70
1
 10
32.4
 20
33.0
 10
31.6
 20
33.0
 10
31.6
 20
33.205771
 10
32.4
 20
33.205771
 10
32.4
 20
33.0
  0
LWPOLYLINE
  5
12C
330
17
100
AcDbEntity
  8
WALING_OUTLINE
100
AcDbPolyline
 90
5
 70
1
 10
32.4
 20
30.794229
 10
31.6
 20
30.794229
 10
31.6
 20
33.0
 10
32.4
 20
33.0
 10
32.4
 20
30.794229
  0
LWPOLYLINE
  5
12D
330
17
100
AcDbEntity
  8
WALING_OUTLINE
100
AcDbPolyline
 90
5
 70
1
 10
32.4
 20
28.75
 10
31.6
 20
28.75
 10
31.6
 20
30.794229
 10
32.4
 20
30.794229
 10
32.4
 20
28.75
  0
LWPOLYLINE
  5
12E
330
17
100
AcDbEntity
  8
WALING_OUTLINE
100
AcDbPolyline
 90
5
 70
1
 10
32.4
 20
22.0
 10
31.6
 20
22.0
 10
31.6
 20
28.75
 10
32.4
 20
28.75
 10
32.4
 20
22.0
  0
LWPOLYLINE
  5
12F
330
17
100
AcDbEntity
  8
WALING_OUTLINE
100
AcDbPolyline
 90
5
 70
1
 10
39.0
 20
22.4
 10
39.0
 20
21.6
 10
32.0
 20
21.6
 10
32.0
 20
22.4
 10
39.0
 20
22.4
  0
LWPOLYLINE
  5
130
330
17
100
AcDbEntity
  8
WALING_OUTLINE
100
AcDbPolyline
 90
5
 70
1
 10
41.0
 20
22.4
 10
41.0
 20
21.6
 10
39.0
 20
21.6
 10
39.0
 20
22.4
 10
41.0
 20
22.4
  0
LWPOLYLINE
  5
131
330
17
100
AcDbEntity
  8
WALING_OUTLINE
100
AcDbPolyline
 90
5
 70
1
 10
48.0
 20
22.4
 10
48.0
 20
21.6
 10
41.0
 20
21.6
 10
41.0
 20
22.4
 10
48.0
 20
22.4
  0
LWPOLYLINE
  5
132
330
17
100
AcDbEntity
  8
WALING_OUTLINE
100
AcDbPolyline
 90
5
 70
1
 10
53.0
 20
22.4
 10
53.0
 20
21.6
 10
48.0
 20
21.6
 10
48.0
 20
22.4
 10
53.0
 20
22.4
  0
LWPOLYLINE
  5
133
330
17
100
AcDbEntity
  8
WALING_OUTLINE
100
AcDbPolyline
 90
5
 70
1
 10
57.5
 20
22.4
 10
57.5
 20
21.6
 10
53.0
 20
21.6
 10
53.0
 20
22.4
 10
57.5
 20
22.4
  0
LWPOLYLINE
  5
134
330
17
100
AcDbEntity
  8
WALING_OUTLINE
100
AcDbPolyline
 90
7
 70
1
 10
62.4
 20
22.4
 10
62.4
 20
17.5
 10
61.6
 20
17.5
 10
61.6
 20
21.6
 10
57.5
 20
21.6
 10
57.5
 20
22.4
 10
62.4
 20
22.4
  0
LWPOLYLINE
  5
135
330
17
100
AcDbEntity
  8
WALING_OUTLINE
100
AcDbPolyline
 90
5
 70
1
 10
62.4
 20
13.0
 10
61.6
 20
13.0
 10
61.6
 20
17.5
 10
62.4
 20
17.5
 10
62.4
 20
13.0
  0
LWPOLYLINE
  5
136
330
17
100
AcDbEntity
  8
WALING_OUTLINE
100
AcDbPolyline
 90
5
 70
1
 10
62.4
 20
11.25
 10
61.6
 20
11.25
 10
61.6
 20
13.0
 10
62.4
 20
13.0
 10
62.4
 20
11.25
  0
LWPOLYLINE
  5
137
330
17
100
AcDbEntity
  8
WALING_OUTLINE
100
AcDbPolyline
 90
5
 70
1
 10
62.4
 20
7.0
 10
61.6
 20
7.0
 10
61.6
 20
11.25
 10
62.4
 20
11.25
 10
62.4
 20
7.0
  0
LWPOLYLINE
  5
138
330
17
100
AcDbEntity
  8
WALING_OUTLINE
100
AcDbPolyline
 90
5
 70
1
 10
62.4
 20
2.5
 10
61.6
 20
2.5
 10
61.6
 20
7.0
 10
62.4
 20
7.0
 10
62.4
 20
2.5
  0
LWPOLYLINE
  5
139
330
17
100
AcDbEntity
  8
WALING_OUTLINE
100
AcDbPolyline
 90
7
 70
1
 10
62.4
 20
-2.4
 10
57.5
 20
-2.4
 10
57.5
 20
-1.6
 10
61.6
 20
-1.6
 10
61.6
 20
2.5
 10
62.4
 20
2.5
 10
62.4
 20
-2.4
  0
LWPOLYLINE
  5
13A
330
17
100
AcDbEntity
  8
WALING_OUTLINE
100
AcDbPolyline
 90
5
 70
1
 10
53.0
 20
-2.4
 10
53.0
 20
-1.6
 10
57.5
 20
-1.6
 10
57.5
 20
-2.4
 10
53.0
 20
-2.4
  0
LWPOLYLINE
  5
13B
330
17
100
AcDbEntity
  8
WALING_OUTLINE
100
AcDbPolyline
 90
5
 70
1
 10
48.0
 20
-2.4
 10
48.0
 20
-1.6
 10
53.0
 20
-1.6
 10
53.0
 20
-2.4
 10
48.0
 20
-2.4
  0
LWPOLYLINE
  5
13C
330
17
100
AcDbEntity
  8
WALING_OUTLINE
100
AcDbPolyline
 90
5
 70
1
 10
39.0
 20
-2.4
 10
39.0
 20
-1.6
 10
48.0
 20
-1.6
 10
48.0
 20
-2.4
 10
39.0
 20
-2.4
  0
LWPOLYLINE
  5
13D
330
17
100
AcDbEntity
  8
WALING_OUTLINE
100
AcDbPolyline
 90
5
 70
1
 10
32.0
 20
-2.4
 10
32.0
 20
-1.6
 10
39.0
 20
-1.6
 10
39.0
 20
-2.4
 10
32.0
 20
-2.4
  0
LWPOLYLINE
  5
13E
330
17
100
AcDbEntity
  8
WALING_OUTLINE
100
AcDbPolyline
 90
5
 70
1
 10
27.5
 20
-2.4
 10
27.5
 20
-1.6
 10
32.0
 20
-1.6
 10
32.0
 20
-2.4
 10
27.5
 20
-2.4
  0
LWPOLYLINE
  5
13F
330
17
100
AcDbEntity
  8
WALING_OUTLINE
100
AcDbPolyline
 90
5
 70
1
 10
26.5
 20
-2.4
 10
26.5
 20
-1.6
 10
27.5
 20
-1.6
 10
27.5
 20
-2.4
 10
26.5
 20
-2.4
  0
LWPOLYLINE
  5
140
330
17
100
AcDbEntity
  8
WALING_OUTLINE
100
AcDbPolyline
 90
5
 70
1
 10
21.0
 20
-2.4
 10
21.0
 20
-1.6
 10
26.5
 20
-1.6
 10
26.5
 20
-2.4
 10
21.0
 20
-2.4
  0
LWPOLYLINE
  5
141
330
17
100
AcDbEntity
  8
WALING_OUTLINE
100
AcDbPolyline
 90
5
 70
1
 10
12.0
 20
-2.4
 10
12.0
 20
-1.6
 10
21.0
 20
-1.6
 10
21.0
 20
-2.4
 10
12.0
 20
-2.4
  0
LWPOLYLINE
  5
142
330
17
100
AcDbEntity
  8
WALING_OUTLINE
100
AcDbPolyline
 90
5
 70
1
 10
7.0
 20
-2.4
 10
7.0
 20
-1.6
 10
12.0
 20
-1.6
 10
12.0
 20
-2.4
 10
7.0
 20
-2.4
  0
LWPOLYLINE
  5
143
330
17
100
AcDbEntity
  8
WALING_OUTLINE
100
AcDbPolyline
 90
5
 70
1
 10
2.5
 20
-2.4
 10
2.5
 20
-1.6
 10
7.0
 20
-1.6
 10
7.0
 20
-2.4
 10
2.5
 20
-2.4
  0
LWPOLYLINE
  5
144
330
17
100
AcDbEntity
  8
WALING_OUTLINE
100
AcDbPolyline
 90
5
 70
1
 10
-2.0
 20
-2.4
 10
-2.0
 20
-1.6
 10
2.5
 20
-1.6
 10
2.5
 20
-2.4
 10
-2.0
 20
-2.4
  0
LWPOLYLINE
  5
145
330
17
100
AcDbEntity
  8
STRUT_OUTLINE
100
AcDbPolyline
 90
5
 70
1
 10
11.6
 20
2.5
 10
12.4
 20
2.5
 10
12.4
 20
-2.0
 10
11.6
 20
-2.0
 10
11.6
 20
2.5
  0
LWPOLYLINE
  5
146
330
17
100
AcDbEntity
  8
STRUT_OUTLINE
100
AcDbPolyline
 90
5
 70
1
 10
11.6
 20
11.25
 10
12.4
 20
11.25
 10
12.4
 20
2.5
 10
11.6
 20
2.5
 10
11.6
 20
11.25
  0
LWPOLYLINE
  5
147
330
17
100
AcDbEntity
  8
STRUT_OUTLINE
100
AcDbPolyline
 90
5
 70
1
 10
11.6
 20
17.5
 10
12.4
 20
17.5
 10
12.4
 20
11.25
 10
11.6
 20
11.25
 10
11.6
 20
17.5
  0
LWPOLYLINE
  5
148
330
17
100
AcDbEntity
  8
STRUT_OUTLINE
100
AcDbPolyline
 90
5
 70
1
 10
11.6
 20
22.0
 10
12.4
 20
22.0
 10
12.4
 20
17.5
 10
11.6
 20
17.5
 10
11.6
 20
22.0
  0
LWPOLYLINE
  5
149
330
17
100
AcDbEntity
  8
STRUT_OUTLINE
100
AcDbPolyline
 90
5
 70
1
 10
11.6
 20
28.75
 10
12.4
 20
28.75
 10
12.4
 20
22.0
 10
11.6
 20
22.0
 10
11.6
 20
28.75
  0
LWPOLYLINE
  5
14A
330
17
100
AcDbEntity
  8
STRUT_OUTLINE
100
AcDbPolyline
 90
5
 70
1
 10
11.6
 20
37.5
 10
12.4
 20
37.5
 10
12.4
 20
28.75
 10
11.6
 20
28.75
 10
11.6
 20
37.5
  0
LWPOLYLINE
  5
14B
330
17
100
AcDbEntity
  8
STRUT_OUTLINE
100
AcDbPolyline
 90
5
 70
1
 10
11.6
 20
42.0
 10
12.4
 20
42.0
 10
12.4
 20
37.5
 10
11.6
 20
37.5
 10
11.6
 20
42.0
  0
LWPOLYLINE
  5
14C
330
17
100
AcDbEntity
  8
STRUT_OUTLINE
100
AcDbPolyline
 90
5
 70
1
 10
20.6
 20
2.5
 10
21.4
 20
2.5
 10
21.4
 20
-2.0
 10
20.6
 20
-2.0
 10
20.6
 20
2.5
  0
LWPOLYLINE
  5
14D
330
17
100
AcDbEntity
  8
STRUT_OUTLINE
100
AcDbPolyline
 90
5
 70
1
 10
20.6
 20
11.25
 10
21.4
 20
11.25
 10
21.4
 20
2.5
 10
20.6
 20
2.5
 10
20.6
 20
11.25
  0
LWPOLYLINE
  5
14E
330
17
100
AcDbEntity
  8
STRUT_OUTLINE
100
AcDbPolyline
 90
5
 70
1
 10
20.6
 20
17.5
 10
21.4
 20
17.5
 10
21.4
 20
11.25
 10
20.6
 20
11.25
 10
20.6
 20
17.5
  0
LWPOLYLINE
  5
14F
330
17
100
AcDbEntity
  8
STRUT_OUTLINE
100
AcDbPolyline
 90
5
 70
1
 10
20.6
 20
22.0
 10
21.4
 20
22.0
 10
21.4
 20
17.5
 10
20.6
 20
17.5
 10
20.6
 20
22.0
  0
LWPOLYLINE
  5
150
330
17
100
AcDbEntity
  8
STRUT_OUTLINE
100
AcDbPolyline
 90
5
 70
1
 10
20.6
 20
28.75
 10
21.4
 20
28.75
 10
21.4
 20
22.0
 10
20.6
 20
22.0
 10
20.6
 20
28.75
  0
LWPOLYLINE
  5
151
330
17
100
AcDbEntity
  8
STRUT_OUTLINE
100
AcDbPolyline
 90
5
 70
1
 10
20.6
 20
37.5
 10
21.4
 20
37.5
 10
21.4
 20
28.75
 10
20.6
 20
28.75
 10
20.6
 20
37.5
  0
LWPOLYLINE
  5
152
330
17
100
AcDbEntity
  8
STRUT_OUTLINE
100
AcDbPolyline
 90
5
 70
1
 10
20.6
 20
38.727273
 10
21.4
 20
38.727273
 10
21.4
 20
37.5
 10
20.6
 20
37.5
 10
20.6
 20
38.727273
  0
LWPOLYLINE
  5
153
330
17
100
AcDbEntity
  8
STRUT_OUTLINE
100
AcDbPolyline
 90
5
 70
1
 10
20.6
 20
42.0
 10
21.4
 20
42.0
 10
21.4
 20
38.727273
 10
20.6
 20
38.727273
 10
20.6
 20
42.0
  0
LWPOLYLINE
  5
154
330
17
100
AcDbEntity
  8
STRUT_OUTLINE
100
AcDbPolyline
 90
5
 70
1
 10
38.6
 20
2.5
 10
39.4
 20
2.5
 10
39.4
 20
-2.0
 10
38.6
 20
-2.0
 10
38.6
 20
2.5
  0
LWPOLYLINE
  5
155
330
17
100
AcDbEntity
  8
STRUT_OUTLINE
100
AcDbPolyline
 90
5
 70
1
 10
38.6
 20
11.25
 10
39.4
 20
11.25
 10
39.4
 20
2.5
 10
38.6
 20
2.5
 10
38.6
 20
11.25
  0
LWPOLYLINE
  5
156
330
17
100
AcDbEntity
  8
STRUT_OUTLINE
100
AcDbPolyline
 90
5
 70
1
 10
38.6
 20
17.5
 10
39.4
 20
17.5
 10
39.4
 20
11.25
 10
38.6
 20
11.25
 10
38.6
 20
17.5
  0
LWPOLYLINE
  5
157
330
17
100
AcDbEntity
  8
STRUT_OUTLINE
100
AcDbPolyline
 90
5
 70
1
 10
38.6
 20
22.0
 10
39.4
 20
22.0
 10
39.4
 20
17.5
 10
38.6
 20
17.5
 10
38.6
 20
22.0
  0
LWPOLYLINE
  5
158
330
17
100
AcDbEntity
  8
STRUT_OUTLINE
100
AcDbPolyline
 90
5
 70
1
 10
47.6
 20
2.5
 10
48.4
 20
2.5
 10
48.4
 20
-2.0
 10
47.6
 20
-2.0
 10
47.6
 20
2.5
  0
LWPOLYLINE
  5
159
330
17
100
AcDbEntity
  8
STRUT_OUTLINE
100
AcDbPolyline
 90
5
 70
1
 10
47.6
 20
11.25
 10
48.4
 20
11.25
 10
48.4
 20
2.5
 10
47.6
 20
2.5
 10
47.6
 20
11.25
  0
LWPOLYLINE
  5
15A
330
17
100
AcDbEntity
  8
STRUT_OUTLINE
100
AcDbPolyline
 90
5
 70
1
 10
47.6
 20
17.5
 10
48.4
 20
17.5
 10
48.4
 20
11.25
 10
47.6
 20
11.25
 10
47.6
 20
17.5
  0
LWPOLYLINE
  5
15B
330
17
100
AcDbEntity
  8
STRUT_OUTLINE
100
AcDbPolyline
 90
5
 70
1
 10
47.6
 20
22.0
 10
48.4
 20
22.0
 10
48.4
 20
17.5
 10
47.6
 20
17.5
 10
47.6
 20
22.0
  0
LWPOLYLINE
  5
15C
330
17
100
AcDbEntity
  8
STRUT_OUTLINE
100
AcDbPolyline
 90
5
 70
1
 10
2.5
 20
11.65
 10
2.5
 20
10.85
 10
-2.0
 20
10.85
 10
-2.0
 20
11.65
 10
2.5
 20
11.65
  0
LWPOLYLINE
  5
15D
330
17
100
AcDbEntity
  8
STRUT_OUTLINE
100
AcDbPolyline
 90
5
 70
1
 10
12.0
 20
11.65
 10
12.0
 20
10.85
 10
2.5
 20
10.85
 10
2.5
 20
11.65
 10
12.0
 20
11.65
  0
LWPOLYLINE
  5
15E
330
17
100
AcDbEntity
  8
STRUT_OUTLINE
100
AcDbPolyline
 90
5
 70
1
 10
21.0
 20
11.65
 10
21.0
 20
10.85
 10
12.0
 20
10.85
 10
12.0
 20
11.65
 10
21.0
 20
11.65
  0
LWPOLYLINE
  5
15F
330
17
100
AcDbEntity
  8
STRUT_OUTLINE
100
AcDbPolyline
 90
5
 70
1
 10
27.5
 20
11.65
 10
27.5
 20
10.85
 10
21.0
 20
10.85
 10
21.0
 20
11.65
 10
27.5
 20
11.65
  0
LWPOLYLINE
  5
160
330
17
100
AcDbEntity
  8
STRUT_OUTLINE
100
AcDbPolyline
 90
5
 70
1
 10
32.0
 20
11.65
 10
32.0
 20
10.85
 10
27.5
 20
10.85
 10
27.5
 20
11.65
 10
32.0
 20
11.65
  0
LWPOLYLINE
  5
161
330
17
100
AcDbEntity
  8
STRUT_OUTLINE
100
AcDbPolyline
 90
5
 70
1
 10
39.0
 20
11.65
 10
39.0
 20
10.85
 10
32.0
 20
10.85
 10
32.0
 20
11.65
 10
39.0
 20
11.65
  0
LWPOLYLINE
  5
162
330
17
100
AcDbEntity
  8
STRUT_OUTLINE
100
AcDbPolyline
 90
5
 70
1
 10
48.0
 20
11.65
 10
48.0
 20
10.85
 10
39.0
 20
10.85
 10
39.0
 20
11.65
 10
48.0
 20
11.65
  0
LWPOLYLINE
  5
163
330
17
100
AcDbEntity
  8
STRUT_OUTLINE
100
AcDbPolyline
 90
5
 70
1
 10
57.5
 20
11.65
 10
57.5
 20
10.85
 10
48.0
 20
10.85
 10
48.0
 20
11.65
 10
57.5
 20
11.65
  0
LWPOLYLINE
  5
164
330
17
100
AcDbEntity
  8
STRUT_OUTLINE
100
AcDbPolyline
 90
5
 70
1
 10
59.375
 20
11.65
 10
59.375
 20
10.85
 10
57.5
 20
10.85
 10
57.5
 20
11.65
 10
59.375
 20
11.65
  0
LWPOLYLINE
  5
165
330
17
100
AcDbEntity
  8
STRUT_OUTLINE
100
AcDbPolyline
 90
5
 70
1
 10
62.0
 20
11.65
 10
62.0
 20
10.85
 10
59.375
 20
10.85
 10
59.375
 20
11.65
 10
62.0
 20
11.65
  0
LWPOLYLINE
  5
166
330
17
100
AcDbEntity
  8
STRUT_OUTLINE
100
AcDbPolyline
 90
5
 70
1
 10
2.5
 20
29.15
 10
2.5
 20
28.35
 10
-2.0
 20
28.35
 10
-2.0
 20
29.15
 10
2.5
 20
29.15
  0
LWPOLYLINE
  5
167
330
17
100
AcDbEntity
  8
STRUT_OUTLINE
100
AcDbPolyline
 90
5
 70
1
 10
12.0
 20
29.15
 10
12.0
 20
28.35
 10
2.5
 20
28.35
 10
2.5
 20
29.15
 10
12.0
 20
29.15
  0
LWPOLYLINE
  5
168
330
17
100
AcDbEntity
  8
STRUT_OUTLINE
100
AcDbPolyline
 90
5
 70
1
 10
21.0
 20
29.15
 10
21.0
 20
28.35
 10
12.0
 20
28.35
 10
12.0
 20
29.15
 10
21.0
 20
29.15
  0
LWPOLYLINE
  5
169
330
17
100
AcDbEntity
  8
STRUT_OUTLINE
100
AcDbPolyline
 90
5
 70
1
 10
27.5
 20
29.15
 10
27.5
 20
28.35
 10
21.0
 20
28.35
 10
21.0
 20
29.15
 10
27.5
 20
29.15
  0
LWPOLYLINE
  5
16A
330
17
100
AcDbEntity
  8
STRUT_OUTLINE
100
AcDbPolyline
 90
5
 70
1
 10
32.0
 20
29.15
 10
32.0
 20
28.35
 10
27.5
 20
28.35
 10
27.5
 20
29.15
 10
32.0
 20
29.15
  0
LWPOLYLINE
  5
16B
330
17
100
AcDbEntity
  8
STRUT_OUTLINE
100
AcDbPolyline
 90
5
 70
1
 10
32.4
 20
17.5
 10
31.6
 20
17.5
 10
31.6
 20
22.0
 10
32.4
 20
22.0
 10
32.4
 20
17.5
  0
LWPOLYLINE
  5
16C
330
17
100
AcDbEntity
  8
STRUT_OUTLINE
100
AcDbPolyline
 90
5
 70
1
 10
32.4
 20
11.25
 10
31.6
 20
11.25
 10
31.6
 20
17.5
 10
32.4
 20
17.5
 10
32.4
 20
11.25
  0
LWPOLYLINE
  5
16D
330
17
100
AcDbEntity
  8
STRUT_OUTLINE
100
AcDbPolyline
 90
5
 70
1
 10
32.4
 20
2.5
 10
31.6
 20
2.5
 10
31.6
 20
11.25
 10
32.4
 20
11.25
 10
32.4
 20
2.5
  0
LWPOLYLINE
  5
16E
330
17
100
AcDbEntity
  8
STRUT_OUTLINE
100
AcDbPolyline
 90
5
 70
1
 10
32.4
 20
-2.0
 10
31.6
 20
-2.0
 10
31.6
 20
2.5
 10
32.4
 20
2.5
 10
32.4
 20
-2.0
  0
LWPOLYLINE
  5
16F
330
17
100
AcDbEntity
  8
STRUT_OUTLINE
100
AcDbPolyline
 90
5
 70
1
 10
27.5
 20
21.6
 10
27.5
 20
22.4
 10
32.0
 20
22.4
 10
32.0
 20
21.6
 10
27.5
 20
21.6
  0
LWPOLYLINE
  5
170
330
17
100
AcDbEntity
  8
STRUT_OUTLINE
100
AcDbPolyline
 90
5
 70
1
 10
21.0
 20
21.6
 10
21.0
 20
22.4
 10
27.5
 20
22.4
 10
27.5
 20
21.6
 10
21.0
 20
21.6
  0
LWPOLYLINE
  5
171
330
17
100
AcDbEntity
  8
STRUT_OUTLINE
100
AcDbPolyline
 90
5
 70
1
 10
12.0
 20
21.6
 10
12.0
 20
22.4
 10
21.0
 20
22.4
 10
21.0
 20
21.6
 10
12.0
 20
21.6
  0
LWPOLYLINE
  5
172
330
17
100
AcDbEntity
  8
STRUT_OUTLINE
100
AcDbPolyline
 90
5
 70
1
 10
2.5
 20
21.6
 10
2.5
 20
22.4
 10
12.0
 20
22.4
 10
12.0
 20
21.6
 10
2.5
 20
21.6
  0
LWPOLYLINE
  5
173
330
17
100
AcDbEntity
  8
STRUT_OUTLINE
100
AcDbPolyline
 90
5
 70
1
 10
-2.0
 20
21.6
 10
-2.0
 20
22.4
 10
2.5
 20
22.4
 10
2.5
 20
21.6
 10
-2.0
 20
21.6
  0
LWPOLYLINE
  5
174
330
17
100
AcDbEntity
  8
STRUT_OUTLINE
100
AcDbPolyline
 90
5
 70
1
 10
2.3291971981088198
 20
9.486699326604596
 10
2.670802242435083
 20
8.763300409207803
 10
-1.8291974778368685
 20
6.638300541301604
 10
-2.1708025221631315
 20
7.361699458698396
 10
2.3291971981088198
 20
9.486699326604596
  0
LWPOLYLINE
  5
175
330
17
100
AcDbEntity
  8
STRUT_OUTLINE
100
AcDbPolyline
 90
5
 70
1
 10
-2.170802242435083
 20
10.888300409207803
 10
-1.8291971981088198
 20
11.611699326604596
 10
2.6708025221631315
 20
9.486699458698396
 10
2.3291974778368685
 20
8.763300541301604
 10
-2.170802242435083
 20
10.888300409207803
  0
LWPOLYLINE
  5
176
330
17
100
AcDbEntity
  8
STRUT_OUTLINE
100
AcDbPolyline
 90
5
 70
1
 10
2.294903150434121
 20
14.28091706756999
 10
2.705096045654936
 20
13.594082452316533
 10
-1.7949035523895924
 20
10.906582692373272
 10
-2.2050964476104076
 20
11.593417307626728
 10
2.294903150434121
 20
14.28091706756999
  0
LWPOLYLINE
  5
177
330
17
100
AcDbEntity
  8
STRUT_OUTLINE
100
AcDbPolyline
 90
5
 70
1
 10
-2.205096045654936
 20
16.28158245231653
 10
-1.7949031504341209
 20
16.96841706756999
 10
2.7050964476104076
 20
14.280917307626728
 10
2.2949035523895924
 20
13.594082692373272
 10
-2.205096045654936
 20
16.28158245231653
  0
LWPOLYLINE
  5
178
330
17
100
AcDbEntity
  8
STRUT_OUTLINE
100
AcDbPolyline
 90
5
 70
1
 10
-0.7399803393421086
 20
17.843417205620298
 10
-0.32978744412129324
 20
17.15658259036684
 10
-1.7949035523895924
 20
16.28158269237327
 10
-2.2050964476104076
 20
16.96841730762673
 10
-0.7399803393421086
 20
17.843417205620298
  0
LWPOLYLINE
  5
179
330
17
100
AcDbEntity
  8
STRUT_OUTLINE
100
AcDbPolyline
 90
5
 70
1
 10
2.294903150434121
 20
19.65591706756999
 10
2.705096045654936
 20
18.96908245231653
 10
-0.32978744412129335
 20
17.15658259036684
 10
-0.7399803393421085
 20
17.843417205620298
 10
2.294903150434121
 20
19.65591706756999
  0
LWPOLYLINE
  5
17A
330
17
100
AcDbEntity
  8
STRUT_OUTLINE
100
AcDbPolyline
 90
5
 70
1
 10
-2.205096045654936
 20
21.65658245231653
 10
-1.7949031504341209
 20
22.34341706756999
 10
2.7050964476104076
 20
19.65591730762673
 10
2.2949035523895924
 20
18.96908269237327
 10
-2.205096045654936
 20
21.65658245231653
  0
LWPOLYLINE
  5
17B
330
17
100
AcDbEntity
  8
STRUT_OUTLINE
100
AcDbPolyline
 90
5
 70
1
 10
2.3291971981088198
 20
31.236699326604594
 10
2.670802242435083
 20
30.5133004092078
 10
-1.8291974778368685
 20
28.388300541301604
 10
-2.1708025221631315
 20
29.111699458698396
 10
2.3291971981088198
 20
31.236699326604594
  0
LWPOLYLINE
  5
17C
330
17
100
AcDbEntity
  8
STRUT_OUTLINE
100
AcDbPolyline
 90
5
 70
1
 10
-2.170802242435083
 20
32.6383004092078
 10
-1.8291971981088198
 20
33.361699326604594
 10
2.6708025221631315
 20
31.236699458698396
 10
2.3291974778368685
 20
30.513300541301604
 10
-2.170802242435083
 20
32.6383004092078
  0
LWPOLYLINE
  5
17D
330
17
100
AcDbEntity
  8
STRUT_OUTLINE
100
AcDbPolyline
 90
5
 70
1
 10
9.849662876213944
 20
37.69425723409386
 10
9.150337055316715
 20
37.305742889150956
 10
6.650337089551385
 20
41.80574282752855
 10
7.349662910448615
 20
42.19425717247145
 10
9.849662876213944
 20
37.69425723409386
  0
LWPOLYLINE
  5
17E
330
17
100
AcDbEntity
  8
STRUT_OUTLINE
100
AcDbPolyline
 90
5
 70
1
 10
11.650337055316715
 20
42.194257110849044
 10
12.349662876213944
 20
41.80574276590614
 10
9.849662910448615
 20
37.30574282752855
 10
9.150337089551385
 20
37.69425717247145
 10
11.650337055316715
 20
42.194257110849044
  0
LWPOLYLINE
  5
17F
330
17
100
AcDbEntity
  8
STRUT_OUTLINE
100
AcDbPolyline
 90
5
 70
1
 10
15.091312733460784
 20
37.70858000378159
 10
14.408687266539216
 20
37.29141999621841
 10
11.658687266539216
 20
41.79141999621841
 10
12.341312733460784
 20
42.20858000378159
 10
15.091312733460784
 20
37.70858000378159
  0
LWPOLYLINE
  5
180
330
17
100
AcDbEntity
  8
STRUT_OUTLINE
100
AcDbPolyline
 90
5
 70
1
 10
17.158687266539218
 20
42.20858000378159
 10
17.841312733460782
 20
41.79141999621841
 10
15.091312733460784
 20
37.29141999621841
 10
14.408687266539216
 20
37.70858000378159
 10
17.158687266539218
 20
42.20858000378159
  0
LWPOLYLINE
  5
181
330
17
100
AcDbEntity
  8
STRUT_OUTLINE
100
AcDbPolyline
 90
5
 70
1
 10
20.591312733460782
 20
37.70858000378159
 10
19.908687266539218
 20
37.29141999621841
 10
17.158687266539218
 20
41.79141999621841
 10
17.841312733460782
 20
42.20858000378159
 10
20.591312733460782
 20
37.70858000378159
  0
LWPOLYLINE
  5
182
330
17
100
AcDbEntity
  8
STRUT_OUTLINE
100
AcDbPolyline
 90
5
 70
1
 10
31.94124142142615
 20
32.775916227355815
 10
31.734186243973987
 20
33.548656904096894
 10
31.89647241127392
 20
33.59214133837054
 10
32.10352758872608
 20
32.81940066162946
 10
31.94124142142615
 20
32.775916227355815
  0
LWPOLYLINE
  5
183
330
17
100
AcDbEntity
  8
STRUT_OUTLINE
100
AcDbPolyline
 90
5
 70
1
 10
27.603527588726084
 20
31.613629661629464
 10
27.396472411273916
 20
32.38637033837053
 10
31.734186243973983
 20
33.54865690409689
 10
31.941241421426152
 20
32.77591622735582
 10
27.603527588726084
 20
31.613629661629464
  0
LWPOLYLINE
  5
184
330
17
100
AcDbEntity
  8
STRUT_OUTLINE
100
AcDbPolyline
 90
5
 70
1
 10
32.10352758872608
 20
31.180599338370538
 10
31.896472411273916
 20
30.407858661629465
 10
27.396472411273916
 20
31.613629661629464
 10
27.603527588726084
 20
32.38637033837054
 10
32.10352758872608
 20
31.180599338370538
  0
LWPOLYLINE
  5
185
330
17
100
AcDbEntity
  8
STRUT_OUTLINE
100
AcDbPolyline
 90
5
 70
1
 10
44.81574080990363
 20
17.74557634446627
 10
44.18425903600257
 20
17.254423853654334
 10
40.68425911304947
 20
21.754423754594033
 10
41.31574088695053
 20
22.245576245405967
 10
44.81574080990363
 20
17.74557634446627
  0
LWPOLYLINE
  5
186
330
17
100
AcDbEntity
  8
STRUT_OUTLINE
100
AcDbPolyline
 90
5
 70
1
 10
47.68425903600257
 20
22.245576146345666
 10
48.31574080990363
 20
21.75442365553373
 10
44.81574088695053
 20
17.254423754594033
 10
44.18425911304947
 20
17.745576245405967
 10
47.68425903600257
 20
22.245576146345666
  0
LWPOLYLINE
  5
187
330
17
100
AcDbEntity
  8
STRUT_OUTLINE
100
AcDbPolyline
 90
5
 70
1
 10
50.84966287621394
 20
17.69425723409386
 10
50.15033705531671
 20
17.305742889150956
 10
47.650337089551385
 20
21.805742827528547
 10
48.349662910448615
 20
22.194257172471453
 10
50.84966287621394
 20
17.69425723409386
  0
LWPOLYLINE
  5
188
330
17
100
AcDbEntity
  8
STRUT_OUTLINE
100
AcDbPolyline
 90
5
 70
1
 10
52.65033705531671
 20
22.194257110849044
 10
53.34966287621394
 20
21.80574276590614
 10
50.849662910448615
 20
17.305742827528547
 10
50.150337089551385
 20
17.694257172471453
 10
52.65033705531671
 20
22.194257110849044
  0
LWPOLYLINE
  5
189
330
17
100
AcDbEntity
  8
STRUT_OUTLINE
100
AcDbPolyline
 90
5
 70
1
 10
62.221880078490095
 20
7.332820117735137
 10
61.778119921509905
 20
6.667179882264863
 10
57.278119921509905
 20
9.667179882264863
 10
57.721880078490095
 20
10.332820117735137
 10
62.221880078490095
 20
7.332820117735137
  0
LWPOLYLINE
  5
18A
330
17
100
AcDbEntity
  8
STRUT_OUTLINE
100
AcDbPolyline
 90
5
 70
1
 10
50.15033712378606
 20
2.3057427659061407
 10
50.84966294468329
 20
2.694257110849046
 10
53.349662910448615
 20
-1.8057428275285474
 10
52.650337089551385
 20
-2.1942571724714526
 10
50.15033712378606
 20
2.3057427659061407
  0
LWPOLYLINE
  5
18B
330
17
100
AcDbEntity
  8
STRUT_OUTLINE
100
AcDbPolyline
 90
5
 70
1
 10
48.34966294468329
 20
-2.194257110849046
 10
47.65033712378606
 20
-1.8057427659061407
 10
50.150337089551385
 20
2.6942571724714526
 10
50.849662910448615
 20
2.3057428275285474
 10
48.34966294468329
 20
-2.194257110849046
  0
LWPOLYLINE
  5
18C
330
17
100
AcDbEntity
  8
STRUT_OUTLINE
100
AcDbPolyline
 90
5
 70
1
 10
43.217157309218656
 20
2.2171572658321033
 10
43.78284273416789
 20
2.782842690781342
 10
48.28284271247462
 20
-1.7171572875253809
 10
47.71715728752538
 20
-2.2828427124746193
 10
43.217157309218656
 20
2.2171572658321033
  0
LWPOLYLINE
  5
18D
330
17
100
AcDbEntity
  8
STRUT_OUTLINE
100
AcDbPolyline
 90
5
 70
1
 10
39.28284273416789
 20
-2.282842690781342
 10
38.717157309218656
 20
-1.7171572658321035
 10
43.21715728752538
 20
2.7828427124746193
 10
43.78284271247462
 20
2.2171572875253807
 10
39.28284273416789
 20
-2.282842690781342
  0
LWPOLYLINE
  5
18E
330
17
100
AcDbEntity
  8
STRUT_OUTLINE
100
AcDbPolyline
 90
5
 70
1
 10
35.18425919009637
 20
2.2544236555337314
 10
35.81574096399743
 20
2.745576146345668
 10
39.31574088695053
 20
-1.7544237545940318
 10
38.68425911304947
 20
-2.2455762454059682
 10
35.18425919009637
 20
2.2544236555337314
  0
LWPOLYLINE
  5
18F
330
17
100
AcDbEntity
  8
STRUT_OUTLINE
100
AcDbPolyline
 90
5
 70
1
 10
32.31574096399743
 20
-2.245576146345668
 10
31.68425919009637
 20
-1.7544236555337314
 10
35.18425911304947
 20
2.7455762454059682
 10
35.81574088695053
 20
2.2544237545940318
 10
32.31574096399743
 20
-2.245576146345668
  0
LWPOLYLINE
  5
190
330
17
100
AcDbEntity
  8
STRUT_OUTLINE
100
AcDbPolyline
 90
5
 70
1
 10
28.908687266539218
 20
2.29141999621841
 10
29.591312733460782
 20
2.70858000378159
 10
32.34131273346078
 20
-1.79141999621841
 10
31.658687266539218
 20
-2.20858000378159
 10
28.908687266539218
 20
2.29141999621841
  0
LWPOLYLINE
  5
191
330
17
100
AcDbEntity
  8
STRUT_OUTLINE
100
AcDbPolyline
 90
5
 70
1
 10
27.841312944032996
 20
-0.5722160228452394
 10
27.15868747711143
 20
-0.15505601528205934
 10
28.908687266539218
 20
2.70858000378159
 10
29.591312733460782
 20
2.29141999621841
 10
27.841312944032996
 20
-0.5722160228452394
  0
LWPOLYLINE
  5
192
330
17
100
AcDbEntity
  8
STRUT_OUTLINE
100
AcDbPolyline
 90
5
 70
1
 10
26.841312733460782
 20
-2.2085800037815897
 10
26.158687266539218
 20
-1.79141999621841
 10
27.15868747711143
 20
-0.15505601528205948
 10
27.841312944032996
 20
-0.5722160228452393
 10
26.841312733460782
 20
-2.2085800037815897
  0
LWPOLYLINE
  5
193
330
17
100
AcDbEntity
  8
STRUT_OUTLINE
100
AcDbPolyline
 90
5
 70
1
 10
23.408687266539218
 20
2.29141999621841
 10
24.091312733460782
 20
2.70858000378159
 10
26.841312733460782
 20
-1.79141999621841
 10
26.158687266539218
 20
-2.20858000378159
 10
23.408687266539218
 20
2.29141999621841
  0
LWPOLYLINE
  5
194
330
17
100
AcDbEntity
  8
STRUT_OUTLINE
100
AcDbPolyline
 90
5
 70
1
 10
21.341312733460782
 20
-2.20858000378159
 10
20.658687266539218
 20
-1.79141999621841
 10
23.408687266539218
 20
2.70858000378159
 10
24.091312733460782
 20
2.29141999621841
 10
21.341312733460782
 20
-2.20858000378159
  0
LWPOLYLINE
  5
195
330
17
100
AcDbEntity
  8
STRUT_OUTLINE
100
AcDbPolyline
 90
5
 70
1
 10
16.21715730921866
 20
2.2171572658321037
 10
16.782842734167897
 20
2.7828426907813415
 10
21.28284271247462
 20
-1.717157287525381
 10
20.71715728752538
 20
-2.282842712474619
 10
16.21715730921866
 20
2.2171572658321037
  0
LWPOLYLINE
  5
196
330
17
100
AcDbEntity
  8
STRUT_OUTLINE
100
AcDbPolyline
 90
5
 70
1
 10
12.282842734167897
 20
-2.2828426907813415
 10
11.71715730921866
 20
-1.7171572658321037
 10
16.21715728752538
 20
2.782842712474619
 10
16.78284271247462
 20
2.217157287525381
 10
12.282842734167897
 20
-2.2828426907813415
  0
LWPOLYLINE
  5
197
330
17
100
AcDbEntity
  8
STRUT_OUTLINE
100
AcDbPolyline
 90
5
 70
1
 10
9.150337123786056
 20
2.3057427659061402
 10
9.849662944683285
 20
2.6942571108490463
 10
12.349662910448615
 20
-1.8057428275285472
 10
11.650337089551385
 20
-2.194257172471453
 10
9.150337123786056
 20
2.3057427659061402
  0
LWPOLYLINE
  5
198
330
17
100
AcDbEntity
  8
STRUT_OUTLINE
100
AcDbPolyline
 90
5
 70
1
 10
7.349662944683285
 20
-2.1942571108490463
 10
6.650337123786056
 20
-1.8057427659061405
 10
9.150337089551385
 20
2.694257172471453
 10
9.849662910448615
 20
2.305742827528547
 10
7.349662944683285
 20
-2.1942571108490463
  0
LWPOLYLINE
  5
199
330
17
100
AcDbEntity
  8
STRUT_OUTLINE
100
AcDbPolyline
 90
5
 70
1
 10
-2.2828426907813415
 20
2.2171572658321037
 10
-1.7171572658321037
 20
2.7828426907813415
 10
2.782842712474619
 20
-1.717157287525381
 10
2.217157287525381
 20
-2.282842712474619
 10
-2.2828426907813415
 20
2.2171572658321037
  0
LWPOLYLINE
  5
19A
330
17
100
AcDbEntity
  8
STRUT_OUTLINE
100
AcDbPolyline
 90
5
 70
1
 10
2.2171573092186585
 20
2.2171572658321037
 10
2.7828427341678963
 20
2.7828426907813415
 10
7.282842712474619
 20
-1.717157287525381
 10
6.717157287525381
 20
-2.282842712474619
 10
2.2171573092186585
 20
2.2171572658321037
  0
LWPOLYLINE
  5
19B
330
17
100
AcDbEntity
  8
STRUT_OUTLINE
100
AcDbPolyline
 90
5
 70
1
 10
-2.282842669088064
 20
6.717157244138826
 10
-1.7171572441388263
 20
7.2828426690880645
 10
2.7828427341678963
 20
2.7828426907813415
 10
2.2171573092186585
 20
2.2171572658321037
 10
-2.282842669088064
 20
6.717157244138826
  0
LWPOLYLINE
  5
19C
330
17
100
AcDbEntity
  8
STRUT_OUTLINE
100
AcDbPolyline
 90
5
 70
1
 10
2.2171572658321033
 20
42.282842690781344
 10
2.782842690781342
 20
41.71715726583211
 10
-1.7171572875253809
 20
37.21715728752538
 10
-2.2828427124746193
 20
37.78284271247462
 10
2.2171572658321033
 20
42.282842690781344
  0
LWPOLYLINE
  5
19D
330
17
100
AcDbEntity
  8
STRUT_OUTLINE
100
AcDbPolyline
 90
5
 70
1
 10
2.2171572658321033
 20
37.782842690781344
 10
2.782842690781342
 20
37.21715726583211
 10
-1.7171572875253809
 20
32.71715728752538
 10
-2.2828427124746193
 20
33.28284271247462
 10
2.2171572658321033
 20
37.782842690781344
  0
LWPOLYLINE
  5
19E
330
17
100
AcDbEntity
  8
STRUT_OUTLINE
100
AcDbPolyline
 90
5
 70
1
 10
6.717157244138827
 20
42.28284266908806
 10
7.282842669088064
 20
41.717157244138825
 10
2.7828426907813415
 20
37.21715726583211
 10
2.2171572658321037
 20
37.782842690781344
 10
6.717157244138827
 20
42.28284266908806
  0
LWPOLYLINE
  5
19F
330
17
100
AcDbEntity
  8
STRUT_OUTLINE
100
AcDbPolyline
 90
5
 70
1
 10
32.282842690781344
 20
37.78284273416789
 10
31.717157265832103
 20
37.217157309218656
 10
27.21715728752538
 20
41.71715728752538
 10
27.78284271247462
 20
42.28284271247462
 10
32.282842690781344
 20
37.78284273416789
  0
LWPOLYLINE
  5
1A0
330
17
100
AcDbEntity
  8
STRUT_OUTLINE
100
AcDbPolyline
 90
5
 70
1
 10
27.78284269078134
 20
37.78284273416789
 10
27.217157265832103
 20
37.217157309218656
 10
22.71715728752538
 20
41.71715728752538
 10
23.28284271247462
 20
42.28284271247462
 10
27.78284269078134
 20
37.78284273416789
  0
LWPOLYLINE
  5
1A1
330
17
100
AcDbEntity
  8
STRUT_OUTLINE
100
AcDbPolyline
 90
5
 70
1
 10
32.120556713058285
 20
33.44512871189096
 10
31.554871288109045
 20
32.87944328694172
 10
27.217157265832103
 20
37.217157309218656
 10
27.78284269078134
 20
37.78284273416789
 10
32.120556713058285
 20
33.44512871189096
  0
LWPOLYLINE
  5
1A2
330
17
100
AcDbEntity
  8
STRUT_OUTLINE
100
AcDbPolyline
 90
5
 70
1
 10
32.28284266908807
 20
33.282842755861175
 10
31.71715724413882
 20
32.71715733091194
 10
31.55487128810904
 20
32.87944328694172
 10
32.120556713058285
 20
33.44512871189096
 10
32.28284266908807
 20
33.282842755861175
  0
LWPOLYLINE
  5
1A3
330
17
100
AcDbEntity
  8
STRUT_OUTLINE
100
AcDbPolyline
 90
5
 70
1
 10
62.282842690781344
 20
17.782842734167897
 10
61.71715726583211
 20
17.21715730921866
 10
57.21715728752538
 20
21.71715728752538
 10
57.78284271247462
 20
22.28284271247462
 10
62.282842690781344
 20
17.782842734167897
  0
LWPOLYLINE
  5
1A4
330
17
100
AcDbEntity
  8
STRUT_OUTLINE
100
AcDbPolyline
 90
5
 70
1
 10
57.782842690781344
 20
17.782842734167897
 10
57.21715726583211
 20
17.21715730921866
 10
52.71715728752538
 20
21.71715728752538
 10
53.28284271247462
 20
22.28284271247462
 10
57.782842690781344
 20
17.782842734167897
  0
LWPOLYLINE
  5
1A5
330
17
100
AcDbEntity
  8
STRUT_OUTLINE
100
AcDbPolyline
 90
5
 70
1
 10
62.28284266908806
 20
13.282842755861173
 10
61.717157244138825
 20
12.717157330911936
 10
57.21715726583211
 20
17.21715730921866
 10
57.782842690781344
 20
17.782842734167897
 10
62.28284266908806
 20
13.282842755861173
  0
LWPOLYLINE
  5
1A6
330
17
100
AcDbEntity
  8
STRUT_OUTLINE
100
AcDbPolyline
 90
5
 70
1
 10
57.78284273416789
 20
-2.282842690781342
 10
57.217157309218656
 20
-1.7171572658321035
 10
61.71715728752538
 20
2.7828427124746193
 10
62.28284271247462
 20
2.2171572875253807
 10
57.78284273416789
 20
-2.282842690781342
  0
LWPOLYLINE
  5
1A7
330
17
100
AcDbEntity
  8
STRUT_OUTLINE
100
AcDbPolyline
 90
5
 70
1
 10
57.78284273416789
 20
2.217157309218658
 10
57.217157309218656
 20
2.7828427341678967
 10
61.71715728752538
 20
7.282842712474619
 10
62.28284271247462
 20
6.717157287525381
 10
57.78284273416789
 20
2.217157309218658
  0
LWPOLYLINE
  5
1A8
330
17
100
AcDbEntity
  8
STRUT_OUTLINE
100
AcDbPolyline
 90
5
 70
1
 10
53.282842755861175
 20
-2.282842669088064
 10
52.71715733091194
 20
-1.7171572441388263
 10
57.217157309218656
 20
2.7828427341678963
 10
57.78284273416789
 20
2.2171573092186585
 10
53.282842755861175
 20
-2.282842669088064
  0
LWPOLYLINE
  5
1A9
330
17
100
AcDbEntity
  8
TRUSS_CHORD
100
AcDbPolyline
 90
5
 70
1
 10
2.1
 20
2.5
 10
2.9
 20
2.5
 10
2.9
 20
-2.0
 10
2.1
 20
-2.0
 10
2.1
 20
2.5
  0
LWPOLYLINE
  5
1AA
330
17
100
AcDbEntity
  8
TRUSS_CHORD
100
AcDbPolyline
 90
5
 70
1
 10
2.1
 20
9.125
 10
2.9
 20
9.125
 10
2.9
 20
2.5
 10
2.1
 20
2.5
 10
2.1
 20
9.125
  0
LWPOLYLINE
  5
1AB
330
17
100
AcDbEntity
  8
TRUSS_CHORD
100
AcDbPolyline
 90
5
 70
1
 10
2.1
 20
11.25
 10
2.9
 20
11.25
 10
2.9
 20
9.125
 10
2.1
 20
9.125
 10
2.1
 20
11.25
  0
LWPOLYLINE
  5
1AC
330
17
100
AcDbEntity
  8
TRUSS_CHORD
100
AcDbPolyline
 90
5
 70
1
 10
2.1
 20
13.9375
 10
2.9
 20
13.9375
 10
2.9
 20
11.25
 10
2.1
 20
11.25
 10
2.1
 20
13.9375
  0
LWPOLYLINE
  5
1AD
330
17
100
AcDbEntity
  8
TRUSS_CHORD
100
AcDbPolyline
 90
5
 70
1
 10
2.1
 20
17.5
 10
2.9
 20
17.5
 10
2.9
 20
13.9375
 10
2.1
 20
13.9375
 10
2.1
 20
17.5
  0
LWPOLYLINE
  5
1AE
330
17
100
AcDbEntity
  8
TRUSS_CHORD
100
AcDbPolyline
 90
5
 70
1
 10
2.1
 20
19.3125
 10
2.9
 20
19.3125
 10
2.9
 20
17.5
 10
2.1
 20
17.5
 10
2.1
 20
19.3125
  0
LWPOLYLINE
  5
1AF
330
17
100
AcDbEntity
  8
TRUSS_CHORD
100
AcDbPolyline
 90
5
 70
1
 10
2.1
 20
22.0
 10
2.9
 20
22.0
 10
2.9
 20
19.3125
 10
2.1
 20
19.3125
 10
2.1
 20
22.0
  0
LWPOLYLINE
  5
1B0
330
17
100
AcDbEntity
  8
TRUSS_CHORD
100
AcDbPolyline
 90
5
 70
1
 10
2.1
 20
25.375
 10
2.9
 20
25.375
 10
2.9
 20
22.0
 10
2.1
 20
22.0
 10
2.1
 20
25.375
  0
LWPOLYLINE
  5
1B1
330
17
100
AcDbEntity
  8
TRUSS_CHORD
100
AcDbPolyline
 90
5
 70
1
 10
2.1
 20
28.75
 10
2.9
 20
28.75
 10
2.9
 20
25.375
 10
2.1
 20
25.375
 10
2.1
 20
28.75
  0
LWPOLYLINE
  5
1B2
330
17
100
AcDbEntity
  8
TRUSS_CHORD
100
AcDbPolyline
 90
5
 70
1
 10
2.1
 20
30.875
 10
2.9
 20
30.875
 10
2.9
 20
28.75
 10
2.1
 20
28.75
 10
2.1
 20
30.875
  0
LWPOLYLINE
  5
1B3
330
17
100
AcDbEntity
  8
TRUSS_CHORD
100
AcDbPolyline
 90
5
 70
1
 10
2.1
 20
37.5
 10
2.9
 20
37.5
 10
2.9
 20
30.875
 10
2.1
 20
30.875
 10
2.1
 20
37.5
  0
LWPOLYLINE
  5
1B4
330
17
100
AcDbEntity
  8
TRUSS_CHORD
100
AcDbPolyline
 90
5
 70
1
 10
2.1
 20
42.0
 10
2.9
 20
42.0
 10
2.9
 20
37.5
 10
2.1
 20
37.5
 10
2.1
 20
42.0
  0
LWPOLYLINE
  5
1B5
330
17
100
AcDbEntity
  8
TRUSS_CHORD
100
AcDbPolyline
 90
5
 70
1
 10
2.5
 20
37.9
 10
2.5
 20
37.1
 10
-2.0
 20
37.1
 10
-2.0
 20
37.9
 10
2.5
 20
37.9
  0
LWPOLYLINE
  5
1B6
330
17
100
AcDbEntity
  8
TRUSS_CHORD
100
AcDbPolyline
 90
5
 70
1
 10
9.5
 20
37.9
 10
9.5
 20
37.1
 10
2.5
 20
37.1
 10
2.5
 20
37.9
 10
9.5
 20
37.9
  0
LWPOLYLINE
  5
1B7
330
17
100
AcDbEntity
  8
TRUSS_CHORD
100
AcDbPolyline
 90
5
 70
1
 10
12.0
 20
37.9
 10
12.0
 20
37.1
 10
9.5
 20
37.1
 10
9.5
 20
37.9
 10
12.0
 20
37.9
  0
LWPOLYLINE
  5
1B8
330
17
100
AcDbEntity
  8
TRUSS_CHORD
100
AcDbPolyline
 90
5
 70
1
 10
14.75
 20
37.9
 10
14.75
 20
37.1
 10
12.0
 20
37.1
 10
12.0
 20
37.9
 10
14.75
 20
37.9
  0
LWPOLYLINE
  5
1B9
330
17
100
AcDbEntity
  8
TRUSS_CHORD
100
AcDbPolyline
 90
5
 70
1
 10
20.25
 20
37.9
 10
20.25
 20
37.1
 10
14.75
 20
37.1
 10
14.75
 20
37.9
 10
20.25
 20
37.9
  0
LWPOLYLINE
  5
1BA
330
17
100
AcDbEntity
  8
TRUSS_CHORD
100
AcDbPolyline
 90
5
 70
1
 10
21.0
 20
37.9
 10
21.0
 20
37.1
 10
20.25
 20
37.1
 10
20.25
 20
37.9
 10
21.0
 20
37.9
  0
LWPOLYLINE
  5
1BB
330
17
100
AcDbEntity
  8
TRUSS_CHORD
100
AcDbPolyline
 90
5
 70
1
 10
27.5
 20
37.9
 10
27.5
 20
37.1
 10
21.0
 20
37.1
 10
21.0
 20
37.9
 10
27.5
 20
37.9
  0
LWPOLYLINE
  5
1BC
330
17
100
AcDbEntity
  8
TRUSS_CHORD
100
AcDbPolyline
 90
5
 70
1
 10
32.0
 20
37.9
 10
32.0
 20
37.1
 10
27.5
 20
37.1
 10
27.5
 20
37.9
 10
32.0
 20
37.9
  0
LWPOLYLINE
  5
1BD
330
17
100
AcDbEntity
  8
TRUSS_CHORD
100
AcDbPolyline
 90
5
 70
1
 10
27.9
 20
37.5
 10
27.1
 20
37.5
 10
27.1
 20
42.0
 10
27.9
 20
42.0
 10
27.9
 20
37.5
  0
LWPOLYLINE
  5
1BE
330
17
100
AcDbEntity
  8
TRUSS_CHORD
100
AcDbPolyline
 90
5
 70
1
 10
27.9
 20
32.0
 10
27.1
 20
32.0
 10
27.1
 20
37.5
 10
27.9
 20
37.5
 10
27.9
 20
32.0
  0
LWPOLYLINE
  5
1BF
330
17
100
AcDbEntity
  8
TRUSS_CHORD
100
AcDbPolyline
 90
5
 70
1
 10
27.9
 20
28.75
 10
27.1
 20
28.75
 10
27.1
 20
32.0
 10
27.9
 20
32.0
 10
27.9
 20
28.75
  0
LWPOLYLINE
  5
1C0
330
17
100
AcDbEntity
  8
TRUSS_CHORD
100
AcDbPolyline
 90
5
 70
1
 10
27.9
 20
17.5
 10
27.1
 20
17.5
 10
27.1
 20
22.0
 10
27.9
 20
22.0
 10
27.9
 20
17.5
  0
LWPOLYLINE
  5
1C1
330
17
100
AcDbEntity
  8
TRUSS_CHORD
100
AcDbPolyline
 90
5
 70
1
 10
27.9
 20
11.25
 10
27.1
 20
11.25
 10
27.1
 20
17.5
 10
27.9
 20
17.5
 10
27.9
 20
11.25
  0
LWPOLYLINE
  5
1C2
330
17
100
AcDbEntity
  8
TRUSS_CHORD
100
AcDbPolyline
 90
5
 70
1
 10
27.9
 20
2.5
 10
27.1
 20
2.5
 10
27.1
 20
11.25
 10
27.9
 20
11.25
 10
27.9
 20
2.5
  0
LWPOLYLINE
  5
1C3
330
17
100
AcDbEntity
  8
TRUSS_CHORD
100
AcDbPolyline
 90
5
 70
1
 10
27.9
 20
-0.3636359999999996
 10
27.1
 20
-0.3636359999999996
 10
27.1
 20
2.5
 10
27.9
 20
2.5
 10
27.9
 20
-0.3636359999999996
  0
LWPOLYLINE
  5
1C4
330
17
100
AcDbEntity
  8
TRUSS_CHORD
100
AcDbPolyline
 90
5
 70
1
 10
27.9
 20
-2.0
 10
27.1
 20
-2.0
 10
27.1
 20
-0.3636359999999996
 10
27.9
 20
-0.3636359999999996
 10
27.9
 20
-2.0
  0
LWPOLYLINE
  5
1C5
330
17
100
AcDbEntity
  8
TRUSS_CHORD
100
AcDbPolyline
 90
5
 70
1
 10
-0.5348839999999999
 20
17.9
 10
-0.5348839999999999
 20
17.1
 10
-2.0
 20
17.1
 10
-2.0
 20
17.9
 10
-0.5348839999999999
 20
17.9
  0
LWPOLYLINE
  5
1C6
330
17
100
AcDbEntity
  8
TRUSS_CHORD
100
AcDbPolyline
 90
5
 70
1
 10
2.5
 20
17.9
 10
2.5
 20
17.1
 10
-0.5348839999999999
 20
17.1
 10
-0.5348839999999999
 20
17.9
 10
2.5
 20
17.9
  0
LWPOLYLINE
  5
1C7
330
17
100
AcDbEntity
  8
TRUSS_CHORD
100
AcDbPolyline
 90
5
 70
1
 10
12.0
 20
17.9
 10
12.0
 20
17.1
 10
2.5
 20
17.1
 10
2.5
 20
17.9
 10
12.0
 20
17.9
  0
LWPOLYLINE
  5
1C8
330
17
100
AcDbEntity
  8
TRUSS_CHORD
100
AcDbPolyline
 90
5
 70
1
 10
27.5
 20
17.9
 10
27.5
 20
17.1
 10
21.0
 20
17.1
 10
21.0
 20
17.9
 10
27.5
 20
17.9
  0
LWPOLYLINE
  5
1C9
330
17
100
AcDbEntity
  8
TRUSS_CHORD
100
AcDbPolyline
 90
5
 70
1
 10
32.0
 20
17.9
 10
32.0
 20
17.1
 10
27.5
 20
17.1
 10
27.5
 20
17.9
 10
32.0
 20
17.9
  0
LWPOLYLINE
  5
1CA
330
17
100
AcDbEntity
  8
TRUSS_CHORD
100
AcDbPolyline
 90
5
 70
1
 10
44.5
 20
17.9
 10
44.5
 20
17.1
 10
39.0
 20
17.1
 10
39.0
 20
17.9
 10
44.5
 20
17.9
  0
LWPOLYLINE
  5
1CB
330
17
100
AcDbEntity
  8
TRUSS_CHORD
100
AcDbPolyline
 90
5
 70
1
 10
48.0
 20
17.9
 10
48.0
 20
17.1
 10
44.5
 20
17.1
 10
44.5
 20
17.9
 10
48.0
 20
17.9
  0
LWPOLYLINE
  5
1CC
330
17
100
AcDbEntity
  8
TRUSS_CHORD
100
AcDbPolyline
 90
5
 70
1
 10
50.5
 20
17.9
 10
50.5
 20
17.1
 10
48.0
 20
17.1
 10
48.0
 20
17.9
 10
50.5
 20
17.9
  0
LWPOLYLINE
  5
1CD
330
17
100
AcDbEntity
  8
TRUSS_CHORD
100
AcDbPolyline
 90
5
 70
1
 10
57.5
 20
17.9
 10
57.5
 20
17.1
 10
50.5
 20
17.1
 10
50.5
 20
17.9
 10
57.5
 20
17.9
  0
LWPOLYLINE
  5
1CE
330
17
100
AcDbEntity
  8
TRUSS_CHORD
100
AcDbPolyline
 90
5
 70
1
 10
62.0
 20
17.9
 10
62.0
 20
17.1
 10
57.5
 20
17.1
 10
57.5
 20
17.9
 10
62.0
 20
17.9
  0
LWPOLYLINE
  5
1CF
330
17
100
AcDbEntity
  8
TRUSS_CHORD
100
AcDbPolyline
 90
5
 70
1
 10
57.9
 20
17.5
 10
57.1
 20
17.5
 10
57.1
 20
22.0
 10
57.9
 20
22.0
 10
57.9
 20
17.5
  0
LWPOLYLINE
  5
1D0
330
17
100
AcDbEntity
  8
TRUSS_CHORD
100
AcDbPolyline
 90
5
 70
1
 10
57.9
 20
11.25
 10
57.1
 20
11.25
 10
57.1
 20
17.5
 10
57.9
 20
17.5
 10
57.9
 20
11.25
  0
LWPOLYLINE
  5
1D1
330
17
100
AcDbEntity
  8
TRUSS_CHORD
100
AcDbPolyline
 90
5
 70
1
 10
57.9
 20
10.0
 10
57.1
 20
10.0
 10
57.1
 20
11.25
 10
57.9
 20
11.25
 10
57.9
 20
10.0
  0
LWPOLYLINE
  5
1D2
330
17
100
AcDbEntity
  8
TRUSS_CHORD
100
AcDbPolyline
 90
5
 70
1
 10
57.9
 20
2.5
 10
57.1
 20
2.5
 10
57.1
 20
10.0
 10
57.9
 20
10.0
 10
57.9
 20
2.5
  0
LWPOLYLINE
  5
1D3
330
17
100
AcDbEntity
  8
TRUSS_CHORD
100
AcDbPolyline
 90
5
 70
1
 10
57.9
 20
-2.0
 10
57.1
 20
-2.0
 10
57.1
 20
2.5
 10
57.9
 20
2.5
 10
57.9
 20
-2.0
  0
LWPOLYLINE
  5
1D4
330
17
100
AcDbEntity
  8
TRUSS_CHORD
100
AcDbPolyline
 90
5
 70
1
 10
57.5
 20
2.1
 10
57.5
 20
2.9
 10
62.0
 20
2.9
 10
62.0
 20
2.1
 10
57.5
 20
2.1
  0
LWPOLYLINE
  5
1D5
330
17
100
AcDbEntity
  8
TRUSS_CHORD
100
AcDbPolyline
 90
5
 70
1
 10
50.5
 20
2.1
 10
50.5
 20
2.9
 10
57.5
 20
2.9
 10
57.5
 20
2.1
 10
50.5
 20
2.1
  0
LWPOLYLINE
  5
1D6
330
17
100
AcDbEntity
  8
TRUSS_CHORD
100
AcDbPolyline
 90
5
 70
1
 10
48.0
 20
2.1
 10
48.0
 20
2.9
 10
50.5
 20
2.9
 10
50.5
 20
2.1
 10
48.0
 20
2.1
  0
LWPOLYLINE
  5
1D7
330
17
100
AcDbEntity
  8
TRUSS_CHORD
100
AcDbPolyline
 90
5
 70
1
 10
43.5
 20
2.1
 10
43.5
 20
2.9
 10
48.0
 20
2.9
 10
48.0
 20
2.1
 10
43.5
 20
2.1
  0
LWPOLYLINE
  5
1D8
330
17
100
AcDbEntity
  8
TRUSS_CHORD
100
AcDbPolyline
 90
5
 70
1
 10
39.0
 20
2.1
 10
39.0
 20
2.9
 10
43.5
 20
2.9
 10
43.5
 20
2.1
 10
39.0
 20
2.1
  0
LWPOLYLINE
  5
1D9
330
17
100
AcDbEntity
  8
TRUSS_CHORD
100
AcDbPolyline
 90
5
 70
1
 10
35.5
 20
2.1
 10
35.5
 20
2.9
 10
39.0
 20
2.9
 10
39.0
 20
2.1
 10
35.5
 20
2.1
  0
LWPOLYLINE
  5
1DA
330
17
100
AcDbEntity
  8
TRUSS_CHORD
100
AcDbPolyline
 90
5
 70
1
 10
32.0
 20
2.1
 10
32.0
 20
2.9
 10
35.5
 20
2.9
 10
35.5
 20
2.1
 10
32.0
 20
2.1
  0
LWPOLYLINE
  5
1DB
330
17
100
AcDbEntity
  8
TRUSS_CHORD
100
AcDbPolyline
 90
5
 70
1
 10
29.25
 20
2.1
 10
29.25
 20
2.9
 10
32.0
 20
2.9
 10
32.0
 20
2.1
 10
29.25
 20
2.1
  0
LWPOLYLINE
  5
1DC
330
17
100
AcDbEntity
  8
TRUSS_CHORD
100
AcDbPolyline
 90
5
 70
1
 10
27.5
 20
2.1
 10
27.5
 20
2.9
 10
29.25
 20
2.9
 10
29.25
 20
2.1
 10
27.5
 20
2.1
  0
LWPOLYLINE
  5
1DD
330
17
100
AcDbEntity
  8
TRUSS_CHORD
100
AcDbPolyline
 90
5
 70
1
 10
23.75
 20
2.1
 10
23.75
 20
2.9
 10
27.5
 20
2.9
 10
27.5
 20
2.1
 10
23.75
 20
2.1
  0
LWPOLYLINE
  5
1DE
330
17
100
AcDbEntity
  8
TRUSS_CHORD
100
AcDbPolyline
 90
5
 70
1
 10
21.0
 20
2.1
 10
21.0
 20
2.9
 10
23.75
 20
2.9
 10
23.75
 20
2.1
 10
21.0
 20
2.1
  0
LWPOLYLINE
  5
1DF
330
17
100
AcDbEntity
  8
TRUSS_CHORD
100
AcDbPolyline
 90
5
 70
1
 10
16.5
 20
2.1
 10
16.5
 20
2.9
 10
21.0
 20
2.9
 10
21.0
 20
2.1
 10
16.5
 20
2.1
  0
LWPOLYLINE
  5
1E0
330
17
100
AcDbEntity
  8
TRUSS_CHORD
100
AcDbPolyline
 90
5
 70
1
 10
12.0
 20
2.1
 10
12.0
 20
2.9
 10
16.5
 20
2.9
 10
16.5
 20
2.1
 10
12.0
 20
2.1
  0
LWPOLYLINE
  5
1E1
330
17
100
AcDbEntity
  8
TRUSS_CHORD
100
AcDbPolyline
 90
5
 70
1
 10
9.5
 20
2.1
 10
9.5
 20
2.9
 10
12.0
 20
2.9
 10
12.0
 20
2.1
 10
9.5
 20
2.1
  0
LWPOLYLINE
  5
1E2
330
17
100
AcDbEntity
  8
TRUSS_CHORD
100
AcDbPolyline
 90
5
 70
1
 10
2.5
 20
2.1
 10
2.5
 20
2.9
 10
9.5
 20
2.9
 10
9.5
 20
2.1
 10
2.5
 20
2.1
  0
LWPOLYLINE
  5
1E3
330
17
100
AcDbEntity
  8
TRUSS_CHORD
100
AcDbPolyline
 90
5
 70
1
 10
-2.0
 20
2.1
 10
-2.0
 20
2.9
 10
2.5
 20
2.9
 10
2.5
 20
2.1
 10
-2.0
 20
2.1
  0
LWPOLYLINE
  5
1E4
330
17
100
AcDbEntity
  8
STRUT_OUTLINE
100
AcDbPolyline
 90
5
 70
1
 10
22.658687266539218
 20
42.20858000378159
 10
23.341312733460782
 20
41.79141999621841
 10
21.341312717708405
 20
38.51869269771452
 10
20.65868725078684
 20
38.9358527052777
 10
22.658687266539218
 20
42.20858000378159
  0
LWPOLYLINE
  5
1E5
330
17
100
AcDbEntity
  8
STRUT_OUTLINE
100
AcDbPolyline
 90
5
 70
1
 10
59.59688038304629
 20
10.917180085302325
 10
59.1531202260661
 20
11.5828203207726
 10
61.778119921509905
 20
13.332820117735137
 10
62.221880078490095
 20
12.667179882264863
 10
59.59688038304629
 20
10.917180085302325
  0
LWPOLYLINE
  5
1E6
330
17
100
AcDbEntity
  8
STRUT_OUTLINE
100
AcDbPolyline
 90
5
 70
1
 10
57.721880078490095
 20
9.667179882264863
 10
57.278119921509905
 20
10.332820117735137
 10
59.1531202260661
 20
11.5828203207726
 10
59.59688038304629
 20
10.917180085302325
 10
57.721880078490095
 20
9.667179882264863
  0
LWPOLYLINE
  5
1E7
330
17
100
AcDbEntity
  8
PILLAR
100
AcDbPolyline
 90
4
 70
1
 10
11.6
 20
10.85
 10
12.4
 20
10.85
 10
12.4
 20
11.65
 10
11.6
 20
11.65
  0
LWPOLYLINE
  5
1E8
330
17
100
AcDbEntity
  8
PILLAR
100
AcDbPolyline
 90
4
 70
1
 10
11.6
 20
21.6
 10
12.4
 20
21.6
 10
12.4
 20
22.4
 10
11.6
 20
22.4
  0
LWPOLYLINE
  5
1E9
330
17
100
AcDbEntity
  8
PILLAR
100
AcDbPolyline
 90
4
 70
1
 10
11.6
 20
28.35
 10
12.4
 20
28.35
 10
12.4
 20
29.15
 10
11.6
 20
29.15
  0
LWPOLYLINE
  5
1EA
330
17
100
AcDbEntity
  8
PILLAR
100
AcDbPolyline
 90
4
 70
1
 10
20.6
 20
10.85
 10
21.4
 20
10.85
 10
21.4
 20
11.65
 10
20.6
 20
11.65
  0
LWPOLYLINE
  5
1EB
330
17
100
AcDbEntity
  8
PILLAR
100
AcDbPolyline
 90
4
 70
1
 10
20.6
 20
21.6
 10
21.4
 20
21.6
 10
21.4
 20
22.4
 10
20.6
 20
22.4
  0
LWPOLYLINE
  5
1EC
330
17
100
AcDbEntity
  8
PILLAR
100
AcDbPolyline
 90
4
 70
1
 10
20.6
 20
28.35
 10
21.4
 20
28.35
 10
21.4
 20
29.15
 10
20.6
 20
29.15
  0
LWPOLYLINE
  5
1ED
330
17
100
AcDbEntity
  8
PILLAR
100
AcDbPolyline
 90
4
 70
1
 10
31.6
 20
10.85
 10
32.4
 20
10.85
 10
32.4
 20
11.65
 10
31.6
 20
11.65
  0
LWPOLYLINE
  5
1EE
330
17
100
AcDbEntity
  8
PILLAR
100
AcDbPolyline
 90
4
 70
1
 10
38.6
 20
10.85
 10
39.4
 20
10.85
 10
39.4
 20
11.65
 10
38.6
 20
11.65
  0
LWPOLYLINE
  5
1EF
330
17
100
AcDbEntity
  8
PILLAR
100
AcDbPolyline
 90
4
 70
1
 10
47.6
 20
10.85
 10
48.4
 20
10.85
 10
48.4
 20
11.65
 10
47.6
 20
11.65
  0
CIRCLE
  5
1F0
330
17
100
AcDbEntity
  8
DEBUG_NODE
100
AcDbCircle
 10
-2.0
 20
-2.0
 30
0.0
 40
0.12
  0
CIRCLE
  5
1F1
330
17
100
AcDbEntity
  8
DEBUG_NODE
100
AcDbCircle
 10
12.0
 20
-2.0
 30
0.0
 40
0.12
  0
CIRCLE
  5
1F2
330
17
100
AcDbEntity
  8
DEBUG_NODE
100
AcDbCircle
 10
12.0
 20
42.0
 30
0.0
 40
0.12
  0
CIRCLE
  5
1F3
330
17
100
AcDbEntity
  8
DEBUG_NODE
100
AcDbCircle
 10
21.0
 20
-2.0
 30
0.0
 40
0.12
  0
CIRCLE
  5
1F4
330
17
100
AcDbEntity
  8
DEBUG_NODE
100
AcDbCircle
 10
21.0
 20
42.0
 30
0.0
 40
0.12
  0
CIRCLE
  5
1F5
330
17
100
AcDbEntity
  8
DEBUG_NODE
100
AcDbCircle
 10
39.0
 20
-2.0
 30
0.0
 40
0.12
  0
CIRCLE
  5
1F6
330
17
100
AcDbEntity
  8
DEBUG_NODE
100
AcDbCircle
 10
39.0
 20
22.0
 30
0.0
 40
0.12
  0
CIRCLE
  5
1F7
330
17
100
AcDbEntity
  8
DEBUG_NODE
100
AcDbCircle
 10
48.0
 20
-2.0
 30
0.0
 40
0.12
  0
CIRCLE
  5
1F8
330
17
100
AcDbEntity
  8
DEBUG_NODE
100
AcDbCircle
 10
48.0
 20
22.0
 30
0.0
 40
0.12
  0
CIRCLE
  5
1F9
330
17
100
AcDbEntity
  8
DEBUG_NODE
100
AcDbCircle
 10
-2.0
 20
11.25
 30
0.0
 40
0.12
  0
CIRCLE
  5
1FA
330
17
100
AcDbEntity
  8
DEBUG_NODE
100
AcDbCircle
 10
62.0
 20
11.25
 30
0.0
 40
0.12
  0
CIRCLE
  5
1FB
330
17
100
AcDbEntity
  8
DEBUG_NODE
100
AcDbCircle
 10
-2.0
 20
28.75
 30
0.0
 40
0.12
  0
CIRCLE
  5
1FC
330
17
100
AcDbEntity
  8
DEBUG_NODE
100
AcDbCircle
 10
32.0
 20
28.75
 30
0.0
 40
0.12
  0
CIRCLE
  5
1FD
330
17
100
AcDbEntity
  8
DEBUG_NODE
100
AcDbCircle
 10
12.0
 20
2.5
 30
0.0
 40
0.12
  0
CIRCLE
  5
1FE
330
17
100
AcDbEntity
  8
DEBUG_NODE
100
AcDbCircle
 10
12.0
 20
11.25
 30
0.0
 40
0.12
  0
CIRCLE
  5
1FF
330
17
100
AcDbEntity
  8
DEBUG_NODE
100
AcDbCircle
 10
12.0
 20
28.75
 30
0.0
 40
0.12
  0
CIRCLE
  5
200
330
17
100
AcDbEntity
  8
DEBUG_NODE
100
AcDbCircle
 10
12.0
 20
37.5
 30
0.0
 40
0.12
  0
CIRCLE
  5
201
330
17
100
AcDbEntity
  8
DEBUG_NODE
100
AcDbCircle
 10
21.0
 20
2.5
 30
0.0
 40
0.12
  0
CIRCLE
  5
202
330
17
100
AcDbEntity
  8
DEBUG_NODE
100
AcDbCircle
 10
21.0
 20
11.25
 30
0.0
 40
0.12
  0
CIRCLE
  5
203
330
17
100
AcDbEntity
  8
DEBUG_NODE
100
AcDbCircle
 10
21.0
 20
28.75
 30
0.0
 40
0.12
  0
CIRCLE
  5
204
330
17
100
AcDbEntity
  8
DEBUG_NODE
100
AcDbCircle
 10
21.0
 20
37.5
 30
0.0
 40
0.12
  0
CIRCLE
  5
205
330
17
100
AcDbEntity
  8
DEBUG_NODE
100
AcDbCircle
 10
39.0
 20
2.5
 30
0.0
 40
0.12
  0
CIRCLE
  5
206
330
17
100
AcDbEntity
  8
DEBUG_NODE
100
AcDbCircle
 10
39.0
 20
11.25
 30
0.0
 40
0.12
  0
CIRCLE
  5
207
330
17
100
AcDbEntity
  8
DEBUG_NODE
100
AcDbCircle
 10
48.0
 20
2.5
 30
0.0
 40
0.12
  0
CIRCLE
  5
208
330
17
100
AcDbEntity
  8
DEBUG_NODE
100
AcDbCircle
 10
48.0
 20
11.25
 30
0.0
 40
0.12
  0
CIRCLE
  5
209
330
17
100
AcDbEntity
  8
DEBUG_NODE
100
AcDbCircle
 10
32.0
 20
22.0
 30
0.0
 40
0.12
  0
CIRCLE
  5
20A
330
17
100
AcDbEntity
  8
DEBUG_NODE
100
AcDbCircle
 10
32.0
 20
-2.0
 30
0.0
 40
0.12
  0
CIRCLE
  5
20B
330
17
100
AcDbEntity
  8
DEBUG_NODE
100
AcDbCircle
 10
-2.0
 20
22.0
 30
0.0
 40
0.12
  0
CIRCLE
  5
20C
330
17
100
AcDbEntity
  8
DEBUG_NODE
100
AcDbCircle
 10
2.5
 20
-2.0
 30
0.0
 40
0.12
  0
CIRCLE
  5
20D
330
17
100
AcDbEntity
  8
DEBUG_NODE
100
AcDbCircle
 10
2.5
 20
42.0
 30
0.0
 40
0.12
  0
CIRCLE
  5
20E
330
17
100
AcDbEntity
  8
DEBUG_NODE
100
AcDbCircle
 10
-2.0
 20
37.5
 30
0.0
 40
0.12
  0
CIRCLE
  5
20F
330
17
100
AcDbEntity
  8
DEBUG_NODE
100
AcDbCircle
 10
32.0
 20
37.5
 30
0.0
 40
0.12
  0
CIRCLE
  5
210
330
17
100
AcDbEntity
  8
DEBUG_NODE
100
AcDbCircle
 10
27.5
 20
42.0
 30
0.0
 40
0.12
  0
CIRCLE
  5
211
330
17
100
AcDbEntity
  8
DEBUG_NODE
100
AcDbCircle
 10
27.5
 20
-2.0
 30
0.0
 40
0.12
  0
CIRCLE
  5
212
330
17
100
AcDbEntity
  8
DEBUG_NODE
100
AcDbCircle
 10
-2.0
 20
17.5
 30
0.0
 40
0.12
  0
CIRCLE
  5
213
330
17
100
AcDbEntity
  8
DEBUG_NODE
100
AcDbCircle
 10
62.0
 20
17.5
 30
0.0
 40
0.12
  0
CIRCLE
  5
214
330
17
100
AcDbEntity
  8
DEBUG_NODE
100
AcDbCircle
 10
57.5
 20
22.0
 30
0.0
 40
0.12
  0
CIRCLE
  5
215
330
17
100
AcDbEntity
  8
DEBUG_NODE
100
AcDbCircle
 10
57.5
 20
-2.0
 30
0.0
 40
0.12
  0
CIRCLE
  5
216
330
17
100
AcDbEntity
  8
DEBUG_NODE
100
AcDbCircle
 10
62.0
 20
2.5
 30
0.0
 40
0.12
  0
CIRCLE
  5
217
330
17
100
AcDbEntity
  8
DEBUG_NODE
100
AcDbCircle
 10
-2.0
 20
2.5
 30
0.0
 40
0.12
  0
CIRCLE
  5
218
330
17
100
AcDbEntity
  8
DEBUG_NODE
100
AcDbCircle
 10
-2.0
 20
7.0
 30
0.0
 40
0.12
  0
CIRCLE
  5
219
330
17
100
AcDbEntity
  8
DEBUG_NODE
100
AcDbCircle
 10
2.5
 20
9.125
 30
0.0
 40
0.12
  0
CIRCLE
  5
21A
330
17
100
AcDbEntity
  8
DEBUG_NODE
100
AcDbCircle
 10
2.5
 20
13.9375
 30
0.0
 40
0.12
  0
CIRCLE
  5
21B
330
17
100
AcDbEntity
  8
DEBUG_NODE
100
AcDbCircle
 10
-2.0
 20
16.625
 30
0.0
 40
0.12
  0
CIRCLE
  5
21C
330
17
100
AcDbEntity
  8
DEBUG_NODE
100
AcDbCircle
 10
2.5
 20
19.3125
 30
0.0
 40
0.12
  0
CIRCLE
  5
21D
330
17
100
AcDbEntity
  8
DEBUG_NODE
100
AcDbCircle
 10
2.5
 20
25.375
 30
0.0
 40
0.12
  0
CIRCLE
  5
21E
330
17
100
AcDbEntity
  8
DEBUG_NODE
100
AcDbCircle
 10
2.5
 20
30.875
 30
0.0
 40
0.12
  0
CIRCLE
  5
21F
330
17
100
AcDbEntity
  8
DEBUG_NODE
100
AcDbCircle
 10
-2.0
 20
33.0
 30
0.0
 40
0.12
  0
CIRCLE
  5
220
330
17
100
AcDbEntity
  8
DEBUG_NODE
100
AcDbCircle
 10
7.0
 20
42.0
 30
0.0
 40
0.12
  0
CIRCLE
  5
221
330
17
100
AcDbEntity
  8
DEBUG_NODE
100
AcDbCircle
 10
9.5
 20
37.5
 30
0.0
 40
0.12
  0
CIRCLE
  5
222
330
17
100
AcDbEntity
  8
DEBUG_NODE
100
AcDbCircle
 10
14.75
 20
37.5
 30
0.0
 40
0.12
  0
CIRCLE
  5
223
330
17
100
AcDbEntity
  8
DEBUG_NODE
100
AcDbCircle
 10
17.5
 20
42.0
 30
0.0
 40
0.12
  0
CIRCLE
  5
224
330
17
100
AcDbEntity
  8
DEBUG_NODE
100
AcDbCircle
 10
20.25
 20
37.5
 30
0.0
 40
0.12
  0
CIRCLE
  5
225
330
17
100
AcDbEntity
  8
DEBUG_NODE
100
AcDbCircle
 10
23.0
 20
42.0
 30
0.0
 40
0.12
  0
CIRCLE
  5
226
330
17
100
AcDbEntity
  8
DEBUG_NODE
100
AcDbCircle
 10
32.0
 20
33.205771
 30
0.0
 40
0.12
  0
CIRCLE
  5
227
330
17
100
AcDbEntity
  8
DEBUG_NODE
100
AcDbCircle
 10
27.5
 20
32.0
 30
0.0
 40
0.12
  0
CIRCLE
  5
228
330
17
100
AcDbEntity
  8
DEBUG_NODE
100
AcDbCircle
 10
32.0
 20
30.794229
 30
0.0
 40
0.12
  0
CIRCLE
  5
229
330
17
100
AcDbEntity
  8
DEBUG_NODE
100
AcDbCircle
 10
41.0
 20
22.0
 30
0.0
 40
0.12
  0
CIRCLE
  5
22A
330
17
100
AcDbEntity
  8
DEBUG_NODE
100
AcDbCircle
 10
44.5
 20
17.5
 30
0.0
 40
0.12
  0
CIRCLE
  5
22B
330
17
100
AcDbEntity
  8
DEBUG_NODE
100
AcDbCircle
 10
50.5
 20
17.5
 30
0.0
 40
0.12
  0
CIRCLE
  5
22C
330
17
100
AcDbEntity
  8
DEBUG_NODE
100
AcDbCircle
 10
53.0
 20
22.0
 30
0.0
 40
0.12
  0
CIRCLE
  5
22D
330
17
100
AcDbEntity
  8
DEBUG_NODE
100
AcDbCircle
 10
62.0
 20
13.0
 30
0.0
 40
0.12
  0
CIRCLE
  5
22E
330
17
100
AcDbEntity
  8
DEBUG_NODE
100
AcDbCircle
 10
57.5
 20
10.0
 30
0.0
 40
0.12
  0
CIRCLE
  5
22F
330
17
100
AcDbEntity
  8
DEBUG_NODE
100
AcDbCircle
 10
62.0
 20
7.0
 30
0.0
 40
0.12
  0
CIRCLE
  5
230
330
17
100
AcDbEntity
  8
DEBUG_NODE
100
AcDbCircle
 10
53.0
 20
-2.0
 30
0.0
 40
0.12
  0
CIRCLE
  5
231
330
17
100
AcDbEntity
  8
DEBUG_NODE
100
AcDbCircle
 10
50.5
 20
2.5
 30
0.0
 40
0.12
  0
CIRCLE
  5
232
330
17
100
AcDbEntity
  8
DEBUG_NODE
100
AcDbCircle
 10
43.5
 20
2.5
 30
0.0
 40
0.12
  0
CIRCLE
  5
233
330
17
100
AcDbEntity
  8
DEBUG_NODE
100
AcDbCircle
 10
35.5
 20
2.5
 30
0.0
 40
0.12
  0
CIRCLE
  5
234
330
17
100
AcDbEntity
  8
DEBUG_NODE
100
AcDbCircle
 10
29.25
 20
2.5
 30
0.0
 40
0.12
  0
CIRCLE
  5
235
330
17
100
AcDbEntity
  8
DEBUG_NODE
100
AcDbCircle
 10
26.5
 20
-2.0
 30
0.0
 40
0.12
  0
CIRCLE
  5
236
330
17
100
AcDbEntity
  8
DEBUG_NODE
100
AcDbCircle
 10
23.75
 20
2.5
 30
0.0
 40
0.12
  0
CIRCLE
  5
237
330
17
100
AcDbEntity
  8
DEBUG_NODE
100
AcDbCircle
 10
16.5
 20
2.5
 30
0.0
 40
0.12
  0
CIRCLE
  5
238
330
17
100
AcDbEntity
  8
DEBUG_NODE
100
AcDbCircle
 10
9.5
 20
2.5
 30
0.0
 40
0.12
  0
CIRCLE
  5
239
330
17
100
AcDbEntity
  8
DEBUG_NODE
100
AcDbCircle
 10
7.0
 20
-2.0
 30
0.0
 40
0.12
  0
CIRCLE
  5
23A
330
17
100
AcDbEntity
  8
DEBUG_NODE
100
AcDbCircle
 10
32.0
 20
33.0
 30
0.0
 40
0.12
  0
CIRCLE
  5
23B
330
17
100
AcDbEntity
  8
DEBUG_NODE
100
AcDbCircle
 10
2.5
 20
11.25
 30
0.0
 40
0.12
  0
CIRCLE
  5
23C
330
17
100
AcDbEntity
  8
DEBUG_NODE
100
AcDbCircle
 10
2.5
 20
22.0
 30
0.0
 40
0.12
  0
CIRCLE
  5
23D
330
17
100
AcDbEntity
  8
DEBUG_NODE
100
AcDbCircle
 10
2.5
 20
28.75
 30
0.0
 40
0.12
  0
CIRCLE
  5
23E
330
17
100
AcDbEntity
  8
DEBUG_NODE
100
AcDbCircle
 10
27.5
 20
28.75
 30
0.0
 40
0.12
  0
CIRCLE
  5
23F
330
17
100
AcDbEntity
  8
DEBUG_NODE
100
AcDbCircle
 10
27.5
 20
22.0
 30
0.0
 40
0.12
  0
CIRCLE
  5
240
330
17
100
AcDbEntity
  8
DEBUG_NODE
100
AcDbCircle
 10
27.5
 20
11.25
 30
0.0
 40
0.12
  0
CIRCLE
  5
241
330
17
100
AcDbEntity
  8
DEBUG_NODE
100
AcDbCircle
 10
12.0
 20
17.5
 30
0.0
 40
0.12
  0
CIRCLE
  5
242
330
17
100
AcDbEntity
  8
DEBUG_NODE
100
AcDbCircle
 10
21.0
 20
17.5
 30
0.0
 40
0.12
  0
CIRCLE
  5
243
330
17
100
AcDbEntity
  8
DEBUG_NODE
100
AcDbCircle
 10
32.0
 20
17.5
 30
0.0
 40
0.12
  0
CIRCLE
  5
244
330
17
100
AcDbEntity
  8
DEBUG_NODE
100
AcDbCircle
 10
39.0
 20
17.5
 30
0.0
 40
0.12
  0
CIRCLE
  5
245
330
17
100
AcDbEntity
  8
DEBUG_NODE
100
AcDbCircle
 10
48.0
 20
17.5
 30
0.0
 40
0.12
  0
CIRCLE
  5
246
330
17
100
AcDbEntity
  8
DEBUG_NODE
100
AcDbCircle
 10
57.5
 20
11.25
 30
0.0
 40
0.12
  0
CIRCLE
  5
247
330
17
100
AcDbEntity
  8
DEBUG_NODE
100
AcDbCircle
 10
32.0
 20
2.5
 30
0.0
 40
0.12
  0
CIRCLE
  5
248
330
17
100
AcDbEntity
  8
DEBUG_NODE
100
AcDbCircle
 10
20.999999984247623
 20
38.72727270149611
 30
0.0
 40
0.12
  0
CIRCLE
  5
249
330
17
100
AcDbEntity
  8
DEBUG_NODE
100
AcDbCircle
 10
59.375000304556195
 20
11.250000203037462
 30
0.0
 40
0.12
  0
CIRCLE
  5
24A
330
17
100
AcDbEntity
  8
DEBUG_NODE
100
AcDbCircle
 10
12.0
 20
22.0
 30
0.0
 40
0.12
  0
CIRCLE
  5
24B
330
17
100
AcDbEntity
  8
DEBUG_NODE
100
AcDbCircle
 10
21.0
 20
22.0
 30
0.0
 40
0.12
  0
CIRCLE
  5
24C
330
17
100
AcDbEntity
  8
DEBUG_NODE
100
AcDbCircle
 10
32.0
 20
11.25
 30
0.0
 40
0.12
  0
CIRCLE
  5
24D
330
17
100
AcDbEntity
  8
DEBUG_NODE
100
AcDbCircle
 10
-0.5348837209302325
 20
17.5
 30
0.0
 40
0.12
  0
CIRCLE
  5
24E
330
17
100
AcDbEntity
  8
DEBUG_NODE
100
AcDbCircle
 10
31.837713518471038
 20
33.162286481528966
 30
0.0
 40
0.12
  0
CIRCLE
  5
24F
330
17
100
AcDbEntity
  8
DEBUG_NODE
100
AcDbCircle
 10
27.5
 20
-0.36363636363636365
 30
0.0
 40
0.12
  0
CIRCLE
  5
250
330
17
100
AcDbEntity
  8
DEBUG_NODE
100
AcDbCircle
 10
2.5
 20
2.5
 30
0.0
 40
0.12
  0
CIRCLE
  5
251
330
17
100
AcDbEntity
  8
DEBUG_NODE
100
AcDbCircle
 10
2.5
 20
37.5
 30
0.0
 40
0.12
  0
CIRCLE
  5
252
330
17
100
AcDbEntity
  8
DEBUG_NODE
100
AcDbCircle
 10
27.5
 20
37.5
 30
0.0
 40
0.12
  0
CIRCLE
  5
253
330
17
100
AcDbEntity
  8
DEBUG_NODE
100
AcDbCircle
 10
57.5
 20
17.5
 30
0.0
 40
0.12
  0
CIRCLE
  5
254
330
17
100
AcDbEntity
  8
DEBUG_NODE
100
AcDbCircle
 10
57.5
 20
2.5
 30
0.0
 40
0.12
  0
CIRCLE
  5
255
330
17
100
AcDbEntity
  8
DEBUG_NODE
100
AcDbCircle
 10
2.5
 20
17.5
 30
0.0
 40
0.12
  0
CIRCLE
  5
256
330
17
100
AcDbEntity
  8
DEBUG_NODE
100
AcDbCircle
 10
27.5
 20
17.5
 30
0.0
 40
0.12
  0
CIRCLE
  5
257
330
17
100
AcDbEntity
  8
DEBUG_NODE
100
AcDbCircle
 10
27.5
 20
2.5
 30
0.0
 40
0.12
  0
ENDSEC
  0
SECTION
  2
OBJECTS
  0
DICTIONARY
  5
A
330
0
100
AcDbDictionary
281
1
  3
ACAD_COLOR
350
B
  3
ACAD_GROUP
350
C
  3
ACAD_LAYOUT
350
D
  3
ACAD_MATERIAL
350
E
  3
ACAD_MLEADERSTYLE
350
F
  3
ACAD_MLINESTYLE
350
10
  3
ACAD_PLOTSETTINGS
350
11
  3
ACAD_PLOTSTYLENAME
350
12
  3
ACAD_SCALELIST
350
14
  3
ACAD_TABLESTYLE
350
15
  3
ACAD_VISUALSTYLE
350
16
  3
EZDXF_META
350
2D
  0
DICTIONARY
  5
B
330
A
100
AcDbDictionary
281
1
  0
DICTIONARY
  5
C
330
A
100
AcDbDictionary
281
1
  0
DICTIONARY
  5
D
330
A
100
AcDbDictionary
281
1
  3
Model
350
1A
  3
Layout1
350
1E
  0
DICTIONARY
  5
E
330
A
100
AcDbDictionary
281
1
  3
ByBlock
350
1F
  3
ByLayer
350
20
  3
Global
350
21
  0
DICTIONARY
  5
F
330
A
100
AcDbDictionary
281
1
  3
Standard
350
2C
  0
DICTIONARY
  5
10
330
A
100
AcDbDictionary
281
1
  3
Standard
350
22
  0
DICTIONARY
  5
11
330
A
100
AcDbDictionary
281
1
  0
ACDBDICTIONARYWDFLT
  5
12
330
A
100
AcDbDictionary
281
1
  3
Normal
350
13
100
AcDbDictionaryWithDefault
340
13
  0
ACDBPLACEHOLDER
  5
13
330
12
  0
DICTIONARY
  5
14
330
A
100
AcDbDictionary
281
1
  0
DICTIONARY
  5
15
330
A
100
AcDbDictionary
281
1
  0
DICTIONARY
  5
16
330
A
100
AcDbDictionary
281
1
  0
LAYOUT
  5
1A
330
D
100
AcDbPlotSettings
  1

  4
A3
  6

 40
7.5
 41
20.0
 42
7.5
 43
20.0
 44
420.0
 45
297.0
 46
0.0
 47
0.0
 48
0.0
 49
0.0
140
0.0
141
0.0
142
1.0
143
1.0
 70
1024
 72
1
 73
0
 74
5
  7

 75
16
 76
0
 77
2
 78
300
147
1.0
148
0.0
149
0.0
100
AcDbLayout
  1
Model
 70
1
 71
0
 10
0.0
 20
0.0
 11
420.0
 21
297.0
 12
0.0
 22
0.0
 32
0.0
 14
1e+20
 24
1e+20
 34
1e+20
 15
-1e+20
 25
-1e+20
 35
-1e+20
146
0.0
 13
0.0
 23
0.0
 33
0.0
 16
1.0
 26
0.0
 36
0.0
 17
0.0
 27
1.0
 37
0.0
 76
1
330
17
  0
LAYOUT
  5
1E
330
D
100
AcDbPlotSettings
  1

  4
A3
  6

 40
7.5
 41
20.0
 42
7.5
 43
20.0
 44
420.0
 45
297.0
 46
0.0
 47
0.0
 48
0.0
 49
0.0
140
0.0
141
0.0
142
1.0
143
1.0
 70
0
 72
1
 73
0
 74
5
  7

 75
16
 76
0
 77
2
 78
300
147
1.0
148
0.0
149
0.0
100
AcDbLayout
  1
Layout1
 70
1
 71
1
 10
0.0
 20
0.0
 11
420.0
 21
297.0
 12
0.0
 22
0.0
 32
0.0
 14
1e+20
 24
1e+20
 34
1e+20
 15
-1e+20
 25
-1e+20
 35
-1e+20
146
0.0
 13
0.0
 23
0.0
 33
0.0
 16
1.0
 26
0.0
 36
0.0
 17
0.0
 27
1.0
 37
0.0
 76
1
330
1B
  0
MATERIAL
  5
1F
102
{ACAD_REACTORS
330
E
102
}
330
E
100
AcDbMaterial
  1
ByBlock
  2

 70
0
 40
1.0
 71
1
 41
1.0
 91
-1023410177
 42
1.0
 72
1
  3

 73
1
 74
1
 75
1
 44
0.5
 73
0
 45
1.0
 46
1.0
 77
1
  4

 78
1
 79
1
170
1
 48
1.0
171
1
  6

172
1
173
1
174
1
140
1.0
141
1.0
175
1
  7

176
1
177
1
178
1
143
1.0
179
1
  8

270
1
271
1
272
1
145
1.0
146
1.0
273
1
  9

274
1
275
1
276
1
 42
1.0
 72
1
  3

 73
1
 74
1
 75
1
 94
63
  0
MATERIAL
  5
20
102
{ACAD_REACTORS
330
E
102
}
330
E
100
AcDbMaterial
  1
ByLayer
  2

 70
0
 40
1.0
 71
1
 41
1.0
 91
-1023410177
 42
1.0
 72
1
  3

 73
1
 74
1
 75
1
 44
0.5
 73
0
 45
1.0
 46
1.0
 77
1
  4

 78
1
 79
1
170
1
 48
1.0
171
1
  6

172
1
173
1
174
1
140
1.0
141
1.0
175
1
  7

176
1
177
1
178
1
143
1.0
179
1
  8

270
1
271
1
272
1
145
1.0
146
1.0
273
1
  9

274
1
275
1
276
1
 42
1.0
 72
1
  3

 73
1
 74
1
 75
1
 94
63
  0
MATERIAL
  5
21
102
{ACAD_REACTORS
330
E
102
}
330
E
100
AcDbMaterial
  1
Global
  2

 70
0
 40
1.0
 71
1
 41
1.0
 91
-1023410177
 42
1.0
 72
1
  3

 73
1
 74
1
 75
1
 44
0.5
 73
0
 45
1.0
 46
1.0
 77
1
  4

 78
1
 79
1
170
1
 48
1.0
171
1
  6

172
1
173
1
174
1
140
1.0
141
1.0
175
1
  7

176
1
177
1
178
1
143
1.0
179
1
  8

270
1
271
1
272
1
145
1.0
146
1.0
273
1
  9

274
1
275
1
276
1
 42
1.0
 72
1
  3

 73
1
 74
1
 75
1
 94
63
  0
MLINESTYLE
  5
22
102
{ACAD_REACTORS
330
10
102
}
330
10
100
AcDbMlineStyle
  2
Standard
 70
0
  3

 62
256
 51
90.0
 52
90.0
 71
2
 49
0.5
 62
256
  6
BYLAYER
 49
-0.5
 62
256
  6
BYLAYER
  0
MLEADERSTYLE
  5
2C
102
{ACAD_REACTORS
330
F
102
}
330
F
100
AcDbMLeaderStyle
179
2
170
2
171
1
172
0
 90
2
 40
0.0
 41
0.0
173
1
 91
-1056964608
 92
-2
290
1
 42
2.0
291
1
 43
8.0
  3
Standard
 44
4.0
300

342
29
174
1
175
1
176
0
178
1
 93
-1056964608
 45
4.0
292
0
297
0
 46
4.0
 94
-1056964608
 47
1.0
 49
1.0
140
1.0
294
1
141
0.0
177
0
142
1.0
295
0
296
0
143
3.75
271
0
272
9
273
9
  0
DICTIONARY
  5
2D
330
A
100
AcDbDictionary
280
1
281
1
  3
CREATED_BY_EZDXF
350
2E
  3
WRITTEN_BY_EZDXF
350
25A
  0
DICTIONARYVAR
  5
2E
330
2D
100
DictionaryVariables
280
0
  1
1.4.3 @ 2026-08-05T03:29:19.821251+00:00
  0
DICTIONARYVAR
  5
25A
330
2D
100
DictionaryVariables
280
0
  1
1.4.3 @ 2026-08-05T03:29:19.848211+00:00
  0
ENDSEC
  0
EOF
