  0
SECTION
  2
HEADER
  9
$ACADVER
  1
AC1024
  9
$ACADMAINTVER
 70
6
  9
$DWGCODEPAGE
  3
ANSI_1252
  9
$LASTSAVEDBY
  1
ezdxf
  9
$INSBASE
 10
0.0
 20
0.0
 30
0.0
  9
$EXTMIN
 10
1e+20
 20
1e+20
 30
1e+20
  9
$EXTMAX
 10
-1e+20
 20
-1e+20
 30
-1e+20
  9
$LIMMIN
 10
0.0
 20
0.0
  9
$LIMMAX
 10
420.0
 20
297.0
  9
$ORTHOMODE
 70
0
  9
$REGENMODE
 70
1
  9
$FILLMODE
 70
1
  9
$QTEXTMODE
 70
0
  9
$MIRRTEXT
 70
1
  9
$LTSCALE
 40
1.0
  9
$ATTMODE
 70
1
  9
$TEXTSIZE
 40
2.5
  9
$TRACEWID
 40
1.0
  9
$TEXTSTYLE
  7
Standard
  9
$CLAYER
  8
0
  9
$CELTYPE
  6
ByLayer
  9
$CECOLOR
 62
256
  9
$CELTSCALE
 40
1.0
  9
$DISPSILH
 70
0
  9
$DIMSCALE
 40
1.0
  9
$DIMASZ
 40
2.5
  9
$DIMEXO
 40
0.625
  9
$DIMDLI
 40
3.75
  9
$DIMRND
 40
0.0
  9
$DIMDLE
 40
0.0
  9
$DIMEXE
 40
1.25
  9
$DIMTP
 40
0.0
  9
$DIMTM
 40
0.0
  9
$DIMTXT
 40
2.5
  9
$DIMCEN
 40
2.5
  9
$DIMTSZ
 40
0.0
  9
$DIMTOL
 70
0
  9
$DIMLIM
 70
0
  9
$DIMTIH
 70
0
  9
$DIMTOH
 70
0
  9
$DIMSE1
 70
0
  9
$DIMSE2
 70
0
  9
$DIMTAD
 70
1
  9
$DIMZIN
 70
8
  9
$DIMBLK
  1

  9
$DIMASO
 70
1
  9
$DIMSHO
 70
1
  9
$DIMPOST
  1

  9
$DIMAPOST
  1

  9
$DIMALT
 70
0
  9
$DIMALTD
 70
3
  9
$DIMALTF
 40
0.03937007874
  9
$DIMLFAC
 40
1.0
  9
$DIMTOFL
 70
1
  9
$DIMTVP
 40
0.0
  9
$DIMTIX
 70
0
  9
$DIMSOXD
 70
0
  9
$DIMSAH
 70
0
  9
$DIMBLK1
  1

  9
$DIMBLK2
  1

  9
$DIMSTYLE
  2
ISO-25
  9
$DIMCLRD
 70
0
  9
$DIMCLRE
 70
0
  9
$DIMCLRT
 70
0
  9
$DIMTFAC
 40
1.0
  9
$DIMGAP
 40
0.625
  9
$DIMJUST
 70
0
  9
$DIMSD1
 70
0
  9
$DIMSD2
 70
0
  9
$DIMTOLJ
 70
0
  9
$DIMTZIN
 70
8
  9
$DIMALTZ
 70
0
  9
$DIMALTTZ
 70
0
  9
$DIMUPT
 70
0
  9
$DIMDEC
 70
2
  9
$DIMTDEC
 70
2
  9
$DIMALTU
 70
2
  9
$DIMALTTD
 70
3
  9
$DIMTXSTY
  7
Standard
  9
$DIMAUNIT
 70
0
  9
$DIMADEC
 70
0
  9
$DIMALTRND
 40
0.0
  9
$DIMAZIN
 70
0
  9
$DIMDSEP
 70
44
  9
$DIMATFIT
 70
3
  9
$DIMFRAC
 70
0
  9
$DIMLDRBLK
  1

  9
$DIMLUNIT
 70
2
  9
$DIMLWD
 70
-2
  9
$DIMLWE
 70
-2
  9
$DIMTMOVE
 70
0
  9
$DIMFXL
 40
1.0
  9
$DIMFXLON
 70
0
  9
$DIMJOGANG
 40
0.785398163397
  9
$DIMTFILL
 70
0
  9
$DIMTFILLCLR
 70
0
  9
$DIMARCSYM
 70
0
  9
$DIMLTYPE
  6

  9
$DIMLTEX1
  6

  9
$DIMLTEX2
  6

  9
$DIMTXTDIRECTION
 70
0
  9
$LUNITS
 70
2
  9
$LUPREC
 70
4
  9
$SKETCHINC
 40
1.0
  9
$FILLETRAD
 40
10.0
  9
$AUNITS
 70
0
  9
$AUPREC
 70
2
  9
$MENU
  1
.
  9
$ELEVATION
 40
0.0
  9
$PELEVATION
 40
0.0
  9
$THICKNESS
 40
0.0
  9
$LIMCHECK
 70
0
  9
$CHAMFERA
 40
0.0
  9
$CHAMFERB
 40
0.0
  9
$CHAMFERC
 40
0.0
  9
$CHAMFERD
 40
0.0
  9
$SKPOLY
 70
0
  9
$TDCREATE
 40
2461253.6444791667
  9
$TDUCREATE
 40
2458532.153996898
  9
$TDUPDATE
 40
2461253.6444791667
  9
$TDUUPDATE
 40
2458532.1544311
  9
$TDINDWG
 40
0.0
  9
$TDUSRTIMER
 40
0.0
  9
$USRTIMER
 70
1
  9
$ANGBASE
 50
0.0
  9
$ANGDIR
 70
0
  9
$PDMODE
 70
0
  9
$PDSIZE
 40
0.0
  9
$PLINEWID
 40
0.0
  9
$SPLFRAME
 70
0
  9
$SPLINETYPE
 70
6
  9
$SPLINESEGS
 70
8
  9
$HANDSEED
  5
325
  9
$SURFTAB1
 70
6
  9
$SURFTAB2
 70
6
  9
$SURFTYPE
 70
6
  9
$SURFU
 70
6
  9
$SURFV
 70
6
  9
$UCSBASE
  2

  9
$UCSNAME
  2

  9
$UCSORG
 10
0.0
 20
0.0
 30
0.0
  9
$UCSXDIR
 10
1.0
 20
0.0
 30
0.0
  9
$UCSYDIR
 10
0.0
 20
1.0
 30
0.0
  9
$UCSORTHOREF
  2

  9
$UCSORTHOVIEW
 70
0
  9
$UCSORGTOP
 10
0.0
 20
0.0
 30
0.0
  9
$UCSORGBOTTOM
 10
0.0
 20
0.0
 30
0.0
  9
$UCSORGLEFT
 10
0.0
 20
0.0
 30
0.0
  9
$UCSORGRIGHT
 10
0.0
 20
0.0
 30
0.0
  9
$UCSORGFRONT
 10
0.0
 20
0.0
 30
0.0
  9
$UCSORGBACK
 10
0.0
 20
0.0
 30
0.0
  9
$PUCSBASE
  2

  9
$PUCSNAME
  2

  9
$PUCSORG
 10
0.0
 20
0.0
 30
0.0
  9
$PUCSXDIR
 10
1.0
 20
0.0
 30
0.0
  9
$PUCSYDIR
 10
0.0
 20
1.0
 30
0.0
  9
$PUCSORTHOREF
  2

  9
$PUCSORTHOVIEW
 70
0
  9
$PUCSORGTOP
 10
0.0
 20
0.0
 30
0.0
  9
$PUCSORGBOTTOM
 10
0.0
 20
0.0
 30
0.0
  9
$PUCSORGLEFT
 10
0.0
 20
0.0
 30
0.0
  9
$PUCSORGRIGHT
 10
0.0
 20
0.0
 30
0.0
  9
$PUCSORGFRONT
 10
0.0
 20
0.0
 30
0.0
  9
$PUCSORGBACK
 10
0.0
 20
0.0
 30
0.0
  9
$USERI1
 70
0
  9
$USERI2
 70
0
  9
$USERI3
 70
0
  9
$USERI4
 70
0
  9
$USERI5
 70
0
  9
$USERR1
 40
0.0
  9
$USERR2
 40
0.0
  9
$USERR3
 40
0.0
  9
$USERR4
 40
0.0
  9
$USERR5
 40
0.0
  9
$WORLDVIEW
 70
1
  9
$SHADEDGE
 70
3
  9
$SHADEDIF
 70
70
  9
$TILEMODE
 70
1
  9
$MAXACTVP
 70
64
  9
$PINSBASE
 10
0.0
 20
0.0
 30
0.0
  9
$PLIMCHECK
 70
0
  9
$PEXTMIN
 10
1e+20
 20
1e+20
 30
1e+20
  9
$PEXTMAX
 10
-1e+20
 20
-1e+20
 30
-1e+20
  9
$PLIMMIN
 10
0.0
 20
0.0
  9
$PLIMMAX
 10
420.0
 20
297.0
  9
$UNITMODE
 70
0
  9
$VISRETAIN
 70
1
  9
$PLINEGEN
 70
0
  9
$PSLTSCALE
 70
1
  9
$TREEDEPTH
 70
3020
  9
$CMLSTYLE
  2
Standard
  9
$CMLJUST
 70
0
  9
$CMLSCALE
 40
20.0
  9
$PROXYGRAPHICS
 70
1
  9
$MEASUREMENT
 70
1
  9
$CELWEIGHT
370
-1
  9
$ENDCAPS
280
0
  9
$JOINSTYLE
280
0
  9
$LWDISPLAY
290
0
  9
$INSUNITS
 70
6
  9
$HYPERLINKBASE
  1

  9
$STYLESHEET
  1

  9
$XEDIT
290
1
  9
$CEPSNTYPE
380
0
  9
$PSTYLEMODE
290
1
  9
$FINGERPRINTGUID
  2
{AD966D6B-5837-4E49-B9D9-8887E497B288}
  9
$VERSIONGUID
  2
{00A81740-9398-4372-B2E1-32F7DE08344B}
  9
$EXTNAMES
290
1
  9
$PSVPSCALE
 40
0.0
  9
$OLESTARTUP
290
0
  9
$SORTENTS
280
127
  9
$INDEXCTL
280
0
  9
$HIDETEXT
280
1
  9
$XCLIPFRAME
280
1
  9
$HALOGAP
280
0
  9
$OBSCOLOR
 70
257
  9
$OBSLTYPE
280
0
  9
$INTERSECTIONDISPLAY
280
0
  9
$INTERSECTIONCOLOR
 70
257
  9
$DIMASSOC
280
2
  9
$PROJECTNAME
  1

  9
$CAMERADISPLAY
290
0
  9
$LENSLENGTH
 40
50.0
  9
$CAMERAHEIGHT
 40
0.0
  9
$STEPSPERSEC
 40
24.0
  9
$STEPSIZE
 40
100.0
  9
$3DDWFPREC
 40
2.0
  9
$PSOLWIDTH
 40
0.005
  9
$PSOLHEIGHT
 40
0.08
  9
$LOFTANG1
 40
1.570796326795
  9
$LOFTANG2
 40
1.570796326795
  9
$LOFTMAG1
 40
0.0
  9
$LOFTMAG2
 40
0.0
  9
$LOFTPARAM
 70
7
  9
$LOFTNORMALS
280
1
  9
$LATITUDE
 40
37.795
  9
$LONGITUDE
 40
-122.394
  9
$NORTHDIRECTION
 40
0.0
  9
$TIMEZONE
 70
-8000
  9
$LIGHTGLYPHDISPLAY
280
1
  9
$TILEMODELIGHTSYNCH
280
1
  9
$CMATERIAL
347
20
  9
$SOLIDHIST
280
0
  9
$SHOWHIST
280
1
  9
$DWFFRAME
280
2
  9
$DGNFRAME
280
2
  9
$REALWORLDSCALE
290
1
  9
$INTERFERECOLOR
 62
256
  9
$CSHADOW
280
0
  9
$SHADOWPLANELOCATION
 40
0.0
  0
ENDSEC
  0
SECTION
  2
CLASSES
  0
CLASS
  1
ACDBDICTIONARYWDFLT
  2
AcDbDictionaryWithDefault
  3
ObjectDBX Classes
 90
0
 91
0
280
0
281
0
  0
CLASS
  1
SUN
  2
AcDbSun
  3
SCENEOE
 90
1153
 91
0
280
0
281
0
  0
CLASS
  1
VISUALSTYLE
  2
AcDbVisualStyle
  3
ObjectDBX Classes
 90
4095
 91
0
280
0
281
0
  0
CLASS
  1
MATERIAL
  2
AcDbMaterial
  3
ObjectDBX Classes
 90
1153
 91
0
280
0
281
0
  0
CLASS
  1
SCALE
  2
AcDbScale
  3
ObjectDBX Classes
 90
1153
 91
0
280
0
281
0
  0
CLASS
  1
TABLESTYLE
  2
AcDbTableStyle
  3
ObjectDBX Classes
 90
4095
 91
0
280
0
281
0
  0
CLASS
  1
MLEADERSTYLE
  2
AcDbMLeaderStyle
  3
ACDB_MLEADERSTYLE_CLASS
 90
4095
 91
0
280
0
281
0
  0
CLASS
  1
DICTIONARYVAR
  2
AcDbDictionaryVar
  3
ObjectDBX Classes
 90
0
 91
0
280
0
281
0
  0
CLASS
  1
CELLSTYLEMAP
  2
AcDbCellStyleMap
  3
ObjectDBX Classes
 90
1152
 91
0
280
0
281
0
  0
CLASS
  1
MENTALRAYRENDERSETTINGS
  2
AcDbMentalRayRenderSettings
  3
SCENEOE
 90
1024
 91
0
280
0
281
0
  0
CLASS
  1
ACDBDETAILVIEWSTYLE
  2
AcDbDetailViewStyle
  3
ObjectDBX Classes
 90
1025
 91
0
280
0
281
0
  0
CLASS
  1
ACDBSECTIONVIEWSTYLE
  2
AcDbSectionViewStyle
  3
ObjectDBX Classes
 90
1025
 91
0
280
0
281
0
  0
CLASS
  1
RASTERVARIABLES
  2
AcDbRasterVariables
  3
ISM
 90
0
 91
0
280
0
281
0
  0
CLASS
  1
LAYOUT
  2
AcDbLayout
  3
ObjectDBX Classes
 90
0
 91
0
280
0
281
0
  0
CLASS
  1
ACDBPLACEHOLDER
  2
AcDbPlaceHolder
  3
ObjectDBX Classes
 90
0
 91
0
280
0
281
0
  0
ENDSEC
  0
SECTION
  2
TABLES
  0
TABLE
  2
VPORT
  5
8
330
0
100
AcDbSymbolTable
 70
1
  0
VPORT
  5
23
330
8
100
AcDbSymbolTableRecord
100
AcDbViewportTableRecord
  2
*Active
 70
0
 10
0.0
 20
0.0
 11
1.0
 21
1.0
 12
0.0
 22
0.0
 13
0.0
 23
0.0
 14
0.5
 24
0.5
 15
0.5
 25
0.5
 16
0.0
 26
0.0
 36
1.0
 17
0.0
 27
0.0
 37
0.0
 40
1000.0
 41
1.34
 42
50.0
 43
0.0
 44
0.0
 50
0.0
 51
0.0
 71
0
 72
1000
 73
1
 74
3
 75
0
 76
0
 77
0
 78
0
281
0
 65
0
146
0.0
  0
ENDTAB
  0
TABLE
  2
LTYPE
  5
2
330
0
100
AcDbSymbolTable
 70
3
  0
LTYPE
  5
24
330
2
100
AcDbSymbolTableRecord
100
AcDbLinetypeTableRecord
  2
ByBlock
 70
0
  3

 72
65
 73
0
 40
0.0
  0
LTYPE
  5
25
330
2
100
AcDbSymbolTableRecord
100
AcDbLinetypeTableRecord
  2
ByLayer
 70
0
  3

 72
65
 73
0
 40
0.0
  0
LTYPE
  5
26
330
2
100
AcDbSymbolTableRecord
100
AcDbLinetypeTableRecord
  2
Continuous
 70
0
  3

 72
65
 73
0
 40
0.0
  0
ENDTAB
  0
TABLE
  2
LAYER
  5
1
330
0
100
AcDbSymbolTable
 70
17
  0
LAYER
  5
27
330
1
100
AcDbSymbolTableRecord
100
AcDbLayerTableRecord
  2
0
 70
0
 62
7
  6
Continuous
370
-3
390
13
347
21
  0
LAYER
  5
28
330
1
100
AcDbSymbolTableRecord
100
AcDbLayerTableRecord
  2
Defpoints
 70
0
 62
7
  6
Continuous
290
0
370
-3
390
13
347
21
  0
LAYER
  5
2F
330
1
100
AcDbSymbolTableRecord
100
AcDbLayerTableRecord
  2
WALL_REF
 70
0
 62
1
  6
Continuous
370
-3
390
13
347
21
  0
LAYER
  5
30
330
1
100
AcDbSymbolTableRecord
100
AcDbLayerTableRecord
  2
WALING
 70
0
 62
6
  6
Continuous
370
-3
390
13
347
21
  0
LAYER
  5
31
330
1
100
AcDbSymbolTableRecord
100
AcDbLayerTableRecord
  2
STRUT
 70
0
 62
4
  6
Continuous
370
-3
390
13
347
21
  0
LAYER
  5
32
330
1
100
AcDbSymbolTableRecord
100
AcDbLayerTableRecord
  2
CORNER
 70
0
 62
2
  6
Continuous
370
-3
390
13
347
21
  0
LAYER
  5
33
330
1
100
AcDbSymbolTableRecord
100
AcDbLayerTableRecord
  2
TIE
 70
0
 62
8
  6
Continuous
370
-3
390
13
347
21
  0
LAYER
  5
34
330
1
100
AcDbSymbolTableRecord
100
AcDbLayerTableRecord
  2
TRUSS_WEB
 70
0
 62
30
  6
Continuous
370
-3
390
13
347
21
  0
LAYER
  5
35
330
1
100
AcDbSymbolTableRecord
100
AcDbLayerTableRecord
  2
RING_STRUT
 70
0
 62
140
  6
Continuous
370
-3
390
13
347
21
  0
LAYER
  5
36
330
1
100
AcDbSymbolTableRecord
100
AcDbLayerTableRecord
  2
RADIAL_STRUT
 70
0
 62
5
  6
Continuous
370
-3
390
13
347
21
  0
LAYER
  5
37
330
1
100
AcDbSymbolTableRecord
100
AcDbLayerTableRecord
  2
PILLAR
 70
0
 62
7
  6
Continuous
370
-3
390
13
347
21
  0
LAYER
  5
38
330
1
100
AcDbSymbolTableRecord
100
AcDbLayerTableRecord
  2
STRUT_OUTLINE
 70
0
 62
9
  6
Continuous
370
-3
390
13
347
21
  0
LAYER
  5
39
330
1
100
AcDbSymbolTableRecord
100
AcDbLayerTableRecord
  2
WALING_OUTLINE
 70
0
 62
213
  6
Continuous
370
-3
390
13
347
21
  0
LAYER
  5
3A
330
1
100
AcDbSymbolTableRecord
100
AcDbLayerTableRecord
  2
TRUSS_CHORD
 70
0
 62
3
  6
Continuous
370
-3
390
13
347
21
  0
LAYER
  5
3B
330
1
100
AcDbSymbolTableRecord
100
AcDbLayerTableRecord
  2
DEBUG_NODE
 70
0
 62
1
  6
Continuous
370
-3
390
13
347
21
  0
LAYER
  5
3C
330
1
100
AcDbSymbolTableRecord
100
AcDbLayerTableRecord
  2
DEBUG_ISSUE
 70
0
 62
1
  6
Continuous
370
-3
390
13
347
21
  0
LAYER
  5
3D
330
1
100
AcDbSymbolTableRecord
100
AcDbLayerTableRecord
  2
CORE_PROTECTION
 70
0
 62
1
  6
Continuous
370
-3
390
13
347
21
  0
ENDTAB
  0
TABLE
  2
STYLE
  5
5
330
0
100
AcDbSymbolTable
 70
1
  0
STYLE
  5
29
330
5
100
AcDbSymbolTableRecord
100
AcDbTextStyleTableRecord
  2
Standard
 70
0
 40
0.0
 41
1.0
 50
0.0
 71
0
 42
2.5
  3
txt
  4

  0
ENDTAB
  0
TABLE
  2
VIEW
  5
7
330
0
100
AcDbSymbolTable
 70
0
  0
ENDTAB
  0
TABLE
  2
UCS
  5
6
330
0
100
AcDbSymbolTable
 70
0
  0
ENDTAB
  0
TABLE
  2
APPID
  5
3
330
0
100
AcDbSymbolTable
 70
3
  0
APPID
  5
2A
330
3
100
AcDbSymbolTableRecord
100
AcDbRegAppTableRecord
  2
ACAD
 70
0
  0
APPID
  5
322
330
3
100
AcDbSymbolTableRecord
100
AcDbRegAppTableRecord
  2
HATCHBACKGROUNDCOLOR
 70
0
  0
APPID
  5
323
330
3
100
AcDbSymbolTableRecord
100
AcDbRegAppTableRecord
  2
EZDXF
 70
0
  0
ENDTAB
  0
TABLE
  2
DIMSTYLE
  5
4
330
0
100
AcDbSymbolTable
 70
1
100
AcDbDimStyleTable
  0
DIMSTYLE
105
2B
330
4
100
AcDbSymbolTableRecord
100
AcDbDimStyleTableRecord
  2
Standard
 70
0
 40
1.0
 41
2.5
 42
0.625
 43
3.75
 44
1.25
 45
0.0
 46
0.0
 47
0.0
 48
0.0
 49
2.5
140
2.5
141
2.5
142
0.0
143
0.03937007874
144
1.0
145
0.0
146
1.0
147
0.625
148
0.0
 69
0
 70
0
 71
0
 72
0
 73
0
 74
0
 75
0
 76
0
 77
1
 78
8
 79
3
170
0
171
3
172
1
173
0
174
0
175
0
176
0
177
0
178
0
179
2
271
2
272
2
273
2
274
3
275
0
276
0
277
2
278
44
279
0
280
0
281
0
282
0
283
0
284
8
285
0
286
0
288
0
289
3
290
0
371
-2
372
-2
  0
ENDTAB
  0
TABLE
  2
BLOCK_RECORD
  5
9
330
0
100
AcDbSymbolTable
 70
2
  0
BLOCK_RECORD
  5
17
330
9
100
AcDbSymbolTableRecord
100
AcDbBlockTableRecord
  2
*Model_Space
340
1A
 70
0
280
1
281
0
  0
BLOCK_RECORD
  5
1B
330
9
100
AcDbSymbolTableRecord
100
AcDbBlockTableRecord
  2
*Paper_Space
340
1E
 70
0
280
1
281
0
  0
ENDTAB
  0
ENDSEC
  0
SECTION
  2
BLOCKS
  0
BLOCK
  5
18
330
17
100
AcDbEntity
  8
0
100
AcDbBlockBegin
  2
*Model_Space
 70
0
 10
0.0
 20
0.0
 30
0.0
  3
*Model_Space
  1

  0
ENDBLK
  5
19
330
17
100
AcDbEntity
  8
0
100
AcDbBlockEnd
  0
BLOCK
  5
1C
330
1B
100
AcDbEntity
  8
0
100
AcDbBlockBegin
  2
*Paper_Space
 70
0
 10
0.0
 20
0.0
 30
0.0
  3
*Paper_Space
  1

  0
ENDBLK
  5
1D
330
1B
100
AcDbEntity
  8
0
100
AcDbBlockEnd
  0
ENDSEC
  0
SECTION
  2
ENTITIES
  0
LWPOLYLINE
  5
3E
330
17
100
AcDbEntity
  8
WALL_REF
100
AcDbPolyline
 90
4
 70
1
 10
0.0
 20
0.0
 10
120.0
 20
0.0
 10
120.0
 20
80.0
 10
0.0
 20
80.0
  0
LWPOLYLINE
  5
3F
330
17
100
AcDbEntity
  8
TRUSS_WEB
100
AcDbPolyline
 90
2
 70
0
 10
7.0
 20
1.0
 10
7.0
 20
-5.0
  0
LWPOLYLINE
  5
40
330
17
100
AcDbEntity
  8
TRUSS_WEB
100
AcDbPolyline
 90
2
 70
0
 10
1.0
 20
7.0
 10
-5.0
 20
7.0
  0
LWPOLYLINE
  5
41
330
17
100
AcDbEntity
  8
TRUSS_WEB
100
AcDbPolyline
 90
2
 70
0
 10
1.0
 20
73.0
 10
-5.0
 20
73.0
  0
LWPOLYLINE
  5
42
330
17
100
AcDbEntity
  8
TRUSS_WEB
100
AcDbPolyline
 90
2
 70
0
 10
7.0
 20
79.0
 10
7.0
 20
85.0
  0
LWPOLYLINE
  5
43
330
17
100
AcDbEntity
  8
TRUSS_WEB
100
AcDbPolyline
 90
2
 70
0
 10
113.0
 20
79.0
 10
113.0
 20
85.0
  0
LWPOLYLINE
  5
44
330
17
100
AcDbEntity
  8
TRUSS_WEB
100
AcDbPolyline
 90
2
 70
0
 10
119.0
 20
73.0
 10
125.0
 20
73.0
  0
LWPOLYLINE
  5
45
330
17
100
AcDbEntity
  8
TRUSS_WEB
100
AcDbPolyline
 90
2
 70
0
 10
119.0
 20
7.0
 10
125.0
 20
7.0
  0
LWPOLYLINE
  5
46
330
17
100
AcDbEntity
  8
TRUSS_WEB
100
AcDbPolyline
 90
2
 70
0
 10
113.0
 20
1.0
 10
113.0
 20
-5.0
  0
LWPOLYLINE
  5
47
330
17
100
AcDbEntity
  8
TIE
100
AcDbPolyline
 90
2
 70
0
 10
34.333333
 20
6.25
 10
42.333333
 20
6.25
  0
LWPOLYLINE
  5
48
330
17
100
AcDbEntity
  8
TIE
100
AcDbPolyline
 90
2
 70
0
 10
34.333333
 20
17.5
 10
42.333333
 20
17.5
  0
LWPOLYLINE
  5
49
330
17
100
AcDbEntity
  8
TIE
100
AcDbPolyline
 90
2
 70
0
 10
34.333333
 20
28.75
 10
42.333333
 20
28.75
  0
LWPOLYLINE
  5
4A
330
17
100
AcDbEntity
  8
TIE
100
AcDbPolyline
 90
2
 70
0
 10
34.333333
 20
51.25
 10
42.333333
 20
51.25
  0
LWPOLYLINE
  5
4B
330
17
100
AcDbEntity
  8
TIE
100
AcDbPolyline
 90
2
 70
0
 10
34.333333
 20
62.5
 10
42.333333
 20
62.5
  0
LWPOLYLINE
  5
4C
330
17
100
AcDbEntity
  8
TIE
100
AcDbPolyline
 90
2
 70
0
 10
34.333333
 20
73.75
 10
42.333333
 20
73.75
  0
LWPOLYLINE
  5
4D
330
17
100
AcDbEntity
  8
TIE
100
AcDbPolyline
 90
2
 70
0
 10
77.666667
 20
6.25
 10
85.666667
 20
6.25
  0
LWPOLYLINE
  5
4E
330
17
100
AcDbEntity
  8
TIE
100
AcDbPolyline
 90
2
 70
0
 10
77.666667
 20
17.5
 10
85.666667
 20
17.5
  0
LWPOLYLINE
  5
4F
330
17
100
AcDbEntity
  8
TIE
100
AcDbPolyline
 90
2
 70
0
 10
77.666667
 20
28.75
 10
85.666667
 20
28.75
  0
LWPOLYLINE
  5
50
330
17
100
AcDbEntity
  8
TIE
100
AcDbPolyline
 90
2
 70
0
 10
77.666667
 20
51.25
 10
85.666667
 20
51.25
  0
LWPOLYLINE
  5
51
330
17
100
AcDbEntity
  8
TIE
100
AcDbPolyline
 90
2
 70
0
 10
77.666667
 20
62.5
 10
85.666667
 20
62.5
  0
LWPOLYLINE
  5
52
330
17
100
AcDbEntity
  8
TIE
100
AcDbPolyline
 90
2
 70
0
 10
77.666667
 20
73.75
 10
85.666667
 20
73.75
  0
LWPOLYLINE
  5
53
330
17
100
AcDbEntity
  8
TIE
100
AcDbPolyline
 90
2
 70
0
 10
4.833333
 20
36.0
 10
4.833333
 20
44.0
  0
LWPOLYLINE
  5
54
330
17
100
AcDbEntity
  8
TIE
100
AcDbPolyline
 90
2
 70
0
 10
14.666667
 20
36.0
 10
14.666667
 20
44.0
  0
LWPOLYLINE
  5
55
330
17
100
AcDbEntity
  8
TIE
100
AcDbPolyline
 90
2
 70
0
 10
24.5
 20
36.0
 10
24.5
 20
44.0
  0
LWPOLYLINE
  5
56
330
17
100
AcDbEntity
  8
TIE
100
AcDbPolyline
 90
2
 70
0
 10
54.111111
 20
36.0
 10
54.111111
 20
44.0
  0
LWPOLYLINE
  5
57
330
17
100
AcDbEntity
  8
TIE
100
AcDbPolyline
 90
2
 70
0
 10
65.888889
 20
36.0
 10
65.888889
 20
44.0
  0
LWPOLYLINE
  5
58
330
17
100
AcDbEntity
  8
TIE
100
AcDbPolyline
 90
2
 70
0
 10
95.5
 20
36.0
 10
95.5
 20
44.0
  0
LWPOLYLINE
  5
59
330
17
100
AcDbEntity
  8
TIE
100
AcDbPolyline
 90
2
 70
0
 10
105.333334
 20
36.0
 10
105.333334
 20
44.0
  0
LWPOLYLINE
  5
5A
330
17
100
AcDbEntity
  8
TIE
100
AcDbPolyline
 90
2
 70
0
 10
115.166667
 20
36.0
 10
115.166667
 20
44.0
  0
LWPOLYLINE
  5
5B
330
17
100
AcDbEntity
  8
WALING
100
AcDbPolyline
 90
2
 70
1
 10
-5.0
 20
-5.0
 10
-5.0
 20
1.0
  0
LWPOLYLINE
  5
5C
330
17
100
AcDbEntity
  8
WALING
100
AcDbPolyline
 90
2
 70
1
 10
-5.0
 20
1.0
 10
-5.0
 20
7.0
  0
LWPOLYLINE
  5
5D
330
17
100
AcDbEntity
  8
WALING
100
AcDbPolyline
 90
2
 70
1
 10
-5.0
 20
7.0
 10
-5.0
 20
13.0
  0
LWPOLYLINE
  5
5E
330
17
100
AcDbEntity
  8
WALING
100
AcDbPolyline
 90
2
 70
1
 10
-5.0
 20
13.0
 10
-5.0
 20
24.5
  0
LWPOLYLINE
  5
5F
330
17
100
AcDbEntity
  8
WALING
100
AcDbPolyline
 90
2
 70
1
 10
-5.0
 20
24.5
 10
-5.0
 20
36.0
  0
LWPOLYLINE
  5
60
330
17
100
AcDbEntity
  8
WALING
100
AcDbPolyline
 90
2
 70
1
 10
-5.0
 20
36.0
 10
-5.0
 20
43.99999999999999
  0
LWPOLYLINE
  5
61
330
17
100
AcDbEntity
  8
WALING
100
AcDbPolyline
 90
2
 70
1
 10
-5.0
 20
43.99999999999999
 10
-5.0
 20
55.50000000000001
  0
LWPOLYLINE
  5
62
330
17
100
AcDbEntity
  8
WALING
100
AcDbPolyline
 90
2
 70
1
 10
-5.0
 20
55.50000000000001
 10
-5.0
 20
67.0
  0
LWPOLYLINE
  5
63
330
17
100
AcDbEntity
  8
WALING
100
AcDbPolyline
 90
2
 70
1
 10
-5.0
 20
67.0
 10
-5.0
 20
73.0
  0
LWPOLYLINE
  5
64
330
17
100
AcDbEntity
  8
WALING
100
AcDbPolyline
 90
2
 70
1
 10
-5.0
 20
73.0
 10
-5.0
 20
79.0
  0
LWPOLYLINE
  5
65
330
17
100
AcDbEntity
  8
WALING
100
AcDbPolyline
 90
3
 70
1
 10
-5.0
 20
79.0
 10
-5.0
 20
85.0
 10
1.0
 20
85.0
  0
LWPOLYLINE
  5
66
330
17
100
AcDbEntity
  8
WALING
100
AcDbPolyline
 90
2
 70
1
 10
1.0
 20
85.0
 10
7.0
 20
85.0
  0
LWPOLYLINE
  5
67
330
17
100
AcDbEntity
  8
WALING
100
AcDbPolyline
 90
2
 70
1
 10
7.0
 20
85.0
 10
13.0
 20
85.0
  0
LWPOLYLINE
  5
68
330
17
100
AcDbEntity
  8
WALING
100
AcDbPolyline
 90
2
 70
1
 10
13.0
 20
85.0
 10
23.666667000000004
 20
85.0
  0
LWPOLYLINE
  5
69
330
17
100
AcDbEntity
  8
WALING
100
AcDbPolyline
 90
2
 70
1
 10
23.666667000000004
 20
85.0
 10
34.33333300000001
 20
85.0
  0
LWPOLYLINE
  5
6A
330
17
100
AcDbEntity
  8
WALING
100
AcDbPolyline
 90
2
 70
1
 10
34.33333300000001
 20
85.0
 10
42.33333300000001
 20
85.0
  0
LWPOLYLINE
  5
6B
330
17
100
AcDbEntity
  8
WALING
100
AcDbPolyline
 90
2
 70
1
 10
42.33333300000001
 20
85.0
 10
54.111110999999994
 20
85.0
  0
LWPOLYLINE
  5
6C
330
17
100
AcDbEntity
  8
WALING
100
AcDbPolyline
 90
2
 70
1
 10
54.111110999999994
 20
85.0
 10
65.888889
 20
85.0
  0
LWPOLYLINE
  5
6D
330
17
100
AcDbEntity
  8
WALING
100
AcDbPolyline
 90
2
 70
1
 10
65.888889
 20
85.0
 10
77.66666699999999
 20
85.0
  0
LWPOLYLINE
  5
6E
330
17
100
AcDbEntity
  8
WALING
100
AcDbPolyline
 90
2
 70
1
 10
77.66666699999999
 20
85.0
 10
85.66666699999999
 20
85.0
  0
LWPOLYLINE
  5
6F
330
17
100
AcDbEntity
  8
WALING
100
AcDbPolyline
 90
2
 70
1
 10
85.66666699999999
 20
85.0
 10
96.33333400000001
 20
85.0
  0
LWPOLYLINE
  5
70
330
17
100
AcDbEntity
  8
WALING
100
AcDbPolyline
 90
2
 70
1
 10
96.33333400000001
 20
85.0
 10
107.0
 20
85.0
  0
LWPOLYLINE
  5
71
330
17
100
AcDbEntity
  8
WALING
100
AcDbPolyline
 90
2
 70
1
 10
107.0
 20
85.0
 10
113.0
 20
85.0
  0
LWPOLYLINE
  5
72
330
17
100
AcDbEntity
  8
WALING
100
AcDbPolyline
 90
2
 70
1
 10
113.0
 20
85.0
 10
119.0
 20
85.0
  0
LWPOLYLINE
  5
73
330
17
100
AcDbEntity
  8
WALING
100
AcDbPolyline
 90
3
 70
1
 10
119.0
 20
85.0
 10
125.0
 20
85.0
 10
125.0
 20
79.0
  0
LWPOLYLINE
  5
74
330
17
100
AcDbEntity
  8
WALING
100
AcDbPolyline
 90
2
 70
1
 10
125.0
 20
79.0
 10
125.0
 20
73.0
  0
LWPOLYLINE
  5
75
330
17
100
AcDbEntity
  8
WALING
100
AcDbPolyline
 90
2
 70
1
 10
125.0
 20
73.0
 10
125.0
 20
67.0
  0
LWPOLYLINE
  5
76
330
17
100
AcDbEntity
  8
WALING
100
AcDbPolyline
 90
2
 70
1
 10
125.0
 20
67.0
 10
125.0
 20
55.5
  0
LWPOLYLINE
  5
77
330
17
100
AcDbEntity
  8
WALING
100
AcDbPolyline
 90
2
 70
1
 10
125.0
 20
55.5
 10
125.0
 20
44.0
  0
LWPOLYLINE
  5
78
330
17
100
AcDbEntity
  8
WALING
100
AcDbPolyline
 90
2
 70
1
 10
125.0
 20
44.0
 10
125.0
 20
36.00000000000001
  0
LWPOLYLINE
  5
79
330
17
100
AcDbEntity
  8
WALING
100
AcDbPolyline
 90
2
 70
1
 10
125.0
 20
36.00000000000001
 10
125.0
 20
24.499999999999993
  0
LWPOLYLINE
  5
7A
330
17
100
AcDbEntity
  8
WALING
100
AcDbPolyline
 90
2
 70
1
 10
125.0
 20
24.499999999999993
 10
125.0
 20
13.0
  0
LWPOLYLINE
  5
7B
330
17
100
AcDbEntity
  8
WALING
100
AcDbPolyline
 90
2
 70
1
 10
125.0
 20
13.0
 10
125.0
 20
7.0
  0
LWPOLYLINE
  5
7C
330
17
100
AcDbEntity
  8
WALING
100
AcDbPolyline
 90
2
 70
1
 10
125.0
 20
7.0
 10
125.0
 20
1.0
  0
LWPOLYLINE
  5
7D
330
17
100
AcDbEntity
  8
WALING
100
AcDbPolyline
 90
3
 70
1
 10
125.0
 20
1.0
 10
125.0
 20
-5.0
 10
119.0
 20
-5.0
  0
LWPOLYLINE
  5
7E
330
17
100
AcDbEntity
  8
WALING
100
AcDbPolyline
 90
2
 70
1
 10
119.0
 20
-5.0
 10
113.0
 20
-5.0
  0
LWPOLYLINE
  5
7F
330
17
100
AcDbEntity
  8
WALING
100
AcDbPolyline
 90
2
 70
1
 10
113.0
 20
-5.0
 10
107.0
 20
-5.0
  0
LWPOLYLINE
  5
80
330
17
100
AcDbEntity
  8
WALING
100
AcDbPolyline
 90
2
 70
1
 10
107.0
 20
-5.0
 10
96.33333399999998
 20
-5.0
  0
LWPOLYLINE
  5
81
330
17
100
AcDbEntity
  8
WALING
100
AcDbPolyline
 90
2
 70
1
 10
96.33333399999998
 20
-5.0
 10
85.66666700000002
 20
-5.0
  0
LWPOLYLINE
  5
82
330
17
100
AcDbEntity
  8
WALING
100
AcDbPolyline
 90
2
 70
1
 10
85.66666700000002
 20
-5.0
 10
77.66666700000002
 20
-5.0
  0
LWPOLYLINE
  5
83
330
17
100
AcDbEntity
  8
WALING
100
AcDbPolyline
 90
2
 70
1
 10
77.66666700000002
 20
-5.0
 10
65.888889
 20
-5.0
  0
LWPOLYLINE
  5
84
330
17
100
AcDbEntity
  8
WALING
100
AcDbPolyline
 90
2
 70
1
 10
65.888889
 20
-5.0
 10
54.111110999999994
 20
-5.0
  0
LWPOLYLINE
  5
85
330
17
100
AcDbEntity
  8
WALING
100
AcDbPolyline
 90
2
 70
1
 10
54.111110999999994
 20
-5.0
 10
42.33333299999998
 20
-5.0
  0
LWPOLYLINE
  5
86
330
17
100
AcDbEntity
  8
WALING
100
AcDbPolyline
 90
2
 70
1
 10
42.33333299999998
 20
-5.0
 10
34.33333299999998
 20
-5.0
  0
LWPOLYLINE
  5
87
330
17
100
AcDbEntity
  8
WALING
100
AcDbPolyline
 90
2
 70
1
 10
34.33333299999998
 20
-5.0
 10
23.666667000000018
 20
-5.0
  0
LWPOLYLINE
  5
88
330
17
100
AcDbEntity
  8
WALING
100
AcDbPolyline
 90
2
 70
1
 10
23.666667000000018
 20
-5.0
 10
13.0
 20
-5.0
  0
LWPOLYLINE
  5
89
330
17
100
AcDbEntity
  8
WALING
100
AcDbPolyline
 90
2
 70
1
 10
13.0
 20
-5.0
 10
7.0
 20
-5.0
  0
LWPOLYLINE
  5
8A
330
17
100
AcDbEntity
  8
WALING
100
AcDbPolyline
 90
2
 70
1
 10
7.0
 20
-5.0
 10
1.0
 20
-5.0
  0
LWPOLYLINE
  5
8B
330
17
100
AcDbEntity
  8
WALING
100
AcDbPolyline
 90
2
 70
1
 10
1.0
 20
-5.0
 10
-5.0
 20
-5.0
  0
LWPOLYLINE
  5
8C
330
17
100
AcDbEntity
  8
STRUT
100
AcDbPolyline
 90
2
 70
0
 10
34.333333
 20
-5.0
 10
34.333333
 20
1.0
  0
LWPOLYLINE
  5
8D
330
17
100
AcDbEntity
  8
STRUT
100
AcDbPolyline
 90
2
 70
0
 10
34.333333
 20
1.0
 10
34.333333
 20
6.25
  0
LWPOLYLINE
  5
8E
330
17
100
AcDbEntity
  8
STRUT
100
AcDbPolyline
 90
2
 70
0
 10
34.333333
 20
6.25
 10
34.333333
 20
17.5
  0
LWPOLYLINE
  5
8F
330
17
100
AcDbEntity
  8
STRUT
100
AcDbPolyline
 90
2
 70
0
 10
34.333333
 20
17.5
 10
34.333333
 20
28.75
  0
LWPOLYLINE
  5
90
330
17
100
AcDbEntity
  8
STRUT
100
AcDbPolyline
 90
2
 70
0
 10
34.333333
 20
28.75
 10
34.333333
 20
36.0
  0
LWPOLYLINE
  5
91
330
17
100
AcDbEntity
  8
STRUT
100
AcDbPolyline
 90
2
 70
0
 10
34.333333
 20
36.0
 10
34.333333
 20
43.99999999999999
  0
LWPOLYLINE
  5
92
330
17
100
AcDbEntity
  8
STRUT
100
AcDbPolyline
 90
2
 70
0
 10
34.333333
 20
43.99999999999999
 10
34.333333
 20
51.25
  0
LWPOLYLINE
  5
93
330
17
100
AcDbEntity
  8
STRUT
100
AcDbPolyline
 90
2
 70
0
 10
34.333333
 20
51.25
 10
34.333333
 20
62.5
  0
LWPOLYLINE
  5
94
330
17
100
AcDbEntity
  8
STRUT
100
AcDbPolyline
 90
2
 70
0
 10
34.333333
 20
62.5
 10
34.333333
 20
73.75
  0
LWPOLYLINE
  5
95
330
17
100
AcDbEntity
  8
STRUT
100
AcDbPolyline
 90
2
 70
0
 10
34.333333
 20
73.75
 10
34.333333
 20
79.0
  0
LWPOLYLINE
  5
96
330
17
100
AcDbEntity
  8
STRUT
100
AcDbPolyline
 90
2
 70
0
 10
34.333333
 20
79.0
 10
34.333333
 20
85.0
  0
LWPOLYLINE
  5
97
330
17
100
AcDbEntity
  8
STRUT
100
AcDbPolyline
 90
2
 70
0
 10
42.333333
 20
-5.0
 10
42.333333
 20
1.0
  0
LWPOLYLINE
  5
98
330
17
100
AcDbEntity
  8
STRUT
100
AcDbPolyline
 90
2
 70
0
 10
42.333333
 20
1.0
 10
42.333333
 20
6.25
  0
LWPOLYLINE
  5
99
330
17
100
AcDbEntity
  8
STRUT
100
AcDbPolyline
 90
2
 70
0
 10
42.333333
 20
6.25
 10
42.333333
 20
17.5
  0
LWPOLYLINE
  5
9A
330
17
100
AcDbEntity
  8
STRUT
100
AcDbPolyline
 90
2
 70
0
 10
42.333333
 20
17.5
 10
42.333333
 20
28.75
  0
LWPOLYLINE
  5
9B
330
17
100
AcDbEntity
  8
STRUT
100
AcDbPolyline
 90
2
 70
0
 10
42.333333
 20
28.75
 10
42.333333
 20
36.0
  0
LWPOLYLINE
  5
9C
330
17
100
AcDbEntity
  8
STRUT
100
AcDbPolyline
 90
2
 70
0
 10
42.333333
 20
36.0
 10
42.333333
 20
43.99999999999999
  0
LWPOLYLINE
  5
9D
330
17
100
AcDbEntity
  8
STRUT
100
AcDbPolyline
 90
2
 70
0
 10
42.333333
 20
43.99999999999999
 10
42.333333
 20
51.25
  0
LWPOLYLINE
  5
9E
330
17
100
AcDbEntity
  8
STRUT
100
AcDbPolyline
 90
2
 70
0
 10
42.333333
 20
51.25
 10
42.333333
 20
62.5
  0
LWPOLYLINE
  5
9F
330
17
100
AcDbEntity
  8
STRUT
100
AcDbPolyline
 90
2
 70
0
 10
42.333333
 20
62.5
 10
42.333333
 20
73.75
  0
LWPOLYLINE
  5
A0
330
17
100
AcDbEntity
  8
STRUT
100
AcDbPolyline
 90
2
 70
0
 10
42.333333
 20
73.75
 10
42.333333
 20
79.0
  0
LWPOLYLINE
  5
A1
330
17
100
AcDbEntity
  8
STRUT
100
AcDbPolyline
 90
2
 70
0
 10
42.333333
 20
79.0
 10
42.333333
 20
85.0
  0
LWPOLYLINE
  5
A2
330
17
100
AcDbEntity
  8
STRUT
100
AcDbPolyline
 90
2
 70
0
 10
77.666667
 20
-5.0
 10
77.666667
 20
1.0
  0
LWPOLYLINE
  5
A3
330
17
100
AcDbEntity
  8
STRUT
100
AcDbPolyline
 90
2
 70
0
 10
77.666667
 20
1.0
 10
77.666667
 20
6.25
  0
LWPOLYLINE
  5
A4
330
17
100
AcDbEntity
  8
STRUT
100
AcDbPolyline
 90
2
 70
0
 10
77.666667
 20
6.25
 10
77.666667
 20
17.5
  0
LWPOLYLINE
  5
A5
330
17
100
AcDbEntity
  8
STRUT
100
AcDbPolyline
 90
2
 70
0
 10
77.666667
 20
17.5
 10
77.666667
 20
28.75
  0
LWPOLYLINE
  5
A6
330
17
100
AcDbEntity
  8
STRUT
100
AcDbPolyline
 90
2
 70
0
 10
77.666667
 20
28.75
 10
77.666667
 20
36.0
  0
LWPOLYLINE
  5
A7
330
17
100
AcDbEntity
  8
STRUT
100
AcDbPolyline
 90
2
 70
0
 10
77.666667
 20
36.0
 10
77.666667
 20
43.99999999999999
  0
LWPOLYLINE
  5
A8
330
17
100
AcDbEntity
  8
STRUT
100
AcDbPolyline
 90
2
 70
0
 10
77.666667
 20
43.99999999999999
 10
77.666667
 20
51.25
  0
LWPOLYLINE
  5
A9
330
17
100
AcDbEntity
  8
STRUT
100
AcDbPolyline
 90
2
 70
0
 10
77.666667
 20
51.25
 10
77.666667
 20
62.5
  0
LWPOLYLINE
  5
AA
330
17
100
AcDbEntity
  8
STRUT
100
AcDbPolyline
 90
2
 70
0
 10
77.666667
 20
62.5
 10
77.666667
 20
73.75
  0
LWPOLYLINE
  5
AB
330
17
100
AcDbEntity
  8
STRUT
100
AcDbPolyline
 90
2
 70
0
 10
77.666667
 20
73.75
 10
77.666667
 20
79.0
  0
LWPOLYLINE
  5
AC
330
17
100
AcDbEntity
  8
STRUT
100
AcDbPolyline
 90
2
 70
0
 10
77.666667
 20
79.0
 10
77.666667
 20
85.0
  0
LWPOLYLINE
  5
AD
330
17
100
AcDbEntity
  8
STRUT
100
AcDbPolyline
 90
2
 70
0
 10
85.666667
 20
-5.0
 10
85.666667
 20
1.0
  0
LWPOLYLINE
  5
AE
330
17
100
AcDbEntity
  8
STRUT
100
AcDbPolyline
 90
2
 70
0
 10
85.666667
 20
1.0
 10
85.666667
 20
6.25
  0
LWPOLYLINE
  5
AF
330
17
100
AcDbEntity
  8
STRUT
100
AcDbPolyline
 90
2
 70
0
 10
85.666667
 20
6.25
 10
85.666667
 20
17.5
  0
LWPOLYLINE
  5
B0
330
17
100
AcDbEntity
  8
STRUT
100
AcDbPolyline
 90
2
 70
0
 10
85.666667
 20
17.5
 10
85.666667
 20
28.75
  0
LWPOLYLINE
  5
B1
330
17
100
AcDbEntity
  8
STRUT
100
AcDbPolyline
 90
2
 70
0
 10
85.666667
 20
28.75
 10
85.666667
 20
36.0
  0
LWPOLYLINE
  5
B2
330
17
100
AcDbEntity
  8
STRUT
100
AcDbPolyline
 90
2
 70
0
 10
85.666667
 20
36.0
 10
85.666667
 20
43.99999999999999
  0
LWPOLYLINE
  5
B3
330
17
100
AcDbEntity
  8
STRUT
100
AcDbPolyline
 90
2
 70
0
 10
85.666667
 20
43.99999999999999
 10
85.666667
 20
51.25
  0
LWPOLYLINE
  5
B4
330
17
100
AcDbEntity
  8
STRUT
100
AcDbPolyline
 90
2
 70
0
 10
85.666667
 20
51.25
 10
85.666667
 20
62.5
  0
LWPOLYLINE
  5
B5
330
17
100
AcDbEntity
  8
STRUT
100
AcDbPolyline
 90
2
 70
0
 10
85.666667
 20
62.5
 10
85.666667
 20
73.75
  0
LWPOLYLINE
  5
B6
330
17
100
AcDbEntity
  8
STRUT
100
AcDbPolyline
 90
2
 70
0
 10
85.666667
 20
73.75
 10
85.666667
 20
79.0
  0
LWPOLYLINE
  5
B7
330
17
100
AcDbEntity
  8
STRUT
100
AcDbPolyline
 90
2
 70
0
 10
85.666667
 20
79.0
 10
85.666667
 20
85.0
  0
LWPOLYLINE
  5
B8
330
17
100
AcDbEntity
  8
STRUT
100
AcDbPolyline
 90
2
 70
0
 10
-5.0
 20
36.0
 10
1.0
 20
36.0
  0
LWPOLYLINE
  5
B9
330
17
100
AcDbEntity
  8
STRUT
100
AcDbPolyline
 90
2
 70
0
 10
1.0
 20
36.0
 10
4.833333
 20
36.0
  0
LWPOLYLINE
  5
BA
330
17
100
AcDbEntity
  8
STRUT
100
AcDbPolyline
 90
2
 70
0
 10
4.833333
 20
36.0
 10
14.666667
 20
36.0
  0
LWPOLYLINE
  5
BB
330
17
100
AcDbEntity
  8
STRUT
100
AcDbPolyline
 90
2
 70
0
 10
14.666667
 20
36.0
 10
24.5
 20
36.0
  0
LWPOLYLINE
  5
BC
330
17
100
AcDbEntity
  8
STRUT
100
AcDbPolyline
 90
2
 70
0
 10
24.5
 20
36.0
 10
34.333333
 20
36.0
  0
LWPOLYLINE
  5
BD
330
17
100
AcDbEntity
  8
STRUT
100
AcDbPolyline
 90
2
 70
0
 10
34.333333
 20
36.0
 10
42.333333
 20
36.0
  0
LWPOLYLINE
  5
BE
330
17
100
AcDbEntity
  8
STRUT
100
AcDbPolyline
 90
2
 70
0
 10
42.333333
 20
36.0
 10
54.111111
 20
36.0
  0
LWPOLYLINE
  5
BF
330
17
100
AcDbEntity
  8
STRUT
100
AcDbPolyline
 90
2
 70
0
 10
54.111111
 20
36.0
 10
65.888889
 20
36.0
  0
LWPOLYLINE
  5
C0
330
17
100
AcDbEntity
  8
STRUT
100
AcDbPolyline
 90
2
 70
0
 10
65.888889
 20
36.0
 10
77.666667
 20
36.0
  0
LWPOLYLINE
  5
C1
330
17
100
AcDbEntity
  8
STRUT
100
AcDbPolyline
 90
2
 70
0
 10
77.666667
 20
36.0
 10
85.666667
 20
36.0
  0
LWPOLYLINE
  5
C2
330
17
100
AcDbEntity
  8
STRUT
100
AcDbPolyline
 90
2
 70
0
 10
85.666667
 20
36.0
 10
95.5
 20
36.0
  0
LWPOLYLINE
  5
C3
330
17
100
AcDbEntity
  8
STRUT
100
AcDbPolyline
 90
2
 70
0
 10
95.5
 20
36.0
 10
105.333334
 20
36.0
  0
LWPOLYLINE
  5
C4
330
17
100
AcDbEntity
  8
STRUT
100
AcDbPolyline
 90
2
 70
0
 10
105.333334
 20
36.0
 10
115.166667
 20
36.0
  0
LWPOLYLINE
  5
C5
330
17
100
AcDbEntity
  8
STRUT
100
AcDbPolyline
 90
2
 70
0
 10
115.166667
 20
36.0
 10
119.0
 20
36.0
  0
LWPOLYLINE
  5
C6
330
17
100
AcDbEntity
  8
STRUT
100
AcDbPolyline
 90
2
 70
0
 10
119.0
 20
36.0
 10
125.0
 20
36.0
  0
LWPOLYLINE
  5
C7
330
17
100
AcDbEntity
  8
STRUT
100
AcDbPolyline
 90
2
 70
0
 10
-5.0
 20
44.0
 10
1.0
 20
44.0
  0
LWPOLYLINE
  5
C8
330
17
100
AcDbEntity
  8
STRUT
100
AcDbPolyline
 90
2
 70
0
 10
1.0
 20
44.0
 10
4.833333
 20
44.0
  0
LWPOLYLINE
  5
C9
330
17
100
AcDbEntity
  8
STRUT
100
AcDbPolyline
 90
2
 70
0
 10
4.833333
 20
44.0
 10
14.666667
 20
44.0
  0
LWPOLYLINE
  5
CA
330
17
100
AcDbEntity
  8
STRUT
100
AcDbPolyline
 90
2
 70
0
 10
14.666667
 20
44.0
 10
24.5
 20
44.0
  0
LWPOLYLINE
  5
CB
330
17
100
AcDbEntity
  8
STRUT
100
AcDbPolyline
 90
2
 70
0
 10
24.5
 20
44.0
 10
34.333333
 20
44.0
  0
LWPOLYLINE
  5
CC
330
17
100
AcDbEntity
  8
STRUT
100
AcDbPolyline
 90
2
 70
0
 10
34.333333
 20
44.0
 10
42.333333
 20
44.0
  0
LWPOLYLINE
  5
CD
330
17
100
AcDbEntity
  8
STRUT
100
AcDbPolyline
 90
2
 70
0
 10
42.333333
 20
44.0
 10
54.111111
 20
44.0
  0
LWPOLYLINE
  5
CE
330
17
100
AcDbEntity
  8
STRUT
100
AcDbPolyline
 90
2
 70
0
 10
54.111111
 20
44.0
 10
65.888889
 20
44.0
  0
LWPOLYLINE
  5
CF
330
17
100
AcDbEntity
  8
STRUT
100
AcDbPolyline
 90
2
 70
0
 10
65.888889
 20
44.0
 10
77.666667
 20
44.0
  0
LWPOLYLINE
  5
D0
330
17
100
AcDbEntity
  8
STRUT
100
AcDbPolyline
 90
2
 70
0
 10
77.666667
 20
44.0
 10
85.666667
 20
44.0
  0
LWPOLYLINE
  5
D1
330
17
100
AcDbEntity
  8
STRUT
100
AcDbPolyline
 90
2
 70
0
 10
85.666667
 20
44.0
 10
95.5
 20
44.0
  0
LWPOLYLINE
  5
D2
330
17
100
AcDbEntity
  8
STRUT
100
AcDbPolyline
 90
2
 70
0
 10
95.5
 20
44.0
 10
105.333334
 20
44.0
  0
LWPOLYLINE
  5
D3
330
17
100
AcDbEntity
  8
STRUT
100
AcDbPolyline
 90
2
 70
0
 10
105.333334
 20
44.0
 10
115.166667
 20
44.0
  0
LWPOLYLINE
  5
D4
330
17
100
AcDbEntity
  8
STRUT
100
AcDbPolyline
 90
2
 70
0
 10
115.166667
 20
44.0
 10
119.0
 20
44.0
  0
LWPOLYLINE
  5
D5
330
17
100
AcDbEntity
  8
STRUT
100
AcDbPolyline
 90
2
 70
0
 10
119.0
 20
44.0
 10
125.0
 20
44.0
  0
LWPOLYLINE
  5
D6
330
17
100
AcDbEntity
  8
TRUSS_WEB
100
AcDbPolyline
 90
2
 70
0
 10
-5.0
 20
13.0
 10
0.9999999499681449
 20
18.749999952052804
  0
LWPOLYLINE
  5
D7
330
17
100
AcDbEntity
  8
TRUSS_WEB
100
AcDbPolyline
 90
2
 70
0
 10
1.0
 20
18.75
 10
-4.999999949968145
 20
24.499999952052804
  0
LWPOLYLINE
  5
D8
330
17
100
AcDbEntity
  8
TRUSS_WEB
100
AcDbPolyline
 90
2
 70
0
 10
-5.0
 20
24.5
 10
0.9999999499681449
 20
30.249999952052804
  0
LWPOLYLINE
  5
D9
330
17
100
AcDbEntity
  8
TRUSS_WEB
100
AcDbPolyline
 90
2
 70
0
 10
1.0
 20
30.25
 10
-4.999999949968145
 20
35.999999952052804
  0
LWPOLYLINE
  5
DA
330
17
100
AcDbEntity
  8
TRUSS_WEB
100
AcDbPolyline
 90
2
 70
0
 10
-5.0
 20
36.0
 10
1.0
 20
40.0
  0
LWPOLYLINE
  5
DB
330
17
100
AcDbEntity
  8
TRUSS_WEB
100
AcDbPolyline
 90
2
 70
0
 10
1.0
 20
40.0
 10
-5.0
 20
44.0
  0
LWPOLYLINE
  5
DC
330
17
100
AcDbEntity
  8
TRUSS_WEB
100
AcDbPolyline
 90
2
 70
0
 10
-5.0
 20
44.0
 10
0.9999999499681449
 20
49.749999952052804
  0
LWPOLYLINE
  5
DD
330
17
100
AcDbEntity
  8
TRUSS_WEB
100
AcDbPolyline
 90
2
 70
0
 10
1.0
 20
49.75
 10
-4.999999949968145
 20
55.499999952052804
  0
LWPOLYLINE
  5
DE
330
17
100
AcDbEntity
  8
TRUSS_WEB
100
AcDbPolyline
 90
2
 70
0
 10
-5.0
 20
55.5
 10
0.9999999499681449
 20
61.249999952052804
  0
LWPOLYLINE
  5
DF
330
17
100
AcDbEntity
  8
TRUSS_WEB
100
AcDbPolyline
 90
2
 70
0
 10
1.0
 20
61.25
 10
-4.999999949968145
 20
66.9999999520528
  0
LWPOLYLINE
  5
E0
330
17
100
AcDbEntity
  8
TRUSS_WEB
100
AcDbPolyline
 90
2
 70
0
 10
13.0
 20
85.0
 10
18.333332669319386
 20
79.00000037201572
  0
LWPOLYLINE
  5
E1
330
17
100
AcDbEntity
  8
TRUSS_WEB
100
AcDbPolyline
 90
2
 70
0
 10
18.333333
 20
79.0
 10
23.666666892303887
 20
84.99999987884189
  0
LWPOLYLINE
  5
E2
330
17
100
AcDbEntity
  8
TRUSS_WEB
100
AcDbPolyline
 90
2
 70
0
 10
23.666667
 20
85.0
 10
28.999999669319386
 20
79.00000037201572
  0
LWPOLYLINE
  5
E3
330
17
100
AcDbEntity
  8
TRUSS_WEB
100
AcDbPolyline
 90
2
 70
0
 10
29.0
 20
79.0
 10
34.33333266931939
 20
84.99999962798428
  0
LWPOLYLINE
  5
E4
330
17
100
AcDbEntity
  8
TRUSS_WEB
100
AcDbPolyline
 90
2
 70
0
 10
34.333333
 20
85.0
 10
38.333333
 20
79.0
  0
LWPOLYLINE
  5
E5
330
17
100
AcDbEntity
  8
TRUSS_WEB
100
AcDbPolyline
 90
2
 70
0
 10
38.333333
 20
79.0
 10
42.333333
 20
85.0
  0
LWPOLYLINE
  5
E6
330
17
100
AcDbEntity
  8
TRUSS_WEB
100
AcDbPolyline
 90
2
 70
0
 10
42.333333
 20
85.0
 10
48.222221886946414
 20
79.00000011518667
  0
LWPOLYLINE
  5
E7
330
17
100
AcDbEntity
  8
TRUSS_WEB
100
AcDbPolyline
 90
2
 70
0
 10
48.222222
 20
79.0
 10
54.11111088694642
 20
84.99999988481333
  0
LWPOLYLINE
  5
E8
330
17
100
AcDbEntity
  8
TRUSS_WEB
100
AcDbPolyline
 90
2
 70
0
 10
54.111111
 20
85.0
 10
59.99999988694641
 20
79.00000011518667
  0
LWPOLYLINE
  5
E9
330
17
100
AcDbEntity
  8
TRUSS_WEB
100
AcDbPolyline
 90
2
 70
0
 10
60.0
 20
79.0
 10
65.88888888694642
 20
84.99999988481333
  0
LWPOLYLINE
  5
EA
330
17
100
AcDbEntity
  8
TRUSS_WEB
100
AcDbPolyline
 90
2
 70
0
 10
65.888889
 20
85.0
 10
71.77777788694642
 20
79.00000011518667
  0
LWPOLYLINE
  5
EB
330
17
100
AcDbEntity
  8
TRUSS_WEB
100
AcDbPolyline
 90
2
 70
0
 10
71.777778
 20
79.0
 10
77.66666688694642
 20
84.99999988481333
  0
LWPOLYLINE
  5
EC
330
17
100
AcDbEntity
  8
TRUSS_WEB
100
AcDbPolyline
 90
2
 70
0
 10
77.666667
 20
85.0
 10
81.666667
 20
79.0
  0
LWPOLYLINE
  5
ED
330
17
100
AcDbEntity
  8
TRUSS_WEB
100
AcDbPolyline
 90
2
 70
0
 10
81.666667
 20
79.0
 10
85.666667
 20
85.0
  0
LWPOLYLINE
  5
EE
330
17
100
AcDbEntity
  8
TRUSS_WEB
100
AcDbPolyline
 90
2
 70
0
 10
85.666667
 20
85.0
 10
90.9999996693194
 20
79.0000003720157
  0
LWPOLYLINE
  5
EF
330
17
100
AcDbEntity
  8
TRUSS_WEB
100
AcDbPolyline
 90
2
 70
0
 10
91.0
 20
79.0
 10
96.33333389230388
 20
84.99999987884189
  0
LWPOLYLINE
  5
F0
330
17
100
AcDbEntity
  8
TRUSS_WEB
100
AcDbPolyline
 90
2
 70
0
 10
96.333334
 20
85.0
 10
101.66666666931938
 20
79.00000037201572
  0
LWPOLYLINE
  5
F1
330
17
100
AcDbEntity
  8
TRUSS_WEB
100
AcDbPolyline
 90
2
 70
0
 10
101.666667
 20
79.0
 10
106.9999996693194
 20
84.9999996279843
  0
LWPOLYLINE
  5
F2
330
17
100
AcDbEntity
  8
TRUSS_WEB
100
AcDbPolyline
 90
2
 70
0
 10
125.0
 20
67.0
 10
119.00000005003186
 20
61.250000047947196
  0
LWPOLYLINE
  5
F3
330
17
100
AcDbEntity
  8
TRUSS_WEB
100
AcDbPolyline
 90
2
 70
0
 10
119.0
 20
61.25
 10
124.99999994996814
 20
55.500000047947196
  0
LWPOLYLINE
  5
F4
330
17
100
AcDbEntity
  8
TRUSS_WEB
100
AcDbPolyline
 90
2
 70
0
 10
125.0
 20
55.5
 10
119.00000005003186
 20
49.750000047947196
  0
LWPOLYLINE
  5
F5
330
17
100
AcDbEntity
  8
TRUSS_WEB
100
AcDbPolyline
 90
2
 70
0
 10
119.0
 20
49.75
 10
124.99999994996814
 20
44.000000047947196
  0
LWPOLYLINE
  5
F6
330
17
100
AcDbEntity
  8
TRUSS_WEB
100
AcDbPolyline
 90
2
 70
0
 10
125.0
 20
44.0
 10
119.0
 20
40.0
  0
LWPOLYLINE
  5
F7
330
17
100
AcDbEntity
  8
TRUSS_WEB
100
AcDbPolyline
 90
2
 70
0
 10
119.0
 20
40.0
 10
125.0
 20
36.0
  0
LWPOLYLINE
  5
F8
330
17
100
AcDbEntity
  8
TRUSS_WEB
100
AcDbPolyline
 90
2
 70
0
 10
125.0
 20
36.0
 10
119.00000005003186
 20
30.250000047947196
  0
LWPOLYLINE
  5
F9
330
17
100
AcDbEntity
  8
TRUSS_WEB
100
AcDbPolyline
 90
2
 70
0
 10
119.0
 20
30.25
 10
124.99999994996814
 20
24.500000047947196
  0
LWPOLYLINE
  5
FA
330
17
100
AcDbEntity
  8
TRUSS_WEB
100
AcDbPolyline
 90
2
 70
0
 10
125.0
 20
24.5
 10
119.00000005003186
 20
18.750000047947196
  0
LWPOLYLINE
  5
FB
330
17
100
AcDbEntity
  8
TRUSS_WEB
100
AcDbPolyline
 90
2
 70
0
 10
119.0
 20
18.75
 10
124.99999994996814
 20
13.000000047947195
  0
LWPOLYLINE
  5
FC
330
17
100
AcDbEntity
  8
TRUSS_WEB
100
AcDbPolyline
 90
2
 70
0
 10
107.0
 20
-5.0
 10
101.66666733068061
 20
0.9999996279842875
  0
LWPOLYLINE
  5
FD
330
17
100
AcDbEntity
  8
TRUSS_WEB
100
AcDbPolyline
 90
2
 70
0
 10
101.666667
 20
1.0
 10
96.33333433068061
 20
-4.999999627984281
  0
LWPOLYLINE
  5
FE
330
17
100
AcDbEntity
  8
TRUSS_WEB
100
AcDbPolyline
 90
2
 70
0
 10
96.333334
 20
-5.0
 10
91.00000010769611
 20
0.9999998788418907
  0
LWPOLYLINE
  5
FF
330
17
100
AcDbEntity
  8
TRUSS_WEB
100
AcDbPolyline
 90
2
 70
0
 10
91.0
 20
1.0
 10
85.66666733068061
 20
-4.9999996279842875
  0
LWPOLYLINE
  5
100
330
17
100
AcDbEntity
  8
TRUSS_WEB
100
AcDbPolyline
 90
2
 70
0
 10
85.666667
 20
-5.0
 10
81.666667
 20
1.0
  0
LWPOLYLINE
  5
101
330
17
100
AcDbEntity
  8
TRUSS_WEB
100
AcDbPolyline
 90
2
 70
0
 10
81.666667
 20
1.0
 10
77.666667
 20
-5.0
  0
LWPOLYLINE
  5
102
330
17
100
AcDbEntity
  8
TRUSS_WEB
100
AcDbPolyline
 90
2
 70
0
 10
77.666667
 20
-5.0
 10
71.77777811305359
 20
0.9999998848133291
  0
LWPOLYLINE
  5
103
330
17
100
AcDbEntity
  8
TRUSS_WEB
100
AcDbPolyline
 90
2
 70
0
 10
71.777778
 20
1.0
 10
65.88888911305358
 20
-4.999999884813336
  0
LWPOLYLINE
  5
104
330
17
100
AcDbEntity
  8
TRUSS_WEB
100
AcDbPolyline
 90
2
 70
0
 10
65.888889
 20
-5.0
 10
60.00000011305359
 20
0.9999998848133291
  0
LWPOLYLINE
  5
105
330
17
100
AcDbEntity
  8
TRUSS_WEB
100
AcDbPolyline
 90
2
 70
0
 10
60.0
 20
1.0
 10
54.11111111305358
 20
-4.999999884813332
  0
LWPOLYLINE
  5
106
330
17
100
AcDbEntity
  8
TRUSS_WEB
100
AcDbPolyline
 90
2
 70
0
 10
54.111111
 20
-5.0
 10
48.22222211305359
 20
0.9999998848133318
  0
LWPOLYLINE
  5
107
330
17
100
AcDbEntity
  8
TRUSS_WEB
100
AcDbPolyline
 90
2
 70
0
 10
48.222222
 20
1.0
 10
42.333333113053584
 20
-4.999999884813332
  0
LWPOLYLINE
  5
108
330
17
100
AcDbEntity
  8
TRUSS_WEB
100
AcDbPolyline
 90
2
 70
0
 10
42.333333
 20
-5.0
 10
38.333333
 20
1.0
  0
LWPOLYLINE
  5
109
330
17
100
AcDbEntity
  8
TRUSS_WEB
100
AcDbPolyline
 90
2
 70
0
 10
38.333333
 20
1.0
 10
34.333333
 20
-5.0
  0
LWPOLYLINE
  5
10A
330
17
100
AcDbEntity
  8
TRUSS_WEB
100
AcDbPolyline
 90
2
 70
0
 10
34.333333
 20
-5.0
 10
29.000000330680617
 20
0.999999627984284
  0
LWPOLYLINE
  5
10B
330
17
100
AcDbEntity
  8
TRUSS_WEB
100
AcDbPolyline
 90
2
 70
0
 10
29.0
 20
1.0
 10
23.666667330680614
 20
-4.999999627984287
  0
LWPOLYLINE
  5
10C
330
17
100
AcDbEntity
  8
TRUSS_WEB
100
AcDbPolyline
 90
2
 70
0
 10
23.666667
 20
-5.0
 10
18.333333107696113
 20
0.9999998788418871
  0
LWPOLYLINE
  5
10D
330
17
100
AcDbEntity
  8
TRUSS_WEB
100
AcDbPolyline
 90
2
 70
0
 10
18.333333
 20
1.0
 10
13.000000330680614
 20
-4.999999627984287
  0
LWPOLYLINE
  5
10E
330
17
100
AcDbEntity
  8
TRUSS_WEB
100
AcDbPolyline
 90
2
 70
0
 10
1.0
 20
-5.0
 10
-4.99999973537337
 20
0.9999997353733701
  0
LWPOLYLINE
  5
10F
330
17
100
AcDbEntity
  8
TRUSS_WEB
100
AcDbPolyline
 90
2
 70
0
 10
7.0
 20
-5.0
 10
1.00000026462663
 20
0.9999997353733701
  0
LWPOLYLINE
  5
110
330
17
100
AcDbEntity
  8
TRUSS_WEB
100
AcDbPolyline
 90
2
 70
0
 10
1.00000026462663
 20
0.9999997353733701
 10
-5.0
 20
7.0
  0
LWPOLYLINE
  5
111
330
17
100
AcDbEntity
  8
TRUSS_WEB
100
AcDbPolyline
 90
2
 70
0
 10
13.0
 20
-5.0
 10
7.00000026462663
 20
0.9999997353733701
  0
LWPOLYLINE
  5
112
330
17
100
AcDbEntity
  8
TRUSS_WEB
100
AcDbPolyline
 90
2
 70
0
 10
7.00000026462663
 20
0.9999997353733701
 10
0.9999998221464814
 20
7.000000177853519
  0
LWPOLYLINE
  5
113
330
17
100
AcDbEntity
  8
TRUSS_WEB
100
AcDbPolyline
 90
2
 70
0
 10
0.9999998221464814
 20
7.000000177853519
 10
-4.99999991322689
 20
12.99999991322689
  0
LWPOLYLINE
  5
114
330
17
100
AcDbEntity
  8
TRUSS_WEB
100
AcDbPolyline
 90
2
 70
0
 10
-5.0
 20
79.0
 10
0.9999997353733701
 20
84.99999973537336
  0
LWPOLYLINE
  5
115
330
17
100
AcDbEntity
  8
TRUSS_WEB
100
AcDbPolyline
 90
2
 70
0
 10
-5.0
 20
73.0
 10
0.9999997353733701
 20
78.99999973537336
  0
LWPOLYLINE
  5
116
330
17
100
AcDbEntity
  8
TRUSS_WEB
100
AcDbPolyline
 90
2
 70
0
 10
0.9999997353733701
 20
78.99999973537336
 10
7.0
 20
85.0
  0
LWPOLYLINE
  5
117
330
17
100
AcDbEntity
  8
TRUSS_WEB
100
AcDbPolyline
 90
2
 70
0
 10
-5.0
 20
67.0
 10
0.9999997353733701
 20
72.99999973537336
  0
LWPOLYLINE
  5
118
330
17
100
AcDbEntity
  8
TRUSS_WEB
100
AcDbPolyline
 90
2
 70
0
 10
0.9999997353733701
 20
72.99999973537336
 10
7.000000177853519
 20
79.00000017785352
  0
LWPOLYLINE
  5
119
330
17
100
AcDbEntity
  8
TRUSS_WEB
100
AcDbPolyline
 90
2
 70
0
 10
7.000000177853519
 20
79.00000017785352
 10
12.99999991322689
 20
84.99999991322689
  0
LWPOLYLINE
  5
11A
330
17
100
AcDbEntity
  8
TRUSS_WEB
100
AcDbPolyline
 90
2
 70
0
 10
119.0
 20
85.0
 10
124.99999973537336
 20
79.00000026462664
  0
LWPOLYLINE
  5
11B
330
17
100
AcDbEntity
  8
TRUSS_WEB
100
AcDbPolyline
 90
2
 70
0
 10
113.0
 20
85.0
 10
118.99999973537336
 20
79.00000026462664
  0
LWPOLYLINE
  5
11C
330
17
100
AcDbEntity
  8
TRUSS_WEB
100
AcDbPolyline
 90
2
 70
0
 10
118.99999973537336
 20
79.00000026462664
 10
125.0
 20
73.0
  0
LWPOLYLINE
  5
11D
330
17
100
AcDbEntity
  8
TRUSS_WEB
100
AcDbPolyline
 90
2
 70
0
 10
107.0
 20
85.0
 10
112.99999973537336
 20
79.00000026462664
  0
LWPOLYLINE
  5
11E
330
17
100
AcDbEntity
  8
TRUSS_WEB
100
AcDbPolyline
 90
2
 70
0
 10
112.99999973537336
 20
79.00000026462664
 10
119.00000017785352
 20
72.99999982214648
  0
LWPOLYLINE
  5
11F
330
17
100
AcDbEntity
  8
TRUSS_WEB
100
AcDbPolyline
 90
2
 70
0
 10
119.00000017785352
 20
72.99999982214648
 10
124.99999991322689
 20
67.00000008677311
  0
LWPOLYLINE
  5
120
330
17
100
AcDbEntity
  8
TRUSS_WEB
100
AcDbPolyline
 90
2
 70
0
 10
125.0
 20
1.0
 10
119.00000026462664
 20
-4.99999973537337
  0
LWPOLYLINE
  5
121
330
17
100
AcDbEntity
  8
TRUSS_WEB
100
AcDbPolyline
 90
2
 70
0
 10
125.0
 20
7.0
 10
119.00000026462664
 20
1.00000026462663
  0
LWPOLYLINE
  5
122
330
17
100
AcDbEntity
  8
TRUSS_WEB
100
AcDbPolyline
 90
2
 70
0
 10
119.00000026462664
 20
1.00000026462663
 10
113.0
 20
-5.0
  0
LWPOLYLINE
  5
123
330
17
100
AcDbEntity
  8
TRUSS_WEB
100
AcDbPolyline
 90
2
 70
0
 10
125.0
 20
13.0
 10
119.00000026462664
 20
7.00000026462663
  0
LWPOLYLINE
  5
124
330
17
100
AcDbEntity
  8
TRUSS_WEB
100
AcDbPolyline
 90
2
 70
0
 10
119.00000026462664
 20
7.00000026462663
 10
112.99999982214648
 20
0.9999998221464814
  0
LWPOLYLINE
  5
125
330
17
100
AcDbEntity
  8
TRUSS_WEB
100
AcDbPolyline
 90
2
 70
0
 10
112.99999982214648
 20
0.9999998221464814
 10
107.00000008677311
 20
-4.99999991322689
  0
LWPOLYLINE
  5
126
330
17
100
AcDbEntity
  8
TRUSS_CHORD
100
AcDbPolyline
 90
2
 70
0
 10
1.0
 20
-5.0
 10
1.0
 20
1.0
  0
LWPOLYLINE
  5
127
330
17
100
AcDbEntity
  8
TRUSS_CHORD
100
AcDbPolyline
 90
2
 70
0
 10
1.0
 20
1.0
 10
1.0
 20
7.0
  0
LWPOLYLINE
  5
128
330
17
100
AcDbEntity
  8
TRUSS_CHORD
100
AcDbPolyline
 90
2
 70
0
 10
1.0
 20
7.0
 10
1.0
 20
18.75
  0
LWPOLYLINE
  5
129
330
17
100
AcDbEntity
  8
TRUSS_CHORD
100
AcDbPolyline
 90
2
 70
0
 10
1.0
 20
18.75
 10
1.0
 20
30.25
  0
LWPOLYLINE
  5
12A
330
17
100
AcDbEntity
  8
TRUSS_CHORD
100
AcDbPolyline
 90
2
 70
0
 10
1.0
 20
30.25
 10
1.0
 20
36.0
  0
LWPOLYLINE
  5
12B
330
17
100
AcDbEntity
  8
TRUSS_CHORD
100
AcDbPolyline
 90
2
 70
0
 10
1.0
 20
36.0
 10
1.0
 20
40.0
  0
LWPOLYLINE
  5
12C
330
17
100
AcDbEntity
  8
TRUSS_CHORD
100
AcDbPolyline
 90
2
 70
0
 10
1.0
 20
40.0
 10
1.0
 20
43.99999999999999
  0
LWPOLYLINE
  5
12D
330
17
100
AcDbEntity
  8
TRUSS_CHORD
100
AcDbPolyline
 90
2
 70
0
 10
1.0
 20
43.99999999999999
 10
1.0
 20
49.74999999999999
  0
LWPOLYLINE
  5
12E
330
17
100
AcDbEntity
  8
TRUSS_CHORD
100
AcDbPolyline
 90
2
 70
0
 10
1.0
 20
49.74999999999999
 10
1.0
 20
61.24999999999999
  0
LWPOLYLINE
  5
12F
330
17
100
AcDbEntity
  8
TRUSS_CHORD
100
AcDbPolyline
 90
2
 70
0
 10
1.0
 20
61.24999999999999
 10
1.0
 20
73.0
  0
LWPOLYLINE
  5
130
330
17
100
AcDbEntity
  8
TRUSS_CHORD
100
AcDbPolyline
 90
2
 70
0
 10
1.0
 20
73.0
 10
1.0
 20
79.0
  0
LWPOLYLINE
  5
131
330
17
100
AcDbEntity
  8
TRUSS_CHORD
100
AcDbPolyline
 90
2
 70
0
 10
1.0
 20
79.0
 10
1.0
 20
85.0
  0
LWPOLYLINE
  5
132
330
17
100
AcDbEntity
  8
TRUSS_CHORD
100
AcDbPolyline
 90
2
 70
0
 10
-5.0
 20
79.0
 10
0.9999999999999991
 20
79.0
  0
LWPOLYLINE
  5
133
330
17
100
AcDbEntity
  8
TRUSS_CHORD
100
AcDbPolyline
 90
2
 70
0
 10
0.9999999999999991
 20
79.0
 10
6.999999999999998
 20
79.0
  0
LWPOLYLINE
  5
134
330
17
100
AcDbEntity
  8
TRUSS_CHORD
100
AcDbPolyline
 90
2
 70
0
 10
6.999999999999998
 20
79.0
 10
18.333333
 20
79.0
  0
LWPOLYLINE
  5
135
330
17
100
AcDbEntity
  8
TRUSS_CHORD
100
AcDbPolyline
 90
2
 70
0
 10
18.333333
 20
79.0
 10
29.0
 20
79.0
  0
LWPOLYLINE
  5
136
330
17
100
AcDbEntity
  8
TRUSS_CHORD
100
AcDbPolyline
 90
2
 70
0
 10
29.0
 20
79.0
 10
34.333333
 20
79.0
  0
LWPOLYLINE
  5
137
330
17
100
AcDbEntity
  8
TRUSS_CHORD
100
AcDbPolyline
 90
2
 70
0
 10
34.333333
 20
79.0
 10
38.333333
 20
79.0
  0
LWPOLYLINE
  5
138
330
17
100
AcDbEntity
  8
TRUSS_CHORD
100
AcDbPolyline
 90
2
 70
0
 10
38.333333
 20
79.0
 10
42.333333
 20
79.0
  0
LWPOLYLINE
  5
139
330
17
100
AcDbEntity
  8
TRUSS_CHORD
100
AcDbPolyline
 90
2
 70
0
 10
42.333333
 20
79.0
 10
48.222222
 20
79.0
  0
LWPOLYLINE
  5
13A
330
17
100
AcDbEntity
  8
TRUSS_CHORD
100
AcDbPolyline
 90
2
 70
0
 10
48.222222
 20
79.0
 10
60.0
 20
79.0
  0
LWPOLYLINE
  5
13B
330
17
100
AcDbEntity
  8
TRUSS_CHORD
100
AcDbPolyline
 90
2
 70
0
 10
60.0
 20
79.0
 10
71.77777800000001
 20
79.0
  0
LWPOLYLINE
  5
13C
330
17
100
AcDbEntity
  8
TRUSS_CHORD
100
AcDbPolyline
 90
2
 70
0
 10
71.77777800000001
 20
79.0
 10
77.666667
 20
79.0
  0
LWPOLYLINE
  5
13D
330
17
100
AcDbEntity
  8
TRUSS_CHORD
100
AcDbPolyline
 90
2
 70
0
 10
77.666667
 20
79.0
 10
81.666667
 20
79.0
  0
LWPOLYLINE
  5
13E
330
17
100
AcDbEntity
  8
TRUSS_CHORD
100
AcDbPolyline
 90
2
 70
0
 10
81.666667
 20
79.0
 10
85.666667
 20
79.0
  0
LWPOLYLINE
  5
13F
330
17
100
AcDbEntity
  8
TRUSS_CHORD
100
AcDbPolyline
 90
2
 70
0
 10
85.666667
 20
79.0
 10
91.0
 20
79.0
  0
LWPOLYLINE
  5
140
330
17
100
AcDbEntity
  8
TRUSS_CHORD
100
AcDbPolyline
 90
2
 70
0
 10
91.0
 20
79.0
 10
101.666667
 20
79.0
  0
LWPOLYLINE
  5
141
330
17
100
AcDbEntity
  8
TRUSS_CHORD
100
AcDbPolyline
 90
2
 70
0
 10
101.666667
 20
79.0
 10
113.0
 20
79.0
  0
LWPOLYLINE
  5
142
330
17
100
AcDbEntity
  8
TRUSS_CHORD
100
AcDbPolyline
 90
2
 70
0
 10
113.0
 20
79.0
 10
119.0
 20
79.0
  0
LWPOLYLINE
  5
143
330
17
100
AcDbEntity
  8
TRUSS_CHORD
100
AcDbPolyline
 90
2
 70
0
 10
119.0
 20
79.0
 10
125.0
 20
79.0
  0
LWPOLYLINE
  5
144
330
17
100
AcDbEntity
  8
TRUSS_CHORD
100
AcDbPolyline
 90
2
 70
0
 10
119.0
 20
85.0
 10
119.0
 20
79.0
  0
LWPOLYLINE
  5
145
330
17
100
AcDbEntity
  8
TRUSS_CHORD
100
AcDbPolyline
 90
2
 70
0
 10
119.0
 20
79.0
 10
119.0
 20
73.0
  0
LWPOLYLINE
  5
146
330
17
100
AcDbEntity
  8
TRUSS_CHORD
100
AcDbPolyline
 90
2
 70
0
 10
119.0
 20
73.0
 10
119.0
 20
61.25
  0
LWPOLYLINE
  5
147
330
17
100
AcDbEntity
  8
TRUSS_CHORD
100
AcDbPolyline
 90
2
 70
0
 10
119.0
 20
61.25
 10
119.0
 20
49.75
  0
LWPOLYLINE
  5
148
330
17
100
AcDbEntity
  8
TRUSS_CHORD
100
AcDbPolyline
 90
2
 70
0
 10
119.0
 20
49.75
 10
119.0
 20
44.0
  0
LWPOLYLINE
  5
149
330
17
100
AcDbEntity
  8
TRUSS_CHORD
100
AcDbPolyline
 90
2
 70
0
 10
119.0
 20
44.0
 10
119.0
 20
40.0
  0
LWPOLYLINE
  5
14A
330
17
100
AcDbEntity
  8
TRUSS_CHORD
100
AcDbPolyline
 90
2
 70
0
 10
119.0
 20
40.0
 10
119.0
 20
36.00000000000001
  0
LWPOLYLINE
  5
14B
330
17
100
AcDbEntity
  8
TRUSS_CHORD
100
AcDbPolyline
 90
2
 70
0
 10
119.0
 20
36.00000000000001
 10
119.0
 20
30.250000000000007
  0
LWPOLYLINE
  5
14C
330
17
100
AcDbEntity
  8
TRUSS_CHORD
100
AcDbPolyline
 90
2
 70
0
 10
119.0
 20
30.250000000000007
 10
119.0
 20
18.750000000000007
  0
LWPOLYLINE
  5
14D
330
17
100
AcDbEntity
  8
TRUSS_CHORD
100
AcDbPolyline
 90
2
 70
0
 10
119.0
 20
18.750000000000007
 10
119.0
 20
7.000000000000007
  0
LWPOLYLINE
  5
14E
330
17
100
AcDbEntity
  8
TRUSS_CHORD
100
AcDbPolyline
 90
2
 70
0
 10
119.0
 20
7.000000000000007
 10
119.0
 20
1.000000000000007
  0
LWPOLYLINE
  5
14F
330
17
100
AcDbEntity
  8
TRUSS_CHORD
100
AcDbPolyline
 90
2
 70
0
 10
119.0
 20
1.000000000000007
 10
119.0
 20
-4.999999999999993
  0
LWPOLYLINE
  5
150
330
17
100
AcDbEntity
  8
TRUSS_CHORD
100
AcDbPolyline
 90
2
 70
0
 10
125.0
 20
1.0
 10
119.0
 20
1.0
  0
LWPOLYLINE
  5
151
330
17
100
AcDbEntity
  8
TRUSS_CHORD
100
AcDbPolyline
 90
2
 70
0
 10
119.0
 20
1.0
 10
113.0
 20
1.0
  0
LWPOLYLINE
  5
152
330
17
100
AcDbEntity
  8
TRUSS_CHORD
100
AcDbPolyline
 90
2
 70
0
 10
113.0
 20
1.0
 10
101.666667
 20
1.0
  0
LWPOLYLINE
  5
153
330
17
100
AcDbEntity
  8
TRUSS_CHORD
100
AcDbPolyline
 90
2
 70
0
 10
101.666667
 20
1.0
 10
91.0
 20
1.0
  0
LWPOLYLINE
  5
154
330
17
100
AcDbEntity
  8
TRUSS_CHORD
100
AcDbPolyline
 90
2
 70
0
 10
91.0
 20
1.0
 10
85.66666699999999
 20
1.0
  0
LWPOLYLINE
  5
155
330
17
100
AcDbEntity
  8
TRUSS_CHORD
100
AcDbPolyline
 90
2
 70
0
 10
85.66666699999999
 20
1.0
 10
81.66666699999999
 20
1.0
  0
LWPOLYLINE
  5
156
330
17
100
AcDbEntity
  8
TRUSS_CHORD
100
AcDbPolyline
 90
2
 70
0
 10
81.66666699999999
 20
1.0
 10
77.66666699999999
 20
1.0
  0
LWPOLYLINE
  5
157
330
17
100
AcDbEntity
  8
TRUSS_CHORD
100
AcDbPolyline
 90
2
 70
0
 10
77.66666699999999
 20
1.0
 10
71.77777799999998
 20
1.0
  0
LWPOLYLINE
  5
158
330
17
100
AcDbEntity
  8
TRUSS_CHORD
100
AcDbPolyline
 90
2
 70
0
 10
71.77777799999998
 20
1.0
 10
59.999999999999986
 20
1.0
  0
LWPOLYLINE
  5
159
330
17
100
AcDbEntity
  8
TRUSS_CHORD
100
AcDbPolyline
 90
2
 70
0
 10
59.999999999999986
 20
1.0
 10
48.22222199999999
 20
1.0
  0
LWPOLYLINE
  5
15A
330
17
100
AcDbEntity
  8
TRUSS_CHORD
100
AcDbPolyline
 90
2
 70
0
 10
48.22222199999999
 20
1.0
 10
42.333332999999996
 20
1.0
  0
LWPOLYLINE
  5
15B
330
17
100
AcDbEntity
  8
TRUSS_CHORD
100
AcDbPolyline
 90
2
 70
0
 10
42.333332999999996
 20
1.0
 10
38.333332999999996
 20
1.0
  0
LWPOLYLINE
  5
15C
330
17
100
AcDbEntity
  8
TRUSS_CHORD
100
AcDbPolyline
 90
2
 70
0
 10
38.333332999999996
 20
1.0
 10
34.333332999999996
 20
1.0
  0
LWPOLYLINE
  5
15D
330
17
100
AcDbEntity
  8
TRUSS_CHORD
100
AcDbPolyline
 90
2
 70
0
 10
34.333332999999996
 20
1.0
 10
28.999999999999996
 20
1.0
  0
LWPOLYLINE
  5
15E
330
17
100
AcDbEntity
  8
TRUSS_CHORD
100
AcDbPolyline
 90
2
 70
0
 10
28.999999999999996
 20
1.0
 10
18.333332999999996
 20
1.0
  0
LWPOLYLINE
  5
15F
330
17
100
AcDbEntity
  8
TRUSS_CHORD
100
AcDbPolyline
 90
2
 70
0
 10
18.333332999999996
 20
1.0
 10
6.9999999999999964
 20
1.0
  0
LWPOLYLINE
  5
160
330
17
100
AcDbEntity
  8
TRUSS_CHORD
100
AcDbPolyline
 90
2
 70
0
 10
6.9999999999999964
 20
1.0
 10
0.9999999999999929
 20
1.0
  0
LWPOLYLINE
  5
161
330
17
100
AcDbEntity
  8
TRUSS_CHORD
100
AcDbPolyline
 90
2
 70
0
 10
0.9999999999999929
 20
1.0
 10
-5.0
 20
1.0
  0
LWPOLYLINE
  5
162
330
17
100
AcDbEntity
  8
STRUT_OUTLINE
100
AcDbPolyline
 90
5
 70
1
 10
7.4
 20
-5.0
 10
6.6
 20
-5.0
 10
6.6
 20
1.0
 10
7.4
 20
1.0
 10
7.4
 20
-5.0
  0
LWPOLYLINE
  5
163
330
17
100
AcDbEntity
  8
STRUT_OUTLINE
100
AcDbPolyline
 90
5
 70
1
 10
-5.0
 20
6.6
 10
-5.0
 20
7.4
 10
1.0
 20
7.4
 10
1.0
 20
6.6
 10
-5.0
 20
6.6
  0
LWPOLYLINE
  5
164
330
17
100
AcDbEntity
  8
STRUT_OUTLINE
100
AcDbPolyline
 90
5
 70
1
 10
-5.0
 20
72.6
 10
-5.0
 20
73.4
 10
1.0
 20
73.4
 10
1.0
 20
72.6
 10
-5.0
 20
72.6
  0
LWPOLYLINE
  5
165
330
17
100
AcDbEntity
  8
STRUT_OUTLINE
100
AcDbPolyline
 90
5
 70
1
 10
6.6
 20
85.0
 10
7.4
 20
85.0
 10
7.4
 20
79.0
 10
6.6
 20
79.0
 10
6.6
 20
85.0
  0
LWPOLYLINE
  5
166
330
17
100
AcDbEntity
  8
STRUT_OUTLINE
100
AcDbPolyline
 90
5
 70
1
 10
112.6
 20
85.0
 10
113.4
 20
85.0
 10
113.4
 20
79.0
 10
112.6
 20
79.0
 10
112.6
 20
85.0
  0
LWPOLYLINE
  5
167
330
17
100
AcDbEntity
  8
STRUT_OUTLINE
100
AcDbPolyline
 90
5
 70
1
 10
125.0
 20
73.4
 10
125.0
 20
72.6
 10
119.0
 20
72.6
 10
119.0
 20
73.4
 10
125.0
 20
73.4
  0
LWPOLYLINE
  5
168
330
17
100
AcDbEntity
  8
STRUT_OUTLINE
100
AcDbPolyline
 90
5
 70
1
 10
125.0
 20
7.4
 10
125.0
 20
6.6
 10
119.0
 20
6.6
 10
119.0
 20
7.4
 10
125.0
 20
7.4
  0
LWPOLYLINE
  5
169
330
17
100
AcDbEntity
  8
STRUT_OUTLINE
100
AcDbPolyline
 90
5
 70
1
 10
113.4
 20
-5.0
 10
112.6
 20
-5.0
 10
112.6
 20
1.0
 10
113.4
 20
1.0
 10
113.4
 20
-5.0
  0
LWPOLYLINE
  5
16A
330
17
100
AcDbEntity
  8
STRUT_OUTLINE
100
AcDbPolyline
 90
5
 70
1
 10
42.333333
 20
6.4
 10
42.333333
 20
6.1
 10
34.333333
 20
6.1
 10
34.333333
 20
6.4
 10
42.333333
 20
6.4
  0
LWPOLYLINE
  5
16B
330
17
100
AcDbEntity
  8
STRUT_OUTLINE
100
AcDbPolyline
 90
5
 70
1
 10
42.333333
 20
17.65
 10
42.333333
 20
17.35
 10
34.333333
 20
17.35
 10
34.333333
 20
17.65
 10
42.333333
 20
17.65
  0
LWPOLYLINE
  5
16C
330
17
100
AcDbEntity
  8
STRUT_OUTLINE
100
AcDbPolyline
 90
5
 70
1
 10
42.333333
 20
28.9
 10
42.333333
 20
28.6
 10
34.333333
 20
28.6
 10
34.333333
 20
28.9
 10
42.333333
 20
28.9
  0
LWPOLYLINE
  5
16D
330
17
100
AcDbEntity
  8
STRUT_OUTLINE
100
AcDbPolyline
 90
5
 70
1
 10
42.333333
 20
51.4
 10
42.333333
 20
51.1
 10
34.333333
 20
51.1
 10
34.333333
 20
51.4
 10
42.333333
 20
51.4
  0
LWPOLYLINE
  5
16E
330
17
100
AcDbEntity
  8
STRUT_OUTLINE
100
AcDbPolyline
 90
5
 70
1
 10
42.333333
 20
62.65
 10
42.333333
 20
62.35
 10
34.333333
 20
62.35
 10
34.333333
 20
62.65
 10
42.333333
 20
62.65
  0
LWPOLYLINE
  5
16F
330
17
100
AcDbEntity
  8
STRUT_OUTLINE
100
AcDbPolyline
 90
5
 70
1
 10
42.333333
 20
73.9
 10
42.333333
 20
73.6
 10
34.333333
 20
73.6
 10
34.333333
 20
73.9
 10
42.333333
 20
73.9
  0
LWPOLYLINE
  5
170
330
17
100
AcDbEntity
  8
STRUT_OUTLINE
100
AcDbPolyline
 90
5
 70
1
 10
85.666667
 20
6.4
 10
85.666667
 20
6.1
 10
77.666667
 20
6.1
 10
77.666667
 20
6.4
 10
85.666667
 20
6.4
  0
LWPOLYLINE
  5
171
330
17
100
AcDbEntity
  8
STRUT_OUTLINE
100
AcDbPolyline
 90
5
 70
1
 10
85.666667
 20
17.65
 10
85.666667
 20
17.35
 10
77.666667
 20
17.35
 10
77.666667
 20
17.65
 10
85.666667
 20
17.65
  0
LWPOLYLINE
  5
172
330
17
100
AcDbEntity
  8
STRUT_OUTLINE
100
AcDbPolyline
 90
5
 70
1
 10
85.666667
 20
28.9
 10
85.666667
 20
28.6
 10
77.666667
 20
28.6
 10
77.666667
 20
28.9
 10
85.666667
 20
28.9
  0
LWPOLYLINE
  5
173
330
17
100
AcDbEntity
  8
STRUT_OUTLINE
100
AcDbPolyline
 90
5
 70
1
 10
85.666667
 20
51.4
 10
85.666667
 20
51.1
 10
77.666667
 20
51.1
 10
77.666667
 20
51.4
 10
85.666667
 20
51.4
  0
LWPOLYLINE
  5
174
330
17
100
AcDbEntity
  8
STRUT_OUTLINE
100
AcDbPolyline
 90
5
 70
1
 10
85.666667
 20
62.65
 10
85.666667
 20
62.35
 10
77.666667
 20
62.35
 10
77.666667
 20
62.65
 10
85.666667
 20
62.65
  0
LWPOLYLINE
  5
175
330
17
100
AcDbEntity
  8
STRUT_OUTLINE
100
AcDbPolyline
 90
5
 70
1
 10
85.666667
 20
73.9
 10
85.666667
 20
73.6
 10
77.666667
 20
73.6
 10
77.666667
 20
73.9
 10
85.666667
 20
73.9
  0
LWPOLYLINE
  5
176
330
17
100
AcDbEntity
  8
STRUT_OUTLINE
100
AcDbPolyline
 90
5
 70
1
 10
4.683332999999999
 20
44.0
 10
4.983333
 20
44.0
 10
4.983333
 20
36.0
 10
4.683332999999999
 20
36.0
 10
4.683332999999999
 20
44.0
  0
LWPOLYLINE
  5
177
330
17
100
AcDbEntity
  8
STRUT_OUTLINE
100
AcDbPolyline
 90
5
 70
1
 10
14.516667
 20
44.0
 10
14.816667
 20
44.0
 10
14.816667
 20
36.0
 10
14.516667
 20
36.0
 10
14.516667
 20
44.0
  0
LWPOLYLINE
  5
178
330
17
100
AcDbEntity
  8
STRUT_OUTLINE
100
AcDbPolyline
 90
5
 70
1
 10
24.35
 20
44.0
 10
24.65
 20
44.0
 10
24.65
 20
36.0
 10
24.35
 20
36.0
 10
24.35
 20
44.0
  0
LWPOLYLINE
  5
179
330
17
100
AcDbEntity
  8
STRUT_OUTLINE
100
AcDbPolyline
 90
5
 70
1
 10
53.961111
 20
44.0
 10
54.261111
 20
44.0
 10
54.261111
 20
36.0
 10
53.961111
 20
36.0
 10
53.961111
 20
44.0
  0
LWPOLYLINE
  5
17A
330
17
100
AcDbEntity
  8
STRUT_OUTLINE
100
AcDbPolyline
 90
5
 70
1
 10
65.738889
 20
44.0
 10
66.03888900000001
 20
44.0
 10
66.03888900000001
 20
36.0
 10
65.738889
 20
36.0
 10
65.738889
 20
44.0
  0
LWPOLYLINE
  5
17B
330
17
100
AcDbEntity
  8
STRUT_OUTLINE
100
AcDbPolyline
 90
5
 70
1
 10
95.35
 20
44.0
 10
95.65
 20
44.0
 10
95.65
 20
36.0
 10
95.35
 20
36.0
 10
95.35
 20
44.0
  0
LWPOLYLINE
  5
17C
330
17
100
AcDbEntity
  8
STRUT_OUTLINE
100
AcDbPolyline
 90
5
 70
1
 10
105.18333399999999
 20
44.0
 10
105.483334
 20
44.0
 10
105.483334
 20
36.0
 10
105.18333399999999
 20
36.0
 10
105.18333399999999
 20
44.0
  0
LWPOLYLINE
  5
17D
330
17
100
AcDbEntity
  8
STRUT_OUTLINE
100
AcDbPolyline
 90
5
 70
1
 10
115.016667
 20
44.0
 10
115.31666700000001
 20
44.0
 10
115.31666700000001
 20
36.0
 10
115.016667
 20
36.0
 10
115.016667
 20
44.0
  0
LWPOLYLINE
  5
17E
330
17
100
AcDbEntity
  8
WALING_OUTLINE
100
AcDbPolyline
 90
5
 70
1
 10
-5.4
 20
1.0
 10
-4.6
 20
1.0
 10
-4.6
 20
-5.0
 10
-5.4
 20
-5.0
 10
-5.4
 20
1.0
  0
LWPOLYLINE
  5
17F
330
17
100
AcDbEntity
  8
WALING_OUTLINE
100
AcDbPolyline
 90
5
 70
1
 10
-5.4
 20
7.0
 10
-4.6
 20
7.0
 10
-4.6
 20
1.0
 10
-5.4
 20
1.0
 10
-5.4
 20
7.0
  0
LWPOLYLINE
  5
180
330
17
100
AcDbEntity
  8
WALING_OUTLINE
100
AcDbPolyline
 90
5
 70
1
 10
-5.4
 20
13.0
 10
-4.6
 20
13.0
 10
-4.6
 20
7.0
 10
-5.4
 20
7.0
 10
-5.4
 20
13.0
  0
LWPOLYLINE
  5
181
330
17
100
AcDbEntity
  8
WALING_OUTLINE
100
AcDbPolyline
 90
5
 70
1
 10
-5.4
 20
24.5
 10
-4.6
 20
24.5
 10
-4.6
 20
13.0
 10
-5.4
 20
13.0
 10
-5.4
 20
24.5
  0
LWPOLYLINE
  5
182
330
17
100
AcDbEntity
  8
WALING_OUTLINE
100
AcDbPolyline
 90
5
 70
1
 10
-5.4
 20
36.0
 10
-4.6
 20
36.0
 10
-4.6
 20
24.5
 10
-5.4
 20
24.5
 10
-5.4
 20
36.0
  0
LWPOLYLINE
  5
183
330
17
100
AcDbEntity
  8
WALING_OUTLINE
100
AcDbPolyline
 90
5
 70
1
 10
-5.4
 20
43.99999999999999
 10
-4.6
 20
43.99999999999999
 10
-4.6
 20
36.0
 10
-5.4
 20
36.0
 10
-5.4
 20
43.99999999999999
  0
LWPOLYLINE
  5
184
330
17
100
AcDbEntity
  8
WALING_OUTLINE
100
AcDbPolyline
 90
5
 70
1
 10
-5.4
 20
55.50000000000001
 10
-4.6
 20
55.50000000000001
 10
-4.6
 20
43.99999999999999
 10
-5.4
 20
43.99999999999999
 10
-5.4
 20
55.50000000000001
  0
LWPOLYLINE
  5
185
330
17
100
AcDbEntity
  8
WALING_OUTLINE
100
AcDbPolyline
 90
5
 70
1
 10
-5.4
 20
67.0
 10
-4.6
 20
67.0
 10
-4.6
 20
55.50000000000001
 10
-5.4
 20
55.50000000000001
 10
-5.4
 20
67.0
  0
LWPOLYLINE
  5
186
330
17
100
AcDbEntity
  8
WALING_OUTLINE
100
AcDbPolyline
 90
5
 70
1
 10
-5.4
 20
73.0
 10
-4.6
 20
73.0
 10
-4.6
 20
67.0
 10
-5.4
 20
67.0
 10
-5.4
 20
73.0
  0
LWPOLYLINE
  5
187
330
17
100
AcDbEntity
  8
WALING_OUTLINE
100
AcDbPolyline
 90
5
 70
1
 10
-5.4
 20
79.0
 10
-4.6
 20
79.0
 10
-4.6
 20
73.0
 10
-5.4
 20
73.0
 10
-5.4
 20
79.0
  0
LWPOLYLINE
  5
188
330
17
100
AcDbEntity
  8
WALING_OUTLINE
100
AcDbPolyline
 90
7
 70
1
 10
-5.4
 20
85.4
 10
1.0
 20
85.4
 10
1.0
 20
84.6
 10
-4.6
 20
84.6
 10
-4.6
 20
79.0
 10
-5.4
 20
79.0
 10
-5.4
 20
85.4
  0
LWPOLYLINE
  5
189
330
17
100
AcDbEntity
  8
WALING_OUTLINE
100
AcDbPolyline
 90
5
 70
1
 10
7.0
 20
85.4
 10
7.0
 20
84.6
 10
1.0
 20
84.6
 10
1.0
 20
85.4
 10
7.0
 20
85.4
  0
LWPOLYLINE
  5
18A
330
17
100
AcDbEntity
  8
WALING_OUTLINE
100
AcDbPolyline
 90
5
 70
1
 10
13.0
 20
85.4
 10
13.0
 20
84.6
 10
7.0
 20
84.6
 10
7.0
 20
85.4
 10
13.0
 20
85.4
  0
LWPOLYLINE
  5
18B
330
17
100
AcDbEntity
  8
WALING_OUTLINE
100
AcDbPolyline
 90
5
 70
1
 10
23.666667000000004
 20
85.4
 10
23.666667000000004
 20
84.6
 10
13.0
 20
84.6
 10
13.0
 20
85.4
 10
23.666667000000004
 20
85.4
  0
LWPOLYLINE
  5
18C
330
17
100
AcDbEntity
  8
WALING_OUTLINE
100
AcDbPolyline
 90
5
 70
1
 10
34.33333300000001
 20
85.4
 10
34.33333300000001
 20
84.6
 10
23.666667000000004
 20
84.6
 10
23.666667000000004
 20
85.4
 10
34.33333300000001
 20
85.4
  0
LWPOLYLINE
  5
18D
330
17
100
AcDbEntity
  8
WALING_OUTLINE
100
AcDbPolyline
 90
5
 70
1
 10
42.33333300000001
 20
85.4
 10
42.33333300000001
 20
84.6
 10
34.33333300000001
 20
84.6
 10
34.33333300000001
 20
85.4
 10
42.33333300000001
 20
85.4
  0
LWPOLYLINE
  5
18E
330
17
100
AcDbEntity
  8
WALING_OUTLINE
100
AcDbPolyline
 90
5
 70
1
 10
54.111110999999994
 20
85.4
 10
54.111110999999994
 20
84.6
 10
42.33333300000001
 20
84.6
 10
42.33333300000001
 20
85.4
 10
54.111110999999994
 20
85.4
  0
LWPOLYLINE
  5
18F
330
17
100
AcDbEntity
  8
WALING_OUTLINE
100
AcDbPolyline
 90
5
 70
1
 10
65.888889
 20
85.4
 10
65.888889
 20
84.6
 10
54.111110999999994
 20
84.6
 10
54.111110999999994
 20
85.4
 10
65.888889
 20
85.4
  0
LWPOLYLINE
  5
190
330
17
100
AcDbEntity
  8
WALING_OUTLINE
100
AcDbPolyline
 90
5
 70
1
 10
77.66666699999999
 20
85.4
 10
77.66666699999999
 20
84.6
 10
65.888889
 20
84.6
 10
65.888889
 20
85.4
 10
77.66666699999999
 20
85.4
  0
LWPOLYLINE
  5
191
330
17
100
AcDbEntity
  8
WALING_OUTLINE
100
AcDbPolyline
 90
5
 70
1
 10
85.66666699999999
 20
85.4
 10
85.66666699999999
 20
84.6
 10
77.66666699999999
 20
84.6
 10
77.66666699999999
 20
85.4
 10
85.66666699999999
 20
85.4
  0
LWPOLYLINE
  5
192
330
17
100
AcDbEntity
  8
WALING_OUTLINE
100
AcDbPolyline
 90
5
 70
1
 10
96.33333400000001
 20
85.4
 10
96.33333400000001
 20
84.6
 10
85.66666699999999
 20
84.6
 10
85.66666699999999
 20
85.4
 10
96.33333400000001
 20
85.4
  0
LWPOLYLINE
  5
193
330
17
100
AcDbEntity
  8
WALING_OUTLINE
100
AcDbPolyline
 90
5
 70
1
 10
107.0
 20
85.4
 10
107.0
 20
84.6
 10
96.33333400000001
 20
84.6
 10
96.33333400000001
 20
85.4
 10
107.0
 20
85.4
  0
LWPOLYLINE
  5
194
330
17
100
AcDbEntity
  8
WALING_OUTLINE
100
AcDbPolyline
 90
5
 70
1
 10
113.0
 20
85.4
 10
113.0
 20
84.6
 10
107.0
 20
84.6
 10
107.0
 20
85.4
 10
113.0
 20
85.4
  0
LWPOLYLINE
  5
195
330
17
100
AcDbEntity
  8
WALING_OUTLINE
100
AcDbPolyline
 90
5
 70
1
 10
119.0
 20
85.4
 10
119.0
 20
84.6
 10
113.0
 20
84.6
 10
113.0
 20
85.4
 10
119.0
 20
85.4
  0
LWPOLYLINE
  5
196
330
17
100
AcDbEntity
  8
WALING_OUTLINE
100
AcDbPolyline
 90
7
 70
1
 10
125.4
 20
85.4
 10
125.4
 20
79.0
 10
124.6
 20
79.0
 10
124.6
 20
84.6
 10
119.0
 20
84.6
 10
119.0
 20
85.4
 10
125.4
 20
85.4
  0
LWPOLYLINE
  5
197
330
17
100
AcDbEntity
  8
WALING_OUTLINE
100
AcDbPolyline
 90
5
 70
1
 10
125.4
 20
73.0
 10
124.6
 20
73.0
 10
124.6
 20
79.0
 10
125.4
 20
79.0
 10
125.4
 20
73.0
  0
LWPOLYLINE
  5
198
330
17
100
AcDbEntity
  8
WALING_OUTLINE
100
AcDbPolyline
 90
5
 70
1
 10
125.4
 20
67.0
 10
124.6
 20
67.0
 10
124.6
 20
73.0
 10
125.4
 20
73.0
 10
125.4
 20
67.0
  0
LWPOLYLINE
  5
199
330
17
100
AcDbEntity
  8
WALING_OUTLINE
100
AcDbPolyline
 90
5
 70
1
 10
125.4
 20
55.5
 10
124.6
 20
55.5
 10
124.6
 20
67.0
 10
125.4
 20
67.0
 10
125.4
 20
55.5
  0
LWPOLYLINE
  5
19A
330
17
100
AcDbEntity
  8
WALING_OUTLINE
100
AcDbPolyline
 90
5
 70
1
 10
125.4
 20
44.0
 10
124.6
 20
44.0
 10
124.6
 20
55.5
 10
125.4
 20
55.5
 10
125.4
 20
44.0
  0
LWPOLYLINE
  5
19B
330
17
100
AcDbEntity
  8
WALING_OUTLINE
100
AcDbPolyline
 90
5
 70
1
 10
125.4
 20
36.00000000000001
 10
124.6
 20
36.00000000000001
 10
124.6
 20
44.0
 10
125.4
 20
44.0
 10
125.4
 20
36.00000000000001
  0
LWPOLYLINE
  5
19C
330
17
100
AcDbEntity
  8
WALING_OUTLINE
100
AcDbPolyline
 90
5
 70
1
 10
125.4
 20
24.499999999999993
 10
124.6
 20
24.499999999999993
 10
124.6
 20
36.00000000000001
 10
125.4
 20
36.00000000000001
 10
125.4
 20
24.499999999999993
  0
LWPOLYLINE
  5
19D
330
17
100
AcDbEntity
  8
WALING_OUTLINE
100
AcDbPolyline
 90
5
 70
1
 10
125.4
 20
13.0
 10
124.6
 20
13.0
 10
124.6
 20
24.499999999999993
 10
125.4
 20
24.499999999999993
 10
125.4
 20
13.0
  0
LWPOLYLINE
  5
19E
330
17
100
AcDbEntity
  8
WALING_OUTLINE
100
AcDbPolyline
 90
5
 70
1
 10
125.4
 20
7.0
 10
124.6
 20
7.0
 10
124.6
 20
13.0
 10
125.4
 20
13.0
 10
125.4
 20
7.0
  0
LWPOLYLINE
  5
19F
330
17
100
AcDbEntity
  8
WALING_OUTLINE
100
AcDbPolyline
 90
5
 70
1
 10
125.4
 20
1.0
 10
124.6
 20
1.0
 10
124.6
 20
7.0
 10
125.4
 20
7.0
 10
125.4
 20
1.0
  0
LWPOLYLINE
  5
1A0
330
17
100
AcDbEntity
  8
WALING_OUTLINE
100
AcDbPolyline
 90
7
 70
1
 10
125.4
 20
-5.4
 10
119.0
 20
-5.4
 10
119.0
 20
-4.6
 10
124.6
 20
-4.6
 10
124.6
 20
1.0
 10
125.4
 20
1.0
 10
125.4
 20
-5.4
  0
LWPOLYLINE
  5
1A1
330
17
100
AcDbEntity
  8
WALING_OUTLINE
100
AcDbPolyline
 90
5
 70
1
 10
113.0
 20
-5.4
 10
113.0
 20
-4.6
 10
119.0
 20
-4.6
 10
119.0
 20
-5.4
 10
113.0
 20
-5.4
  0
LWPOLYLINE
  5
1A2
330
17
100
AcDbEntity
  8
WALING_OUTLINE
100
AcDbPolyline
 90
5
 70
1
 10
107.0
 20
-5.4
 10
107.0
 20
-4.6
 10
113.0
 20
-4.6
 10
113.0
 20
-5.4
 10
107.0
 20
-5.4
  0
LWPOLYLINE
  5
1A3
330
17
100
AcDbEntity
  8
WALING_OUTLINE
100
AcDbPolyline
 90
5
 70
1
 10
96.33333399999998
 20
-5.4
 10
96.33333399999998
 20
-4.6
 10
107.0
 20
-4.6
 10
107.0
 20
-5.4
 10
96.33333399999998
 20
-5.4
  0
LWPOLYLINE
  5
1A4
330
17
100
AcDbEntity
  8
WALING_OUTLINE
100
AcDbPolyline
 90
5
 70
1
 10
85.66666700000002
 20
-5.4
 10
85.66666700000002
 20
-4.6
 10
96.33333399999998
 20
-4.6
 10
96.33333399999998
 20
-5.4
 10
85.66666700000002
 20
-5.4
  0
LWPOLYLINE
  5
1A5
330
17
100
AcDbEntity
  8
WALING_OUTLINE
100
AcDbPolyline
 90
5
 70
1
 10
77.66666700000002
 20
-5.4
 10
77.66666700000002
 20
-4.6
 10
85.66666700000002
 20
-4.6
 10
85.66666700000002
 20
-5.4
 10
77.66666700000002
 20
-5.4
  0
LWPOLYLINE
  5
1A6
330
17
100
AcDbEntity
  8
WALING_OUTLINE
100
AcDbPolyline
 90
5
 70
1
 10
65.888889
 20
-5.4
 10
65.888889
 20
-4.6
 10
77.66666700000002
 20
-4.6
 10
77.66666700000002
 20
-5.4
 10
65.888889
 20
-5.4
  0
LWPOLYLINE
  5
1A7
330
17
100
AcDbEntity
  8
WALING_OUTLINE
100
AcDbPolyline
 90
5
 70
1
 10
54.111110999999994
 20
-5.4
 10
54.111110999999994
 20
-4.6
 10
65.888889
 20
-4.6
 10
65.888889
 20
-5.4
 10
54.111110999999994
 20
-5.4
  0
LWPOLYLINE
  5
1A8
330
17
100
AcDbEntity
  8
WALING_OUTLINE
100
AcDbPolyline
 90
5
 70
1
 10
42.33333299999998
 20
-5.4
 10
42.33333299999998
 20
-4.6
 10
54.111110999999994
 20
-4.6
 10
54.111110999999994
 20
-5.4
 10
42.33333299999998
 20
-5.4
  0
LWPOLYLINE
  5
1A9
330
17
100
AcDbEntity
  8
WALING_OUTLINE
100
AcDbPolyline
 90
5
 70
1
 10
34.33333299999998
 20
-5.4
 10
34.33333299999998
 20
-4.6
 10
42.33333299999998
 20
-4.6
 10
42.33333299999998
 20
-5.4
 10
34.33333299999998
 20
-5.4
  0
LWPOLYLINE
  5
1AA
330
17
100
AcDbEntity
  8
WALING_OUTLINE
100
AcDbPolyline
 90
5
 70
1
 10
23.666667000000018
 20
-5.4
 10
23.666667000000018
 20
-4.6
 10
34.33333299999998
 20
-4.6
 10
34.33333299999998
 20
-5.4
 10
23.666667000000018
 20
-5.4
  0
LWPOLYLINE
  5
1AB
330
17
100
AcDbEntity
  8
WALING_OUTLINE
100
AcDbPolyline
 90
5
 70
1
 10
13.0
 20
-5.4
 10
13.0
 20
-4.6
 10
23.666667000000018
 20
-4.6
 10
23.666667000000018
 20
-5.4
 10
13.0
 20
-5.4
  0
LWPOLYLINE
  5
1AC
330
17
100
AcDbEntity
  8
WALING_OUTLINE
100
AcDbPolyline
 90
5
 70
1
 10
7.0
 20
-5.4
 10
7.0
 20
-4.6
 10
13.0
 20
-4.6
 10
13.0
 20
-5.4
 10
7.0
 20
-5.4
  0
LWPOLYLINE
  5
1AD
330
17
100
AcDbEntity
  8
WALING_OUTLINE
100
AcDbPolyline
 90
5
 70
1
 10
1.0
 20
-5.4
 10
1.0
 20
-4.6
 10
7.0
 20
-4.6
 10
7.0
 20
-5.4
 10
1.0
 20
-5.4
  0
LWPOLYLINE
  5
1AE
330
17
100
AcDbEntity
  8
WALING_OUTLINE
100
AcDbPolyline
 90
5
 70
1
 10
-5.0
 20
-5.4
 10
-5.0
 20
-4.6
 10
1.0
 20
-4.6
 10
1.0
 20
-5.4
 10
-5.0
 20
-5.4
  0
LWPOLYLINE
  5
1AF
330
17
100
AcDbEntity
  8
STRUT_OUTLINE
100
AcDbPolyline
 90
5
 70
1
 10
33.933333000000005
 20
1.0
 10
34.733333
 20
1.0
 10
34.733333
 20
-5.0
 10
33.933333000000005
 20
-5.0
 10
33.933333000000005
 20
1.0
  0
LWPOLYLINE
  5
1B0
330
17
100
AcDbEntity
  8
STRUT_OUTLINE
100
AcDbPolyline
 90
5
 70
1
 10
33.933333000000005
 20
6.25
 10
34.733333
 20
6.25
 10
34.733333
 20
1.0
 10
33.933333000000005
 20
1.0
 10
33.933333000000005
 20
6.25
  0
LWPOLYLINE
  5
1B1
330
17
100
AcDbEntity
  8
STRUT_OUTLINE
100
AcDbPolyline
 90
5
 70
1
 10
33.933333000000005
 20
17.5
 10
34.733333
 20
17.5
 10
34.733333
 20
6.25
 10
33.933333000000005
 20
6.25
 10
33.933333000000005
 20
17.5
  0
LWPOLYLINE
  5
1B2
330
17
100
AcDbEntity
  8
STRUT_OUTLINE
100
AcDbPolyline
 90
5
 70
1
 10
33.933333000000005
 20
28.75
 10
34.733333
 20
28.75
 10
34.733333
 20
17.5
 10
33.933333000000005
 20
17.5
 10
33.933333000000005
 20
28.75
  0
LWPOLYLINE
  5
1B3
330
17
100
AcDbEntity
  8
STRUT_OUTLINE
100
AcDbPolyline
 90
5
 70
1
 10
33.933333000000005
 20
36.0
 10
34.733333
 20
36.0
 10
34.733333
 20
28.75
 10
33.933333000000005
 20
28.75
 10
33.933333000000005
 20
36.0
  0
LWPOLYLINE
  5
1B4
330
17
100
AcDbEntity
  8
STRUT_OUTLINE
100
AcDbPolyline
 90
5
 70
1
 10
33.933333000000005
 20
43.99999999999999
 10
34.733333
 20
43.99999999999999
 10
34.733333
 20
36.0
 10
33.933333000000005
 20
36.0
 10
33.933333000000005
 20
43.99999999999999
  0
LWPOLYLINE
  5
1B5
330
17
100
AcDbEntity
  8
STRUT_OUTLINE
100
AcDbPolyline
 90
5
 70
1
 10
33.933333000000005
 20
51.25
 10
34.733333
 20
51.25
 10
34.733333
 20
43.99999999999999
 10
33.933333000000005
 20
43.99999999999999
 10
33.933333000000005
 20
51.25
  0
LWPOLYLINE
  5
1B6
330
17
100
AcDbEntity
  8
STRUT_OUTLINE
100
AcDbPolyline
 90
5
 70
1
 10
33.933333000000005
 20
62.5
 10
34.733333
 20
62.5
 10
34.733333
 20
51.25
 10
33.933333000000005
 20
51.25
 10
33.933333000000005
 20
62.5
  0
LWPOLYLINE
  5
1B7
330
17
100
AcDbEntity
  8
STRUT_OUTLINE
100
AcDbPolyline
 90
5
 70
1
 10
33.933333000000005
 20
73.75
 10
34.733333
 20
73.75
 10
34.733333
 20
62.5
 10
33.933333000000005
 20
62.5
 10
33.933333000000005
 20
73.75
  0
LWPOLYLINE
  5
1B8
330
17
100
AcDbEntity
  8
STRUT_OUTLINE
100
AcDbPolyline
 90
5
 70
1
 10
33.933333000000005
 20
79.0
 10
34.733333
 20
79.0
 10
34.733333
 20
73.75
 10
33.933333000000005
 20
73.75
 10
33.933333000000005
 20
79.0
  0
LWPOLYLINE
  5
1B9
330
17
100
AcDbEntity
  8
STRUT_OUTLINE
100
AcDbPolyline
 90
5
 70
1
 10
33.933333000000005
 20
85.0
 10
34.733333
 20
85.0
 10
34.733333
 20
79.0
 10
33.933333000000005
 20
79.0
 10
33.933333000000005
 20
85.0
  0
LWPOLYLINE
  5
1BA
330
17
100
AcDbEntity
  8
STRUT_OUTLINE
100
AcDbPolyline
 90
5
 70
1
 10
41.933333000000005
 20
1.0
 10
42.733333
 20
1.0
 10
42.733333
 20
-5.0
 10
41.933333000000005
 20
-5.0
 10
41.933333000000005
 20
1.0
  0
LWPOLYLINE
  5
1BB
330
17
100
AcDbEntity
  8
STRUT_OUTLINE
100
AcDbPolyline
 90
5
 70
1
 10
41.933333000000005
 20
6.25
 10
42.733333
 20
6.25
 10
42.733333
 20
1.0
 10
41.933333000000005
 20
1.0
 10
41.933333000000005
 20
6.25
  0
LWPOLYLINE
  5
1BC
330
17
100
AcDbEntity
  8
STRUT_OUTLINE
100
AcDbPolyline
 90
5
 70
1
 10
41.933333000000005
 20
17.5
 10
42.733333
 20
17.5
 10
42.733333
 20
6.25
 10
41.933333000000005
 20
6.25
 10
41.933333000000005
 20
17.5
  0
LWPOLYLINE
  5
1BD
330
17
100
AcDbEntity
  8
STRUT_OUTLINE
100
AcDbPolyline
 90
5
 70
1
 10
41.933333000000005
 20
28.75
 10
42.733333
 20
28.75
 10
42.733333
 20
17.5
 10
41.933333000000005
 20
17.5
 10
41.933333000000005
 20
28.75
  0
LWPOLYLINE
  5
1BE
330
17
100
AcDbEntity
  8
STRUT_OUTLINE
100
AcDbPolyline
 90
5
 70
1
 10
41.933333000000005
 20
36.0
 10
42.733333
 20
36.0
 10
42.733333
 20
28.75
 10
41.933333000000005
 20
28.75
 10
41.933333000000005
 20
36.0
  0
LWPOLYLINE
  5
1BF
330
17
100
AcDbEntity
  8
STRUT_OUTLINE
100
AcDbPolyline
 90
5
 70
1
 10
41.933333000000005
 20
43.99999999999999
 10
42.733333
 20
43.99999999999999
 10
42.733333
 20
36.0
 10
41.933333000000005
 20
36.0
 10
41.933333000000005
 20
43.99999999999999
  0
LWPOLYLINE
  5
1C0
330
17
100
AcDbEntity
  8
STRUT_OUTLINE
100
AcDbPolyline
 90
5
 70
1
 10
41.933333000000005
 20
51.25
 10
42.733333
 20
51.25
 10
42.733333
 20
43.99999999999999
 10
41.933333000000005
 20
43.99999999999999
 10
41.933333000000005
 20
51.25
  0
LWPOLYLINE
  5
1C1
330
17
100
AcDbEntity
  8
STRUT_OUTLINE
100
AcDbPolyline
 90
5
 70
1
 10
41.933333000000005
 20
62.5
 10
42.733333
 20
62.5
 10
42.733333
 20
51.25
 10
41.933333000000005
 20
51.25
 10
41.933333000000005
 20
62.5
  0
LWPOLYLINE
  5
1C2
330
17
100
AcDbEntity
  8
STRUT_OUTLINE
100
AcDbPolyline
 90
5
 70
1
 10
41.933333000000005
 20
73.75
 10
42.733333
 20
73.75
 10
42.733333
 20
62.5
 10
41.933333000000005
 20
62.5
 10
41.933333000000005
 20
73.75
  0
LWPOLYLINE
  5
1C3
330
17
100
AcDbEntity
  8
STRUT_OUTLINE
100
AcDbPolyline
 90
5
 70
1
 10
41.933333000000005
 20
79.0
 10
42.733333
 20
79.0
 10
42.733333
 20
73.75
 10
41.933333000000005
 20
73.75
 10
41.933333000000005
 20
79.0
  0
LWPOLYLINE
  5
1C4
330
17
100
AcDbEntity
  8
STRUT_OUTLINE
100
AcDbPolyline
 90
5
 70
1
 10
41.933333000000005
 20
85.0
 10
42.733333
 20
85.0
 10
42.733333
 20
79.0
 10
41.933333000000005
 20
79.0
 10
41.933333000000005
 20
85.0
  0
LWPOLYLINE
  5
1C5
330
17
100
AcDbEntity
  8
STRUT_OUTLINE
100
AcDbPolyline
 90
5
 70
1
 10
77.266667
 20
1.0
 10
78.06666700000001
 20
1.0
 10
78.06666700000001
 20
-5.0
 10
77.266667
 20
-5.0
 10
77.266667
 20
1.0
  0
LWPOLYLINE
  5
1C6
330
17
100
AcDbEntity
  8
STRUT_OUTLINE
100
AcDbPolyline
 90
5
 70
1
 10
77.266667
 20
6.25
 10
78.06666700000001
 20
6.25
 10
78.06666700000001
 20
1.0
 10
77.266667
 20
1.0
 10
77.266667
 20
6.25
  0
LWPOLYLINE
  5
1C7
330
17
100
AcDbEntity
  8
STRUT_OUTLINE
100
AcDbPolyline
 90
5
 70
1
 10
77.266667
 20
17.5
 10
78.06666700000001
 20
17.5
 10
78.06666700000001
 20
6.25
 10
77.266667
 20
6.25
 10
77.266667
 20
17.5
  0
LWPOLYLINE
  5
1C8
330
17
100
AcDbEntity
  8
STRUT_OUTLINE
100
AcDbPolyline
 90
5
 70
1
 10
77.266667
 20
28.75
 10
78.06666700000001
 20
28.75
 10
78.06666700000001
 20
17.5
 10
77.266667
 20
17.5
 10
77.266667
 20
28.75
  0
LWPOLYLINE
  5
1C9
330
17
100
AcDbEntity
  8
STRUT_OUTLINE
100
AcDbPolyline
 90
5
 70
1
 10
77.266667
 20
36.0
 10
78.06666700000001
 20
36.0
 10
78.06666700000001
 20
28.75
 10
77.266667
 20
28.75
 10
77.266667
 20
36.0
  0
LWPOLYLINE
  5
1CA
330
17
100
AcDbEntity
  8
STRUT_OUTLINE
100
AcDbPolyline
 90
5
 70
1
 10
77.266667
 20
43.99999999999999
 10
78.06666700000001
 20
43.99999999999999
 10
78.06666700000001
 20
36.0
 10
77.266667
 20
36.0
 10
77.266667
 20
43.99999999999999
  0
LWPOLYLINE
  5
1CB
330
17
100
AcDbEntity
  8
STRUT_OUTLINE
100
AcDbPolyline
 90
5
 70
1
 10
77.266667
 20
51.25
 10
78.06666700000001
 20
51.25
 10
78.06666700000001
 20
43.99999999999999
 10
77.266667
 20
43.99999999999999
 10
77.266667
 20
51.25
  0
LWPOLYLINE
  5
1CC
330
17
100
AcDbEntity
  8
STRUT_OUTLINE
100
AcDbPolyline
 90
5
 70
1
 10
77.266667
 20
62.5
 10
78.06666700000001
 20
62.5
 10
78.06666700000001
 20
51.25
 10
77.266667
 20
51.25
 10
77.266667
 20
62.5
  0
LWPOLYLINE
  5
1CD
330
17
100
AcDbEntity
  8
STRUT_OUTLINE
100
AcDbPolyline
 90
5
 70
1
 10
77.266667
 20
73.75
 10
78.06666700000001
 20
73.75
 10
78.06666700000001
 20
62.5
 10
77.266667
 20
62.5
 10
77.266667
 20
73.75
  0
LWPOLYLINE
  5
1CE
330
17
100
AcDbEntity
  8
STRUT_OUTLINE
100
AcDbPolyline
 90
5
 70
1
 10
77.266667
 20
79.0
 10
78.06666700000001
 20
79.0
 10
78.06666700000001
 20
73.75
 10
77.266667
 20
73.75
 10
77.266667
 20
79.0
  0
LWPOLYLINE
  5
1CF
330
17
100
AcDbEntity
  8
STRUT_OUTLINE
100
AcDbPolyline
 90
5
 70
1
 10
77.266667
 20
85.0
 10
78.06666700000001
 20
85.0
 10
78.06666700000001
 20
79.0
 10
77.266667
 20
79.0
 10
77.266667
 20
85.0
  0
LWPOLYLINE
  5
1D0
330
17
100
AcDbEntity
  8
STRUT_OUTLINE
100
AcDbPolyline
 90
5
 70
1
 10
85.266667
 20
1.0
 10
86.06666700000001
 20
1.0
 10
86.06666700000001
 20
-5.0
 10
85.266667
 20
-5.0
 10
85.266667
 20
1.0
  0
LWPOLYLINE
  5
1D1
330
17
100
AcDbEntity
  8
STRUT_OUTLINE
100
AcDbPolyline
 90
5
 70
1
 10
85.266667
 20
6.25
 10
86.06666700000001
 20
6.25
 10
86.06666700000001
 20
1.0
 10
85.266667
 20
1.0
 10
85.266667
 20
6.25
  0
LWPOLYLINE
  5
1D2
330
17
100
AcDbEntity
  8
STRUT_OUTLINE
100
AcDbPolyline
 90
5
 70
1
 10
85.266667
 20
17.5
 10
86.06666700000001
 20
17.5
 10
86.06666700000001
 20
6.25
 10
85.266667
 20
6.25
 10
85.266667
 20
17.5
  0
LWPOLYLINE
  5
1D3
330
17
100
AcDbEntity
  8
STRUT_OUTLINE
100
AcDbPolyline
 90
5
 70
1
 10
85.266667
 20
28.75
 10
86.06666700000001
 20
28.75
 10
86.06666700000001
 20
17.5
 10
85.266667
 20
17.5
 10
85.266667
 20
28.75
  0
LWPOLYLINE
  5
1D4
330
17
100
AcDbEntity
  8
STRUT_OUTLINE
100
AcDbPolyline
 90
5
 70
1
 10
85.266667
 20
36.0
 10
86.06666700000001
 20
36.0
 10
86.06666700000001
 20
28.75
 10
85.266667
 20
28.75
 10
85.266667
 20
36.0
  0
LWPOLYLINE
  5
1D5
330
17
100
AcDbEntity
  8
STRUT_OUTLINE
100
AcDbPolyline
 90
5
 70
1
 10
85.266667
 20
43.99999999999999
 10
86.06666700000001
 20
43.99999999999999
 10
86.06666700000001
 20
36.0
 10
85.266667
 20
36.0
 10
85.266667
 20
43.99999999999999
  0
LWPOLYLINE
  5
1D6
330
17
100
AcDbEntity
  8
STRUT_OUTLINE
100
AcDbPolyline
 90
5
 70
1
 10
85.266667
 20
51.25
 10
86.06666700000001
 20
51.25
 10
86.06666700000001
 20
43.99999999999999
 10
85.266667
 20
43.99999999999999
 10
85.266667
 20
51.25
  0
LWPOLYLINE
  5
1D7
330
17
100
AcDbEntity
  8
STRUT_OUTLINE
100
AcDbPolyline
 90
5
 70
1
 10
85.266667
 20
62.5
 10
86.06666700000001
 20
62.5
 10
86.06666700000001
 20
51.25
 10
85.266667
 20
51.25
 10
85.266667
 20
62.5
  0
LWPOLYLINE
  5
1D8
330
17
100
AcDbEntity
  8
STRUT_OUTLINE
100
AcDbPolyline
 90
5
 70
1
 10
85.266667
 20
73.75
 10
86.06666700000001
 20
73.75
 10
86.06666700000001
 20
62.5
 10
85.266667
 20
62.5
 10
85.266667
 20
73.75
  0
LWPOLYLINE
  5
1D9
330
17
100
AcDbEntity
  8
STRUT_OUTLINE
100
AcDbPolyline
 90
5
 70
1
 10
85.266667
 20
79.0
 10
86.06666700000001
 20
79.0
 10
86.06666700000001
 20
73.75
 10
85.266667
 20
73.75
 10
85.266667
 20
79.0
  0
LWPOLYLINE
  5
1DA
330
17
100
AcDbEntity
  8
STRUT_OUTLINE
100
AcDbPolyline
 90
5
 70
1
 10
85.266667
 20
85.0
 10
86.06666700000001
 20
85.0
 10
86.06666700000001
 20
79.0
 10
85.266667
 20
79.0
 10
85.266667
 20
85.0
  0
LWPOLYLINE
  5
1DB
330
17
100
AcDbEntity
  8
STRUT_OUTLINE
100
AcDbPolyline
 90
5
 70
1
 10
1.0
 20
36.4
 10
1.0
 20
35.6
 10
-5.0
 20
35.6
 10
-5.0
 20
36.4
 10
1.0
 20
36.4
  0
LWPOLYLINE
  5
1DC
330
17
100
AcDbEntity
  8
STRUT_OUTLINE
100
AcDbPolyline
 90
5
 70
1
 10
4.833333
 20
36.4
 10
4.833333
 20
35.6
 10
1.0
 20
35.6
 10
1.0
 20
36.4
 10
4.833333
 20
36.4
  0
LWPOLYLINE
  5
1DD
330
17
100
AcDbEntity
  8
STRUT_OUTLINE
100
AcDbPolyline
 90
5
 70
1
 10
14.666667
 20
36.4
 10
14.666667
 20
35.6
 10
4.833333
 20
35.6
 10
4.833333
 20
36.4
 10
14.666667
 20
36.4
  0
LWPOLYLINE
  5
1DE
330
17
100
AcDbEntity
  8
STRUT_OUTLINE
100
AcDbPolyline
 90
5
 70
1
 10
24.5
 20
36.4
 10
24.5
 20
35.6
 10
14.666667
 20
35.6
 10
14.666667
 20
36.4
 10
24.5
 20
36.4
  0
LWPOLYLINE
  5
1DF
330
17
100
AcDbEntity
  8
STRUT_OUTLINE
100
AcDbPolyline
 90
5
 70
1
 10
34.333333
 20
36.4
 10
34.333333
 20
35.6
 10
24.5
 20
35.6
 10
24.5
 20
36.4
 10
34.333333
 20
36.4
  0
LWPOLYLINE
  5
1E0
330
17
100
AcDbEntity
  8
STRUT_OUTLINE
100
AcDbPolyline
 90
5
 70
1
 10
42.333333
 20
36.4
 10
42.333333
 20
35.6
 10
34.333333
 20
35.6
 10
34.333333
 20
36.4
 10
42.333333
 20
36.4
  0
LWPOLYLINE
  5
1E1
330
17
100
AcDbEntity
  8
STRUT_OUTLINE
100
AcDbPolyline
 90
5
 70
1
 10
54.111111
 20
36.4
 10
54.111111
 20
35.6
 10
42.333333
 20
35.6
 10
42.333333
 20
36.4
 10
54.111111
 20
36.4
  0
LWPOLYLINE
  5
1E2
330
17
100
AcDbEntity
  8
STRUT_OUTLINE
100
AcDbPolyline
 90
5
 70
1
 10
65.888889
 20
36.4
 10
65.888889
 20
35.6
 10
54.111111
 20
35.6
 10
54.111111
 20
36.4
 10
65.888889
 20
36.4
  0
LWPOLYLINE
  5
1E3
330
17
100
AcDbEntity
  8
STRUT_OUTLINE
100
AcDbPolyline
 90
5
 70
1
 10
77.666667
 20
36.4
 10
77.666667
 20
35.6
 10
65.888889
 20
35.6
 10
65.888889
 20
36.4
 10
77.666667
 20
36.4
  0
LWPOLYLINE
  5
1E4
330
17
100
AcDbEntity
  8
STRUT_OUTLINE
100
AcDbPolyline
 90
5
 70
1
 10
85.666667
 20
36.4
 10
85.666667
 20
35.6
 10
77.666667
 20
35.6
 10
77.666667
 20
36.4
 10
85.666667
 20
36.4
  0
LWPOLYLINE
  5
1E5
330
17
100
AcDbEntity
  8
STRUT_OUTLINE
100
AcDbPolyline
 90
5
 70
1
 10
95.5
 20
36.4
 10
95.5
 20
35.6
 10
85.666667
 20
35.6
 10
85.666667
 20
36.4
 10
95.5
 20
36.4
  0
LWPOLYLINE
  5
1E6
330
17
100
AcDbEntity
  8
STRUT_OUTLINE
100
AcDbPolyline
 90
5
 70
1
 10
105.333334
 20
36.4
 10
105.333334
 20
35.6
 10
95.5
 20
35.6
 10
95.5
 20
36.4
 10
105.333334
 20
36.4
  0
LWPOLYLINE
  5
1E7
330
17
100
AcDbEntity
  8
STRUT_OUTLINE
100
AcDbPolyline
 90
5
 70
1
 10
115.166667
 20
36.4
 10
115.166667
 20
35.6
 10
105.333334
 20
35.6
 10
105.333334
 20
36.4
 10
115.166667
 20
36.4
  0
LWPOLYLINE
  5
1E8
330
17
100
AcDbEntity
  8
STRUT_OUTLINE
100
AcDbPolyline
 90
5
 70
1
 10
119.0
 20
36.4
 10
119.0
 20
35.6
 10
115.166667
 20
35.6
 10
115.166667
 20
36.4
 10
119.0
 20
36.4
  0
LWPOLYLINE
  5
1E9
330
17
100
AcDbEntity
  8
STRUT_OUTLINE
100
AcDbPolyline
 90
5
 70
1
 10
125.0
 20
36.4
 10
125.0
 20
35.6
 10
119.0
 20
35.6
 10
119.0
 20
36.4
 10
125.0
 20
36.4
  0
LWPOLYLINE
  5
1EA
330
17
100
AcDbEntity
  8
STRUT_OUTLINE
100
AcDbPolyline
 90
5
 70
1
 10
1.0
 20
44.4
 10
1.0
 20
43.6
 10
-5.0
 20
43.6
 10
-5.0
 20
44.4
 10
1.0
 20
44.4
  0
LWPOLYLINE
  5
1EB
330
17
100
AcDbEntity
  8
STRUT_OUTLINE
100
AcDbPolyline
 90
5
 70
1
 10
4.833333
 20
44.4
 10
4.833333
 20
43.6
 10
1.0
 20
43.6
 10
1.0
 20
44.4
 10
4.833333
 20
44.4
  0
LWPOLYLINE
  5
1EC
330
17
100
AcDbEntity
  8
STRUT_OUTLINE
100
AcDbPolyline
 90
5
 70
1
 10
14.666667
 20
44.4
 10
14.666667
 20
43.6
 10
4.833333
 20
43.6
 10
4.833333
 20
44.4
 10
14.666667
 20
44.4
  0
LWPOLYLINE
  5
1ED
330
17
100
AcDbEntity
  8
STRUT_OUTLINE
100
AcDbPolyline
 90
5
 70
1
 10
24.5
 20
44.4
 10
24.5
 20
43.6
 10
14.666667
 20
43.6
 10
14.666667
 20
44.4
 10
24.5
 20
44.4
  0
LWPOLYLINE
  5
1EE
330
17
100
AcDbEntity
  8
STRUT_OUTLINE
100
AcDbPolyline
 90
5
 70
1
 10
34.333333
 20
44.4
 10
34.333333
 20
43.6
 10
24.5
 20
43.6
 10
24.5
 20
44.4
 10
34.333333
 20
44.4
  0
LWPOLYLINE
  5
1EF
330
17
100
AcDbEntity
  8
STRUT_OUTLINE
100
AcDbPolyline
 90
5
 70
1
 10
42.333333
 20
44.4
 10
42.333333
 20
43.6
 10
34.333333
 20
43.6
 10
34.333333
 20
44.4
 10
42.333333
 20
44.4
  0
LWPOLYLINE
  5
1F0
330
17
100
AcDbEntity
  8
STRUT_OUTLINE
100
AcDbPolyline
 90
5
 70
1
 10
54.111111
 20
44.4
 10
54.111111
 20
43.6
 10
42.333333
 20
43.6
 10
42.333333
 20
44.4
 10
54.111111
 20
44.4
  0
LWPOLYLINE
  5
1F1
330
17
100
AcDbEntity
  8
STRUT_OUTLINE
100
AcDbPolyline
 90
5
 70
1
 10
65.888889
 20
44.4
 10
65.888889
 20
43.6
 10
54.111111
 20
43.6
 10
54.111111
 20
44.4
 10
65.888889
 20
44.4
  0
LWPOLYLINE
  5
1F2
330
17
100
AcDbEntity
  8
STRUT_OUTLINE
100
AcDbPolyline
 90
5
 70
1
 10
77.666667
 20
44.4
 10
77.666667
 20
43.6
 10
65.888889
 20
43.6
 10
65.888889
 20
44.4
 10
77.666667
 20
44.4
  0
LWPOLYLINE
  5
1F3
330
17
100
AcDbEntity
  8
STRUT_OUTLINE
100
AcDbPolyline
 90
5
 70
1
 10
85.666667
 20
44.4
 10
85.666667
 20
43.6
 10
77.666667
 20
43.6
 10
77.666667
 20
44.4
 10
85.666667
 20
44.4
  0
LWPOLYLINE
  5
1F4
330
17
100
AcDbEntity
  8
STRUT_OUTLINE
100
AcDbPolyline
 90
5
 70
1
 10
95.5
 20
44.4
 10
95.5
 20
43.6
 10
85.666667
 20
43.6
 10
85.666667
 20
44.4
 10
95.5
 20
44.4
  0
LWPOLYLINE
  5
1F5
330
17
100
AcDbEntity
  8
STRUT_OUTLINE
100
AcDbPolyline
 90
5
 70
1
 10
105.333334
 20
44.4
 10
105.333334
 20
43.6
 10
95.5
 20
43.6
 10
95.5
 20
44.4
 10
105.333334
 20
44.4
  0
LWPOLYLINE
  5
1F6
330
17
100
AcDbEntity
  8
STRUT_OUTLINE
100
AcDbPolyline
 90
5
 70
1
 10
115.166667
 20
44.4
 10
115.166667
 20
43.6
 10
105.333334
 20
43.6
 10
105.333334
 20
44.4
 10
115.166667
 20
44.4
  0
LWPOLYLINE
  5
1F7
330
17
100
AcDbEntity
  8
STRUT_OUTLINE
100
AcDbPolyline
 90
5
 70
1
 10
119.0
 20
44.4
 10
119.0
 20
43.6
 10
115.166667
 20
43.6
 10
115.166667
 20
44.4
 10
119.0
 20
44.4
  0
LWPOLYLINE
  5
1F8
330
17
100
AcDbEntity
  8
STRUT_OUTLINE
100
AcDbPolyline
 90
5
 70
1
 10
125.0
 20
44.4
 10
125.0
 20
43.6
 10
119.0
 20
43.6
 10
119.0
 20
44.4
 10
125.0
 20
44.4
  0
LWPOLYLINE
  5
1F9
330
17
100
AcDbEntity
  8
STRUT_OUTLINE
100
AcDbPolyline
 90
5
 70
1
 10
0.723237804673899
 20
19.038795234098973
 10
1.2767620952623908
 20
18.461204670006634
 10
-4.723237854705754
 20
12.71120471795383
 10
-5.276762145294246
 20
13.28879528204617
 10
0.723237804673899
 20
19.038795234098973
  0
LWPOLYLINE
  5
1FA
330
17
100
AcDbEntity
  8
STRUT_OUTLINE
100
AcDbPolyline
 90
5
 70
1
 10
-5.276762095262391
 20
24.211204670006634
 10
-4.723237804673899
 20
24.788795234098973
 10
1.276762145294246
 20
19.03879528204617
 10
0.7232378547057541
 20
18.46120471795383
 10
-5.276762095262391
 20
24.211204670006634
  0
LWPOLYLINE
  5
1FB
330
17
100
AcDbEntity
  8
STRUT_OUTLINE
100
AcDbPolyline
 90
5
 70
1
 10
0.723237804673899
 20
30.538795234098973
 10
1.2767620952623908
 20
29.961204670006634
 10
-4.723237854705754
 20
24.21120471795383
 10
-5.276762145294246
 20
24.78879528204617
 10
0.723237804673899
 20
30.538795234098973
  0
LWPOLYLINE
  5
1FC
330
17
100
AcDbEntity
  8
STRUT_OUTLINE
100
AcDbPolyline
 90
5
 70
1
 10
-5.276762095262391
 20
35.71120467000664
 10
-4.723237804673899
 20
36.28879523409897
 10
1.276762145294246
 20
30.53879528204617
 10
0.7232378547057541
 20
29.96120471795383
 10
-5.276762095262391
 20
35.71120467000664
  0
LWPOLYLINE
  5
1FD
330
17
100
AcDbEntity
  8
STRUT_OUTLINE
100
AcDbPolyline
 90
5
 70
1
 10
0.7781199215099084
 20
40.33282011773514
 10
1.2218800784900916
 20
39.66717988226486
 10
-4.778119921509909
 20
35.66717988226486
 10
-5.221880078490091
 20
36.33282011773514
 10
0.7781199215099084
 20
40.33282011773514
  0
LWPOLYLINE
  5
1FE
330
17
100
AcDbEntity
  8
STRUT_OUTLINE
100
AcDbPolyline
 90
5
 70
1
 10
-5.221880078490091
 20
43.66717988226486
 10
-4.778119921509909
 20
44.33282011773514
 10
1.2218800784900916
 20
40.33282011773514
 10
0.7781199215099084
 20
39.66717988226486
 10
-5.221880078490091
 20
43.66717988226486
  0
LWPOLYLINE
  5
1FF
330
17
100
AcDbEntity
  8
STRUT_OUTLINE
100
AcDbPolyline
 90
5
 70
1
 10
0.723237804673899
 20
50.03879523409897
 10
1.2767620952623908
 20
49.46120467000664
 10
-4.723237854705754
 20
43.711204717953834
 10
-5.276762145294246
 20
44.288795282046166
 10
0.723237804673899
 20
50.03879523409897
  0
LWPOLYLINE
  5
200
330
17
100
AcDbEntity
  8
STRUT_OUTLINE
100
AcDbPolyline
 90
5
 70
1
 10
-5.276762095262391
 20
55.21120467000664
 10
-4.723237804673899
 20
55.78879523409897
 10
1.276762145294246
 20
50.038795282046166
 10
0.7232378547057541
 20
49.461204717953834
 10
-5.276762095262391
 20
55.21120467000664
  0
LWPOLYLINE
  5
201
330
17
100
AcDbEntity
  8
STRUT_OUTLINE
100
AcDbPolyline
 90
5
 70
1
 10
0.723237804673899
 20
61.53879523409897
 10
1.2767620952623908
 20
60.96120467000664
 10
-4.723237854705754
 20
55.211204717953834
 10
-5.276762145294246
 20
55.788795282046166
 10
0.723237804673899
 20
61.53879523409897
  0
LWPOLYLINE
  5
202
330
17
100
AcDbEntity
  8
STRUT_OUTLINE
100
AcDbPolyline
 90
5
 70
1
 10
-5.276762095262391
 20
66.71120467000664
 10
-4.723237804673899
 20
67.28879523409897
 10
1.276762145294246
 20
61.538795282046166
 10
0.7232378547057541
 20
60.961204717953834
 10
-5.276762095262391
 20
66.71120467000664
  0
LWPOLYLINE
  5
203
330
17
100
AcDbEntity
  8
STRUT_OUTLINE
100
AcDbPolyline
 90
5
 70
1
 10
18.632296405040126
 20
79.2657458982695
 10
18.034368933598646
 20
78.73425484576194
 10
12.70103626427926
 20
84.73425447374622
 10
13.29896373572074
 20
85.26574552625378
 10
18.632296405040126
 20
79.2657458982695
  0
LWPOLYLINE
  5
204
330
17
100
AcDbEntity
  8
STRUT_OUTLINE
100
AcDbPolyline
 90
5
 70
1
 10
23.367703181324973
 20
85.26574543293023
 10
23.9656306032828
 20
84.73425432475355
 10
18.632296710978913
 20
78.73425444591166
 10
18.034369289021086
 20
79.26574555408834
 10
23.367703181324973
 20
85.26574543293023
  0
LWPOLYLINE
  5
205
330
17
100
AcDbEntity
  8
STRUT_OUTLINE
100
AcDbPolyline
 90
5
 70
1
 10
29.298963405040126
 20
79.2657458982695
 10
28.701035933598646
 20
78.73425484576194
 10
23.36770326427926
 20
84.73425447374622
 10
23.96563073572074
 20
85.26574552625378
 10
29.298963405040126
 20
79.2657458982695
  0
LWPOLYLINE
  5
206
330
17
100
AcDbEntity
  8
STRUT_OUTLINE
100
AcDbPolyline
 90
5
 70
1
 10
34.03436893359865
 20
85.26574515423806
 10
34.63229640504013
 20
84.7342541017305
 10
29.29896373572074
 20
78.73425447374622
 10
28.70103626427926
 20
79.26574552625378
 10
34.03436893359865
 20
85.26574515423806
  0
LWPOLYLINE
  5
207
330
17
100
AcDbEntity
  8
STRUT_OUTLINE
100
AcDbPolyline
 90
5
 70
1
 10
38.66615311773514
 20
79.22188007849009
 10
38.000512882264864
 20
78.77811992150991
 10
34.000512882264864
 20
84.77811992150991
 10
34.66615311773514
 20
85.22188007849009
 10
38.66615311773514
 20
79.22188007849009
  0
LWPOLYLINE
  5
208
330
17
100
AcDbEntity
  8
STRUT_OUTLINE
100
AcDbPolyline
 90
5
 70
1
 10
42.000512882264864
 20
85.22188007849009
 10
42.66615311773514
 20
84.77811992150991
 10
38.66615311773514
 20
78.77811992150991
 10
38.000512882264864
 20
79.22188007849009
 10
42.000512882264864
 20
85.22188007849009
  0
LWPOLYLINE
  5
209
330
17
100
AcDbEntity
  8
STRUT_OUTLINE
100
AcDbPolyline
 90
5
 70
1
 10
48.5076955197002
 20
79.2801872044723
 10
47.93674825419263
 20
78.71981302590103
 10
42.04785936724622
 20
84.71981291071437
 10
42.61880663275379
 20
85.28018708928563
 10
48.5076955197002
 20
79.2801872044723
  0
LWPOLYLINE
  5
20A
330
17
100
AcDbEntity
  8
STRUT_OUTLINE
100
AcDbPolyline
 90
5
 70
1
 10
53.825637254192635
 20
85.28018697409897
 10
54.396584519700205
 20
84.7198127955277
 10
48.50769563275379
 20
78.71981291071437
 10
47.93674836724622
 20
79.28018708928563
 10
53.825637254192635
 20
85.28018697409897
  0
LWPOLYLINE
  5
20B
330
17
100
AcDbEntity
  8
STRUT_OUTLINE
100
AcDbPolyline
 90
5
 70
1
 10
60.2854735197002
 20
79.2801872044723
 10
59.71452625419263
 20
78.71981302590103
 10
53.825637367246216
 20
84.71981291071437
 10
54.396584632753786
 20
85.28018708928563
 10
60.2854735197002
 20
79.2801872044723
  0
LWPOLYLINE
  5
20C
330
17
100
AcDbEntity
  8
STRUT_OUTLINE
100
AcDbPolyline
 90
5
 70
1
 10
65.60341525419263
 20
85.28018697409897
 10
66.17436251970021
 20
84.7198127955277
 10
60.285473632753785
 20
78.71981291071437
 10
59.714526367246215
 20
79.28018708928563
 10
65.60341525419263
 20
85.28018697409897
  0
LWPOLYLINE
  5
20D
330
17
100
AcDbEntity
  8
STRUT_OUTLINE
100
AcDbPolyline
 90
5
 70
1
 10
72.06325151970022
 20
79.2801872044723
 10
71.49230425419263
 20
78.71981302590103
 10
65.60341536724621
 20
84.71981291071437
 10
66.1743626327538
 20
85.28018708928563
 10
72.06325151970022
 20
79.2801872044723
  0
LWPOLYLINE
  5
20E
330
17
100
AcDbEntity
  8
STRUT_OUTLINE
100
AcDbPolyline
 90
5
 70
1
 10
77.38119325419262
 20
85.28018697409897
 10
77.95214051970021
 20
84.7198127955277
 10
72.06325163275379
 20
78.71981291071437
 10
71.4923043672462
 20
79.28018708928563
 10
77.38119325419262
 20
85.28018697409897
  0
LWPOLYLINE
  5
20F
330
17
100
AcDbEntity
  8
STRUT_OUTLINE
100
AcDbPolyline
 90
5
 70
1
 10
81.99948711773514
 20
79.22188007849009
 10
81.33384688226487
 20
78.77811992150991
 10
77.33384688226487
 20
84.77811992150991
 10
77.99948711773514
 20
85.22188007849009
 10
81.99948711773514
 20
79.22188007849009
  0
LWPOLYLINE
  5
210
330
17
100
AcDbEntity
  8
STRUT_OUTLINE
100
AcDbPolyline
 90
5
 70
1
 10
85.33384688226487
 20
85.22188007849009
 10
85.99948711773514
 20
84.77811992150991
 10
81.99948711773514
 20
78.77811992150991
 10
81.33384688226487
 20
79.22188007849009
 10
85.33384688226487
 20
85.22188007849009
  0
LWPOLYLINE
  5
211
330
17
100
AcDbEntity
  8
STRUT_OUTLINE
100
AcDbPolyline
 90
5
 70
1
 10
91.29896340504013
 20
79.26574589826949
 10
90.70103593359866
 20
78.73425484576192
 10
85.36770326427927
 20
84.73425447374622
 10
85.96563073572074
 20
85.26574552625378
 10
91.29896340504013
 20
79.26574589826949
  0
LWPOLYLINE
  5
212
330
17
100
AcDbEntity
  8
STRUT_OUTLINE
100
AcDbPolyline
 90
5
 70
1
 10
96.03437018132497
 20
85.26574543293023
 10
96.6322976032828
 20
84.73425432475355
 10
91.29896371097891
 20
78.73425444591166
 10
90.70103628902109
 20
79.26574555408834
 10
96.03437018132497
 20
85.26574543293023
  0
LWPOLYLINE
  5
213
330
17
100
AcDbEntity
  8
STRUT_OUTLINE
100
AcDbPolyline
 90
5
 70
1
 10
101.96563040504012
 20
79.2657458982695
 10
101.36770293359865
 20
78.73425484576194
 10
96.03437026427926
 20
84.73425447374622
 10
96.63229773572073
 20
85.26574552625378
 10
101.96563040504012
 20
79.2657458982695
  0
LWPOLYLINE
  5
214
330
17
100
AcDbEntity
  8
STRUT_OUTLINE
100
AcDbPolyline
 90
5
 70
1
 10
106.70103593359866
 20
85.26574515423808
 10
107.29896340504013
 20
84.73425410173051
 10
101.96563073572074
 20
78.73425447374622
 10
101.36770326427927
 20
79.26574552625378
 10
106.70103593359866
 20
85.26574515423808
  0
LWPOLYLINE
  5
215
330
17
100
AcDbEntity
  8
STRUT_OUTLINE
100
AcDbPolyline
 90
5
 70
1
 10
119.2767621953261
 20
60.96120476590103
 10
118.72323790473762
 20
61.53879532999336
 10
124.72323785470576
 20
67.28879528204617
 10
125.27676214529424
 20
66.71120471795383
 10
119.2767621953261
 20
60.96120476590103
  0
LWPOLYLINE
  5
216
330
17
100
AcDbEntity
  8
STRUT_OUTLINE
100
AcDbPolyline
 90
5
 70
1
 10
125.27676209526238
 20
55.78879532999336
 10
124.7232378046739
 20
55.21120476590103
 10
118.72323785470576
 20
60.961204717953834
 10
119.27676214529424
 20
61.538795282046166
 10
125.27676209526238
 20
55.78879532999336
  0
LWPOLYLINE
  5
217
330
17
100
AcDbEntity
  8
STRUT_OUTLINE
100
AcDbPolyline
 90
5
 70
1
 10
119.2767621953261
 20
49.46120476590103
 10
118.72323790473762
 20
50.03879532999336
 10
124.72323785470576
 20
55.788795282046166
 10
125.27676214529424
 20
55.211204717953834
 10
119.2767621953261
 20
49.46120476590103
  0
LWPOLYLINE
  5
218
330
17
100
AcDbEntity
  8
STRUT_OUTLINE
100
AcDbPolyline
 90
5
 70
1
 10
125.27676209526238
 20
44.28879532999336
 10
124.7232378046739
 20
43.71120476590103
 10
118.72323785470576
 20
49.461204717953834
 10
119.27676214529424
 20
50.038795282046166
 10
125.27676209526238
 20
44.28879532999336
  0
LWPOLYLINE
  5
219
330
17
100
AcDbEntity
  8
STRUT_OUTLINE
100
AcDbPolyline
 90
5
 70
1
 10
119.22188007849009
 20
39.66717988226486
 10
118.77811992150991
 20
40.33282011773514
 10
124.77811992150991
 20
44.33282011773514
 10
125.22188007849009
 20
43.66717988226486
 10
119.22188007849009
 20
39.66717988226486
  0
LWPOLYLINE
  5
21A
330
17
100
AcDbEntity
  8
STRUT_OUTLINE
100
AcDbPolyline
 90
5
 70
1
 10
125.22188007849009
 20
36.33282011773514
 10
124.77811992150991
 20
35.66717988226486
 10
118.77811992150991
 20
39.66717988226486
 10
119.22188007849009
 20
40.33282011773514
 10
125.22188007849009
 20
36.33282011773514
  0
LWPOLYLINE
  5
21B
330
17
100
AcDbEntity
  8
STRUT_OUTLINE
100
AcDbPolyline
 90
5
 70
1
 10
119.2767621953261
 20
29.961204765901027
 10
118.72323790473762
 20
30.538795329993366
 10
124.72323785470576
 20
36.288795282046166
 10
125.27676214529424
 20
35.711204717953834
 10
119.2767621953261
 20
29.961204765901027
  0
LWPOLYLINE
  5
21C
330
17
100
AcDbEntity
  8
STRUT_OUTLINE
100
AcDbPolyline
 90
5
 70
1
 10
125.27676209526238
 20
24.788795329993366
 10
124.7232378046739
 20
24.211204765901027
 10
118.72323785470576
 20
29.96120471795383
 10
119.27676214529424
 20
30.53879528204617
 10
125.27676209526238
 20
24.788795329993366
  0
LWPOLYLINE
  5
21D
330
17
100
AcDbEntity
  8
STRUT_OUTLINE
100
AcDbPolyline
 90
5
 70
1
 10
119.2767621953261
 20
18.461204765901027
 10
118.72323790473762
 20
19.038795329993366
 10
124.72323785470576
 20
24.78879528204617
 10
125.27676214529424
 20
24.21120471795383
 10
119.2767621953261
 20
18.461204765901027
  0
LWPOLYLINE
  5
21E
330
17
100
AcDbEntity
  8
STRUT_OUTLINE
100
AcDbPolyline
 90
5
 70
1
 10
125.27676209526238
 20
13.288795329993365
 10
124.7232378046739
 20
12.711204765901025
 10
118.72323785470576
 20
18.46120471795383
 10
119.27676214529424
 20
19.03879528204617
 10
125.27676209526238
 20
13.288795329993365
  0
LWPOLYLINE
  5
21F
330
17
100
AcDbEntity
  8
STRUT_OUTLINE
100
AcDbPolyline
 90
5
 70
1
 10
101.36770359495988
 20
0.7342541017305046
 10
101.96563106640134
 20
1.2657451542380704
 10
107.29896373572073
 20
-4.734254473746217
 10
106.70103626427927
 20
-5.265745526253783
 10
101.36770359495988
 20
0.7342541017305046
  0
LWPOLYLINE
  5
220
330
17
100
AcDbEntity
  8
STRUT_OUTLINE
100
AcDbPolyline
 90
5
 70
1
 10
96.63229806640135
 20
-5.265745154238064
 10
96.03437059495988
 20
-4.734254101730499
 10
101.36770326427927
 20
1.2657455262537831
 10
101.96563073572074
 20
0.7342544737462169
 10
96.63229806640135
 20
-5.265745154238064
  0
LWPOLYLINE
  5
221
330
17
100
AcDbEntity
  8
STRUT_OUTLINE
100
AcDbPolyline
 90
5
 70
1
 10
90.7010363967172
 20
0.7342543247535551
 10
91.29896381867502
 20
1.2657454329302262
 10
96.6322977109789
 20
-4.734254445911665
 10
96.03437028902108
 20
-5.265745554088335
 10
90.7010363967172
 20
0.7342543247535551
  0
LWPOLYLINE
  5
222
330
17
100
AcDbEntity
  8
STRUT_OUTLINE
100
AcDbPolyline
 90
5
 70
1
 10
85.96563106640134
 20
-5.26574515423807
 10
85.36770359495988
 20
-4.734254101730505
 10
90.70103626427927
 20
1.265745526253783
 10
91.29896373572073
 20
0.7342544737462171
 10
85.96563106640134
 20
-5.26574515423807
  0
LWPOLYLINE
  5
223
330
17
100
AcDbEntity
  8
STRUT_OUTLINE
100
AcDbPolyline
 90
5
 70
1
 10
81.33384688226487
 20
0.7781199215099084
 10
81.99948711773514
 20
1.2218800784900916
 10
85.99948711773514
 20
-4.778119921509909
 10
85.33384688226487
 20
-5.221880078490091
 10
81.33384688226487
 20
0.7781199215099084
  0
LWPOLYLINE
  5
224
330
17
100
AcDbEntity
  8
STRUT_OUTLINE
100
AcDbPolyline
 90
5
 70
1
 10
77.99948711773514
 20
-5.221880078490091
 10
77.33384688226487
 20
-4.778119921509909
 10
81.33384688226487
 20
1.2218800784900916
 10
81.99948711773514
 20
0.7781199215099084
 10
77.99948711773514
 20
-5.221880078490091
  0
LWPOLYLINE
  5
225
330
17
100
AcDbEntity
  8
STRUT_OUTLINE
100
AcDbPolyline
 90
5
 70
1
 10
71.4923044802998
 20
0.7198127955276938
 10
72.06325174580738
 20
1.2801869740989644
 10
77.9521406327538
 20
-4.7198129107143645
 10
77.38119336724621
 20
-5.2801870892856355
 10
71.4923044802998
 20
0.7198127955276938
  0
LWPOLYLINE
  5
226
330
17
100
AcDbEntity
  8
STRUT_OUTLINE
100
AcDbPolyline
 90
5
 70
1
 10
66.17436274580737
 20
-5.280186974098972
 10
65.60341548029979
 20
-4.719812795527701
 10
71.4923043672462
 20
1.280187089285635
 10
72.06325163275379
 20
0.7198129107143649
 10
66.17436274580737
 20
-5.280186974098972
  0
LWPOLYLINE
  5
227
330
17
100
AcDbEntity
  8
STRUT_OUTLINE
100
AcDbPolyline
 90
5
 70
1
 10
59.7145264802998
 20
0.7198127955276938
 10
60.28547374580737
 20
1.2801869740989644
 10
66.1743626327538
 20
-4.7198129107143645
 10
65.60341536724621
 20
-5.2801870892856355
 10
59.7145264802998
 20
0.7198127955276938
  0
LWPOLYLINE
  5
228
330
17
100
AcDbEntity
  8
STRUT_OUTLINE
100
AcDbPolyline
 90
5
 70
1
 10
54.39658474580737
 20
-5.280186974098967
 10
53.8256374802998
 20
-4.719812795527696
 10
59.714526367246215
 20
1.280187089285635
 10
60.285473632753785
 20
0.7198129107143648
 10
54.39658474580737
 20
-5.280186974098967
  0
LWPOLYLINE
  5
229
330
17
100
AcDbEntity
  8
STRUT_OUTLINE
100
AcDbPolyline
 90
5
 70
1
 10
47.936748480299805
 20
0.7198127955276967
 10
48.507695745807375
 20
1.2801869740989669
 10
54.396584632753786
 20
-4.719812910714365
 10
53.825637367246216
 20
-5.280187089285635
 10
47.936748480299805
 20
0.7198127955276967
  0
LWPOLYLINE
  5
22A
330
17
100
AcDbEntity
  8
STRUT_OUTLINE
100
AcDbPolyline
 90
5
 70
1
 10
42.61880674580737
 20
-5.280186974098967
 10
42.0478594802998
 20
-4.719812795527696
 10
47.93674836724622
 20
1.280187089285635
 10
48.50769563275379
 20
0.7198129107143648
 10
42.61880674580737
 20
-5.280186974098967
  0
LWPOLYLINE
  5
22B
330
17
100
AcDbEntity
  8
STRUT_OUTLINE
100
AcDbPolyline
 90
5
 70
1
 10
38.000512882264864
 20
0.7781199215099084
 10
38.66615311773514
 20
1.2218800784900916
 10
42.66615311773514
 20
-4.778119921509909
 10
42.000512882264864
 20
-5.221880078490091
 10
38.000512882264864
 20
0.7781199215099084
  0
LWPOLYLINE
  5
22C
330
17
100
AcDbEntity
  8
STRUT_OUTLINE
100
AcDbPolyline
 90
5
 70
1
 10
34.66615311773514
 20
-5.221880078490091
 10
34.000512882264864
 20
-4.778119921509909
 10
38.000512882264864
 20
1.2218800784900916
 10
38.66615311773514
 20
0.7781199215099084
 10
34.66615311773514
 20
-5.221880078490091
  0
LWPOLYLINE
  5
22D
330
17
100
AcDbEntity
  8
STRUT_OUTLINE
100
AcDbPolyline
 90
5
 70
1
 10
28.701036594959877
 20
0.7342541017305011
 10
29.298964066401357
 20
1.2657451542380669
 10
34.63229673572074
 20
-4.734254473746217
 10
34.03436926427926
 20
-5.265745526253783
 10
28.701036594959877
 20
0.7342541017305011
  0
LWPOLYLINE
  5
22E
330
17
100
AcDbEntity
  8
STRUT_OUTLINE
100
AcDbPolyline
 90
5
 70
1
 10
23.965631066401354
 20
-5.265745154238069
 10
23.367703594959874
 20
-4.734254101730504
 10
28.70103626427926
 20
1.265745526253783
 10
29.29896373572074
 20
0.7342544737462171
 10
23.965631066401354
 20
-5.265745154238069
  0
LWPOLYLINE
  5
22F
330
17
100
AcDbEntity
  8
STRUT_OUTLINE
100
AcDbPolyline
 90
5
 70
1
 10
18.0343693967172
 20
0.7342543247535515
 10
18.632296818675027
 20
1.2657454329302227
 10
23.965630710978914
 20
-4.734254445911664
 10
23.367703289021087
 20
-5.265745554088336
 10
18.0343693967172
 20
0.7342543247535515
  0
LWPOLYLINE
  5
230
330
17
100
AcDbEntity
  8
STRUT_OUTLINE
100
AcDbPolyline
 90
5
 70
1
 10
13.298964066401354
 20
-5.265745154238069
 10
12.701036594959874
 20
-4.734254101730504
 10
18.03436926427926
 20
1.265745526253783
 10
18.63229673572074
 20
0.7342544737462171
 10
13.298964066401354
 20
-5.265745154238069
  0
LWPOLYLINE
  5
231
330
17
100
AcDbEntity
  8
STRUT_OUTLINE
100
AcDbPolyline
 90
5
 70
1
 10
-5.282842447847989
 20
0.7171570228987509
 10
-4.717157022898751
 20
1.2828424478479892
 10
1.2828427124746191
 20
-4.717157287525381
 10
0.7171572875253809
 20
-5.282842712474619
 10
-5.282842447847989
 20
0.7171570228987509
  0
LWPOLYLINE
  5
232
330
17
100
AcDbEntity
  8
STRUT_OUTLINE
100
AcDbPolyline
 90
5
 70
1
 10
0.7171575521520108
 20
0.7171570228987509
 10
1.282842977101249
 20
1.2828424478479892
 10
7.282842712474619
 20
-4.717157287525381
 10
6.717157287525381
 20
-5.282842712474619
 10
0.7171575521520108
 20
0.7171570228987509
  0
LWPOLYLINE
  5
233
330
17
100
AcDbEntity
  8
STRUT_OUTLINE
100
AcDbPolyline
 90
5
 70
1
 10
-5.282842712474619
 20
6.717157287525381
 10
-4.717157287525381
 20
7.282842712474619
 10
1.282842977101249
 20
1.2828424478479892
 10
0.7171575521520108
 20
0.7171570228987509
 10
-5.282842712474619
 20
6.717157287525381
  0
LWPOLYLINE
  5
234
330
17
100
AcDbEntity
  8
STRUT_OUTLINE
100
AcDbPolyline
 90
5
 70
1
 10
6.717157552152011
 20
0.7171570228987509
 10
7.282842977101249
 20
1.2828424478479892
 10
13.282842712474618
 20
-4.717157287525381
 10
12.717157287525382
 20
-5.282842712474619
 10
6.717157552152011
 20
0.7171570228987509
  0
LWPOLYLINE
  5
235
330
17
100
AcDbEntity
  8
STRUT_OUTLINE
100
AcDbPolyline
 90
5
 70
1
 10
0.7171571096718624
 20
6.717157465378899
 10
1.2828425346211003
 20
7.282842890328138
 10
7.282842977101249
 20
1.282842447847989
 10
6.717157552152011
 20
0.717157022898751
 10
0.7171571096718624
 20
6.717157465378899
  0
LWPOLYLINE
  5
236
330
17
100
AcDbEntity
  8
STRUT_OUTLINE
100
AcDbPolyline
 90
5
 70
1
 10
-5.28284262570151
 20
12.717157200752272
 10
-4.717157200752271
 20
13.282842625701509
 10
1.2828425346211003
 20
7.282842890328138
 10
0.7171571096718624
 20
6.717157465378899
 10
-5.28284262570151
 20
12.717157200752272
  0
LWPOLYLINE
  5
237
330
17
100
AcDbEntity
  8
STRUT_OUTLINE
100
AcDbPolyline
 90
5
 70
1
 10
0.7171570228987512
 20
85.28284244784798
 10
1.282842447847989
 20
84.71715702289875
 10
-4.7171572875253815
 20
78.71715728752538
 10
-5.2828427124746185
 20
79.28284271247462
 10
0.7171570228987512
 20
85.28284244784798
  0
LWPOLYLINE
  5
238
330
17
100
AcDbEntity
  8
STRUT_OUTLINE
100
AcDbPolyline
 90
5
 70
1
 10
0.7171570228987512
 20
79.28284244784798
 10
1.282842447847989
 20
78.71715702289875
 10
-4.7171572875253815
 20
72.71715728752538
 10
-5.2828427124746185
 20
73.28284271247462
 10
0.7171570228987512
 20
79.28284244784798
  0
LWPOLYLINE
  5
239
330
17
100
AcDbEntity
  8
STRUT_OUTLINE
100
AcDbPolyline
 90
5
 70
1
 10
6.717157287525381
 20
85.28284271247462
 10
7.282842712474619
 20
84.71715728752538
 10
1.2828424478479892
 20
78.71715702289875
 10
0.7171570228987509
 20
79.28284244784798
 10
6.717157287525381
 20
85.28284271247462
  0
LWPOLYLINE
  5
23A
330
17
100
AcDbEntity
  8
STRUT_OUTLINE
100
AcDbPolyline
 90
5
 70
1
 10
0.7171570228987512
 20
73.28284244784798
 10
1.282842447847989
 20
72.71715702289875
 10
-4.7171572875253815
 20
66.71715728752538
 10
-5.2828427124746185
 20
67.28284271247462
 10
0.7171570228987512
 20
73.28284244784798
  0
LWPOLYLINE
  5
23B
330
17
100
AcDbEntity
  8
STRUT_OUTLINE
100
AcDbPolyline
 90
5
 70
1
 10
6.717157465378899
 20
79.28284289032814
 10
7.282842890328138
 20
78.7171574653789
 10
1.2828424478479894
 20
72.71715702289875
 10
0.7171570228987508
 20
73.28284244784798
 10
6.717157465378899
 20
79.28284289032814
  0
LWPOLYLINE
  5
23C
330
17
100
AcDbEntity
  8
STRUT_OUTLINE
100
AcDbPolyline
 90
5
 70
1
 10
12.717157200752272
 20
85.2828426257015
 10
13.282842625701509
 20
84.71715720075227
 10
7.282842890328137
 20
78.7171574653789
 10
6.7171574653789
 20
79.28284289032814
 10
12.717157200752272
 20
85.2828426257015
  0
LWPOLYLINE
  5
23D
330
17
100
AcDbEntity
  8
STRUT_OUTLINE
100
AcDbPolyline
 90
5
 70
1
 10
125.28284244784798
 20
79.28284297710125
 10
124.71715702289875
 20
78.71715755215202
 10
118.71715728752538
 20
84.71715728752538
 10
119.28284271247462
 20
85.28284271247462
 10
125.28284244784798
 20
79.28284297710125
  0
LWPOLYLINE
  5
23E
330
17
100
AcDbEntity
  8
STRUT_OUTLINE
100
AcDbPolyline
 90
5
 70
1
 10
119.28284244784798
 20
79.28284297710125
 10
118.71715702289875
 20
78.71715755215202
 10
112.71715728752538
 20
84.71715728752538
 10
113.28284271247462
 20
85.28284271247462
 10
119.28284244784798
 20
79.28284297710125
  0
LWPOLYLINE
  5
23F
330
17
100
AcDbEntity
  8
STRUT_OUTLINE
100
AcDbPolyline
 90
5
 70
1
 10
125.28284271247462
 20
73.28284271247462
 10
124.71715728752538
 20
72.71715728752538
 10
118.71715702289875
 20
78.71715755215202
 10
119.28284244784798
 20
79.28284297710125
 10
125.28284271247462
 20
73.28284271247462
  0
LWPOLYLINE
  5
240
330
17
100
AcDbEntity
  8
STRUT_OUTLINE
100
AcDbPolyline
 90
5
 70
1
 10
113.28284244784798
 20
79.28284297710125
 10
112.71715702289875
 20
78.71715755215202
 10
106.71715728752538
 20
84.71715728752538
 10
107.28284271247462
 20
85.28284271247462
 10
113.28284244784798
 20
79.28284297710125
  0
LWPOLYLINE
  5
241
330
17
100
AcDbEntity
  8
STRUT_OUTLINE
100
AcDbPolyline
 90
5
 70
1
 10
119.28284289032814
 20
73.2828425346211
 10
118.7171574653789
 20
72.71715710967186
 10
112.71715702289875
 20
78.71715755215202
 10
113.28284244784798
 20
79.28284297710125
 10
119.28284289032814
 20
73.2828425346211
  0
LWPOLYLINE
  5
242
330
17
100
AcDbEntity
  8
STRUT_OUTLINE
100
AcDbPolyline
 90
5
 70
1
 10
125.2828426257015
 20
67.28284279924773
 10
124.71715720075227
 20
66.7171573742985
 10
118.7171574653789
 20
72.71715710967186
 10
119.28284289032814
 20
73.2828425346211
 10
125.2828426257015
 20
67.28284279924773
  0
LWPOLYLINE
  5
243
330
17
100
AcDbEntity
  8
STRUT_OUTLINE
100
AcDbPolyline
 90
5
 70
1
 10
119.28284297710125
 20
-5.2828424478479885
 10
118.71715755215202
 20
-4.717157022898752
 10
124.71715728752538
 20
1.282842712474619
 10
125.28284271247462
 20
0.7171572875253811
 10
119.28284297710125
 20
-5.2828424478479885
  0
LWPOLYLINE
  5
244
330
17
100
AcDbEntity
  8
STRUT_OUTLINE
100
AcDbPolyline
 90
5
 70
1
 10
119.28284297710125
 20
0.717157552152011
 10
118.71715755215202
 20
1.2828429771012488
 10
124.71715728752538
 20
7.2828427124746185
 10
125.28284271247462
 20
6.7171572875253815
 10
119.28284297710125
 20
0.717157552152011
  0
LWPOLYLINE
  5
245
330
17
100
AcDbEntity
  8
STRUT_OUTLINE
100
AcDbPolyline
 90
5
 70
1
 10
113.28284271247462
 20
-5.282842712474619
 10
112.71715728752538
 20
-4.717157287525381
 10
118.71715755215202
 20
1.282842977101249
 10
119.28284297710125
 20
0.7171575521520108
 10
113.28284271247462
 20
-5.282842712474619
  0
LWPOLYLINE
  5
246
330
17
100
AcDbEntity
  8
STRUT_OUTLINE
100
AcDbPolyline
 90
5
 70
1
 10
119.28284297710125
 20
6.7171575521520115
 10
118.71715755215202
 20
7.282842977101248
 10
124.71715728752538
 20
13.282842712474618
 10
125.28284271247462
 20
12.717157287525382
 10
119.28284297710125
 20
6.7171575521520115
  0
LWPOLYLINE
  5
247
330
17
100
AcDbEntity
  8
STRUT_OUTLINE
100
AcDbPolyline
 90
5
 70
1
 10
113.2828425346211
 20
0.7171571096718622
 10
112.71715710967186
 20
1.2828425346211008
 10
118.71715755215202
 20
7.282842977101249
 10
119.28284297710125
 20
6.717157552152011
 10
113.2828425346211
 20
0.7171571096718622
  0
LWPOLYLINE
  5
248
330
17
100
AcDbEntity
  8
STRUT_OUTLINE
100
AcDbPolyline
 90
5
 70
1
 10
107.28284279924773
 20
-5.282842625701509
 10
106.7171573742985
 20
-4.717157200752272
 10
112.71715710967186
 20
1.2828425346211003
 10
113.2828425346211
 20
0.7171571096718625
 10
107.28284279924773
 20
-5.282842625701509
  0
LWPOLYLINE
  5
249
330
17
100
AcDbEntity
  8
TRUSS_CHORD
100
AcDbPolyline
 90
5
 70
1
 10
0.5999999999999999
 20
1.0
 10
1.4000000000000001
 20
1.0
 10
1.4000000000000001
 20
-5.0
 10
0.5999999999999999
 20
-5.0
 10
0.5999999999999999
 20
1.0
  0
LWPOLYLINE
  5
24A
330
17
100
AcDbEntity
  8
TRUSS_CHORD
100
AcDbPolyline
 90
5
 70
1
 10
0.5999999999999999
 20
7.0
 10
1.4000000000000001
 20
7.0
 10
1.4000000000000001
 20
1.0
 10
0.5999999999999999
 20
1.0
 10
0.5999999999999999
 20
7.0
  0
LWPOLYLINE
  5
24B
330
17
100
AcDbEntity
  8
TRUSS_CHORD
100
AcDbPolyline
 90
5
 70
1
 10
0.6
 20
18.75
 10
1.4
 20
18.75
 10
1.4
 20
7.0
 10
0.6
 20
7.0
 10
0.6
 20
18.75
  0
LWPOLYLINE
  5
24C
330
17
100
AcDbEntity
  8
TRUSS_CHORD
100
AcDbPolyline
 90
5
 70
1
 10
0.6
 20
30.25
 10
1.4
 20
30.25
 10
1.4
 20
18.75
 10
0.6
 20
18.75
 10
0.6
 20
30.25
  0
LWPOLYLINE
  5
24D
330
17
100
AcDbEntity
  8
TRUSS_CHORD
100
AcDbPolyline
 90
5
 70
1
 10
0.6
 20
36.0
 10
1.4
 20
36.0
 10
1.4
 20
30.25
 10
0.6
 20
30.25
 10
0.6
 20
36.0
  0
LWPOLYLINE
  5
24E
330
17
100
AcDbEntity
  8
TRUSS_CHORD
100
AcDbPolyline
 90
5
 70
1
 10
0.6
 20
40.0
 10
1.4
 20
40.0
 10
1.4
 20
36.0
 10
0.6
 20
36.0
 10
0.6
 20
40.0
  0
LWPOLYLINE
  5
24F
330
17
100
AcDbEntity
  8
TRUSS_CHORD
100
AcDbPolyline
 90
5
 70
1
 10
0.6
 20
43.99999999999999
 10
1.4
 20
43.99999999999999
 10
1.4
 20
40.0
 10
0.6
 20
40.0
 10
0.6
 20
43.99999999999999
  0
LWPOLYLINE
  5
250
330
17
100
AcDbEntity
  8
TRUSS_CHORD
100
AcDbPolyline
 90
5
 70
1
 10
0.6
 20
49.74999999999999
 10
1.4
 20
49.74999999999999
 10
1.4
 20
43.99999999999999
 10
0.6
 20
43.99999999999999
 10
0.6
 20
49.74999999999999
  0
LWPOLYLINE
  5
251
330
17
100
AcDbEntity
  8
TRUSS_CHORD
100
AcDbPolyline
 90
5
 70
1
 10
0.6
 20
61.24999999999999
 10
1.4
 20
61.24999999999999
 10
1.4
 20
49.74999999999999
 10
0.6
 20
49.74999999999999
 10
0.6
 20
61.24999999999999
  0
LWPOLYLINE
  5
252
330
17
100
AcDbEntity
  8
TRUSS_CHORD
100
AcDbPolyline
 90
5
 70
1
 10
0.6
 20
73.0
 10
1.4
 20
73.0
 10
1.4
 20
61.24999999999999
 10
0.6
 20
61.24999999999999
 10
0.6
 20
73.0
  0
LWPOLYLINE
  5
253
330
17
100
AcDbEntity
  8
TRUSS_CHORD
100
AcDbPolyline
 90
5
 70
1
 10
0.5999999999999999
 20
79.0
 10
1.4000000000000001
 20
79.0
 10
1.4000000000000001
 20
73.0
 10
0.5999999999999999
 20
73.0
 10
0.5999999999999999
 20
79.0
  0
LWPOLYLINE
  5
254
330
17
100
AcDbEntity
  8
TRUSS_CHORD
100
AcDbPolyline
 90
5
 70
1
 10
0.5999999999999999
 20
85.0
 10
1.4000000000000001
 20
85.0
 10
1.4000000000000001
 20
79.0
 10
0.5999999999999999
 20
79.0
 10
0.5999999999999999
 20
85.0
  0
LWPOLYLINE
  5
255
330
17
100
AcDbEntity
  8
TRUSS_CHORD
100
AcDbPolyline
 90
5
 70
1
 10
0.9999999999999991
 20
79.4
 10
0.9999999999999991
 20
78.6
 10
-5.0
 20
78.6
 10
-5.0
 20
79.4
 10
0.9999999999999991
 20
79.4
  0
LWPOLYLINE
  5
256
330
17
100
AcDbEntity
  8
TRUSS_CHORD
100
AcDbPolyline
 90
5
 70
1
 10
6.999999999999998
 20
79.4
 10
6.999999999999998
 20
78.6
 10
0.9999999999999991
 20
78.6
 10
0.9999999999999991
 20
79.4
 10
6.999999999999998
 20
79.4
  0
LWPOLYLINE
  5
257
330
17
100
AcDbEntity
  8
TRUSS_CHORD
100
AcDbPolyline
 90
5
 70
1
 10
18.333333
 20
79.4
 10
18.333333
 20
78.6
 10
6.999999999999998
 20
78.6
 10
6.999999999999998
 20
79.4
 10
18.333333
 20
79.4
  0
LWPOLYLINE
  5
258
330
17
100
AcDbEntity
  8
TRUSS_CHORD
100
AcDbPolyline
 90
5
 70
1
 10
29.0
 20
79.4
 10
29.0
 20
78.6
 10
18.333333
 20
78.6
 10
18.333333
 20
79.4
 10
29.0
 20
79.4
  0
LWPOLYLINE
  5
259
330
17
100
AcDbEntity
  8
TRUSS_CHORD
100
AcDbPolyline
 90
5
 70
1
 10
34.333333
 20
79.4
 10
34.333333
 20
78.6
 10
29.0
 20
78.6
 10
29.0
 20
79.4
 10
34.333333
 20
79.4
  0
LWPOLYLINE
  5
25A
330
17
100
AcDbEntity
  8
TRUSS_CHORD
100
AcDbPolyline
 90
5
 70
1
 10
38.333333
 20
79.4
 10
38.333333
 20
78.6
 10
34.333333
 20
78.6
 10
34.333333
 20
79.4
 10
38.333333
 20
79.4
  0
LWPOLYLINE
  5
25B
330
17
100
AcDbEntity
  8
TRUSS_CHORD
100
AcDbPolyline
 90
5
 70
1
 10
42.333333
 20
79.4
 10
42.333333
 20
78.6
 10
38.333333
 20
78.6
 10
38.333333
 20
79.4
 10
42.333333
 20
79.4
  0
LWPOLYLINE
  5
25C
330
17
100
AcDbEntity
  8
TRUSS_CHORD
100
AcDbPolyline
 90
5
 70
1
 10
48.222222
 20
79.4
 10
48.222222
 20
78.6
 10
42.333333
 20
78.6
 10
42.333333
 20
79.4
 10
48.222222
 20
79.4
  0
LWPOLYLINE
  5
25D
330
17
100
AcDbEntity
  8
TRUSS_CHORD
100
AcDbPolyline
 90
5
 70
1
 10
60.0
 20
79.4
 10
60.0
 20
78.6
 10
48.222222
 20
78.6
 10
48.222222
 20
79.4
 10
60.0
 20
79.4
  0
LWPOLYLINE
  5
25E
330
17
100
AcDbEntity
  8
TRUSS_CHORD
100
AcDbPolyline
 90
5
 70
1
 10
71.77777800000001
 20
79.4
 10
71.77777800000001
 20
78.6
 10
60.0
 20
78.6
 10
60.0
 20
79.4
 10
71.77777800000001
 20
79.4
  0
LWPOLYLINE
  5
25F
330
17
100
AcDbEntity
  8
TRUSS_CHORD
100
AcDbPolyline
 90
5
 70
1
 10
77.666667
 20
79.4
 10
77.666667
 20
78.6
 10
71.77777800000001
 20
78.6
 10
71.77777800000001
 20
79.4
 10
77.666667
 20
79.4
  0
LWPOLYLINE
  5
260
330
17
100
AcDbEntity
  8
TRUSS_CHORD
100
AcDbPolyline
 90
5
 70
1
 10
81.666667
 20
79.4
 10
81.666667
 20
78.6
 10
77.666667
 20
78.6
 10
77.666667
 20
79.4
 10
81.666667
 20
79.4
  0
LWPOLYLINE
  5
261
330
17
100
AcDbEntity
  8
TRUSS_CHORD
100
AcDbPolyline
 90
5
 70
1
 10
85.666667
 20
79.4
 10
85.666667
 20
78.6
 10
81.666667
 20
78.6
 10
81.666667
 20
79.4
 10
85.666667
 20
79.4
  0
LWPOLYLINE
  5
262
330
17
100
AcDbEntity
  8
TRUSS_CHORD
100
AcDbPolyline
 90
5
 70
1
 10
91.0
 20
79.4
 10
91.0
 20
78.6
 10
85.666667
 20
78.6
 10
85.666667
 20
79.4
 10
91.0
 20
79.4
  0
LWPOLYLINE
  5
263
330
17
100
AcDbEntity
  8
TRUSS_CHORD
100
AcDbPolyline
 90
5
 70
1
 10
101.666667
 20
79.4
 10
101.666667
 20
78.6
 10
91.0
 20
78.6
 10
91.0
 20
79.4
 10
101.666667
 20
79.4
  0
LWPOLYLINE
  5
264
330
17
100
AcDbEntity
  8
TRUSS_CHORD
100
AcDbPolyline
 90
5
 70
1
 10
113.0
 20
79.4
 10
113.0
 20
78.6
 10
101.666667
 20
78.6
 10
101.666667
 20
79.4
 10
113.0
 20
79.4
  0
LWPOLYLINE
  5
265
330
17
100
AcDbEntity
  8
TRUSS_CHORD
100
AcDbPolyline
 90
5
 70
1
 10
119.0
 20
79.4
 10
119.0
 20
78.6
 10
113.0
 20
78.6
 10
113.0
 20
79.4
 10
119.0
 20
79.4
  0
LWPOLYLINE
  5
266
330
17
100
AcDbEntity
  8
TRUSS_CHORD
100
AcDbPolyline
 90
5
 70
1
 10
125.0
 20
79.4
 10
125.0
 20
78.6
 10
119.0
 20
78.6
 10
119.0
 20
79.4
 10
125.0
 20
79.4
  0
LWPOLYLINE
  5
267
330
17
100
AcDbEntity
  8
TRUSS_CHORD
100
AcDbPolyline
 90
5
 70
1
 10
119.4
 20
79.0
 10
118.6
 20
79.0
 10
118.6
 20
85.0
 10
119.4
 20
85.0
 10
119.4
 20
79.0
  0
LWPOLYLINE
  5
268
330
17
100
AcDbEntity
  8
TRUSS_CHORD
100
AcDbPolyline
 90
5
 70
1
 10
119.4
 20
73.0
 10
118.6
 20
73.0
 10
118.6
 20
79.0
 10
119.4
 20
79.0
 10
119.4
 20
73.0
  0
LWPOLYLINE
  5
269
330
17
100
AcDbEntity
  8
TRUSS_CHORD
100
AcDbPolyline
 90
5
 70
1
 10
119.4
 20
61.25
 10
118.6
 20
61.25
 10
118.6
 20
73.0
 10
119.4
 20
73.0
 10
119.4
 20
61.25
  0
LWPOLYLINE
  5
26A
330
17
100
AcDbEntity
  8
TRUSS_CHORD
100
AcDbPolyline
 90
5
 70
1
 10
119.4
 20
49.75
 10
118.6
 20
49.75
 10
118.6
 20
61.25
 10
119.4
 20
61.25
 10
119.4
 20
49.75
  0
LWPOLYLINE
  5
26B
330
17
100
AcDbEntity
  8
TRUSS_CHORD
100
AcDbPolyline
 90
5
 70
1
 10
119.4
 20
44.0
 10
118.6
 20
44.0
 10
118.6
 20
49.75
 10
119.4
 20
49.75
 10
119.4
 20
44.0
  0
LWPOLYLINE
  5
26C
330
17
100
AcDbEntity
  8
TRUSS_CHORD
100
AcDbPolyline
 90
5
 70
1
 10
119.4
 20
40.0
 10
118.6
 20
40.0
 10
118.6
 20
44.0
 10
119.4
 20
44.0
 10
119.4
 20
40.0
  0
LWPOLYLINE
  5
26D
330
17
100
AcDbEntity
  8
TRUSS_CHORD
100
AcDbPolyline
 90
5
 70
1
 10
119.4
 20
36.00000000000001
 10
118.6
 20
36.00000000000001
 10
118.6
 20
40.0
 10
119.4
 20
40.0
 10
119.4
 20
36.00000000000001
  0
LWPOLYLINE
  5
26E
330
17
100
AcDbEntity
  8
TRUSS_CHORD
100
AcDbPolyline
 90
5
 70
1
 10
119.4
 20
30.250000000000007
 10
118.6
 20
30.250000000000007
 10
118.6
 20
36.00000000000001
 10
119.4
 20
36.00000000000001
 10
119.4
 20
30.250000000000007
  0
LWPOLYLINE
  5
26F
330
17
100
AcDbEntity
  8
TRUSS_CHORD
100
AcDbPolyline
 90
5
 70
1
 10
119.4
 20
18.750000000000007
 10
118.6
 20
18.750000000000007
 10
118.6
 20
30.250000000000007
 10
119.4
 20
30.250000000000007
 10
119.4
 20
18.750000000000007
  0
LWPOLYLINE
  5
270
330
17
100
AcDbEntity
  8
TRUSS_CHORD
100
AcDbPolyline
 90
5
 70
1
 10
119.4
 20
7.000000000000007
 10
118.6
 20
7.000000000000007
 10
118.6
 20
18.750000000000007
 10
119.4
 20
18.750000000000007
 10
119.4
 20
7.000000000000007
  0
LWPOLYLINE
  5
271
330
17
100
AcDbEntity
  8
TRUSS_CHORD
100
AcDbPolyline
 90
5
 70
1
 10
119.4
 20
1.000000000000007
 10
118.6
 20
1.000000000000007
 10
118.6
 20
7.000000000000007
 10
119.4
 20
7.000000000000007
 10
119.4
 20
1.000000000000007
  0
LWPOLYLINE
  5
272
330
17
100
AcDbEntity
  8
TRUSS_CHORD
100
AcDbPolyline
 90
5
 70
1
 10
119.4
 20
-4.999999999999993
 10
118.6
 20
-4.999999999999993
 10
118.6
 20
1.000000000000007
 10
119.4
 20
1.000000000000007
 10
119.4
 20
-4.999999999999993
  0
LWPOLYLINE
  5
273
330
17
100
AcDbEntity
  8
TRUSS_CHORD
100
AcDbPolyline
 90
5
 70
1
 10
119.0
 20
0.5999999999999999
 10
119.0
 20
1.4000000000000001
 10
125.0
 20
1.4000000000000001
 10
125.0
 20
0.5999999999999999
 10
119.0
 20
0.5999999999999999
  0
LWPOLYLINE
  5
274
330
17
100
AcDbEntity
  8
TRUSS_CHORD
100
AcDbPolyline
 90
5
 70
1
 10
113.0
 20
0.5999999999999999
 10
113.0
 20
1.4000000000000001
 10
119.0
 20
1.4000000000000001
 10
119.0
 20
0.5999999999999999
 10
113.0
 20
0.5999999999999999
  0
LWPOLYLINE
  5
275
330
17
100
AcDbEntity
  8
TRUSS_CHORD
100
AcDbPolyline
 90
5
 70
1
 10
101.666667
 20
0.6
 10
101.666667
 20
1.4
 10
113.0
 20
1.4
 10
113.0
 20
0.6
 10
101.666667
 20
0.6
  0
LWPOLYLINE
  5
276
330
17
100
AcDbEntity
  8
TRUSS_CHORD
100
AcDbPolyline
 90
5
 70
1
 10
91.0
 20
0.6
 10
91.0
 20
1.4
 10
101.666667
 20
1.4
 10
101.666667
 20
0.6
 10
91.0
 20
0.6
  0
LWPOLYLINE
  5
277
330
17
100
AcDbEntity
  8
TRUSS_CHORD
100
AcDbPolyline
 90
5
 70
1
 10
85.66666699999999
 20
0.6000000000000001
 10
85.66666699999999
 20
1.4
 10
91.0
 20
1.4
 10
91.0
 20
0.6000000000000001
 10
85.66666699999999
 20
0.6000000000000001
  0
LWPOLYLINE
  5
278
330
17
100
AcDbEntity
  8
TRUSS_CHORD
100
AcDbPolyline
 90
5
 70
1
 10
81.66666699999999
 20
0.6
 10
81.66666699999999
 20
1.4
 10
85.66666699999999
 20
1.4
 10
85.66666699999999
 20
0.6
 10
81.66666699999999
 20
0.6
  0
LWPOLYLINE
  5
279
330
17
100
AcDbEntity
  8
TRUSS_CHORD
100
AcDbPolyline
 90
5
 70
1
 10
77.66666699999999
 20
0.6
 10
77.66666699999999
 20
1.4
 10
81.66666699999999
 20
1.4
 10
81.66666699999999
 20
0.6
 10
77.66666699999999
 20
0.6
  0
LWPOLYLINE
  5
27A
330
17
100
AcDbEntity
  8
TRUSS_CHORD
100
AcDbPolyline
 90
5
 70
1
 10
71.77777799999998
 20
0.6
 10
71.77777799999998
 20
1.4
 10
77.66666699999999
 20
1.4
 10
77.66666699999999
 20
0.6
 10
71.77777799999998
 20
0.6
  0
LWPOLYLINE
  5
27B
330
17
100
AcDbEntity
  8
TRUSS_CHORD
100
AcDbPolyline
 90
5
 70
1
 10
59.999999999999986
 20
0.6
 10
59.999999999999986
 20
1.4
 10
71.77777799999998
 20
1.4
 10
71.77777799999998
 20
0.6
 10
59.999999999999986
 20
0.6
  0
LWPOLYLINE
  5
27C
330
17
100
AcDbEntity
  8
TRUSS_CHORD
100
AcDbPolyline
 90
5
 70
1
 10
48.22222199999999
 20
0.6
 10
48.22222199999999
 20
1.4
 10
59.999999999999986
 20
1.4
 10
59.999999999999986
 20
0.6
 10
48.22222199999999
 20
0.6
  0
LWPOLYLINE
  5
27D
330
17
100
AcDbEntity
  8
TRUSS_CHORD
100
AcDbPolyline
 90
5
 70
1
 10
42.333332999999996
 20
0.6000000000000001
 10
42.333332999999996
 20
1.4
 10
48.22222199999999
 20
1.4
 10
48.22222199999999
 20
0.6000000000000001
 10
42.333332999999996
 20
0.6000000000000001
  0
LWPOLYLINE
  5
27E
330
17
100
AcDbEntity
  8
TRUSS_CHORD
100
AcDbPolyline
 90
5
 70
1
 10
38.333332999999996
 20
0.6
 10
38.333332999999996
 20
1.4
 10
42.333332999999996
 20
1.4
 10
42.333332999999996
 20
0.6
 10
38.333332999999996
 20
0.6
  0
LWPOLYLINE
  5
27F
330
17
100
AcDbEntity
  8
TRUSS_CHORD
100
AcDbPolyline
 90
5
 70
1
 10
34.333332999999996
 20
0.6
 10
34.333332999999996
 20
1.4
 10
38.333332999999996
 20
1.4
 10
38.333332999999996
 20
0.6
 10
34.333332999999996
 20
0.6
  0
LWPOLYLINE
  5
280
330
17
100
AcDbEntity
  8
TRUSS_CHORD
100
AcDbPolyline
 90
5
 70
1
 10
28.999999999999996
 20
0.6
 10
28.999999999999996
 20
1.4
 10
34.333332999999996
 20
1.4
 10
34.333332999999996
 20
0.6
 10
28.999999999999996
 20
0.6
  0
LWPOLYLINE
  5
281
330
17
100
AcDbEntity
  8
TRUSS_CHORD
100
AcDbPolyline
 90
5
 70
1
 10
18.333332999999996
 20
0.6
 10
18.333332999999996
 20
1.4
 10
28.999999999999996
 20
1.4
 10
28.999999999999996
 20
0.6
 10
18.333332999999996
 20
0.6
  0
LWPOLYLINE
  5
282
330
17
100
AcDbEntity
  8
TRUSS_CHORD
100
AcDbPolyline
 90
5
 70
1
 10
6.9999999999999964
 20
0.6
 10
6.9999999999999964
 20
1.4
 10
18.333332999999996
 20
1.4
 10
18.333332999999996
 20
0.6
 10
6.9999999999999964
 20
0.6
  0
LWPOLYLINE
  5
283
330
17
100
AcDbEntity
  8
TRUSS_CHORD
100
AcDbPolyline
 90
5
 70
1
 10
0.9999999999999929
 20
0.6
 10
0.9999999999999929
 20
1.4
 10
6.9999999999999964
 20
1.4
 10
6.9999999999999964
 20
0.6
 10
0.9999999999999929
 20
0.6
  0
LWPOLYLINE
  5
284
330
17
100
AcDbEntity
  8
TRUSS_CHORD
100
AcDbPolyline
 90
5
 70
1
 10
-5.0
 20
0.6
 10
-5.0
 20
1.4
 10
0.9999999999999929
 20
1.4
 10
0.9999999999999929
 20
0.6
 10
-5.0
 20
0.6
  0
LWPOLYLINE
  5
285
330
17
100
AcDbEntity
  8
PILLAR
100
AcDbPolyline
 90
4
 70
1
 10
33.933333000000005
 20
35.6
 10
34.733333
 20
35.6
 10
34.733333
 20
36.4
 10
33.933333000000005
 20
36.4
  0
LWPOLYLINE
  5
286
330
17
100
AcDbEntity
  8
PILLAR
100
AcDbPolyline
 90
4
 70
1
 10
33.933333000000005
 20
43.6
 10
34.733333
 20
43.6
 10
34.733333
 20
44.4
 10
33.933333000000005
 20
44.4
  0
LWPOLYLINE
  5
287
330
17
100
AcDbEntity
  8
PILLAR
100
AcDbPolyline
 90
4
 70
1
 10
41.933333000000005
 20
35.6
 10
42.733333
 20
35.6
 10
42.733333
 20
36.4
 10
41.933333000000005
 20
36.4
  0
LWPOLYLINE
  5
288
330
17
100
AcDbEntity
  8
PILLAR
100
AcDbPolyline
 90
4
 70
1
 10
41.933333000000005
 20
43.6
 10
42.733333
 20
43.6
 10
42.733333
 20
44.4
 10
41.933333000000005
 20
44.4
  0
LWPOLYLINE
  5
289
330
17
100
AcDbEntity
  8
PILLAR
100
AcDbPolyline
 90
4
 70
1
 10
77.266667
 20
35.6
 10
78.06666700000001
 20
35.6
 10
78.06666700000001
 20
36.4
 10
77.266667
 20
36.4
  0
LWPOLYLINE
  5
28A
330
17
100
AcDbEntity
  8
PILLAR
100
AcDbPolyline
 90
4
 70
1
 10
77.266667
 20
43.6
 10
78.06666700000001
 20
43.6
 10
78.06666700000001
 20
44.4
 10
77.266667
 20
44.4
  0
LWPOLYLINE
  5
28B
330
17
100
AcDbEntity
  8
PILLAR
100
AcDbPolyline
 90
4
 70
1
 10
85.266667
 20
35.6
 10
86.06666700000001
 20
35.6
 10
86.06666700000001
 20
36.4
 10
85.266667
 20
36.4
  0
LWPOLYLINE
  5
28C
330
17
100
AcDbEntity
  8
PILLAR
100
AcDbPolyline
 90
4
 70
1
 10
85.266667
 20
43.6
 10
86.06666700000001
 20
43.6
 10
86.06666700000001
 20
44.4
 10
85.266667
 20
44.4
  0
CIRCLE
  5
28D
330
17
100
AcDbEntity
  8
DEBUG_NODE
100
AcDbCircle
 10
-5.0
 20
-5.0
 30
0.0
 40
0.12
  0
CIRCLE
  5
28E
330
17
100
AcDbEntity
  8
DEBUG_NODE
100
AcDbCircle
 10
34.333333
 20
-5.0
 30
0.0
 40
0.12
  0
CIRCLE
  5
28F
330
17
100
AcDbEntity
  8
DEBUG_NODE
100
AcDbCircle
 10
34.333333
 20
85.0
 30
0.0
 40
0.12
  0
CIRCLE
  5
290
330
17
100
AcDbEntity
  8
DEBUG_NODE
100
AcDbCircle
 10
42.333333
 20
-5.0
 30
0.0
 40
0.12
  0
CIRCLE
  5
291
330
17
100
AcDbEntity
  8
DEBUG_NODE
100
AcDbCircle
 10
42.333333
 20
85.0
 30
0.0
 40
0.12
  0
CIRCLE
  5
292
330
17
100
AcDbEntity
  8
DEBUG_NODE
100
AcDbCircle
 10
77.666667
 20
-5.0
 30
0.0
 40
0.12
  0
CIRCLE
  5
293
330
17
100
AcDbEntity
  8
DEBUG_NODE
100
AcDbCircle
 10
77.666667
 20
85.0
 30
0.0
 40
0.12
  0
CIRCLE
  5
294
330
17
100
AcDbEntity
  8
DEBUG_NODE
100
AcDbCircle
 10
85.666667
 20
-5.0
 30
0.0
 40
0.12
  0
CIRCLE
  5
295
330
17
100
AcDbEntity
  8
DEBUG_NODE
100
AcDbCircle
 10
85.666667
 20
85.0
 30
0.0
 40
0.12
  0
CIRCLE
  5
296
330
17
100
AcDbEntity
  8
DEBUG_NODE
100
AcDbCircle
 10
-5.0
 20
36.0
 30
0.0
 40
0.12
  0
CIRCLE
  5
297
330
17
100
AcDbEntity
  8
DEBUG_NODE
100
AcDbCircle
 10
125.0
 20
36.0
 30
0.0
 40
0.12
  0
CIRCLE
  5
298
330
17
100
AcDbEntity
  8
DEBUG_NODE
100
AcDbCircle
 10
-5.0
 20
44.0
 30
0.0
 40
0.12
  0
CIRCLE
  5
299
330
17
100
AcDbEntity
  8
DEBUG_NODE
100
AcDbCircle
 10
125.0
 20
44.0
 30
0.0
 40
0.12
  0
CIRCLE
  5
29A
330
17
100
AcDbEntity
  8
DEBUG_NODE
100
AcDbCircle
 10
34.333333
 20
36.0
 30
0.0
 40
0.12
  0
CIRCLE
  5
29B
330
17
100
AcDbEntity
  8
DEBUG_NODE
100
AcDbCircle
 10
34.333333
 20
44.0
 30
0.0
 40
0.12
  0
CIRCLE
  5
29C
330
17
100
AcDbEntity
  8
DEBUG_NODE
100
AcDbCircle
 10
42.333333
 20
36.0
 30
0.0
 40
0.12
  0
CIRCLE
  5
29D
330
17
100
AcDbEntity
  8
DEBUG_NODE
100
AcDbCircle
 10
42.333333
 20
44.0
 30
0.0
 40
0.12
  0
CIRCLE
  5
29E
330
17
100
AcDbEntity
  8
DEBUG_NODE
100
AcDbCircle
 10
77.666667
 20
36.0
 30
0.0
 40
0.12
  0
CIRCLE
  5
29F
330
17
100
AcDbEntity
  8
DEBUG_NODE
100
AcDbCircle
 10
77.666667
 20
44.0
 30
0.0
 40
0.12
  0
CIRCLE
  5
2A0
330
17
100
AcDbEntity
  8
DEBUG_NODE
100
AcDbCircle
 10
85.666667
 20
36.0
 30
0.0
 40
0.12
  0
CIRCLE
  5
2A1
330
17
100
AcDbEntity
  8
DEBUG_NODE
100
AcDbCircle
 10
85.666667
 20
44.0
 30
0.0
 40
0.12
  0
CIRCLE
  5
2A2
330
17
100
AcDbEntity
  8
DEBUG_NODE
100
AcDbCircle
 10
1.0
 20
-5.0
 30
0.0
 40
0.12
  0
CIRCLE
  5
2A3
330
17
100
AcDbEntity
  8
DEBUG_NODE
100
AcDbCircle
 10
1.0
 20
85.0
 30
0.0
 40
0.12
  0
CIRCLE
  5
2A4
330
17
100
AcDbEntity
  8
DEBUG_NODE
100
AcDbCircle
 10
-5.0
 20
13.0
 30
0.0
 40
0.12
  0
CIRCLE
  5
2A5
330
17
100
AcDbEntity
  8
DEBUG_NODE
100
AcDbCircle
 10
1.0
 20
18.75
 30
0.0
 40
0.12
  0
CIRCLE
  5
2A6
330
17
100
AcDbEntity
  8
DEBUG_NODE
100
AcDbCircle
 10
-5.0
 20
24.5
 30
0.0
 40
0.12
  0
CIRCLE
  5
2A7
330
17
100
AcDbEntity
  8
DEBUG_NODE
100
AcDbCircle
 10
1.0
 20
30.25
 30
0.0
 40
0.12
  0
CIRCLE
  5
2A8
330
17
100
AcDbEntity
  8
DEBUG_NODE
100
AcDbCircle
 10
1.0
 20
40.0
 30
0.0
 40
0.12
  0
CIRCLE
  5
2A9
330
17
100
AcDbEntity
  8
DEBUG_NODE
100
AcDbCircle
 10
1.0
 20
49.75
 30
0.0
 40
0.12
  0
CIRCLE
  5
2AA
330
17
100
AcDbEntity
  8
DEBUG_NODE
100
AcDbCircle
 10
-5.0
 20
55.5
 30
0.0
 40
0.12
  0
CIRCLE
  5
2AB
330
17
100
AcDbEntity
  8
DEBUG_NODE
100
AcDbCircle
 10
1.0
 20
61.25
 30
0.0
 40
0.12
  0
CIRCLE
  5
2AC
330
17
100
AcDbEntity
  8
DEBUG_NODE
100
AcDbCircle
 10
-5.0
 20
67.0
 30
0.0
 40
0.12
  0
CIRCLE
  5
2AD
330
17
100
AcDbEntity
  8
DEBUG_NODE
100
AcDbCircle
 10
-5.0
 20
79.0
 30
0.0
 40
0.12
  0
CIRCLE
  5
2AE
330
17
100
AcDbEntity
  8
DEBUG_NODE
100
AcDbCircle
 10
125.0
 20
79.0
 30
0.0
 40
0.12
  0
CIRCLE
  5
2AF
330
17
100
AcDbEntity
  8
DEBUG_NODE
100
AcDbCircle
 10
13.0
 20
85.0
 30
0.0
 40
0.12
  0
CIRCLE
  5
2B0
330
17
100
AcDbEntity
  8
DEBUG_NODE
100
AcDbCircle
 10
18.333333
 20
79.0
 30
0.0
 40
0.12
  0
CIRCLE
  5
2B1
330
17
100
AcDbEntity
  8
DEBUG_NODE
100
AcDbCircle
 10
23.666667
 20
85.0
 30
0.0
 40
0.12
  0
CIRCLE
  5
2B2
330
17
100
AcDbEntity
  8
DEBUG_NODE
100
AcDbCircle
 10
29.0
 20
79.0
 30
0.0
 40
0.12
  0
CIRCLE
  5
2B3
330
17
100
AcDbEntity
  8
DEBUG_NODE
100
AcDbCircle
 10
38.333333
 20
79.0
 30
0.0
 40
0.12
  0
CIRCLE
  5
2B4
330
17
100
AcDbEntity
  8
DEBUG_NODE
100
AcDbCircle
 10
48.222222
 20
79.0
 30
0.0
 40
0.12
  0
CIRCLE
  5
2B5
330
17
100
AcDbEntity
  8
DEBUG_NODE
100
AcDbCircle
 10
54.111111
 20
85.0
 30
0.0
 40
0.12
  0
CIRCLE
  5
2B6
330
17
100
AcDbEntity
  8
DEBUG_NODE
100
AcDbCircle
 10
60.0
 20
79.0
 30
0.0
 40
0.12
  0
CIRCLE
  5
2B7
330
17
100
AcDbEntity
  8
DEBUG_NODE
100
AcDbCircle
 10
65.888889
 20
85.0
 30
0.0
 40
0.12
  0
CIRCLE
  5
2B8
330
17
100
AcDbEntity
  8
DEBUG_NODE
100
AcDbCircle
 10
71.777778
 20
79.0
 30
0.0
 40
0.12
  0
CIRCLE
  5
2B9
330
17
100
AcDbEntity
  8
DEBUG_NODE
100
AcDbCircle
 10
81.666667
 20
79.0
 30
0.0
 40
0.12
  0
CIRCLE
  5
2BA
330
17
100
AcDbEntity
  8
DEBUG_NODE
100
AcDbCircle
 10
91.0
 20
79.0
 30
0.0
 40
0.12
  0
CIRCLE
  5
2BB
330
17
100
AcDbEntity
  8
DEBUG_NODE
100
AcDbCircle
 10
96.333334
 20
85.0
 30
0.0
 40
0.12
  0
CIRCLE
  5
2BC
330
17
100
AcDbEntity
  8
DEBUG_NODE
100
AcDbCircle
 10
101.666667
 20
79.0
 30
0.0
 40
0.12
  0
CIRCLE
  5
2BD
330
17
100
AcDbEntity
  8
DEBUG_NODE
100
AcDbCircle
 10
107.0
 20
85.0
 30
0.0
 40
0.12
  0
CIRCLE
  5
2BE
330
17
100
AcDbEntity
  8
DEBUG_NODE
100
AcDbCircle
 10
119.0
 20
85.0
 30
0.0
 40
0.12
  0
CIRCLE
  5
2BF
330
17
100
AcDbEntity
  8
DEBUG_NODE
100
AcDbCircle
 10
119.0
 20
-5.0
 30
0.0
 40
0.12
  0
CIRCLE
  5
2C0
330
17
100
AcDbEntity
  8
DEBUG_NODE
100
AcDbCircle
 10
125.0
 20
67.0
 30
0.0
 40
0.12
  0
CIRCLE
  5
2C1
330
17
100
AcDbEntity
  8
DEBUG_NODE
100
AcDbCircle
 10
119.0
 20
61.25
 30
0.0
 40
0.12
  0
CIRCLE
  5
2C2
330
17
100
AcDbEntity
  8
DEBUG_NODE
100
AcDbCircle
 10
125.0
 20
55.5
 30
0.0
 40
0.12
  0
CIRCLE
  5
2C3
330
17
100
AcDbEntity
  8
DEBUG_NODE
100
AcDbCircle
 10
119.0
 20
49.75
 30
0.0
 40
0.12
  0
CIRCLE
  5
2C4
330
17
100
AcDbEntity
  8
DEBUG_NODE
100
AcDbCircle
 10
119.0
 20
40.0
 30
0.0
 40
0.12
  0
CIRCLE
  5
2C5
330
17
100
AcDbEntity
  8
DEBUG_NODE
100
AcDbCircle
 10
119.0
 20
30.25
 30
0.0
 40
0.12
  0
CIRCLE
  5
2C6
330
17
100
AcDbEntity
  8
DEBUG_NODE
100
AcDbCircle
 10
125.0
 20
24.5
 30
0.0
 40
0.12
  0
CIRCLE
  5
2C7
330
17
100
AcDbEntity
  8
DEBUG_NODE
100
AcDbCircle
 10
119.0
 20
18.75
 30
0.0
 40
0.12
  0
CIRCLE
  5
2C8
330
17
100
AcDbEntity
  8
DEBUG_NODE
100
AcDbCircle
 10
125.0
 20
13.0
 30
0.0
 40
0.12
  0
CIRCLE
  5
2C9
330
17
100
AcDbEntity
  8
DEBUG_NODE
100
AcDbCircle
 10
125.0
 20
1.0
 30
0.0
 40
0.12
  0
CIRCLE
  5
2CA
330
17
100
AcDbEntity
  8
DEBUG_NODE
100
AcDbCircle
 10
-5.0
 20
1.0
 30
0.0
 40
0.12
  0
CIRCLE
  5
2CB
330
17
100
AcDbEntity
  8
DEBUG_NODE
100
AcDbCircle
 10
107.0
 20
-5.0
 30
0.0
 40
0.12
  0
CIRCLE
  5
2CC
330
17
100
AcDbEntity
  8
DEBUG_NODE
100
AcDbCircle
 10
101.666667
 20
1.0
 30
0.0
 40
0.12
  0
CIRCLE
  5
2CD
330
17
100
AcDbEntity
  8
DEBUG_NODE
100
AcDbCircle
 10
96.333334
 20
-5.0
 30
0.0
 40
0.12
  0
CIRCLE
  5
2CE
330
17
100
AcDbEntity
  8
DEBUG_NODE
100
AcDbCircle
 10
91.0
 20
1.0
 30
0.0
 40
0.12
  0
CIRCLE
  5
2CF
330
17
100
AcDbEntity
  8
DEBUG_NODE
100
AcDbCircle
 10
81.666667
 20
1.0
 30
0.0
 40
0.12
  0
CIRCLE
  5
2D0
330
17
100
AcDbEntity
  8
DEBUG_NODE
100
AcDbCircle
 10
71.777778
 20
1.0
 30
0.0
 40
0.12
  0
CIRCLE
  5
2D1
330
17
100
AcDbEntity
  8
DEBUG_NODE
100
AcDbCircle
 10
65.888889
 20
-5.0
 30
0.0
 40
0.12
  0
CIRCLE
  5
2D2
330
17
100
AcDbEntity
  8
DEBUG_NODE
100
AcDbCircle
 10
60.0
 20
1.0
 30
0.0
 40
0.12
  0
CIRCLE
  5
2D3
330
17
100
AcDbEntity
  8
DEBUG_NODE
100
AcDbCircle
 10
54.111111
 20
-5.0
 30
0.0
 40
0.12
  0
CIRCLE
  5
2D4
330
17
100
AcDbEntity
  8
DEBUG_NODE
100
AcDbCircle
 10
48.222222
 20
1.0
 30
0.0
 40
0.12
  0
CIRCLE
  5
2D5
330
17
100
AcDbEntity
  8
DEBUG_NODE
100
AcDbCircle
 10
38.333333
 20
1.0
 30
0.0
 40
0.12
  0
CIRCLE
  5
2D6
330
17
100
AcDbEntity
  8
DEBUG_NODE
100
AcDbCircle
 10
29.0
 20
1.0
 30
0.0
 40
0.12
  0
CIRCLE
  5
2D7
330
17
100
AcDbEntity
  8
DEBUG_NODE
100
AcDbCircle
 10
23.666667
 20
-5.0
 30
0.0
 40
0.12
  0
CIRCLE
  5
2D8
330
17
100
AcDbEntity
  8
DEBUG_NODE
100
AcDbCircle
 10
18.333333
 20
1.0
 30
0.0
 40
0.12
  0
CIRCLE
  5
2D9
330
17
100
AcDbEntity
  8
DEBUG_NODE
100
AcDbCircle
 10
13.0
 20
-5.0
 30
0.0
 40
0.12
  0
CIRCLE
  5
2DA
330
17
100
AcDbEntity
  8
DEBUG_NODE
100
AcDbCircle
 10
7.0
 20
-5.0
 30
0.0
 40
0.12
  0
CIRCLE
  5
2DB
330
17
100
AcDbEntity
  8
DEBUG_NODE
100
AcDbCircle
 10
-5.0
 20
7.0
 30
0.0
 40
0.12
  0
CIRCLE
  5
2DC
330
17
100
AcDbEntity
  8
DEBUG_NODE
100
AcDbCircle
 10
7.0
 20
1.0
 30
0.0
 40
0.12
  0
CIRCLE
  5
2DD
330
17
100
AcDbEntity
  8
DEBUG_NODE
100
AcDbCircle
 10
1.0
 20
7.0
 30
0.0
 40
0.12
  0
CIRCLE
  5
2DE
330
17
100
AcDbEntity
  8
DEBUG_NODE
100
AcDbCircle
 10
-5.0
 20
73.0
 30
0.0
 40
0.12
  0
CIRCLE
  5
2DF
330
17
100
AcDbEntity
  8
DEBUG_NODE
100
AcDbCircle
 10
7.0
 20
85.0
 30
0.0
 40
0.12
  0
CIRCLE
  5
2E0
330
17
100
AcDbEntity
  8
DEBUG_NODE
100
AcDbCircle
 10
1.0
 20
73.0
 30
0.0
 40
0.12
  0
CIRCLE
  5
2E1
330
17
100
AcDbEntity
  8
DEBUG_NODE
100
AcDbCircle
 10
7.0
 20
79.0
 30
0.0
 40
0.12
  0
CIRCLE
  5
2E2
330
17
100
AcDbEntity
  8
DEBUG_NODE
100
AcDbCircle
 10
113.0
 20
85.0
 30
0.0
 40
0.12
  0
CIRCLE
  5
2E3
330
17
100
AcDbEntity
  8
DEBUG_NODE
100
AcDbCircle
 10
125.0
 20
73.0
 30
0.0
 40
0.12
  0
CIRCLE
  5
2E4
330
17
100
AcDbEntity
  8
DEBUG_NODE
100
AcDbCircle
 10
113.0
 20
79.0
 30
0.0
 40
0.12
  0
CIRCLE
  5
2E5
330
17
100
AcDbEntity
  8
DEBUG_NODE
100
AcDbCircle
 10
119.0
 20
73.0
 30
0.0
 40
0.12
  0
CIRCLE
  5
2E6
330
17
100
AcDbEntity
  8
DEBUG_NODE
100
AcDbCircle
 10
125.0
 20
7.0
 30
0.0
 40
0.12
  0
CIRCLE
  5
2E7
330
17
100
AcDbEntity
  8
DEBUG_NODE
100
AcDbCircle
 10
113.0
 20
-5.0
 30
0.0
 40
0.12
  0
CIRCLE
  5
2E8
330
17
100
AcDbEntity
  8
DEBUG_NODE
100
AcDbCircle
 10
119.0
 20
7.0
 30
0.0
 40
0.12
  0
CIRCLE
  5
2E9
330
17
100
AcDbEntity
  8
DEBUG_NODE
100
AcDbCircle
 10
113.0
 20
1.0
 30
0.0
 40
0.12
  0
CIRCLE
  5
2EA
330
17
100
AcDbEntity
  8
DEBUG_NODE
100
AcDbCircle
 10
34.333333
 20
6.25
 30
0.0
 40
0.12
  0
CIRCLE
  5
2EB
330
17
100
AcDbEntity
  8
DEBUG_NODE
100
AcDbCircle
 10
42.333333
 20
6.25
 30
0.0
 40
0.12
  0
CIRCLE
  5
2EC
330
17
100
AcDbEntity
  8
DEBUG_NODE
100
AcDbCircle
 10
34.333333
 20
17.5
 30
0.0
 40
0.12
  0
CIRCLE
  5
2ED
330
17
100
AcDbEntity
  8
DEBUG_NODE
100
AcDbCircle
 10
42.333333
 20
17.5
 30
0.0
 40
0.12
  0
CIRCLE
  5
2EE
330
17
100
AcDbEntity
  8
DEBUG_NODE
100
AcDbCircle
 10
34.333333
 20
28.75
 30
0.0
 40
0.12
  0
CIRCLE
  5
2EF
330
17
100
AcDbEntity
  8
DEBUG_NODE
100
AcDbCircle
 10
42.333333
 20
28.75
 30
0.0
 40
0.12
  0
CIRCLE
  5
2F0
330
17
100
AcDbEntity
  8
DEBUG_NODE
100
AcDbCircle
 10
34.333333
 20
51.25
 30
0.0
 40
0.12
  0
CIRCLE
  5
2F1
330
17
100
AcDbEntity
  8
DEBUG_NODE
100
AcDbCircle
 10
42.333333
 20
51.25
 30
0.0
 40
0.12
  0
CIRCLE
  5
2F2
330
17
100
AcDbEntity
  8
DEBUG_NODE
100
AcDbCircle
 10
34.333333
 20
62.5
 30
0.0
 40
0.12
  0
CIRCLE
  5
2F3
330
17
100
AcDbEntity
  8
DEBUG_NODE
100
AcDbCircle
 10
42.333333
 20
62.5
 30
0.0
 40
0.12
  0
CIRCLE
  5
2F4
330
17
100
AcDbEntity
  8
DEBUG_NODE
100
AcDbCircle
 10
34.333333
 20
73.75
 30
0.0
 40
0.12
  0
CIRCLE
  5
2F5
330
17
100
AcDbEntity
  8
DEBUG_NODE
100
AcDbCircle
 10
42.333333
 20
73.75
 30
0.0
 40
0.12
  0
CIRCLE
  5
2F6
330
17
100
AcDbEntity
  8
DEBUG_NODE
100
AcDbCircle
 10
77.666667
 20
6.25
 30
0.0
 40
0.12
  0
CIRCLE
  5
2F7
330
17
100
AcDbEntity
  8
DEBUG_NODE
100
AcDbCircle
 10
85.666667
 20
6.25
 30
0.0
 40
0.12
  0
CIRCLE
  5
2F8
330
17
100
AcDbEntity
  8
DEBUG_NODE
100
AcDbCircle
 10
77.666667
 20
17.5
 30
0.0
 40
0.12
  0
CIRCLE
  5
2F9
330
17
100
AcDbEntity
  8
DEBUG_NODE
100
AcDbCircle
 10
85.666667
 20
17.5
 30
0.0
 40
0.12
  0
CIRCLE
  5
2FA
330
17
100
AcDbEntity
  8
DEBUG_NODE
100
AcDbCircle
 10
77.666667
 20
28.75
 30
0.0
 40
0.12
  0
CIRCLE
  5
2FB
330
17
100
AcDbEntity
  8
DEBUG_NODE
100
AcDbCircle
 10
85.666667
 20
28.75
 30
0.0
 40
0.12
  0
CIRCLE
  5
2FC
330
17
100
AcDbEntity
  8
DEBUG_NODE
100
AcDbCircle
 10
77.666667
 20
51.25
 30
0.0
 40
0.12
  0
CIRCLE
  5
2FD
330
17
100
AcDbEntity
  8
DEBUG_NODE
100
AcDbCircle
 10
85.666667
 20
51.25
 30
0.0
 40
0.12
  0
CIRCLE
  5
2FE
330
17
100
AcDbEntity
  8
DEBUG_NODE
100
AcDbCircle
 10
77.666667
 20
62.5
 30
0.0
 40
0.12
  0
CIRCLE
  5
2FF
330
17
100
AcDbEntity
  8
DEBUG_NODE
100
AcDbCircle
 10
85.666667
 20
62.5
 30
0.0
 40
0.12
  0
CIRCLE
  5
300
330
17
100
AcDbEntity
  8
DEBUG_NODE
100
AcDbCircle
 10
77.666667
 20
73.75
 30
0.0
 40
0.12
  0
CIRCLE
  5
301
330
17
100
AcDbEntity
  8
DEBUG_NODE
100
AcDbCircle
 10
85.666667
 20
73.75
 30
0.0
 40
0.12
  0
CIRCLE
  5
302
330
17
100
AcDbEntity
  8
DEBUG_NODE
100
AcDbCircle
 10
4.833333
 20
36.0
 30
0.0
 40
0.12
  0
CIRCLE
  5
303
330
17
100
AcDbEntity
  8
DEBUG_NODE
100
AcDbCircle
 10
4.833333
 20
44.0
 30
0.0
 40
0.12
  0
CIRCLE
  5
304
330
17
100
AcDbEntity
  8
DEBUG_NODE
100
AcDbCircle
 10
14.666667
 20
36.0
 30
0.0
 40
0.12
  0
CIRCLE
  5
305
330
17
100
AcDbEntity
  8
DEBUG_NODE
100
AcDbCircle
 10
14.666667
 20
44.0
 30
0.0
 40
0.12
  0
CIRCLE
  5
306
330
17
100
AcDbEntity
  8
DEBUG_NODE
100
AcDbCircle
 10
24.5
 20
36.0
 30
0.0
 40
0.12
  0
CIRCLE
  5
307
330
17
100
AcDbEntity
  8
DEBUG_NODE
100
AcDbCircle
 10
24.5
 20
44.0
 30
0.0
 40
0.12
  0
CIRCLE
  5
308
330
17
100
AcDbEntity
  8
DEBUG_NODE
100
AcDbCircle
 10
54.111111
 20
36.0
 30
0.0
 40
0.12
  0
CIRCLE
  5
309
330
17
100
AcDbEntity
  8
DEBUG_NODE
100
AcDbCircle
 10
54.111111
 20
44.0
 30
0.0
 40
0.12
  0
CIRCLE
  5
30A
330
17
100
AcDbEntity
  8
DEBUG_NODE
100
AcDbCircle
 10
65.888889
 20
36.0
 30
0.0
 40
0.12
  0
CIRCLE
  5
30B
330
17
100
AcDbEntity
  8
DEBUG_NODE
100
AcDbCircle
 10
65.888889
 20
44.0
 30
0.0
 40
0.12
  0
CIRCLE
  5
30C
330
17
100
AcDbEntity
  8
DEBUG_NODE
100
AcDbCircle
 10
95.5
 20
36.0
 30
0.0
 40
0.12
  0
CIRCLE
  5
30D
330
17
100
AcDbEntity
  8
DEBUG_NODE
100
AcDbCircle
 10
95.5
 20
44.0
 30
0.0
 40
0.12
  0
CIRCLE
  5
30E
330
17
100
AcDbEntity
  8
DEBUG_NODE
100
AcDbCircle
 10
105.333334
 20
36.0
 30
0.0
 40
0.12
  0
CIRCLE
  5
30F
330
17
100
AcDbEntity
  8
DEBUG_NODE
100
AcDbCircle
 10
105.333334
 20
44.0
 30
0.0
 40
0.12
  0
CIRCLE
  5
310
330
17
100
AcDbEntity
  8
DEBUG_NODE
100
AcDbCircle
 10
115.166667
 20
36.0
 30
0.0
 40
0.12
  0
CIRCLE
  5
311
330
17
100
AcDbEntity
  8
DEBUG_NODE
100
AcDbCircle
 10
115.166667
 20
44.0
 30
0.0
 40
0.12
  0
CIRCLE
  5
312
330
17
100
AcDbEntity
  8
DEBUG_NODE
100
AcDbCircle
 10
1.0
 20
36.0
 30
0.0
 40
0.12
  0
CIRCLE
  5
313
330
17
100
AcDbEntity
  8
DEBUG_NODE
100
AcDbCircle
 10
1.0
 20
43.99999999999999
 30
0.0
 40
0.12
  0
CIRCLE
  5
314
330
17
100
AcDbEntity
  8
DEBUG_NODE
100
AcDbCircle
 10
34.333333
 20
79.0
 30
0.0
 40
0.12
  0
CIRCLE
  5
315
330
17
100
AcDbEntity
  8
DEBUG_NODE
100
AcDbCircle
 10
42.333333
 20
79.0
 30
0.0
 40
0.12
  0
CIRCLE
  5
316
330
17
100
AcDbEntity
  8
DEBUG_NODE
100
AcDbCircle
 10
77.666667
 20
79.0
 30
0.0
 40
0.12
  0
CIRCLE
  5
317
330
17
100
AcDbEntity
  8
DEBUG_NODE
100
AcDbCircle
 10
85.666667
 20
79.0
 30
0.0
 40
0.12
  0
CIRCLE
  5
318
330
17
100
AcDbEntity
  8
DEBUG_NODE
100
AcDbCircle
 10
119.0
 20
44.0
 30
0.0
 40
0.12
  0
CIRCLE
  5
319
330
17
100
AcDbEntity
  8
DEBUG_NODE
100
AcDbCircle
 10
119.0
 20
36.00000000000001
 30
0.0
 40
0.12
  0
CIRCLE
  5
31A
330
17
100
AcDbEntity
  8
DEBUG_NODE
100
AcDbCircle
 10
85.66666699999999
 20
1.0
 30
0.0
 40
0.12
  0
CIRCLE
  5
31B
330
17
100
AcDbEntity
  8
DEBUG_NODE
100
AcDbCircle
 10
77.66666699999999
 20
1.0
 30
0.0
 40
0.12
  0
CIRCLE
  5
31C
330
17
100
AcDbEntity
  8
DEBUG_NODE
100
AcDbCircle
 10
42.333332999999996
 20
1.0
 30
0.0
 40
0.12
  0
CIRCLE
  5
31D
330
17
100
AcDbEntity
  8
DEBUG_NODE
100
AcDbCircle
 10
34.333332999999996
 20
1.0
 30
0.0
 40
0.12
  0
CIRCLE
  5
31E
330
17
100
AcDbEntity
  8
DEBUG_NODE
100
AcDbCircle
 10
1.0
 20
1.0
 30
0.0
 40
0.12
  0
CIRCLE
  5
31F
330
17
100
AcDbEntity
  8
DEBUG_NODE
100
AcDbCircle
 10
1.0
 20
79.0
 30
0.0
 40
0.12
  0
CIRCLE
  5
320
330
17
100
AcDbEntity
  8
DEBUG_NODE
100
AcDbCircle
 10
119.0
 20
79.0
 30
0.0
 40
0.12
  0
CIRCLE
  5
321
330
17
100
AcDbEntity
  8
DEBUG_NODE
100
AcDbCircle
 10
119.0
 20
1.0
 30
0.0
 40
0.12
  0
ENDSEC
  0
SECTION
  2
OBJECTS
  0
DICTIONARY
  5
A
330
0
100
AcDbDictionary
281
1
  3
ACAD_COLOR
350
B
  3
ACAD_GROUP
350
C
  3
ACAD_LAYOUT
350
D
  3
ACAD_MATERIAL
350
E
  3
ACAD_MLEADERSTYLE
350
F
  3
ACAD_MLINESTYLE
350
10
  3
ACAD_PLOTSETTINGS
350
11
  3
ACAD_PLOTSTYLENAME
350
12
  3
ACAD_SCALELIST
350
14
  3
ACAD_TABLESTYLE
350
15
  3
ACAD_VISUALSTYLE
350
16
  3
EZDXF_META
350
2D
  0
DICTIONARY
  5
B
330
A
100
AcDbDictionary
281
1
  0
DICTIONARY
  5
C
330
A
100
AcDbDictionary
281
1
  0
DICTIONARY
  5
D
330
A
100
AcDbDictionary
281
1
  3
Model
350
1A
  3
Layout1
350
1E
  0
DICTIONARY
  5
E
330
A
100
AcDbDictionary
281
1
  3
ByBlock
350
1F
  3
ByLayer
350
20
  3
Global
350
21
  0
DICTIONARY
  5
F
330
A
100
AcDbDictionary
281
1
  3
Standard
350
2C
  0
DICTIONARY
  5
10
330
A
100
AcDbDictionary
281
1
  3
Standard
350
22
  0
DICTIONARY
  5
11
330
A
100
AcDbDictionary
281
1
  0
ACDBDICTIONARYWDFLT
  5
12
330
A
100
AcDbDictionary
281
1
  3
Normal
350
13
100
AcDbDictionaryWithDefault
340
13
  0
ACDBPLACEHOLDER
  5
13
330
12
  0
DICTIONARY
  5
14
330
A
100
AcDbDictionary
281
1
  0
DICTIONARY
  5
15
330
A
100
AcDbDictionary
281
1
  0
DICTIONARY
  5
16
330
A
100
AcDbDictionary
281
1
  0
LAYOUT
  5
1A
330
D
100
AcDbPlotSettings
  1

  4
A3
  6

 40
7.5
 41
20.0
 42
7.5
 43
20.0
 44
420.0
 45
297.0
 46
0.0
 47
0.0
 48
0.0
 49
0.0
140
0.0
141
0.0
142
1.0
143
1.0
 70
1024
 72
1
 73
0
 74
5
  7

 75
16
 76
0
 77
2
 78
300
147
1.0
148
0.0
149
0.0
100
AcDbLayout
  1
Model
 70
1
 71
0
 10
0.0
 20
0.0
 11
420.0
 21
297.0
 12
0.0
 22
0.0
 32
0.0
 14
1e+20
 24
1e+20
 34
1e+20
 15
-1e+20
 25
-1e+20
 35
-1e+20
146
0.0
 13
0.0
 23
0.0
 33
0.0
 16
1.0
 26
0.0
 36
0.0
 17
0.0
 27
1.0
 37
0.0
 76
1
330
17
  0
LAYOUT
  5
1E
330
D
100
AcDbPlotSettings
  1

  4
A3
  6

 40
7.5
 41
20.0
 42
7.5
 43
20.0
 44
420.0
 45
297.0
 46
0.0
 47
0.0
 48
0.0
 49
0.0
140
0.0
141
0.0
142
1.0
143
1.0
 70
0
 72
1
 73
0
 74
5
  7

 75
16
 76
0
 77
2
 78
300
147
1.0
148
0.0
149
0.0
100
AcDbLayout
  1
Layout1
 70
1
 71
1
 10
0.0
 20
0.0
 11
420.0
 21
297.0
 12
0.0
 22
0.0
 32
0.0
 14
1e+20
 24
1e+20
 34
1e+20
 15
-1e+20
 25
-1e+20
 35
-1e+20
146
0.0
 13
0.0
 23
0.0
 33
0.0
 16
1.0
 26
0.0
 36
0.0
 17
0.0
 27
1.0
 37
0.0
 76
1
330
1B
  0
MATERIAL
  5
1F
102
{ACAD_REACTORS
330
E
102
}
330
E
100
AcDbMaterial
  1
ByBlock
  2

 70
0
 40
1.0
 71
1
 41
1.0
 91
-1023410177
 42
1.0
 72
1
  3

 73
1
 74
1
 75
1
 44
0.5
 73
0
 45
1.0
 46
1.0
 77
1
  4

 78
1
 79
1
170
1
 48
1.0
171
1
  6

172
1
173
1
174
1
140
1.0
141
1.0
175
1
  7

176
1
177
1
178
1
143
1.0
179
1
  8

270
1
271
1
272
1
145
1.0
146
1.0
273
1
  9

274
1
275
1
276
1
 42
1.0
 72
1
  3

 73
1
 74
1
 75
1
 94
63
  0
MATERIAL
  5
20
102
{ACAD_REACTORS
330
E
102
}
330
E
100
AcDbMaterial
  1
ByLayer
  2

 70
0
 40
1.0
 71
1
 41
1.0
 91
-1023410177
 42
1.0
 72
1
  3

 73
1
 74
1
 75
1
 44
0.5
 73
0
 45
1.0
 46
1.0
 77
1
  4

 78
1
 79
1
170
1
 48
1.0
171
1
  6

172
1
173
1
174
1
140
1.0
141
1.0
175
1
  7

176
1
177
1
178
1
143
1.0
179
1
  8

270
1
271
1
272
1
145
1.0
146
1.0
273
1
  9

274
1
275
1
276
1
 42
1.0
 72
1
  3

 73
1
 74
1
 75
1
 94
63
  0
MATERIAL
  5
21
102
{ACAD_REACTORS
330
E
102
}
330
E
100
AcDbMaterial
  1
Global
  2

 70
0
 40
1.0
 71
1
 41
1.0
 91
-1023410177
 42
1.0
 72
1
  3

 73
1
 74
1
 75
1
 44
0.5
 73
0
 45
1.0
 46
1.0
 77
1
  4

 78
1
 79
1
170
1
 48
1.0
171
1
  6

172
1
173
1
174
1
140
1.0
141
1.0
175
1
  7

176
1
177
1
178
1
143
1.0
179
1
  8

270
1
271
1
272
1
145
1.0
146
1.0
273
1
  9

274
1
275
1
276
1
 42
1.0
 72
1
  3

 73
1
 74
1
 75
1
 94
63
  0
MLINESTYLE
  5
22
102
{ACAD_REACTORS
330
10
102
}
330
10
100
AcDbMlineStyle
  2
Standard
 70
0
  3

 62
256
 51
90.0
 52
90.0
 71
2
 49
0.5
 62
256
  6
BYLAYER
 49
-0.5
 62
256
  6
BYLAYER
  0
MLEADERSTYLE
  5
2C
102
{ACAD_REACTORS
330
F
102
}
330
F
100
AcDbMLeaderStyle
179
2
170
2
171
1
172
0
 90
2
 40
0.0
 41
0.0
173
1
 91
-1056964608
 92
-2
290
1
 42
2.0
291
1
 43
8.0
  3
Standard
 44
4.0
300

342
29
174
1
175
1
176
0
178
1
 93
-1056964608
 45
4.0
292
0
297
0
 46
4.0
 94
-1056964608
 47
1.0
 49
1.0
140
1.0
294
1
141
0.0
177
0
142
1.0
295
0
296
0
143
3.75
271
0
272
9
273
9
  0
DICTIONARY
  5
2D
330
A
100
AcDbDictionary
280
1
281
1
  3
CREATED_BY_EZDXF
350
2E
  3
WRITTEN_BY_EZDXF
350
324
  0
DICTIONARYVAR
  5
2E
330
2D
100
DictionaryVariables
280
0
  1
1.4.3 @ 2026-07-31T07:28:03.296086+00:00
  0
DICTIONARYVAR
  5
324
330
2D
100
DictionaryVariables
280
0
  1
1.4.3 @ 2026-07-31T07:28:03.349394+00:00
  0
ENDSEC
  0
EOF
