  0
SECTION
  2
HEADER
  9
$ACADVER
  1
AC1024
  9
$ACADMAINTVER
 70
6
  9
$DWGCODEPAGE
  3
ANSI_1252
  9
$LASTSAVEDBY
  1
ezdxf
  9
$INSBASE
 10
0.0
 20
0.0
 30
0.0
  9
$EXTMIN
 10
1e+20
 20
1e+20
 30
1e+20
  9
$EXTMAX
 10
-1e+20
 20
-1e+20
 30
-1e+20
  9
$LIMMIN
 10
0.0
 20
0.0
  9
$LIMMAX
 10
420.0
 20
297.0
  9
$ORTHOMODE
 70
0
  9
$REGENMODE
 70
1
  9
$FILLMODE
 70
1
  9
$QTEXTMODE
 70
0
  9
$MIRRTEXT
 70
1
  9
$LTSCALE
 40
1.0
  9
$ATTMODE
 70
1
  9
$TEXTSIZE
 40
2.5
  9
$TRACEWID
 40
1.0
  9
$TEXTSTYLE
  7
Standard
  9
$CLAYER
  8
0
  9
$CELTYPE
  6
ByLayer
  9
$CECOLOR
 62
256
  9
$CELTSCALE
 40
1.0
  9
$DISPSILH
 70
0
  9
$DIMSCALE
 40
1.0
  9
$DIMASZ
 40
2.5
  9
$DIMEXO
 40
0.625
  9
$DIMDLI
 40
3.75
  9
$DIMRND
 40
0.0
  9
$DIMDLE
 40
0.0
  9
$DIMEXE
 40
1.25
  9
$DIMTP
 40
0.0
  9
$DIMTM
 40
0.0
  9
$DIMTXT
 40
2.5
  9
$DIMCEN
 40
2.5
  9
$DIMTSZ
 40
0.0
  9
$DIMTOL
 70
0
  9
$DIMLIM
 70
0
  9
$DIMTIH
 70
0
  9
$DIMTOH
 70
0
  9
$DIMSE1
 70
0
  9
$DIMSE2
 70
0
  9
$DIMTAD
 70
1
  9
$DIMZIN
 70
8
  9
$DIMBLK
  1

  9
$DIMASO
 70
1
  9
$DIMSHO
 70
1
  9
$DIMPOST
  1

  9
$DIMAPOST
  1

  9
$DIMALT
 70
0
  9
$DIMALTD
 70
3
  9
$DIMALTF
 40
0.03937007874
  9
$DIMLFAC
 40
1.0
  9
$DIMTOFL
 70
1
  9
$DIMTVP
 40
0.0
  9
$DIMTIX
 70
0
  9
$DIMSOXD
 70
0
  9
$DIMSAH
 70
0
  9
$DIMBLK1
  1

  9
$DIMBLK2
  1

  9
$DIMSTYLE
  2
ISO-25
  9
$DIMCLRD
 70
0
  9
$DIMCLRE
 70
0
  9
$DIMCLRT
 70
0
  9
$DIMTFAC
 40
1.0
  9
$DIMGAP
 40
0.625
  9
$DIMJUST
 70
0
  9
$DIMSD1
 70
0
  9
$DIMSD2
 70
0
  9
$DIMTOLJ
 70
0
  9
$DIMTZIN
 70
8
  9
$DIMALTZ
 70
0
  9
$DIMALTTZ
 70
0
  9
$DIMUPT
 70
0
  9
$DIMDEC
 70
2
  9
$DIMTDEC
 70
2
  9
$DIMALTU
 70
2
  9
$DIMALTTD
 70
3
  9
$DIMTXSTY
  7
Standard
  9
$DIMAUNIT
 70
0
  9
$DIMADEC
 70
0
  9
$DIMALTRND
 40
0.0
  9
$DIMAZIN
 70
0
  9
$DIMDSEP
 70
44
  9
$DIMATFIT
 70
3
  9
$DIMFRAC
 70
0
  9
$DIMLDRBLK
  1

  9
$DIMLUNIT
 70
2
  9
$DIMLWD
 70
-2
  9
$DIMLWE
 70
-2
  9
$DIMTMOVE
 70
0
  9
$DIMFXL
 40
1.0
  9
$DIMFXLON
 70
0
  9
$DIMJOGANG
 40
0.785398163397
  9
$DIMTFILL
 70
0
  9
$DIMTFILLCLR
 70
0
  9
$DIMARCSYM
 70
0
  9
$DIMLTYPE
  6

  9
$DIMLTEX1
  6

  9
$DIMLTEX2
  6

  9
$DIMTXTDIRECTION
 70
0
  9
$LUNITS
 70
2
  9
$LUPREC
 70
4
  9
$SKETCHINC
 40
1.0
  9
$FILLETRAD
 40
10.0
  9
$AUNITS
 70
0
  9
$AUPREC
 70
2
  9
$MENU
  1
.
  9
$ELEVATION
 40
0.0
  9
$PELEVATION
 40
0.0
  9
$THICKNESS
 40
0.0
  9
$LIMCHECK
 70
0
  9
$CHAMFERA
 40
0.0
  9
$CHAMFERB
 40
0.0
  9
$CHAMFERC
 40
0.0
  9
$CHAMFERD
 40
0.0
  9
$SKPOLY
 70
0
  9
$TDCREATE
 40
2461225.550138889
  9
$TDUCREATE
 40
2458532.153996898
  9
$TDUPDATE
 40
2461225.550138889
  9
$TDUUPDATE
 40
2458532.1544311
  9
$TDINDWG
 40
0.0
  9
$TDUSRTIMER
 40
0.0
  9
$USRTIMER
 70
1
  9
$ANGBASE
 50
0.0
  9
$ANGDIR
 70
0
  9
$PDMODE
 70
0
  9
$PDSIZE
 40
0.0
  9
$PLINEWID
 40
0.0
  9
$SPLFRAME
 70
0
  9
$SPLINETYPE
 70
6
  9
$SPLINESEGS
 70
8
  9
$HANDSEED
  5
30A
  9
$SURFTAB1
 70
6
  9
$SURFTAB2
 70
6
  9
$SURFTYPE
 70
6
  9
$SURFU
 70
6
  9
$SURFV
 70
6
  9
$UCSBASE
  2

  9
$UCSNAME
  2

  9
$UCSORG
 10
0.0
 20
0.0
 30
0.0
  9
$UCSXDIR
 10
1.0
 20
0.0
 30
0.0
  9
$UCSYDIR
 10
0.0
 20
1.0
 30
0.0
  9
$UCSORTHOREF
  2

  9
$UCSORTHOVIEW
 70
0
  9
$UCSORGTOP
 10
0.0
 20
0.0
 30
0.0
  9
$UCSORGBOTTOM
 10
0.0
 20
0.0
 30
0.0
  9
$UCSORGLEFT
 10
0.0
 20
0.0
 30
0.0
  9
$UCSORGRIGHT
 10
0.0
 20
0.0
 30
0.0
  9
$UCSORGFRONT
 10
0.0
 20
0.0
 30
0.0
  9
$UCSORGBACK
 10
0.0
 20
0.0
 30
0.0
  9
$PUCSBASE
  2

  9
$PUCSNAME
  2

  9
$PUCSORG
 10
0.0
 20
0.0
 30
0.0
  9
$PUCSXDIR
 10
1.0
 20
0.0
 30
0.0
  9
$PUCSYDIR
 10
0.0
 20
1.0
 30
0.0
  9
$PUCSORTHOREF
  2

  9
$PUCSORTHOVIEW
 70
0
  9
$PUCSORGTOP
 10
0.0
 20
0.0
 30
0.0
  9
$PUCSORGBOTTOM
 10
0.0
 20
0.0
 30
0.0
  9
$PUCSORGLEFT
 10
0.0
 20
0.0
 30
0.0
  9
$PUCSORGRIGHT
 10
0.0
 20
0.0
 30
0.0
  9
$PUCSORGFRONT
 10
0.0
 20
0.0
 30
0.0
  9
$PUCSORGBACK
 10
0.0
 20
0.0
 30
0.0
  9
$USERI1
 70
0
  9
$USERI2
 70
0
  9
$USERI3
 70
0
  9
$USERI4
 70
0
  9
$USERI5
 70
0
  9
$USERR1
 40
0.0
  9
$USERR2
 40
0.0
  9
$USERR3
 40
0.0
  9
$USERR4
 40
0.0
  9
$USERR5
 40
0.0
  9
$WORLDVIEW
 70
1
  9
$SHADEDGE
 70
3
  9
$SHADEDIF
 70
70
  9
$TILEMODE
 70
1
  9
$MAXACTVP
 70
64
  9
$PINSBASE
 10
0.0
 20
0.0
 30
0.0
  9
$PLIMCHECK
 70
0
  9
$PEXTMIN
 10
1e+20
 20
1e+20
 30
1e+20
  9
$PEXTMAX
 10
-1e+20
 20
-1e+20
 30
-1e+20
  9
$PLIMMIN
 10
0.0
 20
0.0
  9
$PLIMMAX
 10
420.0
 20
297.0
  9
$UNITMODE
 70
0
  9
$VISRETAIN
 70
1
  9
$PLINEGEN
 70
0
  9
$PSLTSCALE
 70
1
  9
$TREEDEPTH
 70
3020
  9
$CMLSTYLE
  2
Standard
  9
$CMLJUST
 70
0
  9
$CMLSCALE
 40
20.0
  9
$PROXYGRAPHICS
 70
1
  9
$MEASUREMENT
 70
1
  9
$CELWEIGHT
370
-1
  9
$ENDCAPS
280
0
  9
$JOINSTYLE
280
0
  9
$LWDISPLAY
290
0
  9
$INSUNITS
 70
6
  9
$HYPERLINKBASE
  1

  9
$STYLESHEET
  1

  9
$XEDIT
290
1
  9
$CEPSNTYPE
380
0
  9
$PSTYLEMODE
290
1
  9
$FINGERPRINTGUID
  2
{DA15EE1F-9BCC-459C-B838-E5A235B87CCC}
  9
$VERSIONGUID
  2
{25C264CE-E213-4647-843C-8DC51F88E4D0}
  9
$EXTNAMES
290
1
  9
$PSVPSCALE
 40
0.0
  9
$OLESTARTUP
290
0
  9
$SORTENTS
280
127
  9
$INDEXCTL
280
0
  9
$HIDETEXT
280
1
  9
$XCLIPFRAME
280
1
  9
$HALOGAP
280
0
  9
$OBSCOLOR
 70
257
  9
$OBSLTYPE
280
0
  9
$INTERSECTIONDISPLAY
280
0
  9
$INTERSECTIONCOLOR
 70
257
  9
$DIMASSOC
280
2
  9
$PROJECTNAME
  1

  9
$CAMERADISPLAY
290
0
  9
$LENSLENGTH
 40
50.0
  9
$CAMERAHEIGHT
 40
0.0
  9
$STEPSPERSEC
 40
24.0
  9
$STEPSIZE
 40
100.0
  9
$3DDWFPREC
 40
2.0
  9
$PSOLWIDTH
 40
0.005
  9
$PSOLHEIGHT
 40
0.08
  9
$LOFTANG1
 40
1.570796326795
  9
$LOFTANG2
 40
1.570796326795
  9
$LOFTMAG1
 40
0.0
  9
$LOFTMAG2
 40
0.0
  9
$LOFTPARAM
 70
7
  9
$LOFTNORMALS
280
1
  9
$LATITUDE
 40
37.795
  9
$LONGITUDE
 40
-122.394
  9
$NORTHDIRECTION
 40
0.0
  9
$TIMEZONE
 70
-8000
  9
$LIGHTGLYPHDISPLAY
280
1
  9
$TILEMODELIGHTSYNCH
280
1
  9
$CMATERIAL
347
20
  9
$SOLIDHIST
280
0
  9
$SHOWHIST
280
1
  9
$DWFFRAME
280
2
  9
$DGNFRAME
280
2
  9
$REALWORLDSCALE
290
1
  9
$INTERFERECOLOR
 62
256
  9
$CSHADOW
280
0
  9
$SHADOWPLANELOCATION
 40
0.0
  0
ENDSEC
  0
SECTION
  2
CLASSES
  0
CLASS
  1
ACDBDICTIONARYWDFLT
  2
AcDbDictionaryWithDefault
  3
ObjectDBX Classes
 90
0
 91
0
280
0
281
0
  0
CLASS
  1
SUN
  2
AcDbSun
  3
SCENEOE
 90
1153
 91
0
280
0
281
0
  0
CLASS
  1
VISUALSTYLE
  2
AcDbVisualStyle
  3
ObjectDBX Classes
 90
4095
 91
0
280
0
281
0
  0
CLASS
  1
MATERIAL
  2
AcDbMaterial
  3
ObjectDBX Classes
 90
1153
 91
0
280
0
281
0
  0
CLASS
  1
SCALE
  2
AcDbScale
  3
ObjectDBX Classes
 90
1153
 91
0
280
0
281
0
  0
CLASS
  1
TABLESTYLE
  2
AcDbTableStyle
  3
ObjectDBX Classes
 90
4095
 91
0
280
0
281
0
  0
CLASS
  1
MLEADERSTYLE
  2
AcDbMLeaderStyle
  3
ACDB_MLEADERSTYLE_CLASS
 90
4095
 91
0
280
0
281
0
  0
CLASS
  1
DICTIONARYVAR
  2
AcDbDictionaryVar
  3
ObjectDBX Classes
 90
0
 91
0
280
0
281
0
  0
CLASS
  1
CELLSTYLEMAP
  2
AcDbCellStyleMap
  3
ObjectDBX Classes
 90
1152
 91
0
280
0
281
0
  0
CLASS
  1
MENTALRAYRENDERSETTINGS
  2
AcDbMentalRayRenderSettings
  3
SCENEOE
 90
1024
 91
0
280
0
281
0
  0
CLASS
  1
ACDBDETAILVIEWSTYLE
  2
AcDbDetailViewStyle
  3
ObjectDBX Classes
 90
1025
 91
0
280
0
281
0
  0
CLASS
  1
ACDBSECTIONVIEWSTYLE
  2
AcDbSectionViewStyle
  3
ObjectDBX Classes
 90
1025
 91
0
280
0
281
0
  0
CLASS
  1
RASTERVARIABLES
  2
AcDbRasterVariables
  3
ISM
 90
0
 91
0
280
0
281
0
  0
CLASS
  1
LAYOUT
  2
AcDbLayout
  3
ObjectDBX Classes
 90
0
 91
0
280
0
281
0
  0
CLASS
  1
ACDBPLACEHOLDER
  2
AcDbPlaceHolder
  3
ObjectDBX Classes
 90
0
 91
0
280
0
281
0
  0
ENDSEC
  0
SECTION
  2
TABLES
  0
TABLE
  2
VPORT
  5
8
330
0
100
AcDbSymbolTable
 70
1
  0
VPORT
  5
23
330
8
100
AcDbSymbolTableRecord
100
AcDbViewportTableRecord
  2
*Active
 70
0
 10
0.0
 20
0.0
 11
1.0
 21
1.0
 12
0.0
 22
0.0
 13
0.0
 23
0.0
 14
0.5
 24
0.5
 15
0.5
 25
0.5
 16
0.0
 26
0.0
 36
1.0
 17
0.0
 27
0.0
 37
0.0
 40
1000.0
 41
1.34
 42
50.0
 43
0.0
 44
0.0
 50
0.0
 51
0.0
 71
0
 72
1000
 73
1
 74
3
 75
0
 76
0
 77
0
 78
0
281
0
 65
0
146
0.0
  0
ENDTAB
  0
TABLE
  2
LTYPE
  5
2
330
0
100
AcDbSymbolTable
 70
3
  0
LTYPE
  5
24
330
2
100
AcDbSymbolTableRecord
100
AcDbLinetypeTableRecord
  2
ByBlock
 70
0
  3

 72
65
 73
0
 40
0.0
  0
LTYPE
  5
25
330
2
100
AcDbSymbolTableRecord
100
AcDbLinetypeTableRecord
  2
ByLayer
 70
0
  3

 72
65
 73
0
 40
0.0
  0
LTYPE
  5
26
330
2
100
AcDbSymbolTableRecord
100
AcDbLinetypeTableRecord
  2
Continuous
 70
0
  3

 72
65
 73
0
 40
0.0
  0
ENDTAB
  0
TABLE
  2
LAYER
  5
1
330
0
100
AcDbSymbolTable
 70
17
  0
LAYER
  5
27
330
1
100
AcDbSymbolTableRecord
100
AcDbLayerTableRecord
  2
0
 70
0
 62
7
  6
Continuous
370
-3
390
13
347
21
  0
LAYER
  5
28
330
1
100
AcDbSymbolTableRecord
100
AcDbLayerTableRecord
  2
Defpoints
 70
0
 62
7
  6
Continuous
290
0
370
-3
390
13
347
21
  0
LAYER
  5
2F
330
1
100
AcDbSymbolTableRecord
100
AcDbLayerTableRecord
  2
WALL_REF
 70
0
 62
1
  6
Continuous
370
-3
390
13
347
21
  0
LAYER
  5
30
330
1
100
AcDbSymbolTableRecord
100
AcDbLayerTableRecord
  2
WALING
 70
0
 62
6
  6
Continuous
370
-3
390
13
347
21
  0
LAYER
  5
31
330
1
100
AcDbSymbolTableRecord
100
AcDbLayerTableRecord
  2
STRUT
 70
0
 62
4
  6
Continuous
370
-3
390
13
347
21
  0
LAYER
  5
32
330
1
100
AcDbSymbolTableRecord
100
AcDbLayerTableRecord
  2
CORNER
 70
0
 62
2
  6
Continuous
370
-3
390
13
347
21
  0
LAYER
  5
33
330
1
100
AcDbSymbolTableRecord
100
AcDbLayerTableRecord
  2
TIE
 70
0
 62
8
  6
Continuous
370
-3
390
13
347
21
  0
LAYER
  5
34
330
1
100
AcDbSymbolTableRecord
100
AcDbLayerTableRecord
  2
TRUSS_WEB
 70
0
 62
30
  6
Continuous
370
-3
390
13
347
21
  0
LAYER
  5
35
330
1
100
AcDbSymbolTableRecord
100
AcDbLayerTableRecord
  2
RING_STRUT
 70
0
 62
140
  6
Continuous
370
-3
390
13
347
21
  0
LAYER
  5
36
330
1
100
AcDbSymbolTableRecord
100
AcDbLayerTableRecord
  2
RADIAL_STRUT
 70
0
 62
5
  6
Continuous
370
-3
390
13
347
21
  0
LAYER
  5
37
330
1
100
AcDbSymbolTableRecord
100
AcDbLayerTableRecord
  2
PILLAR
 70
0
 62
7
  6
Continuous
370
-3
390
13
347
21
  0
LAYER
  5
38
330
1
100
AcDbSymbolTableRecord
100
AcDbLayerTableRecord
  2
STRUT_OUTLINE
 70
0
 62
9
  6
Continuous
370
-3
390
13
347
21
  0
LAYER
  5
39
330
1
100
AcDbSymbolTableRecord
100
AcDbLayerTableRecord
  2
WALING_OUTLINE
 70
0
 62
213
  6
Continuous
370
-3
390
13
347
21
  0
LAYER
  5
3A
330
1
100
AcDbSymbolTableRecord
100
AcDbLayerTableRecord
  2
TRUSS_CHORD
 70
0
 62
3
  6
Continuous
370
-3
390
13
347
21
  0
LAYER
  5
3B
330
1
100
AcDbSymbolTableRecord
100
AcDbLayerTableRecord
  2
DEBUG_NODE
 70
0
 62
1
  6
Continuous
370
-3
390
13
347
21
  0
LAYER
  5
3C
330
1
100
AcDbSymbolTableRecord
100
AcDbLayerTableRecord
  2
DEBUG_ISSUE
 70
0
 62
1
  6
Continuous
370
-3
390
13
347
21
  0
LAYER
  5
3D
330
1
100
AcDbSymbolTableRecord
100
AcDbLayerTableRecord
  2
CORE_PROTECTION
 70
0
 62
1
  6
Continuous
370
-3
390
13
347
21
  0
ENDTAB
  0
TABLE
  2
STYLE
  5
5
330
0
100
AcDbSymbolTable
 70
1
  0
STYLE
  5
29
330
5
100
AcDbSymbolTableRecord
100
AcDbTextStyleTableRecord
  2
Standard
 70
0
 40
0.0
 41
1.0
 50
0.0
 71
0
 42
2.5
  3
txt
  4

  0
ENDTAB
  0
TABLE
  2
VIEW
  5
7
330
0
100
AcDbSymbolTable
 70
0
  0
ENDTAB
  0
TABLE
  2
UCS
  5
6
330
0
100
AcDbSymbolTable
 70
0
  0
ENDTAB
  0
TABLE
  2
APPID
  5
3
330
0
100
AcDbSymbolTable
 70
3
  0
APPID
  5
2A
330
3
100
AcDbSymbolTableRecord
100
AcDbRegAppTableRecord
  2
ACAD
 70
0
  0
APPID
  5
307
330
3
100
AcDbSymbolTableRecord
100
AcDbRegAppTableRecord
  2
HATCHBACKGROUNDCOLOR
 70
0
  0
APPID
  5
308
330
3
100
AcDbSymbolTableRecord
100
AcDbRegAppTableRecord
  2
EZDXF
 70
0
  0
ENDTAB
  0
TABLE
  2
DIMSTYLE
  5
4
330
0
100
AcDbSymbolTable
 70
1
100
AcDbDimStyleTable
  0
DIMSTYLE
105
2B
330
4
100
AcDbSymbolTableRecord
100
AcDbDimStyleTableRecord
  2
Standard
 70
0
 40
1.0
 41
2.5
 42
0.625
 43
3.75
 44
1.25
 45
0.0
 46
0.0
 47
0.0
 48
0.0
 49
2.5
140
2.5
141
2.5
142
0.0
143
0.03937007874
144
1.0
145
0.0
146
1.0
147
0.625
148
0.0
 69
0
 70
0
 71
0
 72
0
 73
0
 74
0
 75
0
 76
0
 77
1
 78
8
 79
3
170
0
171
3
172
1
173
0
174
0
175
0
176
0
177
0
178
0
179
2
271
2
272
2
273
2
274
3
275
0
276
0
277
2
278
44
279
0
280
0
281
0
282
0
283
0
284
8
285
0
286
0
288
0
289
3
290
0
371
-2
372
-2
  0
ENDTAB
  0
TABLE
  2
BLOCK_RECORD
  5
9
330
0
100
AcDbSymbolTable
 70
2
  0
BLOCK_RECORD
  5
17
330
9
100
AcDbSymbolTableRecord
100
AcDbBlockTableRecord
  2
*Model_Space
340
1A
 70
0
280
1
281
0
  0
BLOCK_RECORD
  5
1B
330
9
100
AcDbSymbolTableRecord
100
AcDbBlockTableRecord
  2
*Paper_Space
340
1E
 70
0
280
1
281
0
  0
ENDTAB
  0
ENDSEC
  0
SECTION
  2
BLOCKS
  0
BLOCK
  5
18
330
17
100
AcDbEntity
  8
0
100
AcDbBlockBegin
  2
*Model_Space
 70
0
 10
0.0
 20
0.0
 30
0.0
  3
*Model_Space
  1

  0
ENDBLK
  5
19
330
17
100
AcDbEntity
  8
0
100
AcDbBlockEnd
  0
BLOCK
  5
1C
330
1B
100
AcDbEntity
  8
0
100
AcDbBlockBegin
  2
*Paper_Space
 70
0
 10
0.0
 20
0.0
 30
0.0
  3
*Paper_Space
  1

  0
ENDBLK
  5
1D
330
1B
100
AcDbEntity
  8
0
100
AcDbBlockEnd
  0
ENDSEC
  0
SECTION
  2
ENTITIES
  0
LWPOLYLINE
  5
3E
330
17
100
AcDbEntity
  8
WALL_REF
100
AcDbPolyline
 90
4
 70
1
 10
0.0
 20
0.0
 10
120.0
 20
0.0
 10
120.0
 20
80.0
 10
0.0
 20
80.0
  0
LWPOLYLINE
  5
3F
330
17
100
AcDbEntity
  8
WALING
100
AcDbPolyline
 90
5
 70
1
 10
5.0
 20
5.0
 10
5.0
 20
75.0
 10
115.0
 20
75.0
 10
115.0
 20
5.0
 10
5.0
 20
5.0
  0
LWPOLYLINE
  5
40
330
17
100
AcDbEntity
  8
STRUT
100
AcDbPolyline
 90
2
 70
0
 10
39.266666666666666
 20
5.0
 10
39.266666666666666
 20
75.0
  0
LWPOLYLINE
  5
41
330
17
100
AcDbEntity
  8
STRUT
100
AcDbPolyline
 90
2
 70
0
 10
44.06666666666666
 20
5.0
 10
44.06666666666666
 20
75.0
  0
LWPOLYLINE
  5
42
330
17
100
AcDbEntity
  8
STRUT
100
AcDbPolyline
 90
2
 70
0
 10
75.93333333333332
 20
5.0
 10
75.93333333333332
 20
75.0
  0
LWPOLYLINE
  5
43
330
17
100
AcDbEntity
  8
STRUT
100
AcDbPolyline
 90
2
 70
0
 10
80.73333333333333
 20
5.0
 10
80.73333333333333
 20
75.0
  0
LWPOLYLINE
  5
44
330
17
100
AcDbEntity
  8
STRUT
100
AcDbPolyline
 90
2
 70
0
 10
5.0
 20
37.6
 10
115.0
 20
37.6
  0
LWPOLYLINE
  5
45
330
17
100
AcDbEntity
  8
STRUT
100
AcDbPolyline
 90
2
 70
0
 10
5.0
 20
42.4
 10
115.0
 20
42.4
  0
LWPOLYLINE
  5
46
330
17
100
AcDbEntity
  8
TIE
100
AcDbPolyline
 90
2
 70
0
 10
39.266666666666666
 20
19.0
 10
44.06666666666666
 20
19.0
  0
LWPOLYLINE
  5
47
330
17
100
AcDbEntity
  8
TIE
100
AcDbPolyline
 90
2
 70
0
 10
39.266666666666666
 20
33.0
 10
44.06666666666666
 20
33.0
  0
LWPOLYLINE
  5
48
330
17
100
AcDbEntity
  8
TIE
100
AcDbPolyline
 90
2
 70
0
 10
39.266666666666666
 20
47.0
 10
44.06666666666666
 20
47.0
  0
LWPOLYLINE
  5
49
330
17
100
AcDbEntity
  8
TIE
100
AcDbPolyline
 90
2
 70
0
 10
39.266666666666666
 20
61.0
 10
44.06666666666666
 20
61.0
  0
LWPOLYLINE
  5
4A
330
17
100
AcDbEntity
  8
TIE
100
AcDbPolyline
 90
2
 70
0
 10
75.93333333333332
 20
19.0
 10
80.73333333333333
 20
19.0
  0
LWPOLYLINE
  5
4B
330
17
100
AcDbEntity
  8
TIE
100
AcDbPolyline
 90
2
 70
0
 10
75.93333333333332
 20
33.0
 10
80.73333333333333
 20
33.0
  0
LWPOLYLINE
  5
4C
330
17
100
AcDbEntity
  8
TIE
100
AcDbPolyline
 90
2
 70
0
 10
75.93333333333332
 20
47.0
 10
80.73333333333333
 20
47.0
  0
LWPOLYLINE
  5
4D
330
17
100
AcDbEntity
  8
TIE
100
AcDbPolyline
 90
2
 70
0
 10
75.93333333333332
 20
61.0
 10
80.73333333333333
 20
61.0
  0
LWPOLYLINE
  5
4E
330
17
100
AcDbEntity
  8
TIE
100
AcDbPolyline
 90
2
 70
0
 10
18.75
 20
37.6
 10
18.75
 20
42.4
  0
LWPOLYLINE
  5
4F
330
17
100
AcDbEntity
  8
TIE
100
AcDbPolyline
 90
2
 70
0
 10
32.5
 20
37.6
 10
32.5
 20
42.4
  0
LWPOLYLINE
  5
50
330
17
100
AcDbEntity
  8
TIE
100
AcDbPolyline
 90
2
 70
0
 10
46.25
 20
37.6
 10
46.25
 20
42.4
  0
LWPOLYLINE
  5
51
330
17
100
AcDbEntity
  8
TIE
100
AcDbPolyline
 90
2
 70
0
 10
60.0
 20
37.6
 10
60.0
 20
42.4
  0
LWPOLYLINE
  5
52
330
17
100
AcDbEntity
  8
TIE
100
AcDbPolyline
 90
2
 70
0
 10
73.75
 20
37.6
 10
73.75
 20
42.4
  0
LWPOLYLINE
  5
53
330
17
100
AcDbEntity
  8
TIE
100
AcDbPolyline
 90
2
 70
0
 10
87.5
 20
37.6
 10
87.5
 20
42.4
  0
LWPOLYLINE
  5
54
330
17
100
AcDbEntity
  8
TIE
100
AcDbPolyline
 90
2
 70
0
 10
101.25
 20
37.6
 10
101.25
 20
42.4
  0
LWPOLYLINE
  5
55
330
17
100
AcDbEntity
  8
TRUSS_CHORD
100
AcDbPolyline
 90
2
 70
0
 10
5.0
 20
5.0
 10
5.0
 20
10.833333
  0
LWPOLYLINE
  5
56
330
17
100
AcDbEntity
  8
TRUSS_CHORD
100
AcDbPolyline
 90
2
 70
0
 10
11.0
 20
5.0
 10
11.0
 20
10.833333
  0
LWPOLYLINE
  5
57
330
17
100
AcDbEntity
  8
TRUSS_WEB
100
AcDbPolyline
 90
2
 70
0
 10
5.0
 20
5.0
 10
11.0
 20
10.833333
  0
LWPOLYLINE
  5
58
330
17
100
AcDbEntity
  8
TRUSS_CHORD
100
AcDbPolyline
 90
2
 70
0
 10
5.0
 20
10.833333
 10
5.0
 20
16.666667
  0
LWPOLYLINE
  5
59
330
17
100
AcDbEntity
  8
TRUSS_CHORD
100
AcDbPolyline
 90
2
 70
0
 10
11.0
 20
10.833333
 10
11.0
 20
16.666667
  0
LWPOLYLINE
  5
5A
330
17
100
AcDbEntity
  8
TRUSS_WEB
100
AcDbPolyline
 90
2
 70
0
 10
11.0
 20
10.833333
 10
5.0
 20
16.666667
  0
LWPOLYLINE
  5
5B
330
17
100
AcDbEntity
  8
TRUSS_CHORD
100
AcDbPolyline
 90
2
 70
0
 10
5.0
 20
16.666667
 10
5.0
 20
22.5
  0
LWPOLYLINE
  5
5C
330
17
100
AcDbEntity
  8
TRUSS_CHORD
100
AcDbPolyline
 90
2
 70
0
 10
11.0
 20
16.666667
 10
11.0
 20
22.5
  0
LWPOLYLINE
  5
5D
330
17
100
AcDbEntity
  8
TRUSS_WEB
100
AcDbPolyline
 90
2
 70
0
 10
5.0
 20
16.666667
 10
11.0
 20
22.5
  0
LWPOLYLINE
  5
5E
330
17
100
AcDbEntity
  8
TRUSS_CHORD
100
AcDbPolyline
 90
2
 70
0
 10
5.0
 20
22.5
 10
5.0
 20
28.333333
  0
LWPOLYLINE
  5
5F
330
17
100
AcDbEntity
  8
TRUSS_CHORD
100
AcDbPolyline
 90
2
 70
0
 10
11.0
 20
22.5
 10
11.0
 20
28.333333
  0
LWPOLYLINE
  5
60
330
17
100
AcDbEntity
  8
TRUSS_WEB
100
AcDbPolyline
 90
2
 70
0
 10
11.0
 20
22.5
 10
5.0
 20
28.333333
  0
LWPOLYLINE
  5
61
330
17
100
AcDbEntity
  8
TRUSS_CHORD
100
AcDbPolyline
 90
2
 70
0
 10
5.0
 20
28.333333
 10
5.0
 20
34.166667
  0
LWPOLYLINE
  5
62
330
17
100
AcDbEntity
  8
TRUSS_CHORD
100
AcDbPolyline
 90
2
 70
0
 10
11.0
 20
28.333333
 10
11.0
 20
34.166667
  0
LWPOLYLINE
  5
63
330
17
100
AcDbEntity
  8
TRUSS_WEB
100
AcDbPolyline
 90
2
 70
0
 10
5.0
 20
28.333333
 10
11.0
 20
34.166667
  0
LWPOLYLINE
  5
64
330
17
100
AcDbEntity
  8
TRUSS_CHORD
100
AcDbPolyline
 90
2
 70
0
 10
5.0
 20
34.166667
 10
5.0
 20
40.0
  0
LWPOLYLINE
  5
65
330
17
100
AcDbEntity
  8
TRUSS_CHORD
100
AcDbPolyline
 90
2
 70
0
 10
11.0
 20
34.166667
 10
11.0
 20
40.0
  0
LWPOLYLINE
  5
66
330
17
100
AcDbEntity
  8
TRUSS_WEB
100
AcDbPolyline
 90
2
 70
0
 10
11.0
 20
34.166667
 10
5.0
 20
40.0
  0
LWPOLYLINE
  5
67
330
17
100
AcDbEntity
  8
TRUSS_CHORD
100
AcDbPolyline
 90
2
 70
0
 10
5.0
 20
40.0
 10
5.0
 20
45.833333
  0
LWPOLYLINE
  5
68
330
17
100
AcDbEntity
  8
TRUSS_CHORD
100
AcDbPolyline
 90
2
 70
0
 10
11.0
 20
40.0
 10
11.0
 20
45.833333
  0
LWPOLYLINE
  5
69
330
17
100
AcDbEntity
  8
TRUSS_WEB
100
AcDbPolyline
 90
2
 70
0
 10
5.0
 20
40.0
 10
11.0
 20
45.833333
  0
LWPOLYLINE
  5
6A
330
17
100
AcDbEntity
  8
TRUSS_CHORD
100
AcDbPolyline
 90
2
 70
0
 10
5.0
 20
45.833333
 10
5.0
 20
51.666667
  0
LWPOLYLINE
  5
6B
330
17
100
AcDbEntity
  8
TRUSS_CHORD
100
AcDbPolyline
 90
2
 70
0
 10
11.0
 20
45.833333
 10
11.0
 20
51.666667
  0
LWPOLYLINE
  5
6C
330
17
100
AcDbEntity
  8
TRUSS_WEB
100
AcDbPolyline
 90
2
 70
0
 10
11.0
 20
45.833333
 10
5.0
 20
51.666667
  0
LWPOLYLINE
  5
6D
330
17
100
AcDbEntity
  8
TRUSS_CHORD
100
AcDbPolyline
 90
2
 70
0
 10
5.0
 20
51.666667
 10
5.0
 20
57.5
  0
LWPOLYLINE
  5
6E
330
17
100
AcDbEntity
  8
TRUSS_CHORD
100
AcDbPolyline
 90
2
 70
0
 10
11.0
 20
51.666667
 10
11.0
 20
57.5
  0
LWPOLYLINE
  5
6F
330
17
100
AcDbEntity
  8
TRUSS_WEB
100
AcDbPolyline
 90
2
 70
0
 10
5.0
 20
51.666667
 10
11.0
 20
57.5
  0
LWPOLYLINE
  5
70
330
17
100
AcDbEntity
  8
TRUSS_CHORD
100
AcDbPolyline
 90
2
 70
0
 10
5.0
 20
57.5
 10
5.0
 20
63.333333
  0
LWPOLYLINE
  5
71
330
17
100
AcDbEntity
  8
TRUSS_CHORD
100
AcDbPolyline
 90
2
 70
0
 10
11.0
 20
57.5
 10
11.0
 20
63.333333
  0
LWPOLYLINE
  5
72
330
17
100
AcDbEntity
  8
TRUSS_WEB
100
AcDbPolyline
 90
2
 70
0
 10
11.0
 20
57.5
 10
5.0
 20
63.333333
  0
LWPOLYLINE
  5
73
330
17
100
AcDbEntity
  8
TRUSS_CHORD
100
AcDbPolyline
 90
2
 70
0
 10
5.0
 20
63.333333
 10
5.0
 20
69.166667
  0
LWPOLYLINE
  5
74
330
17
100
AcDbEntity
  8
TRUSS_CHORD
100
AcDbPolyline
 90
2
 70
0
 10
11.0
 20
63.333333
 10
11.0
 20
69.166667
  0
LWPOLYLINE
  5
75
330
17
100
AcDbEntity
  8
TRUSS_WEB
100
AcDbPolyline
 90
2
 70
0
 10
5.0
 20
63.333333
 10
11.0
 20
69.166667
  0
LWPOLYLINE
  5
76
330
17
100
AcDbEntity
  8
TRUSS_CHORD
100
AcDbPolyline
 90
2
 70
0
 10
5.0
 20
69.166667
 10
5.0
 20
75.0
  0
LWPOLYLINE
  5
77
330
17
100
AcDbEntity
  8
TRUSS_CHORD
100
AcDbPolyline
 90
2
 70
0
 10
11.0
 20
69.166667
 10
11.0
 20
75.0
  0
LWPOLYLINE
  5
78
330
17
100
AcDbEntity
  8
TRUSS_WEB
100
AcDbPolyline
 90
2
 70
0
 10
11.0
 20
69.166667
 10
5.0
 20
75.0
  0
LWPOLYLINE
  5
79
330
17
100
AcDbEntity
  8
TRUSS_CHORD
100
AcDbPolyline
 90
2
 70
0
 10
5.0
 20
75.0
 10
10.789474
 20
75.0
  0
LWPOLYLINE
  5
7A
330
17
100
AcDbEntity
  8
TRUSS_CHORD
100
AcDbPolyline
 90
2
 70
0
 10
5.0
 20
69.0
 10
10.789474
 20
69.0
  0
LWPOLYLINE
  5
7B
330
17
100
AcDbEntity
  8
TRUSS_WEB
100
AcDbPolyline
 90
2
 70
0
 10
5.0
 20
75.0
 10
10.789474
 20
69.0
  0
LWPOLYLINE
  5
7C
330
17
100
AcDbEntity
  8
TRUSS_CHORD
100
AcDbPolyline
 90
2
 70
0
 10
10.789474
 20
75.0
 10
16.578947
 20
75.0
  0
LWPOLYLINE
  5
7D
330
17
100
AcDbEntity
  8
TRUSS_CHORD
100
AcDbPolyline
 90
2
 70
0
 10
10.789474
 20
69.0
 10
16.578947
 20
69.0
  0
LWPOLYLINE
  5
7E
330
17
100
AcDbEntity
  8
TRUSS_WEB
100
AcDbPolyline
 90
2
 70
0
 10
10.789474
 20
69.0
 10
16.578947
 20
75.0
  0
LWPOLYLINE
  5
7F
330
17
100
AcDbEntity
  8
TRUSS_CHORD
100
AcDbPolyline
 90
2
 70
0
 10
16.578947
 20
75.0
 10
22.368421
 20
75.0
  0
LWPOLYLINE
  5
80
330
17
100
AcDbEntity
  8
TRUSS_CHORD
100
AcDbPolyline
 90
2
 70
0
 10
16.578947
 20
69.0
 10
22.368421
 20
69.0
  0
LWPOLYLINE
  5
81
330
17
100
AcDbEntity
  8
TRUSS_WEB
100
AcDbPolyline
 90
2
 70
0
 10
16.578947
 20
75.0
 10
22.368421
 20
69.0
  0
LWPOLYLINE
  5
82
330
17
100
AcDbEntity
  8
TRUSS_CHORD
100
AcDbPolyline
 90
2
 70
0
 10
22.368421
 20
75.0
 10
28.157895
 20
75.0
  0
LWPOLYLINE
  5
83
330
17
100
AcDbEntity
  8
TRUSS_CHORD
100
AcDbPolyline
 90
2
 70
0
 10
22.368421
 20
69.0
 10
28.157895
 20
69.0
  0
LWPOLYLINE
  5
84
330
17
100
AcDbEntity
  8
TRUSS_WEB
100
AcDbPolyline
 90
2
 70
0
 10
22.368421
 20
69.0
 10
28.157895
 20
75.0
  0
LWPOLYLINE
  5
85
330
17
100
AcDbEntity
  8
TRUSS_CHORD
100
AcDbPolyline
 90
2
 70
0
 10
28.157895
 20
75.0
 10
33.947368
 20
75.0
  0
LWPOLYLINE
  5
86
330
17
100
AcDbEntity
  8
TRUSS_CHORD
100
AcDbPolyline
 90
2
 70
0
 10
28.157895
 20
69.0
 10
33.947368
 20
69.0
  0
LWPOLYLINE
  5
87
330
17
100
AcDbEntity
  8
TRUSS_WEB
100
AcDbPolyline
 90
2
 70
0
 10
28.157895
 20
75.0
 10
33.947368
 20
69.0
  0
LWPOLYLINE
  5
88
330
17
100
AcDbEntity
  8
TRUSS_CHORD
100
AcDbPolyline
 90
2
 70
0
 10
33.947368
 20
75.0
 10
41.666667
 20
75.0
  0
LWPOLYLINE
  5
89
330
17
100
AcDbEntity
  8
TRUSS_CHORD
100
AcDbPolyline
 90
2
 70
0
 10
33.947368
 20
69.0
 10
41.666667
 20
69.0
  0
LWPOLYLINE
  5
8A
330
17
100
AcDbEntity
  8
TRUSS_WEB
100
AcDbPolyline
 90
2
 70
0
 10
33.947368
 20
69.0
 10
41.666667
 20
75.0
  0
LWPOLYLINE
  5
8B
330
17
100
AcDbEntity
  8
TRUSS_CHORD
100
AcDbPolyline
 90
2
 70
0
 10
41.666667
 20
75.0
 10
45.526316
 20
75.0
  0
LWPOLYLINE
  5
8C
330
17
100
AcDbEntity
  8
TRUSS_CHORD
100
AcDbPolyline
 90
2
 70
0
 10
41.666667
 20
69.0
 10
45.526316
 20
69.0
  0
LWPOLYLINE
  5
8D
330
17
100
AcDbEntity
  8
TRUSS_WEB
100
AcDbPolyline
 90
2
 70
0
 10
41.666667
 20
75.0
 10
45.526316
 20
69.0
  0
LWPOLYLINE
  5
8E
330
17
100
AcDbEntity
  8
TRUSS_CHORD
100
AcDbPolyline
 90
2
 70
0
 10
45.526316
 20
75.0
 10
51.315789
 20
75.0
  0
LWPOLYLINE
  5
8F
330
17
100
AcDbEntity
  8
TRUSS_CHORD
100
AcDbPolyline
 90
2
 70
0
 10
45.526316
 20
69.0
 10
51.315789
 20
69.0
  0
LWPOLYLINE
  5
90
330
17
100
AcDbEntity
  8
TRUSS_WEB
100
AcDbPolyline
 90
2
 70
0
 10
45.526316
 20
69.0
 10
51.315789
 20
75.0
  0
LWPOLYLINE
  5
91
330
17
100
AcDbEntity
  8
TRUSS_CHORD
100
AcDbPolyline
 90
2
 70
0
 10
51.315789
 20
75.0
 10
57.105263
 20
75.0
  0
LWPOLYLINE
  5
92
330
17
100
AcDbEntity
  8
TRUSS_CHORD
100
AcDbPolyline
 90
2
 70
0
 10
51.315789
 20
69.0
 10
57.105263
 20
69.0
  0
LWPOLYLINE
  5
93
330
17
100
AcDbEntity
  8
TRUSS_WEB
100
AcDbPolyline
 90
2
 70
0
 10
51.315789
 20
75.0
 10
57.105263
 20
69.0
  0
LWPOLYLINE
  5
94
330
17
100
AcDbEntity
  8
TRUSS_CHORD
100
AcDbPolyline
 90
2
 70
0
 10
57.105263
 20
75.0
 10
62.894737
 20
75.0
  0
LWPOLYLINE
  5
95
330
17
100
AcDbEntity
  8
TRUSS_CHORD
100
AcDbPolyline
 90
2
 70
0
 10
57.105263
 20
69.0
 10
62.894737
 20
69.0
  0
LWPOLYLINE
  5
96
330
17
100
AcDbEntity
  8
TRUSS_WEB
100
AcDbPolyline
 90
2
 70
0
 10
57.105263
 20
69.0
 10
62.894737
 20
75.0
  0
LWPOLYLINE
  5
97
330
17
100
AcDbEntity
  8
TRUSS_CHORD
100
AcDbPolyline
 90
2
 70
0
 10
62.894737
 20
75.0
 10
68.684211
 20
75.0
  0
LWPOLYLINE
  5
98
330
17
100
AcDbEntity
  8
TRUSS_CHORD
100
AcDbPolyline
 90
2
 70
0
 10
62.894737
 20
69.0
 10
68.684211
 20
69.0
  0
LWPOLYLINE
  5
99
330
17
100
AcDbEntity
  8
TRUSS_WEB
100
AcDbPolyline
 90
2
 70
0
 10
62.894737
 20
75.0
 10
68.684211
 20
69.0
  0
LWPOLYLINE
  5
9A
330
17
100
AcDbEntity
  8
TRUSS_CHORD
100
AcDbPolyline
 90
2
 70
0
 10
68.684211
 20
75.0
 10
74.473684
 20
75.0
  0
LWPOLYLINE
  5
9B
330
17
100
AcDbEntity
  8
TRUSS_CHORD
100
AcDbPolyline
 90
2
 70
0
 10
68.684211
 20
69.0
 10
74.473684
 20
69.0
  0
LWPOLYLINE
  5
9C
330
17
100
AcDbEntity
  8
TRUSS_WEB
100
AcDbPolyline
 90
2
 70
0
 10
68.684211
 20
69.0
 10
74.473684
 20
75.0
  0
LWPOLYLINE
  5
9D
330
17
100
AcDbEntity
  8
TRUSS_CHORD
100
AcDbPolyline
 90
2
 70
0
 10
74.473684
 20
75.0
 10
78.333333
 20
75.0
  0
LWPOLYLINE
  5
9E
330
17
100
AcDbEntity
  8
TRUSS_CHORD
100
AcDbPolyline
 90
2
 70
0
 10
74.473684
 20
69.0
 10
78.333333
 20
69.0
  0
LWPOLYLINE
  5
9F
330
17
100
AcDbEntity
  8
TRUSS_WEB
100
AcDbPolyline
 90
2
 70
0
 10
74.473684
 20
75.0
 10
78.333333
 20
69.0
  0
LWPOLYLINE
  5
A0
330
17
100
AcDbEntity
  8
TRUSS_CHORD
100
AcDbPolyline
 90
2
 70
0
 10
78.333333
 20
75.0
 10
86.052632
 20
75.0
  0
LWPOLYLINE
  5
A1
330
17
100
AcDbEntity
  8
TRUSS_CHORD
100
AcDbPolyline
 90
2
 70
0
 10
78.333333
 20
69.0
 10
86.052632
 20
69.0
  0
LWPOLYLINE
  5
A2
330
17
100
AcDbEntity
  8
TRUSS_WEB
100
AcDbPolyline
 90
2
 70
0
 10
78.333333
 20
69.0
 10
86.052632
 20
75.0
  0
LWPOLYLINE
  5
A3
330
17
100
AcDbEntity
  8
TRUSS_CHORD
100
AcDbPolyline
 90
2
 70
0
 10
86.052632
 20
75.0
 10
91.842105
 20
75.0
  0
LWPOLYLINE
  5
A4
330
17
100
AcDbEntity
  8
TRUSS_CHORD
100
AcDbPolyline
 90
2
 70
0
 10
86.052632
 20
69.0
 10
91.842105
 20
69.0
  0
LWPOLYLINE
  5
A5
330
17
100
AcDbEntity
  8
TRUSS_WEB
100
AcDbPolyline
 90
2
 70
0
 10
86.052632
 20
75.0
 10
91.842105
 20
69.0
  0
LWPOLYLINE
  5
A6
330
17
100
AcDbEntity
  8
TRUSS_CHORD
100
AcDbPolyline
 90
2
 70
0
 10
91.842105
 20
75.0
 10
97.631579
 20
75.0
  0
LWPOLYLINE
  5
A7
330
17
100
AcDbEntity
  8
TRUSS_CHORD
100
AcDbPolyline
 90
2
 70
0
 10
91.842105
 20
69.0
 10
97.631579
 20
69.0
  0
LWPOLYLINE
  5
A8
330
17
100
AcDbEntity
  8
TRUSS_WEB
100
AcDbPolyline
 90
2
 70
0
 10
91.842105
 20
69.0
 10
97.631579
 20
75.0
  0
LWPOLYLINE
  5
A9
330
17
100
AcDbEntity
  8
TRUSS_CHORD
100
AcDbPolyline
 90
2
 70
0
 10
97.631579
 20
75.0
 10
103.421053
 20
75.0
  0
LWPOLYLINE
  5
AA
330
17
100
AcDbEntity
  8
TRUSS_CHORD
100
AcDbPolyline
 90
2
 70
0
 10
97.631579
 20
69.0
 10
103.421053
 20
69.0
  0
LWPOLYLINE
  5
AB
330
17
100
AcDbEntity
  8
TRUSS_WEB
100
AcDbPolyline
 90
2
 70
0
 10
97.631579
 20
75.0
 10
103.421053
 20
69.0
  0
LWPOLYLINE
  5
AC
330
17
100
AcDbEntity
  8
TRUSS_CHORD
100
AcDbPolyline
 90
2
 70
0
 10
103.421053
 20
75.0
 10
109.210526
 20
75.0
  0
LWPOLYLINE
  5
AD
330
17
100
AcDbEntity
  8
TRUSS_CHORD
100
AcDbPolyline
 90
2
 70
0
 10
103.421053
 20
69.0
 10
109.210526
 20
69.0
  0
LWPOLYLINE
  5
AE
330
17
100
AcDbEntity
  8
TRUSS_WEB
100
AcDbPolyline
 90
2
 70
0
 10
103.421053
 20
69.0
 10
109.210526
 20
75.0
  0
LWPOLYLINE
  5
AF
330
17
100
AcDbEntity
  8
TRUSS_CHORD
100
AcDbPolyline
 90
2
 70
0
 10
109.210526
 20
75.0
 10
115.0
 20
75.0
  0
LWPOLYLINE
  5
B0
330
17
100
AcDbEntity
  8
TRUSS_CHORD
100
AcDbPolyline
 90
2
 70
0
 10
109.210526
 20
69.0
 10
115.0
 20
69.0
  0
LWPOLYLINE
  5
B1
330
17
100
AcDbEntity
  8
TRUSS_WEB
100
AcDbPolyline
 90
2
 70
0
 10
109.210526
 20
75.0
 10
115.0
 20
69.0
  0
LWPOLYLINE
  5
B2
330
17
100
AcDbEntity
  8
TRUSS_CHORD
100
AcDbPolyline
 90
2
 70
0
 10
115.0
 20
5.0
 10
115.0
 20
10.833333
  0
LWPOLYLINE
  5
B3
330
17
100
AcDbEntity
  8
TRUSS_CHORD
100
AcDbPolyline
 90
2
 70
0
 10
109.0
 20
5.0
 10
109.0
 20
10.833333
  0
LWPOLYLINE
  5
B4
330
17
100
AcDbEntity
  8
TRUSS_WEB
100
AcDbPolyline
 90
2
 70
0
 10
115.0
 20
5.0
 10
109.0
 20
10.833333
  0
LWPOLYLINE
  5
B5
330
17
100
AcDbEntity
  8
TRUSS_CHORD
100
AcDbPolyline
 90
2
 70
0
 10
115.0
 20
10.833333
 10
115.0
 20
16.666667
  0
LWPOLYLINE
  5
B6
330
17
100
AcDbEntity
  8
TRUSS_CHORD
100
AcDbPolyline
 90
2
 70
0
 10
109.0
 20
10.833333
 10
109.0
 20
16.666667
  0
LWPOLYLINE
  5
B7
330
17
100
AcDbEntity
  8
TRUSS_WEB
100
AcDbPolyline
 90
2
 70
0
 10
109.0
 20
10.833333
 10
115.0
 20
16.666667
  0
LWPOLYLINE
  5
B8
330
17
100
AcDbEntity
  8
TRUSS_CHORD
100
AcDbPolyline
 90
2
 70
0
 10
115.0
 20
16.666667
 10
115.0
 20
22.5
  0
LWPOLYLINE
  5
B9
330
17
100
AcDbEntity
  8
TRUSS_CHORD
100
AcDbPolyline
 90
2
 70
0
 10
109.0
 20
16.666667
 10
109.0
 20
22.5
  0
LWPOLYLINE
  5
BA
330
17
100
AcDbEntity
  8
TRUSS_WEB
100
AcDbPolyline
 90
2
 70
0
 10
115.0
 20
16.666667
 10
109.0
 20
22.5
  0
LWPOLYLINE
  5
BB
330
17
100
AcDbEntity
  8
TRUSS_CHORD
100
AcDbPolyline
 90
2
 70
0
 10
115.0
 20
22.5
 10
115.0
 20
28.333333
  0
LWPOLYLINE
  5
BC
330
17
100
AcDbEntity
  8
TRUSS_CHORD
100
AcDbPolyline
 90
2
 70
0
 10
109.0
 20
22.5
 10
109.0
 20
28.333333
  0
LWPOLYLINE
  5
BD
330
17
100
AcDbEntity
  8
TRUSS_WEB
100
AcDbPolyline
 90
2
 70
0
 10
109.0
 20
22.5
 10
115.0
 20
28.333333
  0
LWPOLYLINE
  5
BE
330
17
100
AcDbEntity
  8
TRUSS_CHORD
100
AcDbPolyline
 90
2
 70
0
 10
115.0
 20
28.333333
 10
115.0
 20
34.166667
  0
LWPOLYLINE
  5
BF
330
17
100
AcDbEntity
  8
TRUSS_CHORD
100
AcDbPolyline
 90
2
 70
0
 10
109.0
 20
28.333333
 10
109.0
 20
34.166667
  0
LWPOLYLINE
  5
C0
330
17
100
AcDbEntity
  8
TRUSS_WEB
100
AcDbPolyline
 90
2
 70
0
 10
115.0
 20
28.333333
 10
109.0
 20
34.166667
  0
LWPOLYLINE
  5
C1
330
17
100
AcDbEntity
  8
TRUSS_CHORD
100
AcDbPolyline
 90
2
 70
0
 10
115.0
 20
34.166667
 10
115.0
 20
40.0
  0
LWPOLYLINE
  5
C2
330
17
100
AcDbEntity
  8
TRUSS_CHORD
100
AcDbPolyline
 90
2
 70
0
 10
109.0
 20
34.166667
 10
109.0
 20
40.0
  0
LWPOLYLINE
  5
C3
330
17
100
AcDbEntity
  8
TRUSS_WEB
100
AcDbPolyline
 90
2
 70
0
 10
109.0
 20
34.166667
 10
115.0
 20
40.0
  0
LWPOLYLINE
  5
C4
330
17
100
AcDbEntity
  8
TRUSS_CHORD
100
AcDbPolyline
 90
2
 70
0
 10
115.0
 20
40.0
 10
115.0
 20
45.833333
  0
LWPOLYLINE
  5
C5
330
17
100
AcDbEntity
  8
TRUSS_CHORD
100
AcDbPolyline
 90
2
 70
0
 10
109.0
 20
40.0
 10
109.0
 20
45.833333
  0
LWPOLYLINE
  5
C6
330
17
100
AcDbEntity
  8
TRUSS_WEB
100
AcDbPolyline
 90
2
 70
0
 10
115.0
 20
40.0
 10
109.0
 20
45.833333
  0
LWPOLYLINE
  5
C7
330
17
100
AcDbEntity
  8
TRUSS_CHORD
100
AcDbPolyline
 90
2
 70
0
 10
115.0
 20
45.833333
 10
115.0
 20
51.666667
  0
LWPOLYLINE
  5
C8
330
17
100
AcDbEntity
  8
TRUSS_CHORD
100
AcDbPolyline
 90
2
 70
0
 10
109.0
 20
45.833333
 10
109.0
 20
51.666667
  0
LWPOLYLINE
  5
C9
330
17
100
AcDbEntity
  8
TRUSS_WEB
100
AcDbPolyline
 90
2
 70
0
 10
109.0
 20
45.833333
 10
115.0
 20
51.666667
  0
LWPOLYLINE
  5
CA
330
17
100
AcDbEntity
  8
TRUSS_CHORD
100
AcDbPolyline
 90
2
 70
0
 10
115.0
 20
51.666667
 10
115.0
 20
57.5
  0
LWPOLYLINE
  5
CB
330
17
100
AcDbEntity
  8
TRUSS_CHORD
100
AcDbPolyline
 90
2
 70
0
 10
109.0
 20
51.666667
 10
109.0
 20
57.5
  0
LWPOLYLINE
  5
CC
330
17
100
AcDbEntity
  8
TRUSS_WEB
100
AcDbPolyline
 90
2
 70
0
 10
115.0
 20
51.666667
 10
109.0
 20
57.5
  0
LWPOLYLINE
  5
CD
330
17
100
AcDbEntity
  8
TRUSS_CHORD
100
AcDbPolyline
 90
2
 70
0
 10
115.0
 20
57.5
 10
115.0
 20
63.333333
  0
LWPOLYLINE
  5
CE
330
17
100
AcDbEntity
  8
TRUSS_CHORD
100
AcDbPolyline
 90
2
 70
0
 10
109.0
 20
57.5
 10
109.0
 20
63.333333
  0
LWPOLYLINE
  5
CF
330
17
100
AcDbEntity
  8
TRUSS_WEB
100
AcDbPolyline
 90
2
 70
0
 10
109.0
 20
57.5
 10
115.0
 20
63.333333
  0
LWPOLYLINE
  5
D0
330
17
100
AcDbEntity
  8
TRUSS_CHORD
100
AcDbPolyline
 90
2
 70
0
 10
115.0
 20
63.333333
 10
115.0
 20
69.166667
  0
LWPOLYLINE
  5
D1
330
17
100
AcDbEntity
  8
TRUSS_CHORD
100
AcDbPolyline
 90
2
 70
0
 10
109.0
 20
63.333333
 10
109.0
 20
69.166667
  0
LWPOLYLINE
  5
D2
330
17
100
AcDbEntity
  8
TRUSS_WEB
100
AcDbPolyline
 90
2
 70
0
 10
115.0
 20
63.333333
 10
109.0
 20
69.166667
  0
LWPOLYLINE
  5
D3
330
17
100
AcDbEntity
  8
TRUSS_CHORD
100
AcDbPolyline
 90
2
 70
0
 10
115.0
 20
69.166667
 10
115.0
 20
75.0
  0
LWPOLYLINE
  5
D4
330
17
100
AcDbEntity
  8
TRUSS_CHORD
100
AcDbPolyline
 90
2
 70
0
 10
109.0
 20
69.166667
 10
109.0
 20
75.0
  0
LWPOLYLINE
  5
D5
330
17
100
AcDbEntity
  8
TRUSS_WEB
100
AcDbPolyline
 90
2
 70
0
 10
109.0
 20
69.166667
 10
115.0
 20
75.0
  0
LWPOLYLINE
  5
D6
330
17
100
AcDbEntity
  8
TRUSS_CHORD
100
AcDbPolyline
 90
2
 70
0
 10
5.0
 20
5.0
 10
10.789474
 20
5.0
  0
LWPOLYLINE
  5
D7
330
17
100
AcDbEntity
  8
TRUSS_CHORD
100
AcDbPolyline
 90
2
 70
0
 10
5.0
 20
11.0
 10
10.789474
 20
11.0
  0
LWPOLYLINE
  5
D8
330
17
100
AcDbEntity
  8
TRUSS_WEB
100
AcDbPolyline
 90
2
 70
0
 10
5.0
 20
5.0
 10
10.789474
 20
11.0
  0
LWPOLYLINE
  5
D9
330
17
100
AcDbEntity
  8
TRUSS_CHORD
100
AcDbPolyline
 90
2
 70
0
 10
10.789474
 20
5.0
 10
16.578947
 20
5.0
  0
LWPOLYLINE
  5
DA
330
17
100
AcDbEntity
  8
TRUSS_CHORD
100
AcDbPolyline
 90
2
 70
0
 10
10.789474
 20
11.0
 10
16.578947
 20
11.0
  0
LWPOLYLINE
  5
DB
330
17
100
AcDbEntity
  8
TRUSS_WEB
100
AcDbPolyline
 90
2
 70
0
 10
10.789474
 20
11.0
 10
16.578947
 20
5.0
  0
LWPOLYLINE
  5
DC
330
17
100
AcDbEntity
  8
TRUSS_CHORD
100
AcDbPolyline
 90
2
 70
0
 10
16.578947
 20
5.0
 10
22.368421
 20
5.0
  0
LWPOLYLINE
  5
DD
330
17
100
AcDbEntity
  8
TRUSS_CHORD
100
AcDbPolyline
 90
2
 70
0
 10
16.578947
 20
11.0
 10
22.368421
 20
11.0
  0
LWPOLYLINE
  5
DE
330
17
100
AcDbEntity
  8
TRUSS_WEB
100
AcDbPolyline
 90
2
 70
0
 10
16.578947
 20
5.0
 10
22.368421
 20
11.0
  0
LWPOLYLINE
  5
DF
330
17
100
AcDbEntity
  8
TRUSS_CHORD
100
AcDbPolyline
 90
2
 70
0
 10
22.368421
 20
5.0
 10
28.157895
 20
5.0
  0
LWPOLYLINE
  5
E0
330
17
100
AcDbEntity
  8
TRUSS_CHORD
100
AcDbPolyline
 90
2
 70
0
 10
22.368421
 20
11.0
 10
28.157895
 20
11.0
  0
LWPOLYLINE
  5
E1
330
17
100
AcDbEntity
  8
TRUSS_WEB
100
AcDbPolyline
 90
2
 70
0
 10
22.368421
 20
11.0
 10
28.157895
 20
5.0
  0
LWPOLYLINE
  5
E2
330
17
100
AcDbEntity
  8
TRUSS_CHORD
100
AcDbPolyline
 90
2
 70
0
 10
28.157895
 20
5.0
 10
33.947368
 20
5.0
  0
LWPOLYLINE
  5
E3
330
17
100
AcDbEntity
  8
TRUSS_CHORD
100
AcDbPolyline
 90
2
 70
0
 10
28.157895
 20
11.0
 10
33.947368
 20
11.0
  0
LWPOLYLINE
  5
E4
330
17
100
AcDbEntity
  8
TRUSS_WEB
100
AcDbPolyline
 90
2
 70
0
 10
28.157895
 20
5.0
 10
33.947368
 20
11.0
  0
LWPOLYLINE
  5
E5
330
17
100
AcDbEntity
  8
TRUSS_CHORD
100
AcDbPolyline
 90
2
 70
0
 10
33.947368
 20
5.0
 10
41.666667
 20
5.0
  0
LWPOLYLINE
  5
E6
330
17
100
AcDbEntity
  8
TRUSS_CHORD
100
AcDbPolyline
 90
2
 70
0
 10
33.947368
 20
11.0
 10
41.666667
 20
11.0
  0
LWPOLYLINE
  5
E7
330
17
100
AcDbEntity
  8
TRUSS_WEB
100
AcDbPolyline
 90
2
 70
0
 10
33.947368
 20
11.0
 10
41.666667
 20
5.0
  0
LWPOLYLINE
  5
E8
330
17
100
AcDbEntity
  8
TRUSS_CHORD
100
AcDbPolyline
 90
2
 70
0
 10
41.666667
 20
5.0
 10
45.526316
 20
5.0
  0
LWPOLYLINE
  5
E9
330
17
100
AcDbEntity
  8
TRUSS_CHORD
100
AcDbPolyline
 90
2
 70
0
 10
41.666667
 20
11.0
 10
45.526316
 20
11.0
  0
LWPOLYLINE
  5
EA
330
17
100
AcDbEntity
  8
TRUSS_WEB
100
AcDbPolyline
 90
2
 70
0
 10
41.666667
 20
5.0
 10
45.526316
 20
11.0
  0
LWPOLYLINE
  5
EB
330
17
100
AcDbEntity
  8
TRUSS_CHORD
100
AcDbPolyline
 90
2
 70
0
 10
45.526316
 20
5.0
 10
51.315789
 20
5.0
  0
LWPOLYLINE
  5
EC
330
17
100
AcDbEntity
  8
TRUSS_CHORD
100
AcDbPolyline
 90
2
 70
0
 10
45.526316
 20
11.0
 10
51.315789
 20
11.0
  0
LWPOLYLINE
  5
ED
330
17
100
AcDbEntity
  8
TRUSS_WEB
100
AcDbPolyline
 90
2
 70
0
 10
45.526316
 20
11.0
 10
51.315789
 20
5.0
  0
LWPOLYLINE
  5
EE
330
17
100
AcDbEntity
  8
TRUSS_CHORD
100
AcDbPolyline
 90
2
 70
0
 10
51.315789
 20
5.0
 10
57.105263
 20
5.0
  0
LWPOLYLINE
  5
EF
330
17
100
AcDbEntity
  8
TRUSS_CHORD
100
AcDbPolyline
 90
2
 70
0
 10
51.315789
 20
11.0
 10
57.105263
 20
11.0
  0
LWPOLYLINE
  5
F0
330
17
100
AcDbEntity
  8
TRUSS_WEB
100
AcDbPolyline
 90
2
 70
0
 10
51.315789
 20
5.0
 10
57.105263
 20
11.0
  0
LWPOLYLINE
  5
F1
330
17
100
AcDbEntity
  8
TRUSS_CHORD
100
AcDbPolyline
 90
2
 70
0
 10
57.105263
 20
5.0
 10
62.894737
 20
5.0
  0
LWPOLYLINE
  5
F2
330
17
100
AcDbEntity
  8
TRUSS_CHORD
100
AcDbPolyline
 90
2
 70
0
 10
57.105263
 20
11.0
 10
62.894737
 20
11.0
  0
LWPOLYLINE
  5
F3
330
17
100
AcDbEntity
  8
TRUSS_WEB
100
AcDbPolyline
 90
2
 70
0
 10
57.105263
 20
11.0
 10
62.894737
 20
5.0
  0
LWPOLYLINE
  5
F4
330
17
100
AcDbEntity
  8
TRUSS_CHORD
100
AcDbPolyline
 90
2
 70
0
 10
62.894737
 20
5.0
 10
68.684211
 20
5.0
  0
LWPOLYLINE
  5
F5
330
17
100
AcDbEntity
  8
TRUSS_CHORD
100
AcDbPolyline
 90
2
 70
0
 10
62.894737
 20
11.0
 10
68.684211
 20
11.0
  0
LWPOLYLINE
  5
F6
330
17
100
AcDbEntity
  8
TRUSS_WEB
100
AcDbPolyline
 90
2
 70
0
 10
62.894737
 20
5.0
 10
68.684211
 20
11.0
  0
LWPOLYLINE
  5
F7
330
17
100
AcDbEntity
  8
TRUSS_CHORD
100
AcDbPolyline
 90
2
 70
0
 10
68.684211
 20
5.0
 10
74.473684
 20
5.0
  0
LWPOLYLINE
  5
F8
330
17
100
AcDbEntity
  8
TRUSS_CHORD
100
AcDbPolyline
 90
2
 70
0
 10
68.684211
 20
11.0
 10
74.473684
 20
11.0
  0
LWPOLYLINE
  5
F9
330
17
100
AcDbEntity
  8
TRUSS_WEB
100
AcDbPolyline
 90
2
 70
0
 10
68.684211
 20
11.0
 10
74.473684
 20
5.0
  0
LWPOLYLINE
  5
FA
330
17
100
AcDbEntity
  8
TRUSS_CHORD
100
AcDbPolyline
 90
2
 70
0
 10
74.473684
 20
5.0
 10
78.333333
 20
5.0
  0
LWPOLYLINE
  5
FB
330
17
100
AcDbEntity
  8
TRUSS_CHORD
100
AcDbPolyline
 90
2
 70
0
 10
74.473684
 20
11.0
 10
78.333333
 20
11.0
  0
LWPOLYLINE
  5
FC
330
17
100
AcDbEntity
  8
TRUSS_WEB
100
AcDbPolyline
 90
2
 70
0
 10
74.473684
 20
5.0
 10
78.333333
 20
11.0
  0
LWPOLYLINE
  5
FD
330
17
100
AcDbEntity
  8
TRUSS_CHORD
100
AcDbPolyline
 90
2
 70
0
 10
78.333333
 20
5.0
 10
86.052632
 20
5.0
  0
LWPOLYLINE
  5
FE
330
17
100
AcDbEntity
  8
TRUSS_CHORD
100
AcDbPolyline
 90
2
 70
0
 10
78.333333
 20
11.0
 10
86.052632
 20
11.0
  0
LWPOLYLINE
  5
FF
330
17
100
AcDbEntity
  8
TRUSS_WEB
100
AcDbPolyline
 90
2
 70
0
 10
78.333333
 20
11.0
 10
86.052632
 20
5.0
  0
LWPOLYLINE
  5
100
330
17
100
AcDbEntity
  8
TRUSS_CHORD
100
AcDbPolyline
 90
2
 70
0
 10
86.052632
 20
5.0
 10
91.842105
 20
5.0
  0
LWPOLYLINE
  5
101
330
17
100
AcDbEntity
  8
TRUSS_CHORD
100
AcDbPolyline
 90
2
 70
0
 10
86.052632
 20
11.0
 10
91.842105
 20
11.0
  0
LWPOLYLINE
  5
102
330
17
100
AcDbEntity
  8
TRUSS_WEB
100
AcDbPolyline
 90
2
 70
0
 10
86.052632
 20
5.0
 10
91.842105
 20
11.0
  0
LWPOLYLINE
  5
103
330
17
100
AcDbEntity
  8
TRUSS_CHORD
100
AcDbPolyline
 90
2
 70
0
 10
91.842105
 20
5.0
 10
97.631579
 20
5.0
  0
LWPOLYLINE
  5
104
330
17
100
AcDbEntity
  8
TRUSS_CHORD
100
AcDbPolyline
 90
2
 70
0
 10
91.842105
 20
11.0
 10
97.631579
 20
11.0
  0
LWPOLYLINE
  5
105
330
17
100
AcDbEntity
  8
TRUSS_WEB
100
AcDbPolyline
 90
2
 70
0
 10
91.842105
 20
11.0
 10
97.631579
 20
5.0
  0
LWPOLYLINE
  5
106
330
17
100
AcDbEntity
  8
TRUSS_CHORD
100
AcDbPolyline
 90
2
 70
0
 10
97.631579
 20
5.0
 10
103.421053
 20
5.0
  0
LWPOLYLINE
  5
107
330
17
100
AcDbEntity
  8
TRUSS_CHORD
100
AcDbPolyline
 90
2
 70
0
 10
97.631579
 20
11.0
 10
103.421053
 20
11.0
  0
LWPOLYLINE
  5
108
330
17
100
AcDbEntity
  8
TRUSS_WEB
100
AcDbPolyline
 90
2
 70
0
 10
97.631579
 20
5.0
 10
103.421053
 20
11.0
  0
LWPOLYLINE
  5
109
330
17
100
AcDbEntity
  8
TRUSS_CHORD
100
AcDbPolyline
 90
2
 70
0
 10
103.421053
 20
5.0
 10
109.210526
 20
5.0
  0
LWPOLYLINE
  5
10A
330
17
100
AcDbEntity
  8
TRUSS_CHORD
100
AcDbPolyline
 90
2
 70
0
 10
103.421053
 20
11.0
 10
109.210526
 20
11.0
  0
LWPOLYLINE
  5
10B
330
17
100
AcDbEntity
  8
TRUSS_WEB
100
AcDbPolyline
 90
2
 70
0
 10
103.421053
 20
11.0
 10
109.210526
 20
5.0
  0
LWPOLYLINE
  5
10C
330
17
100
AcDbEntity
  8
TRUSS_CHORD
100
AcDbPolyline
 90
2
 70
0
 10
109.210526
 20
5.0
 10
115.0
 20
5.0
  0
LWPOLYLINE
  5
10D
330
17
100
AcDbEntity
  8
TRUSS_CHORD
100
AcDbPolyline
 90
2
 70
0
 10
109.210526
 20
11.0
 10
115.0
 20
11.0
  0
LWPOLYLINE
  5
10E
330
17
100
AcDbEntity
  8
TRUSS_WEB
100
AcDbPolyline
 90
2
 70
0
 10
109.210526
 20
5.0
 10
115.0
 20
11.0
  0
LWPOLYLINE
  5
10F
330
17
100
AcDbEntity
  8
WALING_OUTLINE
100
AcDbPolyline
 90
5
 70
1
 10
4.6
 20
4.6
 10
4.6
 20
75.4
 10
115.4
 20
75.4
 10
115.4
 20
4.6
 10
4.6
 20
4.6
  0
LWPOLYLINE
  5
110
330
17
100
AcDbEntity
  8
STRUT_OUTLINE
100
AcDbPolyline
 90
5
 70
1
 10
38.86666666666667
 20
75.0
 10
39.666666666666664
 20
75.0
 10
39.666666666666664
 20
5.0
 10
38.86666666666667
 20
5.0
 10
38.86666666666667
 20
75.0
  0
LWPOLYLINE
  5
111
330
17
100
AcDbEntity
  8
STRUT_OUTLINE
100
AcDbPolyline
 90
5
 70
1
 10
43.666666666666664
 20
75.0
 10
44.46666666666666
 20
75.0
 10
44.46666666666666
 20
5.0
 10
43.666666666666664
 20
5.0
 10
43.666666666666664
 20
75.0
  0
LWPOLYLINE
  5
112
330
17
100
AcDbEntity
  8
STRUT_OUTLINE
100
AcDbPolyline
 90
5
 70
1
 10
75.53333333333332
 20
75.0
 10
76.33333333333333
 20
75.0
 10
76.33333333333333
 20
5.0
 10
75.53333333333332
 20
5.0
 10
75.53333333333332
 20
75.0
  0
LWPOLYLINE
  5
113
330
17
100
AcDbEntity
  8
STRUT_OUTLINE
100
AcDbPolyline
 90
5
 70
1
 10
80.33333333333333
 20
75.0
 10
81.13333333333334
 20
75.0
 10
81.13333333333334
 20
5.0
 10
80.33333333333333
 20
5.0
 10
80.33333333333333
 20
75.0
  0
LWPOLYLINE
  5
114
330
17
100
AcDbEntity
  8
STRUT_OUTLINE
100
AcDbPolyline
 90
5
 70
1
 10
115.0
 20
38.0
 10
115.0
 20
37.2
 10
5.0
 20
37.2
 10
5.0
 20
38.0
 10
115.0
 20
38.0
  0
LWPOLYLINE
  5
115
330
17
100
AcDbEntity
  8
STRUT_OUTLINE
100
AcDbPolyline
 90
5
 70
1
 10
115.0
 20
42.8
 10
115.0
 20
42.0
 10
5.0
 20
42.0
 10
5.0
 20
42.8
 10
115.0
 20
42.8
  0
LWPOLYLINE
  5
116
330
17
100
AcDbEntity
  8
STRUT_OUTLINE
100
AcDbPolyline
 90
5
 70
1
 10
44.06666666666666
 20
19.15
 10
44.06666666666666
 20
18.85
 10
39.266666666666666
 20
18.85
 10
39.266666666666666
 20
19.15
 10
44.06666666666666
 20
19.15
  0
LWPOLYLINE
  5
117
330
17
100
AcDbEntity
  8
STRUT_OUTLINE
100
AcDbPolyline
 90
5
 70
1
 10
44.06666666666666
 20
33.15
 10
44.06666666666666
 20
32.85
 10
39.266666666666666
 20
32.85
 10
39.266666666666666
 20
33.15
 10
44.06666666666666
 20
33.15
  0
LWPOLYLINE
  5
118
330
17
100
AcDbEntity
  8
STRUT_OUTLINE
100
AcDbPolyline
 90
5
 70
1
 10
44.06666666666666
 20
47.15
 10
44.06666666666666
 20
46.85
 10
39.266666666666666
 20
46.85
 10
39.266666666666666
 20
47.15
 10
44.06666666666666
 20
47.15
  0
LWPOLYLINE
  5
119
330
17
100
AcDbEntity
  8
STRUT_OUTLINE
100
AcDbPolyline
 90
5
 70
1
 10
44.06666666666666
 20
61.15
 10
44.06666666666666
 20
60.85
 10
39.266666666666666
 20
60.85
 10
39.266666666666666
 20
61.15
 10
44.06666666666666
 20
61.15
  0
LWPOLYLINE
  5
11A
330
17
100
AcDbEntity
  8
STRUT_OUTLINE
100
AcDbPolyline
 90
5
 70
1
 10
80.73333333333333
 20
19.15
 10
80.73333333333333
 20
18.85
 10
75.93333333333332
 20
18.85
 10
75.93333333333332
 20
19.15
 10
80.73333333333333
 20
19.15
  0
LWPOLYLINE
  5
11B
330
17
100
AcDbEntity
  8
STRUT_OUTLINE
100
AcDbPolyline
 90
5
 70
1
 10
80.73333333333333
 20
33.15
 10
80.73333333333333
 20
32.85
 10
75.93333333333332
 20
32.85
 10
75.93333333333332
 20
33.15
 10
80.73333333333333
 20
33.15
  0
LWPOLYLINE
  5
11C
330
17
100
AcDbEntity
  8
STRUT_OUTLINE
100
AcDbPolyline
 90
5
 70
1
 10
80.73333333333333
 20
47.15
 10
80.73333333333333
 20
46.85
 10
75.93333333333332
 20
46.85
 10
75.93333333333332
 20
47.15
 10
80.73333333333333
 20
47.15
  0
LWPOLYLINE
  5
11D
330
17
100
AcDbEntity
  8
STRUT_OUTLINE
100
AcDbPolyline
 90
5
 70
1
 10
80.73333333333333
 20
61.15
 10
80.73333333333333
 20
60.85
 10
75.93333333333332
 20
60.85
 10
75.93333333333332
 20
61.15
 10
80.73333333333333
 20
61.15
  0
LWPOLYLINE
  5
11E
330
17
100
AcDbEntity
  8
STRUT_OUTLINE
100
AcDbPolyline
 90
5
 70
1
 10
18.6
 20
42.4
 10
18.9
 20
42.4
 10
18.9
 20
37.6
 10
18.6
 20
37.6
 10
18.6
 20
42.4
  0
LWPOLYLINE
  5
11F
330
17
100
AcDbEntity
  8
STRUT_OUTLINE
100
AcDbPolyline
 90
5
 70
1
 10
32.35
 20
42.4
 10
32.65
 20
42.4
 10
32.65
 20
37.6
 10
32.35
 20
37.6
 10
32.35
 20
42.4
  0
LWPOLYLINE
  5
120
330
17
100
AcDbEntity
  8
STRUT_OUTLINE
100
AcDbPolyline
 90
5
 70
1
 10
46.1
 20
42.4
 10
46.4
 20
42.4
 10
46.4
 20
37.6
 10
46.1
 20
37.6
 10
46.1
 20
42.4
  0
LWPOLYLINE
  5
121
330
17
100
AcDbEntity
  8
STRUT_OUTLINE
100
AcDbPolyline
 90
5
 70
1
 10
59.85
 20
42.4
 10
60.15
 20
42.4
 10
60.15
 20
37.6
 10
59.85
 20
37.6
 10
59.85
 20
42.4
  0
LWPOLYLINE
  5
122
330
17
100
AcDbEntity
  8
STRUT_OUTLINE
100
AcDbPolyline
 90
5
 70
1
 10
73.6
 20
42.4
 10
73.9
 20
42.4
 10
73.9
 20
37.6
 10
73.6
 20
37.6
 10
73.6
 20
42.4
  0
LWPOLYLINE
  5
123
330
17
100
AcDbEntity
  8
STRUT_OUTLINE
100
AcDbPolyline
 90
5
 70
1
 10
87.35
 20
42.4
 10
87.65
 20
42.4
 10
87.65
 20
37.6
 10
87.35
 20
37.6
 10
87.35
 20
42.4
  0
LWPOLYLINE
  5
124
330
17
100
AcDbEntity
  8
STRUT_OUTLINE
100
AcDbPolyline
 90
5
 70
1
 10
101.1
 20
42.4
 10
101.4
 20
42.4
 10
101.4
 20
37.6
 10
101.1
 20
37.6
 10
101.1
 20
42.4
  0
LWPOLYLINE
  5
125
330
17
100
AcDbEntity
  8
TRUSS_CHORD
100
AcDbPolyline
 90
5
 70
1
 10
4.6
 20
10.833333
 10
5.4
 20
10.833333
 10
5.4
 20
5.0
 10
4.6
 20
5.0
 10
4.6
 20
10.833333
  0
LWPOLYLINE
  5
126
330
17
100
AcDbEntity
  8
TRUSS_CHORD
100
AcDbPolyline
 90
5
 70
1
 10
10.6
 20
10.833333
 10
11.4
 20
10.833333
 10
11.4
 20
5.0
 10
10.6
 20
5.0
 10
10.6
 20
10.833333
  0
LWPOLYLINE
  5
127
330
17
100
AcDbEntity
  8
STRUT_OUTLINE
100
AcDbPolyline
 90
5
 70
1
 10
10.721168650874255
 20
11.120130975489221
 10
11.278831349125745
 20
10.546535024510778
 10
5.2788313491257455
 20
4.713202024510777
 10
4.7211686508742545
 20
5.286797975489223
 10
10.721168650874255
 20
11.120130975489221
  0
LWPOLYLINE
  5
128
330
17
100
AcDbEntity
  8
TRUSS_CHORD
100
AcDbPolyline
 90
5
 70
1
 10
4.6
 20
16.666667
 10
5.4
 20
16.666667
 10
5.4
 20
10.833333
 10
4.6
 20
10.833333
 10
4.6
 20
16.666667
  0
LWPOLYLINE
  5
129
330
17
100
AcDbEntity
  8
TRUSS_CHORD
100
AcDbPolyline
 90
5
 70
1
 10
10.6
 20
16.666667
 10
11.4
 20
16.666667
 10
11.4
 20
10.833333
 10
10.6
 20
10.833333
 10
10.6
 20
16.666667
  0
LWPOLYLINE
  5
12A
330
17
100
AcDbEntity
  8
STRUT_OUTLINE
100
AcDbPolyline
 90
5
 70
1
 10
4.721168626301324
 20
16.37986904840113
 10
5.278831373698676
 20
16.95346495159887
 10
11.278831373698676
 20
11.120130951598872
 10
10.721168626301324
 20
10.546535048401127
 10
4.721168626301324
 20
16.37986904840113
  0
LWPOLYLINE
  5
12B
330
17
100
AcDbEntity
  8
TRUSS_CHORD
100
AcDbPolyline
 90
5
 70
1
 10
4.6
 20
22.5
 10
5.4
 20
22.5
 10
5.4
 20
16.666667
 10
4.6
 20
16.666667
 10
4.6
 20
22.5
  0
LWPOLYLINE
  5
12C
330
17
100
AcDbEntity
  8
TRUSS_CHORD
100
AcDbPolyline
 90
5
 70
1
 10
10.6
 20
22.5
 10
11.4
 20
22.5
 10
11.4
 20
16.666667
 10
10.6
 20
16.666667
 10
10.6
 20
22.5
  0
LWPOLYLINE
  5
12D
330
17
100
AcDbEntity
  8
STRUT_OUTLINE
100
AcDbPolyline
 90
5
 70
1
 10
10.721168650874255
 20
22.786797975489222
 10
11.278831349125745
 20
22.213202024510778
 10
5.2788313491257455
 20
16.37986902451078
 10
4.7211686508742545
 20
16.953464975489222
 10
10.721168650874255
 20
22.786797975489222
  0
LWPOLYLINE
  5
12E
330
17
100
AcDbEntity
  8
TRUSS_CHORD
100
AcDbPolyline
 90
5
 70
1
 10
4.6
 20
28.333333
 10
5.4
 20
28.333333
 10
5.4
 20
22.5
 10
4.6
 20
22.5
 10
4.6
 20
28.333333
  0
LWPOLYLINE
  5
12F
330
17
100
AcDbEntity
  8
TRUSS_CHORD
100
AcDbPolyline
 90
5
 70
1
 10
10.6
 20
28.333333
 10
11.4
 20
28.333333
 10
11.4
 20
22.5
 10
10.6
 20
22.5
 10
10.6
 20
28.333333
  0
LWPOLYLINE
  5
130
330
17
100
AcDbEntity
  8
STRUT_OUTLINE
100
AcDbPolyline
 90
5
 70
1
 10
4.7211686508742545
 20
28.046535024510778
 10
5.2788313491257455
 20
28.62013097548922
 10
11.278831349125745
 20
22.786797975489222
 10
10.721168650874255
 20
22.213202024510778
 10
4.7211686508742545
 20
28.046535024510778
  0
LWPOLYLINE
  5
131
330
17
100
AcDbEntity
  8
TRUSS_CHORD
100
AcDbPolyline
 90
5
 70
1
 10
4.6
 20
34.166667
 10
5.4
 20
34.166667
 10
5.4
 20
28.333333
 10
4.6
 20
28.333333
 10
4.6
 20
34.166667
  0
LWPOLYLINE
  5
132
330
17
100
AcDbEntity
  8
TRUSS_CHORD
100
AcDbPolyline
 90
5
 70
1
 10
10.6
 20
34.166667
 10
11.4
 20
34.166667
 10
11.4
 20
28.333333
 10
10.6
 20
28.333333
 10
10.6
 20
34.166667
  0
LWPOLYLINE
  5
133
330
17
100
AcDbEntity
  8
STRUT_OUTLINE
100
AcDbPolyline
 90
5
 70
1
 10
10.721168626301324
 20
34.45346495159887
 10
11.278831373698676
 20
33.879869048401126
 10
5.278831373698676
 20
28.046535048401125
 10
4.721168626301324
 20
28.620130951598874
 10
10.721168626301324
 20
34.45346495159887
  0
LWPOLYLINE
  5
134
330
17
100
AcDbEntity
  8
TRUSS_CHORD
100
AcDbPolyline
 90
5
 70
1
 10
4.6
 20
40.0
 10
5.4
 20
40.0
 10
5.4
 20
34.166667
 10
4.6
 20
34.166667
 10
4.6
 20
40.0
  0
LWPOLYLINE
  5
135
330
17
100
AcDbEntity
  8
TRUSS_CHORD
100
AcDbPolyline
 90
5
 70
1
 10
10.6
 20
40.0
 10
11.4
 20
40.0
 10
11.4
 20
34.166667
 10
10.6
 20
34.166667
 10
10.6
 20
40.0
  0
LWPOLYLINE
  5
136
330
17
100
AcDbEntity
  8
STRUT_OUTLINE
100
AcDbPolyline
 90
5
 70
1
 10
4.7211686508742545
 20
39.71320202451078
 10
5.2788313491257455
 20
40.28679797548922
 10
11.278831349125745
 20
34.45346497548922
 10
10.721168650874255
 20
33.879869024510775
 10
4.7211686508742545
 20
39.71320202451078
  0
LWPOLYLINE
  5
137
330
17
100
AcDbEntity
  8
TRUSS_CHORD
100
AcDbPolyline
 90
5
 70
1
 10
4.6
 20
45.833333
 10
5.4
 20
45.833333
 10
5.4
 20
40.0
 10
4.6
 20
40.0
 10
4.6
 20
45.833333
  0
LWPOLYLINE
  5
138
330
17
100
AcDbEntity
  8
TRUSS_CHORD
100
AcDbPolyline
 90
5
 70
1
 10
10.6
 20
45.833333
 10
11.4
 20
45.833333
 10
11.4
 20
40.0
 10
10.6
 20
40.0
 10
10.6
 20
45.833333
  0
LWPOLYLINE
  5
139
330
17
100
AcDbEntity
  8
STRUT_OUTLINE
100
AcDbPolyline
 90
5
 70
1
 10
10.721168650874255
 20
46.120130975489225
 10
11.278831349125745
 20
45.54653502451078
 10
5.2788313491257455
 20
39.71320202451078
 10
4.7211686508742545
 20
40.28679797548922
 10
10.721168650874255
 20
46.120130975489225
  0
LWPOLYLINE
  5
13A
330
17
100
AcDbEntity
  8
TRUSS_CHORD
100
AcDbPolyline
 90
5
 70
1
 10
4.6
 20
51.666667
 10
5.4
 20
51.666667
 10
5.4
 20
45.833333
 10
4.6
 20
45.833333
 10
4.6
 20
51.666667
  0
LWPOLYLINE
  5
13B
330
17
100
AcDbEntity
  8
TRUSS_CHORD
100
AcDbPolyline
 90
5
 70
1
 10
10.6
 20
51.666667
 10
11.4
 20
51.666667
 10
11.4
 20
45.833333
 10
10.6
 20
45.833333
 10
10.6
 20
51.666667
  0
LWPOLYLINE
  5
13C
330
17
100
AcDbEntity
  8
STRUT_OUTLINE
100
AcDbPolyline
 90
5
 70
1
 10
4.721168626301324
 20
51.379869048401126
 10
5.278831373698676
 20
51.95346495159887
 10
11.278831373698676
 20
46.120130951598874
 10
10.721168626301324
 20
45.54653504840113
 10
4.721168626301324
 20
51.379869048401126
  0
LWPOLYLINE
  5
13D
330
17
100
AcDbEntity
  8
TRUSS_CHORD
100
AcDbPolyline
 90
5
 70
1
 10
4.6
 20
57.5
 10
5.4
 20
57.5
 10
5.4
 20
51.666667
 10
4.6
 20
51.666667
 10
4.6
 20
57.5
  0
LWPOLYLINE
  5
13E
330
17
100
AcDbEntity
  8
TRUSS_CHORD
100
AcDbPolyline
 90
5
 70
1
 10
10.6
 20
57.5
 10
11.4
 20
57.5
 10
11.4
 20
51.666667
 10
10.6
 20
51.666667
 10
10.6
 20
57.5
  0
LWPOLYLINE
  5
13F
330
17
100
AcDbEntity
  8
STRUT_OUTLINE
100
AcDbPolyline
 90
5
 70
1
 10
10.721168650874255
 20
57.78679797548922
 10
11.278831349125745
 20
57.21320202451078
 10
5.2788313491257455
 20
51.379869024510775
 10
4.7211686508742545
 20
51.95346497548922
 10
10.721168650874255
 20
57.78679797548922
  0
LWPOLYLINE
  5
140
330
17
100
AcDbEntity
  8
TRUSS_CHORD
100
AcDbPolyline
 90
5
 70
1
 10
4.6
 20
63.333333
 10
5.4
 20
63.333333
 10
5.4
 20
57.5
 10
4.6
 20
57.5
 10
4.6
 20
63.333333
  0
LWPOLYLINE
  5
141
330
17
100
AcDbEntity
  8
TRUSS_CHORD
100
AcDbPolyline
 90
5
 70
1
 10
10.6
 20
63.333333
 10
11.4
 20
63.333333
 10
11.4
 20
57.5
 10
10.6
 20
57.5
 10
10.6
 20
63.333333
  0
LWPOLYLINE
  5
142
330
17
100
AcDbEntity
  8
STRUT_OUTLINE
100
AcDbPolyline
 90
5
 70
1
 10
4.7211686508742545
 20
63.04653502451078
 10
5.2788313491257455
 20
63.620130975489225
 10
11.278831349125745
 20
57.78679797548922
 10
10.721168650874255
 20
57.21320202451078
 10
4.7211686508742545
 20
63.04653502451078
  0
LWPOLYLINE
  5
143
330
17
100
AcDbEntity
  8
TRUSS_CHORD
100
AcDbPolyline
 90
5
 70
1
 10
4.6
 20
69.166667
 10
5.4
 20
69.166667
 10
5.4
 20
63.333333
 10
4.6
 20
63.333333
 10
4.6
 20
69.166667
  0
LWPOLYLINE
  5
144
330
17
100
AcDbEntity
  8
TRUSS_CHORD
100
AcDbPolyline
 90
5
 70
1
 10
10.6
 20
69.166667
 10
11.4
 20
69.166667
 10
11.4
 20
63.333333
 10
10.6
 20
63.333333
 10
10.6
 20
69.166667
  0
LWPOLYLINE
  5
145
330
17
100
AcDbEntity
  8
STRUT_OUTLINE
100
AcDbPolyline
 90
5
 70
1
 10
10.721168626301324
 20
69.45346495159887
 10
11.278831373698676
 20
68.87986904840113
 10
5.278831373698676
 20
63.04653504840113
 10
4.721168626301324
 20
63.620130951598874
 10
10.721168626301324
 20
69.45346495159887
  0
LWPOLYLINE
  5
146
330
17
100
AcDbEntity
  8
TRUSS_CHORD
100
AcDbPolyline
 90
5
 70
1
 10
4.6
 20
75.0
 10
5.4
 20
75.0
 10
5.4
 20
69.166667
 10
4.6
 20
69.166667
 10
4.6
 20
75.0
  0
LWPOLYLINE
  5
147
330
17
100
AcDbEntity
  8
TRUSS_CHORD
100
AcDbPolyline
 90
5
 70
1
 10
10.6
 20
75.0
 10
11.4
 20
75.0
 10
11.4
 20
69.166667
 10
10.6
 20
69.166667
 10
10.6
 20
75.0
  0
LWPOLYLINE
  5
148
330
17
100
AcDbEntity
  8
STRUT_OUTLINE
100
AcDbPolyline
 90
5
 70
1
 10
4.7211686508742545
 20
74.71320202451078
 10
5.2788313491257455
 20
75.28679797548922
 10
11.278831349125745
 20
69.45346497548923
 10
10.721168650874255
 20
68.87986902451078
 10
4.7211686508742545
 20
74.71320202451078
  0
LWPOLYLINE
  5
149
330
17
100
AcDbEntity
  8
TRUSS_CHORD
100
AcDbPolyline
 90
5
 70
1
 10
10.789474
 20
75.4
 10
10.789474
 20
74.6
 10
5.0
 20
74.6
 10
5.0
 20
75.4
 10
10.789474
 20
75.4
  0
LWPOLYLINE
  5
14A
330
17
100
AcDbEntity
  8
TRUSS_CHORD
100
AcDbPolyline
 90
5
 70
1
 10
10.789474
 20
69.4
 10
10.789474
 20
68.6
 10
5.0
 20
68.6
 10
5.0
 20
69.4
 10
10.789474
 20
69.4
  0
LWPOLYLINE
  5
14B
330
17
100
AcDbEntity
  8
STRUT_OUTLINE
100
AcDbPolyline
 90
5
 70
1
 10
11.077321577218886
 20
69.27774767737863
 10
10.501626422781115
 20
68.72225232262137
 10
4.712152422781116
 20
74.72225232262137
 10
5.287847577218884
 20
75.27774767737863
 10
11.077321577218886
 20
69.27774767737863
  0
LWPOLYLINE
  5
14C
330
17
100
AcDbEntity
  8
TRUSS_CHORD
100
AcDbPolyline
 90
5
 70
1
 10
16.578947
 20
75.4
 10
16.578947
 20
74.6
 10
10.789474
 20
74.6
 10
10.789474
 20
75.4
 10
16.578947
 20
75.4
  0
LWPOLYLINE
  5
14D
330
17
100
AcDbEntity
  8
TRUSS_CHORD
100
AcDbPolyline
 90
5
 70
1
 10
16.578947
 20
69.4
 10
16.578947
 20
68.6
 10
10.789474
 20
68.6
 10
10.789474
 20
69.4
 10
16.578947
 20
69.4
  0
LWPOLYLINE
  5
14E
330
17
100
AcDbEntity
  8
STRUT_OUTLINE
100
AcDbPolyline
 90
5
 70
1
 10
16.29109939880911
 20
75.2777476525349
 10
16.86679460119089
 20
74.7222523474651
 10
11.07732160119089
 20
68.7222523474651
 10
10.50162639880911
 20
69.2777476525349
 10
16.29109939880911
 20
75.2777476525349
  0
LWPOLYLINE
  5
14F
330
17
100
AcDbEntity
  8
TRUSS_CHORD
100
AcDbPolyline
 90
5
 70
1
 10
22.368421
 20
75.4
 10
22.368421
 20
74.6
 10
16.578947
 20
74.6
 10
16.578947
 20
75.4
 10
22.368421
 20
75.4
  0
LWPOLYLINE
  5
150
330
17
100
AcDbEntity
  8
TRUSS_CHORD
100
AcDbPolyline
 90
5
 70
1
 10
22.368421
 20
69.4
 10
22.368421
 20
68.6
 10
16.578947
 20
68.6
 10
16.578947
 20
69.4
 10
22.368421
 20
69.4
  0
LWPOLYLINE
  5
151
330
17
100
AcDbEntity
  8
STRUT_OUTLINE
100
AcDbPolyline
 90
5
 70
1
 10
22.656268577218885
 20
69.27774767737863
 10
22.080573422781118
 20
68.72225232262137
 10
16.291099422781116
 20
74.72225232262137
 10
16.866794577218883
 20
75.27774767737863
 10
22.656268577218885
 20
69.27774767737863
  0
LWPOLYLINE
  5
152
330
17
100
AcDbEntity
  8
TRUSS_CHORD
100
AcDbPolyline
 90
5
 70
1
 10
28.157895
 20
75.4
 10
28.157895
 20
74.6
 10
22.368421
 20
74.6
 10
22.368421
 20
75.4
 10
28.157895
 20
75.4
  0
LWPOLYLINE
  5
153
330
17
100
AcDbEntity
  8
TRUSS_CHORD
100
AcDbPolyline
 90
5
 70
1
 10
28.157895
 20
69.4
 10
28.157895
 20
68.6
 10
22.368421
 20
68.6
 10
22.368421
 20
69.4
 10
28.157895
 20
69.4
  0
LWPOLYLINE
  5
154
330
17
100
AcDbEntity
  8
STRUT_OUTLINE
100
AcDbPolyline
 90
5
 70
1
 10
27.870047422781116
 20
75.27774767737863
 10
28.445742577218883
 20
74.72225232262137
 10
22.656268577218885
 20
68.72225232262137
 10
22.080573422781118
 20
69.27774767737863
 10
27.870047422781116
 20
75.27774767737863
  0
LWPOLYLINE
  5
155
330
17
100
AcDbEntity
  8
TRUSS_CHORD
100
AcDbPolyline
 90
5
 70
1
 10
33.947368
 20
75.4
 10
33.947368
 20
74.6
 10
28.157895
 20
74.6
 10
28.157895
 20
75.4
 10
33.947368
 20
75.4
  0
LWPOLYLINE
  5
156
330
17
100
AcDbEntity
  8
TRUSS_CHORD
100
AcDbPolyline
 90
5
 70
1
 10
33.947368
 20
69.4
 10
33.947368
 20
68.6
 10
28.157895
 20
68.6
 10
28.157895
 20
69.4
 10
33.947368
 20
69.4
  0
LWPOLYLINE
  5
157
330
17
100
AcDbEntity
  8
STRUT_OUTLINE
100
AcDbPolyline
 90
5
 70
1
 10
34.23521560119089
 20
69.2777476525349
 10
33.65952039880911
 20
68.7222523474651
 10
27.87004739880911
 20
74.7222523474651
 10
28.44574260119089
 20
75.2777476525349
 10
34.23521560119089
 20
69.2777476525349
  0
LWPOLYLINE
  5
158
330
17
100
AcDbEntity
  8
TRUSS_CHORD
100
AcDbPolyline
 90
5
 70
1
 10
41.666667
 20
75.4
 10
41.666667
 20
74.6
 10
33.947368
 20
74.6
 10
33.947368
 20
75.4
 10
41.666667
 20
75.4
  0
LWPOLYLINE
  5
159
330
17
100
AcDbEntity
  8
TRUSS_CHORD
100
AcDbPolyline
 90
5
 70
1
 10
41.666667
 20
69.4
 10
41.666667
 20
68.6
 10
33.947368
 20
68.6
 10
33.947368
 20
69.4
 10
41.666667
 20
69.4
  0
LWPOLYLINE
  5
15A
330
17
100
AcDbEntity
  8
STRUT_OUTLINE
100
AcDbPolyline
 90
5
 70
1
 10
41.42119016505414
 20
75.31581818108678
 10
41.91214383494585
 20
74.68418181891322
 10
34.19284483494585
 20
68.68418181891322
 10
33.70189116505414
 20
69.31581818108678
 10
41.42119016505414
 20
75.31581818108678
  0
LWPOLYLINE
  5
15B
330
17
100
AcDbEntity
  8
TRUSS_CHORD
100
AcDbPolyline
 90
5
 70
1
 10
45.526316
 20
75.4
 10
45.526316
 20
74.6
 10
41.666667
 20
74.6
 10
41.666667
 20
75.4
 10
45.526316
 20
75.4
  0
LWPOLYLINE
  5
15C
330
17
100
AcDbEntity
  8
TRUSS_CHORD
100
AcDbPolyline
 90
5
 70
1
 10
45.526316
 20
69.4
 10
45.526316
 20
68.6
 10
41.666667
 20
68.6
 10
41.666667
 20
69.4
 10
45.526316
 20
69.4
  0
LWPOLYLINE
  5
15D
330
17
100
AcDbEntity
  8
STRUT_OUTLINE
100
AcDbPolyline
 90
5
 70
1
 10
45.86272345925806
 20
69.21640245228632
 10
45.18990854074194
 20
68.78359754771368
 10
41.330259540741935
 20
74.78359754771368
 10
42.00307445925806
 20
75.21640245228632
 10
45.86272345925806
 20
69.21640245228632
  0
LWPOLYLINE
  5
15E
330
17
100
AcDbEntity
  8
TRUSS_CHORD
100
AcDbPolyline
 90
5
 70
1
 10
51.315789
 20
75.4
 10
51.315789
 20
74.6
 10
45.526316
 20
74.6
 10
45.526316
 20
75.4
 10
51.315789
 20
75.4
  0
LWPOLYLINE
  5
15F
330
17
100
AcDbEntity
  8
TRUSS_CHORD
100
AcDbPolyline
 90
5
 70
1
 10
51.315789
 20
69.4
 10
51.315789
 20
68.6
 10
45.526316
 20
68.6
 10
45.526316
 20
69.4
 10
51.315789
 20
69.4
  0
LWPOLYLINE
  5
160
330
17
100
AcDbEntity
  8
STRUT_OUTLINE
100
AcDbPolyline
 90
5
 70
1
 10
51.02794139880911
 20
75.2777476525349
 10
51.60363660119089
 20
74.7222523474651
 10
45.81416360119089
 20
68.7222523474651
 10
45.23846839880911
 20
69.2777476525349
 10
51.02794139880911
 20
75.2777476525349
  0
LWPOLYLINE
  5
161
330
17
100
AcDbEntity
  8
TRUSS_CHORD
100
AcDbPolyline
 90
5
 70
1
 10
57.105263
 20
75.4
 10
57.105263
 20
74.6
 10
51.315789
 20
74.6
 10
51.315789
 20
75.4
 10
57.105263
 20
75.4
  0
LWPOLYLINE
  5
162
330
17
100
AcDbEntity
  8
TRUSS_CHORD
100
AcDbPolyline
 90
5
 70
1
 10
57.105263
 20
69.4
 10
57.105263
 20
68.6
 10
51.315789
 20
68.6
 10
51.315789
 20
69.4
 10
57.105263
 20
69.4
  0
LWPOLYLINE
  5
163
330
17
100
AcDbEntity
  8
STRUT_OUTLINE
100
AcDbPolyline
 90
5
 70
1
 10
57.393110577218884
 20
69.27774767737863
 10
56.81741542278112
 20
68.72225232262137
 10
51.02794142278112
 20
74.72225232262137
 10
51.603636577218886
 20
75.27774767737863
 10
57.393110577218884
 20
69.27774767737863
  0
LWPOLYLINE
  5
164
330
17
100
AcDbEntity
  8
TRUSS_CHORD
100
AcDbPolyline
 90
5
 70
1
 10
62.894737
 20
75.4
 10
62.894737
 20
74.6
 10
57.105263
 20
74.6
 10
57.105263
 20
75.4
 10
62.894737
 20
75.4
  0
LWPOLYLINE
  5
165
330
17
100
AcDbEntity
  8
TRUSS_CHORD
100
AcDbPolyline
 90
5
 70
1
 10
62.894737
 20
69.4
 10
62.894737
 20
68.6
 10
57.105263
 20
68.6
 10
57.105263
 20
69.4
 10
62.894737
 20
69.4
  0
LWPOLYLINE
  5
166
330
17
100
AcDbEntity
  8
STRUT_OUTLINE
100
AcDbPolyline
 90
5
 70
1
 10
62.606889422781116
 20
75.27774767737863
 10
63.18258457721888
 20
74.72225232262137
 10
57.393110577218884
 20
68.72225232262137
 10
56.81741542278112
 20
69.27774767737863
 10
62.606889422781116
 20
75.27774767737863
  0
LWPOLYLINE
  5
167
330
17
100
AcDbEntity
  8
TRUSS_CHORD
100
AcDbPolyline
 90
5
 70
1
 10
68.684211
 20
75.4
 10
68.684211
 20
74.6
 10
62.894737
 20
74.6
 10
62.894737
 20
75.4
 10
68.684211
 20
75.4
  0
LWPOLYLINE
  5
168
330
17
100
AcDbEntity
  8
TRUSS_CHORD
100
AcDbPolyline
 90
5
 70
1
 10
68.684211
 20
69.4
 10
68.684211
 20
68.6
 10
62.894737
 20
68.6
 10
62.894737
 20
69.4
 10
68.684211
 20
69.4
  0
LWPOLYLINE
  5
169
330
17
100
AcDbEntity
  8
STRUT_OUTLINE
100
AcDbPolyline
 90
5
 70
1
 10
68.97205857721889
 20
69.27774767737863
 10
68.39636342278112
 20
68.72225232262137
 10
62.606889422781116
 20
74.72225232262137
 10
63.18258457721888
 20
75.27774767737863
 10
68.97205857721889
 20
69.27774767737863
  0
LWPOLYLINE
  5
16A
330
17
100
AcDbEntity
  8
TRUSS_CHORD
100
AcDbPolyline
 90
5
 70
1
 10
74.473684
 20
75.4
 10
74.473684
 20
74.6
 10
68.684211
 20
74.6
 10
68.684211
 20
75.4
 10
74.473684
 20
75.4
  0
LWPOLYLINE
  5
16B
330
17
100
AcDbEntity
  8
TRUSS_CHORD
100
AcDbPolyline
 90
5
 70
1
 10
74.473684
 20
69.4
 10
74.473684
 20
68.6
 10
68.684211
 20
68.6
 10
68.684211
 20
69.4
 10
74.473684
 20
69.4
  0
LWPOLYLINE
  5
16C
330
17
100
AcDbEntity
  8
STRUT_OUTLINE
100
AcDbPolyline
 90
5
 70
1
 10
74.18583639880912
 20
75.2777476525349
 10
74.7615316011909
 20
74.7222523474651
 10
68.9720586011909
 20
68.7222523474651
 10
68.39636339880911
 20
69.2777476525349
 10
74.18583639880912
 20
75.2777476525349
  0
LWPOLYLINE
  5
16D
330
17
100
AcDbEntity
  8
TRUSS_CHORD
100
AcDbPolyline
 90
5
 70
1
 10
78.333333
 20
75.4
 10
78.333333
 20
74.6
 10
74.473684
 20
74.6
 10
74.473684
 20
75.4
 10
78.333333
 20
75.4
  0
LWPOLYLINE
  5
16E
330
17
100
AcDbEntity
  8
TRUSS_CHORD
100
AcDbPolyline
 90
5
 70
1
 10
78.333333
 20
69.4
 10
78.333333
 20
68.6
 10
74.473684
 20
68.6
 10
74.473684
 20
69.4
 10
78.333333
 20
69.4
  0
LWPOLYLINE
  5
16F
330
17
100
AcDbEntity
  8
STRUT_OUTLINE
100
AcDbPolyline
 90
5
 70
1
 10
78.66974045925807
 20
69.21640245228632
 10
77.99692554074193
 20
68.78359754771368
 10
74.13727654074194
 20
74.78359754771368
 10
74.81009145925808
 20
75.21640245228632
 10
78.66974045925807
 20
69.21640245228632
  0
LWPOLYLINE
  5
170
330
17
100
AcDbEntity
  8
TRUSS_CHORD
100
AcDbPolyline
 90
5
 70
1
 10
86.052632
 20
75.4
 10
86.052632
 20
74.6
 10
78.333333
 20
74.6
 10
78.333333
 20
75.4
 10
86.052632
 20
75.4
  0
LWPOLYLINE
  5
171
330
17
100
AcDbEntity
  8
TRUSS_CHORD
100
AcDbPolyline
 90
5
 70
1
 10
86.052632
 20
69.4
 10
86.052632
 20
68.6
 10
78.333333
 20
68.6
 10
78.333333
 20
69.4
 10
86.052632
 20
69.4
  0
LWPOLYLINE
  5
172
330
17
100
AcDbEntity
  8
STRUT_OUTLINE
100
AcDbPolyline
 90
5
 70
1
 10
85.80715516505414
 20
75.31581818108678
 10
86.29810883494586
 20
74.68418181891322
 10
78.57880983494586
 20
68.68418181891322
 10
78.08785616505413
 20
69.31581818108678
 10
85.80715516505414
 20
75.31581818108678
  0
LWPOLYLINE
  5
173
330
17
100
AcDbEntity
  8
TRUSS_CHORD
100
AcDbPolyline
 90
5
 70
1
 10
91.842105
 20
75.4
 10
91.842105
 20
74.6
 10
86.052632
 20
74.6
 10
86.052632
 20
75.4
 10
91.842105
 20
75.4
  0
LWPOLYLINE
  5
174
330
17
100
AcDbEntity
  8
TRUSS_CHORD
100
AcDbPolyline
 90
5
 70
1
 10
91.842105
 20
69.4
 10
91.842105
 20
68.6
 10
86.052632
 20
68.6
 10
86.052632
 20
69.4
 10
91.842105
 20
69.4
  0
LWPOLYLINE
  5
175
330
17
100
AcDbEntity
  8
STRUT_OUTLINE
100
AcDbPolyline
 90
5
 70
1
 10
92.1299526011909
 20
69.2777476525349
 10
91.55425739880911
 20
68.7222523474651
 10
85.76478439880911
 20
74.7222523474651
 10
86.34047960119089
 20
75.2777476525349
 10
92.1299526011909
 20
69.2777476525349
  0
LWPOLYLINE
  5
176
330
17
100
AcDbEntity
  8
TRUSS_CHORD
100
AcDbPolyline
 90
5
 70
1
 10
97.631579
 20
75.4
 10
97.631579
 20
74.6
 10
91.842105
 20
74.6
 10
91.842105
 20
75.4
 10
97.631579
 20
75.4
  0
LWPOLYLINE
  5
177
330
17
100
AcDbEntity
  8
TRUSS_CHORD
100
AcDbPolyline
 90
5
 70
1
 10
97.631579
 20
69.4
 10
97.631579
 20
68.6
 10
91.842105
 20
68.6
 10
91.842105
 20
69.4
 10
97.631579
 20
69.4
  0
LWPOLYLINE
  5
178
330
17
100
AcDbEntity
  8
STRUT_OUTLINE
100
AcDbPolyline
 90
5
 70
1
 10
97.34373142278112
 20
75.27774767737863
 10
97.91942657721889
 20
74.72225232262137
 10
92.12995257721889
 20
68.72225232262137
 10
91.55425742278112
 20
69.27774767737863
 10
97.34373142278112
 20
75.27774767737863
  0
LWPOLYLINE
  5
179
330
17
100
AcDbEntity
  8
TRUSS_CHORD
100
AcDbPolyline
 90
5
 70
1
 10
103.421053
 20
75.4
 10
103.421053
 20
74.6
 10
97.631579
 20
74.6
 10
97.631579
 20
75.4
 10
103.421053
 20
75.4
  0
LWPOLYLINE
  5
17A
330
17
100
AcDbEntity
  8
TRUSS_CHORD
100
AcDbPolyline
 90
5
 70
1
 10
103.421053
 20
69.4
 10
103.421053
 20
68.6
 10
97.631579
 20
68.6
 10
97.631579
 20
69.4
 10
103.421053
 20
69.4
  0
LWPOLYLINE
  5
17B
330
17
100
AcDbEntity
  8
STRUT_OUTLINE
100
AcDbPolyline
 90
5
 70
1
 10
103.70890057721888
 20
69.27774767737863
 10
103.13320542278112
 20
68.72225232262137
 10
97.34373142278112
 20
74.72225232262137
 10
97.91942657721889
 20
75.27774767737863
 10
103.70890057721888
 20
69.27774767737863
  0
LWPOLYLINE
  5
17C
330
17
100
AcDbEntity
  8
TRUSS_CHORD
100
AcDbPolyline
 90
5
 70
1
 10
109.210526
 20
75.4
 10
109.210526
 20
74.6
 10
103.421053
 20
74.6
 10
103.421053
 20
75.4
 10
109.210526
 20
75.4
  0
LWPOLYLINE
  5
17D
330
17
100
AcDbEntity
  8
TRUSS_CHORD
100
AcDbPolyline
 90
5
 70
1
 10
109.210526
 20
69.4
 10
109.210526
 20
68.6
 10
103.421053
 20
68.6
 10
103.421053
 20
69.4
 10
109.210526
 20
69.4
  0
LWPOLYLINE
  5
17E
330
17
100
AcDbEntity
  8
STRUT_OUTLINE
100
AcDbPolyline
 90
5
 70
1
 10
108.92267839880911
 20
75.2777476525349
 10
109.49837360119089
 20
74.7222523474651
 10
103.70890060119089
 20
68.7222523474651
 10
103.13320539880911
 20
69.2777476525349
 10
108.92267839880911
 20
75.2777476525349
  0
LWPOLYLINE
  5
17F
330
17
100
AcDbEntity
  8
TRUSS_CHORD
100
AcDbPolyline
 90
5
 70
1
 10
115.0
 20
75.4
 10
115.0
 20
74.6
 10
109.210526
 20
74.6
 10
109.210526
 20
75.4
 10
115.0
 20
75.4
  0
LWPOLYLINE
  5
180
330
17
100
AcDbEntity
  8
TRUSS_CHORD
100
AcDbPolyline
 90
5
 70
1
 10
115.0
 20
69.4
 10
115.0
 20
68.6
 10
109.210526
 20
68.6
 10
109.210526
 20
69.4
 10
115.0
 20
69.4
  0
LWPOLYLINE
  5
181
330
17
100
AcDbEntity
  8
STRUT_OUTLINE
100
AcDbPolyline
 90
5
 70
1
 10
115.28784757721888
 20
69.27774767737863
 10
114.71215242278112
 20
68.72225232262137
 10
108.92267842278112
 20
74.72225232262137
 10
109.49837357721889
 20
75.27774767737863
 10
115.28784757721888
 20
69.27774767737863
  0
LWPOLYLINE
  5
182
330
17
100
AcDbEntity
  8
TRUSS_CHORD
100
AcDbPolyline
 90
5
 70
1
 10
114.6
 20
10.833333
 10
115.4
 20
10.833333
 10
115.4
 20
5.0
 10
114.6
 20
5.0
 10
114.6
 20
10.833333
  0
LWPOLYLINE
  5
183
330
17
100
AcDbEntity
  8
TRUSS_CHORD
100
AcDbPolyline
 90
5
 70
1
 10
108.6
 20
10.833333
 10
109.4
 20
10.833333
 10
109.4
 20
5.0
 10
108.6
 20
5.0
 10
108.6
 20
10.833333
  0
LWPOLYLINE
  5
184
330
17
100
AcDbEntity
  8
STRUT_OUTLINE
100
AcDbPolyline
 90
5
 70
1
 10
108.72116865087426
 20
10.546535024510778
 10
109.27883134912574
 20
11.120130975489221
 10
115.27883134912574
 20
5.286797975489223
 10
114.72116865087426
 20
4.713202024510777
 10
108.72116865087426
 20
10.546535024510778
  0
LWPOLYLINE
  5
185
330
17
100
AcDbEntity
  8
TRUSS_CHORD
100
AcDbPolyline
 90
5
 70
1
 10
114.6
 20
16.666667
 10
115.4
 20
16.666667
 10
115.4
 20
10.833333
 10
114.6
 20
10.833333
 10
114.6
 20
16.666667
  0
LWPOLYLINE
  5
186
330
17
100
AcDbEntity
  8
TRUSS_CHORD
100
AcDbPolyline
 90
5
 70
1
 10
108.6
 20
16.666667
 10
109.4
 20
16.666667
 10
109.4
 20
10.833333
 10
108.6
 20
10.833333
 10
108.6
 20
16.666667
  0
LWPOLYLINE
  5
187
330
17
100
AcDbEntity
  8
STRUT_OUTLINE
100
AcDbPolyline
 90
5
 70
1
 10
114.72116862630132
 20
16.95346495159887
 10
115.27883137369868
 20
16.37986904840113
 10
109.27883137369868
 20
10.546535048401127
 10
108.72116862630132
 20
11.120130951598872
 10
114.72116862630132
 20
16.95346495159887
  0
LWPOLYLINE
  5
188
330
17
100
AcDbEntity
  8
TRUSS_CHORD
100
AcDbPolyline
 90
5
 70
1
 10
114.6
 20
22.5
 10
115.4
 20
22.5
 10
115.4
 20
16.666667
 10
114.6
 20
16.666667
 10
114.6
 20
22.5
  0
LWPOLYLINE
  5
189
330
17
100
AcDbEntity
  8
TRUSS_CHORD
100
AcDbPolyline
 90
5
 70
1
 10
108.6
 20
22.5
 10
109.4
 20
22.5
 10
109.4
 20
16.666667
 10
108.6
 20
16.666667
 10
108.6
 20
22.5
  0
LWPOLYLINE
  5
18A
330
17
100
AcDbEntity
  8
STRUT_OUTLINE
100
AcDbPolyline
 90
5
 70
1
 10
108.72116865087426
 20
22.213202024510778
 10
109.27883134912574
 20
22.786797975489222
 10
115.27883134912574
 20
16.953464975489222
 10
114.72116865087426
 20
16.37986902451078
 10
108.72116865087426
 20
22.213202024510778
  0
LWPOLYLINE
  5
18B
330
17
100
AcDbEntity
  8
TRUSS_CHORD
100
AcDbPolyline
 90
5
 70
1
 10
114.6
 20
28.333333
 10
115.4
 20
28.333333
 10
115.4
 20
22.5
 10
114.6
 20
22.5
 10
114.6
 20
28.333333
  0
LWPOLYLINE
  5
18C
330
17
100
AcDbEntity
  8
TRUSS_CHORD
100
AcDbPolyline
 90
5
 70
1
 10
108.6
 20
28.333333
 10
109.4
 20
28.333333
 10
109.4
 20
22.5
 10
108.6
 20
22.5
 10
108.6
 20
28.333333
  0
LWPOLYLINE
  5
18D
330
17
100
AcDbEntity
  8
STRUT_OUTLINE
100
AcDbPolyline
 90
5
 70
1
 10
114.72116865087426
 20
28.62013097548922
 10
115.27883134912574
 20
28.046535024510778
 10
109.27883134912574
 20
22.213202024510778
 10
108.72116865087426
 20
22.786797975489222
 10
114.72116865087426
 20
28.62013097548922
  0
LWPOLYLINE
  5
18E
330
17
100
AcDbEntity
  8
TRUSS_CHORD
100
AcDbPolyline
 90
5
 70
1
 10
114.6
 20
34.166667
 10
115.4
 20
34.166667
 10
115.4
 20
28.333333
 10
114.6
 20
28.333333
 10
114.6
 20
34.166667
  0
LWPOLYLINE
  5
18F
330
17
100
AcDbEntity
  8
TRUSS_CHORD
100
AcDbPolyline
 90
5
 70
1
 10
108.6
 20
34.166667
 10
109.4
 20
34.166667
 10
109.4
 20
28.333333
 10
108.6
 20
28.333333
 10
108.6
 20
34.166667
  0
LWPOLYLINE
  5
190
330
17
100
AcDbEntity
  8
STRUT_OUTLINE
100
AcDbPolyline
 90
5
 70
1
 10
108.72116862630132
 20
33.879869048401126
 10
109.27883137369868
 20
34.45346495159887
 10
115.27883137369868
 20
28.620130951598874
 10
114.72116862630132
 20
28.046535048401125
 10
108.72116862630132
 20
33.879869048401126
  0
LWPOLYLINE
  5
191
330
17
100
AcDbEntity
  8
TRUSS_CHORD
100
AcDbPolyline
 90
5
 70
1
 10
114.6
 20
40.0
 10
115.4
 20
40.0
 10
115.4
 20
34.166667
 10
114.6
 20
34.166667
 10
114.6
 20
40.0
  0
LWPOLYLINE
  5
192
330
17
100
AcDbEntity
  8
TRUSS_CHORD
100
AcDbPolyline
 90
5
 70
1
 10
108.6
 20
40.0
 10
109.4
 20
40.0
 10
109.4
 20
34.166667
 10
108.6
 20
34.166667
 10
108.6
 20
40.0
  0
LWPOLYLINE
  5
193
330
17
100
AcDbEntity
  8
STRUT_OUTLINE
100
AcDbPolyline
 90
5
 70
1
 10
114.72116865087425
 20
40.28679797548922
 10
115.27883134912575
 20
39.71320202451078
 10
109.27883134912575
 20
33.879869024510775
 10
108.72116865087425
 20
34.45346497548922
 10
114.72116865087425
 20
40.28679797548922
  0
LWPOLYLINE
  5
194
330
17
100
AcDbEntity
  8
TRUSS_CHORD
100
AcDbPolyline
 90
5
 70
1
 10
114.6
 20
45.833333
 10
115.4
 20
45.833333
 10
115.4
 20
40.0
 10
114.6
 20
40.0
 10
114.6
 20
45.833333
  0
LWPOLYLINE
  5
195
330
17
100
AcDbEntity
  8
TRUSS_CHORD
100
AcDbPolyline
 90
5
 70
1
 10
108.6
 20
45.833333
 10
109.4
 20
45.833333
 10
109.4
 20
40.0
 10
108.6
 20
40.0
 10
108.6
 20
45.833333
  0
LWPOLYLINE
  5
196
330
17
100
AcDbEntity
  8
STRUT_OUTLINE
100
AcDbPolyline
 90
5
 70
1
 10
108.72116865087425
 20
45.54653502451078
 10
109.27883134912575
 20
46.120130975489225
 10
115.27883134912575
 20
40.28679797548922
 10
114.72116865087425
 20
39.71320202451078
 10
108.72116865087425
 20
45.54653502451078
  0
LWPOLYLINE
  5
197
330
17
100
AcDbEntity
  8
TRUSS_CHORD
100
AcDbPolyline
 90
5
 70
1
 10
114.6
 20
51.666667
 10
115.4
 20
51.666667
 10
115.4
 20
45.833333
 10
114.6
 20
45.833333
 10
114.6
 20
51.666667
  0
LWPOLYLINE
  5
198
330
17
100
AcDbEntity
  8
TRUSS_CHORD
100
AcDbPolyline
 90
5
 70
1
 10
108.6
 20
51.666667
 10
109.4
 20
51.666667
 10
109.4
 20
45.833333
 10
108.6
 20
45.833333
 10
108.6
 20
51.666667
  0
LWPOLYLINE
  5
199
330
17
100
AcDbEntity
  8
STRUT_OUTLINE
100
AcDbPolyline
 90
5
 70
1
 10
114.72116862630132
 20
51.95346495159887
 10
115.27883137369868
 20
51.379869048401126
 10
109.27883137369868
 20
45.54653504840113
 10
108.72116862630132
 20
46.120130951598874
 10
114.72116862630132
 20
51.95346495159887
  0
LWPOLYLINE
  5
19A
330
17
100
AcDbEntity
  8
TRUSS_CHORD
100
AcDbPolyline
 90
5
 70
1
 10
114.6
 20
57.5
 10
115.4
 20
57.5
 10
115.4
 20
51.666667
 10
114.6
 20
51.666667
 10
114.6
 20
57.5
  0
LWPOLYLINE
  5
19B
330
17
100
AcDbEntity
  8
TRUSS_CHORD
100
AcDbPolyline
 90
5
 70
1
 10
108.6
 20
57.5
 10
109.4
 20
57.5
 10
109.4
 20
51.666667
 10
108.6
 20
51.666667
 10
108.6
 20
57.5
  0
LWPOLYLINE
  5
19C
330
17
100
AcDbEntity
  8
STRUT_OUTLINE
100
AcDbPolyline
 90
5
 70
1
 10
108.72116865087425
 20
57.21320202451078
 10
109.27883134912575
 20
57.78679797548922
 10
115.27883134912575
 20
51.95346497548922
 10
114.72116865087425
 20
51.379869024510775
 10
108.72116865087425
 20
57.21320202451078
  0
LWPOLYLINE
  5
19D
330
17
100
AcDbEntity
  8
TRUSS_CHORD
100
AcDbPolyline
 90
5
 70
1
 10
114.6
 20
63.333333
 10
115.4
 20
63.333333
 10
115.4
 20
57.5
 10
114.6
 20
57.5
 10
114.6
 20
63.333333
  0
LWPOLYLINE
  5
19E
330
17
100
AcDbEntity
  8
TRUSS_CHORD
100
AcDbPolyline
 90
5
 70
1
 10
108.6
 20
63.333333
 10
109.4
 20
63.333333
 10
109.4
 20
57.5
 10
108.6
 20
57.5
 10
108.6
 20
63.333333
  0
LWPOLYLINE
  5
19F
330
17
100
AcDbEntity
  8
STRUT_OUTLINE
100
AcDbPolyline
 90
5
 70
1
 10
114.72116865087425
 20
63.620130975489225
 10
115.27883134912575
 20
63.04653502451078
 10
109.27883134912575
 20
57.21320202451078
 10
108.72116865087425
 20
57.78679797548922
 10
114.72116865087425
 20
63.620130975489225
  0
LWPOLYLINE
  5
1A0
330
17
100
AcDbEntity
  8
TRUSS_CHORD
100
AcDbPolyline
 90
5
 70
1
 10
114.6
 20
69.166667
 10
115.4
 20
69.166667
 10
115.4
 20
63.333333
 10
114.6
 20
63.333333
 10
114.6
 20
69.166667
  0
LWPOLYLINE
  5
1A1
330
17
100
AcDbEntity
  8
TRUSS_CHORD
100
AcDbPolyline
 90
5
 70
1
 10
108.6
 20
69.166667
 10
109.4
 20
69.166667
 10
109.4
 20
63.333333
 10
108.6
 20
63.333333
 10
108.6
 20
69.166667
  0
LWPOLYLINE
  5
1A2
330
17
100
AcDbEntity
  8
STRUT_OUTLINE
100
AcDbPolyline
 90
5
 70
1
 10
108.72116862630132
 20
68.87986904840113
 10
109.27883137369868
 20
69.45346495159887
 10
115.27883137369868
 20
63.620130951598874
 10
114.72116862630132
 20
63.04653504840113
 10
108.72116862630132
 20
68.87986904840113
  0
LWPOLYLINE
  5
1A3
330
17
100
AcDbEntity
  8
TRUSS_CHORD
100
AcDbPolyline
 90
5
 70
1
 10
114.6
 20
75.0
 10
115.4
 20
75.0
 10
115.4
 20
69.166667
 10
114.6
 20
69.166667
 10
114.6
 20
75.0
  0
LWPOLYLINE
  5
1A4
330
17
100
AcDbEntity
  8
TRUSS_CHORD
100
AcDbPolyline
 90
5
 70
1
 10
108.6
 20
75.0
 10
109.4
 20
75.0
 10
109.4
 20
69.166667
 10
108.6
 20
69.166667
 10
108.6
 20
75.0
  0
LWPOLYLINE
  5
1A5
330
17
100
AcDbEntity
  8
STRUT_OUTLINE
100
AcDbPolyline
 90
5
 70
1
 10
114.72116865087426
 20
75.28679797548922
 10
115.27883134912574
 20
74.71320202451078
 10
109.27883134912574
 20
68.87986902451078
 10
108.72116865087426
 20
69.45346497548923
 10
114.72116865087426
 20
75.28679797548922
  0
LWPOLYLINE
  5
1A6
330
17
100
AcDbEntity
  8
TRUSS_CHORD
100
AcDbPolyline
 90
5
 70
1
 10
10.789474
 20
5.4
 10
10.789474
 20
4.6
 10
5.0
 20
4.6
 10
5.0
 20
5.4
 10
10.789474
 20
5.4
  0
LWPOLYLINE
  5
1A7
330
17
100
AcDbEntity
  8
TRUSS_CHORD
100
AcDbPolyline
 90
5
 70
1
 10
10.789474
 20
11.4
 10
10.789474
 20
10.6
 10
5.0
 20
10.6
 10
5.0
 20
11.4
 10
10.789474
 20
11.4
  0
LWPOLYLINE
  5
1A8
330
17
100
AcDbEntity
  8
STRUT_OUTLINE
100
AcDbPolyline
 90
5
 70
1
 10
10.501626422781115
 20
11.27774767737862
 10
11.077321577218886
 20
10.72225232262138
 10
5.287847577218884
 20
4.7222523226213795
 10
4.712152422781116
 20
5.2777476773786205
 10
10.501626422781115
 20
11.27774767737862
  0
LWPOLYLINE
  5
1A9
330
17
100
AcDbEntity
  8
TRUSS_CHORD
100
AcDbPolyline
 90
5
 70
1
 10
16.578947
 20
5.4
 10
16.578947
 20
4.6
 10
10.789474
 20
4.6
 10
10.789474
 20
5.4
 10
16.578947
 20
5.4
  0
LWPOLYLINE
  5
1AA
330
17
100
AcDbEntity
  8
TRUSS_CHORD
100
AcDbPolyline
 90
5
 70
1
 10
16.578947
 20
11.4
 10
16.578947
 20
10.6
 10
10.789474
 20
10.6
 10
10.789474
 20
11.4
 10
16.578947
 20
11.4
  0
LWPOLYLINE
  5
1AB
330
17
100
AcDbEntity
  8
STRUT_OUTLINE
100
AcDbPolyline
 90
5
 70
1
 10
16.86679460119089
 20
5.277747652534905
 10
16.29109939880911
 20
4.722252347465095
 10
10.50162639880911
 20
10.722252347465096
 10
11.07732160119089
 20
11.277747652534904
 10
16.86679460119089
 20
5.277747652534905
  0
LWPOLYLINE
  5
1AC
330
17
100
AcDbEntity
  8
TRUSS_CHORD
100
AcDbPolyline
 90
5
 70
1
 10
22.368421
 20
5.4
 10
22.368421
 20
4.6
 10
16.578947
 20
4.6
 10
16.578947
 20
5.4
 10
22.368421
 20
5.4
  0
LWPOLYLINE
  5
1AD
330
17
100
AcDbEntity
  8
TRUSS_CHORD
100
AcDbPolyline
 90
5
 70
1
 10
22.368421
 20
11.4
 10
22.368421
 20
10.6
 10
16.578947
 20
10.6
 10
16.578947
 20
11.4
 10
22.368421
 20
11.4
  0
LWPOLYLINE
  5
1AE
330
17
100
AcDbEntity
  8
STRUT_OUTLINE
100
AcDbPolyline
 90
5
 70
1
 10
22.080573422781118
 20
11.27774767737862
 10
22.656268577218885
 20
10.72225232262138
 10
16.866794577218883
 20
4.7222523226213795
 10
16.291099422781116
 20
5.2777476773786205
 10
22.080573422781118
 20
11.27774767737862
  0
LWPOLYLINE
  5
1AF
330
17
100
AcDbEntity
  8
TRUSS_CHORD
100
AcDbPolyline
 90
5
 70
1
 10
28.157895
 20
5.4
 10
28.157895
 20
4.6
 10
22.368421
 20
4.6
 10
22.368421
 20
5.4
 10
28.157895
 20
5.4
  0
LWPOLYLINE
  5
1B0
330
17
100
AcDbEntity
  8
TRUSS_CHORD
100
AcDbPolyline
 90
5
 70
1
 10
28.157895
 20
11.4
 10
28.157895
 20
10.6
 10
22.368421
 20
10.6
 10
22.368421
 20
11.4
 10
28.157895
 20
11.4
  0
LWPOLYLINE
  5
1B1
330
17
100
AcDbEntity
  8
STRUT_OUTLINE
100
AcDbPolyline
 90
5
 70
1
 10
28.445742577218883
 20
5.2777476773786205
 10
27.870047422781116
 20
4.7222523226213795
 10
22.080573422781118
 20
10.72225232262138
 10
22.656268577218885
 20
11.27774767737862
 10
28.445742577218883
 20
5.2777476773786205
  0
LWPOLYLINE
  5
1B2
330
17
100
AcDbEntity
  8
TRUSS_CHORD
100
AcDbPolyline
 90
5
 70
1
 10
33.947368
 20
5.4
 10
33.947368
 20
4.6
 10
28.157895
 20
4.6
 10
28.157895
 20
5.4
 10
33.947368
 20
5.4
  0
LWPOLYLINE
  5
1B3
330
17
100
AcDbEntity
  8
TRUSS_CHORD
100
AcDbPolyline
 90
5
 70
1
 10
33.947368
 20
11.4
 10
33.947368
 20
10.6
 10
28.157895
 20
10.6
 10
28.157895
 20
11.4
 10
33.947368
 20
11.4
  0
LWPOLYLINE
  5
1B4
330
17
100
AcDbEntity
  8
STRUT_OUTLINE
100
AcDbPolyline
 90
5
 70
1
 10
33.65952039880911
 20
11.277747652534904
 10
34.23521560119089
 20
10.722252347465096
 10
28.44574260119089
 20
4.722252347465096
 10
27.87004739880911
 20
5.277747652534904
 10
33.65952039880911
 20
11.277747652534904
  0
LWPOLYLINE
  5
1B5
330
17
100
AcDbEntity
  8
TRUSS_CHORD
100
AcDbPolyline
 90
5
 70
1
 10
41.666667
 20
5.4
 10
41.666667
 20
4.6
 10
33.947368
 20
4.6
 10
33.947368
 20
5.4
 10
41.666667
 20
5.4
  0
LWPOLYLINE
  5
1B6
330
17
100
AcDbEntity
  8
TRUSS_CHORD
100
AcDbPolyline
 90
5
 70
1
 10
41.666667
 20
11.4
 10
41.666667
 20
10.6
 10
33.947368
 20
10.6
 10
33.947368
 20
11.4
 10
41.666667
 20
11.4
  0
LWPOLYLINE
  5
1B7
330
17
100
AcDbEntity
  8
STRUT_OUTLINE
100
AcDbPolyline
 90
5
 70
1
 10
41.91214383494585
 20
5.315818181086785
 10
41.42119016505414
 20
4.684181818913215
 10
33.70189116505414
 20
10.684181818913215
 10
34.19284483494585
 20
11.315818181086785
 10
41.91214383494585
 20
5.315818181086785
  0
LWPOLYLINE
  5
1B8
330
17
100
AcDbEntity
  8
TRUSS_CHORD
100
AcDbPolyline
 90
5
 70
1
 10
45.526316
 20
5.4
 10
45.526316
 20
4.6
 10
41.666667
 20
4.6
 10
41.666667
 20
5.4
 10
45.526316
 20
5.4
  0
LWPOLYLINE
  5
1B9
330
17
100
AcDbEntity
  8
TRUSS_CHORD
100
AcDbPolyline
 90
5
 70
1
 10
45.526316
 20
11.4
 10
45.526316
 20
10.6
 10
41.666667
 20
10.6
 10
41.666667
 20
11.4
 10
45.526316
 20
11.4
  0
LWPOLYLINE
  5
1BA
330
17
100
AcDbEntity
  8
STRUT_OUTLINE
100
AcDbPolyline
 90
5
 70
1
 10
45.18990854074194
 20
11.216402452286323
 10
45.86272345925806
 20
10.783597547713677
 10
42.00307445925806
 20
4.783597547713678
 10
41.330259540741935
 20
5.216402452286322
 10
45.18990854074194
 20
11.216402452286323
  0
LWPOLYLINE
  5
1BB
330
17
100
AcDbEntity
  8
TRUSS_CHORD
100
AcDbPolyline
 90
5
 70
1
 10
51.315789
 20
5.4
 10
51.315789
 20
4.6
 10
45.526316
 20
4.6
 10
45.526316
 20
5.4
 10
51.315789
 20
5.4
  0
LWPOLYLINE
  5
1BC
330
17
100
AcDbEntity
  8
TRUSS_CHORD
100
AcDbPolyline
 90
5
 70
1
 10
51.315789
 20
11.4
 10
51.315789
 20
10.6
 10
45.526316
 20
10.6
 10
45.526316
 20
11.4
 10
51.315789
 20
11.4
  0
LWPOLYLINE
  5
1BD
330
17
100
AcDbEntity
  8
STRUT_OUTLINE
100
AcDbPolyline
 90
5
 70
1
 10
51.60363660119089
 20
5.277747652534905
 10
51.02794139880911
 20
4.722252347465095
 10
45.23846839880911
 20
10.722252347465096
 10
45.81416360119089
 20
11.277747652534904
 10
51.60363660119089
 20
5.277747652534905
  0
LWPOLYLINE
  5
1BE
330
17
100
AcDbEntity
  8
TRUSS_CHORD
100
AcDbPolyline
 90
5
 70
1
 10
57.105263
 20
5.4
 10
57.105263
 20
4.6
 10
51.315789
 20
4.6
 10
51.315789
 20
5.4
 10
57.105263
 20
5.4
  0
LWPOLYLINE
  5
1BF
330
17
100
AcDbEntity
  8
TRUSS_CHORD
100
AcDbPolyline
 90
5
 70
1
 10
57.105263
 20
11.4
 10
57.105263
 20
10.6
 10
51.315789
 20
10.6
 10
51.315789
 20
11.4
 10
57.105263
 20
11.4
  0
LWPOLYLINE
  5
1C0
330
17
100
AcDbEntity
  8
STRUT_OUTLINE
100
AcDbPolyline
 90
5
 70
1
 10
56.81741542278112
 20
11.27774767737862
 10
57.393110577218884
 20
10.72225232262138
 10
51.603636577218886
 20
4.7222523226213795
 10
51.02794142278112
 20
5.2777476773786205
 10
56.81741542278112
 20
11.27774767737862
  0
LWPOLYLINE
  5
1C1
330
17
100
AcDbEntity
  8
TRUSS_CHORD
100
AcDbPolyline
 90
5
 70
1
 10
62.894737
 20
5.4
 10
62.894737
 20
4.6
 10
57.105263
 20
4.6
 10
57.105263
 20
5.4
 10
62.894737
 20
5.4
  0
LWPOLYLINE
  5
1C2
330
17
100
AcDbEntity
  8
TRUSS_CHORD
100
AcDbPolyline
 90
5
 70
1
 10
62.894737
 20
11.4
 10
62.894737
 20
10.6
 10
57.105263
 20
10.6
 10
57.105263
 20
11.4
 10
62.894737
 20
11.4
  0
LWPOLYLINE
  5
1C3
330
17
100
AcDbEntity
  8
STRUT_OUTLINE
100
AcDbPolyline
 90
5
 70
1
 10
63.18258457721888
 20
5.2777476773786205
 10
62.606889422781116
 20
4.7222523226213795
 10
56.81741542278112
 20
10.72225232262138
 10
57.393110577218884
 20
11.27774767737862
 10
63.18258457721888
 20
5.2777476773786205
  0
LWPOLYLINE
  5
1C4
330
17
100
AcDbEntity
  8
TRUSS_CHORD
100
AcDbPolyline
 90
5
 70
1
 10
68.684211
 20
5.4
 10
68.684211
 20
4.6
 10
62.894737
 20
4.6
 10
62.894737
 20
5.4
 10
68.684211
 20
5.4
  0
LWPOLYLINE
  5
1C5
330
17
100
AcDbEntity
  8
TRUSS_CHORD
100
AcDbPolyline
 90
5
 70
1
 10
68.684211
 20
11.4
 10
68.684211
 20
10.6
 10
62.894737
 20
10.6
 10
62.894737
 20
11.4
 10
68.684211
 20
11.4
  0
LWPOLYLINE
  5
1C6
330
17
100
AcDbEntity
  8
STRUT_OUTLINE
100
AcDbPolyline
 90
5
 70
1
 10
68.39636342278112
 20
11.27774767737862
 10
68.97205857721889
 20
10.72225232262138
 10
63.18258457721888
 20
4.7222523226213795
 10
62.606889422781116
 20
5.2777476773786205
 10
68.39636342278112
 20
11.27774767737862
  0
LWPOLYLINE
  5
1C7
330
17
100
AcDbEntity
  8
TRUSS_CHORD
100
AcDbPolyline
 90
5
 70
1
 10
74.473684
 20
5.4
 10
74.473684
 20
4.6
 10
68.684211
 20
4.6
 10
68.684211
 20
5.4
 10
74.473684
 20
5.4
  0
LWPOLYLINE
  5
1C8
330
17
100
AcDbEntity
  8
TRUSS_CHORD
100
AcDbPolyline
 90
5
 70
1
 10
74.473684
 20
11.4
 10
74.473684
 20
10.6
 10
68.684211
 20
10.6
 10
68.684211
 20
11.4
 10
74.473684
 20
11.4
  0
LWPOLYLINE
  5
1C9
330
17
100
AcDbEntity
  8
STRUT_OUTLINE
100
AcDbPolyline
 90
5
 70
1
 10
74.7615316011909
 20
5.277747652534905
 10
74.18583639880912
 20
4.722252347465095
 10
68.39636339880911
 20
10.722252347465096
 10
68.9720586011909
 20
11.277747652534904
 10
74.7615316011909
 20
5.277747652534905
  0
LWPOLYLINE
  5
1CA
330
17
100
AcDbEntity
  8
TRUSS_CHORD
100
AcDbPolyline
 90
5
 70
1
 10
78.333333
 20
5.4
 10
78.333333
 20
4.6
 10
74.473684
 20
4.6
 10
74.473684
 20
5.4
 10
78.333333
 20
5.4
  0
LWPOLYLINE
  5
1CB
330
17
100
AcDbEntity
  8
TRUSS_CHORD
100
AcDbPolyline
 90
5
 70
1
 10
78.333333
 20
11.4
 10
78.333333
 20
10.6
 10
74.473684
 20
10.6
 10
74.473684
 20
11.4
 10
78.333333
 20
11.4
  0
LWPOLYLINE
  5
1CC
330
17
100
AcDbEntity
  8
STRUT_OUTLINE
100
AcDbPolyline
 90
5
 70
1
 10
77.99692554074193
 20
11.21640245228632
 10
78.66974045925807
 20
10.78359754771368
 10
74.81009145925808
 20
4.783597547713679
 10
74.13727654074194
 20
5.216402452286321
 10
77.99692554074193
 20
11.21640245228632
  0
LWPOLYLINE
  5
1CD
330
17
100
AcDbEntity
  8
TRUSS_CHORD
100
AcDbPolyline
 90
5
 70
1
 10
86.052632
 20
5.4
 10
86.052632
 20
4.6
 10
78.333333
 20
4.6
 10
78.333333
 20
5.4
 10
86.052632
 20
5.4
  0
LWPOLYLINE
  5
1CE
330
17
100
AcDbEntity
  8
TRUSS_CHORD
100
AcDbPolyline
 90
5
 70
1
 10
86.052632
 20
11.4
 10
86.052632
 20
10.6
 10
78.333333
 20
10.6
 10
78.333333
 20
11.4
 10
86.052632
 20
11.4
  0
LWPOLYLINE
  5
1CF
330
17
100
AcDbEntity
  8
STRUT_OUTLINE
100
AcDbPolyline
 90
5
 70
1
 10
86.29810883494586
 20
5.315818181086785
 10
85.80715516505414
 20
4.684181818913215
 10
78.08785616505413
 20
10.684181818913215
 10
78.57880983494586
 20
11.315818181086785
 10
86.29810883494586
 20
5.315818181086785
  0
LWPOLYLINE
  5
1D0
330
17
100
AcDbEntity
  8
TRUSS_CHORD
100
AcDbPolyline
 90
5
 70
1
 10
91.842105
 20
5.4
 10
91.842105
 20
4.6
 10
86.052632
 20
4.6
 10
86.052632
 20
5.4
 10
91.842105
 20
5.4
  0
LWPOLYLINE
  5
1D1
330
17
100
AcDbEntity
  8
TRUSS_CHORD
100
AcDbPolyline
 90
5
 70
1
 10
91.842105
 20
11.4
 10
91.842105
 20
10.6
 10
86.052632
 20
10.6
 10
86.052632
 20
11.4
 10
91.842105
 20
11.4
  0
LWPOLYLINE
  5
1D2
330
17
100
AcDbEntity
  8
STRUT_OUTLINE
100
AcDbPolyline
 90
5
 70
1
 10
91.55425739880911
 20
11.277747652534904
 10
92.1299526011909
 20
10.722252347465096
 10
86.34047960119089
 20
4.722252347465095
 10
85.76478439880911
 20
5.277747652534905
 10
91.55425739880911
 20
11.277747652534904
  0
LWPOLYLINE
  5
1D3
330
17
100
AcDbEntity
  8
TRUSS_CHORD
100
AcDbPolyline
 90
5
 70
1
 10
97.631579
 20
5.4
 10
97.631579
 20
4.6
 10
91.842105
 20
4.6
 10
91.842105
 20
5.4
 10
97.631579
 20
5.4
  0
LWPOLYLINE
  5
1D4
330
17
100
AcDbEntity
  8
TRUSS_CHORD
100
AcDbPolyline
 90
5
 70
1
 10
97.631579
 20
11.4
 10
97.631579
 20
10.6
 10
91.842105
 20
10.6
 10
91.842105
 20
11.4
 10
97.631579
 20
11.4
  0
LWPOLYLINE
  5
1D5
330
17
100
AcDbEntity
  8
STRUT_OUTLINE
100
AcDbPolyline
 90
5
 70
1
 10
97.91942657721889
 20
5.2777476773786205
 10
97.34373142278112
 20
4.7222523226213795
 10
91.55425742278112
 20
10.72225232262138
 10
92.12995257721889
 20
11.27774767737862
 10
97.91942657721889
 20
5.2777476773786205
  0
LWPOLYLINE
  5
1D6
330
17
100
AcDbEntity
  8
TRUSS_CHORD
100
AcDbPolyline
 90
5
 70
1
 10
103.421053
 20
5.4
 10
103.421053
 20
4.6
 10
97.631579
 20
4.6
 10
97.631579
 20
5.4
 10
103.421053
 20
5.4
  0
LWPOLYLINE
  5
1D7
330
17
100
AcDbEntity
  8
TRUSS_CHORD
100
AcDbPolyline
 90
5
 70
1
 10
103.421053
 20
11.4
 10
103.421053
 20
10.6
 10
97.631579
 20
10.6
 10
97.631579
 20
11.4
 10
103.421053
 20
11.4
  0
LWPOLYLINE
  5
1D8
330
17
100
AcDbEntity
  8
STRUT_OUTLINE
100
AcDbPolyline
 90
5
 70
1
 10
103.13320542278112
 20
11.27774767737862
 10
103.70890057721888
 20
10.72225232262138
 10
97.91942657721889
 20
4.7222523226213795
 10
97.34373142278112
 20
5.2777476773786205
 10
103.13320542278112
 20
11.27774767737862
  0
LWPOLYLINE
  5
1D9
330
17
100
AcDbEntity
  8
TRUSS_CHORD
100
AcDbPolyline
 90
5
 70
1
 10
109.210526
 20
5.4
 10
109.210526
 20
4.6
 10
103.421053
 20
4.6
 10
103.421053
 20
5.4
 10
109.210526
 20
5.4
  0
LWPOLYLINE
  5
1DA
330
17
100
AcDbEntity
  8
TRUSS_CHORD
100
AcDbPolyline
 90
5
 70
1
 10
109.210526
 20
11.4
 10
109.210526
 20
10.6
 10
103.421053
 20
10.6
 10
103.421053
 20
11.4
 10
109.210526
 20
11.4
  0
LWPOLYLINE
  5
1DB
330
17
100
AcDbEntity
  8
STRUT_OUTLINE
100
AcDbPolyline
 90
5
 70
1
 10
109.49837360119089
 20
5.277747652534905
 10
108.92267839880911
 20
4.722252347465095
 10
103.13320539880911
 20
10.722252347465096
 10
103.70890060119089
 20
11.277747652534904
 10
109.49837360119089
 20
5.277747652534905
  0
LWPOLYLINE
  5
1DC
330
17
100
AcDbEntity
  8
TRUSS_CHORD
100
AcDbPolyline
 90
5
 70
1
 10
115.0
 20
5.4
 10
115.0
 20
4.6
 10
109.210526
 20
4.6
 10
109.210526
 20
5.4
 10
115.0
 20
5.4
  0
LWPOLYLINE
  5
1DD
330
17
100
AcDbEntity
  8
TRUSS_CHORD
100
AcDbPolyline
 90
5
 70
1
 10
115.0
 20
11.4
 10
115.0
 20
10.6
 10
109.210526
 20
10.6
 10
109.210526
 20
11.4
 10
115.0
 20
11.4
  0
LWPOLYLINE
  5
1DE
330
17
100
AcDbEntity
  8
STRUT_OUTLINE
100
AcDbPolyline
 90
5
 70
1
 10
114.71215242278112
 20
11.27774767737862
 10
115.28784757721888
 20
10.72225232262138
 10
109.49837357721889
 20
4.7222523226213795
 10
108.92267842278112
 20
5.2777476773786205
 10
114.71215242278112
 20
11.27774767737862
  0
LWPOLYLINE
  5
1DF
330
17
100
AcDbEntity
  8
PILLAR
100
AcDbPolyline
 90
4
 70
1
 10
7.068571569632658
 20
37.2
 10
7.868571569632659
 20
37.2
 10
7.868571569632659
 20
38.0
 10
7.068571569632658
 20
38.0
  0
LWPOLYLINE
  5
1E0
330
17
100
AcDbEntity
  8
PILLAR
100
AcDbPolyline
 90
4
 70
1
 10
7.068571569632658
 20
42.0
 10
7.868571569632659
 20
42.0
 10
7.868571569632659
 20
42.8
 10
7.068571569632658
 20
42.8
  0
LWPOLYLINE
  5
1E1
330
17
100
AcDbEntity
  8
PILLAR
100
AcDbPolyline
 90
4
 70
1
 10
10.428571105306155
 20
68.6
 10
11.228571105306155
 20
68.6
 10
11.228571105306155
 20
69.4
 10
10.428571105306155
 20
69.4
  0
LWPOLYLINE
  5
1E2
330
17
100
AcDbEntity
  8
PILLAR
100
AcDbPolyline
 90
4
 70
1
 10
10.428571105306158
 20
10.6
 10
11.228571105306159
 20
10.6
 10
11.228571105306159
 20
11.4
 10
10.428571105306158
 20
11.4
  0
LWPOLYLINE
  5
1E3
330
17
100
AcDbEntity
  8
PILLAR
100
AcDbPolyline
 90
4
 70
1
 10
10.57435284393865
 20
10.408398266365195
 10
11.37435284393865
 20
10.408398266365195
 10
11.37435284393865
 20
11.208398266365196
 10
10.57435284393865
 20
11.208398266365196
  0
LWPOLYLINE
  5
1E4
330
17
100
AcDbEntity
  8
PILLAR
100
AcDbPolyline
 90
4
 70
1
 10
10.57435284393865
 20
68.7916017336348
 10
11.37435284393865
 20
68.7916017336348
 10
11.37435284393865
 20
69.59160173363482
 10
10.57435284393865
 20
69.59160173363482
  0
LWPOLYLINE
  5
1E5
330
17
100
AcDbEntity
  8
PILLAR
100
AcDbPolyline
 90
4
 70
1
 10
10.6
 20
10.381818483305821
 10
11.4
 20
10.381818483305821
 10
11.4
 20
11.181818483305822
 10
10.6
 20
11.181818483305822
  0
LWPOLYLINE
  5
1E6
330
17
100
AcDbEntity
  8
PILLAR
100
AcDbPolyline
 90
4
 70
1
 10
10.6
 20
10.6
 10
11.4
 20
10.6
 10
11.4
 20
11.4
 10
10.6
 20
11.4
  0
LWPOLYLINE
  5
1E7
330
17
100
AcDbEntity
  8
PILLAR
100
AcDbPolyline
 90
4
 70
1
 10
10.6
 20
37.2
 10
11.4
 20
37.2
 10
11.4
 20
38.0
 10
10.6
 20
38.0
  0
LWPOLYLINE
  5
1E8
330
17
100
AcDbEntity
  8
PILLAR
100
AcDbPolyline
 90
4
 70
1
 10
10.6
 20
42.0
 10
11.4
 20
42.0
 10
11.4
 20
42.8
 10
10.6
 20
42.8
  0
LWPOLYLINE
  5
1E9
330
17
100
AcDbEntity
  8
PILLAR
100
AcDbPolyline
 90
4
 70
1
 10
10.6
 20
68.6
 10
11.4
 20
68.6
 10
11.4
 20
69.4
 10
10.6
 20
69.4
  0
LWPOLYLINE
  5
1EA
330
17
100
AcDbEntity
  8
PILLAR
100
AcDbPolyline
 90
4
 70
1
 10
10.6
 20
68.81818151669417
 10
11.4
 20
68.81818151669417
 10
11.4
 20
69.61818151669418
 10
10.6
 20
69.61818151669418
  0
LWPOLYLINE
  5
1EB
330
17
100
AcDbEntity
  8
PILLAR
100
AcDbPolyline
 90
4
 70
1
 10
18.35
 20
37.2
 10
19.15
 20
37.2
 10
19.15
 20
38.0
 10
18.35
 20
38.0
  0
LWPOLYLINE
  5
1EC
330
17
100
AcDbEntity
  8
PILLAR
100
AcDbPolyline
 90
4
 70
1
 10
18.35
 20
42.0
 10
19.15
 20
42.0
 10
19.15
 20
42.8
 10
18.35
 20
42.8
  0
LWPOLYLINE
  5
1ED
330
17
100
AcDbEntity
  8
PILLAR
100
AcDbPolyline
 90
4
 70
1
 10
32.1
 20
37.2
 10
32.9
 20
37.2
 10
32.9
 20
38.0
 10
32.1
 20
38.0
  0
LWPOLYLINE
  5
1EE
330
17
100
AcDbEntity
  8
PILLAR
100
AcDbPolyline
 90
4
 70
1
 10
32.1
 20
42.0
 10
32.9
 20
42.0
 10
32.9
 20
42.8
 10
32.1
 20
42.8
  0
LWPOLYLINE
  5
1EF
330
17
100
AcDbEntity
  8
PILLAR
100
AcDbPolyline
 90
4
 70
1
 10
38.86666666666667
 20
6.46545462223966
 10
39.666666666666664
 20
6.46545462223966
 10
39.666666666666664
 20
7.265454622239661
 10
38.86666666666667
 20
7.265454622239661
  0
LWPOLYLINE
  5
1F0
330
17
100
AcDbEntity
  8
PILLAR
100
AcDbPolyline
 90
4
 70
1
 10
38.86666666666667
 20
10.6
 10
39.666666666666664
 20
10.6
 10
39.666666666666664
 20
11.4
 10
38.86666666666667
 20
11.4
  0
LWPOLYLINE
  5
1F1
330
17
100
AcDbEntity
  8
PILLAR
100
AcDbPolyline
 90
4
 70
1
 10
38.86666666666667
 20
18.6
 10
39.666666666666664
 20
18.6
 10
39.666666666666664
 20
19.4
 10
38.86666666666667
 20
19.4
  0
LWPOLYLINE
  5
1F2
330
17
100
AcDbEntity
  8
PILLAR
100
AcDbPolyline
 90
4
 70
1
 10
38.86666666666667
 20
32.6
 10
39.666666666666664
 20
32.6
 10
39.666666666666664
 20
33.4
 10
38.86666666666667
 20
33.4
  0
LWPOLYLINE
  5
1F3
330
17
100
AcDbEntity
  8
PILLAR
100
AcDbPolyline
 90
4
 70
1
 10
38.86666666666667
 20
37.2
 10
39.666666666666664
 20
37.2
 10
39.666666666666664
 20
38.0
 10
38.86666666666667
 20
38.0
  0
LWPOLYLINE
  5
1F4
330
17
100
AcDbEntity
  8
PILLAR
100
AcDbPolyline
 90
4
 70
1
 10
38.86666666666667
 20
42.0
 10
39.666666666666664
 20
42.0
 10
39.666666666666664
 20
42.8
 10
38.86666666666667
 20
42.8
  0
LWPOLYLINE
  5
1F5
330
17
100
AcDbEntity
  8
PILLAR
100
AcDbPolyline
 90
4
 70
1
 10
38.86666666666667
 20
46.6
 10
39.666666666666664
 20
46.6
 10
39.666666666666664
 20
47.4
 10
38.86666666666667
 20
47.4
  0
LWPOLYLINE
  5
1F6
330
17
100
AcDbEntity
  8
PILLAR
100
AcDbPolyline
 90
4
 70
1
 10
38.86666666666667
 20
60.6
 10
39.666666666666664
 20
60.6
 10
39.666666666666664
 20
61.4
 10
38.86666666666667
 20
61.4
  0
LWPOLYLINE
  5
1F7
330
17
100
AcDbEntity
  8
PILLAR
100
AcDbPolyline
 90
4
 70
1
 10
38.86666666666667
 20
68.6
 10
39.666666666666664
 20
68.6
 10
39.666666666666664
 20
69.4
 10
38.86666666666667
 20
69.4
  0
LWPOLYLINE
  5
1F8
330
17
100
AcDbEntity
  8
PILLAR
100
AcDbPolyline
 90
4
 70
1
 10
38.86666666666667
 20
72.73454537776034
 10
39.666666666666664
 20
72.73454537776034
 10
39.666666666666664
 20
73.53454537776035
 10
38.86666666666667
 20
73.53454537776035
  0
LWPOLYLINE
  5
1F9
330
17
100
AcDbEntity
  8
PILLAR
100
AcDbPolyline
 90
4
 70
1
 10
43.666666666666664
 20
8.330908691437998
 10
44.46666666666666
 20
8.330908691437998
 10
44.46666666666666
 20
9.130908691437998
 10
43.666666666666664
 20
9.130908691437998
  0
LWPOLYLINE
  5
1FA
330
17
100
AcDbEntity
  8
PILLAR
100
AcDbPolyline
 90
4
 70
1
 10
43.666666666666664
 20
10.6
 10
44.46666666666666
 20
10.6
 10
44.46666666666666
 20
11.4
 10
43.666666666666664
 20
11.4
  0
LWPOLYLINE
  5
1FB
330
17
100
AcDbEntity
  8
PILLAR
100
AcDbPolyline
 90
4
 70
1
 10
43.666666666666664
 20
18.6
 10
44.46666666666666
 20
18.6
 10
44.46666666666666
 20
19.4
 10
43.666666666666664
 20
19.4
  0
LWPOLYLINE
  5
1FC
330
17
100
AcDbEntity
  8
PILLAR
100
AcDbPolyline
 90
4
 70
1
 10
43.666666666666664
 20
32.6
 10
44.46666666666666
 20
32.6
 10
44.46666666666666
 20
33.4
 10
43.666666666666664
 20
33.4
  0
LWPOLYLINE
  5
1FD
330
17
100
AcDbEntity
  8
PILLAR
100
AcDbPolyline
 90
4
 70
1
 10
43.666666666666664
 20
37.2
 10
44.46666666666666
 20
37.2
 10
44.46666666666666
 20
38.0
 10
43.666666666666664
 20
38.0
  0
LWPOLYLINE
  5
1FE
330
17
100
AcDbEntity
  8
PILLAR
100
AcDbPolyline
 90
4
 70
1
 10
43.666666666666664
 20
42.0
 10
44.46666666666666
 20
42.0
 10
44.46666666666666
 20
42.8
 10
43.666666666666664
 20
42.8
  0
LWPOLYLINE
  5
1FF
330
17
100
AcDbEntity
  8
PILLAR
100
AcDbPolyline
 90
4
 70
1
 10
43.666666666666664
 20
46.6
 10
44.46666666666666
 20
46.6
 10
44.46666666666666
 20
47.4
 10
43.666666666666664
 20
47.4
  0
LWPOLYLINE
  5
200
330
17
100
AcDbEntity
  8
PILLAR
100
AcDbPolyline
 90
4
 70
1
 10
43.666666666666664
 20
60.6
 10
44.46666666666666
 20
60.6
 10
44.46666666666666
 20
61.4
 10
43.666666666666664
 20
61.4
  0
LWPOLYLINE
  5
201
330
17
100
AcDbEntity
  8
PILLAR
100
AcDbPolyline
 90
4
 70
1
 10
43.666666666666664
 20
68.6
 10
44.46666666666666
 20
68.6
 10
44.46666666666666
 20
69.4
 10
43.666666666666664
 20
69.4
  0
LWPOLYLINE
  5
202
330
17
100
AcDbEntity
  8
PILLAR
100
AcDbPolyline
 90
4
 70
1
 10
43.666666666666664
 20
70.86909130856199
 10
44.46666666666666
 20
70.86909130856199
 10
44.46666666666666
 20
71.669091308562
 10
43.666666666666664
 20
71.669091308562
  0
LWPOLYLINE
  5
203
330
17
100
AcDbEntity
  8
PILLAR
100
AcDbPolyline
 90
4
 70
1
 10
45.85
 20
37.2
 10
46.65
 20
37.2
 10
46.65
 20
38.0
 10
45.85
 20
38.0
  0
LWPOLYLINE
  5
204
330
17
100
AcDbEntity
  8
PILLAR
100
AcDbPolyline
 90
4
 70
1
 10
45.85
 20
42.0
 10
46.65
 20
42.0
 10
46.65
 20
42.8
 10
45.85
 20
42.8
  0
LWPOLYLINE
  5
205
330
17
100
AcDbEntity
  8
PILLAR
100
AcDbPolyline
 90
4
 70
1
 10
59.6
 20
37.2
 10
60.4
 20
37.2
 10
60.4
 20
38.0
 10
59.6
 20
38.0
  0
LWPOLYLINE
  5
206
330
17
100
AcDbEntity
  8
PILLAR
100
AcDbPolyline
 90
4
 70
1
 10
59.6
 20
42.0
 10
60.4
 20
42.0
 10
60.4
 20
42.8
 10
59.6
 20
42.8
  0
LWPOLYLINE
  5
207
330
17
100
AcDbEntity
  8
PILLAR
100
AcDbPolyline
 90
4
 70
1
 10
73.35
 20
37.2
 10
74.15
 20
37.2
 10
74.15
 20
38.0
 10
73.35
 20
38.0
  0
LWPOLYLINE
  5
208
330
17
100
AcDbEntity
  8
PILLAR
100
AcDbPolyline
 90
4
 70
1
 10
73.35
 20
42.0
 10
74.15
 20
42.0
 10
74.15
 20
42.8
 10
73.35
 20
42.8
  0
LWPOLYLINE
  5
209
330
17
100
AcDbEntity
  8
PILLAR
100
AcDbPolyline
 90
4
 70
1
 10
75.53333333333332
 20
6.869091308561976
 10
76.33333333333333
 20
6.869091308561976
 10
76.33333333333333
 20
7.669091308561977
 10
75.53333333333332
 20
7.669091308561977
  0
LWPOLYLINE
  5
20A
330
17
100
AcDbEntity
  8
PILLAR
100
AcDbPolyline
 90
4
 70
1
 10
75.53333333333332
 20
10.6
 10
76.33333333333333
 20
10.6
 10
76.33333333333333
 20
11.4
 10
75.53333333333332
 20
11.4
  0
LWPOLYLINE
  5
20B
330
17
100
AcDbEntity
  8
PILLAR
100
AcDbPolyline
 90
4
 70
1
 10
75.53333333333332
 20
18.6
 10
76.33333333333333
 20
18.6
 10
76.33333333333333
 20
19.4
 10
75.53333333333332
 20
19.4
  0
LWPOLYLINE
  5
20C
330
17
100
AcDbEntity
  8
PILLAR
100
AcDbPolyline
 90
4
 70
1
 10
75.53333333333332
 20
32.6
 10
76.33333333333333
 20
32.6
 10
76.33333333333333
 20
33.4
 10
75.53333333333332
 20
33.4
  0
LWPOLYLINE
  5
20D
330
17
100
AcDbEntity
  8
PILLAR
100
AcDbPolyline
 90
4
 70
1
 10
75.53333333333332
 20
37.2
 10
76.33333333333333
 20
37.2
 10
76.33333333333333
 20
38.0
 10
75.53333333333332
 20
38.0
  0
LWPOLYLINE
  5
20E
330
17
100
AcDbEntity
  8
PILLAR
100
AcDbPolyline
 90
4
 70
1
 10
75.53333333333332
 20
42.0
 10
76.33333333333333
 20
42.0
 10
76.33333333333333
 20
42.8
 10
75.53333333333332
 20
42.8
  0
LWPOLYLINE
  5
20F
330
17
100
AcDbEntity
  8
PILLAR
100
AcDbPolyline
 90
4
 70
1
 10
75.53333333333332
 20
46.6
 10
76.33333333333333
 20
46.6
 10
76.33333333333333
 20
47.4
 10
75.53333333333332
 20
47.4
  0
LWPOLYLINE
  5
210
330
17
100
AcDbEntity
  8
PILLAR
100
AcDbPolyline
 90
4
 70
1
 10
75.53333333333332
 20
60.6
 10
76.33333333333333
 20
60.6
 10
76.33333333333333
 20
61.4
 10
75.53333333333332
 20
61.4
  0
LWPOLYLINE
  5
211
330
17
100
AcDbEntity
  8
PILLAR
100
AcDbPolyline
 90
4
 70
1
 10
75.53333333333332
 20
68.6
 10
76.33333333333333
 20
68.6
 10
76.33333333333333
 20
69.4
 10
75.53333333333332
 20
69.4
  0
LWPOLYLINE
  5
212
330
17
100
AcDbEntity
  8
PILLAR
100
AcDbPolyline
 90
4
 70
1
 10
75.53333333333332
 20
72.33090869143801
 10
76.33333333333333
 20
72.33090869143801
 10
76.33333333333333
 20
73.13090869143802
 10
75.53333333333332
 20
73.13090869143802
  0
LWPOLYLINE
  5
213
330
17
100
AcDbEntity
  8
PILLAR
100
AcDbPolyline
 90
4
 70
1
 10
80.33333333333333
 20
8.734545377760336
 10
81.13333333333334
 20
8.734545377760336
 10
81.13333333333334
 20
9.534545377760336
 10
80.33333333333333
 20
9.534545377760336
  0
LWPOLYLINE
  5
214
330
17
100
AcDbEntity
  8
PILLAR
100
AcDbPolyline
 90
4
 70
1
 10
80.33333333333333
 20
10.6
 10
81.13333333333334
 20
10.6
 10
81.13333333333334
 20
11.4
 10
80.33333333333333
 20
11.4
  0
LWPOLYLINE
  5
215
330
17
100
AcDbEntity
  8
PILLAR
100
AcDbPolyline
 90
4
 70
1
 10
80.33333333333333
 20
18.6
 10
81.13333333333334
 20
18.6
 10
81.13333333333334
 20
19.4
 10
80.33333333333333
 20
19.4
  0
LWPOLYLINE
  5
216
330
17
100
AcDbEntity
  8
PILLAR
100
AcDbPolyline
 90
4
 70
1
 10
80.33333333333333
 20
32.6
 10
81.13333333333334
 20
32.6
 10
81.13333333333334
 20
33.4
 10
80.33333333333333
 20
33.4
  0
LWPOLYLINE
  5
217
330
17
100
AcDbEntity
  8
PILLAR
100
AcDbPolyline
 90
4
 70
1
 10
80.33333333333333
 20
37.2
 10
81.13333333333334
 20
37.2
 10
81.13333333333334
 20
38.0
 10
80.33333333333333
 20
38.0
  0
LWPOLYLINE
  5
218
330
17
100
AcDbEntity
  8
PILLAR
100
AcDbPolyline
 90
4
 70
1
 10
80.33333333333333
 20
42.0
 10
81.13333333333334
 20
42.0
 10
81.13333333333334
 20
42.8
 10
80.33333333333333
 20
42.8
  0
LWPOLYLINE
  5
219
330
17
100
AcDbEntity
  8
PILLAR
100
AcDbPolyline
 90
4
 70
1
 10
80.33333333333333
 20
46.6
 10
81.13333333333334
 20
46.6
 10
81.13333333333334
 20
47.4
 10
80.33333333333333
 20
47.4
  0
LWPOLYLINE
  5
21A
330
17
100
AcDbEntity
  8
PILLAR
100
AcDbPolyline
 90
4
 70
1
 10
80.33333333333333
 20
60.6
 10
81.13333333333334
 20
60.6
 10
81.13333333333334
 20
61.4
 10
80.33333333333333
 20
61.4
  0
LWPOLYLINE
  5
21B
330
17
100
AcDbEntity
  8
PILLAR
100
AcDbPolyline
 90
4
 70
1
 10
80.33333333333333
 20
68.6
 10
81.13333333333334
 20
68.6
 10
81.13333333333334
 20
69.4
 10
80.33333333333333
 20
69.4
  0
LWPOLYLINE
  5
21C
330
17
100
AcDbEntity
  8
PILLAR
100
AcDbPolyline
 90
4
 70
1
 10
80.33333333333333
 20
70.46545462223966
 10
81.13333333333334
 20
70.46545462223966
 10
81.13333333333334
 20
71.26545462223967
 10
80.33333333333333
 20
71.26545462223967
  0
LWPOLYLINE
  5
21D
330
17
100
AcDbEntity
  8
PILLAR
100
AcDbPolyline
 90
4
 70
1
 10
87.1
 20
37.2
 10
87.9
 20
37.2
 10
87.9
 20
38.0
 10
87.1
 20
38.0
  0
LWPOLYLINE
  5
21E
330
17
100
AcDbEntity
  8
PILLAR
100
AcDbPolyline
 90
4
 70
1
 10
87.1
 20
42.0
 10
87.9
 20
42.0
 10
87.9
 20
42.8
 10
87.1
 20
42.8
  0
LWPOLYLINE
  5
21F
330
17
100
AcDbEntity
  8
PILLAR
100
AcDbPolyline
 90
4
 70
1
 10
100.85
 20
37.2
 10
101.65
 20
37.2
 10
101.65
 20
38.0
 10
100.85
 20
38.0
  0
LWPOLYLINE
  5
220
330
17
100
AcDbEntity
  8
PILLAR
100
AcDbPolyline
 90
4
 70
1
 10
100.85
 20
42.0
 10
101.65
 20
42.0
 10
101.65
 20
42.8
 10
100.85
 20
42.8
  0
LWPOLYLINE
  5
221
330
17
100
AcDbEntity
  8
PILLAR
100
AcDbPolyline
 90
4
 70
1
 10
108.6
 20
4.818181516694181
 10
109.4
 20
4.818181516694181
 10
109.4
 20
5.6181815166941815
 10
108.6
 20
5.6181815166941815
  0
LWPOLYLINE
  5
222
330
17
100
AcDbEntity
  8
PILLAR
100
AcDbPolyline
 90
4
 70
1
 10
108.6
 20
10.6
 10
109.4
 20
10.6
 10
109.4
 20
11.4
 10
108.6
 20
11.4
  0
LWPOLYLINE
  5
223
330
17
100
AcDbEntity
  8
PILLAR
100
AcDbPolyline
 90
4
 70
1
 10
108.6
 20
37.2
 10
109.4
 20
37.2
 10
109.4
 20
38.0
 10
108.6
 20
38.0
  0
LWPOLYLINE
  5
224
330
17
100
AcDbEntity
  8
PILLAR
100
AcDbPolyline
 90
4
 70
1
 10
108.6
 20
42.0
 10
109.4
 20
42.0
 10
109.4
 20
42.8
 10
108.6
 20
42.8
  0
LWPOLYLINE
  5
225
330
17
100
AcDbEntity
  8
PILLAR
100
AcDbPolyline
 90
4
 70
1
 10
108.6
 20
68.6
 10
109.4
 20
68.6
 10
109.4
 20
69.4
 10
108.6
 20
69.4
  0
LWPOLYLINE
  5
226
330
17
100
AcDbEntity
  8
PILLAR
100
AcDbPolyline
 90
4
 70
1
 10
108.6
 20
74.3818184833058
 10
109.4
 20
74.3818184833058
 10
109.4
 20
75.18181848330582
 10
108.6
 20
75.18181848330582
  0
LWPOLYLINE
  5
227
330
17
100
AcDbEntity
  8
PILLAR
100
AcDbPolyline
 90
4
 70
1
 10
108.77142889469384
 20
10.6
 10
109.57142889469385
 20
10.6
 10
109.57142889469385
 20
11.4
 10
108.77142889469384
 20
11.4
  0
LWPOLYLINE
  5
228
330
17
100
AcDbEntity
  8
PILLAR
100
AcDbPolyline
 90
4
 70
1
 10
108.77142889469384
 20
68.6
 10
109.57142889469385
 20
68.6
 10
109.57142889469385
 20
69.4
 10
108.77142889469384
 20
69.4
  0
LWPOLYLINE
  5
229
330
17
100
AcDbEntity
  8
PILLAR
100
AcDbPolyline
 90
4
 70
1
 10
111.61282356979233
 20
7.504199141192098
 10
112.41282356979234
 20
7.504199141192098
 10
112.41282356979234
 20
8.304199141192099
 10
111.61282356979233
 20
8.304199141192099
  0
LWPOLYLINE
  5
22A
330
17
100
AcDbEntity
  8
PILLAR
100
AcDbPolyline
 90
4
 70
1
 10
111.61282356979233
 20
71.6958008588079
 10
112.41282356979234
 20
71.6958008588079
 10
112.41282356979234
 20
72.49580085880791
 10
111.61282356979233
 20
72.49580085880791
  0
LWPOLYLINE
  5
22B
330
17
100
AcDbEntity
  8
PILLAR
100
AcDbPolyline
 90
4
 70
1
 10
112.13142843036734
 20
37.2
 10
112.93142843036735
 20
37.2
 10
112.93142843036735
 20
38.0
 10
112.13142843036734
 20
38.0
  0
LWPOLYLINE
  5
22C
330
17
100
AcDbEntity
  8
PILLAR
100
AcDbPolyline
 90
4
 70
1
 10
112.13142843036734
 20
42.0
 10
112.93142843036735
 20
42.0
 10
112.93142843036735
 20
42.8
 10
112.13142843036734
 20
42.8
  0
CIRCLE
  5
22D
330
17
100
AcDbEntity
  8
DEBUG_NODE
100
AcDbCircle
 10
5.0
 20
5.0
 30
0.0
 40
0.12
  0
CIRCLE
  5
22E
330
17
100
AcDbEntity
  8
DEBUG_NODE
100
AcDbCircle
 10
39.266666666666666
 20
5.0
 30
0.0
 40
0.12
  0
CIRCLE
  5
22F
330
17
100
AcDbEntity
  8
DEBUG_NODE
100
AcDbCircle
 10
39.266666666666666
 20
75.0
 30
0.0
 40
0.12
  0
CIRCLE
  5
230
330
17
100
AcDbEntity
  8
DEBUG_NODE
100
AcDbCircle
 10
44.06666666666666
 20
5.0
 30
0.0
 40
0.12
  0
CIRCLE
  5
231
330
17
100
AcDbEntity
  8
DEBUG_NODE
100
AcDbCircle
 10
44.06666666666666
 20
75.0
 30
0.0
 40
0.12
  0
CIRCLE
  5
232
330
17
100
AcDbEntity
  8
DEBUG_NODE
100
AcDbCircle
 10
75.93333333333332
 20
5.0
 30
0.0
 40
0.12
  0
CIRCLE
  5
233
330
17
100
AcDbEntity
  8
DEBUG_NODE
100
AcDbCircle
 10
75.93333333333332
 20
75.0
 30
0.0
 40
0.12
  0
CIRCLE
  5
234
330
17
100
AcDbEntity
  8
DEBUG_NODE
100
AcDbCircle
 10
80.73333333333333
 20
5.0
 30
0.0
 40
0.12
  0
CIRCLE
  5
235
330
17
100
AcDbEntity
  8
DEBUG_NODE
100
AcDbCircle
 10
80.73333333333333
 20
75.0
 30
0.0
 40
0.12
  0
CIRCLE
  5
236
330
17
100
AcDbEntity
  8
DEBUG_NODE
100
AcDbCircle
 10
5.0
 20
37.6
 30
0.0
 40
0.12
  0
CIRCLE
  5
237
330
17
100
AcDbEntity
  8
DEBUG_NODE
100
AcDbCircle
 10
115.0
 20
37.6
 30
0.0
 40
0.12
  0
CIRCLE
  5
238
330
17
100
AcDbEntity
  8
DEBUG_NODE
100
AcDbCircle
 10
5.0
 20
42.4
 30
0.0
 40
0.12
  0
CIRCLE
  5
239
330
17
100
AcDbEntity
  8
DEBUG_NODE
100
AcDbCircle
 10
115.0
 20
42.4
 30
0.0
 40
0.12
  0
CIRCLE
  5
23A
330
17
100
AcDbEntity
  8
DEBUG_NODE
100
AcDbCircle
 10
39.266666666666666
 20
37.6
 30
0.0
 40
0.12
  0
CIRCLE
  5
23B
330
17
100
AcDbEntity
  8
DEBUG_NODE
100
AcDbCircle
 10
39.266666666666666
 20
42.4
 30
0.0
 40
0.12
  0
CIRCLE
  5
23C
330
17
100
AcDbEntity
  8
DEBUG_NODE
100
AcDbCircle
 10
44.06666666666666
 20
37.6
 30
0.0
 40
0.12
  0
CIRCLE
  5
23D
330
17
100
AcDbEntity
  8
DEBUG_NODE
100
AcDbCircle
 10
44.06666666666666
 20
42.4
 30
0.0
 40
0.12
  0
CIRCLE
  5
23E
330
17
100
AcDbEntity
  8
DEBUG_NODE
100
AcDbCircle
 10
75.93333333333332
 20
37.6
 30
0.0
 40
0.12
  0
CIRCLE
  5
23F
330
17
100
AcDbEntity
  8
DEBUG_NODE
100
AcDbCircle
 10
75.93333333333332
 20
42.4
 30
0.0
 40
0.12
  0
CIRCLE
  5
240
330
17
100
AcDbEntity
  8
DEBUG_NODE
100
AcDbCircle
 10
80.73333333333333
 20
37.6
 30
0.0
 40
0.12
  0
CIRCLE
  5
241
330
17
100
AcDbEntity
  8
DEBUG_NODE
100
AcDbCircle
 10
80.73333333333333
 20
42.4
 30
0.0
 40
0.12
  0
CIRCLE
  5
242
330
17
100
AcDbEntity
  8
DEBUG_NODE
100
AcDbCircle
 10
39.266666666666666
 20
19.0
 30
0.0
 40
0.12
  0
CIRCLE
  5
243
330
17
100
AcDbEntity
  8
DEBUG_NODE
100
AcDbCircle
 10
44.06666666666666
 20
19.0
 30
0.0
 40
0.12
  0
CIRCLE
  5
244
330
17
100
AcDbEntity
  8
DEBUG_NODE
100
AcDbCircle
 10
39.266666666666666
 20
33.0
 30
0.0
 40
0.12
  0
CIRCLE
  5
245
330
17
100
AcDbEntity
  8
DEBUG_NODE
100
AcDbCircle
 10
44.06666666666666
 20
33.0
 30
0.0
 40
0.12
  0
CIRCLE
  5
246
330
17
100
AcDbEntity
  8
DEBUG_NODE
100
AcDbCircle
 10
39.266666666666666
 20
47.0
 30
0.0
 40
0.12
  0
CIRCLE
  5
247
330
17
100
AcDbEntity
  8
DEBUG_NODE
100
AcDbCircle
 10
44.06666666666666
 20
47.0
 30
0.0
 40
0.12
  0
CIRCLE
  5
248
330
17
100
AcDbEntity
  8
DEBUG_NODE
100
AcDbCircle
 10
39.266666666666666
 20
61.0
 30
0.0
 40
0.12
  0
CIRCLE
  5
249
330
17
100
AcDbEntity
  8
DEBUG_NODE
100
AcDbCircle
 10
44.06666666666666
 20
61.0
 30
0.0
 40
0.12
  0
CIRCLE
  5
24A
330
17
100
AcDbEntity
  8
DEBUG_NODE
100
AcDbCircle
 10
75.93333333333332
 20
19.0
 30
0.0
 40
0.12
  0
CIRCLE
  5
24B
330
17
100
AcDbEntity
  8
DEBUG_NODE
100
AcDbCircle
 10
80.73333333333333
 20
19.0
 30
0.0
 40
0.12
  0
CIRCLE
  5
24C
330
17
100
AcDbEntity
  8
DEBUG_NODE
100
AcDbCircle
 10
75.93333333333332
 20
33.0
 30
0.0
 40
0.12
  0
CIRCLE
  5
24D
330
17
100
AcDbEntity
  8
DEBUG_NODE
100
AcDbCircle
 10
80.73333333333333
 20
33.0
 30
0.0
 40
0.12
  0
CIRCLE
  5
24E
330
17
100
AcDbEntity
  8
DEBUG_NODE
100
AcDbCircle
 10
75.93333333333332
 20
47.0
 30
0.0
 40
0.12
  0
CIRCLE
  5
24F
330
17
100
AcDbEntity
  8
DEBUG_NODE
100
AcDbCircle
 10
80.73333333333333
 20
47.0
 30
0.0
 40
0.12
  0
CIRCLE
  5
250
330
17
100
AcDbEntity
  8
DEBUG_NODE
100
AcDbCircle
 10
75.93333333333332
 20
61.0
 30
0.0
 40
0.12
  0
CIRCLE
  5
251
330
17
100
AcDbEntity
  8
DEBUG_NODE
100
AcDbCircle
 10
80.73333333333333
 20
61.0
 30
0.0
 40
0.12
  0
CIRCLE
  5
252
330
17
100
AcDbEntity
  8
DEBUG_NODE
100
AcDbCircle
 10
18.75
 20
37.6
 30
0.0
 40
0.12
  0
CIRCLE
  5
253
330
17
100
AcDbEntity
  8
DEBUG_NODE
100
AcDbCircle
 10
18.75
 20
42.4
 30
0.0
 40
0.12
  0
CIRCLE
  5
254
330
17
100
AcDbEntity
  8
DEBUG_NODE
100
AcDbCircle
 10
32.5
 20
37.6
 30
0.0
 40
0.12
  0
CIRCLE
  5
255
330
17
100
AcDbEntity
  8
DEBUG_NODE
100
AcDbCircle
 10
32.5
 20
42.4
 30
0.0
 40
0.12
  0
CIRCLE
  5
256
330
17
100
AcDbEntity
  8
DEBUG_NODE
100
AcDbCircle
 10
46.25
 20
37.6
 30
0.0
 40
0.12
  0
CIRCLE
  5
257
330
17
100
AcDbEntity
  8
DEBUG_NODE
100
AcDbCircle
 10
46.25
 20
42.4
 30
0.0
 40
0.12
  0
CIRCLE
  5
258
330
17
100
AcDbEntity
  8
DEBUG_NODE
100
AcDbCircle
 10
60.0
 20
37.6
 30
0.0
 40
0.12
  0
CIRCLE
  5
259
330
17
100
AcDbEntity
  8
DEBUG_NODE
100
AcDbCircle
 10
60.0
 20
42.4
 30
0.0
 40
0.12
  0
CIRCLE
  5
25A
330
17
100
AcDbEntity
  8
DEBUG_NODE
100
AcDbCircle
 10
73.75
 20
37.6
 30
0.0
 40
0.12
  0
CIRCLE
  5
25B
330
17
100
AcDbEntity
  8
DEBUG_NODE
100
AcDbCircle
 10
73.75
 20
42.4
 30
0.0
 40
0.12
  0
CIRCLE
  5
25C
330
17
100
AcDbEntity
  8
DEBUG_NODE
100
AcDbCircle
 10
87.5
 20
37.6
 30
0.0
 40
0.12
  0
CIRCLE
  5
25D
330
17
100
AcDbEntity
  8
DEBUG_NODE
100
AcDbCircle
 10
87.5
 20
42.4
 30
0.0
 40
0.12
  0
CIRCLE
  5
25E
330
17
100
AcDbEntity
  8
DEBUG_NODE
100
AcDbCircle
 10
101.25
 20
37.6
 30
0.0
 40
0.12
  0
CIRCLE
  5
25F
330
17
100
AcDbEntity
  8
DEBUG_NODE
100
AcDbCircle
 10
101.25
 20
42.4
 30
0.0
 40
0.12
  0
CIRCLE
  5
260
330
17
100
AcDbEntity
  8
DEBUG_NODE
100
AcDbCircle
 10
5.0
 20
10.833333
 30
0.0
 40
0.12
  0
CIRCLE
  5
261
330
17
100
AcDbEntity
  8
DEBUG_NODE
100
AcDbCircle
 10
11.0
 20
5.0
 30
0.0
 40
0.12
  0
CIRCLE
  5
262
330
17
100
AcDbEntity
  8
DEBUG_NODE
100
AcDbCircle
 10
11.0
 20
10.833333
 30
0.0
 40
0.12
  0
CIRCLE
  5
263
330
17
100
AcDbEntity
  8
DEBUG_NODE
100
AcDbCircle
 10
5.0
 20
16.666667
 30
0.0
 40
0.12
  0
CIRCLE
  5
264
330
17
100
AcDbEntity
  8
DEBUG_NODE
100
AcDbCircle
 10
11.0
 20
16.666667
 30
0.0
 40
0.12
  0
CIRCLE
  5
265
330
17
100
AcDbEntity
  8
DEBUG_NODE
100
AcDbCircle
 10
5.0
 20
22.5
 30
0.0
 40
0.12
  0
CIRCLE
  5
266
330
17
100
AcDbEntity
  8
DEBUG_NODE
100
AcDbCircle
 10
11.0
 20
22.5
 30
0.0
 40
0.12
  0
CIRCLE
  5
267
330
17
100
AcDbEntity
  8
DEBUG_NODE
100
AcDbCircle
 10
5.0
 20
28.333333
 30
0.0
 40
0.12
  0
CIRCLE
  5
268
330
17
100
AcDbEntity
  8
DEBUG_NODE
100
AcDbCircle
 10
11.0
 20
28.333333
 30
0.0
 40
0.12
  0
CIRCLE
  5
269
330
17
100
AcDbEntity
  8
DEBUG_NODE
100
AcDbCircle
 10
5.0
 20
34.166667
 30
0.0
 40
0.12
  0
CIRCLE
  5
26A
330
17
100
AcDbEntity
  8
DEBUG_NODE
100
AcDbCircle
 10
11.0
 20
34.166667
 30
0.0
 40
0.12
  0
CIRCLE
  5
26B
330
17
100
AcDbEntity
  8
DEBUG_NODE
100
AcDbCircle
 10
5.0
 20
40.0
 30
0.0
 40
0.12
  0
CIRCLE
  5
26C
330
17
100
AcDbEntity
  8
DEBUG_NODE
100
AcDbCircle
 10
11.0
 20
40.0
 30
0.0
 40
0.12
  0
CIRCLE
  5
26D
330
17
100
AcDbEntity
  8
DEBUG_NODE
100
AcDbCircle
 10
5.0
 20
45.833333
 30
0.0
 40
0.12
  0
CIRCLE
  5
26E
330
17
100
AcDbEntity
  8
DEBUG_NODE
100
AcDbCircle
 10
11.0
 20
45.833333
 30
0.0
 40
0.12
  0
CIRCLE
  5
26F
330
17
100
AcDbEntity
  8
DEBUG_NODE
100
AcDbCircle
 10
5.0
 20
51.666667
 30
0.0
 40
0.12
  0
CIRCLE
  5
270
330
17
100
AcDbEntity
  8
DEBUG_NODE
100
AcDbCircle
 10
11.0
 20
51.666667
 30
0.0
 40
0.12
  0
CIRCLE
  5
271
330
17
100
AcDbEntity
  8
DEBUG_NODE
100
AcDbCircle
 10
5.0
 20
57.5
 30
0.0
 40
0.12
  0
CIRCLE
  5
272
330
17
100
AcDbEntity
  8
DEBUG_NODE
100
AcDbCircle
 10
11.0
 20
57.5
 30
0.0
 40
0.12
  0
CIRCLE
  5
273
330
17
100
AcDbEntity
  8
DEBUG_NODE
100
AcDbCircle
 10
5.0
 20
63.333333
 30
0.0
 40
0.12
  0
CIRCLE
  5
274
330
17
100
AcDbEntity
  8
DEBUG_NODE
100
AcDbCircle
 10
11.0
 20
63.333333
 30
0.0
 40
0.12
  0
CIRCLE
  5
275
330
17
100
AcDbEntity
  8
DEBUG_NODE
100
AcDbCircle
 10
5.0
 20
69.166667
 30
0.0
 40
0.12
  0
CIRCLE
  5
276
330
17
100
AcDbEntity
  8
DEBUG_NODE
100
AcDbCircle
 10
11.0
 20
69.166667
 30
0.0
 40
0.12
  0
CIRCLE
  5
277
330
17
100
AcDbEntity
  8
DEBUG_NODE
100
AcDbCircle
 10
5.0
 20
75.0
 30
0.0
 40
0.12
  0
CIRCLE
  5
278
330
17
100
AcDbEntity
  8
DEBUG_NODE
100
AcDbCircle
 10
11.0
 20
75.0
 30
0.0
 40
0.12
  0
CIRCLE
  5
279
330
17
100
AcDbEntity
  8
DEBUG_NODE
100
AcDbCircle
 10
10.789474
 20
75.0
 30
0.0
 40
0.12
  0
CIRCLE
  5
27A
330
17
100
AcDbEntity
  8
DEBUG_NODE
100
AcDbCircle
 10
5.0
 20
69.0
 30
0.0
 40
0.12
  0
CIRCLE
  5
27B
330
17
100
AcDbEntity
  8
DEBUG_NODE
100
AcDbCircle
 10
10.789474
 20
69.0
 30
0.0
 40
0.12
  0
CIRCLE
  5
27C
330
17
100
AcDbEntity
  8
DEBUG_NODE
100
AcDbCircle
 10
16.578947
 20
75.0
 30
0.0
 40
0.12
  0
CIRCLE
  5
27D
330
17
100
AcDbEntity
  8
DEBUG_NODE
100
AcDbCircle
 10
16.578947
 20
69.0
 30
0.0
 40
0.12
  0
CIRCLE
  5
27E
330
17
100
AcDbEntity
  8
DEBUG_NODE
100
AcDbCircle
 10
22.368421
 20
75.0
 30
0.0
 40
0.12
  0
CIRCLE
  5
27F
330
17
100
AcDbEntity
  8
DEBUG_NODE
100
AcDbCircle
 10
22.368421
 20
69.0
 30
0.0
 40
0.12
  0
CIRCLE
  5
280
330
17
100
AcDbEntity
  8
DEBUG_NODE
100
AcDbCircle
 10
28.157895
 20
75.0
 30
0.0
 40
0.12
  0
CIRCLE
  5
281
330
17
100
AcDbEntity
  8
DEBUG_NODE
100
AcDbCircle
 10
28.157895
 20
69.0
 30
0.0
 40
0.12
  0
CIRCLE
  5
282
330
17
100
AcDbEntity
  8
DEBUG_NODE
100
AcDbCircle
 10
33.947368
 20
75.0
 30
0.0
 40
0.12
  0
CIRCLE
  5
283
330
17
100
AcDbEntity
  8
DEBUG_NODE
100
AcDbCircle
 10
33.947368
 20
69.0
 30
0.0
 40
0.12
  0
CIRCLE
  5
284
330
17
100
AcDbEntity
  8
DEBUG_NODE
100
AcDbCircle
 10
41.666667
 20
75.0
 30
0.0
 40
0.12
  0
CIRCLE
  5
285
330
17
100
AcDbEntity
  8
DEBUG_NODE
100
AcDbCircle
 10
41.666667
 20
69.0
 30
0.0
 40
0.12
  0
CIRCLE
  5
286
330
17
100
AcDbEntity
  8
DEBUG_NODE
100
AcDbCircle
 10
45.526316
 20
75.0
 30
0.0
 40
0.12
  0
CIRCLE
  5
287
330
17
100
AcDbEntity
  8
DEBUG_NODE
100
AcDbCircle
 10
45.526316
 20
69.0
 30
0.0
 40
0.12
  0
CIRCLE
  5
288
330
17
100
AcDbEntity
  8
DEBUG_NODE
100
AcDbCircle
 10
51.315789
 20
75.0
 30
0.0
 40
0.12
  0
CIRCLE
  5
289
330
17
100
AcDbEntity
  8
DEBUG_NODE
100
AcDbCircle
 10
51.315789
 20
69.0
 30
0.0
 40
0.12
  0
CIRCLE
  5
28A
330
17
100
AcDbEntity
  8
DEBUG_NODE
100
AcDbCircle
 10
57.105263
 20
75.0
 30
0.0
 40
0.12
  0
CIRCLE
  5
28B
330
17
100
AcDbEntity
  8
DEBUG_NODE
100
AcDbCircle
 10
57.105263
 20
69.0
 30
0.0
 40
0.12
  0
CIRCLE
  5
28C
330
17
100
AcDbEntity
  8
DEBUG_NODE
100
AcDbCircle
 10
62.894737
 20
75.0
 30
0.0
 40
0.12
  0
CIRCLE
  5
28D
330
17
100
AcDbEntity
  8
DEBUG_NODE
100
AcDbCircle
 10
62.894737
 20
69.0
 30
0.0
 40
0.12
  0
CIRCLE
  5
28E
330
17
100
AcDbEntity
  8
DEBUG_NODE
100
AcDbCircle
 10
68.684211
 20
75.0
 30
0.0
 40
0.12
  0
CIRCLE
  5
28F
330
17
100
AcDbEntity
  8
DEBUG_NODE
100
AcDbCircle
 10
68.684211
 20
69.0
 30
0.0
 40
0.12
  0
CIRCLE
  5
290
330
17
100
AcDbEntity
  8
DEBUG_NODE
100
AcDbCircle
 10
74.473684
 20
75.0
 30
0.0
 40
0.12
  0
CIRCLE
  5
291
330
17
100
AcDbEntity
  8
DEBUG_NODE
100
AcDbCircle
 10
74.473684
 20
69.0
 30
0.0
 40
0.12
  0
CIRCLE
  5
292
330
17
100
AcDbEntity
  8
DEBUG_NODE
100
AcDbCircle
 10
78.333333
 20
75.0
 30
0.0
 40
0.12
  0
CIRCLE
  5
293
330
17
100
AcDbEntity
  8
DEBUG_NODE
100
AcDbCircle
 10
78.333333
 20
69.0
 30
0.0
 40
0.12
  0
CIRCLE
  5
294
330
17
100
AcDbEntity
  8
DEBUG_NODE
100
AcDbCircle
 10
86.052632
 20
75.0
 30
0.0
 40
0.12
  0
CIRCLE
  5
295
330
17
100
AcDbEntity
  8
DEBUG_NODE
100
AcDbCircle
 10
86.052632
 20
69.0
 30
0.0
 40
0.12
  0
CIRCLE
  5
296
330
17
100
AcDbEntity
  8
DEBUG_NODE
100
AcDbCircle
 10
91.842105
 20
75.0
 30
0.0
 40
0.12
  0
CIRCLE
  5
297
330
17
100
AcDbEntity
  8
DEBUG_NODE
100
AcDbCircle
 10
91.842105
 20
69.0
 30
0.0
 40
0.12
  0
CIRCLE
  5
298
330
17
100
AcDbEntity
  8
DEBUG_NODE
100
AcDbCircle
 10
97.631579
 20
75.0
 30
0.0
 40
0.12
  0
CIRCLE
  5
299
330
17
100
AcDbEntity
  8
DEBUG_NODE
100
AcDbCircle
 10
97.631579
 20
69.0
 30
0.0
 40
0.12
  0
CIRCLE
  5
29A
330
17
100
AcDbEntity
  8
DEBUG_NODE
100
AcDbCircle
 10
103.421053
 20
75.0
 30
0.0
 40
0.12
  0
CIRCLE
  5
29B
330
17
100
AcDbEntity
  8
DEBUG_NODE
100
AcDbCircle
 10
103.421053
 20
69.0
 30
0.0
 40
0.12
  0
CIRCLE
  5
29C
330
17
100
AcDbEntity
  8
DEBUG_NODE
100
AcDbCircle
 10
109.210526
 20
75.0
 30
0.0
 40
0.12
  0
CIRCLE
  5
29D
330
17
100
AcDbEntity
  8
DEBUG_NODE
100
AcDbCircle
 10
109.210526
 20
69.0
 30
0.0
 40
0.12
  0
CIRCLE
  5
29E
330
17
100
AcDbEntity
  8
DEBUG_NODE
100
AcDbCircle
 10
115.0
 20
75.0
 30
0.0
 40
0.12
  0
CIRCLE
  5
29F
330
17
100
AcDbEntity
  8
DEBUG_NODE
100
AcDbCircle
 10
115.0
 20
69.0
 30
0.0
 40
0.12
  0
CIRCLE
  5
2A0
330
17
100
AcDbEntity
  8
DEBUG_NODE
100
AcDbCircle
 10
115.0
 20
5.0
 30
0.0
 40
0.12
  0
CIRCLE
  5
2A1
330
17
100
AcDbEntity
  8
DEBUG_NODE
100
AcDbCircle
 10
115.0
 20
10.833333
 30
0.0
 40
0.12
  0
CIRCLE
  5
2A2
330
17
100
AcDbEntity
  8
DEBUG_NODE
100
AcDbCircle
 10
109.0
 20
5.0
 30
0.0
 40
0.12
  0
CIRCLE
  5
2A3
330
17
100
AcDbEntity
  8
DEBUG_NODE
100
AcDbCircle
 10
109.0
 20
10.833333
 30
0.0
 40
0.12
  0
CIRCLE
  5
2A4
330
17
100
AcDbEntity
  8
DEBUG_NODE
100
AcDbCircle
 10
115.0
 20
16.666667
 30
0.0
 40
0.12
  0
CIRCLE
  5
2A5
330
17
100
AcDbEntity
  8
DEBUG_NODE
100
AcDbCircle
 10
109.0
 20
16.666667
 30
0.0
 40
0.12
  0
CIRCLE
  5
2A6
330
17
100
AcDbEntity
  8
DEBUG_NODE
100
AcDbCircle
 10
115.0
 20
22.5
 30
0.0
 40
0.12
  0
CIRCLE
  5
2A7
330
17
100
AcDbEntity
  8
DEBUG_NODE
100
AcDbCircle
 10
109.0
 20
22.5
 30
0.0
 40
0.12
  0
CIRCLE
  5
2A8
330
17
100
AcDbEntity
  8
DEBUG_NODE
100
AcDbCircle
 10
115.0
 20
28.333333
 30
0.0
 40
0.12
  0
CIRCLE
  5
2A9
330
17
100
AcDbEntity
  8
DEBUG_NODE
100
AcDbCircle
 10
109.0
 20
28.333333
 30
0.0
 40
0.12
  0
CIRCLE
  5
2AA
330
17
100
AcDbEntity
  8
DEBUG_NODE
100
AcDbCircle
 10
115.0
 20
34.166667
 30
0.0
 40
0.12
  0
CIRCLE
  5
2AB
330
17
100
AcDbEntity
  8
DEBUG_NODE
100
AcDbCircle
 10
109.0
 20
34.166667
 30
0.0
 40
0.12
  0
CIRCLE
  5
2AC
330
17
100
AcDbEntity
  8
DEBUG_NODE
100
AcDbCircle
 10
115.0
 20
40.0
 30
0.0
 40
0.12
  0
CIRCLE
  5
2AD
330
17
100
AcDbEntity
  8
DEBUG_NODE
100
AcDbCircle
 10
109.0
 20
40.0
 30
0.0
 40
0.12
  0
CIRCLE
  5
2AE
330
17
100
AcDbEntity
  8
DEBUG_NODE
100
AcDbCircle
 10
115.0
 20
45.833333
 30
0.0
 40
0.12
  0
CIRCLE
  5
2AF
330
17
100
AcDbEntity
  8
DEBUG_NODE
100
AcDbCircle
 10
109.0
 20
45.833333
 30
0.0
 40
0.12
  0
CIRCLE
  5
2B0
330
17
100
AcDbEntity
  8
DEBUG_NODE
100
AcDbCircle
 10
115.0
 20
51.666667
 30
0.0
 40
0.12
  0
CIRCLE
  5
2B1
330
17
100
AcDbEntity
  8
DEBUG_NODE
100
AcDbCircle
 10
109.0
 20
51.666667
 30
0.0
 40
0.12
  0
CIRCLE
  5
2B2
330
17
100
AcDbEntity
  8
DEBUG_NODE
100
AcDbCircle
 10
115.0
 20
57.5
 30
0.0
 40
0.12
  0
CIRCLE
  5
2B3
330
17
100
AcDbEntity
  8
DEBUG_NODE
100
AcDbCircle
 10
109.0
 20
57.5
 30
0.0
 40
0.12
  0
CIRCLE
  5
2B4
330
17
100
AcDbEntity
  8
DEBUG_NODE
100
AcDbCircle
 10
115.0
 20
63.333333
 30
0.0
 40
0.12
  0
CIRCLE
  5
2B5
330
17
100
AcDbEntity
  8
DEBUG_NODE
100
AcDbCircle
 10
109.0
 20
63.333333
 30
0.0
 40
0.12
  0
CIRCLE
  5
2B6
330
17
100
AcDbEntity
  8
DEBUG_NODE
100
AcDbCircle
 10
115.0
 20
69.166667
 30
0.0
 40
0.12
  0
CIRCLE
  5
2B7
330
17
100
AcDbEntity
  8
DEBUG_NODE
100
AcDbCircle
 10
109.0
 20
69.166667
 30
0.0
 40
0.12
  0
CIRCLE
  5
2B8
330
17
100
AcDbEntity
  8
DEBUG_NODE
100
AcDbCircle
 10
109.0
 20
75.0
 30
0.0
 40
0.12
  0
CIRCLE
  5
2B9
330
17
100
AcDbEntity
  8
DEBUG_NODE
100
AcDbCircle
 10
10.789474
 20
5.0
 30
0.0
 40
0.12
  0
CIRCLE
  5
2BA
330
17
100
AcDbEntity
  8
DEBUG_NODE
100
AcDbCircle
 10
5.0
 20
11.0
 30
0.0
 40
0.12
  0
CIRCLE
  5
2BB
330
17
100
AcDbEntity
  8
DEBUG_NODE
100
AcDbCircle
 10
10.789474
 20
11.0
 30
0.0
 40
0.12
  0
CIRCLE
  5
2BC
330
17
100
AcDbEntity
  8
DEBUG_NODE
100
AcDbCircle
 10
16.578947
 20
5.0
 30
0.0
 40
0.12
  0
CIRCLE
  5
2BD
330
17
100
AcDbEntity
  8
DEBUG_NODE
100
AcDbCircle
 10
16.578947
 20
11.0
 30
0.0
 40
0.12
  0
CIRCLE
  5
2BE
330
17
100
AcDbEntity
  8
DEBUG_NODE
100
AcDbCircle
 10
22.368421
 20
5.0
 30
0.0
 40
0.12
  0
CIRCLE
  5
2BF
330
17
100
AcDbEntity
  8
DEBUG_NODE
100
AcDbCircle
 10
22.368421
 20
11.0
 30
0.0
 40
0.12
  0
CIRCLE
  5
2C0
330
17
100
AcDbEntity
  8
DEBUG_NODE
100
AcDbCircle
 10
28.157895
 20
5.0
 30
0.0
 40
0.12
  0
CIRCLE
  5
2C1
330
17
100
AcDbEntity
  8
DEBUG_NODE
100
AcDbCircle
 10
28.157895
 20
11.0
 30
0.0
 40
0.12
  0
CIRCLE
  5
2C2
330
17
100
AcDbEntity
  8
DEBUG_NODE
100
AcDbCircle
 10
33.947368
 20
5.0
 30
0.0
 40
0.12
  0
CIRCLE
  5
2C3
330
17
100
AcDbEntity
  8
DEBUG_NODE
100
AcDbCircle
 10
33.947368
 20
11.0
 30
0.0
 40
0.12
  0
CIRCLE
  5
2C4
330
17
100
AcDbEntity
  8
DEBUG_NODE
100
AcDbCircle
 10
41.666667
 20
5.0
 30
0.0
 40
0.12
  0
CIRCLE
  5
2C5
330
17
100
AcDbEntity
  8
DEBUG_NODE
100
AcDbCircle
 10
41.666667
 20
11.0
 30
0.0
 40
0.12
  0
CIRCLE
  5
2C6
330
17
100
AcDbEntity
  8
DEBUG_NODE
100
AcDbCircle
 10
45.526316
 20
5.0
 30
0.0
 40
0.12
  0
CIRCLE
  5
2C7
330
17
100
AcDbEntity
  8
DEBUG_NODE
100
AcDbCircle
 10
45.526316
 20
11.0
 30
0.0
 40
0.12
  0
CIRCLE
  5
2C8
330
17
100
AcDbEntity
  8
DEBUG_NODE
100
AcDbCircle
 10
51.315789
 20
5.0
 30
0.0
 40
0.12
  0
CIRCLE
  5
2C9
330
17
100
AcDbEntity
  8
DEBUG_NODE
100
AcDbCircle
 10
51.315789
 20
11.0
 30
0.0
 40
0.12
  0
CIRCLE
  5
2CA
330
17
100
AcDbEntity
  8
DEBUG_NODE
100
AcDbCircle
 10
57.105263
 20
5.0
 30
0.0
 40
0.12
  0
CIRCLE
  5
2CB
330
17
100
AcDbEntity
  8
DEBUG_NODE
100
AcDbCircle
 10
57.105263
 20
11.0
 30
0.0
 40
0.12
  0
CIRCLE
  5
2CC
330
17
100
AcDbEntity
  8
DEBUG_NODE
100
AcDbCircle
 10
62.894737
 20
5.0
 30
0.0
 40
0.12
  0
CIRCLE
  5
2CD
330
17
100
AcDbEntity
  8
DEBUG_NODE
100
AcDbCircle
 10
62.894737
 20
11.0
 30
0.0
 40
0.12
  0
CIRCLE
  5
2CE
330
17
100
AcDbEntity
  8
DEBUG_NODE
100
AcDbCircle
 10
68.684211
 20
5.0
 30
0.0
 40
0.12
  0
CIRCLE
  5
2CF
330
17
100
AcDbEntity
  8
DEBUG_NODE
100
AcDbCircle
 10
68.684211
 20
11.0
 30
0.0
 40
0.12
  0
CIRCLE
  5
2D0
330
17
100
AcDbEntity
  8
DEBUG_NODE
100
AcDbCircle
 10
74.473684
 20
5.0
 30
0.0
 40
0.12
  0
CIRCLE
  5
2D1
330
17
100
AcDbEntity
  8
DEBUG_NODE
100
AcDbCircle
 10
74.473684
 20
11.0
 30
0.0
 40
0.12
  0
CIRCLE
  5
2D2
330
17
100
AcDbEntity
  8
DEBUG_NODE
100
AcDbCircle
 10
78.333333
 20
5.0
 30
0.0
 40
0.12
  0
CIRCLE
  5
2D3
330
17
100
AcDbEntity
  8
DEBUG_NODE
100
AcDbCircle
 10
78.333333
 20
11.0
 30
0.0
 40
0.12
  0
CIRCLE
  5
2D4
330
17
100
AcDbEntity
  8
DEBUG_NODE
100
AcDbCircle
 10
86.052632
 20
5.0
 30
0.0
 40
0.12
  0
CIRCLE
  5
2D5
330
17
100
AcDbEntity
  8
DEBUG_NODE
100
AcDbCircle
 10
86.052632
 20
11.0
 30
0.0
 40
0.12
  0
CIRCLE
  5
2D6
330
17
100
AcDbEntity
  8
DEBUG_NODE
100
AcDbCircle
 10
91.842105
 20
5.0
 30
0.0
 40
0.12
  0
CIRCLE
  5
2D7
330
17
100
AcDbEntity
  8
DEBUG_NODE
100
AcDbCircle
 10
91.842105
 20
11.0
 30
0.0
 40
0.12
  0
CIRCLE
  5
2D8
330
17
100
AcDbEntity
  8
DEBUG_NODE
100
AcDbCircle
 10
97.631579
 20
5.0
 30
0.0
 40
0.12
  0
CIRCLE
  5
2D9
330
17
100
AcDbEntity
  8
DEBUG_NODE
100
AcDbCircle
 10
97.631579
 20
11.0
 30
0.0
 40
0.12
  0
CIRCLE
  5
2DA
330
17
100
AcDbEntity
  8
DEBUG_NODE
100
AcDbCircle
 10
103.421053
 20
5.0
 30
0.0
 40
0.12
  0
CIRCLE
  5
2DB
330
17
100
AcDbEntity
  8
DEBUG_NODE
100
AcDbCircle
 10
103.421053
 20
11.0
 30
0.0
 40
0.12
  0
CIRCLE
  5
2DC
330
17
100
AcDbEntity
  8
DEBUG_NODE
100
AcDbCircle
 10
109.210526
 20
5.0
 30
0.0
 40
0.12
  0
CIRCLE
  5
2DD
330
17
100
AcDbEntity
  8
DEBUG_NODE
100
AcDbCircle
 10
109.210526
 20
11.0
 30
0.0
 40
0.12
  0
CIRCLE
  5
2DE
330
17
100
AcDbEntity
  8
DEBUG_NODE
100
AcDbCircle
 10
115.0
 20
11.0
 30
0.0
 40
0.12
  0
CIRCLE
  5
2DF
330
17
100
AcDbEntity
  8
DEBUG_NODE
100
AcDbCircle
 10
39.266666666666666
 20
69.0
 30
0.0
 40
0.12
  0
CIRCLE
  5
2E0
330
17
100
AcDbEntity
  8
DEBUG_NODE
100
AcDbCircle
 10
39.266666666666666
 20
73.13454537776035
 30
0.0
 40
0.12
  0
CIRCLE
  5
2E1
330
17
100
AcDbEntity
  8
DEBUG_NODE
100
AcDbCircle
 10
39.266666666666666
 20
11.0
 30
0.0
 40
0.12
  0
CIRCLE
  5
2E2
330
17
100
AcDbEntity
  8
DEBUG_NODE
100
AcDbCircle
 10
39.266666666666666
 20
6.86545462223966
 30
0.0
 40
0.12
  0
CIRCLE
  5
2E3
330
17
100
AcDbEntity
  8
DEBUG_NODE
100
AcDbCircle
 10
44.06666666666666
 20
69.0
 30
0.0
 40
0.12
  0
CIRCLE
  5
2E4
330
17
100
AcDbEntity
  8
DEBUG_NODE
100
AcDbCircle
 10
44.06666666666666
 20
71.269091308562
 30
0.0
 40
0.12
  0
CIRCLE
  5
2E5
330
17
100
AcDbEntity
  8
DEBUG_NODE
100
AcDbCircle
 10
44.06666666666666
 20
11.0
 30
0.0
 40
0.12
  0
CIRCLE
  5
2E6
330
17
100
AcDbEntity
  8
DEBUG_NODE
100
AcDbCircle
 10
44.06666666666666
 20
8.730908691437998
 30
0.0
 40
0.12
  0
CIRCLE
  5
2E7
330
17
100
AcDbEntity
  8
DEBUG_NODE
100
AcDbCircle
 10
75.93333333333332
 20
69.0
 30
0.0
 40
0.12
  0
CIRCLE
  5
2E8
330
17
100
AcDbEntity
  8
DEBUG_NODE
100
AcDbCircle
 10
75.93333333333332
 20
72.73090869143802
 30
0.0
 40
0.12
  0
CIRCLE
  5
2E9
330
17
100
AcDbEntity
  8
DEBUG_NODE
100
AcDbCircle
 10
75.93333333333332
 20
11.0
 30
0.0
 40
0.12
  0
CIRCLE
  5
2EA
330
17
100
AcDbEntity
  8
DEBUG_NODE
100
AcDbCircle
 10
75.93333333333332
 20
7.269091308561976
 30
0.0
 40
0.12
  0
CIRCLE
  5
2EB
330
17
100
AcDbEntity
  8
DEBUG_NODE
100
AcDbCircle
 10
80.73333333333333
 20
69.0
 30
0.0
 40
0.12
  0
CIRCLE
  5
2EC
330
17
100
AcDbEntity
  8
DEBUG_NODE
100
AcDbCircle
 10
80.73333333333333
 20
70.86545462223967
 30
0.0
 40
0.12
  0
CIRCLE
  5
2ED
330
17
100
AcDbEntity
  8
DEBUG_NODE
100
AcDbCircle
 10
80.73333333333333
 20
11.0
 30
0.0
 40
0.12
  0
CIRCLE
  5
2EE
330
17
100
AcDbEntity
  8
DEBUG_NODE
100
AcDbCircle
 10
80.73333333333333
 20
9.134545377760336
 30
0.0
 40
0.12
  0
CIRCLE
  5
2EF
330
17
100
AcDbEntity
  8
DEBUG_NODE
100
AcDbCircle
 10
11.0
 20
37.6
 30
0.0
 40
0.12
  0
CIRCLE
  5
2F0
330
17
100
AcDbEntity
  8
DEBUG_NODE
100
AcDbCircle
 10
7.468571569632658
 20
37.6
 30
0.0
 40
0.12
  0
CIRCLE
  5
2F1
330
17
100
AcDbEntity
  8
DEBUG_NODE
100
AcDbCircle
 10
109.0
 20
37.6
 30
0.0
 40
0.12
  0
CIRCLE
  5
2F2
330
17
100
AcDbEntity
  8
DEBUG_NODE
100
AcDbCircle
 10
112.53142843036734
 20
37.6
 30
0.0
 40
0.12
  0
CIRCLE
  5
2F3
330
17
100
AcDbEntity
  8
DEBUG_NODE
100
AcDbCircle
 10
11.0
 20
42.4
 30
0.0
 40
0.12
  0
CIRCLE
  5
2F4
330
17
100
AcDbEntity
  8
DEBUG_NODE
100
AcDbCircle
 10
7.468571569632658
 20
42.4
 30
0.0
 40
0.12
  0
CIRCLE
  5
2F5
330
17
100
AcDbEntity
  8
DEBUG_NODE
100
AcDbCircle
 10
109.0
 20
42.4
 30
0.0
 40
0.12
  0
CIRCLE
  5
2F6
330
17
100
AcDbEntity
  8
DEBUG_NODE
100
AcDbCircle
 10
112.53142843036734
 20
42.4
 30
0.0
 40
0.12
  0
CIRCLE
  5
2F7
330
17
100
AcDbEntity
  8
DEBUG_NODE
100
AcDbCircle
 10
11.0
 20
10.781818483305821
 30
0.0
 40
0.12
  0
CIRCLE
  5
2F8
330
17
100
AcDbEntity
  8
DEBUG_NODE
100
AcDbCircle
 10
10.97435284393865
 20
10.808398266365195
 30
0.0
 40
0.12
  0
CIRCLE
  5
2F9
330
17
100
AcDbEntity
  8
DEBUG_NODE
100
AcDbCircle
 10
11.0
 20
11.0
 30
0.0
 40
0.12
  0
CIRCLE
  5
2FA
330
17
100
AcDbEntity
  8
DEBUG_NODE
100
AcDbCircle
 10
10.828571105306159
 20
11.0
 30
0.0
 40
0.12
  0
CIRCLE
  5
2FB
330
17
100
AcDbEntity
  8
DEBUG_NODE
100
AcDbCircle
 10
11.0
 20
69.0
 30
0.0
 40
0.12
  0
CIRCLE
  5
2FC
330
17
100
AcDbEntity
  8
DEBUG_NODE
100
AcDbCircle
 10
10.828571105306155
 20
69.0
 30
0.0
 40
0.12
  0
CIRCLE
  5
2FD
330
17
100
AcDbEntity
  8
DEBUG_NODE
100
AcDbCircle
 10
11.0
 20
69.21818151669417
 30
0.0
 40
0.12
  0
CIRCLE
  5
2FE
330
17
100
AcDbEntity
  8
DEBUG_NODE
100
AcDbCircle
 10
10.97435284393865
 20
69.19160173363481
 30
0.0
 40
0.12
  0
CIRCLE
  5
2FF
330
17
100
AcDbEntity
  8
DEBUG_NODE
100
AcDbCircle
 10
109.0
 20
69.0
 30
0.0
 40
0.12
  0
CIRCLE
  5
300
330
17
100
AcDbEntity
  8
DEBUG_NODE
100
AcDbCircle
 10
109.17142889469385
 20
69.0
 30
0.0
 40
0.12
  0
CIRCLE
  5
301
330
17
100
AcDbEntity
  8
DEBUG_NODE
100
AcDbCircle
 10
109.0
 20
74.78181848330581
 30
0.0
 40
0.12
  0
CIRCLE
  5
302
330
17
100
AcDbEntity
  8
DEBUG_NODE
100
AcDbCircle
 10
112.01282356979233
 20
72.0958008588079
 30
0.0
 40
0.12
  0
CIRCLE
  5
303
330
17
100
AcDbEntity
  8
DEBUG_NODE
100
AcDbCircle
 10
109.0
 20
5.218181516694181
 30
0.0
 40
0.12
  0
CIRCLE
  5
304
330
17
100
AcDbEntity
  8
DEBUG_NODE
100
AcDbCircle
 10
112.01282356979233
 20
7.904199141192098
 30
0.0
 40
0.12
  0
CIRCLE
  5
305
330
17
100
AcDbEntity
  8
DEBUG_NODE
100
AcDbCircle
 10
109.0
 20
11.0
 30
0.0
 40
0.12
  0
CIRCLE
  5
306
330
17
100
AcDbEntity
  8
DEBUG_NODE
100
AcDbCircle
 10
109.17142889469385
 20
11.0
 30
0.0
 40
0.12
  0
ENDSEC
  0
SECTION
  2
OBJECTS
  0
DICTIONARY
  5
A
330
0
100
AcDbDictionary
281
1
  3
ACAD_COLOR
350
B
  3
ACAD_GROUP
350
C
  3
ACAD_LAYOUT
350
D
  3
ACAD_MATERIAL
350
E
  3
ACAD_MLEADERSTYLE
350
F
  3
ACAD_MLINESTYLE
350
10
  3
ACAD_PLOTSETTINGS
350
11
  3
ACAD_PLOTSTYLENAME
350
12
  3
ACAD_SCALELIST
350
14
  3
ACAD_TABLESTYLE
350
15
  3
ACAD_VISUALSTYLE
350
16
  3
EZDXF_META
350
2D
  0
DICTIONARY
  5
B
330
A
100
AcDbDictionary
281
1
  0
DICTIONARY
  5
C
330
A
100
AcDbDictionary
281
1
  0
DICTIONARY
  5
D
330
A
100
AcDbDictionary
281
1
  3
Model
350
1A
  3
Layout1
350
1E
  0
DICTIONARY
  5
E
330
A
100
AcDbDictionary
281
1
  3
ByBlock
350
1F
  3
ByLayer
350
20
  3
Global
350
21
  0
DICTIONARY
  5
F
330
A
100
AcDbDictionary
281
1
  3
Standard
350
2C
  0
DICTIONARY
  5
10
330
A
100
AcDbDictionary
281
1
  3
Standard
350
22
  0
DICTIONARY
  5
11
330
A
100
AcDbDictionary
281
1
  0
ACDBDICTIONARYWDFLT
  5
12
330
A
100
AcDbDictionary
281
1
  3
Normal
350
13
100
AcDbDictionaryWithDefault
340
13
  0
ACDBPLACEHOLDER
  5
13
330
12
  0
DICTIONARY
  5
14
330
A
100
AcDbDictionary
281
1
  0
DICTIONARY
  5
15
330
A
100
AcDbDictionary
281
1
  0
DICTIONARY
  5
16
330
A
100
AcDbDictionary
281
1
  0
LAYOUT
  5
1A
330
D
100
AcDbPlotSettings
  1

  4
A3
  6

 40
7.5
 41
20.0
 42
7.5
 43
20.0
 44
420.0
 45
297.0
 46
0.0
 47
0.0
 48
0.0
 49
0.0
140
0.0
141
0.0
142
1.0
143
1.0
 70
1024
 72
1
 73
0
 74
5
  7

 75
16
 76
0
 77
2
 78
300
147
1.0
148
0.0
149
0.0
100
AcDbLayout
  1
Model
 70
1
 71
0
 10
0.0
 20
0.0
 11
420.0
 21
297.0
 12
0.0
 22
0.0
 32
0.0
 14
1e+20
 24
1e+20
 34
1e+20
 15
-1e+20
 25
-1e+20
 35
-1e+20
146
0.0
 13
0.0
 23
0.0
 33
0.0
 16
1.0
 26
0.0
 36
0.0
 17
0.0
 27
1.0
 37
0.0
 76
1
330
17
  0
LAYOUT
  5
1E
330
D
100
AcDbPlotSettings
  1

  4
A3
  6

 40
7.5
 41
20.0
 42
7.5
 43
20.0
 44
420.0
 45
297.0
 46
0.0
 47
0.0
 48
0.0
 49
0.0
140
0.0
141
0.0
142
1.0
143
1.0
 70
0
 72
1
 73
0
 74
5
  7

 75
16
 76
0
 77
2
 78
300
147
1.0
148
0.0
149
0.0
100
AcDbLayout
  1
Layout1
 70
1
 71
1
 10
0.0
 20
0.0
 11
420.0
 21
297.0
 12
0.0
 22
0.0
 32
0.0
 14
1e+20
 24
1e+20
 34
1e+20
 15
-1e+20
 25
-1e+20
 35
-1e+20
146
0.0
 13
0.0
 23
0.0
 33
0.0
 16
1.0
 26
0.0
 36
0.0
 17
0.0
 27
1.0
 37
0.0
 76
1
330
1B
  0
MATERIAL
  5
1F
102
{ACAD_REACTORS
330
E
102
}
330
E
100
AcDbMaterial
  1
ByBlock
  2

 70
0
 40
1.0
 71
1
 41
1.0
 91
-1023410177
 42
1.0
 72
1
  3

 73
1
 74
1
 75
1
 44
0.5
 73
0
 45
1.0
 46
1.0
 77
1
  4

 78
1
 79
1
170
1
 48
1.0
171
1
  6

172
1
173
1
174
1
140
1.0
141
1.0
175
1
  7

176
1
177
1
178
1
143
1.0
179
1
  8

270
1
271
1
272
1
145
1.0
146
1.0
273
1
  9

274
1
275
1
276
1
 42
1.0
 72
1
  3

 73
1
 74
1
 75
1
 94
63
  0
MATERIAL
  5
20
102
{ACAD_REACTORS
330
E
102
}
330
E
100
AcDbMaterial
  1
ByLayer
  2

 70
0
 40
1.0
 71
1
 41
1.0
 91
-1023410177
 42
1.0
 72
1
  3

 73
1
 74
1
 75
1
 44
0.5
 73
0
 45
1.0
 46
1.0
 77
1
  4

 78
1
 79
1
170
1
 48
1.0
171
1
  6

172
1
173
1
174
1
140
1.0
141
1.0
175
1
  7

176
1
177
1
178
1
143
1.0
179
1
  8

270
1
271
1
272
1
145
1.0
146
1.0
273
1
  9

274
1
275
1
276
1
 42
1.0
 72
1
  3

 73
1
 74
1
 75
1
 94
63
  0
MATERIAL
  5
21
102
{ACAD_REACTORS
330
E
102
}
330
E
100
AcDbMaterial
  1
Global
  2

 70
0
 40
1.0
 71
1
 41
1.0
 91
-1023410177
 42
1.0
 72
1
  3

 73
1
 74
1
 75
1
 44
0.5
 73
0
 45
1.0
 46
1.0
 77
1
  4

 78
1
 79
1
170
1
 48
1.0
171
1
  6

172
1
173
1
174
1
140
1.0
141
1.0
175
1
  7

176
1
177
1
178
1
143
1.0
179
1
  8

270
1
271
1
272
1
145
1.0
146
1.0
273
1
  9

274
1
275
1
276
1
 42
1.0
 72
1
  3

 73
1
 74
1
 75
1
 94
63
  0
MLINESTYLE
  5
22
102
{ACAD_REACTORS
330
10
102
}
330
10
100
AcDbMlineStyle
  2
Standard
 70
0
  3

 62
256
 51
90.0
 52
90.0
 71
2
 49
0.5
 62
256
  6
BYLAYER
 49
-0.5
 62
256
  6
BYLAYER
  0
MLEADERSTYLE
  5
2C
102
{ACAD_REACTORS
330
F
102
}
330
F
100
AcDbMLeaderStyle
179
2
170
2
171
1
172
0
 90
2
 40
0.0
 41
0.0
173
1
 91
-1056964608
 92
-2
290
1
 42
2.0
291
1
 43
8.0
  3
Standard
 44
4.0
300

342
29
174
1
175
1
176
0
178
1
 93
-1056964608
 45
4.0
292
0
297
0
 46
4.0
 94
-1056964608
 47
1.0
 49
1.0
140
1.0
294
1
141
0.0
177
0
142
1.0
295
0
296
0
143
3.75
271
0
272
9
273
9
  0
DICTIONARY
  5
2D
330
A
100
AcDbDictionary
280
1
281
1
  3
CREATED_BY_EZDXF
350
2E
  3
WRITTEN_BY_EZDXF
350
309
  0
DICTIONARYVAR
  5
2E
330
2D
100
DictionaryVariables
280
0
  1
1.4.3 @ 2026-07-03T05:12:12.375887+00:00
  0
DICTIONARYVAR
  5
309
330
2D
100
DictionaryVariables
280
0
  1
1.4.3 @ 2026-07-03T05:12:12.409491+00:00
  0
ENDSEC
  0
EOF
