  0
SECTION
  2
HEADER
  9
$ACADVER
  1
AC1024
  9
$ACADMAINTVER
 70
6
  9
$DWGCODEPAGE
  3
ANSI_1252
  9
$LASTSAVEDBY
  1
ezdxf
  9
$INSBASE
 10
0.0
 20
0.0
 30
0.0
  9
$EXTMIN
 10
1e+20
 20
1e+20
 30
1e+20
  9
$EXTMAX
 10
-1e+20
 20
-1e+20
 30
-1e+20
  9
$LIMMIN
 10
0.0
 20
0.0
  9
$LIMMAX
 10
420.0
 20
297.0
  9
$ORTHOMODE
 70
0
  9
$REGENMODE
 70
1
  9
$FILLMODE
 70
1
  9
$QTEXTMODE
 70
0
  9
$MIRRTEXT
 70
1
  9
$LTSCALE
 40
1.0
  9
$ATTMODE
 70
1
  9
$TEXTSIZE
 40
2.5
  9
$TRACEWID
 40
1.0
  9
$TEXTSTYLE
  7
Standard
  9
$CLAYER
  8
0
  9
$CELTYPE
  6
ByLayer
  9
$CECOLOR
 62
256
  9
$CELTSCALE
 40
1.0
  9
$DISPSILH
 70
0
  9
$DIMSCALE
 40
1.0
  9
$DIMASZ
 40
2.5
  9
$DIMEXO
 40
0.625
  9
$DIMDLI
 40
3.75
  9
$DIMRND
 40
0.0
  9
$DIMDLE
 40
0.0
  9
$DIMEXE
 40
1.25
  9
$DIMTP
 40
0.0
  9
$DIMTM
 40
0.0
  9
$DIMTXT
 40
2.5
  9
$DIMCEN
 40
2.5
  9
$DIMTSZ
 40
0.0
  9
$DIMTOL
 70
0
  9
$DIMLIM
 70
0
  9
$DIMTIH
 70
0
  9
$DIMTOH
 70
0
  9
$DIMSE1
 70
0
  9
$DIMSE2
 70
0
  9
$DIMTAD
 70
1
  9
$DIMZIN
 70
8
  9
$DIMBLK
  1

  9
$DIMASO
 70
1
  9
$DIMSHO
 70
1
  9
$DIMPOST
  1

  9
$DIMAPOST
  1

  9
$DIMALT
 70
0
  9
$DIMALTD
 70
3
  9
$DIMALTF
 40
0.03937007874
  9
$DIMLFAC
 40
1.0
  9
$DIMTOFL
 70
1
  9
$DIMTVP
 40
0.0
  9
$DIMTIX
 70
0
  9
$DIMSOXD
 70
0
  9
$DIMSAH
 70
0
  9
$DIMBLK1
  1

  9
$DIMBLK2
  1

  9
$DIMSTYLE
  2
ISO-25
  9
$DIMCLRD
 70
0
  9
$DIMCLRE
 70
0
  9
$DIMCLRT
 70
0
  9
$DIMTFAC
 40
1.0
  9
$DIMGAP
 40
0.625
  9
$DIMJUST
 70
0
  9
$DIMSD1
 70
0
  9
$DIMSD2
 70
0
  9
$DIMTOLJ
 70
0
  9
$DIMTZIN
 70
8
  9
$DIMALTZ
 70
0
  9
$DIMALTTZ
 70
0
  9
$DIMUPT
 70
0
  9
$DIMDEC
 70
2
  9
$DIMTDEC
 70
2
  9
$DIMALTU
 70
2
  9
$DIMALTTD
 70
3
  9
$DIMTXSTY
  7
Standard
  9
$DIMAUNIT
 70
0
  9
$DIMADEC
 70
0
  9
$DIMALTRND
 40
0.0
  9
$DIMAZIN
 70
0
  9
$DIMDSEP
 70
44
  9
$DIMATFIT
 70
3
  9
$DIMFRAC
 70
0
  9
$DIMLDRBLK
  1

  9
$DIMLUNIT
 70
2
  9
$DIMLWD
 70
-2
  9
$DIMLWE
 70
-2
  9
$DIMTMOVE
 70
0
  9
$DIMFXL
 40
1.0
  9
$DIMFXLON
 70
0
  9
$DIMJOGANG
 40
0.785398163397
  9
$DIMTFILL
 70
0
  9
$DIMTFILLCLR
 70
0
  9
$DIMARCSYM
 70
0
  9
$DIMLTYPE
  6

  9
$DIMLTEX1
  6

  9
$DIMLTEX2
  6

  9
$DIMTXTDIRECTION
 70
0
  9
$LUNITS
 70
2
  9
$LUPREC
 70
4
  9
$SKETCHINC
 40
1.0
  9
$FILLETRAD
 40
10.0
  9
$AUNITS
 70
0
  9
$AUPREC
 70
2
  9
$MENU
  1
.
  9
$ELEVATION
 40
0.0
  9
$PELEVATION
 40
0.0
  9
$THICKNESS
 40
0.0
  9
$LIMCHECK
 70
0
  9
$CHAMFERA
 40
0.0
  9
$CHAMFERB
 40
0.0
  9
$CHAMFERC
 40
0.0
  9
$CHAMFERD
 40
0.0
  9
$SKPOLY
 70
0
  9
$TDCREATE
 40
2461251.5116550927
  9
$TDUCREATE
 40
2458532.153996898
  9
$TDUPDATE
 40
2461251.5116550927
  9
$TDUUPDATE
 40
2458532.1544311
  9
$TDINDWG
 40
0.0
  9
$TDUSRTIMER
 40
0.0
  9
$USRTIMER
 70
1
  9
$ANGBASE
 50
0.0
  9
$ANGDIR
 70
0
  9
$PDMODE
 70
0
  9
$PDSIZE
 40
0.0
  9
$PLINEWID
 40
0.0
  9
$SPLFRAME
 70
0
  9
$SPLINETYPE
 70
6
  9
$SPLINESEGS
 70
8
  9
$HANDSEED
  5
28B
  9
$SURFTAB1
 70
6
  9
$SURFTAB2
 70
6
  9
$SURFTYPE
 70
6
  9
$SURFU
 70
6
  9
$SURFV
 70
6
  9
$UCSBASE
  2

  9
$UCSNAME
  2

  9
$UCSORG
 10
0.0
 20
0.0
 30
0.0
  9
$UCSXDIR
 10
1.0
 20
0.0
 30
0.0
  9
$UCSYDIR
 10
0.0
 20
1.0
 30
0.0
  9
$UCSORTHOREF
  2

  9
$UCSORTHOVIEW
 70
0
  9
$UCSORGTOP
 10
0.0
 20
0.0
 30
0.0
  9
$UCSORGBOTTOM
 10
0.0
 20
0.0
 30
0.0
  9
$UCSORGLEFT
 10
0.0
 20
0.0
 30
0.0
  9
$UCSORGRIGHT
 10
0.0
 20
0.0
 30
0.0
  9
$UCSORGFRONT
 10
0.0
 20
0.0
 30
0.0
  9
$UCSORGBACK
 10
0.0
 20
0.0
 30
0.0
  9
$PUCSBASE
  2

  9
$PUCSNAME
  2

  9
$PUCSORG
 10
0.0
 20
0.0
 30
0.0
  9
$PUCSXDIR
 10
1.0
 20
0.0
 30
0.0
  9
$PUCSYDIR
 10
0.0
 20
1.0
 30
0.0
  9
$PUCSORTHOREF
  2

  9
$PUCSORTHOVIEW
 70
0
  9
$PUCSORGTOP
 10
0.0
 20
0.0
 30
0.0
  9
$PUCSORGBOTTOM
 10
0.0
 20
0.0
 30
0.0
  9
$PUCSORGLEFT
 10
0.0
 20
0.0
 30
0.0
  9
$PUCSORGRIGHT
 10
0.0
 20
0.0
 30
0.0
  9
$PUCSORGFRONT
 10
0.0
 20
0.0
 30
0.0
  9
$PUCSORGBACK
 10
0.0
 20
0.0
 30
0.0
  9
$USERI1
 70
0
  9
$USERI2
 70
0
  9
$USERI3
 70
0
  9
$USERI4
 70
0
  9
$USERI5
 70
0
  9
$USERR1
 40
0.0
  9
$USERR2
 40
0.0
  9
$USERR3
 40
0.0
  9
$USERR4
 40
0.0
  9
$USERR5
 40
0.0
  9
$WORLDVIEW
 70
1
  9
$SHADEDGE
 70
3
  9
$SHADEDIF
 70
70
  9
$TILEMODE
 70
1
  9
$MAXACTVP
 70
64
  9
$PINSBASE
 10
0.0
 20
0.0
 30
0.0
  9
$PLIMCHECK
 70
0
  9
$PEXTMIN
 10
1e+20
 20
1e+20
 30
1e+20
  9
$PEXTMAX
 10
-1e+20
 20
-1e+20
 30
-1e+20
  9
$PLIMMIN
 10
0.0
 20
0.0
  9
$PLIMMAX
 10
420.0
 20
297.0
  9
$UNITMODE
 70
0
  9
$VISRETAIN
 70
1
  9
$PLINEGEN
 70
0
  9
$PSLTSCALE
 70
1
  9
$TREEDEPTH
 70
3020
  9
$CMLSTYLE
  2
Standard
  9
$CMLJUST
 70
0
  9
$CMLSCALE
 40
20.0
  9
$PROXYGRAPHICS
 70
1
  9
$MEASUREMENT
 70
1
  9
$CELWEIGHT
370
-1
  9
$ENDCAPS
280
0
  9
$JOINSTYLE
280
0
  9
$LWDISPLAY
290
0
  9
$INSUNITS
 70
6
  9
$HYPERLINKBASE
  1

  9
$STYLESHEET
  1

  9
$XEDIT
290
1
  9
$CEPSNTYPE
380
0
  9
$PSTYLEMODE
290
1
  9
$FINGERPRINTGUID
  2
{D043732C-6499-4CCC-A769-463420DEACF7}
  9
$VERSIONGUID
  2
{69B497A5-1B3B-49DA-B2E6-62B31CF34B6B}
  9
$EXTNAMES
290
1
  9
$PSVPSCALE
 40
0.0
  9
$OLESTARTUP
290
0
  9
$SORTENTS
280
127
  9
$INDEXCTL
280
0
  9
$HIDETEXT
280
1
  9
$XCLIPFRAME
280
1
  9
$HALOGAP
280
0
  9
$OBSCOLOR
 70
257
  9
$OBSLTYPE
280
0
  9
$INTERSECTIONDISPLAY
280
0
  9
$INTERSECTIONCOLOR
 70
257
  9
$DIMASSOC
280
2
  9
$PROJECTNAME
  1

  9
$CAMERADISPLAY
290
0
  9
$LENSLENGTH
 40
50.0
  9
$CAMERAHEIGHT
 40
0.0
  9
$STEPSPERSEC
 40
24.0
  9
$STEPSIZE
 40
100.0
  9
$3DDWFPREC
 40
2.0
  9
$PSOLWIDTH
 40
0.005
  9
$PSOLHEIGHT
 40
0.08
  9
$LOFTANG1
 40
1.570796326795
  9
$LOFTANG2
 40
1.570796326795
  9
$LOFTMAG1
 40
0.0
  9
$LOFTMAG2
 40
0.0
  9
$LOFTPARAM
 70
7
  9
$LOFTNORMALS
280
1
  9
$LATITUDE
 40
37.795
  9
$LONGITUDE
 40
-122.394
  9
$NORTHDIRECTION
 40
0.0
  9
$TIMEZONE
 70
-8000
  9
$LIGHTGLYPHDISPLAY
280
1
  9
$TILEMODELIGHTSYNCH
280
1
  9
$CMATERIAL
347
20
  9
$SOLIDHIST
280
0
  9
$SHOWHIST
280
1
  9
$DWFFRAME
280
2
  9
$DGNFRAME
280
2
  9
$REALWORLDSCALE
290
1
  9
$INTERFERECOLOR
 62
256
  9
$CSHADOW
280
0
  9
$SHADOWPLANELOCATION
 40
0.0
  0
ENDSEC
  0
SECTION
  2
CLASSES
  0
CLASS
  1
ACDBDICTIONARYWDFLT
  2
AcDbDictionaryWithDefault
  3
ObjectDBX Classes
 90
0
 91
0
280
0
281
0
  0
CLASS
  1
SUN
  2
AcDbSun
  3
SCENEOE
 90
1153
 91
0
280
0
281
0
  0
CLASS
  1
VISUALSTYLE
  2
AcDbVisualStyle
  3
ObjectDBX Classes
 90
4095
 91
0
280
0
281
0
  0
CLASS
  1
MATERIAL
  2
AcDbMaterial
  3
ObjectDBX Classes
 90
1153
 91
0
280
0
281
0
  0
CLASS
  1
SCALE
  2
AcDbScale
  3
ObjectDBX Classes
 90
1153
 91
0
280
0
281
0
  0
CLASS
  1
TABLESTYLE
  2
AcDbTableStyle
  3
ObjectDBX Classes
 90
4095
 91
0
280
0
281
0
  0
CLASS
  1
MLEADERSTYLE
  2
AcDbMLeaderStyle
  3
ACDB_MLEADERSTYLE_CLASS
 90
4095
 91
0
280
0
281
0
  0
CLASS
  1
DICTIONARYVAR
  2
AcDbDictionaryVar
  3
ObjectDBX Classes
 90
0
 91
0
280
0
281
0
  0
CLASS
  1
CELLSTYLEMAP
  2
AcDbCellStyleMap
  3
ObjectDBX Classes
 90
1152
 91
0
280
0
281
0
  0
CLASS
  1
MENTALRAYRENDERSETTINGS
  2
AcDbMentalRayRenderSettings
  3
SCENEOE
 90
1024
 91
0
280
0
281
0
  0
CLASS
  1
ACDBDETAILVIEWSTYLE
  2
AcDbDetailViewStyle
  3
ObjectDBX Classes
 90
1025
 91
0
280
0
281
0
  0
CLASS
  1
ACDBSECTIONVIEWSTYLE
  2
AcDbSectionViewStyle
  3
ObjectDBX Classes
 90
1025
 91
0
280
0
281
0
  0
CLASS
  1
RASTERVARIABLES
  2
AcDbRasterVariables
  3
ISM
 90
0
 91
0
280
0
281
0
  0
CLASS
  1
ACDBPLACEHOLDER
  2
AcDbPlaceHolder
  3
ObjectDBX Classes
 90
0
 91
0
280
0
281
0
  0
CLASS
  1
LAYOUT
  2
AcDbLayout
  3
ObjectDBX Classes
 90
0
 91
0
280
0
281
0
  0
ENDSEC
  0
SECTION
  2
TABLES
  0
TABLE
  2
VPORT
  5
8
330
0
100
AcDbSymbolTable
 70
1
  0
VPORT
  5
23
330
8
100
AcDbSymbolTableRecord
100
AcDbViewportTableRecord
  2
*Active
 70
0
 10
0.0
 20
0.0
 11
1.0
 21
1.0
 12
0.0
 22
0.0
 13
0.0
 23
0.0
 14
0.5
 24
0.5
 15
0.5
 25
0.5
 16
0.0
 26
0.0
 36
1.0
 17
0.0
 27
0.0
 37
0.0
 40
1000.0
 41
1.34
 42
50.0
 43
0.0
 44
0.0
 50
0.0
 51
0.0
 71
0
 72
1000
 73
1
 74
3
 75
0
 76
0
 77
0
 78
0
281
0
 65
0
146
0.0
  0
ENDTAB
  0
TABLE
  2
LTYPE
  5
2
330
0
100
AcDbSymbolTable
 70
3
  0
LTYPE
  5
24
330
2
100
AcDbSymbolTableRecord
100
AcDbLinetypeTableRecord
  2
ByBlock
 70
0
  3

 72
65
 73
0
 40
0.0
  0
LTYPE
  5
25
330
2
100
AcDbSymbolTableRecord
100
AcDbLinetypeTableRecord
  2
ByLayer
 70
0
  3

 72
65
 73
0
 40
0.0
  0
LTYPE
  5
26
330
2
100
AcDbSymbolTableRecord
100
AcDbLinetypeTableRecord
  2
Continuous
 70
0
  3

 72
65
 73
0
 40
0.0
  0
ENDTAB
  0
TABLE
  2
LAYER
  5
1
330
0
100
AcDbSymbolTable
 70
17
  0
LAYER
  5
27
330
1
100
AcDbSymbolTableRecord
100
AcDbLayerTableRecord
  2
0
 70
0
 62
7
  6
Continuous
370
-3
390
13
347
21
  0
LAYER
  5
28
330
1
100
AcDbSymbolTableRecord
100
AcDbLayerTableRecord
  2
Defpoints
 70
0
 62
7
  6
Continuous
290
0
370
-3
390
13
347
21
  0
LAYER
  5
2F
330
1
100
AcDbSymbolTableRecord
100
AcDbLayerTableRecord
  2
WALL_REF
 70
0
 62
1
  6
Continuous
370
-3
390
13
347
21
  0
LAYER
  5
30
330
1
100
AcDbSymbolTableRecord
100
AcDbLayerTableRecord
  2
WALING
 70
0
 62
6
  6
Continuous
370
-3
390
13
347
21
  0
LAYER
  5
31
330
1
100
AcDbSymbolTableRecord
100
AcDbLayerTableRecord
  2
STRUT
 70
0
 62
4
  6
Continuous
370
-3
390
13
347
21
  0
LAYER
  5
32
330
1
100
AcDbSymbolTableRecord
100
AcDbLayerTableRecord
  2
CORNER
 70
0
 62
2
  6
Continuous
370
-3
390
13
347
21
  0
LAYER
  5
33
330
1
100
AcDbSymbolTableRecord
100
AcDbLayerTableRecord
  2
TIE
 70
0
 62
8
  6
Continuous
370
-3
390
13
347
21
  0
LAYER
  5
34
330
1
100
AcDbSymbolTableRecord
100
AcDbLayerTableRecord
  2
TRUSS_WEB
 70
0
 62
30
  6
Continuous
370
-3
390
13
347
21
  0
LAYER
  5
35
330
1
100
AcDbSymbolTableRecord
100
AcDbLayerTableRecord
  2
RING_STRUT
 70
0
 62
140
  6
Continuous
370
-3
390
13
347
21
  0
LAYER
  5
36
330
1
100
AcDbSymbolTableRecord
100
AcDbLayerTableRecord
  2
RADIAL_STRUT
 70
0
 62
5
  6
Continuous
370
-3
390
13
347
21
  0
LAYER
  5
37
330
1
100
AcDbSymbolTableRecord
100
AcDbLayerTableRecord
  2
PILLAR
 70
0
 62
7
  6
Continuous
370
-3
390
13
347
21
  0
LAYER
  5
38
330
1
100
AcDbSymbolTableRecord
100
AcDbLayerTableRecord
  2
STRUT_OUTLINE
 70
0
 62
9
  6
Continuous
370
-3
390
13
347
21
  0
LAYER
  5
39
330
1
100
AcDbSymbolTableRecord
100
AcDbLayerTableRecord
  2
WALING_OUTLINE
 70
0
 62
213
  6
Continuous
370
-3
390
13
347
21
  0
LAYER
  5
3A
330
1
100
AcDbSymbolTableRecord
100
AcDbLayerTableRecord
  2
TRUSS_CHORD
 70
0
 62
3
  6
Continuous
370
-3
390
13
347
21
  0
LAYER
  5
3B
330
1
100
AcDbSymbolTableRecord
100
AcDbLayerTableRecord
  2
DEBUG_NODE
 70
0
 62
1
  6
Continuous
370
-3
390
13
347
21
  0
LAYER
  5
3C
330
1
100
AcDbSymbolTableRecord
100
AcDbLayerTableRecord
  2
DEBUG_ISSUE
 70
0
 62
1
  6
Continuous
370
-3
390
13
347
21
  0
LAYER
  5
3D
330
1
100
AcDbSymbolTableRecord
100
AcDbLayerTableRecord
  2
CORE_PROTECTION
 70
0
 62
1
  6
Continuous
370
-3
390
13
347
21
  0
ENDTAB
  0
TABLE
  2
STYLE
  5
5
330
0
100
AcDbSymbolTable
 70
1
  0
STYLE
  5
29
330
5
100
AcDbSymbolTableRecord
100
AcDbTextStyleTableRecord
  2
Standard
 70
0
 40
0.0
 41
1.0
 50
0.0
 71
0
 42
2.5
  3
txt
  4

  0
ENDTAB
  0
TABLE
  2
VIEW
  5
7
330
0
100
AcDbSymbolTable
 70
0
  0
ENDTAB
  0
TABLE
  2
UCS
  5
6
330
0
100
AcDbSymbolTable
 70
0
  0
ENDTAB
  0
TABLE
  2
APPID
  5
3
330
0
100
AcDbSymbolTable
 70
3
  0
APPID
  5
2A
330
3
100
AcDbSymbolTableRecord
100
AcDbRegAppTableRecord
  2
ACAD
 70
0
  0
APPID
  5
288
330
3
100
AcDbSymbolTableRecord
100
AcDbRegAppTableRecord
  2
HATCHBACKGROUNDCOLOR
 70
0
  0
APPID
  5
289
330
3
100
AcDbSymbolTableRecord
100
AcDbRegAppTableRecord
  2
EZDXF
 70
0
  0
ENDTAB
  0
TABLE
  2
DIMSTYLE
  5
4
330
0
100
AcDbSymbolTable
 70
1
100
AcDbDimStyleTable
  0
DIMSTYLE
105
2B
330
4
100
AcDbSymbolTableRecord
100
AcDbDimStyleTableRecord
  2
Standard
 70
0
 40
1.0
 41
2.5
 42
0.625
 43
3.75
 44
1.25
 45
0.0
 46
0.0
 47
0.0
 48
0.0
 49
2.5
140
2.5
141
2.5
142
0.0
143
0.03937007874
144
1.0
145
0.0
146
1.0
147
0.625
148
0.0
 69
0
 70
0
 71
0
 72
0
 73
0
 74
0
 75
0
 76
0
 77
1
 78
8
 79
3
170
0
171
3
172
1
173
0
174
0
175
0
176
0
177
0
178
0
179
2
271
2
272
2
273
2
274
3
275
0
276
0
277
2
278
44
279
0
280
0
281
0
282
0
283
0
284
8
285
0
286
0
288
0
289
3
290
0
371
-2
372
-2
  0
ENDTAB
  0
TABLE
  2
BLOCK_RECORD
  5
9
330
0
100
AcDbSymbolTable
 70
2
  0
BLOCK_RECORD
  5
17
330
9
100
AcDbSymbolTableRecord
100
AcDbBlockTableRecord
  2
*Model_Space
340
1A
 70
0
280
1
281
0
  0
BLOCK_RECORD
  5
1B
330
9
100
AcDbSymbolTableRecord
100
AcDbBlockTableRecord
  2
*Paper_Space
340
1E
 70
0
280
1
281
0
  0
ENDTAB
  0
ENDSEC
  0
SECTION
  2
BLOCKS
  0
BLOCK
  5
18
330
17
100
AcDbEntity
  8
0
100
AcDbBlockBegin
  2
*Model_Space
 70
0
 10
0.0
 20
0.0
 30
0.0
  3
*Model_Space
  1

  0
ENDBLK
  5
19
330
17
100
AcDbEntity
  8
0
100
AcDbBlockEnd
  0
BLOCK
  5
1C
330
1B
100
AcDbEntity
  8
0
100
AcDbBlockBegin
  2
*Paper_Space
 70
0
 10
0.0
 20
0.0
 30
0.0
  3
*Paper_Space
  1

  0
ENDBLK
  5
1D
330
1B
100
AcDbEntity
  8
0
100
AcDbBlockEnd
  0
ENDSEC
  0
SECTION
  2
ENTITIES
  0
LWPOLYLINE
  5
3E
330
17
100
AcDbEntity
  8
WALL_REF
100
AcDbPolyline
 90
4
 70
1
 10
0.0
 20
0.0
 10
120.0
 20
0.0
 10
120.0
 20
80.0
 10
0.0
 20
80.0
  0
LWPOLYLINE
  5
3F
330
17
100
AcDbEntity
  8
TRUSS_CHORD
100
AcDbPolyline
 90
2
 70
0
 10
5.0
 20
26.0
 10
5.0
 20
36.0
  0
LWPOLYLINE
  5
40
330
17
100
AcDbEntity
  8
TRUSS_CHORD
100
AcDbPolyline
 90
2
 70
0
 10
8.6
 20
26.0
 10
8.6
 20
36.0
  0
LWPOLYLINE
  5
41
330
17
100
AcDbEntity
  8
TRUSS_CHORD
100
AcDbPolyline
 90
2
 70
0
 10
5.0
 20
36.0
 10
5.0
 20
44.0
  0
LWPOLYLINE
  5
42
330
17
100
AcDbEntity
  8
TRUSS_CHORD
100
AcDbPolyline
 90
2
 70
0
 10
8.6
 20
36.0
 10
8.6
 20
44.0
  0
LWPOLYLINE
  5
43
330
17
100
AcDbEntity
  8
TRUSS_CHORD
100
AcDbPolyline
 90
2
 70
0
 10
5.0
 20
44.0
 10
5.0
 20
54.0
  0
LWPOLYLINE
  5
44
330
17
100
AcDbEntity
  8
TRUSS_CHORD
100
AcDbPolyline
 90
2
 70
0
 10
8.6
 20
44.0
 10
8.6
 20
54.0
  0
LWPOLYLINE
  5
45
330
17
100
AcDbEntity
  8
TRUSS_CHORD
100
AcDbPolyline
 90
2
 70
0
 10
37.666667
 20
75.0
 10
45.666667
 20
75.0
  0
LWPOLYLINE
  5
46
330
17
100
AcDbEntity
  8
TRUSS_CHORD
100
AcDbPolyline
 90
2
 70
0
 10
37.666667
 20
71.4
 10
45.666667
 20
71.4
  0
LWPOLYLINE
  5
47
330
17
100
AcDbEntity
  8
TRUSS_CHORD
100
AcDbPolyline
 90
2
 70
0
 10
74.333333
 20
75.0
 10
82.333333
 20
75.0
  0
LWPOLYLINE
  5
48
330
17
100
AcDbEntity
  8
TRUSS_CHORD
100
AcDbPolyline
 90
2
 70
0
 10
74.333333
 20
71.4
 10
82.333333
 20
71.4
  0
LWPOLYLINE
  5
49
330
17
100
AcDbEntity
  8
TRUSS_CHORD
100
AcDbPolyline
 90
2
 70
0
 10
115.0
 20
54.0
 10
115.0
 20
44.0
  0
LWPOLYLINE
  5
4A
330
17
100
AcDbEntity
  8
TRUSS_CHORD
100
AcDbPolyline
 90
2
 70
0
 10
111.4
 20
54.0
 10
111.4
 20
44.0
  0
LWPOLYLINE
  5
4B
330
17
100
AcDbEntity
  8
TRUSS_CHORD
100
AcDbPolyline
 90
2
 70
0
 10
115.0
 20
44.0
 10
115.0
 20
36.0
  0
LWPOLYLINE
  5
4C
330
17
100
AcDbEntity
  8
TRUSS_CHORD
100
AcDbPolyline
 90
2
 70
0
 10
111.4
 20
44.0
 10
111.4
 20
36.0
  0
LWPOLYLINE
  5
4D
330
17
100
AcDbEntity
  8
TRUSS_CHORD
100
AcDbPolyline
 90
2
 70
0
 10
115.0
 20
36.0
 10
115.0
 20
26.0
  0
LWPOLYLINE
  5
4E
330
17
100
AcDbEntity
  8
TRUSS_CHORD
100
AcDbPolyline
 90
2
 70
0
 10
111.4
 20
36.0
 10
111.4
 20
26.0
  0
LWPOLYLINE
  5
4F
330
17
100
AcDbEntity
  8
TRUSS_CHORD
100
AcDbPolyline
 90
2
 70
0
 10
82.333333
 20
5.0
 10
74.333333
 20
5.0
  0
LWPOLYLINE
  5
50
330
17
100
AcDbEntity
  8
TRUSS_CHORD
100
AcDbPolyline
 90
2
 70
0
 10
82.333333
 20
8.6
 10
74.333333
 20
8.6
  0
LWPOLYLINE
  5
51
330
17
100
AcDbEntity
  8
TRUSS_CHORD
100
AcDbPolyline
 90
2
 70
0
 10
45.666667
 20
5.0
 10
37.666667
 20
5.0
  0
LWPOLYLINE
  5
52
330
17
100
AcDbEntity
  8
TRUSS_CHORD
100
AcDbPolyline
 90
2
 70
0
 10
45.666667
 20
8.6
 10
37.666667
 20
8.6
  0
LWPOLYLINE
  5
53
330
17
100
AcDbEntity
  8
TIE
100
AcDbPolyline
 90
2
 70
0
 10
37.666667
 20
16.666667
 10
45.666667
 20
16.666667
  0
LWPOLYLINE
  5
54
330
17
100
AcDbEntity
  8
TIE
100
AcDbPolyline
 90
2
 70
0
 10
37.666667
 20
28.333333
 10
45.666667
 20
28.333333
  0
LWPOLYLINE
  5
55
330
17
100
AcDbEntity
  8
TIE
100
AcDbPolyline
 90
2
 70
0
 10
37.666667
 20
40.0
 10
45.666667
 20
40.0
  0
LWPOLYLINE
  5
56
330
17
100
AcDbEntity
  8
TIE
100
AcDbPolyline
 90
2
 70
0
 10
37.666667
 20
51.666667
 10
45.666667
 20
51.666667
  0
LWPOLYLINE
  5
57
330
17
100
AcDbEntity
  8
TIE
100
AcDbPolyline
 90
2
 70
0
 10
37.666667
 20
63.333333
 10
45.666667
 20
63.333333
  0
LWPOLYLINE
  5
58
330
17
100
AcDbEntity
  8
TIE
100
AcDbPolyline
 90
2
 70
0
 10
74.333333
 20
16.666667
 10
82.333333
 20
16.666667
  0
LWPOLYLINE
  5
59
330
17
100
AcDbEntity
  8
TIE
100
AcDbPolyline
 90
2
 70
0
 10
74.333333
 20
28.333333
 10
82.333333
 20
28.333333
  0
LWPOLYLINE
  5
5A
330
17
100
AcDbEntity
  8
TIE
100
AcDbPolyline
 90
2
 70
0
 10
74.333333
 20
40.0
 10
82.333333
 20
40.0
  0
LWPOLYLINE
  5
5B
330
17
100
AcDbEntity
  8
TIE
100
AcDbPolyline
 90
2
 70
0
 10
74.333333
 20
51.666667
 10
82.333333
 20
51.666667
  0
LWPOLYLINE
  5
5C
330
17
100
AcDbEntity
  8
TIE
100
AcDbPolyline
 90
2
 70
0
 10
74.333333
 20
63.333333
 10
82.333333
 20
63.333333
  0
LWPOLYLINE
  5
5D
330
17
100
AcDbEntity
  8
TIE
100
AcDbPolyline
 90
2
 70
0
 10
15.888889
 20
36.0
 10
15.888889
 20
44.0
  0
LWPOLYLINE
  5
5E
330
17
100
AcDbEntity
  8
TIE
100
AcDbPolyline
 90
2
 70
0
 10
26.777778
 20
36.0
 10
26.777778
 20
44.0
  0
LWPOLYLINE
  5
5F
330
17
100
AcDbEntity
  8
TIE
100
AcDbPolyline
 90
2
 70
0
 10
55.222222
 20
36.0
 10
55.222222
 20
44.0
  0
LWPOLYLINE
  5
60
330
17
100
AcDbEntity
  8
TIE
100
AcDbPolyline
 90
2
 70
0
 10
64.777778
 20
36.0
 10
64.777778
 20
44.0
  0
LWPOLYLINE
  5
61
330
17
100
AcDbEntity
  8
TIE
100
AcDbPolyline
 90
2
 70
0
 10
93.222222
 20
36.0
 10
93.222222
 20
44.0
  0
LWPOLYLINE
  5
62
330
17
100
AcDbEntity
  8
TIE
100
AcDbPolyline
 90
2
 70
0
 10
104.111111
 20
36.0
 10
104.111111
 20
44.0
  0
LWPOLYLINE
  5
63
330
17
100
AcDbEntity
  8
WALING
100
AcDbPolyline
 90
2
 70
1
 10
5.0
 20
5.0
 10
5.0
 20
26.0
  0
LWPOLYLINE
  5
64
330
17
100
AcDbEntity
  8
WALING
100
AcDbPolyline
 90
2
 70
1
 10
5.0
 20
26.0
 10
5.0
 20
36.0
  0
LWPOLYLINE
  5
65
330
17
100
AcDbEntity
  8
WALING
100
AcDbPolyline
 90
2
 70
1
 10
5.0
 20
36.0
 10
5.0
 20
44.0
  0
LWPOLYLINE
  5
66
330
17
100
AcDbEntity
  8
WALING
100
AcDbPolyline
 90
2
 70
1
 10
5.0
 20
44.0
 10
5.0
 20
54.0
  0
LWPOLYLINE
  5
67
330
17
100
AcDbEntity
  8
WALING
100
AcDbPolyline
 90
3
 70
1
 10
5.0
 20
54.0
 10
5.0
 20
75.0
 10
26.0
 20
75.0
  0
LWPOLYLINE
  5
68
330
17
100
AcDbEntity
  8
WALING
100
AcDbPolyline
 90
2
 70
1
 10
26.0
 20
75.0
 10
37.666667000000004
 20
75.0
  0
LWPOLYLINE
  5
69
330
17
100
AcDbEntity
  8
WALING
100
AcDbPolyline
 90
2
 70
1
 10
37.666667000000004
 20
75.0
 10
45.666667000000004
 20
75.0
  0
LWPOLYLINE
  5
6A
330
17
100
AcDbEntity
  8
WALING
100
AcDbPolyline
 90
2
 70
1
 10
45.666667000000004
 20
75.0
 10
55.222222
 20
75.0
  0
LWPOLYLINE
  5
6B
330
17
100
AcDbEntity
  8
WALING
100
AcDbPolyline
 90
2
 70
1
 10
55.222222
 20
75.0
 10
64.77777800000001
 20
75.0
  0
LWPOLYLINE
  5
6C
330
17
100
AcDbEntity
  8
WALING
100
AcDbPolyline
 90
2
 70
1
 10
64.77777800000001
 20
75.0
 10
74.33333300000001
 20
75.0
  0
LWPOLYLINE
  5
6D
330
17
100
AcDbEntity
  8
WALING
100
AcDbPolyline
 90
2
 70
1
 10
74.33333300000001
 20
75.0
 10
82.33333300000001
 20
75.0
  0
LWPOLYLINE
  5
6E
330
17
100
AcDbEntity
  8
WALING
100
AcDbPolyline
 90
2
 70
1
 10
82.33333300000001
 20
75.0
 10
94.0
 20
75.0
  0
LWPOLYLINE
  5
6F
330
17
100
AcDbEntity
  8
WALING
100
AcDbPolyline
 90
3
 70
1
 10
94.0
 20
75.0
 10
115.0
 20
75.0
 10
115.0
 20
54.0
  0
LWPOLYLINE
  5
70
330
17
100
AcDbEntity
  8
WALING
100
AcDbPolyline
 90
2
 70
1
 10
115.0
 20
54.0
 10
115.0
 20
44.0
  0
LWPOLYLINE
  5
71
330
17
100
AcDbEntity
  8
WALING
100
AcDbPolyline
 90
2
 70
1
 10
115.0
 20
44.0
 10
115.0
 20
36.0
  0
LWPOLYLINE
  5
72
330
17
100
AcDbEntity
  8
WALING
100
AcDbPolyline
 90
2
 70
1
 10
115.0
 20
36.0
 10
115.0
 20
26.0
  0
LWPOLYLINE
  5
73
330
17
100
AcDbEntity
  8
WALING
100
AcDbPolyline
 90
3
 70
1
 10
115.0
 20
26.0
 10
115.0
 20
5.0
 10
94.0
 20
5.0
  0
LWPOLYLINE
  5
74
330
17
100
AcDbEntity
  8
WALING
100
AcDbPolyline
 90
2
 70
1
 10
94.0
 20
5.0
 10
82.33333299999998
 20
5.0
  0
LWPOLYLINE
  5
75
330
17
100
AcDbEntity
  8
WALING
100
AcDbPolyline
 90
2
 70
1
 10
82.33333299999998
 20
5.0
 10
74.33333299999998
 20
5.0
  0
LWPOLYLINE
  5
76
330
17
100
AcDbEntity
  8
WALING
100
AcDbPolyline
 90
2
 70
1
 10
74.33333299999998
 20
5.0
 10
64.77777800000001
 20
5.0
  0
LWPOLYLINE
  5
77
330
17
100
AcDbEntity
  8
WALING
100
AcDbPolyline
 90
2
 70
1
 10
64.77777800000001
 20
5.0
 10
55.22222199999998
 20
5.0
  0
LWPOLYLINE
  5
78
330
17
100
AcDbEntity
  8
WALING
100
AcDbPolyline
 90
2
 70
1
 10
55.22222199999998
 20
5.0
 10
45.66666700000002
 20
5.0
  0
LWPOLYLINE
  5
79
330
17
100
AcDbEntity
  8
WALING
100
AcDbPolyline
 90
2
 70
1
 10
45.66666700000002
 20
5.0
 10
37.66666700000002
 20
5.0
  0
LWPOLYLINE
  5
7A
330
17
100
AcDbEntity
  8
WALING
100
AcDbPolyline
 90
2
 70
1
 10
37.66666700000002
 20
5.0
 10
26.0
 20
5.0
  0
LWPOLYLINE
  5
7B
330
17
100
AcDbEntity
  8
WALING
100
AcDbPolyline
 90
2
 70
1
 10
26.0
 20
5.0
 10
5.0
 20
5.0
  0
LWPOLYLINE
  5
7C
330
17
100
AcDbEntity
  8
STRUT
100
AcDbPolyline
 90
2
 70
0
 10
37.666667
 20
5.0
 10
37.666667
 20
8.6
  0
LWPOLYLINE
  5
7D
330
17
100
AcDbEntity
  8
STRUT
100
AcDbPolyline
 90
2
 70
0
 10
37.666667
 20
8.6
 10
37.666667
 20
16.666667
  0
LWPOLYLINE
  5
7E
330
17
100
AcDbEntity
  8
STRUT
100
AcDbPolyline
 90
2
 70
0
 10
37.666667
 20
16.666667
 10
37.666667
 20
28.333333
  0
LWPOLYLINE
  5
7F
330
17
100
AcDbEntity
  8
STRUT
100
AcDbPolyline
 90
2
 70
0
 10
37.666667
 20
28.333333
 10
37.666667
 20
36.0
  0
LWPOLYLINE
  5
80
330
17
100
AcDbEntity
  8
STRUT
100
AcDbPolyline
 90
2
 70
0
 10
37.666667
 20
36.0
 10
37.666667
 20
40.0
  0
LWPOLYLINE
  5
81
330
17
100
AcDbEntity
  8
STRUT
100
AcDbPolyline
 90
2
 70
0
 10
37.666667
 20
40.0
 10
37.666667
 20
44.0
  0
LWPOLYLINE
  5
82
330
17
100
AcDbEntity
  8
STRUT
100
AcDbPolyline
 90
2
 70
0
 10
37.666667
 20
44.0
 10
37.666667
 20
51.666667
  0
LWPOLYLINE
  5
83
330
17
100
AcDbEntity
  8
STRUT
100
AcDbPolyline
 90
2
 70
0
 10
37.666667
 20
51.666667
 10
37.666667
 20
63.333333
  0
LWPOLYLINE
  5
84
330
17
100
AcDbEntity
  8
STRUT
100
AcDbPolyline
 90
2
 70
0
 10
37.666667
 20
63.333333
 10
37.666667
 20
71.4
  0
LWPOLYLINE
  5
85
330
17
100
AcDbEntity
  8
STRUT
100
AcDbPolyline
 90
2
 70
0
 10
37.666667
 20
71.4
 10
37.666667
 20
75.0
  0
LWPOLYLINE
  5
86
330
17
100
AcDbEntity
  8
STRUT
100
AcDbPolyline
 90
2
 70
0
 10
45.666667
 20
5.0
 10
45.666667
 20
8.6
  0
LWPOLYLINE
  5
87
330
17
100
AcDbEntity
  8
STRUT
100
AcDbPolyline
 90
2
 70
0
 10
45.666667
 20
8.6
 10
45.666667
 20
16.666667
  0
LWPOLYLINE
  5
88
330
17
100
AcDbEntity
  8
STRUT
100
AcDbPolyline
 90
2
 70
0
 10
45.666667
 20
16.666667
 10
45.666667
 20
28.333333
  0
LWPOLYLINE
  5
89
330
17
100
AcDbEntity
  8
STRUT
100
AcDbPolyline
 90
2
 70
0
 10
45.666667
 20
28.333333
 10
45.666667
 20
36.0
  0
LWPOLYLINE
  5
8A
330
17
100
AcDbEntity
  8
STRUT
100
AcDbPolyline
 90
2
 70
0
 10
45.666667
 20
36.0
 10
45.666667
 20
40.0
  0
LWPOLYLINE
  5
8B
330
17
100
AcDbEntity
  8
STRUT
100
AcDbPolyline
 90
2
 70
0
 10
45.666667
 20
40.0
 10
45.666667
 20
44.0
  0
LWPOLYLINE
  5
8C
330
17
100
AcDbEntity
  8
STRUT
100
AcDbPolyline
 90
2
 70
0
 10
45.666667
 20
44.0
 10
45.666667
 20
51.666667
  0
LWPOLYLINE
  5
8D
330
17
100
AcDbEntity
  8
STRUT
100
AcDbPolyline
 90
2
 70
0
 10
45.666667
 20
51.666667
 10
45.666667
 20
63.333333
  0
LWPOLYLINE
  5
8E
330
17
100
AcDbEntity
  8
STRUT
100
AcDbPolyline
 90
2
 70
0
 10
45.666667
 20
63.333333
 10
45.666667
 20
71.4
  0
LWPOLYLINE
  5
8F
330
17
100
AcDbEntity
  8
STRUT
100
AcDbPolyline
 90
2
 70
0
 10
45.666667
 20
71.4
 10
45.666667
 20
75.0
  0
LWPOLYLINE
  5
90
330
17
100
AcDbEntity
  8
STRUT
100
AcDbPolyline
 90
2
 70
0
 10
74.333333
 20
5.0
 10
74.333333
 20
8.6
  0
LWPOLYLINE
  5
91
330
17
100
AcDbEntity
  8
STRUT
100
AcDbPolyline
 90
2
 70
0
 10
74.333333
 20
8.6
 10
74.333333
 20
16.666667
  0
LWPOLYLINE
  5
92
330
17
100
AcDbEntity
  8
STRUT
100
AcDbPolyline
 90
2
 70
0
 10
74.333333
 20
16.666667
 10
74.333333
 20
28.333333
  0
LWPOLYLINE
  5
93
330
17
100
AcDbEntity
  8
STRUT
100
AcDbPolyline
 90
2
 70
0
 10
74.333333
 20
28.333333
 10
74.333333
 20
36.0
  0
LWPOLYLINE
  5
94
330
17
100
AcDbEntity
  8
STRUT
100
AcDbPolyline
 90
2
 70
0
 10
74.333333
 20
36.0
 10
74.333333
 20
40.0
  0
LWPOLYLINE
  5
95
330
17
100
AcDbEntity
  8
STRUT
100
AcDbPolyline
 90
2
 70
0
 10
74.333333
 20
40.0
 10
74.333333
 20
44.0
  0
LWPOLYLINE
  5
96
330
17
100
AcDbEntity
  8
STRUT
100
AcDbPolyline
 90
2
 70
0
 10
74.333333
 20
44.0
 10
74.333333
 20
51.666667
  0
LWPOLYLINE
  5
97
330
17
100
AcDbEntity
  8
STRUT
100
AcDbPolyline
 90
2
 70
0
 10
74.333333
 20
51.666667
 10
74.333333
 20
63.333333
  0
LWPOLYLINE
  5
98
330
17
100
AcDbEntity
  8
STRUT
100
AcDbPolyline
 90
2
 70
0
 10
74.333333
 20
63.333333
 10
74.333333
 20
71.4
  0
LWPOLYLINE
  5
99
330
17
100
AcDbEntity
  8
STRUT
100
AcDbPolyline
 90
2
 70
0
 10
74.333333
 20
71.4
 10
74.333333
 20
75.0
  0
LWPOLYLINE
  5
9A
330
17
100
AcDbEntity
  8
STRUT
100
AcDbPolyline
 90
2
 70
0
 10
82.333333
 20
5.0
 10
82.333333
 20
8.6
  0
LWPOLYLINE
  5
9B
330
17
100
AcDbEntity
  8
STRUT
100
AcDbPolyline
 90
2
 70
0
 10
82.333333
 20
8.6
 10
82.333333
 20
16.666667
  0
LWPOLYLINE
  5
9C
330
17
100
AcDbEntity
  8
STRUT
100
AcDbPolyline
 90
2
 70
0
 10
82.333333
 20
16.666667
 10
82.333333
 20
28.333333
  0
LWPOLYLINE
  5
9D
330
17
100
AcDbEntity
  8
STRUT
100
AcDbPolyline
 90
2
 70
0
 10
82.333333
 20
28.333333
 10
82.333333
 20
36.0
  0
LWPOLYLINE
  5
9E
330
17
100
AcDbEntity
  8
STRUT
100
AcDbPolyline
 90
2
 70
0
 10
82.333333
 20
36.0
 10
82.333333
 20
40.0
  0
LWPOLYLINE
  5
9F
330
17
100
AcDbEntity
  8
STRUT
100
AcDbPolyline
 90
2
 70
0
 10
82.333333
 20
40.0
 10
82.333333
 20
44.0
  0
LWPOLYLINE
  5
A0
330
17
100
AcDbEntity
  8
STRUT
100
AcDbPolyline
 90
2
 70
0
 10
82.333333
 20
44.0
 10
82.333333
 20
51.666667
  0
LWPOLYLINE
  5
A1
330
17
100
AcDbEntity
  8
STRUT
100
AcDbPolyline
 90
2
 70
0
 10
82.333333
 20
51.666667
 10
82.333333
 20
63.333333
  0
LWPOLYLINE
  5
A2
330
17
100
AcDbEntity
  8
STRUT
100
AcDbPolyline
 90
2
 70
0
 10
82.333333
 20
63.333333
 10
82.333333
 20
71.4
  0
LWPOLYLINE
  5
A3
330
17
100
AcDbEntity
  8
STRUT
100
AcDbPolyline
 90
2
 70
0
 10
82.333333
 20
71.4
 10
82.333333
 20
75.0
  0
LWPOLYLINE
  5
A4
330
17
100
AcDbEntity
  8
STRUT
100
AcDbPolyline
 90
2
 70
0
 10
5.0
 20
36.0
 10
8.6
 20
36.0
  0
LWPOLYLINE
  5
A5
330
17
100
AcDbEntity
  8
STRUT
100
AcDbPolyline
 90
2
 70
0
 10
8.6
 20
36.0
 10
15.888889
 20
36.0
  0
LWPOLYLINE
  5
A6
330
17
100
AcDbEntity
  8
STRUT
100
AcDbPolyline
 90
2
 70
0
 10
15.888889
 20
36.0
 10
26.777778
 20
36.0
  0
LWPOLYLINE
  5
A7
330
17
100
AcDbEntity
  8
STRUT
100
AcDbPolyline
 90
2
 70
0
 10
26.777778
 20
36.0
 10
37.666667
 20
36.0
  0
LWPOLYLINE
  5
A8
330
17
100
AcDbEntity
  8
STRUT
100
AcDbPolyline
 90
2
 70
0
 10
37.666667
 20
36.0
 10
45.666667
 20
36.0
  0
LWPOLYLINE
  5
A9
330
17
100
AcDbEntity
  8
STRUT
100
AcDbPolyline
 90
2
 70
0
 10
45.666667
 20
36.0
 10
55.222222
 20
36.0
  0
LWPOLYLINE
  5
AA
330
17
100
AcDbEntity
  8
STRUT
100
AcDbPolyline
 90
2
 70
0
 10
55.222222
 20
36.0
 10
64.77777799999998
 20
36.0
  0
LWPOLYLINE
  5
AB
330
17
100
AcDbEntity
  8
STRUT
100
AcDbPolyline
 90
2
 70
0
 10
64.77777799999998
 20
36.0
 10
74.333333
 20
36.0
  0
LWPOLYLINE
  5
AC
330
17
100
AcDbEntity
  8
STRUT
100
AcDbPolyline
 90
2
 70
0
 10
74.333333
 20
36.0
 10
82.333333
 20
36.0
  0
LWPOLYLINE
  5
AD
330
17
100
AcDbEntity
  8
STRUT
100
AcDbPolyline
 90
2
 70
0
 10
82.333333
 20
36.0
 10
93.222222
 20
36.0
  0
LWPOLYLINE
  5
AE
330
17
100
AcDbEntity
  8
STRUT
100
AcDbPolyline
 90
2
 70
0
 10
93.222222
 20
36.0
 10
104.111111
 20
36.0
  0
LWPOLYLINE
  5
AF
330
17
100
AcDbEntity
  8
STRUT
100
AcDbPolyline
 90
2
 70
0
 10
104.111111
 20
36.0
 10
111.4
 20
36.0
  0
LWPOLYLINE
  5
B0
330
17
100
AcDbEntity
  8
STRUT
100
AcDbPolyline
 90
2
 70
0
 10
111.4
 20
36.0
 10
115.0
 20
36.0
  0
LWPOLYLINE
  5
B1
330
17
100
AcDbEntity
  8
STRUT
100
AcDbPolyline
 90
2
 70
0
 10
5.0
 20
44.0
 10
8.6
 20
44.0
  0
LWPOLYLINE
  5
B2
330
17
100
AcDbEntity
  8
STRUT
100
AcDbPolyline
 90
2
 70
0
 10
8.6
 20
44.0
 10
15.888889
 20
44.0
  0
LWPOLYLINE
  5
B3
330
17
100
AcDbEntity
  8
STRUT
100
AcDbPolyline
 90
2
 70
0
 10
15.888889
 20
44.0
 10
26.777778
 20
44.0
  0
LWPOLYLINE
  5
B4
330
17
100
AcDbEntity
  8
STRUT
100
AcDbPolyline
 90
2
 70
0
 10
26.777778
 20
44.0
 10
37.666667
 20
44.0
  0
LWPOLYLINE
  5
B5
330
17
100
AcDbEntity
  8
STRUT
100
AcDbPolyline
 90
2
 70
0
 10
37.666667
 20
44.0
 10
45.666667
 20
44.0
  0
LWPOLYLINE
  5
B6
330
17
100
AcDbEntity
  8
STRUT
100
AcDbPolyline
 90
2
 70
0
 10
45.666667
 20
44.0
 10
55.222222
 20
44.0
  0
LWPOLYLINE
  5
B7
330
17
100
AcDbEntity
  8
STRUT
100
AcDbPolyline
 90
2
 70
0
 10
55.222222
 20
44.0
 10
64.77777799999998
 20
44.0
  0
LWPOLYLINE
  5
B8
330
17
100
AcDbEntity
  8
STRUT
100
AcDbPolyline
 90
2
 70
0
 10
64.77777799999998
 20
44.0
 10
74.333333
 20
44.0
  0
LWPOLYLINE
  5
B9
330
17
100
AcDbEntity
  8
STRUT
100
AcDbPolyline
 90
2
 70
0
 10
74.333333
 20
44.0
 10
82.333333
 20
44.0
  0
LWPOLYLINE
  5
BA
330
17
100
AcDbEntity
  8
STRUT
100
AcDbPolyline
 90
2
 70
0
 10
82.333333
 20
44.0
 10
93.222222
 20
44.0
  0
LWPOLYLINE
  5
BB
330
17
100
AcDbEntity
  8
STRUT
100
AcDbPolyline
 90
2
 70
0
 10
93.222222
 20
44.0
 10
104.111111
 20
44.0
  0
LWPOLYLINE
  5
BC
330
17
100
AcDbEntity
  8
STRUT
100
AcDbPolyline
 90
2
 70
0
 10
104.111111
 20
44.0
 10
111.4
 20
44.0
  0
LWPOLYLINE
  5
BD
330
17
100
AcDbEntity
  8
STRUT
100
AcDbPolyline
 90
2
 70
0
 10
111.4
 20
44.0
 10
115.0
 20
44.0
  0
LWPOLYLINE
  5
BE
330
17
100
AcDbEntity
  8
TRUSS_WEB
100
AcDbPolyline
 90
2
 70
0
 10
5.0
 20
26.0
 10
8.599999930742321
 20
35.99999980761756
  0
LWPOLYLINE
  5
BF
330
17
100
AcDbEntity
  8
TRUSS_WEB
100
AcDbPolyline
 90
2
 70
0
 10
8.6
 20
36.0
 10
6.800000180516246
 20
39.99999959885279
  0
LWPOLYLINE
  5
C0
330
17
100
AcDbEntity
  8
TRUSS_WEB
100
AcDbPolyline
 90
2
 70
0
 10
6.800000180516246
 20
39.99999959885279
 10
5.0
 20
44.0
  0
LWPOLYLINE
  5
C1
330
17
100
AcDbEntity
  8
TRUSS_WEB
100
AcDbPolyline
 90
2
 70
0
 10
5.0
 20
44.0
 10
8.599999930742321
 20
53.99999980761756
  0
LWPOLYLINE
  5
C2
330
17
100
AcDbEntity
  8
TRUSS_CHORD
100
AcDbPolyline
 90
2
 70
0
 10
26.0
 20
75.0
 10
37.666667
 20
75.0
  0
LWPOLYLINE
  5
C3
330
17
100
AcDbEntity
  8
TRUSS_CHORD
100
AcDbPolyline
 90
2
 70
0
 10
26.0
 20
71.4
 10
37.666667
 20
71.4
  0
LWPOLYLINE
  5
C4
330
17
100
AcDbEntity
  8
TRUSS_WEB
100
AcDbPolyline
 90
2
 70
0
 10
26.0
 20
75.0
 10
37.66666660689312
 20
71.40000012130155
  0
LWPOLYLINE
  5
C5
330
17
100
AcDbEntity
  8
TRUSS_WEB
100
AcDbPolyline
 90
2
 70
0
 10
37.666667
 20
71.4
 10
41.666666598852785
 20
73.19999981948376
  0
LWPOLYLINE
  5
C6
330
17
100
AcDbEntity
  8
TRUSS_WEB
100
AcDbPolyline
 90
2
 70
0
 10
41.666666598852785
 20
73.19999981948376
 10
45.666667
 20
75.0
  0
LWPOLYLINE
  5
C7
330
17
100
AcDbEntity
  8
TRUSS_CHORD
100
AcDbPolyline
 90
2
 70
0
 10
45.666667
 20
75.0
 10
55.222221999999995
 20
75.0
  0
LWPOLYLINE
  5
C8
330
17
100
AcDbEntity
  8
TRUSS_CHORD
100
AcDbPolyline
 90
2
 70
0
 10
45.666667
 20
71.4
 10
55.222221999999995
 20
71.4
  0
LWPOLYLINE
  5
C9
330
17
100
AcDbEntity
  8
TRUSS_WEB
100
AcDbPolyline
 90
2
 70
0
 10
45.666667
 20
75.0
 10
55.22222174818055
 20
71.40000009487153
  0
LWPOLYLINE
  5
CA
330
17
100
AcDbEntity
  8
TRUSS_CHORD
100
AcDbPolyline
 90
2
 70
0
 10
55.222222
 20
75.0
 10
64.777778
 20
75.0
  0
LWPOLYLINE
  5
CB
330
17
100
AcDbEntity
  8
TRUSS_CHORD
100
AcDbPolyline
 90
2
 70
0
 10
55.222222
 20
71.4
 10
64.777778
 20
71.4
  0
LWPOLYLINE
  5
CC
330
17
100
AcDbEntity
  8
TRUSS_WEB
100
AcDbPolyline
 90
2
 70
0
 10
55.222222
 20
71.4
 10
64.77777780826635
 20
74.99999992776546
  0
LWPOLYLINE
  5
CD
330
17
100
AcDbEntity
  8
TRUSS_CHORD
100
AcDbPolyline
 90
2
 70
0
 10
64.777778
 20
75.0
 10
74.333333
 20
75.0
  0
LWPOLYLINE
  5
CE
330
17
100
AcDbEntity
  8
TRUSS_CHORD
100
AcDbPolyline
 90
2
 70
0
 10
64.777778
 20
71.4
 10
74.333333
 20
71.4
  0
LWPOLYLINE
  5
CF
330
17
100
AcDbEntity
  8
TRUSS_WEB
100
AcDbPolyline
 90
2
 70
0
 10
64.777778
 20
75.0
 10
74.33333274818055
 20
71.40000009487152
  0
LWPOLYLINE
  5
D0
330
17
100
AcDbEntity
  8
TRUSS_WEB
100
AcDbPolyline
 90
2
 70
0
 10
74.333333
 20
71.4
 10
78.33333259885278
 20
73.19999981948376
  0
LWPOLYLINE
  5
D1
330
17
100
AcDbEntity
  8
TRUSS_WEB
100
AcDbPolyline
 90
2
 70
0
 10
78.33333259885278
 20
73.19999981948376
 10
82.333333
 20
75.0
  0
LWPOLYLINE
  5
D2
330
17
100
AcDbEntity
  8
TRUSS_CHORD
100
AcDbPolyline
 90
2
 70
0
 10
82.333333
 20
75.0
 10
94.0
 20
75.0
  0
LWPOLYLINE
  5
D3
330
17
100
AcDbEntity
  8
TRUSS_CHORD
100
AcDbPolyline
 90
2
 70
0
 10
82.333333
 20
71.4
 10
94.0
 20
71.4
  0
LWPOLYLINE
  5
D4
330
17
100
AcDbEntity
  8
TRUSS_WEB
100
AcDbPolyline
 90
2
 70
0
 10
82.333333
 20
75.0
 10
93.99999960689313
 20
71.40000012130156
  0
LWPOLYLINE
  5
D5
330
17
100
AcDbEntity
  8
TRUSS_WEB
100
AcDbPolyline
 90
2
 70
0
 10
115.0
 20
54.0
 10
111.40000006925769
 20
44.00000019238244
  0
LWPOLYLINE
  5
D6
330
17
100
AcDbEntity
  8
TRUSS_WEB
100
AcDbPolyline
 90
2
 70
0
 10
111.4
 20
44.0
 10
113.19999981948376
 20
40.00000040114721
  0
LWPOLYLINE
  5
D7
330
17
100
AcDbEntity
  8
TRUSS_WEB
100
AcDbPolyline
 90
2
 70
0
 10
113.19999981948376
 20
40.00000040114721
 10
115.0
 20
36.0
  0
LWPOLYLINE
  5
D8
330
17
100
AcDbEntity
  8
TRUSS_WEB
100
AcDbPolyline
 90
2
 70
0
 10
115.0
 20
36.0
 10
111.40000006925769
 20
26.000000192382437
  0
LWPOLYLINE
  5
D9
330
17
100
AcDbEntity
  8
TRUSS_CHORD
100
AcDbPolyline
 90
2
 70
0
 10
94.0
 20
5.0
 10
82.333333
 20
5.0
  0
LWPOLYLINE
  5
DA
330
17
100
AcDbEntity
  8
TRUSS_CHORD
100
AcDbPolyline
 90
2
 70
0
 10
94.0
 20
8.6
 10
82.333333
 20
8.6
  0
LWPOLYLINE
  5
DB
330
17
100
AcDbEntity
  8
TRUSS_WEB
100
AcDbPolyline
 90
2
 70
0
 10
94.0
 20
5.0
 10
82.33333339310687
 20
8.599999878698451
  0
LWPOLYLINE
  5
DC
330
17
100
AcDbEntity
  8
TRUSS_WEB
100
AcDbPolyline
 90
2
 70
0
 10
82.333333
 20
8.6
 10
78.33333340114721
 20
6.800000180516246
  0
LWPOLYLINE
  5
DD
330
17
100
AcDbEntity
  8
TRUSS_WEB
100
AcDbPolyline
 90
2
 70
0
 10
78.33333340114721
 20
6.800000180516246
 10
74.333333
 20
5.0
  0
LWPOLYLINE
  5
DE
330
17
100
AcDbEntity
  8
TRUSS_CHORD
100
AcDbPolyline
 90
2
 70
0
 10
74.333333
 20
5.0
 10
64.777778
 20
5.0
  0
LWPOLYLINE
  5
DF
330
17
100
AcDbEntity
  8
TRUSS_CHORD
100
AcDbPolyline
 90
2
 70
0
 10
74.333333
 20
8.6
 10
64.777778
 20
8.6
  0
LWPOLYLINE
  5
E0
330
17
100
AcDbEntity
  8
TRUSS_WEB
100
AcDbPolyline
 90
2
 70
0
 10
74.333333
 20
5.0
 10
64.77777825181944
 20
8.599999905128483
  0
LWPOLYLINE
  5
E1
330
17
100
AcDbEntity
  8
TRUSS_CHORD
100
AcDbPolyline
 90
2
 70
0
 10
64.777778
 20
5.0
 10
55.222222
 20
5.0
  0
LWPOLYLINE
  5
E2
330
17
100
AcDbEntity
  8
TRUSS_CHORD
100
AcDbPolyline
 90
2
 70
0
 10
64.777778
 20
8.6
 10
55.222222
 20
8.6
  0
LWPOLYLINE
  5
E3
330
17
100
AcDbEntity
  8
TRUSS_WEB
100
AcDbPolyline
 90
2
 70
0
 10
64.777778
 20
8.6
 10
55.22222219173365
 20
5.000000072234535
  0
LWPOLYLINE
  5
E4
330
17
100
AcDbEntity
  8
TRUSS_CHORD
100
AcDbPolyline
 90
2
 70
0
 10
55.222222
 20
5.0
 10
45.666667000000004
 20
5.0
  0
LWPOLYLINE
  5
E5
330
17
100
AcDbEntity
  8
TRUSS_CHORD
100
AcDbPolyline
 90
2
 70
0
 10
55.222222
 20
8.6
 10
45.666667000000004
 20
8.6
  0
LWPOLYLINE
  5
E6
330
17
100
AcDbEntity
  8
TRUSS_WEB
100
AcDbPolyline
 90
2
 70
0
 10
55.222222
 20
5.0
 10
45.66666725181945
 20
8.599999905128481
  0
LWPOLYLINE
  5
E7
330
17
100
AcDbEntity
  8
TRUSS_WEB
100
AcDbPolyline
 90
2
 70
0
 10
45.666667
 20
8.6
 10
41.66666740114721
 20
6.800000180516246
  0
LWPOLYLINE
  5
E8
330
17
100
AcDbEntity
  8
TRUSS_WEB
100
AcDbPolyline
 90
2
 70
0
 10
41.66666740114721
 20
6.800000180516246
 10
37.666667
 20
5.0
  0
LWPOLYLINE
  5
E9
330
17
100
AcDbEntity
  8
TRUSS_CHORD
100
AcDbPolyline
 90
2
 70
0
 10
37.666667
 20
5.0
 10
26.0
 20
5.0
  0
LWPOLYLINE
  5
EA
330
17
100
AcDbEntity
  8
TRUSS_CHORD
100
AcDbPolyline
 90
2
 70
0
 10
37.666667
 20
8.6
 10
26.0
 20
8.6
  0
LWPOLYLINE
  5
EB
330
17
100
AcDbEntity
  8
TRUSS_WEB
100
AcDbPolyline
 90
2
 70
0
 10
37.666667
 20
5.0
 10
26.000000393106873
 20
8.599999878698453
  0
LWPOLYLINE
  5
EC
330
17
100
AcDbEntity
  8
TRUSS_CHORD
100
AcDbPolyline
 90
2
 70
0
 10
26.0
 20
5.0
 10
19.0
 20
12.0
  0
LWPOLYLINE
  5
ED
330
17
100
AcDbEntity
  8
TRUSS_CHORD
100
AcDbPolyline
 90
2
 70
0
 10
26.0
 20
8.6
 10
20.2
 20
14.4
  0
LWPOLYLINE
  5
EE
330
17
100
AcDbEntity
  8
TRUSS_WEB
100
AcDbPolyline
 90
2
 70
0
 10
26.0
 20
5.0
 10
20.200000009025157
 20
14.39999998537302
  0
LWPOLYLINE
  5
EF
330
17
100
AcDbEntity
  8
TRUSS_CHORD
100
AcDbPolyline
 90
2
 70
0
 10
19.0
 20
12.0
 10
12.0
 20
19.0
  0
LWPOLYLINE
  5
F0
330
17
100
AcDbEntity
  8
TRUSS_CHORD
100
AcDbPolyline
 90
2
 70
0
 10
20.2
 20
14.4
 10
14.4
 20
20.2
  0
LWPOLYLINE
  5
F1
330
17
100
AcDbEntity
  8
TRUSS_WEB
100
AcDbPolyline
 90
2
 70
0
 10
20.2
 20
14.4
 10
12.000000365283617
 20
18.9999997950848
  0
LWPOLYLINE
  5
F2
330
17
100
AcDbEntity
  8
TRUSS_CHORD
100
AcDbPolyline
 90
2
 70
0
 10
12.0
 20
19.0
 10
5.0
 20
26.0
  0
LWPOLYLINE
  5
F3
330
17
100
AcDbEntity
  8
TRUSS_CHORD
100
AcDbPolyline
 90
2
 70
0
 10
14.4
 20
20.2
 10
8.6
 20
26.0
  0
LWPOLYLINE
  5
F4
330
17
100
AcDbEntity
  8
TRUSS_WEB
100
AcDbPolyline
 90
2
 70
0
 10
12.0
 20
19.0
 10
8.6
 20
26.0
  0
LWPOLYLINE
  5
F5
330
17
100
AcDbEntity
  8
TRUSS_CHORD
100
AcDbPolyline
 90
2
 70
0
 10
5.0
 20
54.0
 10
12.0
 20
61.0
  0
LWPOLYLINE
  5
F6
330
17
100
AcDbEntity
  8
TRUSS_CHORD
100
AcDbPolyline
 90
2
 70
0
 10
8.6
 20
54.0
 10
14.4
 20
59.8
  0
LWPOLYLINE
  5
F7
330
17
100
AcDbEntity
  8
TRUSS_WEB
100
AcDbPolyline
 90
2
 70
0
 10
5.0
 20
54.0
 10
14.399999985373023
 20
59.79999999097484
  0
LWPOLYLINE
  5
F8
330
17
100
AcDbEntity
  8
TRUSS_CHORD
100
AcDbPolyline
 90
2
 70
0
 10
12.0
 20
61.0
 10
19.0
 20
68.0
  0
LWPOLYLINE
  5
F9
330
17
100
AcDbEntity
  8
TRUSS_CHORD
100
AcDbPolyline
 90
2
 70
0
 10
14.4
 20
59.8
 10
20.2
 20
65.6
  0
LWPOLYLINE
  5
FA
330
17
100
AcDbEntity
  8
TRUSS_WEB
100
AcDbPolyline
 90
2
 70
0
 10
14.4
 20
59.8
 10
18.999999795084797
 20
67.99999963471637
  0
LWPOLYLINE
  5
FB
330
17
100
AcDbEntity
  8
TRUSS_CHORD
100
AcDbPolyline
 90
2
 70
0
 10
19.0
 20
68.0
 10
26.0
 20
75.0
  0
LWPOLYLINE
  5
FC
330
17
100
AcDbEntity
  8
TRUSS_CHORD
100
AcDbPolyline
 90
2
 70
0
 10
20.2
 20
65.6
 10
26.0
 20
71.4
  0
LWPOLYLINE
  5
FD
330
17
100
AcDbEntity
  8
TRUSS_WEB
100
AcDbPolyline
 90
2
 70
0
 10
19.0
 20
68.0
 10
26.0
 20
71.4
  0
LWPOLYLINE
  5
FE
330
17
100
AcDbEntity
  8
TRUSS_CHORD
100
AcDbPolyline
 90
2
 70
0
 10
94.0
 20
75.0
 10
101.0
 20
68.0
  0
LWPOLYLINE
  5
FF
330
17
100
AcDbEntity
  8
TRUSS_CHORD
100
AcDbPolyline
 90
2
 70
0
 10
94.0
 20
71.4
 10
99.8
 20
65.6
  0
LWPOLYLINE
  5
100
330
17
100
AcDbEntity
  8
TRUSS_WEB
100
AcDbPolyline
 90
2
 70
0
 10
94.0
 20
75.0
 10
99.79999999097484
 20
65.60000001462697
  0
LWPOLYLINE
  5
101
330
17
100
AcDbEntity
  8
TRUSS_CHORD
100
AcDbPolyline
 90
2
 70
0
 10
101.0
 20
68.0
 10
108.0
 20
61.0
  0
LWPOLYLINE
  5
102
330
17
100
AcDbEntity
  8
TRUSS_CHORD
100
AcDbPolyline
 90
2
 70
0
 10
99.8
 20
65.6
 10
105.6
 20
59.8
  0
LWPOLYLINE
  5
103
330
17
100
AcDbEntity
  8
TRUSS_WEB
100
AcDbPolyline
 90
2
 70
0
 10
99.8
 20
65.6
 10
107.99999963471639
 20
61.0000002049152
  0
LWPOLYLINE
  5
104
330
17
100
AcDbEntity
  8
TRUSS_CHORD
100
AcDbPolyline
 90
2
 70
0
 10
108.0
 20
61.0
 10
115.0
 20
54.0
  0
LWPOLYLINE
  5
105
330
17
100
AcDbEntity
  8
TRUSS_CHORD
100
AcDbPolyline
 90
2
 70
0
 10
105.6
 20
59.8
 10
111.4
 20
54.0
  0
LWPOLYLINE
  5
106
330
17
100
AcDbEntity
  8
TRUSS_WEB
100
AcDbPolyline
 90
2
 70
0
 10
108.0
 20
61.0
 10
111.4
 20
54.0
  0
LWPOLYLINE
  5
107
330
17
100
AcDbEntity
  8
TRUSS_CHORD
100
AcDbPolyline
 90
2
 70
0
 10
115.0
 20
26.0
 10
108.0
 20
19.0
  0
LWPOLYLINE
  5
108
330
17
100
AcDbEntity
  8
TRUSS_CHORD
100
AcDbPolyline
 90
2
 70
0
 10
111.4
 20
26.0
 10
105.6
 20
20.2
  0
LWPOLYLINE
  5
109
330
17
100
AcDbEntity
  8
TRUSS_WEB
100
AcDbPolyline
 90
2
 70
0
 10
115.0
 20
26.0
 10
105.60000001462697
 20
20.20000000902516
  0
LWPOLYLINE
  5
10A
330
17
100
AcDbEntity
  8
TRUSS_CHORD
100
AcDbPolyline
 90
2
 70
0
 10
108.0
 20
19.0
 10
101.0
 20
12.0
  0
LWPOLYLINE
  5
10B
330
17
100
AcDbEntity
  8
TRUSS_CHORD
100
AcDbPolyline
 90
2
 70
0
 10
105.6
 20
20.2
 10
99.8
 20
14.4
  0
LWPOLYLINE
  5
10C
330
17
100
AcDbEntity
  8
TRUSS_WEB
100
AcDbPolyline
 90
2
 70
0
 10
105.6
 20
20.2
 10
101.0000002049152
 20
12.000000365283615
  0
LWPOLYLINE
  5
10D
330
17
100
AcDbEntity
  8
TRUSS_CHORD
100
AcDbPolyline
 90
2
 70
0
 10
101.0
 20
12.0
 10
94.0
 20
5.0
  0
LWPOLYLINE
  5
10E
330
17
100
AcDbEntity
  8
TRUSS_CHORD
100
AcDbPolyline
 90
2
 70
0
 10
99.8
 20
14.4
 10
94.0
 20
8.6
  0
LWPOLYLINE
  5
10F
330
17
100
AcDbEntity
  8
TRUSS_WEB
100
AcDbPolyline
 90
2
 70
0
 10
101.0
 20
12.0
 10
94.0
 20
8.6
  0
LWPOLYLINE
  5
110
330
17
100
AcDbEntity
  8
TRUSS_WEB
100
AcDbPolyline
 90
2
 70
0
 10
37.666667
 20
8.6
 10
41.666666598852785
 20
6.800000180516246
  0
LWPOLYLINE
  5
111
330
17
100
AcDbEntity
  8
TRUSS_WEB
100
AcDbPolyline
 90
2
 70
0
 10
41.666666598852785
 20
6.800000180516246
 10
45.666667
 20
5.0
  0
LWPOLYLINE
  5
112
330
17
100
AcDbEntity
  8
TRUSS_WEB
100
AcDbPolyline
 90
2
 70
0
 10
37.666667
 20
75.0
 10
41.666666598852785
 20
73.20000018051624
  0
LWPOLYLINE
  5
113
330
17
100
AcDbEntity
  8
TRUSS_WEB
100
AcDbPolyline
 90
2
 70
0
 10
41.666666598852785
 20
73.20000018051624
 10
45.666667
 20
71.4
  0
LWPOLYLINE
  5
114
330
17
100
AcDbEntity
  8
TRUSS_WEB
100
AcDbPolyline
 90
2
 70
0
 10
74.333333
 20
8.6
 10
78.33333259885278
 20
6.800000180516246
  0
LWPOLYLINE
  5
115
330
17
100
AcDbEntity
  8
TRUSS_WEB
100
AcDbPolyline
 90
2
 70
0
 10
78.33333259885278
 20
6.800000180516246
 10
82.333333
 20
5.0
  0
LWPOLYLINE
  5
116
330
17
100
AcDbEntity
  8
TRUSS_WEB
100
AcDbPolyline
 90
2
 70
0
 10
74.333333
 20
75.0
 10
78.33333259885278
 20
73.20000018051624
  0
LWPOLYLINE
  5
117
330
17
100
AcDbEntity
  8
TRUSS_WEB
100
AcDbPolyline
 90
2
 70
0
 10
78.33333259885278
 20
73.20000018051624
 10
82.333333
 20
71.4
  0
LWPOLYLINE
  5
118
330
17
100
AcDbEntity
  8
TRUSS_WEB
100
AcDbPolyline
 90
2
 70
0
 10
5.0
 20
36.0
 10
6.799999819483753
 20
39.99999959885279
  0
LWPOLYLINE
  5
119
330
17
100
AcDbEntity
  8
TRUSS_WEB
100
AcDbPolyline
 90
2
 70
0
 10
6.799999819483753
 20
39.99999959885279
 10
8.6
 20
44.0
  0
LWPOLYLINE
  5
11A
330
17
100
AcDbEntity
  8
TRUSS_WEB
100
AcDbPolyline
 90
2
 70
0
 10
111.4
 20
36.0
 10
113.19999981948376
 20
39.99999959885279
  0
LWPOLYLINE
  5
11B
330
17
100
AcDbEntity
  8
TRUSS_WEB
100
AcDbPolyline
 90
2
 70
0
 10
113.19999981948376
 20
39.99999959885279
 10
115.0
 20
44.0
  0
LWPOLYLINE
  5
11C
330
17
100
AcDbEntity
  8
TRUSS_CHORD
100
AcDbPolyline
 90
5
 70
1
 10
4.6
 20
36.0
 10
5.4
 20
36.0
 10
5.4
 20
26.0
 10
4.6
 20
26.0
 10
4.6
 20
36.0
  0
LWPOLYLINE
  5
11D
330
17
100
AcDbEntity
  8
TRUSS_CHORD
100
AcDbPolyline
 90
5
 70
1
 10
8.2
 20
36.0
 10
9.0
 20
36.0
 10
9.0
 20
26.0
 10
8.2
 20
26.0
 10
8.2
 20
36.0
  0
LWPOLYLINE
  5
11E
330
17
100
AcDbEntity
  8
TRUSS_CHORD
100
AcDbPolyline
 90
5
 70
1
 10
4.6
 20
44.0
 10
5.4
 20
44.0
 10
5.4
 20
36.0
 10
4.6
 20
36.0
 10
4.6
 20
44.0
  0
LWPOLYLINE
  5
11F
330
17
100
AcDbEntity
  8
TRUSS_CHORD
100
AcDbPolyline
 90
5
 70
1
 10
8.2
 20
44.0
 10
9.0
 20
44.0
 10
9.0
 20
36.0
 10
8.2
 20
36.0
 10
8.2
 20
44.0
  0
LWPOLYLINE
  5
120
330
17
100
AcDbEntity
  8
TRUSS_CHORD
100
AcDbPolyline
 90
5
 70
1
 10
4.6
 20
54.0
 10
5.4
 20
54.0
 10
5.4
 20
44.0
 10
4.6
 20
44.0
 10
4.6
 20
54.0
  0
LWPOLYLINE
  5
121
330
17
100
AcDbEntity
  8
TRUSS_CHORD
100
AcDbPolyline
 90
5
 70
1
 10
8.2
 20
54.0
 10
9.0
 20
54.0
 10
9.0
 20
44.0
 10
8.2
 20
44.0
 10
8.2
 20
54.0
  0
LWPOLYLINE
  5
122
330
17
100
AcDbEntity
  8
TRUSS_CHORD
100
AcDbPolyline
 90
5
 70
1
 10
45.666667
 20
75.4
 10
45.666667
 20
74.6
 10
37.666667
 20
74.6
 10
37.666667
 20
75.4
 10
45.666667
 20
75.4
  0
LWPOLYLINE
  5
123
330
17
100
AcDbEntity
  8
TRUSS_CHORD
100
AcDbPolyline
 90
5
 70
1
 10
45.666667
 20
71.80000000000001
 10
45.666667
 20
71.0
 10
37.666667
 20
71.0
 10
37.666667
 20
71.80000000000001
 10
45.666667
 20
71.80000000000001
  0
LWPOLYLINE
  5
124
330
17
100
AcDbEntity
  8
TRUSS_CHORD
100
AcDbPolyline
 90
5
 70
1
 10
82.333333
 20
75.4
 10
82.333333
 20
74.6
 10
74.333333
 20
74.6
 10
74.333333
 20
75.4
 10
82.333333
 20
75.4
  0
LWPOLYLINE
  5
125
330
17
100
AcDbEntity
  8
TRUSS_CHORD
100
AcDbPolyline
 90
5
 70
1
 10
82.333333
 20
71.80000000000001
 10
82.333333
 20
71.0
 10
74.333333
 20
71.0
 10
74.333333
 20
71.80000000000001
 10
82.333333
 20
71.80000000000001
  0
LWPOLYLINE
  5
126
330
17
100
AcDbEntity
  8
TRUSS_CHORD
100
AcDbPolyline
 90
5
 70
1
 10
115.4
 20
44.0
 10
114.6
 20
44.0
 10
114.6
 20
54.0
 10
115.4
 20
54.0
 10
115.4
 20
44.0
  0
LWPOLYLINE
  5
127
330
17
100
AcDbEntity
  8
TRUSS_CHORD
100
AcDbPolyline
 90
5
 70
1
 10
111.80000000000001
 20
44.0
 10
111.0
 20
44.0
 10
111.0
 20
54.0
 10
111.80000000000001
 20
54.0
 10
111.80000000000001
 20
44.0
  0
LWPOLYLINE
  5
128
330
17
100
AcDbEntity
  8
TRUSS_CHORD
100
AcDbPolyline
 90
5
 70
1
 10
115.4
 20
36.0
 10
114.6
 20
36.0
 10
114.6
 20
44.0
 10
115.4
 20
44.0
 10
115.4
 20
36.0
  0
LWPOLYLINE
  5
129
330
17
100
AcDbEntity
  8
TRUSS_CHORD
100
AcDbPolyline
 90
5
 70
1
 10
111.80000000000001
 20
36.0
 10
111.0
 20
36.0
 10
111.0
 20
44.0
 10
111.80000000000001
 20
44.0
 10
111.80000000000001
 20
36.0
  0
LWPOLYLINE
  5
12A
330
17
100
AcDbEntity
  8
TRUSS_CHORD
100
AcDbPolyline
 90
5
 70
1
 10
115.4
 20
26.0
 10
114.6
 20
26.0
 10
114.6
 20
36.0
 10
115.4
 20
36.0
 10
115.4
 20
26.0
  0
LWPOLYLINE
  5
12B
330
17
100
AcDbEntity
  8
TRUSS_CHORD
100
AcDbPolyline
 90
5
 70
1
 10
111.80000000000001
 20
26.0
 10
111.0
 20
26.0
 10
111.0
 20
36.0
 10
111.80000000000001
 20
36.0
 10
111.80000000000001
 20
26.0
  0
LWPOLYLINE
  5
12C
330
17
100
AcDbEntity
  8
TRUSS_CHORD
100
AcDbPolyline
 90
5
 70
1
 10
74.333333
 20
4.6
 10
74.333333
 20
5.4
 10
82.333333
 20
5.4
 10
82.333333
 20
4.6
 10
74.333333
 20
4.6
  0
LWPOLYLINE
  5
12D
330
17
100
AcDbEntity
  8
TRUSS_CHORD
100
AcDbPolyline
 90
5
 70
1
 10
74.333333
 20
8.2
 10
74.333333
 20
9.0
 10
82.333333
 20
9.0
 10
82.333333
 20
8.2
 10
74.333333
 20
8.2
  0
LWPOLYLINE
  5
12E
330
17
100
AcDbEntity
  8
TRUSS_CHORD
100
AcDbPolyline
 90
5
 70
1
 10
37.666667
 20
4.6
 10
37.666667
 20
5.4
 10
45.666667
 20
5.4
 10
45.666667
 20
4.6
 10
37.666667
 20
4.6
  0
LWPOLYLINE
  5
12F
330
17
100
AcDbEntity
  8
TRUSS_CHORD
100
AcDbPolyline
 90
5
 70
1
 10
37.666667
 20
8.2
 10
37.666667
 20
9.0
 10
45.666667
 20
9.0
 10
45.666667
 20
8.2
 10
37.666667
 20
8.2
  0
LWPOLYLINE
  5
130
330
17
100
AcDbEntity
  8
STRUT_OUTLINE
100
AcDbPolyline
 90
5
 70
1
 10
45.666667
 20
16.816667
 10
45.666667
 20
16.516667
 10
37.666667
 20
16.516667
 10
37.666667
 20
16.816667
 10
45.666667
 20
16.816667
  0
LWPOLYLINE
  5
131
330
17
100
AcDbEntity
  8
STRUT_OUTLINE
100
AcDbPolyline
 90
5
 70
1
 10
45.666667
 20
28.483333
 10
45.666667
 20
28.183333
 10
37.666667
 20
28.183333
 10
37.666667
 20
28.483333
 10
45.666667
 20
28.483333
  0
LWPOLYLINE
  5
132
330
17
100
AcDbEntity
  8
STRUT_OUTLINE
100
AcDbPolyline
 90
5
 70
1
 10
45.666667
 20
40.15
 10
45.666667
 20
39.85
 10
37.666667
 20
39.85
 10
37.666667
 20
40.15
 10
45.666667
 20
40.15
  0
LWPOLYLINE
  5
133
330
17
100
AcDbEntity
  8
STRUT_OUTLINE
100
AcDbPolyline
 90
5
 70
1
 10
45.666667
 20
51.816666999999995
 10
45.666667
 20
51.516667
 10
37.666667
 20
51.516667
 10
37.666667
 20
51.816666999999995
 10
45.666667
 20
51.816666999999995
  0
LWPOLYLINE
  5
134
330
17
100
AcDbEntity
  8
STRUT_OUTLINE
100
AcDbPolyline
 90
5
 70
1
 10
45.666667
 20
63.483333
 10
45.666667
 20
63.183333000000005
 10
37.666667
 20
63.183333000000005
 10
37.666667
 20
63.483333
 10
45.666667
 20
63.483333
  0
LWPOLYLINE
  5
135
330
17
100
AcDbEntity
  8
STRUT_OUTLINE
100
AcDbPolyline
 90
5
 70
1
 10
82.333333
 20
16.816667
 10
82.333333
 20
16.516667
 10
74.333333
 20
16.516667
 10
74.333333
 20
16.816667
 10
82.333333
 20
16.816667
  0
LWPOLYLINE
  5
136
330
17
100
AcDbEntity
  8
STRUT_OUTLINE
100
AcDbPolyline
 90
5
 70
1
 10
82.333333
 20
28.483333
 10
82.333333
 20
28.183333
 10
74.333333
 20
28.183333
 10
74.333333
 20
28.483333
 10
82.333333
 20
28.483333
  0
LWPOLYLINE
  5
137
330
17
100
AcDbEntity
  8
STRUT_OUTLINE
100
AcDbPolyline
 90
5
 70
1
 10
82.333333
 20
40.15
 10
82.333333
 20
39.85
 10
74.333333
 20
39.85
 10
74.333333
 20
40.15
 10
82.333333
 20
40.15
  0
LWPOLYLINE
  5
138
330
17
100
AcDbEntity
  8
STRUT_OUTLINE
100
AcDbPolyline
 90
5
 70
1
 10
82.333333
 20
51.816666999999995
 10
82.333333
 20
51.516667
 10
74.333333
 20
51.516667
 10
74.333333
 20
51.816666999999995
 10
82.333333
 20
51.816666999999995
  0
LWPOLYLINE
  5
139
330
17
100
AcDbEntity
  8
STRUT_OUTLINE
100
AcDbPolyline
 90
5
 70
1
 10
82.333333
 20
63.483333
 10
82.333333
 20
63.183333000000005
 10
74.333333
 20
63.183333000000005
 10
74.333333
 20
63.483333
 10
82.333333
 20
63.483333
  0
LWPOLYLINE
  5
13A
330
17
100
AcDbEntity
  8
STRUT_OUTLINE
100
AcDbPolyline
 90
5
 70
1
 10
15.738889
 20
44.0
 10
16.038889
 20
44.0
 10
16.038889
 20
36.0
 10
15.738889
 20
36.0
 10
15.738889
 20
44.0
  0
LWPOLYLINE
  5
13B
330
17
100
AcDbEntity
  8
STRUT_OUTLINE
100
AcDbPolyline
 90
5
 70
1
 10
26.627778000000003
 20
44.0
 10
26.927778
 20
44.0
 10
26.927778
 20
36.0
 10
26.627778000000003
 20
36.0
 10
26.627778000000003
 20
44.0
  0
LWPOLYLINE
  5
13C
330
17
100
AcDbEntity
  8
STRUT_OUTLINE
100
AcDbPolyline
 90
5
 70
1
 10
55.072222000000004
 20
44.0
 10
55.372222
 20
44.0
 10
55.372222
 20
36.0
 10
55.072222000000004
 20
36.0
 10
55.072222000000004
 20
44.0
  0
LWPOLYLINE
  5
13D
330
17
100
AcDbEntity
  8
STRUT_OUTLINE
100
AcDbPolyline
 90
5
 70
1
 10
64.62777799999999
 20
44.0
 10
64.927778
 20
44.0
 10
64.927778
 20
36.0
 10
64.62777799999999
 20
36.0
 10
64.62777799999999
 20
44.0
  0
LWPOLYLINE
  5
13E
330
17
100
AcDbEntity
  8
STRUT_OUTLINE
100
AcDbPolyline
 90
5
 70
1
 10
93.072222
 20
44.0
 10
93.37222200000001
 20
44.0
 10
93.37222200000001
 20
36.0
 10
93.072222
 20
36.0
 10
93.072222
 20
44.0
  0
LWPOLYLINE
  5
13F
330
17
100
AcDbEntity
  8
STRUT_OUTLINE
100
AcDbPolyline
 90
5
 70
1
 10
103.96111099999999
 20
44.0
 10
104.261111
 20
44.0
 10
104.261111
 20
36.0
 10
103.96111099999999
 20
36.0
 10
103.96111099999999
 20
44.0
  0
LWPOLYLINE
  5
140
330
17
100
AcDbEntity
  8
WALING_OUTLINE
100
AcDbPolyline
 90
5
 70
1
 10
4.6
 20
26.0
 10
5.4
 20
26.0
 10
5.4
 20
5.0
 10
4.6
 20
5.0
 10
4.6
 20
26.0
  0
LWPOLYLINE
  5
141
330
17
100
AcDbEntity
  8
WALING_OUTLINE
100
AcDbPolyline
 90
5
 70
1
 10
4.6
 20
36.0
 10
5.4
 20
36.0
 10
5.4
 20
26.0
 10
4.6
 20
26.0
 10
4.6
 20
36.0
  0
LWPOLYLINE
  5
142
330
17
100
AcDbEntity
  8
WALING_OUTLINE
100
AcDbPolyline
 90
5
 70
1
 10
4.6
 20
44.0
 10
5.4
 20
44.0
 10
5.4
 20
36.0
 10
4.6
 20
36.0
 10
4.6
 20
44.0
  0
LWPOLYLINE
  5
143
330
17
100
AcDbEntity
  8
WALING_OUTLINE
100
AcDbPolyline
 90
5
 70
1
 10
4.6
 20
54.0
 10
5.4
 20
54.0
 10
5.4
 20
44.0
 10
4.6
 20
44.0
 10
4.6
 20
54.0
  0
LWPOLYLINE
  5
144
330
17
100
AcDbEntity
  8
WALING_OUTLINE
100
AcDbPolyline
 90
7
 70
1
 10
4.6
 20
75.4
 10
26.0
 20
75.4
 10
26.0
 20
74.6
 10
5.4
 20
74.6
 10
5.4
 20
54.0
 10
4.6
 20
54.0
 10
4.6
 20
75.4
  0
LWPOLYLINE
  5
145
330
17
100
AcDbEntity
  8
WALING_OUTLINE
100
AcDbPolyline
 90
5
 70
1
 10
37.666667000000004
 20
75.4
 10
37.666667000000004
 20
74.6
 10
26.0
 20
74.6
 10
26.0
 20
75.4
 10
37.666667000000004
 20
75.4
  0
LWPOLYLINE
  5
146
330
17
100
AcDbEntity
  8
WALING_OUTLINE
100
AcDbPolyline
 90
5
 70
1
 10
45.666667000000004
 20
75.4
 10
45.666667000000004
 20
74.6
 10
37.666667000000004
 20
74.6
 10
37.666667000000004
 20
75.4
 10
45.666667000000004
 20
75.4
  0
LWPOLYLINE
  5
147
330
17
100
AcDbEntity
  8
WALING_OUTLINE
100
AcDbPolyline
 90
5
 70
1
 10
55.222222
 20
75.4
 10
55.222222
 20
74.6
 10
45.666667000000004
 20
74.6
 10
45.666667000000004
 20
75.4
 10
55.222222
 20
75.4
  0
LWPOLYLINE
  5
148
330
17
100
AcDbEntity
  8
WALING_OUTLINE
100
AcDbPolyline
 90
5
 70
1
 10
64.77777800000001
 20
75.4
 10
64.77777800000001
 20
74.6
 10
55.222222
 20
74.6
 10
55.222222
 20
75.4
 10
64.77777800000001
 20
75.4
  0
LWPOLYLINE
  5
149
330
17
100
AcDbEntity
  8
WALING_OUTLINE
100
AcDbPolyline
 90
5
 70
1
 10
74.33333300000001
 20
75.4
 10
74.33333300000001
 20
74.6
 10
64.77777800000001
 20
74.6
 10
64.77777800000001
 20
75.4
 10
74.33333300000001
 20
75.4
  0
LWPOLYLINE
  5
14A
330
17
100
AcDbEntity
  8
WALING_OUTLINE
100
AcDbPolyline
 90
5
 70
1
 10
82.33333300000001
 20
75.4
 10
82.33333300000001
 20
74.6
 10
74.33333300000001
 20
74.6
 10
74.33333300000001
 20
75.4
 10
82.33333300000001
 20
75.4
  0
LWPOLYLINE
  5
14B
330
17
100
AcDbEntity
  8
WALING_OUTLINE
100
AcDbPolyline
 90
5
 70
1
 10
94.0
 20
75.4
 10
94.0
 20
74.6
 10
82.33333300000001
 20
74.6
 10
82.33333300000001
 20
75.4
 10
94.0
 20
75.4
  0
LWPOLYLINE
  5
14C
330
17
100
AcDbEntity
  8
WALING_OUTLINE
100
AcDbPolyline
 90
7
 70
1
 10
115.4
 20
75.4
 10
115.4
 20
54.0
 10
114.6
 20
54.0
 10
114.6
 20
74.6
 10
94.0
 20
74.6
 10
94.0
 20
75.4
 10
115.4
 20
75.4
  0
LWPOLYLINE
  5
14D
330
17
100
AcDbEntity
  8
WALING_OUTLINE
100
AcDbPolyline
 90
5
 70
1
 10
115.4
 20
44.0
 10
114.6
 20
44.0
 10
114.6
 20
54.0
 10
115.4
 20
54.0
 10
115.4
 20
44.0
  0
LWPOLYLINE
  5
14E
330
17
100
AcDbEntity
  8
WALING_OUTLINE
100
AcDbPolyline
 90
5
 70
1
 10
115.4
 20
36.0
 10
114.6
 20
36.0
 10
114.6
 20
44.0
 10
115.4
 20
44.0
 10
115.4
 20
36.0
  0
LWPOLYLINE
  5
14F
330
17
100
AcDbEntity
  8
WALING_OUTLINE
100
AcDbPolyline
 90
5
 70
1
 10
115.4
 20
26.0
 10
114.6
 20
26.0
 10
114.6
 20
36.0
 10
115.4
 20
36.0
 10
115.4
 20
26.0
  0
LWPOLYLINE
  5
150
330
17
100
AcDbEntity
  8
WALING_OUTLINE
100
AcDbPolyline
 90
7
 70
1
 10
115.4
 20
4.6
 10
94.0
 20
4.6
 10
94.0
 20
5.4
 10
114.6
 20
5.4
 10
114.6
 20
26.0
 10
115.4
 20
26.0
 10
115.4
 20
4.6
  0
LWPOLYLINE
  5
151
330
17
100
AcDbEntity
  8
WALING_OUTLINE
100
AcDbPolyline
 90
5
 70
1
 10
82.33333299999998
 20
4.6
 10
82.33333299999998
 20
5.4
 10
94.0
 20
5.4
 10
94.0
 20
4.6
 10
82.33333299999998
 20
4.6
  0
LWPOLYLINE
  5
152
330
17
100
AcDbEntity
  8
WALING_OUTLINE
100
AcDbPolyline
 90
5
 70
1
 10
74.33333299999998
 20
4.6
 10
74.33333299999998
 20
5.4
 10
82.33333299999998
 20
5.4
 10
82.33333299999998
 20
4.6
 10
74.33333299999998
 20
4.6
  0
LWPOLYLINE
  5
153
330
17
100
AcDbEntity
  8
WALING_OUTLINE
100
AcDbPolyline
 90
5
 70
1
 10
64.77777800000001
 20
4.6
 10
64.77777800000001
 20
5.4
 10
74.33333299999998
 20
5.4
 10
74.33333299999998
 20
4.6
 10
64.77777800000001
 20
4.6
  0
LWPOLYLINE
  5
154
330
17
100
AcDbEntity
  8
WALING_OUTLINE
100
AcDbPolyline
 90
5
 70
1
 10
55.22222199999998
 20
4.6
 10
55.22222199999998
 20
5.4
 10
64.77777800000001
 20
5.4
 10
64.77777800000001
 20
4.6
 10
55.22222199999998
 20
4.6
  0
LWPOLYLINE
  5
155
330
17
100
AcDbEntity
  8
WALING_OUTLINE
100
AcDbPolyline
 90
5
 70
1
 10
45.66666700000002
 20
4.6
 10
45.66666700000002
 20
5.4
 10
55.22222199999998
 20
5.4
 10
55.22222199999998
 20
4.6
 10
45.66666700000002
 20
4.6
  0
LWPOLYLINE
  5
156
330
17
100
AcDbEntity
  8
WALING_OUTLINE
100
AcDbPolyline
 90
5
 70
1
 10
37.66666700000002
 20
4.6
 10
37.66666700000002
 20
5.4
 10
45.66666700000002
 20
5.4
 10
45.66666700000002
 20
4.6
 10
37.66666700000002
 20
4.6
  0
LWPOLYLINE
  5
157
330
17
100
AcDbEntity
  8
WALING_OUTLINE
100
AcDbPolyline
 90
5
 70
1
 10
26.0
 20
4.6
 10
26.0
 20
5.4
 10
37.66666700000002
 20
5.4
 10
37.66666700000002
 20
4.6
 10
26.0
 20
4.6
  0
LWPOLYLINE
  5
158
330
17
100
AcDbEntity
  8
WALING_OUTLINE
100
AcDbPolyline
 90
5
 70
1
 10
5.0
 20
4.6
 10
5.0
 20
5.4
 10
26.0
 20
5.4
 10
26.0
 20
4.6
 10
5.0
 20
4.6
  0
LWPOLYLINE
  5
159
330
17
100
AcDbEntity
  8
STRUT_OUTLINE
100
AcDbPolyline
 90
5
 70
1
 10
37.266667
 20
8.6
 10
38.066666999999995
 20
8.6
 10
38.066666999999995
 20
5.0
 10
37.266667
 20
5.0
 10
37.266667
 20
8.6
  0
LWPOLYLINE
  5
15A
330
17
100
AcDbEntity
  8
STRUT_OUTLINE
100
AcDbPolyline
 90
5
 70
1
 10
37.266667
 20
16.666667
 10
38.066666999999995
 20
16.666667
 10
38.066666999999995
 20
8.6
 10
37.266667
 20
8.6
 10
37.266667
 20
16.666667
  0
LWPOLYLINE
  5
15B
330
17
100
AcDbEntity
  8
STRUT_OUTLINE
100
AcDbPolyline
 90
5
 70
1
 10
37.266667
 20
28.333333
 10
38.066666999999995
 20
28.333333
 10
38.066666999999995
 20
16.666667
 10
37.266667
 20
16.666667
 10
37.266667
 20
28.333333
  0
LWPOLYLINE
  5
15C
330
17
100
AcDbEntity
  8
STRUT_OUTLINE
100
AcDbPolyline
 90
5
 70
1
 10
37.266667
 20
36.0
 10
38.066666999999995
 20
36.0
 10
38.066666999999995
 20
28.333333
 10
37.266667
 20
28.333333
 10
37.266667
 20
36.0
  0
LWPOLYLINE
  5
15D
330
17
100
AcDbEntity
  8
STRUT_OUTLINE
100
AcDbPolyline
 90
5
 70
1
 10
37.266667
 20
40.0
 10
38.066666999999995
 20
40.0
 10
38.066666999999995
 20
36.0
 10
37.266667
 20
36.0
 10
37.266667
 20
40.0
  0
LWPOLYLINE
  5
15E
330
17
100
AcDbEntity
  8
STRUT_OUTLINE
100
AcDbPolyline
 90
5
 70
1
 10
37.266667
 20
44.0
 10
38.066666999999995
 20
44.0
 10
38.066666999999995
 20
40.0
 10
37.266667
 20
40.0
 10
37.266667
 20
44.0
  0
LWPOLYLINE
  5
15F
330
17
100
AcDbEntity
  8
STRUT_OUTLINE
100
AcDbPolyline
 90
5
 70
1
 10
37.266667
 20
51.666667
 10
38.066666999999995
 20
51.666667
 10
38.066666999999995
 20
44.0
 10
37.266667
 20
44.0
 10
37.266667
 20
51.666667
  0
LWPOLYLINE
  5
160
330
17
100
AcDbEntity
  8
STRUT_OUTLINE
100
AcDbPolyline
 90
5
 70
1
 10
37.266667
 20
63.333333
 10
38.066666999999995
 20
63.333333
 10
38.066666999999995
 20
51.666667
 10
37.266667
 20
51.666667
 10
37.266667
 20
63.333333
  0
LWPOLYLINE
  5
161
330
17
100
AcDbEntity
  8
STRUT_OUTLINE
100
AcDbPolyline
 90
5
 70
1
 10
37.266667
 20
71.4
 10
38.066666999999995
 20
71.4
 10
38.066666999999995
 20
63.333333
 10
37.266667
 20
63.333333
 10
37.266667
 20
71.4
  0
LWPOLYLINE
  5
162
330
17
100
AcDbEntity
  8
STRUT_OUTLINE
100
AcDbPolyline
 90
5
 70
1
 10
37.266667
 20
75.0
 10
38.066666999999995
 20
75.0
 10
38.066666999999995
 20
71.4
 10
37.266667
 20
71.4
 10
37.266667
 20
75.0
  0
LWPOLYLINE
  5
163
330
17
100
AcDbEntity
  8
STRUT_OUTLINE
100
AcDbPolyline
 90
5
 70
1
 10
45.266667
 20
8.6
 10
46.066666999999995
 20
8.6
 10
46.066666999999995
 20
5.0
 10
45.266667
 20
5.0
 10
45.266667
 20
8.6
  0
LWPOLYLINE
  5
164
330
17
100
AcDbEntity
  8
STRUT_OUTLINE
100
AcDbPolyline
 90
5
 70
1
 10
45.266667
 20
16.666667
 10
46.066666999999995
 20
16.666667
 10
46.066666999999995
 20
8.6
 10
45.266667
 20
8.6
 10
45.266667
 20
16.666667
  0
LWPOLYLINE
  5
165
330
17
100
AcDbEntity
  8
STRUT_OUTLINE
100
AcDbPolyline
 90
5
 70
1
 10
45.266667
 20
28.333333
 10
46.066666999999995
 20
28.333333
 10
46.066666999999995
 20
16.666667
 10
45.266667
 20
16.666667
 10
45.266667
 20
28.333333
  0
LWPOLYLINE
  5
166
330
17
100
AcDbEntity
  8
STRUT_OUTLINE
100
AcDbPolyline
 90
5
 70
1
 10
45.266667
 20
36.0
 10
46.066666999999995
 20
36.0
 10
46.066666999999995
 20
28.333333
 10
45.266667
 20
28.333333
 10
45.266667
 20
36.0
  0
LWPOLYLINE
  5
167
330
17
100
AcDbEntity
  8
STRUT_OUTLINE
100
AcDbPolyline
 90
5
 70
1
 10
45.266667
 20
40.0
 10
46.066666999999995
 20
40.0
 10
46.066666999999995
 20
36.0
 10
45.266667
 20
36.0
 10
45.266667
 20
40.0
  0
LWPOLYLINE
  5
168
330
17
100
AcDbEntity
  8
STRUT_OUTLINE
100
AcDbPolyline
 90
5
 70
1
 10
45.266667
 20
44.0
 10
46.066666999999995
 20
44.0
 10
46.066666999999995
 20
40.0
 10
45.266667
 20
40.0
 10
45.266667
 20
44.0
  0
LWPOLYLINE
  5
169
330
17
100
AcDbEntity
  8
STRUT_OUTLINE
100
AcDbPolyline
 90
5
 70
1
 10
45.266667
 20
51.666667
 10
46.066666999999995
 20
51.666667
 10
46.066666999999995
 20
44.0
 10
45.266667
 20
44.0
 10
45.266667
 20
51.666667
  0
LWPOLYLINE
  5
16A
330
17
100
AcDbEntity
  8
STRUT_OUTLINE
100
AcDbPolyline
 90
5
 70
1
 10
45.266667
 20
63.333333
 10
46.066666999999995
 20
63.333333
 10
46.066666999999995
 20
51.666667
 10
45.266667
 20
51.666667
 10
45.266667
 20
63.333333
  0
LWPOLYLINE
  5
16B
330
17
100
AcDbEntity
  8
STRUT_OUTLINE
100
AcDbPolyline
 90
5
 70
1
 10
45.266667
 20
71.4
 10
46.066666999999995
 20
71.4
 10
46.066666999999995
 20
63.333333
 10
45.266667
 20
63.333333
 10
45.266667
 20
71.4
  0
LWPOLYLINE
  5
16C
330
17
100
AcDbEntity
  8
STRUT_OUTLINE
100
AcDbPolyline
 90
5
 70
1
 10
45.266667
 20
75.0
 10
46.066666999999995
 20
75.0
 10
46.066666999999995
 20
71.4
 10
45.266667
 20
71.4
 10
45.266667
 20
75.0
  0
LWPOLYLINE
  5
16D
330
17
100
AcDbEntity
  8
STRUT_OUTLINE
100
AcDbPolyline
 90
5
 70
1
 10
73.93333299999999
 20
8.6
 10
74.733333
 20
8.6
 10
74.733333
 20
5.0
 10
73.93333299999999
 20
5.0
 10
73.93333299999999
 20
8.6
  0
LWPOLYLINE
  5
16E
330
17
100
AcDbEntity
  8
STRUT_OUTLINE
100
AcDbPolyline
 90
5
 70
1
 10
73.93333299999999
 20
16.666667
 10
74.733333
 20
16.666667
 10
74.733333
 20
8.6
 10
73.93333299999999
 20
8.6
 10
73.93333299999999
 20
16.666667
  0
LWPOLYLINE
  5
16F
330
17
100
AcDbEntity
  8
STRUT_OUTLINE
100
AcDbPolyline
 90
5
 70
1
 10
73.93333299999999
 20
28.333333
 10
74.733333
 20
28.333333
 10
74.733333
 20
16.666667
 10
73.93333299999999
 20
16.666667
 10
73.93333299999999
 20
28.333333
  0
LWPOLYLINE
  5
170
330
17
100
AcDbEntity
  8
STRUT_OUTLINE
100
AcDbPolyline
 90
5
 70
1
 10
73.93333299999999
 20
36.0
 10
74.733333
 20
36.0
 10
74.733333
 20
28.333333
 10
73.93333299999999
 20
28.333333
 10
73.93333299999999
 20
36.0
  0
LWPOLYLINE
  5
171
330
17
100
AcDbEntity
  8
STRUT_OUTLINE
100
AcDbPolyline
 90
5
 70
1
 10
73.93333299999999
 20
40.0
 10
74.733333
 20
40.0
 10
74.733333
 20
36.0
 10
73.93333299999999
 20
36.0
 10
73.93333299999999
 20
40.0
  0
LWPOLYLINE
  5
172
330
17
100
AcDbEntity
  8
STRUT_OUTLINE
100
AcDbPolyline
 90
5
 70
1
 10
73.93333299999999
 20
44.0
 10
74.733333
 20
44.0
 10
74.733333
 20
40.0
 10
73.93333299999999
 20
40.0
 10
73.93333299999999
 20
44.0
  0
LWPOLYLINE
  5
173
330
17
100
AcDbEntity
  8
STRUT_OUTLINE
100
AcDbPolyline
 90
5
 70
1
 10
73.93333299999999
 20
51.666667
 10
74.733333
 20
51.666667
 10
74.733333
 20
44.0
 10
73.93333299999999
 20
44.0
 10
73.93333299999999
 20
51.666667
  0
LWPOLYLINE
  5
174
330
17
100
AcDbEntity
  8
STRUT_OUTLINE
100
AcDbPolyline
 90
5
 70
1
 10
73.93333299999999
 20
63.333333
 10
74.733333
 20
63.333333
 10
74.733333
 20
51.666667
 10
73.93333299999999
 20
51.666667
 10
73.93333299999999
 20
63.333333
  0
LWPOLYLINE
  5
175
330
17
100
AcDbEntity
  8
STRUT_OUTLINE
100
AcDbPolyline
 90
5
 70
1
 10
73.93333299999999
 20
71.4
 10
74.733333
 20
71.4
 10
74.733333
 20
63.333333
 10
73.93333299999999
 20
63.333333
 10
73.93333299999999
 20
71.4
  0
LWPOLYLINE
  5
176
330
17
100
AcDbEntity
  8
STRUT_OUTLINE
100
AcDbPolyline
 90
5
 70
1
 10
73.93333299999999
 20
75.0
 10
74.733333
 20
75.0
 10
74.733333
 20
71.4
 10
73.93333299999999
 20
71.4
 10
73.93333299999999
 20
75.0
  0
LWPOLYLINE
  5
177
330
17
100
AcDbEntity
  8
STRUT_OUTLINE
100
AcDbPolyline
 90
5
 70
1
 10
81.93333299999999
 20
8.6
 10
82.733333
 20
8.6
 10
82.733333
 20
5.0
 10
81.93333299999999
 20
5.0
 10
81.93333299999999
 20
8.6
  0
LWPOLYLINE
  5
178
330
17
100
AcDbEntity
  8
STRUT_OUTLINE
100
AcDbPolyline
 90
5
 70
1
 10
81.93333299999999
 20
16.666667
 10
82.733333
 20
16.666667
 10
82.733333
 20
8.6
 10
81.93333299999999
 20
8.6
 10
81.93333299999999
 20
16.666667
  0
LWPOLYLINE
  5
179
330
17
100
AcDbEntity
  8
STRUT_OUTLINE
100
AcDbPolyline
 90
5
 70
1
 10
81.93333299999999
 20
28.333333
 10
82.733333
 20
28.333333
 10
82.733333
 20
16.666667
 10
81.93333299999999
 20
16.666667
 10
81.93333299999999
 20
28.333333
  0
LWPOLYLINE
  5
17A
330
17
100
AcDbEntity
  8
STRUT_OUTLINE
100
AcDbPolyline
 90
5
 70
1
 10
81.93333299999999
 20
36.0
 10
82.733333
 20
36.0
 10
82.733333
 20
28.333333
 10
81.93333299999999
 20
28.333333
 10
81.93333299999999
 20
36.0
  0
LWPOLYLINE
  5
17B
330
17
100
AcDbEntity
  8
STRUT_OUTLINE
100
AcDbPolyline
 90
5
 70
1
 10
81.93333299999999
 20
40.0
 10
82.733333
 20
40.0
 10
82.733333
 20
36.0
 10
81.93333299999999
 20
36.0
 10
81.93333299999999
 20
40.0
  0
LWPOLYLINE
  5
17C
330
17
100
AcDbEntity
  8
STRUT_OUTLINE
100
AcDbPolyline
 90
5
 70
1
 10
81.93333299999999
 20
44.0
 10
82.733333
 20
44.0
 10
82.733333
 20
40.0
 10
81.93333299999999
 20
40.0
 10
81.93333299999999
 20
44.0
  0
LWPOLYLINE
  5
17D
330
17
100
AcDbEntity
  8
STRUT_OUTLINE
100
AcDbPolyline
 90
5
 70
1
 10
81.93333299999999
 20
51.666667
 10
82.733333
 20
51.666667
 10
82.733333
 20
44.0
 10
81.93333299999999
 20
44.0
 10
81.93333299999999
 20
51.666667
  0
LWPOLYLINE
  5
17E
330
17
100
AcDbEntity
  8
STRUT_OUTLINE
100
AcDbPolyline
 90
5
 70
1
 10
81.93333299999999
 20
63.333333
 10
82.733333
 20
63.333333
 10
82.733333
 20
51.666667
 10
81.93333299999999
 20
51.666667
 10
81.93333299999999
 20
63.333333
  0
LWPOLYLINE
  5
17F
330
17
100
AcDbEntity
  8
STRUT_OUTLINE
100
AcDbPolyline
 90
5
 70
1
 10
81.93333299999999
 20
71.4
 10
82.733333
 20
71.4
 10
82.733333
 20
63.333333
 10
81.93333299999999
 20
63.333333
 10
81.93333299999999
 20
71.4
  0
LWPOLYLINE
  5
180
330
17
100
AcDbEntity
  8
STRUT_OUTLINE
100
AcDbPolyline
 90
5
 70
1
 10
81.93333299999999
 20
75.0
 10
82.733333
 20
75.0
 10
82.733333
 20
71.4
 10
81.93333299999999
 20
71.4
 10
81.93333299999999
 20
75.0
  0
LWPOLYLINE
  5
181
330
17
100
AcDbEntity
  8
STRUT_OUTLINE
100
AcDbPolyline
 90
5
 70
1
 10
8.6
 20
36.4
 10
8.6
 20
35.6
 10
5.0
 20
35.6
 10
5.0
 20
36.4
 10
8.6
 20
36.4
  0
LWPOLYLINE
  5
182
330
17
100
AcDbEntity
  8
STRUT_OUTLINE
100
AcDbPolyline
 90
5
 70
1
 10
15.888889
 20
36.4
 10
15.888889
 20
35.6
 10
8.6
 20
35.6
 10
8.6
 20
36.4
 10
15.888889
 20
36.4
  0
LWPOLYLINE
  5
183
330
17
100
AcDbEntity
  8
STRUT_OUTLINE
100
AcDbPolyline
 90
5
 70
1
 10
26.777778
 20
36.4
 10
26.777778
 20
35.6
 10
15.888889
 20
35.6
 10
15.888889
 20
36.4
 10
26.777778
 20
36.4
  0
LWPOLYLINE
  5
184
330
17
100
AcDbEntity
  8
STRUT_OUTLINE
100
AcDbPolyline
 90
5
 70
1
 10
37.666667
 20
36.4
 10
37.666667
 20
35.6
 10
26.777778
 20
35.6
 10
26.777778
 20
36.4
 10
37.666667
 20
36.4
  0
LWPOLYLINE
  5
185
330
17
100
AcDbEntity
  8
STRUT_OUTLINE
100
AcDbPolyline
 90
5
 70
1
 10
45.666667
 20
36.4
 10
45.666667
 20
35.6
 10
37.666667
 20
35.6
 10
37.666667
 20
36.4
 10
45.666667
 20
36.4
  0
LWPOLYLINE
  5
186
330
17
100
AcDbEntity
  8
STRUT_OUTLINE
100
AcDbPolyline
 90
5
 70
1
 10
55.222222
 20
36.4
 10
55.222222
 20
35.6
 10
45.666667
 20
35.6
 10
45.666667
 20
36.4
 10
55.222222
 20
36.4
  0
LWPOLYLINE
  5
187
330
17
100
AcDbEntity
  8
STRUT_OUTLINE
100
AcDbPolyline
 90
5
 70
1
 10
64.77777799999998
 20
36.4
 10
64.77777799999998
 20
35.6
 10
55.222222
 20
35.6
 10
55.222222
 20
36.4
 10
64.77777799999998
 20
36.4
  0
LWPOLYLINE
  5
188
330
17
100
AcDbEntity
  8
STRUT_OUTLINE
100
AcDbPolyline
 90
5
 70
1
 10
74.333333
 20
36.4
 10
74.333333
 20
35.6
 10
64.77777799999998
 20
35.6
 10
64.77777799999998
 20
36.4
 10
74.333333
 20
36.4
  0
LWPOLYLINE
  5
189
330
17
100
AcDbEntity
  8
STRUT_OUTLINE
100
AcDbPolyline
 90
5
 70
1
 10
82.333333
 20
36.4
 10
82.333333
 20
35.6
 10
74.333333
 20
35.6
 10
74.333333
 20
36.4
 10
82.333333
 20
36.4
  0
LWPOLYLINE
  5
18A
330
17
100
AcDbEntity
  8
STRUT_OUTLINE
100
AcDbPolyline
 90
5
 70
1
 10
93.222222
 20
36.4
 10
93.222222
 20
35.6
 10
82.333333
 20
35.6
 10
82.333333
 20
36.4
 10
93.222222
 20
36.4
  0
LWPOLYLINE
  5
18B
330
17
100
AcDbEntity
  8
STRUT_OUTLINE
100
AcDbPolyline
 90
5
 70
1
 10
104.111111
 20
36.4
 10
104.111111
 20
35.6
 10
93.222222
 20
35.6
 10
93.222222
 20
36.4
 10
104.111111
 20
36.4
  0
LWPOLYLINE
  5
18C
330
17
100
AcDbEntity
  8
STRUT_OUTLINE
100
AcDbPolyline
 90
5
 70
1
 10
111.4
 20
36.4
 10
111.4
 20
35.6
 10
104.111111
 20
35.6
 10
104.111111
 20
36.4
 10
111.4
 20
36.4
  0
LWPOLYLINE
  5
18D
330
17
100
AcDbEntity
  8
STRUT_OUTLINE
100
AcDbPolyline
 90
5
 70
1
 10
115.0
 20
36.4
 10
115.0
 20
35.6
 10
111.4
 20
35.6
 10
111.4
 20
36.4
 10
115.0
 20
36.4
  0
LWPOLYLINE
  5
18E
330
17
100
AcDbEntity
  8
STRUT_OUTLINE
100
AcDbPolyline
 90
5
 70
1
 10
8.6
 20
44.4
 10
8.6
 20
43.6
 10
5.0
 20
43.6
 10
5.0
 20
44.4
 10
8.6
 20
44.4
  0
LWPOLYLINE
  5
18F
330
17
100
AcDbEntity
  8
STRUT_OUTLINE
100
AcDbPolyline
 90
5
 70
1
 10
15.888889
 20
44.4
 10
15.888889
 20
43.6
 10
8.6
 20
43.6
 10
8.6
 20
44.4
 10
15.888889
 20
44.4
  0
LWPOLYLINE
  5
190
330
17
100
AcDbEntity
  8
STRUT_OUTLINE
100
AcDbPolyline
 90
5
 70
1
 10
26.777778
 20
44.4
 10
26.777778
 20
43.6
 10
15.888889
 20
43.6
 10
15.888889
 20
44.4
 10
26.777778
 20
44.4
  0
LWPOLYLINE
  5
191
330
17
100
AcDbEntity
  8
STRUT_OUTLINE
100
AcDbPolyline
 90
5
 70
1
 10
37.666667
 20
44.4
 10
37.666667
 20
43.6
 10
26.777778
 20
43.6
 10
26.777778
 20
44.4
 10
37.666667
 20
44.4
  0
LWPOLYLINE
  5
192
330
17
100
AcDbEntity
  8
STRUT_OUTLINE
100
AcDbPolyline
 90
5
 70
1
 10
45.666667
 20
44.4
 10
45.666667
 20
43.6
 10
37.666667
 20
43.6
 10
37.666667
 20
44.4
 10
45.666667
 20
44.4
  0
LWPOLYLINE
  5
193
330
17
100
AcDbEntity
  8
STRUT_OUTLINE
100
AcDbPolyline
 90
5
 70
1
 10
55.222222
 20
44.4
 10
55.222222
 20
43.6
 10
45.666667
 20
43.6
 10
45.666667
 20
44.4
 10
55.222222
 20
44.4
  0
LWPOLYLINE
  5
194
330
17
100
AcDbEntity
  8
STRUT_OUTLINE
100
AcDbPolyline
 90
5
 70
1
 10
64.77777799999998
 20
44.4
 10
64.77777799999998
 20
43.6
 10
55.222222
 20
43.6
 10
55.222222
 20
44.4
 10
64.77777799999998
 20
44.4
  0
LWPOLYLINE
  5
195
330
17
100
AcDbEntity
  8
STRUT_OUTLINE
100
AcDbPolyline
 90
5
 70
1
 10
74.333333
 20
44.4
 10
74.333333
 20
43.6
 10
64.77777799999998
 20
43.6
 10
64.77777799999998
 20
44.4
 10
74.333333
 20
44.4
  0
LWPOLYLINE
  5
196
330
17
100
AcDbEntity
  8
STRUT_OUTLINE
100
AcDbPolyline
 90
5
 70
1
 10
82.333333
 20
44.4
 10
82.333333
 20
43.6
 10
74.333333
 20
43.6
 10
74.333333
 20
44.4
 10
82.333333
 20
44.4
  0
LWPOLYLINE
  5
197
330
17
100
AcDbEntity
  8
STRUT_OUTLINE
100
AcDbPolyline
 90
5
 70
1
 10
93.222222
 20
44.4
 10
93.222222
 20
43.6
 10
82.333333
 20
43.6
 10
82.333333
 20
44.4
 10
93.222222
 20
44.4
  0
LWPOLYLINE
  5
198
330
17
100
AcDbEntity
  8
STRUT_OUTLINE
100
AcDbPolyline
 90
5
 70
1
 10
104.111111
 20
44.4
 10
104.111111
 20
43.6
 10
93.222222
 20
43.6
 10
93.222222
 20
44.4
 10
104.111111
 20
44.4
  0
LWPOLYLINE
  5
199
330
17
100
AcDbEntity
  8
STRUT_OUTLINE
100
AcDbPolyline
 90
5
 70
1
 10
111.4
 20
44.4
 10
111.4
 20
43.6
 10
104.111111
 20
43.6
 10
104.111111
 20
44.4
 10
111.4
 20
44.4
  0
LWPOLYLINE
  5
19A
330
17
100
AcDbEntity
  8
STRUT_OUTLINE
100
AcDbPolyline
 90
5
 70
1
 10
115.0
 20
44.4
 10
115.0
 20
43.6
 10
111.4
 20
43.6
 10
111.4
 20
44.4
 10
115.0
 20
44.4
  0
LWPOLYLINE
  5
19B
330
17
100
AcDbEntity
  8
STRUT_OUTLINE
100
AcDbPolyline
 90
5
 70
1
 10
8.223644965994831
 20
36.13548759492666
 10
8.976354895489811
 20
35.86451202030847
 10
5.376354964747491
 20
25.864512212690904
 10
4.623645035252509
 20
26.135487787309096
 10
8.223644965994831
 20
36.13548759492666
  0
LWPOLYLINE
  5
19C
330
17
100
AcDbEntity
  8
STRUT_OUTLINE
100
AcDbPolyline
 90
5
 70
1
 10
6.435231578446204
 20
39.83585372792127
 10
7.164768782586289
 20
40.16414546978431
 10
8.964768602070043
 20
36.16414587093152
 10
8.235231397929956
 20
35.83585412906848
 10
6.435231578446204
 20
39.83585372792127
  0
LWPOLYLINE
  5
19D
330
17
100
AcDbEntity
  8
STRUT_OUTLINE
100
AcDbPolyline
 90
5
 70
1
 10
4.6352313979299575
 20
43.83585412906848
 10
5.3647686020700425
 20
44.16414587093152
 10
7.164768782586289
 20
40.16414546978431
 10
6.435231578446204
 20
39.83585372792127
 10
4.6352313979299575
 20
43.83585412906848
  0
LWPOLYLINE
  5
19E
330
17
100
AcDbEntity
  8
STRUT_OUTLINE
100
AcDbPolyline
 90
5
 70
1
 10
8.223644965994831
 20
54.13548759492666
 10
8.976354895489811
 20
53.86451202030847
 10
5.376354964747491
 20
43.864512212690904
 10
4.623645035252509
 20
44.135487787309096
 10
8.223644965994831
 20
54.13548759492666
  0
LWPOLYLINE
  5
19F
330
17
100
AcDbEntity
  8
TRUSS_CHORD
100
AcDbPolyline
 90
5
 70
1
 10
37.666667
 20
75.4
 10
37.666667
 20
74.6
 10
26.0
 20
74.6
 10
26.0
 20
75.4
 10
37.666667
 20
75.4
  0
LWPOLYLINE
  5
1A0
330
17
100
AcDbEntity
  8
TRUSS_CHORD
100
AcDbPolyline
 90
5
 70
1
 10
37.666667
 20
71.80000000000001
 10
37.666667
 20
71.0
 10
26.0
 20
71.0
 10
26.0
 20
71.80000000000001
 10
37.666667
 20
71.80000000000001
  0
LWPOLYLINE
  5
1A1
330
17
100
AcDbEntity
  8
STRUT_OUTLINE
100
AcDbPolyline
 90
5
 70
1
 10
37.784607859655274
 20
71.78221715506233
 10
37.54872535413097
 20
71.01778308754076
 10
25.88205874723785
 20
74.61778296623922
 10
26.11794125276215
 20
75.38221703376078
 10
37.784607859655274
 20
71.78221715506233
  0
LWPOLYLINE
  5
1A2
330
17
100
AcDbEntity
  8
STRUT_OUTLINE
100
AcDbPolyline
 90
5
 70
1
 10
41.502520727921265
 20
73.56476842155381
 10
41.830812469784306
 20
72.83523121741372
 10
37.83081287093152
 20
71.03523139792996
 10
37.50252112906848
 20
71.76476860207005
 10
41.502520727921265
 20
73.56476842155381
  0
LWPOLYLINE
  5
1A3
330
17
100
AcDbEntity
  8
STRUT_OUTLINE
100
AcDbPolyline
 90
5
 70
1
 10
45.50252112906848
 20
75.36476860207004
 10
45.83081287093152
 20
74.63523139792996
 10
41.830812469784306
 20
72.83523121741372
 10
41.502520727921265
 20
73.56476842155381
 10
45.50252112906848
 20
75.36476860207004
  0
LWPOLYLINE
  5
1A4
330
17
100
AcDbEntity
  8
TRUSS_CHORD
100
AcDbPolyline
 90
5
 70
1
 10
55.222221999999995
 20
75.4
 10
55.222221999999995
 20
74.6
 10
45.666667
 20
74.6
 10
45.666667
 20
75.4
 10
55.222221999999995
 20
75.4
  0
LWPOLYLINE
  5
1A5
330
17
100
AcDbEntity
  8
TRUSS_CHORD
100
AcDbPolyline
 90
5
 70
1
 10
55.222221999999995
 20
71.80000000000001
 10
55.222221999999995
 20
71.0
 10
45.666667
 20
71.0
 10
45.666667
 20
71.80000000000001
 10
55.222221999999995
 20
71.80000000000001
  0
LWPOLYLINE
  5
1A6
330
17
100
AcDbEntity
  8
STRUT_OUTLINE
100
AcDbPolyline
 90
5
 70
1
 10
55.363243353969274
 20
71.77431668106665
 10
55.08120014239183
 20
71.02568350867641
 10
45.525645394211274
 20
74.62568341380488
 10
45.80768860578872
 20
75.37431658619512
 10
55.363243353969274
 20
71.77431668106665
  0
LWPOLYLINE
  5
1A7
330
17
100
AcDbEntity
  8
TRUSS_CHORD
100
AcDbPolyline
 90
5
 70
1
 10
64.777778
 20
75.4
 10
64.777778
 20
74.6
 10
55.222222
 20
74.6
 10
55.222222
 20
75.4
 10
64.777778
 20
75.4
  0
LWPOLYLINE
  5
1A8
330
17
100
AcDbEntity
  8
TRUSS_CHORD
100
AcDbPolyline
 90
5
 70
1
 10
64.777778
 20
71.80000000000001
 10
64.777778
 20
71.0
 10
55.222222
 20
71.0
 10
55.222222
 20
71.80000000000001
 10
64.777778
 20
71.80000000000001
  0
LWPOLYLINE
  5
1A9
330
17
100
AcDbEntity
  8
STRUT_OUTLINE
100
AcDbPolyline
 90
5
 70
1
 10
64.63675621540136
 20
75.37431651882952
 10
64.91879940113134
 20
74.6256833367014
 10
55.36324359286499
 20
71.02568340893595
 10
55.081200407135015
 20
71.77431659106406
 10
64.63675621540136
 20
75.37431651882952
  0
LWPOLYLINE
  5
1AA
330
17
100
AcDbEntity
  8
TRUSS_CHORD
100
AcDbPolyline
 90
5
 70
1
 10
74.333333
 20
75.4
 10
74.333333
 20
74.6
 10
64.777778
 20
74.6
 10
64.777778
 20
75.4
 10
74.333333
 20
75.4
  0
LWPOLYLINE
  5
1AB
330
17
100
AcDbEntity
  8
TRUSS_CHORD
100
AcDbPolyline
 90
5
 70
1
 10
74.333333
 20
71.80000000000001
 10
74.333333
 20
71.0
 10
64.777778
 20
71.0
 10
64.777778
 20
71.80000000000001
 10
74.333333
 20
71.80000000000001
  0
LWPOLYLINE
  5
1AC
330
17
100
AcDbEntity
  8
STRUT_OUTLINE
100
AcDbPolyline
 90
5
 70
1
 10
74.47435435396928
 20
71.77431668106664
 10
74.19231114239183
 20
71.0256835086764
 10
64.63675639421128
 20
74.62568341380488
 10
64.91879960578872
 20
75.37431658619512
 10
74.47435435396928
 20
71.77431668106664
  0
LWPOLYLINE
  5
1AD
330
17
100
AcDbEntity
  8
STRUT_OUTLINE
100
AcDbPolyline
 90
5
 70
1
 10
78.16918672792126
 20
73.56476842155381
 10
78.4974784697843
 20
72.83523121741372
 10
74.49747887093152
 20
71.03523139792996
 10
74.16918712906848
 20
71.76476860207005
 10
78.16918672792126
 20
73.56476842155381
  0
LWPOLYLINE
  5
1AE
330
17
100
AcDbEntity
  8
STRUT_OUTLINE
100
AcDbPolyline
 90
5
 70
1
 10
82.16918712906848
 20
75.36476860207004
 10
82.49747887093152
 20
74.63523139792996
 10
78.4974784697843
 20
72.83523121741372
 10
78.16918672792126
 20
73.56476842155381
 10
82.16918712906848
 20
75.36476860207004
  0
LWPOLYLINE
  5
1AF
330
17
100
AcDbEntity
  8
TRUSS_CHORD
100
AcDbPolyline
 90
5
 70
1
 10
94.0
 20
75.4
 10
94.0
 20
74.6
 10
82.333333
 20
74.6
 10
82.333333
 20
75.4
 10
94.0
 20
75.4
  0
LWPOLYLINE
  5
1B0
330
17
100
AcDbEntity
  8
TRUSS_CHORD
100
AcDbPolyline
 90
5
 70
1
 10
94.0
 20
71.80000000000001
 10
94.0
 20
71.0
 10
82.333333
 20
71.0
 10
82.333333
 20
71.80000000000001
 10
94.0
 20
71.80000000000001
  0
LWPOLYLINE
  5
1B1
330
17
100
AcDbEntity
  8
STRUT_OUTLINE
100
AcDbPolyline
 90
5
 70
1
 10
94.11794085965528
 20
71.78221715506234
 10
93.88205835413098
 20
71.01778308754078
 10
82.21539174723785
 20
74.61778296623922
 10
82.45127425276215
 20
75.38221703376078
 10
94.11794085965528
 20
71.78221715506234
  0
LWPOLYLINE
  5
1B2
330
17
100
AcDbEntity
  8
STRUT_OUTLINE
100
AcDbPolyline
 90
5
 70
1
 10
111.77635503400518
 20
43.86451240507334
 10
111.0236451045102
 20
44.13548797969153
 10
114.62364503525251
 20
54.135487787309096
 10
115.37635496474749
 20
53.864512212690904
 10
111.77635503400518
 20
43.86451240507334
  0
LWPOLYLINE
  5
1B3
330
17
100
AcDbEntity
  8
STRUT_OUTLINE
100
AcDbPolyline
 90
5
 70
1
 10
113.56476842155381
 20
40.16414627207873
 10
112.83523121741372
 20
39.83585453021569
 10
111.03523139792996
 20
43.83585412906848
 10
111.76476860207005
 20
44.16414587093152
 10
113.56476842155381
 20
40.16414627207873
  0
LWPOLYLINE
  5
1B4
330
17
100
AcDbEntity
  8
STRUT_OUTLINE
100
AcDbPolyline
 90
5
 70
1
 10
115.36476860207004
 20
36.16414587093152
 10
114.63523139792996
 20
35.83585412906848
 10
112.83523121741372
 20
39.83585453021569
 10
113.56476842155381
 20
40.16414627207873
 10
115.36476860207004
 20
36.16414587093152
  0
LWPOLYLINE
  5
1B5
330
17
100
AcDbEntity
  8
STRUT_OUTLINE
100
AcDbPolyline
 90
5
 70
1
 10
111.77635503400518
 20
25.86451240507334
 10
111.0236451045102
 20
26.135487979691533
 10
114.62364503525251
 20
36.135487787309096
 10
115.37635496474749
 20
35.864512212690904
 10
111.77635503400518
 20
25.86451240507334
  0
LWPOLYLINE
  5
1B6
330
17
100
AcDbEntity
  8
TRUSS_CHORD
100
AcDbPolyline
 90
5
 70
1
 10
82.333333
 20
4.6
 10
82.333333
 20
5.4
 10
94.0
 20
5.4
 10
94.0
 20
4.6
 10
82.333333
 20
4.6
  0
LWPOLYLINE
  5
1B7
330
17
100
AcDbEntity
  8
TRUSS_CHORD
100
AcDbPolyline
 90
5
 70
1
 10
82.333333
 20
8.2
 10
82.333333
 20
9.0
 10
94.0
 20
9.0
 10
94.0
 20
8.2
 10
82.333333
 20
8.2
  0
LWPOLYLINE
  5
1B8
330
17
100
AcDbEntity
  8
STRUT_OUTLINE
100
AcDbPolyline
 90
5
 70
1
 10
82.21539214034472
 20
8.217782844937664
 10
82.45127464586902
 20
8.982216912459238
 10
94.11794125276215
 20
5.382217033760787
 10
93.88205874723785
 20
4.617782966239213
 10
82.21539214034472
 20
8.217782844937664
  0
LWPOLYLINE
  5
1B9
330
17
100
AcDbEntity
  8
STRUT_OUTLINE
100
AcDbPolyline
 90
5
 70
1
 10
78.49747927207873
 20
6.435231578446204
 10
78.1691875302157
 20
7.164768782586289
 10
82.16918712906848
 20
8.964768602070043
 10
82.49747887093152
 20
8.235231397929956
 10
78.49747927207873
 20
6.435231578446204
  0
LWPOLYLINE
  5
1BA
330
17
100
AcDbEntity
  8
STRUT_OUTLINE
100
AcDbPolyline
 90
5
 70
1
 10
74.49747887093152
 20
4.6352313979299575
 10
74.16918712906848
 20
5.3647686020700425
 10
78.1691875302157
 20
7.164768782586289
 10
78.49747927207873
 20
6.435231578446204
 10
74.49747887093152
 20
4.6352313979299575
  0
LWPOLYLINE
  5
1BB
330
17
100
AcDbEntity
  8
TRUSS_CHORD
100
AcDbPolyline
 90
5
 70
1
 10
64.777778
 20
4.6
 10
64.777778
 20
5.4
 10
74.333333
 20
5.4
 10
74.333333
 20
4.6
 10
64.777778
 20
4.6
  0
LWPOLYLINE
  5
1BC
330
17
100
AcDbEntity
  8
TRUSS_CHORD
100
AcDbPolyline
 90
5
 70
1
 10
64.777778
 20
8.2
 10
64.777778
 20
9.0
 10
74.333333
 20
9.0
 10
74.333333
 20
8.2
 10
64.777778
 20
8.2
  0
LWPOLYLINE
  5
1BD
330
17
100
AcDbEntity
  8
STRUT_OUTLINE
100
AcDbPolyline
 90
5
 70
1
 10
64.63675664603072
 20
8.22568331893336
 10
64.91879985760816
 20
8.974316491323606
 10
74.47435460578872
 20
5.374316586195123
 10
74.19231139421127
 20
4.625683413804877
 10
64.63675664603072
 20
8.22568331893336
  0
LWPOLYLINE
  5
1BE
330
17
100
AcDbEntity
  8
TRUSS_CHORD
100
AcDbPolyline
 90
5
 70
1
 10
55.222222
 20
4.6
 10
55.222222
 20
5.4
 10
64.777778
 20
5.4
 10
64.777778
 20
4.6
 10
55.222222
 20
4.6
  0
LWPOLYLINE
  5
1BF
330
17
100
AcDbEntity
  8
TRUSS_CHORD
100
AcDbPolyline
 90
5
 70
1
 10
55.222222
 20
8.2
 10
55.222222
 20
9.0
 10
64.777778
 20
9.0
 10
64.777778
 20
8.2
 10
55.222222
 20
8.2
  0
LWPOLYLINE
  5
1C0
330
17
100
AcDbEntity
  8
STRUT_OUTLINE
100
AcDbPolyline
 90
5
 70
1
 10
55.363243784598644
 20
4.625683481170472
 10
55.081200598868655
 20
5.374316663298598
 10
64.63675640713501
 20
8.974316591064062
 10
64.91879959286499
 20
8.225683408935938
 10
55.363243784598644
 20
4.625683481170472
  0
LWPOLYLINE
  5
1C1
330
17
100
AcDbEntity
  8
TRUSS_CHORD
100
AcDbPolyline
 90
5
 70
1
 10
45.666667000000004
 20
4.6
 10
45.666667000000004
 20
5.4
 10
55.222222
 20
5.4
 10
55.222222
 20
4.6
 10
45.666667000000004
 20
4.6
  0
LWPOLYLINE
  5
1C2
330
17
100
AcDbEntity
  8
TRUSS_CHORD
100
AcDbPolyline
 90
5
 70
1
 10
45.666667000000004
 20
8.2
 10
45.666667000000004
 20
9.0
 10
55.222222
 20
9.0
 10
55.222222
 20
8.2
 10
45.666667000000004
 20
8.2
  0
LWPOLYLINE
  5
1C3
330
17
100
AcDbEntity
  8
STRUT_OUTLINE
100
AcDbPolyline
 90
5
 70
1
 10
45.525645646030725
 20
8.225683318933358
 10
45.80768885760817
 20
8.974316491323604
 10
55.363243605788725
 20
5.374316586195123
 10
55.08120039421128
 20
4.625683413804877
 10
45.525645646030725
 20
8.225683318933358
  0
LWPOLYLINE
  5
1C4
330
17
100
AcDbEntity
  8
STRUT_OUTLINE
100
AcDbPolyline
 90
5
 70
1
 10
41.83081327207873
 20
6.435231578446204
 10
41.50252153021569
 20
7.164768782586289
 10
45.50252112906848
 20
8.964768602070043
 10
45.83081287093152
 20
8.235231397929956
 10
41.83081327207873
 20
6.435231578446204
  0
LWPOLYLINE
  5
1C5
330
17
100
AcDbEntity
  8
STRUT_OUTLINE
100
AcDbPolyline
 90
5
 70
1
 10
37.83081287093152
 20
4.6352313979299575
 10
37.50252112906848
 20
5.3647686020700425
 10
41.50252153021569
 20
7.164768782586289
 10
41.83081327207873
 20
6.435231578446204
 10
37.83081287093152
 20
4.6352313979299575
  0
LWPOLYLINE
  5
1C6
330
17
100
AcDbEntity
  8
TRUSS_CHORD
100
AcDbPolyline
 90
5
 70
1
 10
26.0
 20
4.6
 10
26.0
 20
5.4
 10
37.666667
 20
5.4
 10
37.666667
 20
4.6
 10
26.0
 20
4.6
  0
LWPOLYLINE
  5
1C7
330
17
100
AcDbEntity
  8
TRUSS_CHORD
100
AcDbPolyline
 90
5
 70
1
 10
26.0
 20
8.2
 10
26.0
 20
9.0
 10
37.666667
 20
9.0
 10
37.666667
 20
8.2
 10
26.0
 20
8.2
  0
LWPOLYLINE
  5
1C8
330
17
100
AcDbEntity
  8
STRUT_OUTLINE
100
AcDbPolyline
 90
5
 70
1
 10
25.882059140344722
 20
8.217782844937666
 10
26.117941645869024
 20
8.98221691245924
 10
37.78460825276215
 20
5.382217033760787
 10
37.548725747237846
 20
4.617782966239213
 10
25.882059140344722
 20
8.217782844937666
  0
LWPOLYLINE
  5
1C9
330
17
100
AcDbEntity
  8
TRUSS_CHORD
100
AcDbPolyline
 90
5
 70
1
 10
18.71715728752538
 20
11.717157287525382
 10
19.28284271247462
 20
12.282842712474618
 10
26.28284271247462
 20
5.282842712474619
 10
25.71715728752538
 20
4.717157287525381
 10
18.71715728752538
 20
11.717157287525382
  0
LWPOLYLINE
  5
1CA
330
17
100
AcDbEntity
  8
TRUSS_CHORD
100
AcDbPolyline
 90
5
 70
1
 10
19.91715728752538
 20
14.117157287525382
 10
20.482842712474618
 20
14.682842712474619
 10
26.28284271247462
 20
8.882842712474618
 10
25.71715728752538
 20
8.317157287525381
 10
19.91715728752538
 20
14.117157287525382
  0
LWPOLYLINE
  5
1CB
330
17
100
AcDbEntity
  8
STRUT_OUTLINE
100
AcDbPolyline
 90
5
 70
1
 10
19.859585603905288
 20
14.189957054554377
 10
20.540414414145026
 20
14.610042916191663
 10
26.34041440511987
 20
5.210042930818643
 10
25.65958559488013
 20
4.789957069181357
 10
19.859585603905288
 20
14.189957054554377
  0
LWPOLYLINE
  5
1CC
330
17
100
AcDbEntity
  8
TRUSS_CHORD
100
AcDbPolyline
 90
5
 70
1
 10
11.717157287525382
 20
18.71715728752538
 10
12.282842712474618
 20
19.28284271247462
 10
19.28284271247462
 20
12.282842712474618
 10
18.71715728752538
 20
11.717157287525382
 10
11.717157287525382
 20
18.71715728752538
  0
LWPOLYLINE
  5
1CD
330
17
100
AcDbEntity
  8
TRUSS_CHORD
100
AcDbPolyline
 90
5
 70
1
 10
14.117157287525382
 20
19.91715728752538
 10
14.682842712474619
 20
20.482842712474618
 10
20.482842712474618
 20
14.682842712474619
 10
19.91715728752538
 20
14.117157287525382
 10
14.117157287525382
 20
19.91715728752538
  0
LWPOLYLINE
  5
1CE
330
17
100
AcDbEntity
  8
STRUT_OUTLINE
100
AcDbPolyline
 90
5
 70
1
 10
11.804299975570318
 20
18.651142578639355
 10
12.195700754996915
 20
19.348857011530246
 10
20.395700389713298
 20
14.748857216445444
 10
20.0042996102867
 20
14.051142783554557
 10
11.804299975570318
 20
18.651142578639355
  0
LWPOLYLINE
  5
1CF
330
17
100
AcDbEntity
  8
TRUSS_CHORD
100
AcDbPolyline
 90
5
 70
1
 10
4.717157287525381
 20
25.71715728752538
 10
5.282842712474619
 20
26.28284271247462
 10
12.282842712474618
 20
19.28284271247462
 10
11.717157287525382
 20
18.71715728752538
 10
4.717157287525381
 20
25.71715728752538
  0
LWPOLYLINE
  5
1D0
330
17
100
AcDbEntity
  8
TRUSS_CHORD
100
AcDbPolyline
 90
5
 70
1
 10
8.317157287525381
 20
25.71715728752538
 10
8.882842712474618
 20
26.28284271247462
 10
14.682842712474619
 20
20.482842712474618
 10
14.117157287525382
 20
19.91715728752538
 10
8.317157287525381
 20
25.71715728752538
  0
LWPOLYLINE
  5
1D1
330
17
100
AcDbEntity
  8
STRUT_OUTLINE
100
AcDbPolyline
 90
5
 70
1
 10
8.240196736569601
 20
25.825238414905236
 10
8.959803263430398
 20
26.174761585094764
 10
12.359803263430399
 20
19.174761585094764
 10
11.640196736569601
 20
18.825238414905236
 10
8.240196736569601
 20
25.825238414905236
  0
LWPOLYLINE
  5
1D2
330
17
100
AcDbEntity
  8
TRUSS_CHORD
100
AcDbPolyline
 90
5
 70
1
 10
11.717157287525382
 20
61.28284271247462
 10
12.282842712474618
 20
60.71715728752538
 10
5.282842712474619
 20
53.71715728752538
 10
4.717157287525381
 20
54.28284271247462
 10
11.717157287525382
 20
61.28284271247462
  0
LWPOLYLINE
  5
1D3
330
17
100
AcDbEntity
  8
TRUSS_CHORD
100
AcDbPolyline
 90
5
 70
1
 10
14.117157287525382
 20
60.082842712474616
 10
14.682842712474619
 20
59.51715728752538
 10
8.882842712474618
 20
53.71715728752538
 10
8.317157287525381
 20
54.28284271247462
 10
14.117157287525382
 20
60.082842712474616
  0
LWPOLYLINE
  5
1D4
330
17
100
AcDbEntity
  8
STRUT_OUTLINE
100
AcDbPolyline
 90
5
 70
1
 10
14.18995705455438
 20
60.14041439609471
 10
14.610042916191667
 20
59.45958558585497
 10
5.210042930818643
 20
53.65958559488013
 10
4.789957069181357
 20
54.34041440511987
 10
14.18995705455438
 20
60.14041439609471
  0
LWPOLYLINE
  5
1D5
330
17
100
AcDbEntity
  8
TRUSS_CHORD
100
AcDbPolyline
 90
5
 70
1
 10
18.71715728752538
 20
68.28284271247462
 10
19.28284271247462
 20
67.71715728752538
 10
12.282842712474618
 20
60.71715728752538
 10
11.717157287525382
 20
61.28284271247462
 10
18.71715728752538
 20
68.28284271247462
  0
LWPOLYLINE
  5
1D6
330
17
100
AcDbEntity
  8
TRUSS_CHORD
100
AcDbPolyline
 90
5
 70
1
 10
19.91715728752538
 20
65.88284271247461
 10
20.482842712474618
 20
65.31715728752538
 10
14.682842712474619
 20
59.51715728752538
 10
14.117157287525382
 20
60.082842712474616
 10
19.91715728752538
 20
65.88284271247461
  0
LWPOLYLINE
  5
1D7
330
17
100
AcDbEntity
  8
STRUT_OUTLINE
100
AcDbPolyline
 90
5
 70
1
 10
18.65114257863935
 20
68.19570002442967
 10
19.348857011530242
 20
67.80429924500308
 10
14.748857216445444
 20
59.6042996102867
 10
14.051142783554557
 20
59.99570038971329
 10
18.65114257863935
 20
68.19570002442967
  0
LWPOLYLINE
  5
1D8
330
17
100
AcDbEntity
  8
TRUSS_CHORD
100
AcDbPolyline
 90
5
 70
1
 10
25.71715728752538
 20
75.28284271247462
 10
26.28284271247462
 20
74.71715728752538
 10
19.28284271247462
 20
67.71715728752538
 10
18.71715728752538
 20
68.28284271247462
 10
25.71715728752538
 20
75.28284271247462
  0
LWPOLYLINE
  5
1D9
330
17
100
AcDbEntity
  8
TRUSS_CHORD
100
AcDbPolyline
 90
5
 70
1
 10
25.71715728752538
 20
71.68284271247462
 10
26.28284271247462
 20
71.11715728752539
 10
20.482842712474618
 20
65.31715728752538
 10
19.91715728752538
 20
65.88284271247461
 10
25.71715728752538
 20
71.68284271247462
  0
LWPOLYLINE
  5
1DA
330
17
100
AcDbEntity
  8
STRUT_OUTLINE
100
AcDbPolyline
 90
5
 70
1
 10
25.825238414905236
 20
71.7598032634304
 10
26.174761585094764
 20
71.04019673656961
 10
19.174761585094764
 20
67.6401967365696
 10
18.825238414905236
 20
68.3598032634304
 10
25.825238414905236
 20
71.7598032634304
  0
LWPOLYLINE
  5
1DB
330
17
100
AcDbEntity
  8
TRUSS_CHORD
100
AcDbPolyline
 90
5
 70
1
 10
101.28284271247462
 20
68.28284271247462
 10
100.71715728752538
 20
67.71715728752538
 10
93.71715728752538
 20
74.71715728752538
 10
94.28284271247462
 20
75.28284271247462
 10
101.28284271247462
 20
68.28284271247462
  0
LWPOLYLINE
  5
1DC
330
17
100
AcDbEntity
  8
TRUSS_CHORD
100
AcDbPolyline
 90
5
 70
1
 10
100.08284271247462
 20
65.88284271247461
 10
99.51715728752538
 20
65.31715728752538
 10
93.71715728752538
 20
71.11715728752539
 10
94.28284271247462
 20
71.68284271247462
 10
100.08284271247462
 20
65.88284271247461
  0
LWPOLYLINE
  5
1DD
330
17
100
AcDbEntity
  8
STRUT_OUTLINE
100
AcDbPolyline
 90
5
 70
1
 10
100.14041439609471
 20
65.81004294544562
 10
99.45958558585497
 20
65.38995708380833
 10
93.65958559488013
 20
74.78995706918136
 10
94.34041440511987
 20
75.21004293081864
 10
100.14041439609471
 20
65.81004294544562
  0
LWPOLYLINE
  5
1DE
330
17
100
AcDbEntity
  8
TRUSS_CHORD
100
AcDbPolyline
 90
5
 70
1
 10
108.28284271247462
 20
61.28284271247462
 10
107.71715728752538
 20
60.71715728752538
 10
100.71715728752538
 20
67.71715728752538
 10
101.28284271247462
 20
68.28284271247462
 10
108.28284271247462
 20
61.28284271247462
  0
LWPOLYLINE
  5
1DF
330
17
100
AcDbEntity
  8
TRUSS_CHORD
100
AcDbPolyline
 90
5
 70
1
 10
105.88284271247461
 20
60.082842712474616
 10
105.31715728752538
 20
59.51715728752538
 10
99.51715728752538
 20
65.31715728752538
 10
100.08284271247462
 20
65.88284271247461
 10
105.88284271247461
 20
60.082842712474616
  0
LWPOLYLINE
  5
1E0
330
17
100
AcDbEntity
  8
STRUT_OUTLINE
100
AcDbPolyline
 90
5
 70
1
 10
108.19570002442968
 20
61.34885742136065
 10
107.8042992450031
 20
60.65114298846976
 10
99.6042996102867
 20
65.25114278355456
 10
99.99570038971329
 20
65.94885721644543
 10
108.19570002442968
 20
61.34885742136065
  0
LWPOLYLINE
  5
1E1
330
17
100
AcDbEntity
  8
TRUSS_CHORD
100
AcDbPolyline
 90
5
 70
1
 10
115.28284271247462
 20
54.28284271247462
 10
114.71715728752538
 20
53.71715728752538
 10
107.71715728752538
 20
60.71715728752538
 10
108.28284271247462
 20
61.28284271247462
 10
115.28284271247462
 20
54.28284271247462
  0
LWPOLYLINE
  5
1E2
330
17
100
AcDbEntity
  8
TRUSS_CHORD
100
AcDbPolyline
 90
5
 70
1
 10
111.68284271247462
 20
54.28284271247462
 10
111.11715728752539
 20
53.71715728752538
 10
105.31715728752538
 20
59.51715728752538
 10
105.88284271247461
 20
60.082842712474616
 10
111.68284271247462
 20
54.28284271247462
  0
LWPOLYLINE
  5
1E3
330
17
100
AcDbEntity
  8
STRUT_OUTLINE
100
AcDbPolyline
 90
5
 70
1
 10
111.7598032634304
 20
54.174761585094764
 10
111.04019673656961
 20
53.825238414905236
 10
107.6401967365696
 20
60.825238414905236
 10
108.3598032634304
 20
61.174761585094764
 10
111.7598032634304
 20
54.174761585094764
  0
LWPOLYLINE
  5
1E4
330
17
100
AcDbEntity
  8
TRUSS_CHORD
100
AcDbPolyline
 90
5
 70
1
 10
108.28284271247462
 20
18.71715728752538
 10
107.71715728752538
 20
19.28284271247462
 10
114.71715728752538
 20
26.28284271247462
 10
115.28284271247462
 20
25.71715728752538
 10
108.28284271247462
 20
18.71715728752538
  0
LWPOLYLINE
  5
1E5
330
17
100
AcDbEntity
  8
TRUSS_CHORD
100
AcDbPolyline
 90
5
 70
1
 10
105.88284271247461
 20
19.91715728752538
 10
105.31715728752538
 20
20.482842712474618
 10
111.11715728752539
 20
26.28284271247462
 10
111.68284271247462
 20
25.71715728752538
 10
105.88284271247461
 20
19.91715728752538
  0
LWPOLYLINE
  5
1E6
330
17
100
AcDbEntity
  8
STRUT_OUTLINE
100
AcDbPolyline
 90
5
 70
1
 10
105.81004294544562
 20
19.85958560390529
 10
105.38995708380833
 20
20.54041441414503
 10
114.78995706918136
 20
26.34041440511987
 10
115.21004293081864
 20
25.65958559488013
 10
105.81004294544562
 20
19.85958560390529
  0
LWPOLYLINE
  5
1E7
330
17
100
AcDbEntity
  8
TRUSS_CHORD
100
AcDbPolyline
 90
5
 70
1
 10
101.28284271247462
 20
11.717157287525382
 10
100.71715728752538
 20
12.282842712474618
 10
107.71715728752538
 20
19.28284271247462
 10
108.28284271247462
 20
18.71715728752538
 10
101.28284271247462
 20
11.717157287525382
  0
LWPOLYLINE
  5
1E8
330
17
100
AcDbEntity
  8
TRUSS_CHORD
100
AcDbPolyline
 90
5
 70
1
 10
100.08284271247462
 20
14.117157287525382
 10
99.51715728752538
 20
14.682842712474619
 10
105.31715728752538
 20
20.482842712474618
 10
105.88284271247461
 20
19.91715728752538
 10
100.08284271247462
 20
14.117157287525382
  0
LWPOLYLINE
  5
1E9
330
17
100
AcDbEntity
  8
STRUT_OUTLINE
100
AcDbPolyline
 90
5
 70
1
 10
101.34885742136063
 20
11.804299975570316
 10
100.65114298846976
 20
12.195700754996913
 10
105.25114278355456
 20
20.395700389713298
 10
105.94885721644543
 20
20.0042996102867
 10
101.34885742136063
 20
11.804299975570316
  0
LWPOLYLINE
  5
1EA
330
17
100
AcDbEntity
  8
TRUSS_CHORD
100
AcDbPolyline
 90
5
 70
1
 10
94.28284271247462
 20
4.717157287525381
 10
93.71715728752538
 20
5.282842712474619
 10
100.71715728752538
 20
12.282842712474618
 10
101.28284271247462
 20
11.717157287525382
 10
94.28284271247462
 20
4.717157287525381
  0
LWPOLYLINE
  5
1EB
330
17
100
AcDbEntity
  8
TRUSS_CHORD
100
AcDbPolyline
 90
5
 70
1
 10
94.28284271247462
 20
8.317157287525381
 10
93.71715728752538
 20
8.882842712474618
 10
99.51715728752538
 20
14.682842712474619
 10
100.08284271247462
 20
14.117157287525382
 10
94.28284271247462
 20
8.317157287525381
  0
LWPOLYLINE
  5
1EC
330
17
100
AcDbEntity
  8
STRUT_OUTLINE
100
AcDbPolyline
 90
5
 70
1
 10
94.17476158509477
 20
8.240196736569601
 10
93.82523841490523
 20
8.959803263430398
 10
100.82523841490523
 20
12.359803263430399
 10
101.17476158509477
 20
11.640196736569601
 10
94.17476158509477
 20
8.240196736569601
  0
LWPOLYLINE
  5
1ED
330
17
100
AcDbEntity
  8
STRUT_OUTLINE
100
AcDbPolyline
 90
5
 70
1
 10
41.830812469784306
 20
7.164768782586289
 10
41.502520727921265
 20
6.435231578446204
 10
37.50252112906848
 20
8.235231397929956
 10
37.83081287093152
 20
8.964768602070043
 10
41.830812469784306
 20
7.164768782586289
  0
LWPOLYLINE
  5
1EE
330
17
100
AcDbEntity
  8
STRUT_OUTLINE
100
AcDbPolyline
 90
5
 70
1
 10
45.83081287093152
 20
5.3647686020700425
 10
45.50252112906848
 20
4.6352313979299575
 10
41.502520727921265
 20
6.435231578446204
 10
41.830812469784306
 20
7.164768782586289
 10
45.83081287093152
 20
5.3647686020700425
  0
LWPOLYLINE
  5
1EF
330
17
100
AcDbEntity
  8
STRUT_OUTLINE
100
AcDbPolyline
 90
5
 70
1
 10
41.830812469784306
 20
73.56476878258628
 10
41.502520727921265
 20
72.8352315784462
 10
37.50252112906848
 20
74.63523139792996
 10
37.83081287093152
 20
75.36476860207004
 10
41.830812469784306
 20
73.56476878258628
  0
LWPOLYLINE
  5
1F0
330
17
100
AcDbEntity
  8
STRUT_OUTLINE
100
AcDbPolyline
 90
5
 70
1
 10
45.83081287093152
 20
71.76476860207005
 10
45.50252112906848
 20
71.03523139792996
 10
41.502520727921265
 20
72.8352315784462
 10
41.830812469784306
 20
73.56476878258628
 10
45.83081287093152
 20
71.76476860207005
  0
LWPOLYLINE
  5
1F1
330
17
100
AcDbEntity
  8
STRUT_OUTLINE
100
AcDbPolyline
 90
5
 70
1
 10
78.4974784697843
 20
7.164768782586289
 10
78.16918672792126
 20
6.435231578446204
 10
74.16918712906848
 20
8.235231397929956
 10
74.49747887093152
 20
8.964768602070043
 10
78.4974784697843
 20
7.164768782586289
  0
LWPOLYLINE
  5
1F2
330
17
100
AcDbEntity
  8
STRUT_OUTLINE
100
AcDbPolyline
 90
5
 70
1
 10
82.49747887093152
 20
5.3647686020700425
 10
82.16918712906848
 20
4.6352313979299575
 10
78.16918672792126
 20
6.435231578446204
 10
78.4974784697843
 20
7.164768782586289
 10
82.49747887093152
 20
5.3647686020700425
  0
LWPOLYLINE
  5
1F3
330
17
100
AcDbEntity
  8
STRUT_OUTLINE
100
AcDbPolyline
 90
5
 70
1
 10
78.4974784697843
 20
73.56476878258628
 10
78.16918672792126
 20
72.8352315784462
 10
74.16918712906848
 20
74.63523139792996
 10
74.49747887093152
 20
75.36476860207004
 10
78.4974784697843
 20
73.56476878258628
  0
LWPOLYLINE
  5
1F4
330
17
100
AcDbEntity
  8
STRUT_OUTLINE
100
AcDbPolyline
 90
5
 70
1
 10
82.49747887093152
 20
71.76476860207005
 10
82.16918712906848
 20
71.03523139792996
 10
78.16918672792126
 20
72.8352315784462
 10
78.4974784697843
 20
73.56476878258628
 10
82.49747887093152
 20
71.76476860207005
  0
LWPOLYLINE
  5
1F5
330
17
100
AcDbEntity
  8
STRUT_OUTLINE
100
AcDbPolyline
 90
5
 70
1
 10
6.435231217413711
 20
40.16414546978431
 10
7.164768421553796
 20
39.83585372792127
 10
5.3647686020700425
 20
35.83585412906848
 10
4.6352313979299575
 20
36.16414587093152
 10
6.435231217413711
 20
40.16414546978431
  0
LWPOLYLINE
  5
1F6
330
17
100
AcDbEntity
  8
STRUT_OUTLINE
100
AcDbPolyline
 90
5
 70
1
 10
8.235231397929956
 20
44.16414587093152
 10
8.964768602070043
 20
43.83585412906848
 10
7.164768421553796
 20
39.83585372792127
 10
6.435231217413711
 20
40.16414546978431
 10
8.235231397929956
 20
44.16414587093152
  0
LWPOLYLINE
  5
1F7
330
17
100
AcDbEntity
  8
STRUT_OUTLINE
100
AcDbPolyline
 90
5
 70
1
 10
112.83523121741372
 20
40.16414546978431
 10
113.56476842155381
 20
39.83585372792127
 10
111.76476860207005
 20
35.83585412906848
 10
111.03523139792996
 20
36.16414587093152
 10
112.83523121741372
 20
40.16414546978431
  0
LWPOLYLINE
  5
1F8
330
17
100
AcDbEntity
  8
STRUT_OUTLINE
100
AcDbPolyline
 90
5
 70
1
 10
114.63523139792996
 20
44.16414587093152
 10
115.36476860207004
 20
43.83585412906848
 10
113.56476842155381
 20
39.83585372792127
 10
112.83523121741372
 20
40.16414546978431
 10
114.63523139792996
 20
44.16414587093152
  0
LWPOLYLINE
  5
1F9
330
17
100
AcDbEntity
  8
PILLAR
100
AcDbPolyline
 90
4
 70
1
 10
15.488889
 20
35.6
 10
16.288889
 20
35.6
 10
16.288889
 20
36.4
 10
15.488889
 20
36.4
  0
LWPOLYLINE
  5
1FA
330
17
100
AcDbEntity
  8
PILLAR
100
AcDbPolyline
 90
4
 70
1
 10
15.488889
 20
43.6
 10
16.288889
 20
43.6
 10
16.288889
 20
44.4
 10
15.488889
 20
44.4
  0
LWPOLYLINE
  5
1FB
330
17
100
AcDbEntity
  8
PILLAR
100
AcDbPolyline
 90
4
 70
1
 10
26.377778000000003
 20
35.6
 10
27.177778
 20
35.6
 10
27.177778
 20
36.4
 10
26.377778000000003
 20
36.4
  0
LWPOLYLINE
  5
1FC
330
17
100
AcDbEntity
  8
PILLAR
100
AcDbPolyline
 90
4
 70
1
 10
26.377778000000003
 20
43.6
 10
27.177778
 20
43.6
 10
27.177778
 20
44.4
 10
26.377778000000003
 20
44.4
  0
LWPOLYLINE
  5
1FD
330
17
100
AcDbEntity
  8
PILLAR
100
AcDbPolyline
 90
4
 70
1
 10
37.266667
 20
16.266667
 10
38.066666999999995
 20
16.266667
 10
38.066666999999995
 20
17.066667
 10
37.266667
 20
17.066667
  0
LWPOLYLINE
  5
1FE
330
17
100
AcDbEntity
  8
PILLAR
100
AcDbPolyline
 90
4
 70
1
 10
37.266667
 20
27.933333
 10
38.066666999999995
 20
27.933333
 10
38.066666999999995
 20
28.733333
 10
37.266667
 20
28.733333
  0
LWPOLYLINE
  5
1FF
330
17
100
AcDbEntity
  8
PILLAR
100
AcDbPolyline
 90
4
 70
1
 10
37.266667
 20
39.6
 10
38.066666999999995
 20
39.6
 10
38.066666999999995
 20
40.4
 10
37.266667
 20
40.4
  0
LWPOLYLINE
  5
200
330
17
100
AcDbEntity
  8
PILLAR
100
AcDbPolyline
 90
4
 70
1
 10
37.266667
 20
51.266667
 10
38.066666999999995
 20
51.266667
 10
38.066666999999995
 20
52.066666999999995
 10
37.266667
 20
52.066666999999995
  0
LWPOLYLINE
  5
201
330
17
100
AcDbEntity
  8
PILLAR
100
AcDbPolyline
 90
4
 70
1
 10
37.266667
 20
62.933333000000005
 10
38.066666999999995
 20
62.933333000000005
 10
38.066666999999995
 20
63.733333
 10
37.266667
 20
63.733333
  0
LWPOLYLINE
  5
202
330
17
100
AcDbEntity
  8
PILLAR
100
AcDbPolyline
 90
4
 70
1
 10
45.266667
 20
16.266667
 10
46.066666999999995
 20
16.266667
 10
46.066666999999995
 20
17.066667
 10
45.266667
 20
17.066667
  0
LWPOLYLINE
  5
203
330
17
100
AcDbEntity
  8
PILLAR
100
AcDbPolyline
 90
4
 70
1
 10
45.266667
 20
27.933333
 10
46.066666999999995
 20
27.933333
 10
46.066666999999995
 20
28.733333
 10
45.266667
 20
28.733333
  0
LWPOLYLINE
  5
204
330
17
100
AcDbEntity
  8
PILLAR
100
AcDbPolyline
 90
4
 70
1
 10
45.266667
 20
39.6
 10
46.066666999999995
 20
39.6
 10
46.066666999999995
 20
40.4
 10
45.266667
 20
40.4
  0
LWPOLYLINE
  5
205
330
17
100
AcDbEntity
  8
PILLAR
100
AcDbPolyline
 90
4
 70
1
 10
45.266667
 20
51.266667
 10
46.066666999999995
 20
51.266667
 10
46.066666999999995
 20
52.066666999999995
 10
45.266667
 20
52.066666999999995
  0
LWPOLYLINE
  5
206
330
17
100
AcDbEntity
  8
PILLAR
100
AcDbPolyline
 90
4
 70
1
 10
45.266667
 20
62.933333000000005
 10
46.066666999999995
 20
62.933333000000005
 10
46.066666999999995
 20
63.733333
 10
45.266667
 20
63.733333
  0
LWPOLYLINE
  5
207
330
17
100
AcDbEntity
  8
PILLAR
100
AcDbPolyline
 90
4
 70
1
 10
54.822222000000004
 20
35.6
 10
55.622222
 20
35.6
 10
55.622222
 20
36.4
 10
54.822222000000004
 20
36.4
  0
LWPOLYLINE
  5
208
330
17
100
AcDbEntity
  8
PILLAR
100
AcDbPolyline
 90
4
 70
1
 10
54.822222000000004
 20
43.6
 10
55.622222
 20
43.6
 10
55.622222
 20
44.4
 10
54.822222000000004
 20
44.4
  0
LWPOLYLINE
  5
209
330
17
100
AcDbEntity
  8
PILLAR
100
AcDbPolyline
 90
4
 70
1
 10
64.37777799999999
 20
35.6
 10
65.177778
 20
35.6
 10
65.177778
 20
36.4
 10
64.37777799999999
 20
36.4
  0
LWPOLYLINE
  5
20A
330
17
100
AcDbEntity
  8
PILLAR
100
AcDbPolyline
 90
4
 70
1
 10
64.37777799999999
 20
43.6
 10
65.177778
 20
43.6
 10
65.177778
 20
44.4
 10
64.37777799999999
 20
44.4
  0
LWPOLYLINE
  5
20B
330
17
100
AcDbEntity
  8
PILLAR
100
AcDbPolyline
 90
4
 70
1
 10
73.93333299999999
 20
16.266667
 10
74.733333
 20
16.266667
 10
74.733333
 20
17.066667
 10
73.93333299999999
 20
17.066667
  0
LWPOLYLINE
  5
20C
330
17
100
AcDbEntity
  8
PILLAR
100
AcDbPolyline
 90
4
 70
1
 10
73.93333299999999
 20
27.933333
 10
74.733333
 20
27.933333
 10
74.733333
 20
28.733333
 10
73.93333299999999
 20
28.733333
  0
LWPOLYLINE
  5
20D
330
17
100
AcDbEntity
  8
PILLAR
100
AcDbPolyline
 90
4
 70
1
 10
73.93333299999999
 20
39.6
 10
74.733333
 20
39.6
 10
74.733333
 20
40.4
 10
73.93333299999999
 20
40.4
  0
LWPOLYLINE
  5
20E
330
17
100
AcDbEntity
  8
PILLAR
100
AcDbPolyline
 90
4
 70
1
 10
73.93333299999999
 20
51.266667
 10
74.733333
 20
51.266667
 10
74.733333
 20
52.066666999999995
 10
73.93333299999999
 20
52.066666999999995
  0
LWPOLYLINE
  5
20F
330
17
100
AcDbEntity
  8
PILLAR
100
AcDbPolyline
 90
4
 70
1
 10
73.93333299999999
 20
62.933333000000005
 10
74.733333
 20
62.933333000000005
 10
74.733333
 20
63.733333
 10
73.93333299999999
 20
63.733333
  0
LWPOLYLINE
  5
210
330
17
100
AcDbEntity
  8
PILLAR
100
AcDbPolyline
 90
4
 70
1
 10
81.93333299999999
 20
16.266667
 10
82.733333
 20
16.266667
 10
82.733333
 20
17.066667
 10
81.93333299999999
 20
17.066667
  0
LWPOLYLINE
  5
211
330
17
100
AcDbEntity
  8
PILLAR
100
AcDbPolyline
 90
4
 70
1
 10
81.93333299999999
 20
27.933333
 10
82.733333
 20
27.933333
 10
82.733333
 20
28.733333
 10
81.93333299999999
 20
28.733333
  0
LWPOLYLINE
  5
212
330
17
100
AcDbEntity
  8
PILLAR
100
AcDbPolyline
 90
4
 70
1
 10
81.93333299999999
 20
39.6
 10
82.733333
 20
39.6
 10
82.733333
 20
40.4
 10
81.93333299999999
 20
40.4
  0
LWPOLYLINE
  5
213
330
17
100
AcDbEntity
  8
PILLAR
100
AcDbPolyline
 90
4
 70
1
 10
81.93333299999999
 20
51.266667
 10
82.733333
 20
51.266667
 10
82.733333
 20
52.066666999999995
 10
81.93333299999999
 20
52.066666999999995
  0
LWPOLYLINE
  5
214
330
17
100
AcDbEntity
  8
PILLAR
100
AcDbPolyline
 90
4
 70
1
 10
81.93333299999999
 20
62.933333000000005
 10
82.733333
 20
62.933333000000005
 10
82.733333
 20
63.733333
 10
81.93333299999999
 20
63.733333
  0
LWPOLYLINE
  5
215
330
17
100
AcDbEntity
  8
PILLAR
100
AcDbPolyline
 90
4
 70
1
 10
92.822222
 20
35.6
 10
93.62222200000001
 20
35.6
 10
93.62222200000001
 20
36.4
 10
92.822222
 20
36.4
  0
LWPOLYLINE
  5
216
330
17
100
AcDbEntity
  8
PILLAR
100
AcDbPolyline
 90
4
 70
1
 10
92.822222
 20
43.6
 10
93.62222200000001
 20
43.6
 10
93.62222200000001
 20
44.4
 10
92.822222
 20
44.4
  0
LWPOLYLINE
  5
217
330
17
100
AcDbEntity
  8
PILLAR
100
AcDbPolyline
 90
4
 70
1
 10
103.71111099999999
 20
35.6
 10
104.511111
 20
35.6
 10
104.511111
 20
36.4
 10
103.71111099999999
 20
36.4
  0
LWPOLYLINE
  5
218
330
17
100
AcDbEntity
  8
PILLAR
100
AcDbPolyline
 90
4
 70
1
 10
103.71111099999999
 20
43.6
 10
104.511111
 20
43.6
 10
104.511111
 20
44.4
 10
103.71111099999999
 20
44.4
  0
CIRCLE
  5
219
330
17
100
AcDbEntity
  8
DEBUG_NODE
100
AcDbCircle
 10
5.0
 20
5.0
 30
0.0
 40
0.12
  0
CIRCLE
  5
21A
330
17
100
AcDbEntity
  8
DEBUG_NODE
100
AcDbCircle
 10
37.666667
 20
5.0
 30
0.0
 40
0.12
  0
CIRCLE
  5
21B
330
17
100
AcDbEntity
  8
DEBUG_NODE
100
AcDbCircle
 10
37.666667
 20
75.0
 30
0.0
 40
0.12
  0
CIRCLE
  5
21C
330
17
100
AcDbEntity
  8
DEBUG_NODE
100
AcDbCircle
 10
45.666667
 20
5.0
 30
0.0
 40
0.12
  0
CIRCLE
  5
21D
330
17
100
AcDbEntity
  8
DEBUG_NODE
100
AcDbCircle
 10
45.666667
 20
75.0
 30
0.0
 40
0.12
  0
CIRCLE
  5
21E
330
17
100
AcDbEntity
  8
DEBUG_NODE
100
AcDbCircle
 10
74.333333
 20
5.0
 30
0.0
 40
0.12
  0
CIRCLE
  5
21F
330
17
100
AcDbEntity
  8
DEBUG_NODE
100
AcDbCircle
 10
74.333333
 20
75.0
 30
0.0
 40
0.12
  0
CIRCLE
  5
220
330
17
100
AcDbEntity
  8
DEBUG_NODE
100
AcDbCircle
 10
82.333333
 20
5.0
 30
0.0
 40
0.12
  0
CIRCLE
  5
221
330
17
100
AcDbEntity
  8
DEBUG_NODE
100
AcDbCircle
 10
82.333333
 20
75.0
 30
0.0
 40
0.12
  0
CIRCLE
  5
222
330
17
100
AcDbEntity
  8
DEBUG_NODE
100
AcDbCircle
 10
5.0
 20
36.0
 30
0.0
 40
0.12
  0
CIRCLE
  5
223
330
17
100
AcDbEntity
  8
DEBUG_NODE
100
AcDbCircle
 10
115.0
 20
36.0
 30
0.0
 40
0.12
  0
CIRCLE
  5
224
330
17
100
AcDbEntity
  8
DEBUG_NODE
100
AcDbCircle
 10
5.0
 20
44.0
 30
0.0
 40
0.12
  0
CIRCLE
  5
225
330
17
100
AcDbEntity
  8
DEBUG_NODE
100
AcDbCircle
 10
115.0
 20
44.0
 30
0.0
 40
0.12
  0
CIRCLE
  5
226
330
17
100
AcDbEntity
  8
DEBUG_NODE
100
AcDbCircle
 10
37.666667
 20
36.0
 30
0.0
 40
0.12
  0
CIRCLE
  5
227
330
17
100
AcDbEntity
  8
DEBUG_NODE
100
AcDbCircle
 10
37.666667
 20
44.0
 30
0.0
 40
0.12
  0
CIRCLE
  5
228
330
17
100
AcDbEntity
  8
DEBUG_NODE
100
AcDbCircle
 10
45.666667
 20
36.0
 30
0.0
 40
0.12
  0
CIRCLE
  5
229
330
17
100
AcDbEntity
  8
DEBUG_NODE
100
AcDbCircle
 10
45.666667
 20
44.0
 30
0.0
 40
0.12
  0
CIRCLE
  5
22A
330
17
100
AcDbEntity
  8
DEBUG_NODE
100
AcDbCircle
 10
74.333333
 20
36.0
 30
0.0
 40
0.12
  0
CIRCLE
  5
22B
330
17
100
AcDbEntity
  8
DEBUG_NODE
100
AcDbCircle
 10
74.333333
 20
44.0
 30
0.0
 40
0.12
  0
CIRCLE
  5
22C
330
17
100
AcDbEntity
  8
DEBUG_NODE
100
AcDbCircle
 10
82.333333
 20
36.0
 30
0.0
 40
0.12
  0
CIRCLE
  5
22D
330
17
100
AcDbEntity
  8
DEBUG_NODE
100
AcDbCircle
 10
82.333333
 20
44.0
 30
0.0
 40
0.12
  0
CIRCLE
  5
22E
330
17
100
AcDbEntity
  8
DEBUG_NODE
100
AcDbCircle
 10
5.0
 20
26.0
 30
0.0
 40
0.12
  0
CIRCLE
  5
22F
330
17
100
AcDbEntity
  8
DEBUG_NODE
100
AcDbCircle
 10
8.6
 20
26.0
 30
0.0
 40
0.12
  0
CIRCLE
  5
230
330
17
100
AcDbEntity
  8
DEBUG_NODE
100
AcDbCircle
 10
8.6
 20
36.0
 30
0.0
 40
0.12
  0
CIRCLE
  5
231
330
17
100
AcDbEntity
  8
DEBUG_NODE
100
AcDbCircle
 10
8.6
 20
44.0
 30
0.0
 40
0.12
  0
CIRCLE
  5
232
330
17
100
AcDbEntity
  8
DEBUG_NODE
100
AcDbCircle
 10
5.0
 20
54.0
 30
0.0
 40
0.12
  0
CIRCLE
  5
233
330
17
100
AcDbEntity
  8
DEBUG_NODE
100
AcDbCircle
 10
8.6
 20
54.0
 30
0.0
 40
0.12
  0
CIRCLE
  5
234
330
17
100
AcDbEntity
  8
DEBUG_NODE
100
AcDbCircle
 10
26.0
 20
75.0
 30
0.0
 40
0.12
  0
CIRCLE
  5
235
330
17
100
AcDbEntity
  8
DEBUG_NODE
100
AcDbCircle
 10
26.0
 20
71.4
 30
0.0
 40
0.12
  0
CIRCLE
  5
236
330
17
100
AcDbEntity
  8
DEBUG_NODE
100
AcDbCircle
 10
37.666667
 20
71.4
 30
0.0
 40
0.12
  0
CIRCLE
  5
237
330
17
100
AcDbEntity
  8
DEBUG_NODE
100
AcDbCircle
 10
45.666667
 20
71.4
 30
0.0
 40
0.12
  0
CIRCLE
  5
238
330
17
100
AcDbEntity
  8
DEBUG_NODE
100
AcDbCircle
 10
55.222222
 20
75.0
 30
0.0
 40
0.12
  0
CIRCLE
  5
239
330
17
100
AcDbEntity
  8
DEBUG_NODE
100
AcDbCircle
 10
55.222222
 20
71.4
 30
0.0
 40
0.12
  0
CIRCLE
  5
23A
330
17
100
AcDbEntity
  8
DEBUG_NODE
100
AcDbCircle
 10
64.777778
 20
75.0
 30
0.0
 40
0.12
  0
CIRCLE
  5
23B
330
17
100
AcDbEntity
  8
DEBUG_NODE
100
AcDbCircle
 10
64.777778
 20
71.4
 30
0.0
 40
0.12
  0
CIRCLE
  5
23C
330
17
100
AcDbEntity
  8
DEBUG_NODE
100
AcDbCircle
 10
74.333333
 20
71.4
 30
0.0
 40
0.12
  0
CIRCLE
  5
23D
330
17
100
AcDbEntity
  8
DEBUG_NODE
100
AcDbCircle
 10
82.333333
 20
71.4
 30
0.0
 40
0.12
  0
CIRCLE
  5
23E
330
17
100
AcDbEntity
  8
DEBUG_NODE
100
AcDbCircle
 10
94.0
 20
75.0
 30
0.0
 40
0.12
  0
CIRCLE
  5
23F
330
17
100
AcDbEntity
  8
DEBUG_NODE
100
AcDbCircle
 10
94.0
 20
71.4
 30
0.0
 40
0.12
  0
CIRCLE
  5
240
330
17
100
AcDbEntity
  8
DEBUG_NODE
100
AcDbCircle
 10
115.0
 20
54.0
 30
0.0
 40
0.12
  0
CIRCLE
  5
241
330
17
100
AcDbEntity
  8
DEBUG_NODE
100
AcDbCircle
 10
111.4
 20
54.0
 30
0.0
 40
0.12
  0
CIRCLE
  5
242
330
17
100
AcDbEntity
  8
DEBUG_NODE
100
AcDbCircle
 10
111.4
 20
44.0
 30
0.0
 40
0.12
  0
CIRCLE
  5
243
330
17
100
AcDbEntity
  8
DEBUG_NODE
100
AcDbCircle
 10
111.4
 20
36.0
 30
0.0
 40
0.12
  0
CIRCLE
  5
244
330
17
100
AcDbEntity
  8
DEBUG_NODE
100
AcDbCircle
 10
115.0
 20
26.0
 30
0.0
 40
0.12
  0
CIRCLE
  5
245
330
17
100
AcDbEntity
  8
DEBUG_NODE
100
AcDbCircle
 10
111.4
 20
26.0
 30
0.0
 40
0.12
  0
CIRCLE
  5
246
330
17
100
AcDbEntity
  8
DEBUG_NODE
100
AcDbCircle
 10
94.0
 20
5.0
 30
0.0
 40
0.12
  0
CIRCLE
  5
247
330
17
100
AcDbEntity
  8
DEBUG_NODE
100
AcDbCircle
 10
94.0
 20
8.6
 30
0.0
 40
0.12
  0
CIRCLE
  5
248
330
17
100
AcDbEntity
  8
DEBUG_NODE
100
AcDbCircle
 10
82.333333
 20
8.6
 30
0.0
 40
0.12
  0
CIRCLE
  5
249
330
17
100
AcDbEntity
  8
DEBUG_NODE
100
AcDbCircle
 10
74.333333
 20
8.6
 30
0.0
 40
0.12
  0
CIRCLE
  5
24A
330
17
100
AcDbEntity
  8
DEBUG_NODE
100
AcDbCircle
 10
64.777778
 20
5.0
 30
0.0
 40
0.12
  0
CIRCLE
  5
24B
330
17
100
AcDbEntity
  8
DEBUG_NODE
100
AcDbCircle
 10
64.777778
 20
8.6
 30
0.0
 40
0.12
  0
CIRCLE
  5
24C
330
17
100
AcDbEntity
  8
DEBUG_NODE
100
AcDbCircle
 10
55.222222
 20
5.0
 30
0.0
 40
0.12
  0
CIRCLE
  5
24D
330
17
100
AcDbEntity
  8
DEBUG_NODE
100
AcDbCircle
 10
55.222222
 20
8.6
 30
0.0
 40
0.12
  0
CIRCLE
  5
24E
330
17
100
AcDbEntity
  8
DEBUG_NODE
100
AcDbCircle
 10
45.666667
 20
8.6
 30
0.0
 40
0.12
  0
CIRCLE
  5
24F
330
17
100
AcDbEntity
  8
DEBUG_NODE
100
AcDbCircle
 10
37.666667
 20
8.6
 30
0.0
 40
0.12
  0
CIRCLE
  5
250
330
17
100
AcDbEntity
  8
DEBUG_NODE
100
AcDbCircle
 10
26.0
 20
5.0
 30
0.0
 40
0.12
  0
CIRCLE
  5
251
330
17
100
AcDbEntity
  8
DEBUG_NODE
100
AcDbCircle
 10
26.0
 20
8.6
 30
0.0
 40
0.12
  0
CIRCLE
  5
252
330
17
100
AcDbEntity
  8
DEBUG_NODE
100
AcDbCircle
 10
19.0
 20
12.0
 30
0.0
 40
0.12
  0
CIRCLE
  5
253
330
17
100
AcDbEntity
  8
DEBUG_NODE
100
AcDbCircle
 10
20.2
 20
14.4
 30
0.0
 40
0.12
  0
CIRCLE
  5
254
330
17
100
AcDbEntity
  8
DEBUG_NODE
100
AcDbCircle
 10
12.0
 20
19.0
 30
0.0
 40
0.12
  0
CIRCLE
  5
255
330
17
100
AcDbEntity
  8
DEBUG_NODE
100
AcDbCircle
 10
14.4
 20
20.2
 30
0.0
 40
0.12
  0
CIRCLE
  5
256
330
17
100
AcDbEntity
  8
DEBUG_NODE
100
AcDbCircle
 10
12.0
 20
61.0
 30
0.0
 40
0.12
  0
CIRCLE
  5
257
330
17
100
AcDbEntity
  8
DEBUG_NODE
100
AcDbCircle
 10
14.4
 20
59.8
 30
0.0
 40
0.12
  0
CIRCLE
  5
258
330
17
100
AcDbEntity
  8
DEBUG_NODE
100
AcDbCircle
 10
19.0
 20
68.0
 30
0.0
 40
0.12
  0
CIRCLE
  5
259
330
17
100
AcDbEntity
  8
DEBUG_NODE
100
AcDbCircle
 10
20.2
 20
65.6
 30
0.0
 40
0.12
  0
CIRCLE
  5
25A
330
17
100
AcDbEntity
  8
DEBUG_NODE
100
AcDbCircle
 10
101.0
 20
68.0
 30
0.0
 40
0.12
  0
CIRCLE
  5
25B
330
17
100
AcDbEntity
  8
DEBUG_NODE
100
AcDbCircle
 10
99.8
 20
65.6
 30
0.0
 40
0.12
  0
CIRCLE
  5
25C
330
17
100
AcDbEntity
  8
DEBUG_NODE
100
AcDbCircle
 10
108.0
 20
61.0
 30
0.0
 40
0.12
  0
CIRCLE
  5
25D
330
17
100
AcDbEntity
  8
DEBUG_NODE
100
AcDbCircle
 10
105.6
 20
59.8
 30
0.0
 40
0.12
  0
CIRCLE
  5
25E
330
17
100
AcDbEntity
  8
DEBUG_NODE
100
AcDbCircle
 10
108.0
 20
19.0
 30
0.0
 40
0.12
  0
CIRCLE
  5
25F
330
17
100
AcDbEntity
  8
DEBUG_NODE
100
AcDbCircle
 10
105.6
 20
20.2
 30
0.0
 40
0.12
  0
CIRCLE
  5
260
330
17
100
AcDbEntity
  8
DEBUG_NODE
100
AcDbCircle
 10
101.0
 20
12.0
 30
0.0
 40
0.12
  0
CIRCLE
  5
261
330
17
100
AcDbEntity
  8
DEBUG_NODE
100
AcDbCircle
 10
99.8
 20
14.4
 30
0.0
 40
0.12
  0
CIRCLE
  5
262
330
17
100
AcDbEntity
  8
DEBUG_NODE
100
AcDbCircle
 10
37.666667
 20
16.666667
 30
0.0
 40
0.12
  0
CIRCLE
  5
263
330
17
100
AcDbEntity
  8
DEBUG_NODE
100
AcDbCircle
 10
45.666667
 20
16.666667
 30
0.0
 40
0.12
  0
CIRCLE
  5
264
330
17
100
AcDbEntity
  8
DEBUG_NODE
100
AcDbCircle
 10
37.666667
 20
28.333333
 30
0.0
 40
0.12
  0
CIRCLE
  5
265
330
17
100
AcDbEntity
  8
DEBUG_NODE
100
AcDbCircle
 10
45.666667
 20
28.333333
 30
0.0
 40
0.12
  0
CIRCLE
  5
266
330
17
100
AcDbEntity
  8
DEBUG_NODE
100
AcDbCircle
 10
37.666667
 20
40.0
 30
0.0
 40
0.12
  0
CIRCLE
  5
267
330
17
100
AcDbEntity
  8
DEBUG_NODE
100
AcDbCircle
 10
45.666667
 20
40.0
 30
0.0
 40
0.12
  0
CIRCLE
  5
268
330
17
100
AcDbEntity
  8
DEBUG_NODE
100
AcDbCircle
 10
37.666667
 20
51.666667
 30
0.0
 40
0.12
  0
CIRCLE
  5
269
330
17
100
AcDbEntity
  8
DEBUG_NODE
100
AcDbCircle
 10
45.666667
 20
51.666667
 30
0.0
 40
0.12
  0
CIRCLE
  5
26A
330
17
100
AcDbEntity
  8
DEBUG_NODE
100
AcDbCircle
 10
37.666667
 20
63.333333
 30
0.0
 40
0.12
  0
CIRCLE
  5
26B
330
17
100
AcDbEntity
  8
DEBUG_NODE
100
AcDbCircle
 10
45.666667
 20
63.333333
 30
0.0
 40
0.12
  0
CIRCLE
  5
26C
330
17
100
AcDbEntity
  8
DEBUG_NODE
100
AcDbCircle
 10
74.333333
 20
16.666667
 30
0.0
 40
0.12
  0
CIRCLE
  5
26D
330
17
100
AcDbEntity
  8
DEBUG_NODE
100
AcDbCircle
 10
82.333333
 20
16.666667
 30
0.0
 40
0.12
  0
CIRCLE
  5
26E
330
17
100
AcDbEntity
  8
DEBUG_NODE
100
AcDbCircle
 10
74.333333
 20
28.333333
 30
0.0
 40
0.12
  0
CIRCLE
  5
26F
330
17
100
AcDbEntity
  8
DEBUG_NODE
100
AcDbCircle
 10
82.333333
 20
28.333333
 30
0.0
 40
0.12
  0
CIRCLE
  5
270
330
17
100
AcDbEntity
  8
DEBUG_NODE
100
AcDbCircle
 10
74.333333
 20
40.0
 30
0.0
 40
0.12
  0
CIRCLE
  5
271
330
17
100
AcDbEntity
  8
DEBUG_NODE
100
AcDbCircle
 10
82.333333
 20
40.0
 30
0.0
 40
0.12
  0
CIRCLE
  5
272
330
17
100
AcDbEntity
  8
DEBUG_NODE
100
AcDbCircle
 10
74.333333
 20
51.666667
 30
0.0
 40
0.12
  0
CIRCLE
  5
273
330
17
100
AcDbEntity
  8
DEBUG_NODE
100
AcDbCircle
 10
82.333333
 20
51.666667
 30
0.0
 40
0.12
  0
CIRCLE
  5
274
330
17
100
AcDbEntity
  8
DEBUG_NODE
100
AcDbCircle
 10
74.333333
 20
63.333333
 30
0.0
 40
0.12
  0
CIRCLE
  5
275
330
17
100
AcDbEntity
  8
DEBUG_NODE
100
AcDbCircle
 10
82.333333
 20
63.333333
 30
0.0
 40
0.12
  0
CIRCLE
  5
276
330
17
100
AcDbEntity
  8
DEBUG_NODE
100
AcDbCircle
 10
15.888889
 20
36.0
 30
0.0
 40
0.12
  0
CIRCLE
  5
277
330
17
100
AcDbEntity
  8
DEBUG_NODE
100
AcDbCircle
 10
15.888889
 20
44.0
 30
0.0
 40
0.12
  0
CIRCLE
  5
278
330
17
100
AcDbEntity
  8
DEBUG_NODE
100
AcDbCircle
 10
26.777778
 20
36.0
 30
0.0
 40
0.12
  0
CIRCLE
  5
279
330
17
100
AcDbEntity
  8
DEBUG_NODE
100
AcDbCircle
 10
26.777778
 20
44.0
 30
0.0
 40
0.12
  0
CIRCLE
  5
27A
330
17
100
AcDbEntity
  8
DEBUG_NODE
100
AcDbCircle
 10
55.222222
 20
36.0
 30
0.0
 40
0.12
  0
CIRCLE
  5
27B
330
17
100
AcDbEntity
  8
DEBUG_NODE
100
AcDbCircle
 10
55.222222
 20
44.0
 30
0.0
 40
0.12
  0
CIRCLE
  5
27C
330
17
100
AcDbEntity
  8
DEBUG_NODE
100
AcDbCircle
 10
64.777778
 20
36.0
 30
0.0
 40
0.12
  0
CIRCLE
  5
27D
330
17
100
AcDbEntity
  8
DEBUG_NODE
100
AcDbCircle
 10
64.777778
 20
44.0
 30
0.0
 40
0.12
  0
CIRCLE
  5
27E
330
17
100
AcDbEntity
  8
DEBUG_NODE
100
AcDbCircle
 10
93.222222
 20
36.0
 30
0.0
 40
0.12
  0
CIRCLE
  5
27F
330
17
100
AcDbEntity
  8
DEBUG_NODE
100
AcDbCircle
 10
93.222222
 20
44.0
 30
0.0
 40
0.12
  0
CIRCLE
  5
280
330
17
100
AcDbEntity
  8
DEBUG_NODE
100
AcDbCircle
 10
104.111111
 20
36.0
 30
0.0
 40
0.12
  0
CIRCLE
  5
281
330
17
100
AcDbEntity
  8
DEBUG_NODE
100
AcDbCircle
 10
104.111111
 20
44.0
 30
0.0
 40
0.12
  0
CIRCLE
  5
282
330
17
100
AcDbEntity
  8
DEBUG_NODE
100
AcDbCircle
 10
6.8
 20
40.0
 30
0.0
 40
0.12
  0
CIRCLE
  5
283
330
17
100
AcDbEntity
  8
DEBUG_NODE
100
AcDbCircle
 10
41.666667
 20
73.2
 30
0.0
 40
0.12
  0
CIRCLE
  5
284
330
17
100
AcDbEntity
  8
DEBUG_NODE
100
AcDbCircle
 10
78.333333
 20
73.2
 30
0.0
 40
0.12
  0
CIRCLE
  5
285
330
17
100
AcDbEntity
  8
DEBUG_NODE
100
AcDbCircle
 10
113.2
 20
40.0
 30
0.0
 40
0.12
  0
CIRCLE
  5
286
330
17
100
AcDbEntity
  8
DEBUG_NODE
100
AcDbCircle
 10
78.333333
 20
6.8
 30
0.0
 40
0.12
  0
CIRCLE
  5
287
330
17
100
AcDbEntity
  8
DEBUG_NODE
100
AcDbCircle
 10
41.666667
 20
6.8
 30
0.0
 40
0.12
  0
ENDSEC
  0
SECTION
  2
OBJECTS
  0
DICTIONARY
  5
A
330
0
100
AcDbDictionary
281
1
  3
ACAD_COLOR
350
B
  3
ACAD_GROUP
350
C
  3
ACAD_LAYOUT
350
D
  3
ACAD_MATERIAL
350
E
  3
ACAD_MLEADERSTYLE
350
F
  3
ACAD_MLINESTYLE
350
10
  3
ACAD_PLOTSETTINGS
350
11
  3
ACAD_PLOTSTYLENAME
350
12
  3
ACAD_SCALELIST
350
14
  3
ACAD_TABLESTYLE
350
15
  3
ACAD_VISUALSTYLE
350
16
  3
EZDXF_META
350
2D
  0
DICTIONARY
  5
B
330
A
100
AcDbDictionary
281
1
  0
DICTIONARY
  5
C
330
A
100
AcDbDictionary
281
1
  0
DICTIONARY
  5
D
330
A
100
AcDbDictionary
281
1
  3
Model
350
1A
  3
Layout1
350
1E
  0
DICTIONARY
  5
E
330
A
100
AcDbDictionary
281
1
  3
ByBlock
350
1F
  3
ByLayer
350
20
  3
Global
350
21
  0
DICTIONARY
  5
F
330
A
100
AcDbDictionary
281
1
  3
Standard
350
2C
  0
DICTIONARY
  5
10
330
A
100
AcDbDictionary
281
1
  3
Standard
350
22
  0
DICTIONARY
  5
11
330
A
100
AcDbDictionary
281
1
  0
ACDBDICTIONARYWDFLT
  5
12
330
A
100
AcDbDictionary
281
1
  3
Normal
350
13
100
AcDbDictionaryWithDefault
340
13
  0
ACDBPLACEHOLDER
  5
13
330
12
  0
DICTIONARY
  5
14
330
A
100
AcDbDictionary
281
1
  0
DICTIONARY
  5
15
330
A
100
AcDbDictionary
281
1
  0
DICTIONARY
  5
16
330
A
100
AcDbDictionary
281
1
  0
LAYOUT
  5
1A
330
D
100
AcDbPlotSettings
  1

  4
A3
  6

 40
7.5
 41
20.0
 42
7.5
 43
20.0
 44
420.0
 45
297.0
 46
0.0
 47
0.0
 48
0.0
 49
0.0
140
0.0
141
0.0
142
1.0
143
1.0
 70
1024
 72
1
 73
0
 74
5
  7

 75
16
 76
0
 77
2
 78
300
147
1.0
148
0.0
149
0.0
100
AcDbLayout
  1
Model
 70
1
 71
0
 10
0.0
 20
0.0
 11
420.0
 21
297.0
 12
0.0
 22
0.0
 32
0.0
 14
1e+20
 24
1e+20
 34
1e+20
 15
-1e+20
 25
-1e+20
 35
-1e+20
146
0.0
 13
0.0
 23
0.0
 33
0.0
 16
1.0
 26
0.0
 36
0.0
 17
0.0
 27
1.0
 37
0.0
 76
1
330
17
  0
LAYOUT
  5
1E
330
D
100
AcDbPlotSettings
  1

  4
A3
  6

 40
7.5
 41
20.0
 42
7.5
 43
20.0
 44
420.0
 45
297.0
 46
0.0
 47
0.0
 48
0.0
 49
0.0
140
0.0
141
0.0
142
1.0
143
1.0
 70
0
 72
1
 73
0
 74
5
  7

 75
16
 76
0
 77
2
 78
300
147
1.0
148
0.0
149
0.0
100
AcDbLayout
  1
Layout1
 70
1
 71
1
 10
0.0
 20
0.0
 11
420.0
 21
297.0
 12
0.0
 22
0.0
 32
0.0
 14
1e+20
 24
1e+20
 34
1e+20
 15
-1e+20
 25
-1e+20
 35
-1e+20
146
0.0
 13
0.0
 23
0.0
 33
0.0
 16
1.0
 26
0.0
 36
0.0
 17
0.0
 27
1.0
 37
0.0
 76
1
330
1B
  0
MATERIAL
  5
1F
102
{ACAD_REACTORS
330
E
102
}
330
E
100
AcDbMaterial
  1
ByBlock
  2

 70
0
 40
1.0
 71
1
 41
1.0
 91
-1023410177
 42
1.0
 72
1
  3

 73
1
 74
1
 75
1
 44
0.5
 73
0
 45
1.0
 46
1.0
 77
1
  4

 78
1
 79
1
170
1
 48
1.0
171
1
  6

172
1
173
1
174
1
140
1.0
141
1.0
175
1
  7

176
1
177
1
178
1
143
1.0
179
1
  8

270
1
271
1
272
1
145
1.0
146
1.0
273
1
  9

274
1
275
1
276
1
 42
1.0
 72
1
  3

 73
1
 74
1
 75
1
 94
63
  0
MATERIAL
  5
20
102
{ACAD_REACTORS
330
E
102
}
330
E
100
AcDbMaterial
  1
ByLayer
  2

 70
0
 40
1.0
 71
1
 41
1.0
 91
-1023410177
 42
1.0
 72
1
  3

 73
1
 74
1
 75
1
 44
0.5
 73
0
 45
1.0
 46
1.0
 77
1
  4

 78
1
 79
1
170
1
 48
1.0
171
1
  6

172
1
173
1
174
1
140
1.0
141
1.0
175
1
  7

176
1
177
1
178
1
143
1.0
179
1
  8

270
1
271
1
272
1
145
1.0
146
1.0
273
1
  9

274
1
275
1
276
1
 42
1.0
 72
1
  3

 73
1
 74
1
 75
1
 94
63
  0
MATERIAL
  5
21
102
{ACAD_REACTORS
330
E
102
}
330
E
100
AcDbMaterial
  1
Global
  2

 70
0
 40
1.0
 71
1
 41
1.0
 91
-1023410177
 42
1.0
 72
1
  3

 73
1
 74
1
 75
1
 44
0.5
 73
0
 45
1.0
 46
1.0
 77
1
  4

 78
1
 79
1
170
1
 48
1.0
171
1
  6

172
1
173
1
174
1
140
1.0
141
1.0
175
1
  7

176
1
177
1
178
1
143
1.0
179
1
  8

270
1
271
1
272
1
145
1.0
146
1.0
273
1
  9

274
1
275
1
276
1
 42
1.0
 72
1
  3

 73
1
 74
1
 75
1
 94
63
  0
MLINESTYLE
  5
22
102
{ACAD_REACTORS
330
10
102
}
330
10
100
AcDbMlineStyle
  2
Standard
 70
0
  3

 62
256
 51
90.0
 52
90.0
 71
2
 49
0.5
 62
256
  6
BYLAYER
 49
-0.5
 62
256
  6
BYLAYER
  0
MLEADERSTYLE
  5
2C
102
{ACAD_REACTORS
330
F
102
}
330
F
100
AcDbMLeaderStyle
179
2
170
2
171
1
172
0
 90
2
 40
0.0
 41
0.0
173
1
 91
-1056964608
 92
-2
290
1
 42
2.0
291
1
 43
8.0
  3
Standard
 44
4.0
300

342
29
174
1
175
1
176
0
178
1
 93
-1056964608
 45
4.0
292
0
297
0
 46
4.0
 94
-1056964608
 47
1.0
 49
1.0
140
1.0
294
1
141
0.0
177
0
142
1.0
295
0
296
0
143
3.75
271
0
272
9
273
9
  0
DICTIONARY
  5
2D
330
A
100
AcDbDictionary
280
1
281
1
  3
CREATED_BY_EZDXF
350
2E
  3
WRITTEN_BY_EZDXF
350
28A
  0
DICTIONARYVAR
  5
2E
330
2D
100
DictionaryVariables
280
0
  1
1.4.3 @ 2026-07-29T04:16:47.469937+00:00
  0
DICTIONARYVAR
  5
28A
330
2D
100
DictionaryVariables
280
0
  1
1.4.3 @ 2026-07-29T04:16:47.500778+00:00
  0
ENDSEC
  0
EOF
