  0
SECTION
  2
HEADER
  9
$ACADVER
  1
AC1024
  9
$ACADMAINTVER
 70
6
  9
$DWGCODEPAGE
  3
ANSI_1252
  9
$LASTSAVEDBY
  1
ezdxf
  9
$INSBASE
 10
0.0
 20
0.0
 30
0.0
  9
$EXTMIN
 10
1e+20
 20
1e+20
 30
1e+20
  9
$EXTMAX
 10
-1e+20
 20
-1e+20
 30
-1e+20
  9
$LIMMIN
 10
0.0
 20
0.0
  9
$LIMMAX
 10
420.0
 20
297.0
  9
$ORTHOMODE
 70
0
  9
$REGENMODE
 70
1
  9
$FILLMODE
 70
1
  9
$QTEXTMODE
 70
0
  9
$MIRRTEXT
 70
1
  9
$LTSCALE
 40
1.0
  9
$ATTMODE
 70
1
  9
$TEXTSIZE
 40
2.5
  9
$TRACEWID
 40
1.0
  9
$TEXTSTYLE
  7
Standard
  9
$CLAYER
  8
0
  9
$CELTYPE
  6
ByLayer
  9
$CECOLOR
 62
256
  9
$CELTSCALE
 40
1.0
  9
$DISPSILH
 70
0
  9
$DIMSCALE
 40
1.0
  9
$DIMASZ
 40
2.5
  9
$DIMEXO
 40
0.625
  9
$DIMDLI
 40
3.75
  9
$DIMRND
 40
0.0
  9
$DIMDLE
 40
0.0
  9
$DIMEXE
 40
1.25
  9
$DIMTP
 40
0.0
  9
$DIMTM
 40
0.0
  9
$DIMTXT
 40
2.5
  9
$DIMCEN
 40
2.5
  9
$DIMTSZ
 40
0.0
  9
$DIMTOL
 70
0
  9
$DIMLIM
 70
0
  9
$DIMTIH
 70
0
  9
$DIMTOH
 70
0
  9
$DIMSE1
 70
0
  9
$DIMSE2
 70
0
  9
$DIMTAD
 70
1
  9
$DIMZIN
 70
8
  9
$DIMBLK
  1

  9
$DIMASO
 70
1
  9
$DIMSHO
 70
1
  9
$DIMPOST
  1

  9
$DIMAPOST
  1

  9
$DIMALT
 70
0
  9
$DIMALTD
 70
3
  9
$DIMALTF
 40
0.03937007874
  9
$DIMLFAC
 40
1.0
  9
$DIMTOFL
 70
1
  9
$DIMTVP
 40
0.0
  9
$DIMTIX
 70
0
  9
$DIMSOXD
 70
0
  9
$DIMSAH
 70
0
  9
$DIMBLK1
  1

  9
$DIMBLK2
  1

  9
$DIMSTYLE
  2
ISO-25
  9
$DIMCLRD
 70
0
  9
$DIMCLRE
 70
0
  9
$DIMCLRT
 70
0
  9
$DIMTFAC
 40
1.0
  9
$DIMGAP
 40
0.625
  9
$DIMJUST
 70
0
  9
$DIMSD1
 70
0
  9
$DIMSD2
 70
0
  9
$DIMTOLJ
 70
0
  9
$DIMTZIN
 70
8
  9
$DIMALTZ
 70
0
  9
$DIMALTTZ
 70
0
  9
$DIMUPT
 70
0
  9
$DIMDEC
 70
2
  9
$DIMTDEC
 70
2
  9
$DIMALTU
 70
2
  9
$DIMALTTD
 70
3
  9
$DIMTXSTY
  7
Standard
  9
$DIMAUNIT
 70
0
  9
$DIMADEC
 70
0
  9
$DIMALTRND
 40
0.0
  9
$DIMAZIN
 70
0
  9
$DIMDSEP
 70
44
  9
$DIMATFIT
 70
3
  9
$DIMFRAC
 70
0
  9
$DIMLDRBLK
  1

  9
$DIMLUNIT
 70
2
  9
$DIMLWD
 70
-2
  9
$DIMLWE
 70
-2
  9
$DIMTMOVE
 70
0
  9
$DIMFXL
 40
1.0
  9
$DIMFXLON
 70
0
  9
$DIMJOGANG
 40
0.785398163397
  9
$DIMTFILL
 70
0
  9
$DIMTFILLCLR
 70
0
  9
$DIMARCSYM
 70
0
  9
$DIMLTYPE
  6

  9
$DIMLTEX1
  6

  9
$DIMLTEX2
  6

  9
$DIMTXTDIRECTION
 70
0
  9
$LUNITS
 70
2
  9
$LUPREC
 70
4
  9
$SKETCHINC
 40
1.0
  9
$FILLETRAD
 40
10.0
  9
$AUNITS
 70
0
  9
$AUPREC
 70
2
  9
$MENU
  1
.
  9
$ELEVATION
 40
0.0
  9
$PELEVATION
 40
0.0
  9
$THICKNESS
 40
0.0
  9
$LIMCHECK
 70
0
  9
$CHAMFERA
 40
0.0
  9
$CHAMFERB
 40
0.0
  9
$CHAMFERC
 40
0.0
  9
$CHAMFERD
 40
0.0
  9
$SKPOLY
 70
0
  9
$TDCREATE
 40
2461225.708078704
  9
$TDUCREATE
 40
2458532.153996898
  9
$TDUPDATE
 40
2461225.708078704
  9
$TDUUPDATE
 40
2458532.1544311
  9
$TDINDWG
 40
0.0
  9
$TDUSRTIMER
 40
0.0
  9
$USRTIMER
 70
1
  9
$ANGBASE
 50
0.0
  9
$ANGDIR
 70
0
  9
$PDMODE
 70
0
  9
$PDSIZE
 40
0.0
  9
$PLINEWID
 40
0.0
  9
$SPLFRAME
 70
0
  9
$SPLINETYPE
 70
6
  9
$SPLINESEGS
 70
8
  9
$HANDSEED
  5
456
  9
$SURFTAB1
 70
6
  9
$SURFTAB2
 70
6
  9
$SURFTYPE
 70
6
  9
$SURFU
 70
6
  9
$SURFV
 70
6
  9
$UCSBASE
  2

  9
$UCSNAME
  2

  9
$UCSORG
 10
0.0
 20
0.0
 30
0.0
  9
$UCSXDIR
 10
1.0
 20
0.0
 30
0.0
  9
$UCSYDIR
 10
0.0
 20
1.0
 30
0.0
  9
$UCSORTHOREF
  2

  9
$UCSORTHOVIEW
 70
0
  9
$UCSORGTOP
 10
0.0
 20
0.0
 30
0.0
  9
$UCSORGBOTTOM
 10
0.0
 20
0.0
 30
0.0
  9
$UCSORGLEFT
 10
0.0
 20
0.0
 30
0.0
  9
$UCSORGRIGHT
 10
0.0
 20
0.0
 30
0.0
  9
$UCSORGFRONT
 10
0.0
 20
0.0
 30
0.0
  9
$UCSORGBACK
 10
0.0
 20
0.0
 30
0.0
  9
$PUCSBASE
  2

  9
$PUCSNAME
  2

  9
$PUCSORG
 10
0.0
 20
0.0
 30
0.0
  9
$PUCSXDIR
 10
1.0
 20
0.0
 30
0.0
  9
$PUCSYDIR
 10
0.0
 20
1.0
 30
0.0
  9
$PUCSORTHOREF
  2

  9
$PUCSORTHOVIEW
 70
0
  9
$PUCSORGTOP
 10
0.0
 20
0.0
 30
0.0
  9
$PUCSORGBOTTOM
 10
0.0
 20
0.0
 30
0.0
  9
$PUCSORGLEFT
 10
0.0
 20
0.0
 30
0.0
  9
$PUCSORGRIGHT
 10
0.0
 20
0.0
 30
0.0
  9
$PUCSORGFRONT
 10
0.0
 20
0.0
 30
0.0
  9
$PUCSORGBACK
 10
0.0
 20
0.0
 30
0.0
  9
$USERI1
 70
0
  9
$USERI2
 70
0
  9
$USERI3
 70
0
  9
$USERI4
 70
0
  9
$USERI5
 70
0
  9
$USERR1
 40
0.0
  9
$USERR2
 40
0.0
  9
$USERR3
 40
0.0
  9
$USERR4
 40
0.0
  9
$USERR5
 40
0.0
  9
$WORLDVIEW
 70
1
  9
$SHADEDGE
 70
3
  9
$SHADEDIF
 70
70
  9
$TILEMODE
 70
1
  9
$MAXACTVP
 70
64
  9
$PINSBASE
 10
0.0
 20
0.0
 30
0.0
  9
$PLIMCHECK
 70
0
  9
$PEXTMIN
 10
1e+20
 20
1e+20
 30
1e+20
  9
$PEXTMAX
 10
-1e+20
 20
-1e+20
 30
-1e+20
  9
$PLIMMIN
 10
0.0
 20
0.0
  9
$PLIMMAX
 10
420.0
 20
297.0
  9
$UNITMODE
 70
0
  9
$VISRETAIN
 70
1
  9
$PLINEGEN
 70
0
  9
$PSLTSCALE
 70
1
  9
$TREEDEPTH
 70
3020
  9
$CMLSTYLE
  2
Standard
  9
$CMLJUST
 70
0
  9
$CMLSCALE
 40
20.0
  9
$PROXYGRAPHICS
 70
1
  9
$MEASUREMENT
 70
1
  9
$CELWEIGHT
370
-1
  9
$ENDCAPS
280
0
  9
$JOINSTYLE
280
0
  9
$LWDISPLAY
290
0
  9
$INSUNITS
 70
6
  9
$HYPERLINKBASE
  1

  9
$STYLESHEET
  1

  9
$XEDIT
290
1
  9
$CEPSNTYPE
380
0
  9
$PSTYLEMODE
290
1
  9
$FINGERPRINTGUID
  2
{9761CA50-8644-4B84-A2AE-E4AE98A7743E}
  9
$VERSIONGUID
  2
{50F6489A-E42F-4892-BB1F-AD061B65D142}
  9
$EXTNAMES
290
1
  9
$PSVPSCALE
 40
0.0
  9
$OLESTARTUP
290
0
  9
$SORTENTS
280
127
  9
$INDEXCTL
280
0
  9
$HIDETEXT
280
1
  9
$XCLIPFRAME
280
1
  9
$HALOGAP
280
0
  9
$OBSCOLOR
 70
257
  9
$OBSLTYPE
280
0
  9
$INTERSECTIONDISPLAY
280
0
  9
$INTERSECTIONCOLOR
 70
257
  9
$DIMASSOC
280
2
  9
$PROJECTNAME
  1

  9
$CAMERADISPLAY
290
0
  9
$LENSLENGTH
 40
50.0
  9
$CAMERAHEIGHT
 40
0.0
  9
$STEPSPERSEC
 40
24.0
  9
$STEPSIZE
 40
100.0
  9
$3DDWFPREC
 40
2.0
  9
$PSOLWIDTH
 40
0.005
  9
$PSOLHEIGHT
 40
0.08
  9
$LOFTANG1
 40
1.570796326795
  9
$LOFTANG2
 40
1.570796326795
  9
$LOFTMAG1
 40
0.0
  9
$LOFTMAG2
 40
0.0
  9
$LOFTPARAM
 70
7
  9
$LOFTNORMALS
280
1
  9
$LATITUDE
 40
37.795
  9
$LONGITUDE
 40
-122.394
  9
$NORTHDIRECTION
 40
0.0
  9
$TIMEZONE
 70
-8000
  9
$LIGHTGLYPHDISPLAY
280
1
  9
$TILEMODELIGHTSYNCH
280
1
  9
$CMATERIAL
347
20
  9
$SOLIDHIST
280
0
  9
$SHOWHIST
280
1
  9
$DWFFRAME
280
2
  9
$DGNFRAME
280
2
  9
$REALWORLDSCALE
290
1
  9
$INTERFERECOLOR
 62
256
  9
$CSHADOW
280
0
  9
$SHADOWPLANELOCATION
 40
0.0
  0
ENDSEC
  0
SECTION
  2
CLASSES
  0
CLASS
  1
ACDBDICTIONARYWDFLT
  2
AcDbDictionaryWithDefault
  3
ObjectDBX Classes
 90
0
 91
0
280
0
281
0
  0
CLASS
  1
SUN
  2
AcDbSun
  3
SCENEOE
 90
1153
 91
0
280
0
281
0
  0
CLASS
  1
VISUALSTYLE
  2
AcDbVisualStyle
  3
ObjectDBX Classes
 90
4095
 91
0
280
0
281
0
  0
CLASS
  1
MATERIAL
  2
AcDbMaterial
  3
ObjectDBX Classes
 90
1153
 91
0
280
0
281
0
  0
CLASS
  1
SCALE
  2
AcDbScale
  3
ObjectDBX Classes
 90
1153
 91
0
280
0
281
0
  0
CLASS
  1
TABLESTYLE
  2
AcDbTableStyle
  3
ObjectDBX Classes
 90
4095
 91
0
280
0
281
0
  0
CLASS
  1
MLEADERSTYLE
  2
AcDbMLeaderStyle
  3
ACDB_MLEADERSTYLE_CLASS
 90
4095
 91
0
280
0
281
0
  0
CLASS
  1
DICTIONARYVAR
  2
AcDbDictionaryVar
  3
ObjectDBX Classes
 90
0
 91
0
280
0
281
0
  0
CLASS
  1
CELLSTYLEMAP
  2
AcDbCellStyleMap
  3
ObjectDBX Classes
 90
1152
 91
0
280
0
281
0
  0
CLASS
  1
MENTALRAYRENDERSETTINGS
  2
AcDbMentalRayRenderSettings
  3
SCENEOE
 90
1024
 91
0
280
0
281
0
  0
CLASS
  1
ACDBDETAILVIEWSTYLE
  2
AcDbDetailViewStyle
  3
ObjectDBX Classes
 90
1025
 91
0
280
0
281
0
  0
CLASS
  1
ACDBSECTIONVIEWSTYLE
  2
AcDbSectionViewStyle
  3
ObjectDBX Classes
 90
1025
 91
0
280
0
281
0
  0
CLASS
  1
RASTERVARIABLES
  2
AcDbRasterVariables
  3
ISM
 90
0
 91
0
280
0
281
0
  0
CLASS
  1
ACDBPLACEHOLDER
  2
AcDbPlaceHolder
  3
ObjectDBX Classes
 90
0
 91
0
280
0
281
0
  0
CLASS
  1
LAYOUT
  2
AcDbLayout
  3
ObjectDBX Classes
 90
0
 91
0
280
0
281
0
  0
ENDSEC
  0
SECTION
  2
TABLES
  0
TABLE
  2
VPORT
  5
8
330
0
100
AcDbSymbolTable
 70
1
  0
VPORT
  5
23
330
8
100
AcDbSymbolTableRecord
100
AcDbViewportTableRecord
  2
*Active
 70
0
 10
0.0
 20
0.0
 11
1.0
 21
1.0
 12
0.0
 22
0.0
 13
0.0
 23
0.0
 14
0.5
 24
0.5
 15
0.5
 25
0.5
 16
0.0
 26
0.0
 36
1.0
 17
0.0
 27
0.0
 37
0.0
 40
1000.0
 41
1.34
 42
50.0
 43
0.0
 44
0.0
 50
0.0
 51
0.0
 71
0
 72
1000
 73
1
 74
3
 75
0
 76
0
 77
0
 78
0
281
0
 65
0
146
0.0
  0
ENDTAB
  0
TABLE
  2
LTYPE
  5
2
330
0
100
AcDbSymbolTable
 70
3
  0
LTYPE
  5
24
330
2
100
AcDbSymbolTableRecord
100
AcDbLinetypeTableRecord
  2
ByBlock
 70
0
  3

 72
65
 73
0
 40
0.0
  0
LTYPE
  5
25
330
2
100
AcDbSymbolTableRecord
100
AcDbLinetypeTableRecord
  2
ByLayer
 70
0
  3

 72
65
 73
0
 40
0.0
  0
LTYPE
  5
26
330
2
100
AcDbSymbolTableRecord
100
AcDbLinetypeTableRecord
  2
Continuous
 70
0
  3

 72
65
 73
0
 40
0.0
  0
ENDTAB
  0
TABLE
  2
LAYER
  5
1
330
0
100
AcDbSymbolTable
 70
17
  0
LAYER
  5
27
330
1
100
AcDbSymbolTableRecord
100
AcDbLayerTableRecord
  2
0
 70
0
 62
7
  6
Continuous
370
-3
390
13
347
21
  0
LAYER
  5
28
330
1
100
AcDbSymbolTableRecord
100
AcDbLayerTableRecord
  2
Defpoints
 70
0
 62
7
  6
Continuous
290
0
370
-3
390
13
347
21
  0
LAYER
  5
2F
330
1
100
AcDbSymbolTableRecord
100
AcDbLayerTableRecord
  2
WALL_REF
 70
0
 62
1
  6
Continuous
370
-3
390
13
347
21
  0
LAYER
  5
30
330
1
100
AcDbSymbolTableRecord
100
AcDbLayerTableRecord
  2
WALING
 70
0
 62
6
  6
Continuous
370
-3
390
13
347
21
  0
LAYER
  5
31
330
1
100
AcDbSymbolTableRecord
100
AcDbLayerTableRecord
  2
STRUT
 70
0
 62
4
  6
Continuous
370
-3
390
13
347
21
  0
LAYER
  5
32
330
1
100
AcDbSymbolTableRecord
100
AcDbLayerTableRecord
  2
CORNER
 70
0
 62
2
  6
Continuous
370
-3
390
13
347
21
  0
LAYER
  5
33
330
1
100
AcDbSymbolTableRecord
100
AcDbLayerTableRecord
  2
TIE
 70
0
 62
8
  6
Continuous
370
-3
390
13
347
21
  0
LAYER
  5
34
330
1
100
AcDbSymbolTableRecord
100
AcDbLayerTableRecord
  2
TRUSS_WEB
 70
0
 62
30
  6
Continuous
370
-3
390
13
347
21
  0
LAYER
  5
35
330
1
100
AcDbSymbolTableRecord
100
AcDbLayerTableRecord
  2
RING_STRUT
 70
0
 62
140
  6
Continuous
370
-3
390
13
347
21
  0
LAYER
  5
36
330
1
100
AcDbSymbolTableRecord
100
AcDbLayerTableRecord
  2
RADIAL_STRUT
 70
0
 62
5
  6
Continuous
370
-3
390
13
347
21
  0
LAYER
  5
37
330
1
100
AcDbSymbolTableRecord
100
AcDbLayerTableRecord
  2
PILLAR
 70
0
 62
7
  6
Continuous
370
-3
390
13
347
21
  0
LAYER
  5
38
330
1
100
AcDbSymbolTableRecord
100
AcDbLayerTableRecord
  2
STRUT_OUTLINE
 70
0
 62
9
  6
Continuous
370
-3
390
13
347
21
  0
LAYER
  5
39
330
1
100
AcDbSymbolTableRecord
100
AcDbLayerTableRecord
  2
WALING_OUTLINE
 70
0
 62
213
  6
Continuous
370
-3
390
13
347
21
  0
LAYER
  5
3A
330
1
100
AcDbSymbolTableRecord
100
AcDbLayerTableRecord
  2
TRUSS_CHORD
 70
0
 62
3
  6
Continuous
370
-3
390
13
347
21
  0
LAYER
  5
3B
330
1
100
AcDbSymbolTableRecord
100
AcDbLayerTableRecord
  2
DEBUG_NODE
 70
0
 62
1
  6
Continuous
370
-3
390
13
347
21
  0
LAYER
  5
3C
330
1
100
AcDbSymbolTableRecord
100
AcDbLayerTableRecord
  2
DEBUG_ISSUE
 70
0
 62
1
  6
Continuous
370
-3
390
13
347
21
  0
LAYER
  5
3D
330
1
100
AcDbSymbolTableRecord
100
AcDbLayerTableRecord
  2
CORE_PROTECTION
 70
0
 62
1
  6
Continuous
370
-3
390
13
347
21
  0
ENDTAB
  0
TABLE
  2
STYLE
  5
5
330
0
100
AcDbSymbolTable
 70
1
  0
STYLE
  5
29
330
5
100
AcDbSymbolTableRecord
100
AcDbTextStyleTableRecord
  2
Standard
 70
0
 40
0.0
 41
1.0
 50
0.0
 71
0
 42
2.5
  3
txt
  4

  0
ENDTAB
  0
TABLE
  2
VIEW
  5
7
330
0
100
AcDbSymbolTable
 70
0
  0
ENDTAB
  0
TABLE
  2
UCS
  5
6
330
0
100
AcDbSymbolTable
 70
0
  0
ENDTAB
  0
TABLE
  2
APPID
  5
3
330
0
100
AcDbSymbolTable
 70
3
  0
APPID
  5
2A
330
3
100
AcDbSymbolTableRecord
100
AcDbRegAppTableRecord
  2
ACAD
 70
0
  0
APPID
  5
453
330
3
100
AcDbSymbolTableRecord
100
AcDbRegAppTableRecord
  2
HATCHBACKGROUNDCOLOR
 70
0
  0
APPID
  5
454
330
3
100
AcDbSymbolTableRecord
100
AcDbRegAppTableRecord
  2
EZDXF
 70
0
  0
ENDTAB
  0
TABLE
  2
DIMSTYLE
  5
4
330
0
100
AcDbSymbolTable
 70
1
100
AcDbDimStyleTable
  0
DIMSTYLE
105
2B
330
4
100
AcDbSymbolTableRecord
100
AcDbDimStyleTableRecord
  2
Standard
 70
0
 40
1.0
 41
2.5
 42
0.625
 43
3.75
 44
1.25
 45
0.0
 46
0.0
 47
0.0
 48
0.0
 49
2.5
140
2.5
141
2.5
142
0.0
143
0.03937007874
144
1.0
145
0.0
146
1.0
147
0.625
148
0.0
 69
0
 70
0
 71
0
 72
0
 73
0
 74
0
 75
0
 76
0
 77
1
 78
8
 79
3
170
0
171
3
172
1
173
0
174
0
175
0
176
0
177
0
178
0
179
2
271
2
272
2
273
2
274
3
275
0
276
0
277
2
278
44
279
0
280
0
281
0
282
0
283
0
284
8
285
0
286
0
288
0
289
3
290
0
371
-2
372
-2
  0
ENDTAB
  0
TABLE
  2
BLOCK_RECORD
  5
9
330
0
100
AcDbSymbolTable
 70
2
  0
BLOCK_RECORD
  5
17
330
9
100
AcDbSymbolTableRecord
100
AcDbBlockTableRecord
  2
*Model_Space
340
1A
 70
0
280
1
281
0
  0
BLOCK_RECORD
  5
1B
330
9
100
AcDbSymbolTableRecord
100
AcDbBlockTableRecord
  2
*Paper_Space
340
1E
 70
0
280
1
281
0
  0
ENDTAB
  0
ENDSEC
  0
SECTION
  2
BLOCKS
  0
BLOCK
  5
18
330
17
100
AcDbEntity
  8
0
100
AcDbBlockBegin
  2
*Model_Space
 70
0
 10
0.0
 20
0.0
 30
0.0
  3
*Model_Space
  1

  0
ENDBLK
  5
19
330
17
100
AcDbEntity
  8
0
100
AcDbBlockEnd
  0
BLOCK
  5
1C
330
1B
100
AcDbEntity
  8
0
100
AcDbBlockBegin
  2
*Paper_Space
 70
0
 10
0.0
 20
0.0
 30
0.0
  3
*Paper_Space
  1

  0
ENDBLK
  5
1D
330
1B
100
AcDbEntity
  8
0
100
AcDbBlockEnd
  0
ENDSEC
  0
SECTION
  2
ENTITIES
  0
LWPOLYLINE
  5
3E
330
17
100
AcDbEntity
  8
WALL_REF
100
AcDbPolyline
 90
4
 70
1
 10
0.0
 20
0.0
 10
120.0
 20
0.0
 10
120.0
 20
80.0
 10
0.0
 20
80.0
  0
LWPOLYLINE
  5
3F
330
17
100
AcDbEntity
  8
WALING
100
AcDbPolyline
 90
5
 70
1
 10
5.0
 20
5.0
 10
5.0
 20
75.0
 10
115.0
 20
75.0
 10
115.0
 20
5.0
 10
5.0
 20
5.0
  0
LWPOLYLINE
  5
40
330
17
100
AcDbEntity
  8
STRUT
100
AcDbPolyline
 90
2
 70
0
 10
10.0
 20
5.0
 10
10.0
 20
75.0
  0
LWPOLYLINE
  5
41
330
17
100
AcDbEntity
  8
STRUT
100
AcDbPolyline
 90
2
 70
0
 10
22.5
 20
5.0
 10
22.5
 20
75.0
  0
LWPOLYLINE
  5
42
330
17
100
AcDbEntity
  8
STRUT
100
AcDbPolyline
 90
2
 70
0
 10
35.0
 20
5.0
 10
35.0
 20
75.0
  0
LWPOLYLINE
  5
43
330
17
100
AcDbEntity
  8
STRUT
100
AcDbPolyline
 90
2
 70
0
 10
47.5
 20
5.0
 10
47.5
 20
75.0
  0
LWPOLYLINE
  5
44
330
17
100
AcDbEntity
  8
STRUT
100
AcDbPolyline
 90
2
 70
0
 10
60.0
 20
5.0
 10
60.0
 20
75.0
  0
LWPOLYLINE
  5
45
330
17
100
AcDbEntity
  8
STRUT
100
AcDbPolyline
 90
2
 70
0
 10
72.5
 20
5.0
 10
72.5
 20
75.0
  0
LWPOLYLINE
  5
46
330
17
100
AcDbEntity
  8
STRUT
100
AcDbPolyline
 90
2
 70
0
 10
85.0
 20
5.0
 10
85.0
 20
75.0
  0
LWPOLYLINE
  5
47
330
17
100
AcDbEntity
  8
STRUT
100
AcDbPolyline
 90
2
 70
0
 10
97.5
 20
5.0
 10
97.5
 20
75.0
  0
LWPOLYLINE
  5
48
330
17
100
AcDbEntity
  8
STRUT
100
AcDbPolyline
 90
2
 70
0
 10
110.0
 20
5.0
 10
110.0
 20
75.0
  0
LWPOLYLINE
  5
49
330
17
100
AcDbEntity
  8
STRUT
100
AcDbPolyline
 90
2
 70
0
 10
5.0
 20
10.0
 10
115.0
 20
10.0
  0
LWPOLYLINE
  5
4A
330
17
100
AcDbEntity
  8
STRUT
100
AcDbPolyline
 90
2
 70
0
 10
5.0
 20
22.0
 10
115.0
 20
22.0
  0
LWPOLYLINE
  5
4B
330
17
100
AcDbEntity
  8
STRUT
100
AcDbPolyline
 90
2
 70
0
 10
5.0
 20
34.0
 10
115.0
 20
34.0
  0
LWPOLYLINE
  5
4C
330
17
100
AcDbEntity
  8
STRUT
100
AcDbPolyline
 90
2
 70
0
 10
5.0
 20
46.0
 10
115.0
 20
46.0
  0
LWPOLYLINE
  5
4D
330
17
100
AcDbEntity
  8
STRUT
100
AcDbPolyline
 90
2
 70
0
 10
5.0
 20
58.0
 10
115.0
 20
58.0
  0
LWPOLYLINE
  5
4E
330
17
100
AcDbEntity
  8
STRUT
100
AcDbPolyline
 90
2
 70
0
 10
5.0
 20
70.0
 10
115.0
 20
70.0
  0
LWPOLYLINE
  5
4F
330
17
100
AcDbEntity
  8
TIE
100
AcDbPolyline
 90
2
 70
0
 10
10.0
 20
28.333333333333332
 10
22.5
 20
28.333333333333332
  0
LWPOLYLINE
  5
50
330
17
100
AcDbEntity
  8
TIE
100
AcDbPolyline
 90
2
 70
0
 10
10.0
 20
51.666666666666664
 10
22.5
 20
51.666666666666664
  0
LWPOLYLINE
  5
51
330
17
100
AcDbEntity
  8
TIE
100
AcDbPolyline
 90
2
 70
0
 10
22.5
 20
28.333333333333332
 10
35.0
 20
28.333333333333332
  0
LWPOLYLINE
  5
52
330
17
100
AcDbEntity
  8
TIE
100
AcDbPolyline
 90
2
 70
0
 10
22.5
 20
51.666666666666664
 10
35.0
 20
51.666666666666664
  0
LWPOLYLINE
  5
53
330
17
100
AcDbEntity
  8
TIE
100
AcDbPolyline
 90
2
 70
0
 10
35.0
 20
28.333333333333332
 10
47.5
 20
28.333333333333332
  0
LWPOLYLINE
  5
54
330
17
100
AcDbEntity
  8
TIE
100
AcDbPolyline
 90
2
 70
0
 10
35.0
 20
51.666666666666664
 10
47.5
 20
51.666666666666664
  0
LWPOLYLINE
  5
55
330
17
100
AcDbEntity
  8
TIE
100
AcDbPolyline
 90
2
 70
0
 10
47.5
 20
28.333333333333332
 10
60.0
 20
28.333333333333332
  0
LWPOLYLINE
  5
56
330
17
100
AcDbEntity
  8
TIE
100
AcDbPolyline
 90
2
 70
0
 10
47.5
 20
51.666666666666664
 10
60.0
 20
51.666666666666664
  0
LWPOLYLINE
  5
57
330
17
100
AcDbEntity
  8
TIE
100
AcDbPolyline
 90
2
 70
0
 10
60.0
 20
28.333333333333332
 10
72.5
 20
28.333333333333332
  0
LWPOLYLINE
  5
58
330
17
100
AcDbEntity
  8
TIE
100
AcDbPolyline
 90
2
 70
0
 10
60.0
 20
51.666666666666664
 10
72.5
 20
51.666666666666664
  0
LWPOLYLINE
  5
59
330
17
100
AcDbEntity
  8
TIE
100
AcDbPolyline
 90
2
 70
0
 10
72.5
 20
28.333333333333332
 10
85.0
 20
28.333333333333332
  0
LWPOLYLINE
  5
5A
330
17
100
AcDbEntity
  8
TIE
100
AcDbPolyline
 90
2
 70
0
 10
72.5
 20
51.666666666666664
 10
85.0
 20
51.666666666666664
  0
LWPOLYLINE
  5
5B
330
17
100
AcDbEntity
  8
TIE
100
AcDbPolyline
 90
2
 70
0
 10
85.0
 20
28.333333333333332
 10
97.5
 20
28.333333333333332
  0
LWPOLYLINE
  5
5C
330
17
100
AcDbEntity
  8
TIE
100
AcDbPolyline
 90
2
 70
0
 10
85.0
 20
51.666666666666664
 10
97.5
 20
51.666666666666664
  0
LWPOLYLINE
  5
5D
330
17
100
AcDbEntity
  8
TIE
100
AcDbPolyline
 90
2
 70
0
 10
97.5
 20
28.333333333333332
 10
110.0
 20
28.333333333333332
  0
LWPOLYLINE
  5
5E
330
17
100
AcDbEntity
  8
TIE
100
AcDbPolyline
 90
2
 70
0
 10
97.5
 20
51.666666666666664
 10
110.0
 20
51.666666666666664
  0
LWPOLYLINE
  5
5F
330
17
100
AcDbEntity
  8
TRUSS_CHORD
100
AcDbPolyline
 90
2
 70
0
 10
5.0
 20
5.0
 10
5.0
 20
10.0
  0
LWPOLYLINE
  5
60
330
17
100
AcDbEntity
  8
TRUSS_CHORD
100
AcDbPolyline
 90
2
 70
0
 10
11.0
 20
5.0
 10
11.0
 20
10.0
  0
LWPOLYLINE
  5
61
330
17
100
AcDbEntity
  8
TRUSS_WEB
100
AcDbPolyline
 90
2
 70
0
 10
5.0
 20
5.0
 10
11.0
 20
10.0
  0
LWPOLYLINE
  5
62
330
17
100
AcDbEntity
  8
TRUSS_CHORD
100
AcDbPolyline
 90
2
 70
0
 10
5.0
 20
10.0
 10
5.0
 20
16.666667
  0
LWPOLYLINE
  5
63
330
17
100
AcDbEntity
  8
TRUSS_CHORD
100
AcDbPolyline
 90
2
 70
0
 10
11.0
 20
10.0
 10
11.0
 20
16.666667
  0
LWPOLYLINE
  5
64
330
17
100
AcDbEntity
  8
TRUSS_WEB
100
AcDbPolyline
 90
2
 70
0
 10
11.0
 20
10.0
 10
5.0
 20
16.666667
  0
LWPOLYLINE
  5
65
330
17
100
AcDbEntity
  8
TRUSS_CHORD
100
AcDbPolyline
 90
2
 70
0
 10
5.0
 20
16.666667
 10
5.0
 20
22.0
  0
LWPOLYLINE
  5
66
330
17
100
AcDbEntity
  8
TRUSS_CHORD
100
AcDbPolyline
 90
2
 70
0
 10
11.0
 20
16.666667
 10
11.0
 20
22.0
  0
LWPOLYLINE
  5
67
330
17
100
AcDbEntity
  8
TRUSS_WEB
100
AcDbPolyline
 90
2
 70
0
 10
5.0
 20
16.666667
 10
11.0
 20
22.0
  0
LWPOLYLINE
  5
68
330
17
100
AcDbEntity
  8
TRUSS_CHORD
100
AcDbPolyline
 90
2
 70
0
 10
5.0
 20
22.0
 10
5.0
 20
28.333333
  0
LWPOLYLINE
  5
69
330
17
100
AcDbEntity
  8
TRUSS_CHORD
100
AcDbPolyline
 90
2
 70
0
 10
11.0
 20
22.0
 10
11.0
 20
28.333333
  0
LWPOLYLINE
  5
6A
330
17
100
AcDbEntity
  8
TRUSS_WEB
100
AcDbPolyline
 90
2
 70
0
 10
11.0
 20
22.0
 10
5.0
 20
28.333333
  0
LWPOLYLINE
  5
6B
330
17
100
AcDbEntity
  8
TRUSS_CHORD
100
AcDbPolyline
 90
2
 70
0
 10
5.0
 20
28.333333
 10
5.0
 20
34.0
  0
LWPOLYLINE
  5
6C
330
17
100
AcDbEntity
  8
TRUSS_CHORD
100
AcDbPolyline
 90
2
 70
0
 10
11.0
 20
28.333333
 10
11.0
 20
34.0
  0
LWPOLYLINE
  5
6D
330
17
100
AcDbEntity
  8
TRUSS_WEB
100
AcDbPolyline
 90
2
 70
0
 10
5.0
 20
28.333333
 10
11.0
 20
34.0
  0
LWPOLYLINE
  5
6E
330
17
100
AcDbEntity
  8
TRUSS_CHORD
100
AcDbPolyline
 90
2
 70
0
 10
5.0
 20
34.0
 10
5.0
 20
40.0
  0
LWPOLYLINE
  5
6F
330
17
100
AcDbEntity
  8
TRUSS_CHORD
100
AcDbPolyline
 90
2
 70
0
 10
11.0
 20
34.0
 10
11.0
 20
40.0
  0
LWPOLYLINE
  5
70
330
17
100
AcDbEntity
  8
TRUSS_WEB
100
AcDbPolyline
 90
2
 70
0
 10
11.0
 20
34.0
 10
5.0
 20
40.0
  0
LWPOLYLINE
  5
71
330
17
100
AcDbEntity
  8
TRUSS_CHORD
100
AcDbPolyline
 90
2
 70
0
 10
5.0
 20
40.0
 10
5.0
 20
46.0
  0
LWPOLYLINE
  5
72
330
17
100
AcDbEntity
  8
TRUSS_CHORD
100
AcDbPolyline
 90
2
 70
0
 10
11.0
 20
40.0
 10
11.0
 20
46.0
  0
LWPOLYLINE
  5
73
330
17
100
AcDbEntity
  8
TRUSS_WEB
100
AcDbPolyline
 90
2
 70
0
 10
5.0
 20
40.0
 10
11.0
 20
46.0
  0
LWPOLYLINE
  5
74
330
17
100
AcDbEntity
  8
TRUSS_CHORD
100
AcDbPolyline
 90
2
 70
0
 10
5.0
 20
46.0
 10
5.0
 20
51.666667
  0
LWPOLYLINE
  5
75
330
17
100
AcDbEntity
  8
TRUSS_CHORD
100
AcDbPolyline
 90
2
 70
0
 10
11.0
 20
46.0
 10
11.0
 20
51.666667
  0
LWPOLYLINE
  5
76
330
17
100
AcDbEntity
  8
TRUSS_WEB
100
AcDbPolyline
 90
2
 70
0
 10
11.0
 20
46.0
 10
5.0
 20
51.666667
  0
LWPOLYLINE
  5
77
330
17
100
AcDbEntity
  8
TRUSS_CHORD
100
AcDbPolyline
 90
2
 70
0
 10
5.0
 20
51.666667
 10
5.0
 20
58.0
  0
LWPOLYLINE
  5
78
330
17
100
AcDbEntity
  8
TRUSS_CHORD
100
AcDbPolyline
 90
2
 70
0
 10
11.0
 20
51.666667
 10
11.0
 20
58.0
  0
LWPOLYLINE
  5
79
330
17
100
AcDbEntity
  8
TRUSS_WEB
100
AcDbPolyline
 90
2
 70
0
 10
5.0
 20
51.666667
 10
11.0
 20
58.0
  0
LWPOLYLINE
  5
7A
330
17
100
AcDbEntity
  8
TRUSS_CHORD
100
AcDbPolyline
 90
2
 70
0
 10
5.0
 20
58.0
 10
5.0
 20
63.333333
  0
LWPOLYLINE
  5
7B
330
17
100
AcDbEntity
  8
TRUSS_CHORD
100
AcDbPolyline
 90
2
 70
0
 10
11.0
 20
58.0
 10
11.0
 20
63.333333
  0
LWPOLYLINE
  5
7C
330
17
100
AcDbEntity
  8
TRUSS_WEB
100
AcDbPolyline
 90
2
 70
0
 10
11.0
 20
58.0
 10
5.0
 20
63.333333
  0
LWPOLYLINE
  5
7D
330
17
100
AcDbEntity
  8
TRUSS_CHORD
100
AcDbPolyline
 90
2
 70
0
 10
5.0
 20
63.333333
 10
5.0
 20
70.0
  0
LWPOLYLINE
  5
7E
330
17
100
AcDbEntity
  8
TRUSS_CHORD
100
AcDbPolyline
 90
2
 70
0
 10
11.0
 20
63.333333
 10
11.0
 20
70.0
  0
LWPOLYLINE
  5
7F
330
17
100
AcDbEntity
  8
TRUSS_WEB
100
AcDbPolyline
 90
2
 70
0
 10
5.0
 20
63.333333
 10
11.0
 20
70.0
  0
LWPOLYLINE
  5
80
330
17
100
AcDbEntity
  8
TRUSS_CHORD
100
AcDbPolyline
 90
2
 70
0
 10
5.0
 20
70.0
 10
5.0
 20
75.0
  0
LWPOLYLINE
  5
81
330
17
100
AcDbEntity
  8
TRUSS_CHORD
100
AcDbPolyline
 90
2
 70
0
 10
11.0
 20
70.0
 10
11.0
 20
75.0
  0
LWPOLYLINE
  5
82
330
17
100
AcDbEntity
  8
TRUSS_WEB
100
AcDbPolyline
 90
2
 70
0
 10
11.0
 20
70.0
 10
5.0
 20
75.0
  0
LWPOLYLINE
  5
83
330
17
100
AcDbEntity
  8
TRUSS_CHORD
100
AcDbPolyline
 90
2
 70
0
 10
5.0
 20
75.0
 10
10.0
 20
75.0
  0
LWPOLYLINE
  5
84
330
17
100
AcDbEntity
  8
TRUSS_CHORD
100
AcDbPolyline
 90
2
 70
0
 10
5.0
 20
69.0
 10
10.0
 20
69.0
  0
LWPOLYLINE
  5
85
330
17
100
AcDbEntity
  8
TRUSS_WEB
100
AcDbPolyline
 90
2
 70
0
 10
5.0
 20
75.0
 10
10.0
 20
69.0
  0
LWPOLYLINE
  5
86
330
17
100
AcDbEntity
  8
TRUSS_CHORD
100
AcDbPolyline
 90
2
 70
0
 10
10.0
 20
75.0
 10
16.578947
 20
75.0
  0
LWPOLYLINE
  5
87
330
17
100
AcDbEntity
  8
TRUSS_CHORD
100
AcDbPolyline
 90
2
 70
0
 10
10.0
 20
69.0
 10
16.578947
 20
69.0
  0
LWPOLYLINE
  5
88
330
17
100
AcDbEntity
  8
TRUSS_WEB
100
AcDbPolyline
 90
2
 70
0
 10
10.0
 20
69.0
 10
16.578947
 20
75.0
  0
LWPOLYLINE
  5
89
330
17
100
AcDbEntity
  8
TRUSS_CHORD
100
AcDbPolyline
 90
2
 70
0
 10
16.578947
 20
75.0
 10
22.5
 20
75.0
  0
LWPOLYLINE
  5
8A
330
17
100
AcDbEntity
  8
TRUSS_CHORD
100
AcDbPolyline
 90
2
 70
0
 10
16.578947
 20
69.0
 10
22.5
 20
69.0
  0
LWPOLYLINE
  5
8B
330
17
100
AcDbEntity
  8
TRUSS_WEB
100
AcDbPolyline
 90
2
 70
0
 10
16.578947
 20
75.0
 10
22.5
 20
69.0
  0
LWPOLYLINE
  5
8C
330
17
100
AcDbEntity
  8
TRUSS_CHORD
100
AcDbPolyline
 90
2
 70
0
 10
22.5
 20
75.0
 10
28.157895
 20
75.0
  0
LWPOLYLINE
  5
8D
330
17
100
AcDbEntity
  8
TRUSS_CHORD
100
AcDbPolyline
 90
2
 70
0
 10
22.5
 20
69.0
 10
28.157895
 20
69.0
  0
LWPOLYLINE
  5
8E
330
17
100
AcDbEntity
  8
TRUSS_WEB
100
AcDbPolyline
 90
2
 70
0
 10
22.5
 20
69.0
 10
28.157895
 20
75.0
  0
LWPOLYLINE
  5
8F
330
17
100
AcDbEntity
  8
TRUSS_CHORD
100
AcDbPolyline
 90
2
 70
0
 10
28.157895
 20
75.0
 10
35.0
 20
75.0
  0
LWPOLYLINE
  5
90
330
17
100
AcDbEntity
  8
TRUSS_CHORD
100
AcDbPolyline
 90
2
 70
0
 10
28.157895
 20
69.0
 10
35.0
 20
69.0
  0
LWPOLYLINE
  5
91
330
17
100
AcDbEntity
  8
TRUSS_WEB
100
AcDbPolyline
 90
2
 70
0
 10
28.157895
 20
75.0
 10
35.0
 20
69.0
  0
LWPOLYLINE
  5
92
330
17
100
AcDbEntity
  8
TRUSS_CHORD
100
AcDbPolyline
 90
2
 70
0
 10
35.0
 20
75.0
 10
39.736842
 20
75.0
  0
LWPOLYLINE
  5
93
330
17
100
AcDbEntity
  8
TRUSS_CHORD
100
AcDbPolyline
 90
2
 70
0
 10
35.0
 20
69.0
 10
39.736842
 20
69.0
  0
LWPOLYLINE
  5
94
330
17
100
AcDbEntity
  8
TRUSS_WEB
100
AcDbPolyline
 90
2
 70
0
 10
35.0
 20
69.0
 10
39.736842
 20
75.0
  0
LWPOLYLINE
  5
95
330
17
100
AcDbEntity
  8
TRUSS_CHORD
100
AcDbPolyline
 90
2
 70
0
 10
39.736842
 20
75.0
 10
47.5
 20
75.0
  0
LWPOLYLINE
  5
96
330
17
100
AcDbEntity
  8
TRUSS_CHORD
100
AcDbPolyline
 90
2
 70
0
 10
39.736842
 20
69.0
 10
47.5
 20
69.0
  0
LWPOLYLINE
  5
97
330
17
100
AcDbEntity
  8
TRUSS_WEB
100
AcDbPolyline
 90
2
 70
0
 10
39.736842
 20
75.0
 10
47.5
 20
69.0
  0
LWPOLYLINE
  5
98
330
17
100
AcDbEntity
  8
TRUSS_CHORD
100
AcDbPolyline
 90
2
 70
0
 10
47.5
 20
75.0
 10
51.315789
 20
75.0
  0
LWPOLYLINE
  5
99
330
17
100
AcDbEntity
  8
TRUSS_CHORD
100
AcDbPolyline
 90
2
 70
0
 10
47.5
 20
69.0
 10
51.315789
 20
69.0
  0
LWPOLYLINE
  5
9A
330
17
100
AcDbEntity
  8
TRUSS_WEB
100
AcDbPolyline
 90
2
 70
0
 10
47.5
 20
69.0
 10
51.315789
 20
75.0
  0
LWPOLYLINE
  5
9B
330
17
100
AcDbEntity
  8
TRUSS_CHORD
100
AcDbPolyline
 90
2
 70
0
 10
51.315789
 20
75.0
 10
60.0
 20
75.0
  0
LWPOLYLINE
  5
9C
330
17
100
AcDbEntity
  8
TRUSS_CHORD
100
AcDbPolyline
 90
2
 70
0
 10
51.315789
 20
69.0
 10
60.0
 20
69.0
  0
LWPOLYLINE
  5
9D
330
17
100
AcDbEntity
  8
TRUSS_WEB
100
AcDbPolyline
 90
2
 70
0
 10
51.315789
 20
75.0
 10
60.0
 20
69.0
  0
LWPOLYLINE
  5
9E
330
17
100
AcDbEntity
  8
TRUSS_CHORD
100
AcDbPolyline
 90
2
 70
0
 10
60.0
 20
75.0
 10
68.684211
 20
75.0
  0
LWPOLYLINE
  5
9F
330
17
100
AcDbEntity
  8
TRUSS_CHORD
100
AcDbPolyline
 90
2
 70
0
 10
60.0
 20
69.0
 10
68.684211
 20
69.0
  0
LWPOLYLINE
  5
A0
330
17
100
AcDbEntity
  8
TRUSS_WEB
100
AcDbPolyline
 90
2
 70
0
 10
60.0
 20
69.0
 10
68.684211
 20
75.0
  0
LWPOLYLINE
  5
A1
330
17
100
AcDbEntity
  8
TRUSS_CHORD
100
AcDbPolyline
 90
2
 70
0
 10
68.684211
 20
75.0
 10
72.5
 20
75.0
  0
LWPOLYLINE
  5
A2
330
17
100
AcDbEntity
  8
TRUSS_CHORD
100
AcDbPolyline
 90
2
 70
0
 10
68.684211
 20
69.0
 10
72.5
 20
69.0
  0
LWPOLYLINE
  5
A3
330
17
100
AcDbEntity
  8
TRUSS_WEB
100
AcDbPolyline
 90
2
 70
0
 10
68.684211
 20
75.0
 10
72.5
 20
69.0
  0
LWPOLYLINE
  5
A4
330
17
100
AcDbEntity
  8
TRUSS_CHORD
100
AcDbPolyline
 90
2
 70
0
 10
72.5
 20
75.0
 10
80.263158
 20
75.0
  0
LWPOLYLINE
  5
A5
330
17
100
AcDbEntity
  8
TRUSS_CHORD
100
AcDbPolyline
 90
2
 70
0
 10
72.5
 20
69.0
 10
80.263158
 20
69.0
  0
LWPOLYLINE
  5
A6
330
17
100
AcDbEntity
  8
TRUSS_WEB
100
AcDbPolyline
 90
2
 70
0
 10
72.5
 20
69.0
 10
80.263158
 20
75.0
  0
LWPOLYLINE
  5
A7
330
17
100
AcDbEntity
  8
TRUSS_CHORD
100
AcDbPolyline
 90
2
 70
0
 10
80.263158
 20
75.0
 10
85.0
 20
75.0
  0
LWPOLYLINE
  5
A8
330
17
100
AcDbEntity
  8
TRUSS_CHORD
100
AcDbPolyline
 90
2
 70
0
 10
80.263158
 20
69.0
 10
85.0
 20
69.0
  0
LWPOLYLINE
  5
A9
330
17
100
AcDbEntity
  8
TRUSS_WEB
100
AcDbPolyline
 90
2
 70
0
 10
80.263158
 20
75.0
 10
85.0
 20
69.0
  0
LWPOLYLINE
  5
AA
330
17
100
AcDbEntity
  8
TRUSS_CHORD
100
AcDbPolyline
 90
2
 70
0
 10
85.0
 20
75.0
 10
91.842105
 20
75.0
  0
LWPOLYLINE
  5
AB
330
17
100
AcDbEntity
  8
TRUSS_CHORD
100
AcDbPolyline
 90
2
 70
0
 10
85.0
 20
69.0
 10
91.842105
 20
69.0
  0
LWPOLYLINE
  5
AC
330
17
100
AcDbEntity
  8
TRUSS_WEB
100
AcDbPolyline
 90
2
 70
0
 10
85.0
 20
69.0
 10
91.842105
 20
75.0
  0
LWPOLYLINE
  5
AD
330
17
100
AcDbEntity
  8
TRUSS_CHORD
100
AcDbPolyline
 90
2
 70
0
 10
91.842105
 20
75.0
 10
97.5
 20
75.0
  0
LWPOLYLINE
  5
AE
330
17
100
AcDbEntity
  8
TRUSS_CHORD
100
AcDbPolyline
 90
2
 70
0
 10
91.842105
 20
69.0
 10
97.5
 20
69.0
  0
LWPOLYLINE
  5
AF
330
17
100
AcDbEntity
  8
TRUSS_WEB
100
AcDbPolyline
 90
2
 70
0
 10
91.842105
 20
75.0
 10
97.5
 20
69.0
  0
LWPOLYLINE
  5
B0
330
17
100
AcDbEntity
  8
TRUSS_CHORD
100
AcDbPolyline
 90
2
 70
0
 10
97.5
 20
75.0
 10
103.421053
 20
75.0
  0
LWPOLYLINE
  5
B1
330
17
100
AcDbEntity
  8
TRUSS_CHORD
100
AcDbPolyline
 90
2
 70
0
 10
97.5
 20
69.0
 10
103.421053
 20
69.0
  0
LWPOLYLINE
  5
B2
330
17
100
AcDbEntity
  8
TRUSS_WEB
100
AcDbPolyline
 90
2
 70
0
 10
97.5
 20
69.0
 10
103.421053
 20
75.0
  0
LWPOLYLINE
  5
B3
330
17
100
AcDbEntity
  8
TRUSS_CHORD
100
AcDbPolyline
 90
2
 70
0
 10
103.421053
 20
75.0
 10
110.0
 20
75.0
  0
LWPOLYLINE
  5
B4
330
17
100
AcDbEntity
  8
TRUSS_CHORD
100
AcDbPolyline
 90
2
 70
0
 10
103.421053
 20
69.0
 10
110.0
 20
69.0
  0
LWPOLYLINE
  5
B5
330
17
100
AcDbEntity
  8
TRUSS_WEB
100
AcDbPolyline
 90
2
 70
0
 10
103.421053
 20
75.0
 10
110.0
 20
69.0
  0
LWPOLYLINE
  5
B6
330
17
100
AcDbEntity
  8
TRUSS_CHORD
100
AcDbPolyline
 90
2
 70
0
 10
110.0
 20
75.0
 10
115.0
 20
75.0
  0
LWPOLYLINE
  5
B7
330
17
100
AcDbEntity
  8
TRUSS_CHORD
100
AcDbPolyline
 90
2
 70
0
 10
110.0
 20
69.0
 10
115.0
 20
69.0
  0
LWPOLYLINE
  5
B8
330
17
100
AcDbEntity
  8
TRUSS_WEB
100
AcDbPolyline
 90
2
 70
0
 10
110.0
 20
69.0
 10
115.0
 20
75.0
  0
LWPOLYLINE
  5
B9
330
17
100
AcDbEntity
  8
TRUSS_CHORD
100
AcDbPolyline
 90
2
 70
0
 10
115.0
 20
5.0
 10
115.0
 20
10.0
  0
LWPOLYLINE
  5
BA
330
17
100
AcDbEntity
  8
TRUSS_CHORD
100
AcDbPolyline
 90
2
 70
0
 10
109.0
 20
5.0
 10
109.0
 20
10.0
  0
LWPOLYLINE
  5
BB
330
17
100
AcDbEntity
  8
TRUSS_WEB
100
AcDbPolyline
 90
2
 70
0
 10
115.0
 20
5.0
 10
109.0
 20
10.0
  0
LWPOLYLINE
  5
BC
330
17
100
AcDbEntity
  8
TRUSS_CHORD
100
AcDbPolyline
 90
2
 70
0
 10
115.0
 20
10.0
 10
115.0
 20
16.666667
  0
LWPOLYLINE
  5
BD
330
17
100
AcDbEntity
  8
TRUSS_CHORD
100
AcDbPolyline
 90
2
 70
0
 10
109.0
 20
10.0
 10
109.0
 20
16.666667
  0
LWPOLYLINE
  5
BE
330
17
100
AcDbEntity
  8
TRUSS_WEB
100
AcDbPolyline
 90
2
 70
0
 10
109.0
 20
10.0
 10
115.0
 20
16.666667
  0
LWPOLYLINE
  5
BF
330
17
100
AcDbEntity
  8
TRUSS_CHORD
100
AcDbPolyline
 90
2
 70
0
 10
115.0
 20
16.666667
 10
115.0
 20
22.0
  0
LWPOLYLINE
  5
C0
330
17
100
AcDbEntity
  8
TRUSS_CHORD
100
AcDbPolyline
 90
2
 70
0
 10
109.0
 20
16.666667
 10
109.0
 20
22.0
  0
LWPOLYLINE
  5
C1
330
17
100
AcDbEntity
  8
TRUSS_WEB
100
AcDbPolyline
 90
2
 70
0
 10
115.0
 20
16.666667
 10
109.0
 20
22.0
  0
LWPOLYLINE
  5
C2
330
17
100
AcDbEntity
  8
TRUSS_CHORD
100
AcDbPolyline
 90
2
 70
0
 10
115.0
 20
22.0
 10
115.0
 20
28.333333
  0
LWPOLYLINE
  5
C3
330
17
100
AcDbEntity
  8
TRUSS_CHORD
100
AcDbPolyline
 90
2
 70
0
 10
109.0
 20
22.0
 10
109.0
 20
28.333333
  0
LWPOLYLINE
  5
C4
330
17
100
AcDbEntity
  8
TRUSS_WEB
100
AcDbPolyline
 90
2
 70
0
 10
109.0
 20
22.0
 10
115.0
 20
28.333333
  0
LWPOLYLINE
  5
C5
330
17
100
AcDbEntity
  8
TRUSS_CHORD
100
AcDbPolyline
 90
2
 70
0
 10
115.0
 20
28.333333
 10
115.0
 20
34.0
  0
LWPOLYLINE
  5
C6
330
17
100
AcDbEntity
  8
TRUSS_CHORD
100
AcDbPolyline
 90
2
 70
0
 10
109.0
 20
28.333333
 10
109.0
 20
34.0
  0
LWPOLYLINE
  5
C7
330
17
100
AcDbEntity
  8
TRUSS_WEB
100
AcDbPolyline
 90
2
 70
0
 10
115.0
 20
28.333333
 10
109.0
 20
34.0
  0
LWPOLYLINE
  5
C8
330
17
100
AcDbEntity
  8
TRUSS_CHORD
100
AcDbPolyline
 90
2
 70
0
 10
115.0
 20
34.0
 10
115.0
 20
40.0
  0
LWPOLYLINE
  5
C9
330
17
100
AcDbEntity
  8
TRUSS_CHORD
100
AcDbPolyline
 90
2
 70
0
 10
109.0
 20
34.0
 10
109.0
 20
40.0
  0
LWPOLYLINE
  5
CA
330
17
100
AcDbEntity
  8
TRUSS_WEB
100
AcDbPolyline
 90
2
 70
0
 10
109.0
 20
34.0
 10
115.0
 20
40.0
  0
LWPOLYLINE
  5
CB
330
17
100
AcDbEntity
  8
TRUSS_CHORD
100
AcDbPolyline
 90
2
 70
0
 10
115.0
 20
40.0
 10
115.0
 20
46.0
  0
LWPOLYLINE
  5
CC
330
17
100
AcDbEntity
  8
TRUSS_CHORD
100
AcDbPolyline
 90
2
 70
0
 10
109.0
 20
40.0
 10
109.0
 20
46.0
  0
LWPOLYLINE
  5
CD
330
17
100
AcDbEntity
  8
TRUSS_WEB
100
AcDbPolyline
 90
2
 70
0
 10
115.0
 20
40.0
 10
109.0
 20
46.0
  0
LWPOLYLINE
  5
CE
330
17
100
AcDbEntity
  8
TRUSS_CHORD
100
AcDbPolyline
 90
2
 70
0
 10
115.0
 20
46.0
 10
115.0
 20
51.666667
  0
LWPOLYLINE
  5
CF
330
17
100
AcDbEntity
  8
TRUSS_CHORD
100
AcDbPolyline
 90
2
 70
0
 10
109.0
 20
46.0
 10
109.0
 20
51.666667
  0
LWPOLYLINE
  5
D0
330
17
100
AcDbEntity
  8
TRUSS_WEB
100
AcDbPolyline
 90
2
 70
0
 10
109.0
 20
46.0
 10
115.0
 20
51.666667
  0
LWPOLYLINE
  5
D1
330
17
100
AcDbEntity
  8
TRUSS_CHORD
100
AcDbPolyline
 90
2
 70
0
 10
115.0
 20
51.666667
 10
115.0
 20
58.0
  0
LWPOLYLINE
  5
D2
330
17
100
AcDbEntity
  8
TRUSS_CHORD
100
AcDbPolyline
 90
2
 70
0
 10
109.0
 20
51.666667
 10
109.0
 20
58.0
  0
LWPOLYLINE
  5
D3
330
17
100
AcDbEntity
  8
TRUSS_WEB
100
AcDbPolyline
 90
2
 70
0
 10
115.0
 20
51.666667
 10
109.0
 20
58.0
  0
LWPOLYLINE
  5
D4
330
17
100
AcDbEntity
  8
TRUSS_CHORD
100
AcDbPolyline
 90
2
 70
0
 10
115.0
 20
58.0
 10
115.0
 20
63.333333
  0
LWPOLYLINE
  5
D5
330
17
100
AcDbEntity
  8
TRUSS_CHORD
100
AcDbPolyline
 90
2
 70
0
 10
109.0
 20
58.0
 10
109.0
 20
63.333333
  0
LWPOLYLINE
  5
D6
330
17
100
AcDbEntity
  8
TRUSS_WEB
100
AcDbPolyline
 90
2
 70
0
 10
109.0
 20
58.0
 10
115.0
 20
63.333333
  0
LWPOLYLINE
  5
D7
330
17
100
AcDbEntity
  8
TRUSS_CHORD
100
AcDbPolyline
 90
2
 70
0
 10
115.0
 20
63.333333
 10
115.0
 20
70.0
  0
LWPOLYLINE
  5
D8
330
17
100
AcDbEntity
  8
TRUSS_CHORD
100
AcDbPolyline
 90
2
 70
0
 10
109.0
 20
63.333333
 10
109.0
 20
70.0
  0
LWPOLYLINE
  5
D9
330
17
100
AcDbEntity
  8
TRUSS_WEB
100
AcDbPolyline
 90
2
 70
0
 10
115.0
 20
63.333333
 10
109.0
 20
70.0
  0
LWPOLYLINE
  5
DA
330
17
100
AcDbEntity
  8
TRUSS_CHORD
100
AcDbPolyline
 90
2
 70
0
 10
115.0
 20
70.0
 10
115.0
 20
75.0
  0
LWPOLYLINE
  5
DB
330
17
100
AcDbEntity
  8
TRUSS_CHORD
100
AcDbPolyline
 90
2
 70
0
 10
109.0
 20
70.0
 10
109.0
 20
75.0
  0
LWPOLYLINE
  5
DC
330
17
100
AcDbEntity
  8
TRUSS_WEB
100
AcDbPolyline
 90
2
 70
0
 10
109.0
 20
70.0
 10
115.0
 20
75.0
  0
LWPOLYLINE
  5
DD
330
17
100
AcDbEntity
  8
TRUSS_CHORD
100
AcDbPolyline
 90
2
 70
0
 10
5.0
 20
5.0
 10
10.0
 20
5.0
  0
LWPOLYLINE
  5
DE
330
17
100
AcDbEntity
  8
TRUSS_CHORD
100
AcDbPolyline
 90
2
 70
0
 10
5.0
 20
11.0
 10
10.0
 20
11.0
  0
LWPOLYLINE
  5
DF
330
17
100
AcDbEntity
  8
TRUSS_WEB
100
AcDbPolyline
 90
2
 70
0
 10
5.0
 20
5.0
 10
10.0
 20
11.0
  0
LWPOLYLINE
  5
E0
330
17
100
AcDbEntity
  8
TRUSS_CHORD
100
AcDbPolyline
 90
2
 70
0
 10
10.0
 20
5.0
 10
16.578947
 20
5.0
  0
LWPOLYLINE
  5
E1
330
17
100
AcDbEntity
  8
TRUSS_CHORD
100
AcDbPolyline
 90
2
 70
0
 10
10.0
 20
11.0
 10
16.578947
 20
11.0
  0
LWPOLYLINE
  5
E2
330
17
100
AcDbEntity
  8
TRUSS_WEB
100
AcDbPolyline
 90
2
 70
0
 10
10.0
 20
11.0
 10
16.578947
 20
5.0
  0
LWPOLYLINE
  5
E3
330
17
100
AcDbEntity
  8
TRUSS_CHORD
100
AcDbPolyline
 90
2
 70
0
 10
16.578947
 20
5.0
 10
22.5
 20
5.0
  0
LWPOLYLINE
  5
E4
330
17
100
AcDbEntity
  8
TRUSS_CHORD
100
AcDbPolyline
 90
2
 70
0
 10
16.578947
 20
11.0
 10
22.5
 20
11.0
  0
LWPOLYLINE
  5
E5
330
17
100
AcDbEntity
  8
TRUSS_WEB
100
AcDbPolyline
 90
2
 70
0
 10
16.578947
 20
5.0
 10
22.5
 20
11.0
  0
LWPOLYLINE
  5
E6
330
17
100
AcDbEntity
  8
TRUSS_CHORD
100
AcDbPolyline
 90
2
 70
0
 10
22.5
 20
5.0
 10
28.157895
 20
5.0
  0
LWPOLYLINE
  5
E7
330
17
100
AcDbEntity
  8
TRUSS_CHORD
100
AcDbPolyline
 90
2
 70
0
 10
22.5
 20
11.0
 10
28.157895
 20
11.0
  0
LWPOLYLINE
  5
E8
330
17
100
AcDbEntity
  8
TRUSS_WEB
100
AcDbPolyline
 90
2
 70
0
 10
22.5
 20
11.0
 10
28.157895
 20
5.0
  0
LWPOLYLINE
  5
E9
330
17
100
AcDbEntity
  8
TRUSS_CHORD
100
AcDbPolyline
 90
2
 70
0
 10
28.157895
 20
5.0
 10
35.0
 20
5.0
  0
LWPOLYLINE
  5
EA
330
17
100
AcDbEntity
  8
TRUSS_CHORD
100
AcDbPolyline
 90
2
 70
0
 10
28.157895
 20
11.0
 10
35.0
 20
11.0
  0
LWPOLYLINE
  5
EB
330
17
100
AcDbEntity
  8
TRUSS_WEB
100
AcDbPolyline
 90
2
 70
0
 10
28.157895
 20
5.0
 10
35.0
 20
11.0
  0
LWPOLYLINE
  5
EC
330
17
100
AcDbEntity
  8
TRUSS_CHORD
100
AcDbPolyline
 90
2
 70
0
 10
35.0
 20
5.0
 10
39.736842
 20
5.0
  0
LWPOLYLINE
  5
ED
330
17
100
AcDbEntity
  8
TRUSS_CHORD
100
AcDbPolyline
 90
2
 70
0
 10
35.0
 20
11.0
 10
39.736842
 20
11.0
  0
LWPOLYLINE
  5
EE
330
17
100
AcDbEntity
  8
TRUSS_WEB
100
AcDbPolyline
 90
2
 70
0
 10
35.0
 20
11.0
 10
39.736842
 20
5.0
  0
LWPOLYLINE
  5
EF
330
17
100
AcDbEntity
  8
TRUSS_CHORD
100
AcDbPolyline
 90
2
 70
0
 10
39.736842
 20
5.0
 10
47.5
 20
5.0
  0
LWPOLYLINE
  5
F0
330
17
100
AcDbEntity
  8
TRUSS_CHORD
100
AcDbPolyline
 90
2
 70
0
 10
39.736842
 20
11.0
 10
47.5
 20
11.0
  0
LWPOLYLINE
  5
F1
330
17
100
AcDbEntity
  8
TRUSS_WEB
100
AcDbPolyline
 90
2
 70
0
 10
39.736842
 20
5.0
 10
47.5
 20
11.0
  0
LWPOLYLINE
  5
F2
330
17
100
AcDbEntity
  8
TRUSS_CHORD
100
AcDbPolyline
 90
2
 70
0
 10
47.5
 20
5.0
 10
51.315789
 20
5.0
  0
LWPOLYLINE
  5
F3
330
17
100
AcDbEntity
  8
TRUSS_CHORD
100
AcDbPolyline
 90
2
 70
0
 10
47.5
 20
11.0
 10
51.315789
 20
11.0
  0
LWPOLYLINE
  5
F4
330
17
100
AcDbEntity
  8
TRUSS_WEB
100
AcDbPolyline
 90
2
 70
0
 10
47.5
 20
11.0
 10
51.315789
 20
5.0
  0
LWPOLYLINE
  5
F5
330
17
100
AcDbEntity
  8
TRUSS_CHORD
100
AcDbPolyline
 90
2
 70
0
 10
51.315789
 20
5.0
 10
60.0
 20
5.0
  0
LWPOLYLINE
  5
F6
330
17
100
AcDbEntity
  8
TRUSS_CHORD
100
AcDbPolyline
 90
2
 70
0
 10
51.315789
 20
11.0
 10
60.0
 20
11.0
  0
LWPOLYLINE
  5
F7
330
17
100
AcDbEntity
  8
TRUSS_WEB
100
AcDbPolyline
 90
2
 70
0
 10
51.315789
 20
5.0
 10
60.0
 20
11.0
  0
LWPOLYLINE
  5
F8
330
17
100
AcDbEntity
  8
TRUSS_CHORD
100
AcDbPolyline
 90
2
 70
0
 10
60.0
 20
5.0
 10
68.684211
 20
5.0
  0
LWPOLYLINE
  5
F9
330
17
100
AcDbEntity
  8
TRUSS_CHORD
100
AcDbPolyline
 90
2
 70
0
 10
60.0
 20
11.0
 10
68.684211
 20
11.0
  0
LWPOLYLINE
  5
FA
330
17
100
AcDbEntity
  8
TRUSS_WEB
100
AcDbPolyline
 90
2
 70
0
 10
60.0
 20
11.0
 10
68.684211
 20
5.0
  0
LWPOLYLINE
  5
FB
330
17
100
AcDbEntity
  8
TRUSS_CHORD
100
AcDbPolyline
 90
2
 70
0
 10
68.684211
 20
5.0
 10
72.5
 20
5.0
  0
LWPOLYLINE
  5
FC
330
17
100
AcDbEntity
  8
TRUSS_CHORD
100
AcDbPolyline
 90
2
 70
0
 10
68.684211
 20
11.0
 10
72.5
 20
11.0
  0
LWPOLYLINE
  5
FD
330
17
100
AcDbEntity
  8
TRUSS_WEB
100
AcDbPolyline
 90
2
 70
0
 10
68.684211
 20
5.0
 10
72.5
 20
11.0
  0
LWPOLYLINE
  5
FE
330
17
100
AcDbEntity
  8
TRUSS_CHORD
100
AcDbPolyline
 90
2
 70
0
 10
72.5
 20
5.0
 10
80.263158
 20
5.0
  0
LWPOLYLINE
  5
FF
330
17
100
AcDbEntity
  8
TRUSS_CHORD
100
AcDbPolyline
 90
2
 70
0
 10
72.5
 20
11.0
 10
80.263158
 20
11.0
  0
LWPOLYLINE
  5
100
330
17
100
AcDbEntity
  8
TRUSS_WEB
100
AcDbPolyline
 90
2
 70
0
 10
72.5
 20
11.0
 10
80.263158
 20
5.0
  0
LWPOLYLINE
  5
101
330
17
100
AcDbEntity
  8
TRUSS_CHORD
100
AcDbPolyline
 90
2
 70
0
 10
80.263158
 20
5.0
 10
85.0
 20
5.0
  0
LWPOLYLINE
  5
102
330
17
100
AcDbEntity
  8
TRUSS_CHORD
100
AcDbPolyline
 90
2
 70
0
 10
80.263158
 20
11.0
 10
85.0
 20
11.0
  0
LWPOLYLINE
  5
103
330
17
100
AcDbEntity
  8
TRUSS_WEB
100
AcDbPolyline
 90
2
 70
0
 10
80.263158
 20
5.0
 10
85.0
 20
11.0
  0
LWPOLYLINE
  5
104
330
17
100
AcDbEntity
  8
TRUSS_CHORD
100
AcDbPolyline
 90
2
 70
0
 10
85.0
 20
5.0
 10
91.842105
 20
5.0
  0
LWPOLYLINE
  5
105
330
17
100
AcDbEntity
  8
TRUSS_CHORD
100
AcDbPolyline
 90
2
 70
0
 10
85.0
 20
11.0
 10
91.842105
 20
11.0
  0
LWPOLYLINE
  5
106
330
17
100
AcDbEntity
  8
TRUSS_WEB
100
AcDbPolyline
 90
2
 70
0
 10
85.0
 20
11.0
 10
91.842105
 20
5.0
  0
LWPOLYLINE
  5
107
330
17
100
AcDbEntity
  8
TRUSS_CHORD
100
AcDbPolyline
 90
2
 70
0
 10
91.842105
 20
5.0
 10
97.5
 20
5.0
  0
LWPOLYLINE
  5
108
330
17
100
AcDbEntity
  8
TRUSS_CHORD
100
AcDbPolyline
 90
2
 70
0
 10
91.842105
 20
11.0
 10
97.5
 20
11.0
  0
LWPOLYLINE
  5
109
330
17
100
AcDbEntity
  8
TRUSS_WEB
100
AcDbPolyline
 90
2
 70
0
 10
91.842105
 20
5.0
 10
97.5
 20
11.0
  0
LWPOLYLINE
  5
10A
330
17
100
AcDbEntity
  8
TRUSS_CHORD
100
AcDbPolyline
 90
2
 70
0
 10
97.5
 20
5.0
 10
103.421053
 20
5.0
  0
LWPOLYLINE
  5
10B
330
17
100
AcDbEntity
  8
TRUSS_CHORD
100
AcDbPolyline
 90
2
 70
0
 10
97.5
 20
11.0
 10
103.421053
 20
11.0
  0
LWPOLYLINE
  5
10C
330
17
100
AcDbEntity
  8
TRUSS_WEB
100
AcDbPolyline
 90
2
 70
0
 10
97.5
 20
11.0
 10
103.421053
 20
5.0
  0
LWPOLYLINE
  5
10D
330
17
100
AcDbEntity
  8
TRUSS_CHORD
100
AcDbPolyline
 90
2
 70
0
 10
103.421053
 20
5.0
 10
110.0
 20
5.0
  0
LWPOLYLINE
  5
10E
330
17
100
AcDbEntity
  8
TRUSS_CHORD
100
AcDbPolyline
 90
2
 70
0
 10
103.421053
 20
11.0
 10
110.0
 20
11.0
  0
LWPOLYLINE
  5
10F
330
17
100
AcDbEntity
  8
TRUSS_WEB
100
AcDbPolyline
 90
2
 70
0
 10
103.421053
 20
5.0
 10
110.0
 20
11.0
  0
LWPOLYLINE
  5
110
330
17
100
AcDbEntity
  8
TRUSS_CHORD
100
AcDbPolyline
 90
2
 70
0
 10
110.0
 20
5.0
 10
115.0
 20
5.0
  0
LWPOLYLINE
  5
111
330
17
100
AcDbEntity
  8
TRUSS_CHORD
100
AcDbPolyline
 90
2
 70
0
 10
110.0
 20
11.0
 10
115.0
 20
11.0
  0
LWPOLYLINE
  5
112
330
17
100
AcDbEntity
  8
TRUSS_WEB
100
AcDbPolyline
 90
2
 70
0
 10
110.0
 20
11.0
 10
115.0
 20
5.0
  0
LWPOLYLINE
  5
113
330
17
100
AcDbEntity
  8
CORNER
100
AcDbPolyline
 90
2
 70
0
 10
22.5
 20
5.0
 10
5.0
 20
22.0
  0
LWPOLYLINE
  5
114
330
17
100
AcDbEntity
  8
CORNER
100
AcDbPolyline
 90
2
 70
0
 10
28.157895
 20
5.0
 10
5.0
 20
28.333333
  0
LWPOLYLINE
  5
115
330
17
100
AcDbEntity
  8
CORNER
100
AcDbPolyline
 90
2
 70
0
 10
35.0
 20
5.0
 10
5.0
 20
34.0
  0
LWPOLYLINE
  5
116
330
17
100
AcDbEntity
  8
CORNER
100
AcDbPolyline
 90
2
 70
0
 10
5.0
 20
58.0
 10
22.5
 20
75.0
  0
LWPOLYLINE
  5
117
330
17
100
AcDbEntity
  8
CORNER
100
AcDbPolyline
 90
2
 70
0
 10
5.0
 20
51.666667
 10
28.157895
 20
75.0
  0
LWPOLYLINE
  5
118
330
17
100
AcDbEntity
  8
CORNER
100
AcDbPolyline
 90
2
 70
0
 10
5.0
 20
46.0
 10
35.0
 20
75.0
  0
LWPOLYLINE
  5
119
330
17
100
AcDbEntity
  8
CORNER
100
AcDbPolyline
 90
2
 70
0
 10
97.5
 20
75.0
 10
115.0
 20
58.0
  0
LWPOLYLINE
  5
11A
330
17
100
AcDbEntity
  8
CORNER
100
AcDbPolyline
 90
2
 70
0
 10
91.842105
 20
75.0
 10
115.0
 20
51.666667
  0
LWPOLYLINE
  5
11B
330
17
100
AcDbEntity
  8
CORNER
100
AcDbPolyline
 90
2
 70
0
 10
85.0
 20
75.0
 10
115.0
 20
46.0
  0
LWPOLYLINE
  5
11C
330
17
100
AcDbEntity
  8
CORNER
100
AcDbPolyline
 90
2
 70
0
 10
115.0
 20
22.0
 10
97.5
 20
5.0
  0
LWPOLYLINE
  5
11D
330
17
100
AcDbEntity
  8
CORNER
100
AcDbPolyline
 90
2
 70
0
 10
115.0
 20
28.333333
 10
91.842105
 20
5.0
  0
LWPOLYLINE
  5
11E
330
17
100
AcDbEntity
  8
CORNER
100
AcDbPolyline
 90
2
 70
0
 10
115.0
 20
34.0
 10
85.0
 20
5.0
  0
LWPOLYLINE
  5
11F
330
17
100
AcDbEntity
  8
WALING_OUTLINE
100
AcDbPolyline
 90
5
 70
1
 10
4.6
 20
4.6
 10
4.6
 20
75.4
 10
115.4
 20
75.4
 10
115.4
 20
4.6
 10
4.6
 20
4.6
  0
LWPOLYLINE
  5
120
330
17
100
AcDbEntity
  8
STRUT_OUTLINE
100
AcDbPolyline
 90
5
 70
1
 10
9.6
 20
75.0
 10
10.4
 20
75.0
 10
10.4
 20
5.0
 10
9.6
 20
5.0
 10
9.6
 20
75.0
  0
LWPOLYLINE
  5
121
330
17
100
AcDbEntity
  8
STRUT_OUTLINE
100
AcDbPolyline
 90
5
 70
1
 10
22.1
 20
75.0
 10
22.9
 20
75.0
 10
22.9
 20
5.0
 10
22.1
 20
5.0
 10
22.1
 20
75.0
  0
LWPOLYLINE
  5
122
330
17
100
AcDbEntity
  8
STRUT_OUTLINE
100
AcDbPolyline
 90
5
 70
1
 10
34.6
 20
75.0
 10
35.4
 20
75.0
 10
35.4
 20
5.0
 10
34.6
 20
5.0
 10
34.6
 20
75.0
  0
LWPOLYLINE
  5
123
330
17
100
AcDbEntity
  8
STRUT_OUTLINE
100
AcDbPolyline
 90
5
 70
1
 10
47.1
 20
75.0
 10
47.9
 20
75.0
 10
47.9
 20
5.0
 10
47.1
 20
5.0
 10
47.1
 20
75.0
  0
LWPOLYLINE
  5
124
330
17
100
AcDbEntity
  8
STRUT_OUTLINE
100
AcDbPolyline
 90
5
 70
1
 10
59.6
 20
75.0
 10
60.4
 20
75.0
 10
60.4
 20
5.0
 10
59.6
 20
5.0
 10
59.6
 20
75.0
  0
LWPOLYLINE
  5
125
330
17
100
AcDbEntity
  8
STRUT_OUTLINE
100
AcDbPolyline
 90
5
 70
1
 10
72.1
 20
75.0
 10
72.9
 20
75.0
 10
72.9
 20
5.0
 10
72.1
 20
5.0
 10
72.1
 20
75.0
  0
LWPOLYLINE
  5
126
330
17
100
AcDbEntity
  8
STRUT_OUTLINE
100
AcDbPolyline
 90
5
 70
1
 10
84.6
 20
75.0
 10
85.4
 20
75.0
 10
85.4
 20
5.0
 10
84.6
 20
5.0
 10
84.6
 20
75.0
  0
LWPOLYLINE
  5
127
330
17
100
AcDbEntity
  8
STRUT_OUTLINE
100
AcDbPolyline
 90
5
 70
1
 10
97.1
 20
75.0
 10
97.9
 20
75.0
 10
97.9
 20
5.0
 10
97.1
 20
5.0
 10
97.1
 20
75.0
  0
LWPOLYLINE
  5
128
330
17
100
AcDbEntity
  8
STRUT_OUTLINE
100
AcDbPolyline
 90
5
 70
1
 10
109.6
 20
75.0
 10
110.4
 20
75.0
 10
110.4
 20
5.0
 10
109.6
 20
5.0
 10
109.6
 20
75.0
  0
LWPOLYLINE
  5
129
330
17
100
AcDbEntity
  8
STRUT_OUTLINE
100
AcDbPolyline
 90
5
 70
1
 10
115.0
 20
10.4
 10
115.0
 20
9.6
 10
5.0
 20
9.6
 10
5.0
 20
10.4
 10
115.0
 20
10.4
  0
LWPOLYLINE
  5
12A
330
17
100
AcDbEntity
  8
STRUT_OUTLINE
100
AcDbPolyline
 90
5
 70
1
 10
115.0
 20
22.4
 10
115.0
 20
21.6
 10
5.0
 20
21.6
 10
5.0
 20
22.4
 10
115.0
 20
22.4
  0
LWPOLYLINE
  5
12B
330
17
100
AcDbEntity
  8
STRUT_OUTLINE
100
AcDbPolyline
 90
5
 70
1
 10
115.0
 20
34.4
 10
115.0
 20
33.6
 10
5.0
 20
33.6
 10
5.0
 20
34.4
 10
115.0
 20
34.4
  0
LWPOLYLINE
  5
12C
330
17
100
AcDbEntity
  8
STRUT_OUTLINE
100
AcDbPolyline
 90
5
 70
1
 10
115.0
 20
46.4
 10
115.0
 20
45.6
 10
5.0
 20
45.6
 10
5.0
 20
46.4
 10
115.0
 20
46.4
  0
LWPOLYLINE
  5
12D
330
17
100
AcDbEntity
  8
STRUT_OUTLINE
100
AcDbPolyline
 90
5
 70
1
 10
115.0
 20
58.4
 10
115.0
 20
57.6
 10
5.0
 20
57.6
 10
5.0
 20
58.4
 10
115.0
 20
58.4
  0
LWPOLYLINE
  5
12E
330
17
100
AcDbEntity
  8
STRUT_OUTLINE
100
AcDbPolyline
 90
5
 70
1
 10
115.0
 20
70.4
 10
115.0
 20
69.6
 10
5.0
 20
69.6
 10
5.0
 20
70.4
 10
115.0
 20
70.4
  0
LWPOLYLINE
  5
12F
330
17
100
AcDbEntity
  8
STRUT_OUTLINE
100
AcDbPolyline
 90
5
 70
1
 10
22.5
 20
28.48333333333333
 10
22.5
 20
28.183333333333334
 10
10.0
 20
28.183333333333334
 10
10.0
 20
28.48333333333333
 10
22.5
 20
28.48333333333333
  0
LWPOLYLINE
  5
130
330
17
100
AcDbEntity
  8
STRUT_OUTLINE
100
AcDbPolyline
 90
5
 70
1
 10
22.5
 20
51.81666666666666
 10
22.5
 20
51.516666666666666
 10
10.0
 20
51.516666666666666
 10
10.0
 20
51.81666666666666
 10
22.5
 20
51.81666666666666
  0
LWPOLYLINE
  5
131
330
17
100
AcDbEntity
  8
STRUT_OUTLINE
100
AcDbPolyline
 90
5
 70
1
 10
35.0
 20
28.48333333333333
 10
35.0
 20
28.183333333333334
 10
22.5
 20
28.183333333333334
 10
22.5
 20
28.48333333333333
 10
35.0
 20
28.48333333333333
  0
LWPOLYLINE
  5
132
330
17
100
AcDbEntity
  8
STRUT_OUTLINE
100
AcDbPolyline
 90
5
 70
1
 10
35.0
 20
51.81666666666666
 10
35.0
 20
51.516666666666666
 10
22.5
 20
51.516666666666666
 10
22.5
 20
51.81666666666666
 10
35.0
 20
51.81666666666666
  0
LWPOLYLINE
  5
133
330
17
100
AcDbEntity
  8
STRUT_OUTLINE
100
AcDbPolyline
 90
5
 70
1
 10
47.5
 20
28.48333333333333
 10
47.5
 20
28.183333333333334
 10
35.0
 20
28.183333333333334
 10
35.0
 20
28.48333333333333
 10
47.5
 20
28.48333333333333
  0
LWPOLYLINE
  5
134
330
17
100
AcDbEntity
  8
STRUT_OUTLINE
100
AcDbPolyline
 90
5
 70
1
 10
47.5
 20
51.81666666666666
 10
47.5
 20
51.516666666666666
 10
35.0
 20
51.516666666666666
 10
35.0
 20
51.81666666666666
 10
47.5
 20
51.81666666666666
  0
LWPOLYLINE
  5
135
330
17
100
AcDbEntity
  8
STRUT_OUTLINE
100
AcDbPolyline
 90
5
 70
1
 10
60.0
 20
28.48333333333333
 10
60.0
 20
28.183333333333334
 10
47.5
 20
28.183333333333334
 10
47.5
 20
28.48333333333333
 10
60.0
 20
28.48333333333333
  0
LWPOLYLINE
  5
136
330
17
100
AcDbEntity
  8
STRUT_OUTLINE
100
AcDbPolyline
 90
5
 70
1
 10
60.0
 20
51.81666666666666
 10
60.0
 20
51.516666666666666
 10
47.5
 20
51.516666666666666
 10
47.5
 20
51.81666666666666
 10
60.0
 20
51.81666666666666
  0
LWPOLYLINE
  5
137
330
17
100
AcDbEntity
  8
STRUT_OUTLINE
100
AcDbPolyline
 90
5
 70
1
 10
72.5
 20
28.48333333333333
 10
72.5
 20
28.183333333333334
 10
60.0
 20
28.183333333333334
 10
60.0
 20
28.48333333333333
 10
72.5
 20
28.48333333333333
  0
LWPOLYLINE
  5
138
330
17
100
AcDbEntity
  8
STRUT_OUTLINE
100
AcDbPolyline
 90
5
 70
1
 10
72.5
 20
51.81666666666666
 10
72.5
 20
51.516666666666666
 10
60.0
 20
51.516666666666666
 10
60.0
 20
51.81666666666666
 10
72.5
 20
51.81666666666666
  0
LWPOLYLINE
  5
139
330
17
100
AcDbEntity
  8
STRUT_OUTLINE
100
AcDbPolyline
 90
5
 70
1
 10
85.0
 20
28.48333333333333
 10
85.0
 20
28.183333333333334
 10
72.5
 20
28.183333333333334
 10
72.5
 20
28.48333333333333
 10
85.0
 20
28.48333333333333
  0
LWPOLYLINE
  5
13A
330
17
100
AcDbEntity
  8
STRUT_OUTLINE
100
AcDbPolyline
 90
5
 70
1
 10
85.0
 20
51.81666666666666
 10
85.0
 20
51.516666666666666
 10
72.5
 20
51.516666666666666
 10
72.5
 20
51.81666666666666
 10
85.0
 20
51.81666666666666
  0
LWPOLYLINE
  5
13B
330
17
100
AcDbEntity
  8
STRUT_OUTLINE
100
AcDbPolyline
 90
5
 70
1
 10
97.5
 20
28.48333333333333
 10
97.5
 20
28.183333333333334
 10
85.0
 20
28.183333333333334
 10
85.0
 20
28.48333333333333
 10
97.5
 20
28.48333333333333
  0
LWPOLYLINE
  5
13C
330
17
100
AcDbEntity
  8
STRUT_OUTLINE
100
AcDbPolyline
 90
5
 70
1
 10
97.5
 20
51.81666666666666
 10
97.5
 20
51.516666666666666
 10
85.0
 20
51.516666666666666
 10
85.0
 20
51.81666666666666
 10
97.5
 20
51.81666666666666
  0
LWPOLYLINE
  5
13D
330
17
100
AcDbEntity
  8
STRUT_OUTLINE
100
AcDbPolyline
 90
5
 70
1
 10
110.0
 20
28.48333333333333
 10
110.0
 20
28.183333333333334
 10
97.5
 20
28.183333333333334
 10
97.5
 20
28.48333333333333
 10
110.0
 20
28.48333333333333
  0
LWPOLYLINE
  5
13E
330
17
100
AcDbEntity
  8
STRUT_OUTLINE
100
AcDbPolyline
 90
5
 70
1
 10
110.0
 20
51.81666666666666
 10
110.0
 20
51.516666666666666
 10
97.5
 20
51.516666666666666
 10
97.5
 20
51.81666666666666
 10
110.0
 20
51.81666666666666
  0
LWPOLYLINE
  5
13F
330
17
100
AcDbEntity
  8
TRUSS_CHORD
100
AcDbPolyline
 90
5
 70
1
 10
4.6
 20
10.0
 10
5.4
 20
10.0
 10
5.4
 20
5.0
 10
4.6
 20
5.0
 10
4.6
 20
10.0
  0
LWPOLYLINE
  5
140
330
17
100
AcDbEntity
  8
TRUSS_CHORD
100
AcDbPolyline
 90
5
 70
1
 10
10.6
 20
10.0
 10
11.4
 20
10.0
 10
11.4
 20
5.0
 10
10.6
 20
5.0
 10
10.6
 20
10.0
  0
LWPOLYLINE
  5
141
330
17
100
AcDbEntity
  8
STRUT_OUTLINE
100
AcDbPolyline
 90
5
 70
1
 10
10.743926240134208
 20
10.30728851183895
 10
11.256073759865792
 20
9.69271148816105
 10
5.256073759865792
 20
4.692711488161049
 10
4.743926240134208
 20
5.307288511838951
 10
10.743926240134208
 20
10.30728851183895
  0
LWPOLYLINE
  5
142
330
17
100
AcDbEntity
  8
TRUSS_CHORD
100
AcDbPolyline
 90
5
 70
1
 10
4.6
 20
16.666667
 10
5.4
 20
16.666667
 10
5.4
 20
10.0
 10
4.6
 20
10.0
 10
4.6
 20
16.666667
  0
LWPOLYLINE
  5
143
330
17
100
AcDbEntity
  8
TRUSS_CHORD
100
AcDbPolyline
 90
5
 70
1
 10
10.6
 20
16.666667
 10
11.4
 20
16.666667
 10
11.4
 20
10.0
 10
10.6
 20
10.0
 10
10.6
 20
16.666667
  0
LWPOLYLINE
  5
144
330
17
100
AcDbEntity
  8
STRUT_OUTLINE
100
AcDbPolyline
 90
5
 70
1
 10
4.702682334848446
 20
16.399081114742895
 10
5.297317665151554
 20
16.934252885257106
 10
11.297317665151555
 20
10.267585885257105
 10
10.702682334848445
 20
9.732414114742895
 10
4.702682334848446
 20
16.399081114742895
  0
LWPOLYLINE
  5
145
330
17
100
AcDbEntity
  8
TRUSS_CHORD
100
AcDbPolyline
 90
5
 70
1
 10
4.6
 20
22.0
 10
5.4
 20
22.0
 10
5.4
 20
16.666667
 10
4.6
 20
16.666667
 10
4.6
 20
22.0
  0
LWPOLYLINE
  5
146
330
17
100
AcDbEntity
  8
TRUSS_CHORD
100
AcDbPolyline
 90
5
 70
1
 10
10.6
 20
22.0
 10
11.4
 20
22.0
 10
11.4
 20
16.666667
 10
10.6
 20
16.666667
 10
10.6
 20
22.0
  0
LWPOLYLINE
  5
147
330
17
100
AcDbEntity
  8
STRUT_OUTLINE
100
AcDbPolyline
 90
5
 70
1
 10
10.734254473746217
 20
22.29896373572074
 10
11.265745526253783
 20
21.70103626427926
 10
5.265745526253783
 20
16.36770326427926
 10
4.734254473746217
 20
16.96563073572074
 10
10.734254473746217
 20
22.29896373572074
  0
LWPOLYLINE
  5
148
330
17
100
AcDbEntity
  8
TRUSS_CHORD
100
AcDbPolyline
 90
5
 70
1
 10
4.6
 20
28.333333
 10
5.4
 20
28.333333
 10
5.4
 20
22.0
 10
4.6
 20
22.0
 10
4.6
 20
28.333333
  0
LWPOLYLINE
  5
149
330
17
100
AcDbEntity
  8
TRUSS_CHORD
100
AcDbPolyline
 90
5
 70
1
 10
10.6
 20
28.333333
 10
11.4
 20
28.333333
 10
11.4
 20
22.0
 10
10.6
 20
22.0
 10
10.6
 20
28.333333
  0
LWPOLYLINE
  5
14A
330
17
100
AcDbEntity
  8
STRUT_OUTLINE
100
AcDbPolyline
 90
5
 70
1
 10
4.709618933666518
 20
28.058235133205233
 10
5.290381066333482
 20
28.608430866794766
 10
11.290381066333481
 20
22.275097866794766
 10
10.709618933666519
 20
21.724902133205234
 10
4.709618933666518
 20
28.058235133205233
  0
LWPOLYLINE
  5
14B
330
17
100
AcDbEntity
  8
TRUSS_CHORD
100
AcDbPolyline
 90
5
 70
1
 10
4.6
 20
34.0
 10
5.4
 20
34.0
 10
5.4
 20
28.333333
 10
4.6
 20
28.333333
 10
4.6
 20
34.0
  0
LWPOLYLINE
  5
14C
330
17
100
AcDbEntity
  8
TRUSS_CHORD
100
AcDbPolyline
 90
5
 70
1
 10
10.6
 20
34.0
 10
11.4
 20
34.0
 10
11.4
 20
28.333333
 10
10.6
 20
28.333333
 10
10.6
 20
34.0
  0
LWPOLYLINE
  5
14D
330
17
100
AcDbEntity
  8
STRUT_OUTLINE
100
AcDbPolyline
 90
5
 70
1
 10
10.725350578275371
 20
34.29080525295518
 10
11.274649421724629
 20
33.70919474704482
 10
5.27464942172463
 20
28.04252774704482
 10
4.72535057827537
 20
28.62413825295518
 10
10.725350578275371
 20
34.29080525295518
  0
LWPOLYLINE
  5
14E
330
17
100
AcDbEntity
  8
TRUSS_CHORD
100
AcDbPolyline
 90
5
 70
1
 10
4.6
 20
40.0
 10
5.4
 20
40.0
 10
5.4
 20
34.0
 10
4.6
 20
34.0
 10
4.6
 20
40.0
  0
LWPOLYLINE
  5
14F
330
17
100
AcDbEntity
  8
TRUSS_CHORD
100
AcDbPolyline
 90
5
 70
1
 10
10.6
 20
40.0
 10
11.4
 20
40.0
 10
11.4
 20
34.0
 10
10.6
 20
34.0
 10
10.6
 20
40.0
  0
LWPOLYLINE
  5
150
330
17
100
AcDbEntity
  8
STRUT_OUTLINE
100
AcDbPolyline
 90
5
 70
1
 10
4.717157287525381
 20
39.71715728752538
 10
5.282842712474619
 20
40.28284271247462
 10
11.282842712474618
 20
34.28284271247462
 10
10.717157287525382
 20
33.71715728752538
 10
4.717157287525381
 20
39.71715728752538
  0
LWPOLYLINE
  5
151
330
17
100
AcDbEntity
  8
TRUSS_CHORD
100
AcDbPolyline
 90
5
 70
1
 10
4.6
 20
46.0
 10
5.4
 20
46.0
 10
5.4
 20
40.0
 10
4.6
 20
40.0
 10
4.6
 20
46.0
  0
LWPOLYLINE
  5
152
330
17
100
AcDbEntity
  8
TRUSS_CHORD
100
AcDbPolyline
 90
5
 70
1
 10
10.6
 20
46.0
 10
11.4
 20
46.0
 10
11.4
 20
40.0
 10
10.6
 20
40.0
 10
10.6
 20
46.0
  0
LWPOLYLINE
  5
153
330
17
100
AcDbEntity
  8
STRUT_OUTLINE
100
AcDbPolyline
 90
5
 70
1
 10
10.717157287525382
 20
46.28284271247462
 10
11.282842712474618
 20
45.71715728752538
 10
5.282842712474619
 20
39.71715728752538
 10
4.717157287525381
 20
40.28284271247462
 10
10.717157287525382
 20
46.28284271247462
  0
LWPOLYLINE
  5
154
330
17
100
AcDbEntity
  8
TRUSS_CHORD
100
AcDbPolyline
 90
5
 70
1
 10
4.6
 20
51.666667
 10
5.4
 20
51.666667
 10
5.4
 20
46.0
 10
4.6
 20
46.0
 10
4.6
 20
51.666667
  0
LWPOLYLINE
  5
155
330
17
100
AcDbEntity
  8
TRUSS_CHORD
100
AcDbPolyline
 90
5
 70
1
 10
10.6
 20
51.666667
 10
11.4
 20
51.666667
 10
11.4
 20
46.0
 10
10.6
 20
46.0
 10
10.6
 20
51.666667
  0
LWPOLYLINE
  5
156
330
17
100
AcDbEntity
  8
STRUT_OUTLINE
100
AcDbPolyline
 90
5
 70
1
 10
4.72535057827537
 20
51.375861747044816
 10
5.27464942172463
 20
51.95747225295518
 10
11.274649421724629
 20
46.29080525295518
 10
10.725350578275371
 20
45.70919474704482
 10
4.72535057827537
 20
51.375861747044816
  0
LWPOLYLINE
  5
157
330
17
100
AcDbEntity
  8
TRUSS_CHORD
100
AcDbPolyline
 90
5
 70
1
 10
4.6
 20
58.0
 10
5.4
 20
58.0
 10
5.4
 20
51.666667
 10
4.6
 20
51.666667
 10
4.6
 20
58.0
  0
LWPOLYLINE
  5
158
330
17
100
AcDbEntity
  8
TRUSS_CHORD
100
AcDbPolyline
 90
5
 70
1
 10
10.6
 20
58.0
 10
11.4
 20
58.0
 10
11.4
 20
51.666667
 10
10.6
 20
51.666667
 10
10.6
 20
58.0
  0
LWPOLYLINE
  5
159
330
17
100
AcDbEntity
  8
STRUT_OUTLINE
100
AcDbPolyline
 90
5
 70
1
 10
10.709618933666519
 20
58.275097866794766
 10
11.290381066333481
 20
57.724902133205234
 10
5.290381066333482
 20
51.39156913320523
 10
4.709618933666518
 20
51.94176486679476
 10
10.709618933666519
 20
58.275097866794766
  0
LWPOLYLINE
  5
15A
330
17
100
AcDbEntity
  8
TRUSS_CHORD
100
AcDbPolyline
 90
5
 70
1
 10
4.6
 20
63.333333
 10
5.4
 20
63.333333
 10
5.4
 20
58.0
 10
4.6
 20
58.0
 10
4.6
 20
63.333333
  0
LWPOLYLINE
  5
15B
330
17
100
AcDbEntity
  8
TRUSS_CHORD
100
AcDbPolyline
 90
5
 70
1
 10
10.6
 20
63.333333
 10
11.4
 20
63.333333
 10
11.4
 20
58.0
 10
10.6
 20
58.0
 10
10.6
 20
63.333333
  0
LWPOLYLINE
  5
15C
330
17
100
AcDbEntity
  8
STRUT_OUTLINE
100
AcDbPolyline
 90
5
 70
1
 10
4.734254473746217
 20
63.03436926427926
 10
5.265745526253783
 20
63.63229673572074
 10
11.265745526253783
 20
58.29896373572074
 10
10.734254473746217
 20
57.70103626427926
 10
4.734254473746217
 20
63.03436926427926
  0
LWPOLYLINE
  5
15D
330
17
100
AcDbEntity
  8
TRUSS_CHORD
100
AcDbPolyline
 90
5
 70
1
 10
4.6
 20
70.0
 10
5.4
 20
70.0
 10
5.4
 20
63.333333
 10
4.6
 20
63.333333
 10
4.6
 20
70.0
  0
LWPOLYLINE
  5
15E
330
17
100
AcDbEntity
  8
TRUSS_CHORD
100
AcDbPolyline
 90
5
 70
1
 10
10.6
 20
70.0
 10
11.4
 20
70.0
 10
11.4
 20
63.333333
 10
10.6
 20
63.333333
 10
10.6
 20
70.0
  0
LWPOLYLINE
  5
15F
330
17
100
AcDbEntity
  8
STRUT_OUTLINE
100
AcDbPolyline
 90
5
 70
1
 10
10.702682334848445
 20
70.2675858852571
 10
11.297317665151555
 20
69.7324141147429
 10
5.297317665151554
 20
63.0657471147429
 10
4.702682334848446
 20
63.60091888525711
 10
10.702682334848445
 20
70.2675858852571
  0
LWPOLYLINE
  5
160
330
17
100
AcDbEntity
  8
TRUSS_CHORD
100
AcDbPolyline
 90
5
 70
1
 10
4.6
 20
75.0
 10
5.4
 20
75.0
 10
5.4
 20
70.0
 10
4.6
 20
70.0
 10
4.6
 20
75.0
  0
LWPOLYLINE
  5
161
330
17
100
AcDbEntity
  8
TRUSS_CHORD
100
AcDbPolyline
 90
5
 70
1
 10
10.6
 20
75.0
 10
11.4
 20
75.0
 10
11.4
 20
70.0
 10
10.6
 20
70.0
 10
10.6
 20
75.0
  0
LWPOLYLINE
  5
162
330
17
100
AcDbEntity
  8
STRUT_OUTLINE
100
AcDbPolyline
 90
5
 70
1
 10
4.743926240134208
 20
74.69271148816105
 10
5.256073759865792
 20
75.30728851183895
 10
11.256073759865792
 20
70.30728851183895
 10
10.743926240134208
 20
69.69271148816105
 10
4.743926240134208
 20
74.69271148816105
  0
LWPOLYLINE
  5
163
330
17
100
AcDbEntity
  8
TRUSS_CHORD
100
AcDbPolyline
 90
5
 70
1
 10
10.0
 20
75.4
 10
10.0
 20
74.6
 10
5.0
 20
74.6
 10
5.0
 20
75.4
 10
10.0
 20
75.4
  0
LWPOLYLINE
  5
164
330
17
100
AcDbEntity
  8
TRUSS_CHORD
100
AcDbPolyline
 90
5
 70
1
 10
10.0
 20
69.4
 10
10.0
 20
68.6
 10
5.0
 20
68.6
 10
5.0
 20
69.4
 10
10.0
 20
69.4
  0
LWPOLYLINE
  5
165
330
17
100
AcDbEntity
  8
STRUT_OUTLINE
100
AcDbPolyline
 90
5
 70
1
 10
10.30728851183895
 20
69.25607375986579
 10
9.69271148816105
 20
68.74392624013421
 10
4.692711488161049
 20
74.74392624013421
 10
5.307288511838951
 20
75.25607375986579
 10
10.30728851183895
 20
69.25607375986579
  0
LWPOLYLINE
  5
166
330
17
100
AcDbEntity
  8
TRUSS_CHORD
100
AcDbPolyline
 90
5
 70
1
 10
16.578947
 20
75.4
 10
16.578947
 20
74.6
 10
10.0
 20
74.6
 10
10.0
 20
75.4
 10
16.578947
 20
75.4
  0
LWPOLYLINE
  5
167
330
17
100
AcDbEntity
  8
TRUSS_CHORD
100
AcDbPolyline
 90
5
 70
1
 10
16.578947
 20
69.4
 10
16.578947
 20
68.6
 10
10.0
 20
68.6
 10
10.0
 20
69.4
 10
16.578947
 20
69.4
  0
LWPOLYLINE
  5
168
330
17
100
AcDbEntity
  8
STRUT_OUTLINE
100
AcDbPolyline
 90
5
 70
1
 10
16.309407477844694
 20
75.29554770511085
 10
16.848486522155305
 20
74.70445229488915
 10
10.269539522155307
 20
68.70445229488915
 10
9.730460477844693
 20
69.29554770511085
 10
16.309407477844694
 20
75.29554770511085
  0
LWPOLYLINE
  5
169
330
17
100
AcDbEntity
  8
TRUSS_CHORD
100
AcDbPolyline
 90
5
 70
1
 10
22.5
 20
75.4
 10
22.5
 20
74.6
 10
16.578947
 20
74.6
 10
16.578947
 20
75.4
 10
22.5
 20
75.4
  0
LWPOLYLINE
  5
16A
330
17
100
AcDbEntity
  8
TRUSS_CHORD
100
AcDbPolyline
 90
5
 70
1
 10
22.5
 20
69.4
 10
22.5
 20
68.6
 10
16.578947
 20
68.6
 10
16.578947
 20
69.4
 10
22.5
 20
69.4
  0
LWPOLYLINE
  5
16B
330
17
100
AcDbEntity
  8
STRUT_OUTLINE
100
AcDbPolyline
 90
5
 70
1
 10
22.784709590991202
 20
69.28096342964454
 10
22.215290409008798
 20
68.71903657035546
 10
16.294237409008797
 20
74.71903657035546
 10
16.8636565909912
 20
75.28096342964454
 10
22.784709590991202
 20
69.28096342964454
  0
LWPOLYLINE
  5
16C
330
17
100
AcDbEntity
  8
TRUSS_CHORD
100
AcDbPolyline
 90
5
 70
1
 10
28.157895
 20
75.4
 10
28.157895
 20
74.6
 10
22.5
 20
74.6
 10
22.5
 20
75.4
 10
28.157895
 20
75.4
  0
LWPOLYLINE
  5
16D
330
17
100
AcDbEntity
  8
TRUSS_CHORD
100
AcDbPolyline
 90
5
 70
1
 10
28.157895
 20
69.4
 10
28.157895
 20
68.6
 10
22.5
 20
68.6
 10
22.5
 20
69.4
 10
28.157895
 20
69.4
  0
LWPOLYLINE
  5
16E
330
17
100
AcDbEntity
  8
STRUT_OUTLINE
100
AcDbPolyline
 90
5
 70
1
 10
27.866877447200327
 20
75.27442445948292
 10
28.448912552799673
 20
74.72557554051708
 10
22.791017552799673
 20
68.72557554051708
 10
22.208982447200327
 20
69.27442445948292
 10
27.866877447200327
 20
75.27442445948292
  0
LWPOLYLINE
  5
16F
330
17
100
AcDbEntity
  8
TRUSS_CHORD
100
AcDbPolyline
 90
5
 70
1
 10
35.0
 20
75.4
 10
35.0
 20
74.6
 10
28.157895
 20
74.6
 10
28.157895
 20
75.4
 10
35.0
 20
75.4
  0
LWPOLYLINE
  5
170
330
17
100
AcDbEntity
  8
TRUSS_CHORD
100
AcDbPolyline
 90
5
 70
1
 10
35.0
 20
69.4
 10
35.0
 20
68.6
 10
28.157895
 20
68.6
 10
28.157895
 20
69.4
 10
35.0
 20
69.4
  0
LWPOLYLINE
  5
171
330
17
100
AcDbEntity
  8
STRUT_OUTLINE
100
AcDbPolyline
 90
5
 70
1
 10
35.263729256053175
 20
69.30074387691462
 10
34.736270743946825
 20
68.69925612308538
 10
27.89416574394682
 20
74.69925612308538
 10
28.421624256053178
 20
75.30074387691462
 10
35.263729256053175
 20
69.30074387691462
  0
LWPOLYLINE
  5
172
330
17
100
AcDbEntity
  8
TRUSS_CHORD
100
AcDbPolyline
 90
5
 70
1
 10
39.736842
 20
75.4
 10
39.736842
 20
74.6
 10
35.0
 20
74.6
 10
35.0
 20
75.4
 10
39.736842
 20
75.4
  0
LWPOLYLINE
  5
173
330
17
100
AcDbEntity
  8
TRUSS_CHORD
100
AcDbPolyline
 90
5
 70
1
 10
39.736842
 20
69.4
 10
39.736842
 20
68.6
 10
35.0
 20
68.6
 10
35.0
 20
69.4
 10
39.736842
 20
69.4
  0
LWPOLYLINE
  5
174
330
17
100
AcDbEntity
  8
STRUT_OUTLINE
100
AcDbPolyline
 90
5
 70
1
 10
39.42288889110785
 20
75.24785771203848
 10
40.05079510889215
 20
74.75214228796152
 10
35.31395310889215
 20
68.75214228796152
 10
34.68604689110785
 20
69.24785771203848
 10
39.42288889110785
 20
75.24785771203848
  0
LWPOLYLINE
  5
175
330
17
100
AcDbEntity
  8
TRUSS_CHORD
100
AcDbPolyline
 90
5
 70
1
 10
47.5
 20
75.4
 10
47.5
 20
74.6
 10
39.736842
 20
74.6
 10
39.736842
 20
75.4
 10
47.5
 20
75.4
  0
LWPOLYLINE
  5
176
330
17
100
AcDbEntity
  8
TRUSS_CHORD
100
AcDbPolyline
 90
5
 70
1
 10
47.5
 20
69.4
 10
47.5
 20
68.6
 10
39.736842
 20
68.6
 10
39.736842
 20
69.4
 10
47.5
 20
69.4
  0
LWPOLYLINE
  5
177
330
17
100
AcDbEntity
  8
STRUT_OUTLINE
100
AcDbPolyline
 90
5
 70
1
 10
47.74460953107644
 20
69.31649040634206
 10
47.25539046892356
 20
68.68350959365794
 10
39.49223246892356
 20
74.68350959365794
 10
39.981451531076445
 20
75.31649040634206
 10
47.74460953107644
 20
69.31649040634206
  0
LWPOLYLINE
  5
178
330
17
100
AcDbEntity
  8
TRUSS_CHORD
100
AcDbPolyline
 90
5
 70
1
 10
51.315789
 20
75.4
 10
51.315789
 20
74.6
 10
47.5
 20
74.6
 10
47.5
 20
75.4
 10
51.315789
 20
75.4
  0
LWPOLYLINE
  5
179
330
17
100
AcDbEntity
  8
TRUSS_CHORD
100
AcDbPolyline
 90
5
 70
1
 10
51.315789
 20
69.4
 10
51.315789
 20
68.6
 10
47.5
 20
68.6
 10
47.5
 20
69.4
 10
51.315789
 20
69.4
  0
LWPOLYLINE
  5
17A
330
17
100
AcDbEntity
  8
STRUT_OUTLINE
100
AcDbPolyline
 90
5
 70
1
 10
50.97826344981122
 20
75.21465438027155
 10
51.65331455018878
 20
74.78534561972845
 10
47.83752555018878
 20
68.78534561972845
 10
47.16247444981122
 20
69.21465438027155
 10
50.97826344981122
 20
75.21465438027155
  0
LWPOLYLINE
  5
17B
330
17
100
AcDbEntity
  8
TRUSS_CHORD
100
AcDbPolyline
 90
5
 70
1
 10
60.0
 20
75.4
 10
60.0
 20
74.6
 10
51.315789
 20
74.6
 10
51.315789
 20
75.4
 10
60.0
 20
75.4
  0
LWPOLYLINE
  5
17C
330
17
100
AcDbEntity
  8
TRUSS_CHORD
100
AcDbPolyline
 90
5
 70
1
 10
60.0
 20
69.4
 10
60.0
 20
68.6
 10
51.315789
 20
68.6
 10
51.315789
 20
69.4
 10
60.0
 20
69.4
  0
LWPOLYLINE
  5
17D
330
17
100
AcDbEntity
  8
STRUT_OUTLINE
100
AcDbPolyline
 90
5
 70
1
 10
60.22737273958731
 20
69.32909214103738
 10
59.77262726041269
 20
68.67090785896262
 10
51.08841626041269
 20
74.67090785896262
 10
51.54316173958731
 20
75.32909214103738
 10
60.22737273958731
 20
69.32909214103738
  0
LWPOLYLINE
  5
17E
330
17
100
AcDbEntity
  8
TRUSS_CHORD
100
AcDbPolyline
 90
5
 70
1
 10
68.684211
 20
75.4
 10
68.684211
 20
74.6
 10
60.0
 20
74.6
 10
60.0
 20
75.4
 10
68.684211
 20
75.4
  0
LWPOLYLINE
  5
17F
330
17
100
AcDbEntity
  8
TRUSS_CHORD
100
AcDbPolyline
 90
5
 70
1
 10
68.684211
 20
69.4
 10
68.684211
 20
68.6
 10
60.0
 20
68.6
 10
60.0
 20
69.4
 10
68.684211
 20
69.4
  0
LWPOLYLINE
  5
180
330
17
100
AcDbEntity
  8
STRUT_OUTLINE
100
AcDbPolyline
 90
5
 70
1
 10
68.4568382604127
 20
75.32909214103738
 10
68.91158373958731
 20
74.67090785896262
 10
60.22737273958731
 20
68.67090785896262
 10
59.77262726041269
 20
69.32909214103738
 10
68.4568382604127
 20
75.32909214103738
  0
LWPOLYLINE
  5
181
330
17
100
AcDbEntity
  8
TRUSS_CHORD
100
AcDbPolyline
 90
5
 70
1
 10
72.5
 20
75.4
 10
72.5
 20
74.6
 10
68.684211
 20
74.6
 10
68.684211
 20
75.4
 10
72.5
 20
75.4
  0
LWPOLYLINE
  5
182
330
17
100
AcDbEntity
  8
TRUSS_CHORD
100
AcDbPolyline
 90
5
 70
1
 10
72.5
 20
69.4
 10
72.5
 20
68.6
 10
68.684211
 20
68.6
 10
68.684211
 20
69.4
 10
72.5
 20
69.4
  0
LWPOLYLINE
  5
183
330
17
100
AcDbEntity
  8
STRUT_OUTLINE
100
AcDbPolyline
 90
5
 70
1
 10
72.83752555018877
 20
69.21465438027155
 10
72.16247444981123
 20
68.78534561972845
 10
68.34668544981123
 20
74.78534561972845
 10
69.02173655018878
 20
75.21465438027155
 10
72.83752555018877
 20
69.21465438027155
  0
LWPOLYLINE
  5
184
330
17
100
AcDbEntity
  8
TRUSS_CHORD
100
AcDbPolyline
 90
5
 70
1
 10
80.263158
 20
75.4
 10
80.263158
 20
74.6
 10
72.5
 20
74.6
 10
72.5
 20
75.4
 10
80.263158
 20
75.4
  0
LWPOLYLINE
  5
185
330
17
100
AcDbEntity
  8
TRUSS_CHORD
100
AcDbPolyline
 90
5
 70
1
 10
80.263158
 20
69.4
 10
80.263158
 20
68.6
 10
72.5
 20
68.6
 10
72.5
 20
69.4
 10
80.263158
 20
69.4
  0
LWPOLYLINE
  5
186
330
17
100
AcDbEntity
  8
STRUT_OUTLINE
100
AcDbPolyline
 90
5
 70
1
 10
80.01854846892356
 20
75.31649040634206
 10
80.50776753107645
 20
74.68350959365794
 10
72.74460953107645
 20
68.68350959365794
 10
72.25539046892355
 20
69.31649040634206
 10
80.01854846892356
 20
75.31649040634206
  0
LWPOLYLINE
  5
187
330
17
100
AcDbEntity
  8
TRUSS_CHORD
100
AcDbPolyline
 90
5
 70
1
 10
85.0
 20
75.4
 10
85.0
 20
74.6
 10
80.263158
 20
74.6
 10
80.263158
 20
75.4
 10
85.0
 20
75.4
  0
LWPOLYLINE
  5
188
330
17
100
AcDbEntity
  8
TRUSS_CHORD
100
AcDbPolyline
 90
5
 70
1
 10
85.0
 20
69.4
 10
85.0
 20
68.6
 10
80.263158
 20
68.6
 10
80.263158
 20
69.4
 10
85.0
 20
69.4
  0
LWPOLYLINE
  5
189
330
17
100
AcDbEntity
  8
STRUT_OUTLINE
100
AcDbPolyline
 90
5
 70
1
 10
85.31395310889215
 20
69.24785771203848
 10
84.68604689110785
 20
68.75214228796152
 10
79.94920489110785
 20
74.75214228796152
 10
80.57711110889215
 20
75.24785771203848
 10
85.31395310889215
 20
69.24785771203848
  0
LWPOLYLINE
  5
18A
330
17
100
AcDbEntity
  8
TRUSS_CHORD
100
AcDbPolyline
 90
5
 70
1
 10
91.842105
 20
75.4
 10
91.842105
 20
74.6
 10
85.0
 20
74.6
 10
85.0
 20
75.4
 10
91.842105
 20
75.4
  0
LWPOLYLINE
  5
18B
330
17
100
AcDbEntity
  8
TRUSS_CHORD
100
AcDbPolyline
 90
5
 70
1
 10
91.842105
 20
69.4
 10
91.842105
 20
68.6
 10
85.0
 20
68.6
 10
85.0
 20
69.4
 10
91.842105
 20
69.4
  0
LWPOLYLINE
  5
18C
330
17
100
AcDbEntity
  8
STRUT_OUTLINE
100
AcDbPolyline
 90
5
 70
1
 10
91.57837574394682
 20
75.30074387691462
 10
92.10583425605319
 20
74.69925612308538
 10
85.26372925605318
 20
68.69925612308538
 10
84.73627074394682
 20
69.30074387691462
 10
91.57837574394682
 20
75.30074387691462
  0
LWPOLYLINE
  5
18D
330
17
100
AcDbEntity
  8
TRUSS_CHORD
100
AcDbPolyline
 90
5
 70
1
 10
97.5
 20
75.4
 10
97.5
 20
74.6
 10
91.842105
 20
74.6
 10
91.842105
 20
75.4
 10
97.5
 20
75.4
  0
LWPOLYLINE
  5
18E
330
17
100
AcDbEntity
  8
TRUSS_CHORD
100
AcDbPolyline
 90
5
 70
1
 10
97.5
 20
69.4
 10
97.5
 20
68.6
 10
91.842105
 20
68.6
 10
91.842105
 20
69.4
 10
97.5
 20
69.4
  0
LWPOLYLINE
  5
18F
330
17
100
AcDbEntity
  8
STRUT_OUTLINE
100
AcDbPolyline
 90
5
 70
1
 10
97.79101755279967
 20
69.27442445948292
 10
97.20898244720033
 20
68.72557554051708
 10
91.55108744720033
 20
74.72557554051708
 10
92.13312255279968
 20
75.27442445948292
 10
97.79101755279967
 20
69.27442445948292
  0
LWPOLYLINE
  5
190
330
17
100
AcDbEntity
  8
TRUSS_CHORD
100
AcDbPolyline
 90
5
 70
1
 10
103.421053
 20
75.4
 10
103.421053
 20
74.6
 10
97.5
 20
74.6
 10
97.5
 20
75.4
 10
103.421053
 20
75.4
  0
LWPOLYLINE
  5
191
330
17
100
AcDbEntity
  8
TRUSS_CHORD
100
AcDbPolyline
 90
5
 70
1
 10
103.421053
 20
69.4
 10
103.421053
 20
68.6
 10
97.5
 20
68.6
 10
97.5
 20
69.4
 10
103.421053
 20
69.4
  0
LWPOLYLINE
  5
192
330
17
100
AcDbEntity
  8
STRUT_OUTLINE
100
AcDbPolyline
 90
5
 70
1
 10
103.1363434090088
 20
75.28096342964454
 10
103.7057625909912
 20
74.71903657035546
 10
97.7847095909912
 20
68.71903657035546
 10
97.2152904090088
 20
69.28096342964454
 10
103.1363434090088
 20
75.28096342964454
  0
LWPOLYLINE
  5
193
330
17
100
AcDbEntity
  8
TRUSS_CHORD
100
AcDbPolyline
 90
5
 70
1
 10
110.0
 20
75.4
 10
110.0
 20
74.6
 10
103.421053
 20
74.6
 10
103.421053
 20
75.4
 10
110.0
 20
75.4
  0
LWPOLYLINE
  5
194
330
17
100
AcDbEntity
  8
TRUSS_CHORD
100
AcDbPolyline
 90
5
 70
1
 10
110.0
 20
69.4
 10
110.0
 20
68.6
 10
103.421053
 20
68.6
 10
103.421053
 20
69.4
 10
110.0
 20
69.4
  0
LWPOLYLINE
  5
195
330
17
100
AcDbEntity
  8
STRUT_OUTLINE
100
AcDbPolyline
 90
5
 70
1
 10
110.26953952215531
 20
69.29554770511085
 10
109.73046047784469
 20
68.70445229488915
 10
103.15151347784469
 20
74.70445229488915
 10
103.69059252215531
 20
75.29554770511085
 10
110.26953952215531
 20
69.29554770511085
  0
LWPOLYLINE
  5
196
330
17
100
AcDbEntity
  8
TRUSS_CHORD
100
AcDbPolyline
 90
5
 70
1
 10
115.0
 20
75.4
 10
115.0
 20
74.6
 10
110.0
 20
74.6
 10
110.0
 20
75.4
 10
115.0
 20
75.4
  0
LWPOLYLINE
  5
197
330
17
100
AcDbEntity
  8
TRUSS_CHORD
100
AcDbPolyline
 90
5
 70
1
 10
115.0
 20
69.4
 10
115.0
 20
68.6
 10
110.0
 20
68.6
 10
110.0
 20
69.4
 10
115.0
 20
69.4
  0
LWPOLYLINE
  5
198
330
17
100
AcDbEntity
  8
STRUT_OUTLINE
100
AcDbPolyline
 90
5
 70
1
 10
114.69271148816105
 20
75.25607375986579
 10
115.30728851183895
 20
74.74392624013421
 10
110.30728851183895
 20
68.74392624013421
 10
109.69271148816105
 20
69.25607375986579
 10
114.69271148816105
 20
75.25607375986579
  0
LWPOLYLINE
  5
199
330
17
100
AcDbEntity
  8
TRUSS_CHORD
100
AcDbPolyline
 90
5
 70
1
 10
114.6
 20
10.0
 10
115.4
 20
10.0
 10
115.4
 20
5.0
 10
114.6
 20
5.0
 10
114.6
 20
10.0
  0
LWPOLYLINE
  5
19A
330
17
100
AcDbEntity
  8
TRUSS_CHORD
100
AcDbPolyline
 90
5
 70
1
 10
108.6
 20
10.0
 10
109.4
 20
10.0
 10
109.4
 20
5.0
 10
108.6
 20
5.0
 10
108.6
 20
10.0
  0
LWPOLYLINE
  5
19B
330
17
100
AcDbEntity
  8
STRUT_OUTLINE
100
AcDbPolyline
 90
5
 70
1
 10
108.74392624013421
 20
9.69271148816105
 10
109.25607375986579
 20
10.30728851183895
 10
115.25607375986579
 20
5.307288511838951
 10
114.74392624013421
 20
4.692711488161049
 10
108.74392624013421
 20
9.69271148816105
  0
LWPOLYLINE
  5
19C
330
17
100
AcDbEntity
  8
TRUSS_CHORD
100
AcDbPolyline
 90
5
 70
1
 10
114.6
 20
16.666667
 10
115.4
 20
16.666667
 10
115.4
 20
10.0
 10
114.6
 20
10.0
 10
114.6
 20
16.666667
  0
LWPOLYLINE
  5
19D
330
17
100
AcDbEntity
  8
TRUSS_CHORD
100
AcDbPolyline
 90
5
 70
1
 10
108.6
 20
16.666667
 10
109.4
 20
16.666667
 10
109.4
 20
10.0
 10
108.6
 20
10.0
 10
108.6
 20
16.666667
  0
LWPOLYLINE
  5
19E
330
17
100
AcDbEntity
  8
STRUT_OUTLINE
100
AcDbPolyline
 90
5
 70
1
 10
114.70268233484845
 20
16.934252885257106
 10
115.29731766515155
 20
16.399081114742895
 10
109.29731766515155
 20
9.732414114742895
 10
108.70268233484845
 20
10.267585885257105
 10
114.70268233484845
 20
16.934252885257106
  0
LWPOLYLINE
  5
19F
330
17
100
AcDbEntity
  8
TRUSS_CHORD
100
AcDbPolyline
 90
5
 70
1
 10
114.6
 20
22.0
 10
115.4
 20
22.0
 10
115.4
 20
16.666667
 10
114.6
 20
16.666667
 10
114.6
 20
22.0
  0
LWPOLYLINE
  5
1A0
330
17
100
AcDbEntity
  8
TRUSS_CHORD
100
AcDbPolyline
 90
5
 70
1
 10
108.6
 20
22.0
 10
109.4
 20
22.0
 10
109.4
 20
16.666667
 10
108.6
 20
16.666667
 10
108.6
 20
22.0
  0
LWPOLYLINE
  5
1A1
330
17
100
AcDbEntity
  8
STRUT_OUTLINE
100
AcDbPolyline
 90
5
 70
1
 10
108.73425447374622
 20
21.70103626427926
 10
109.26574552625378
 20
22.29896373572074
 10
115.26574552625378
 20
16.96563073572074
 10
114.73425447374622
 20
16.36770326427926
 10
108.73425447374622
 20
21.70103626427926
  0
LWPOLYLINE
  5
1A2
330
17
100
AcDbEntity
  8
TRUSS_CHORD
100
AcDbPolyline
 90
5
 70
1
 10
114.6
 20
28.333333
 10
115.4
 20
28.333333
 10
115.4
 20
22.0
 10
114.6
 20
22.0
 10
114.6
 20
28.333333
  0
LWPOLYLINE
  5
1A3
330
17
100
AcDbEntity
  8
TRUSS_CHORD
100
AcDbPolyline
 90
5
 70
1
 10
108.6
 20
28.333333
 10
109.4
 20
28.333333
 10
109.4
 20
22.0
 10
108.6
 20
22.0
 10
108.6
 20
28.333333
  0
LWPOLYLINE
  5
1A4
330
17
100
AcDbEntity
  8
STRUT_OUTLINE
100
AcDbPolyline
 90
5
 70
1
 10
114.70961893366652
 20
28.608430866794766
 10
115.29038106633348
 20
28.058235133205233
 10
109.29038106633348
 20
21.724902133205234
 10
108.70961893366652
 20
22.275097866794766
 10
114.70961893366652
 20
28.608430866794766
  0
LWPOLYLINE
  5
1A5
330
17
100
AcDbEntity
  8
TRUSS_CHORD
100
AcDbPolyline
 90
5
 70
1
 10
114.6
 20
34.0
 10
115.4
 20
34.0
 10
115.4
 20
28.333333
 10
114.6
 20
28.333333
 10
114.6
 20
34.0
  0
LWPOLYLINE
  5
1A6
330
17
100
AcDbEntity
  8
TRUSS_CHORD
100
AcDbPolyline
 90
5
 70
1
 10
108.6
 20
34.0
 10
109.4
 20
34.0
 10
109.4
 20
28.333333
 10
108.6
 20
28.333333
 10
108.6
 20
34.0
  0
LWPOLYLINE
  5
1A7
330
17
100
AcDbEntity
  8
STRUT_OUTLINE
100
AcDbPolyline
 90
5
 70
1
 10
108.72535057827537
 20
33.70919474704482
 10
109.27464942172463
 20
34.29080525295518
 10
115.27464942172463
 20
28.62413825295518
 10
114.72535057827537
 20
28.04252774704482
 10
108.72535057827537
 20
33.70919474704482
  0
LWPOLYLINE
  5
1A8
330
17
100
AcDbEntity
  8
TRUSS_CHORD
100
AcDbPolyline
 90
5
 70
1
 10
114.6
 20
40.0
 10
115.4
 20
40.0
 10
115.4
 20
34.0
 10
114.6
 20
34.0
 10
114.6
 20
40.0
  0
LWPOLYLINE
  5
1A9
330
17
100
AcDbEntity
  8
TRUSS_CHORD
100
AcDbPolyline
 90
5
 70
1
 10
108.6
 20
40.0
 10
109.4
 20
40.0
 10
109.4
 20
34.0
 10
108.6
 20
34.0
 10
108.6
 20
40.0
  0
LWPOLYLINE
  5
1AA
330
17
100
AcDbEntity
  8
STRUT_OUTLINE
100
AcDbPolyline
 90
5
 70
1
 10
114.71715728752538
 20
40.28284271247462
 10
115.28284271247462
 20
39.71715728752538
 10
109.28284271247462
 20
33.71715728752538
 10
108.71715728752538
 20
34.28284271247462
 10
114.71715728752538
 20
40.28284271247462
  0
LWPOLYLINE
  5
1AB
330
17
100
AcDbEntity
  8
TRUSS_CHORD
100
AcDbPolyline
 90
5
 70
1
 10
114.6
 20
46.0
 10
115.4
 20
46.0
 10
115.4
 20
40.0
 10
114.6
 20
40.0
 10
114.6
 20
46.0
  0
LWPOLYLINE
  5
1AC
330
17
100
AcDbEntity
  8
TRUSS_CHORD
100
AcDbPolyline
 90
5
 70
1
 10
108.6
 20
46.0
 10
109.4
 20
46.0
 10
109.4
 20
40.0
 10
108.6
 20
40.0
 10
108.6
 20
46.0
  0
LWPOLYLINE
  5
1AD
330
17
100
AcDbEntity
  8
STRUT_OUTLINE
100
AcDbPolyline
 90
5
 70
1
 10
108.71715728752538
 20
45.71715728752538
 10
109.28284271247462
 20
46.28284271247462
 10
115.28284271247462
 20
40.28284271247462
 10
114.71715728752538
 20
39.71715728752538
 10
108.71715728752538
 20
45.71715728752538
  0
LWPOLYLINE
  5
1AE
330
17
100
AcDbEntity
  8
TRUSS_CHORD
100
AcDbPolyline
 90
5
 70
1
 10
114.6
 20
51.666667
 10
115.4
 20
51.666667
 10
115.4
 20
46.0
 10
114.6
 20
46.0
 10
114.6
 20
51.666667
  0
LWPOLYLINE
  5
1AF
330
17
100
AcDbEntity
  8
TRUSS_CHORD
100
AcDbPolyline
 90
5
 70
1
 10
108.6
 20
51.666667
 10
109.4
 20
51.666667
 10
109.4
 20
46.0
 10
108.6
 20
46.0
 10
108.6
 20
51.666667
  0
LWPOLYLINE
  5
1B0
330
17
100
AcDbEntity
  8
STRUT_OUTLINE
100
AcDbPolyline
 90
5
 70
1
 10
114.72535057827537
 20
51.95747225295518
 10
115.27464942172463
 20
51.375861747044816
 10
109.27464942172463
 20
45.70919474704482
 10
108.72535057827537
 20
46.29080525295518
 10
114.72535057827537
 20
51.95747225295518
  0
LWPOLYLINE
  5
1B1
330
17
100
AcDbEntity
  8
TRUSS_CHORD
100
AcDbPolyline
 90
5
 70
1
 10
114.6
 20
58.0
 10
115.4
 20
58.0
 10
115.4
 20
51.666667
 10
114.6
 20
51.666667
 10
114.6
 20
58.0
  0
LWPOLYLINE
  5
1B2
330
17
100
AcDbEntity
  8
TRUSS_CHORD
100
AcDbPolyline
 90
5
 70
1
 10
108.6
 20
58.0
 10
109.4
 20
58.0
 10
109.4
 20
51.666667
 10
108.6
 20
51.666667
 10
108.6
 20
58.0
  0
LWPOLYLINE
  5
1B3
330
17
100
AcDbEntity
  8
STRUT_OUTLINE
100
AcDbPolyline
 90
5
 70
1
 10
108.70961893366652
 20
57.724902133205234
 10
109.29038106633348
 20
58.275097866794766
 10
115.29038106633348
 20
51.94176486679476
 10
114.70961893366652
 20
51.39156913320523
 10
108.70961893366652
 20
57.724902133205234
  0
LWPOLYLINE
  5
1B4
330
17
100
AcDbEntity
  8
TRUSS_CHORD
100
AcDbPolyline
 90
5
 70
1
 10
114.6
 20
63.333333
 10
115.4
 20
63.333333
 10
115.4
 20
58.0
 10
114.6
 20
58.0
 10
114.6
 20
63.333333
  0
LWPOLYLINE
  5
1B5
330
17
100
AcDbEntity
  8
TRUSS_CHORD
100
AcDbPolyline
 90
5
 70
1
 10
108.6
 20
63.333333
 10
109.4
 20
63.333333
 10
109.4
 20
58.0
 10
108.6
 20
58.0
 10
108.6
 20
63.333333
  0
LWPOLYLINE
  5
1B6
330
17
100
AcDbEntity
  8
STRUT_OUTLINE
100
AcDbPolyline
 90
5
 70
1
 10
114.73425447374622
 20
63.63229673572074
 10
115.26574552625378
 20
63.03436926427926
 10
109.26574552625378
 20
57.70103626427926
 10
108.73425447374622
 20
58.29896373572074
 10
114.73425447374622
 20
63.63229673572074
  0
LWPOLYLINE
  5
1B7
330
17
100
AcDbEntity
  8
TRUSS_CHORD
100
AcDbPolyline
 90
5
 70
1
 10
114.6
 20
70.0
 10
115.4
 20
70.0
 10
115.4
 20
63.333333
 10
114.6
 20
63.333333
 10
114.6
 20
70.0
  0
LWPOLYLINE
  5
1B8
330
17
100
AcDbEntity
  8
TRUSS_CHORD
100
AcDbPolyline
 90
5
 70
1
 10
108.6
 20
70.0
 10
109.4
 20
70.0
 10
109.4
 20
63.333333
 10
108.6
 20
63.333333
 10
108.6
 20
70.0
  0
LWPOLYLINE
  5
1B9
330
17
100
AcDbEntity
  8
STRUT_OUTLINE
100
AcDbPolyline
 90
5
 70
1
 10
108.70268233484845
 20
69.7324141147429
 10
109.29731766515155
 20
70.2675858852571
 10
115.29731766515155
 20
63.60091888525711
 10
114.70268233484845
 20
63.0657471147429
 10
108.70268233484845
 20
69.7324141147429
  0
LWPOLYLINE
  5
1BA
330
17
100
AcDbEntity
  8
TRUSS_CHORD
100
AcDbPolyline
 90
5
 70
1
 10
114.6
 20
75.0
 10
115.4
 20
75.0
 10
115.4
 20
70.0
 10
114.6
 20
70.0
 10
114.6
 20
75.0
  0
LWPOLYLINE
  5
1BB
330
17
100
AcDbEntity
  8
TRUSS_CHORD
100
AcDbPolyline
 90
5
 70
1
 10
108.6
 20
75.0
 10
109.4
 20
75.0
 10
109.4
 20
70.0
 10
108.6
 20
70.0
 10
108.6
 20
75.0
  0
LWPOLYLINE
  5
1BC
330
17
100
AcDbEntity
  8
STRUT_OUTLINE
100
AcDbPolyline
 90
5
 70
1
 10
114.74392624013421
 20
75.30728851183895
 10
115.25607375986579
 20
74.69271148816105
 10
109.25607375986579
 20
69.69271148816105
 10
108.74392624013421
 20
70.30728851183895
 10
114.74392624013421
 20
75.30728851183895
  0
LWPOLYLINE
  5
1BD
330
17
100
AcDbEntity
  8
TRUSS_CHORD
100
AcDbPolyline
 90
5
 70
1
 10
10.0
 20
5.4
 10
10.0
 20
4.6
 10
5.0
 20
4.6
 10
5.0
 20
5.4
 10
10.0
 20
5.4
  0
LWPOLYLINE
  5
1BE
330
17
100
AcDbEntity
  8
TRUSS_CHORD
100
AcDbPolyline
 90
5
 70
1
 10
10.0
 20
11.4
 10
10.0
 20
10.6
 10
5.0
 20
10.6
 10
5.0
 20
11.4
 10
10.0
 20
11.4
  0
LWPOLYLINE
  5
1BF
330
17
100
AcDbEntity
  8
STRUT_OUTLINE
100
AcDbPolyline
 90
5
 70
1
 10
9.69271148816105
 20
11.256073759865792
 10
10.30728851183895
 20
10.743926240134208
 10
5.307288511838951
 20
4.743926240134208
 10
4.692711488161049
 20
5.256073759865792
 10
9.69271148816105
 20
11.256073759865792
  0
LWPOLYLINE
  5
1C0
330
17
100
AcDbEntity
  8
TRUSS_CHORD
100
AcDbPolyline
 90
5
 70
1
 10
16.578947
 20
5.4
 10
16.578947
 20
4.6
 10
10.0
 20
4.6
 10
10.0
 20
5.4
 10
16.578947
 20
5.4
  0
LWPOLYLINE
  5
1C1
330
17
100
AcDbEntity
  8
TRUSS_CHORD
100
AcDbPolyline
 90
5
 70
1
 10
16.578947
 20
11.4
 10
16.578947
 20
10.6
 10
10.0
 20
10.6
 10
10.0
 20
11.4
 10
16.578947
 20
11.4
  0
LWPOLYLINE
  5
1C2
330
17
100
AcDbEntity
  8
STRUT_OUTLINE
100
AcDbPolyline
 90
5
 70
1
 10
16.848486522155305
 20
5.295547705110848
 10
16.309407477844694
 20
4.704452294889152
 10
9.730460477844693
 20
10.704452294889151
 10
10.269539522155307
 20
11.295547705110849
 10
16.848486522155305
 20
5.295547705110848
  0
LWPOLYLINE
  5
1C3
330
17
100
AcDbEntity
  8
TRUSS_CHORD
100
AcDbPolyline
 90
5
 70
1
 10
22.5
 20
5.4
 10
22.5
 20
4.6
 10
16.578947
 20
4.6
 10
16.578947
 20
5.4
 10
22.5
 20
5.4
  0
LWPOLYLINE
  5
1C4
330
17
100
AcDbEntity
  8
TRUSS_CHORD
100
AcDbPolyline
 90
5
 70
1
 10
22.5
 20
11.4
 10
22.5
 20
10.6
 10
16.578947
 20
10.6
 10
16.578947
 20
11.4
 10
22.5
 20
11.4
  0
LWPOLYLINE
  5
1C5
330
17
100
AcDbEntity
  8
STRUT_OUTLINE
100
AcDbPolyline
 90
5
 70
1
 10
22.215290409008798
 20
11.280963429644538
 10
22.784709590991202
 20
10.719036570355462
 10
16.8636565909912
 20
4.719036570355461
 10
16.294237409008797
 20
5.280963429644539
 10
22.215290409008798
 20
11.280963429644538
  0
LWPOLYLINE
  5
1C6
330
17
100
AcDbEntity
  8
TRUSS_CHORD
100
AcDbPolyline
 90
5
 70
1
 10
28.157895
 20
5.4
 10
28.157895
 20
4.6
 10
22.5
 20
4.6
 10
22.5
 20
5.4
 10
28.157895
 20
5.4
  0
LWPOLYLINE
  5
1C7
330
17
100
AcDbEntity
  8
TRUSS_CHORD
100
AcDbPolyline
 90
5
 70
1
 10
28.157895
 20
11.4
 10
28.157895
 20
10.6
 10
22.5
 20
10.6
 10
22.5
 20
11.4
 10
28.157895
 20
11.4
  0
LWPOLYLINE
  5
1C8
330
17
100
AcDbEntity
  8
STRUT_OUTLINE
100
AcDbPolyline
 90
5
 70
1
 10
28.448912552799673
 20
5.2744244594829155
 10
27.866877447200327
 20
4.7255755405170845
 10
22.208982447200327
 20
10.725575540517085
 10
22.791017552799673
 20
11.274424459482915
 10
28.448912552799673
 20
5.2744244594829155
  0
LWPOLYLINE
  5
1C9
330
17
100
AcDbEntity
  8
TRUSS_CHORD
100
AcDbPolyline
 90
5
 70
1
 10
35.0
 20
5.4
 10
35.0
 20
4.6
 10
28.157895
 20
4.6
 10
28.157895
 20
5.4
 10
35.0
 20
5.4
  0
LWPOLYLINE
  5
1CA
330
17
100
AcDbEntity
  8
TRUSS_CHORD
100
AcDbPolyline
 90
5
 70
1
 10
35.0
 20
11.4
 10
35.0
 20
10.6
 10
28.157895
 20
10.6
 10
28.157895
 20
11.4
 10
35.0
 20
11.4
  0
LWPOLYLINE
  5
1CB
330
17
100
AcDbEntity
  8
STRUT_OUTLINE
100
AcDbPolyline
 90
5
 70
1
 10
34.736270743946825
 20
11.300743876914622
 10
35.263729256053175
 20
10.699256123085378
 10
28.421624256053178
 20
4.699256123085378
 10
27.89416574394682
 20
5.300743876914622
 10
34.736270743946825
 20
11.300743876914622
  0
LWPOLYLINE
  5
1CC
330
17
100
AcDbEntity
  8
TRUSS_CHORD
100
AcDbPolyline
 90
5
 70
1
 10
39.736842
 20
5.4
 10
39.736842
 20
4.6
 10
35.0
 20
4.6
 10
35.0
 20
5.4
 10
39.736842
 20
5.4
  0
LWPOLYLINE
  5
1CD
330
17
100
AcDbEntity
  8
TRUSS_CHORD
100
AcDbPolyline
 90
5
 70
1
 10
39.736842
 20
11.4
 10
39.736842
 20
10.6
 10
35.0
 20
10.6
 10
35.0
 20
11.4
 10
39.736842
 20
11.4
  0
LWPOLYLINE
  5
1CE
330
17
100
AcDbEntity
  8
STRUT_OUTLINE
100
AcDbPolyline
 90
5
 70
1
 10
40.05079510889215
 20
5.247857712038486
 10
39.42288889110785
 20
4.752142287961514
 10
34.68604689110785
 20
10.752142287961513
 10
35.31395310889215
 20
11.247857712038487
 10
40.05079510889215
 20
5.247857712038486
  0
LWPOLYLINE
  5
1CF
330
17
100
AcDbEntity
  8
TRUSS_CHORD
100
AcDbPolyline
 90
5
 70
1
 10
47.5
 20
5.4
 10
47.5
 20
4.6
 10
39.736842
 20
4.6
 10
39.736842
 20
5.4
 10
47.5
 20
5.4
  0
LWPOLYLINE
  5
1D0
330
17
100
AcDbEntity
  8
TRUSS_CHORD
100
AcDbPolyline
 90
5
 70
1
 10
47.5
 20
11.4
 10
47.5
 20
10.6
 10
39.736842
 20
10.6
 10
39.736842
 20
11.4
 10
47.5
 20
11.4
  0
LWPOLYLINE
  5
1D1
330
17
100
AcDbEntity
  8
STRUT_OUTLINE
100
AcDbPolyline
 90
5
 70
1
 10
47.25539046892356
 20
11.316490406342059
 10
47.74460953107644
 20
10.683509593657941
 10
39.981451531076445
 20
4.683509593657941
 10
39.49223246892356
 20
5.316490406342059
 10
47.25539046892356
 20
11.316490406342059
  0
LWPOLYLINE
  5
1D2
330
17
100
AcDbEntity
  8
TRUSS_CHORD
100
AcDbPolyline
 90
5
 70
1
 10
51.315789
 20
5.4
 10
51.315789
 20
4.6
 10
47.5
 20
4.6
 10
47.5
 20
5.4
 10
51.315789
 20
5.4
  0
LWPOLYLINE
  5
1D3
330
17
100
AcDbEntity
  8
TRUSS_CHORD
100
AcDbPolyline
 90
5
 70
1
 10
51.315789
 20
11.4
 10
51.315789
 20
10.6
 10
47.5
 20
10.6
 10
47.5
 20
11.4
 10
51.315789
 20
11.4
  0
LWPOLYLINE
  5
1D4
330
17
100
AcDbEntity
  8
STRUT_OUTLINE
100
AcDbPolyline
 90
5
 70
1
 10
51.65331455018878
 20
5.214654380271548
 10
50.97826344981122
 20
4.785345619728452
 10
47.16247444981122
 20
10.785345619728451
 10
47.83752555018878
 20
11.214654380271549
 10
51.65331455018878
 20
5.214654380271548
  0
LWPOLYLINE
  5
1D5
330
17
100
AcDbEntity
  8
TRUSS_CHORD
100
AcDbPolyline
 90
5
 70
1
 10
60.0
 20
5.4
 10
60.0
 20
4.6
 10
51.315789
 20
4.6
 10
51.315789
 20
5.4
 10
60.0
 20
5.4
  0
LWPOLYLINE
  5
1D6
330
17
100
AcDbEntity
  8
TRUSS_CHORD
100
AcDbPolyline
 90
5
 70
1
 10
60.0
 20
11.4
 10
60.0
 20
10.6
 10
51.315789
 20
10.6
 10
51.315789
 20
11.4
 10
60.0
 20
11.4
  0
LWPOLYLINE
  5
1D7
330
17
100
AcDbEntity
  8
STRUT_OUTLINE
100
AcDbPolyline
 90
5
 70
1
 10
59.77262726041269
 20
11.329092141037373
 10
60.22737273958731
 20
10.670907858962627
 10
51.54316173958731
 20
4.670907858962627
 10
51.08841626041269
 20
5.329092141037373
 10
59.77262726041269
 20
11.329092141037373
  0
LWPOLYLINE
  5
1D8
330
17
100
AcDbEntity
  8
TRUSS_CHORD
100
AcDbPolyline
 90
5
 70
1
 10
68.684211
 20
5.4
 10
68.684211
 20
4.6
 10
60.0
 20
4.6
 10
60.0
 20
5.4
 10
68.684211
 20
5.4
  0
LWPOLYLINE
  5
1D9
330
17
100
AcDbEntity
  8
TRUSS_CHORD
100
AcDbPolyline
 90
5
 70
1
 10
68.684211
 20
11.4
 10
68.684211
 20
10.6
 10
60.0
 20
10.6
 10
60.0
 20
11.4
 10
68.684211
 20
11.4
  0
LWPOLYLINE
  5
1DA
330
17
100
AcDbEntity
  8
STRUT_OUTLINE
100
AcDbPolyline
 90
5
 70
1
 10
68.91158373958731
 20
5.329092141037373
 10
68.4568382604127
 20
4.670907858962627
 10
59.77262726041269
 20
10.670907858962627
 10
60.22737273958731
 20
11.329092141037373
 10
68.91158373958731
 20
5.329092141037373
  0
LWPOLYLINE
  5
1DB
330
17
100
AcDbEntity
  8
TRUSS_CHORD
100
AcDbPolyline
 90
5
 70
1
 10
72.5
 20
5.4
 10
72.5
 20
4.6
 10
68.684211
 20
4.6
 10
68.684211
 20
5.4
 10
72.5
 20
5.4
  0
LWPOLYLINE
  5
1DC
330
17
100
AcDbEntity
  8
TRUSS_CHORD
100
AcDbPolyline
 90
5
 70
1
 10
72.5
 20
11.4
 10
72.5
 20
10.6
 10
68.684211
 20
10.6
 10
68.684211
 20
11.4
 10
72.5
 20
11.4
  0
LWPOLYLINE
  5
1DD
330
17
100
AcDbEntity
  8
STRUT_OUTLINE
100
AcDbPolyline
 90
5
 70
1
 10
72.16247444981123
 20
11.214654380271549
 10
72.83752555018877
 20
10.785345619728451
 10
69.02173655018878
 20
4.785345619728452
 10
68.34668544981123
 20
5.214654380271548
 10
72.16247444981123
 20
11.214654380271549
  0
LWPOLYLINE
  5
1DE
330
17
100
AcDbEntity
  8
TRUSS_CHORD
100
AcDbPolyline
 90
5
 70
1
 10
80.263158
 20
5.4
 10
80.263158
 20
4.6
 10
72.5
 20
4.6
 10
72.5
 20
5.4
 10
80.263158
 20
5.4
  0
LWPOLYLINE
  5
1DF
330
17
100
AcDbEntity
  8
TRUSS_CHORD
100
AcDbPolyline
 90
5
 70
1
 10
80.263158
 20
11.4
 10
80.263158
 20
10.6
 10
72.5
 20
10.6
 10
72.5
 20
11.4
 10
80.263158
 20
11.4
  0
LWPOLYLINE
  5
1E0
330
17
100
AcDbEntity
  8
STRUT_OUTLINE
100
AcDbPolyline
 90
5
 70
1
 10
80.50776753107645
 20
5.316490406342059
 10
80.01854846892356
 20
4.683509593657941
 10
72.25539046892355
 20
10.683509593657941
 10
72.74460953107645
 20
11.316490406342059
 10
80.50776753107645
 20
5.316490406342059
  0
LWPOLYLINE
  5
1E1
330
17
100
AcDbEntity
  8
TRUSS_CHORD
100
AcDbPolyline
 90
5
 70
1
 10
85.0
 20
5.4
 10
85.0
 20
4.6
 10
80.263158
 20
4.6
 10
80.263158
 20
5.4
 10
85.0
 20
5.4
  0
LWPOLYLINE
  5
1E2
330
17
100
AcDbEntity
  8
TRUSS_CHORD
100
AcDbPolyline
 90
5
 70
1
 10
85.0
 20
11.4
 10
85.0
 20
10.6
 10
80.263158
 20
10.6
 10
80.263158
 20
11.4
 10
85.0
 20
11.4
  0
LWPOLYLINE
  5
1E3
330
17
100
AcDbEntity
  8
STRUT_OUTLINE
100
AcDbPolyline
 90
5
 70
1
 10
84.68604689110785
 20
11.247857712038487
 10
85.31395310889215
 20
10.752142287961513
 10
80.57711110889215
 20
4.752142287961514
 10
79.94920489110785
 20
5.247857712038486
 10
84.68604689110785
 20
11.247857712038487
  0
LWPOLYLINE
  5
1E4
330
17
100
AcDbEntity
  8
TRUSS_CHORD
100
AcDbPolyline
 90
5
 70
1
 10
91.842105
 20
5.4
 10
91.842105
 20
4.6
 10
85.0
 20
4.6
 10
85.0
 20
5.4
 10
91.842105
 20
5.4
  0
LWPOLYLINE
  5
1E5
330
17
100
AcDbEntity
  8
TRUSS_CHORD
100
AcDbPolyline
 90
5
 70
1
 10
91.842105
 20
11.4
 10
91.842105
 20
10.6
 10
85.0
 20
10.6
 10
85.0
 20
11.4
 10
91.842105
 20
11.4
  0
LWPOLYLINE
  5
1E6
330
17
100
AcDbEntity
  8
STRUT_OUTLINE
100
AcDbPolyline
 90
5
 70
1
 10
92.10583425605319
 20
5.300743876914622
 10
91.57837574394682
 20
4.699256123085378
 10
84.73627074394682
 20
10.699256123085378
 10
85.26372925605318
 20
11.300743876914622
 10
92.10583425605319
 20
5.300743876914622
  0
LWPOLYLINE
  5
1E7
330
17
100
AcDbEntity
  8
TRUSS_CHORD
100
AcDbPolyline
 90
5
 70
1
 10
97.5
 20
5.4
 10
97.5
 20
4.6
 10
91.842105
 20
4.6
 10
91.842105
 20
5.4
 10
97.5
 20
5.4
  0
LWPOLYLINE
  5
1E8
330
17
100
AcDbEntity
  8
TRUSS_CHORD
100
AcDbPolyline
 90
5
 70
1
 10
97.5
 20
11.4
 10
97.5
 20
10.6
 10
91.842105
 20
10.6
 10
91.842105
 20
11.4
 10
97.5
 20
11.4
  0
LWPOLYLINE
  5
1E9
330
17
100
AcDbEntity
  8
STRUT_OUTLINE
100
AcDbPolyline
 90
5
 70
1
 10
97.20898244720033
 20
11.274424459482915
 10
97.79101755279967
 20
10.725575540517085
 10
92.13312255279968
 20
4.7255755405170845
 10
91.55108744720033
 20
5.2744244594829155
 10
97.20898244720033
 20
11.274424459482915
  0
LWPOLYLINE
  5
1EA
330
17
100
AcDbEntity
  8
TRUSS_CHORD
100
AcDbPolyline
 90
5
 70
1
 10
103.421053
 20
5.4
 10
103.421053
 20
4.6
 10
97.5
 20
4.6
 10
97.5
 20
5.4
 10
103.421053
 20
5.4
  0
LWPOLYLINE
  5
1EB
330
17
100
AcDbEntity
  8
TRUSS_CHORD
100
AcDbPolyline
 90
5
 70
1
 10
103.421053
 20
11.4
 10
103.421053
 20
10.6
 10
97.5
 20
10.6
 10
97.5
 20
11.4
 10
103.421053
 20
11.4
  0
LWPOLYLINE
  5
1EC
330
17
100
AcDbEntity
  8
STRUT_OUTLINE
100
AcDbPolyline
 90
5
 70
1
 10
103.7057625909912
 20
5.280963429644539
 10
103.1363434090088
 20
4.719036570355461
 10
97.2152904090088
 20
10.719036570355462
 10
97.7847095909912
 20
11.280963429644538
 10
103.7057625909912
 20
5.280963429644539
  0
LWPOLYLINE
  5
1ED
330
17
100
AcDbEntity
  8
TRUSS_CHORD
100
AcDbPolyline
 90
5
 70
1
 10
110.0
 20
5.4
 10
110.0
 20
4.6
 10
103.421053
 20
4.6
 10
103.421053
 20
5.4
 10
110.0
 20
5.4
  0
LWPOLYLINE
  5
1EE
330
17
100
AcDbEntity
  8
TRUSS_CHORD
100
AcDbPolyline
 90
5
 70
1
 10
110.0
 20
11.4
 10
110.0
 20
10.6
 10
103.421053
 20
10.6
 10
103.421053
 20
11.4
 10
110.0
 20
11.4
  0
LWPOLYLINE
  5
1EF
330
17
100
AcDbEntity
  8
STRUT_OUTLINE
100
AcDbPolyline
 90
5
 70
1
 10
109.73046047784469
 20
11.295547705110849
 10
110.26953952215531
 20
10.704452294889151
 10
103.69059252215531
 20
4.704452294889152
 10
103.15151347784469
 20
5.295547705110848
 10
109.73046047784469
 20
11.295547705110849
  0
LWPOLYLINE
  5
1F0
330
17
100
AcDbEntity
  8
TRUSS_CHORD
100
AcDbPolyline
 90
5
 70
1
 10
115.0
 20
5.4
 10
115.0
 20
4.6
 10
110.0
 20
4.6
 10
110.0
 20
5.4
 10
115.0
 20
5.4
  0
LWPOLYLINE
  5
1F1
330
17
100
AcDbEntity
  8
TRUSS_CHORD
100
AcDbPolyline
 90
5
 70
1
 10
115.0
 20
11.4
 10
115.0
 20
10.6
 10
110.0
 20
10.6
 10
110.0
 20
11.4
 10
115.0
 20
11.4
  0
LWPOLYLINE
  5
1F2
330
17
100
AcDbEntity
  8
STRUT_OUTLINE
100
AcDbPolyline
 90
5
 70
1
 10
115.30728851183895
 20
5.256073759865792
 10
114.69271148816105
 20
4.743926240134208
 10
109.69271148816105
 20
10.743926240134208
 10
110.30728851183895
 20
11.256073759865792
 10
115.30728851183895
 20
5.256073759865792
  0
LWPOLYLINE
  5
1F3
330
17
100
AcDbEntity
  8
STRUT_OUTLINE
100
AcDbPolyline
 90
5
 70
1
 10
4.721285726294701
 20
21.71308824765631
 10
5.278714273705299
 20
22.28691175234369
 10
22.7787142737053
 20
5.28691175234369
 10
22.2212857262947
 20
4.71308824765631
 10
4.721285726294701
 20
21.71308824765631
  0
LWPOLYLINE
  5
1F4
330
17
100
AcDbEntity
  8
STRUT_OUTLINE
100
AcDbPolyline
 90
5
 70
1
 10
4.716091981558295
 20
28.05155962108619
 10
5.283908018441705
 20
28.615106378913808
 10
28.441803018441703
 20
5.281773378913808
 10
27.873986981558296
 20
4.718226621086192
 10
4.716091981558295
 20
28.05155962108619
  0
LWPOLYLINE
  5
1F5
330
17
100
AcDbEntity
  8
STRUT_OUTLINE
100
AcDbPolyline
 90
5
 70
1
 10
4.72199116126101
 20
33.71240464958036
 10
5.27800883873899
 20
34.28759535041964
 10
35.27800883873899
 20
5.287595350419645
 10
34.72199116126101
 20
4.712404649580355
 10
4.72199116126101
 20
33.71240464958036
  0
LWPOLYLINE
  5
1F6
330
17
100
AcDbEntity
  8
STRUT_OUTLINE
100
AcDbPolyline
 90
5
 70
1
 10
22.2212857262947
 20
75.28691175234368
 10
22.7787142737053
 20
74.71308824765632
 10
5.278714273705299
 20
57.71308824765631
 10
4.721285726294701
 20
58.28691175234369
 10
22.2212857262947
 20
75.28691175234368
  0
LWPOLYLINE
  5
1F7
330
17
100
AcDbEntity
  8
STRUT_OUTLINE
100
AcDbPolyline
 90
5
 70
1
 10
27.873986981558296
 20
75.28177337891381
 10
28.441803018441703
 20
74.71822662108619
 10
5.283908018441705
 20
51.384893621086185
 10
4.716091981558295
 20
51.94844037891381
 10
27.873986981558296
 20
75.28177337891381
  0
LWPOLYLINE
  5
1F8
330
17
100
AcDbEntity
  8
STRUT_OUTLINE
100
AcDbPolyline
 90
5
 70
1
 10
34.72199116126101
 20
75.28759535041965
 10
35.27800883873899
 20
74.71240464958035
 10
5.27800883873899
 20
45.71240464958036
 10
4.72199116126101
 20
46.28759535041964
 10
34.72199116126101
 20
75.28759535041965
  0
LWPOLYLINE
  5
1F9
330
17
100
AcDbEntity
  8
STRUT_OUTLINE
100
AcDbPolyline
 90
5
 70
1
 10
115.2787142737053
 20
58.28691175234369
 10
114.7212857262947
 20
57.71308824765631
 10
97.2212857262947
 20
74.71308824765632
 10
97.7787142737053
 20
75.28691175234368
 10
115.2787142737053
 20
58.28691175234369
  0
LWPOLYLINE
  5
1FA
330
17
100
AcDbEntity
  8
STRUT_OUTLINE
100
AcDbPolyline
 90
5
 70
1
 10
115.2839080184417
 20
51.9484403789138
 10
114.7160919815583
 20
51.38489362108619
 10
91.5581969815583
 20
74.71822662108619
 10
92.12601301844171
 20
75.28177337891381
 10
115.2839080184417
 20
51.9484403789138
  0
LWPOLYLINE
  5
1FB
330
17
100
AcDbEntity
  8
STRUT_OUTLINE
100
AcDbPolyline
 90
5
 70
1
 10
115.27800883873898
 20
46.28759535041964
 10
114.72199116126102
 20
45.71240464958036
 10
84.72199116126102
 20
74.71240464958035
 10
85.27800883873898
 20
75.28759535041965
 10
115.27800883873898
 20
46.28759535041964
  0
LWPOLYLINE
  5
1FC
330
17
100
AcDbEntity
  8
STRUT_OUTLINE
100
AcDbPolyline
 90
5
 70
1
 10
97.7787142737053
 20
4.71308824765631
 10
97.2212857262947
 20
5.28691175234369
 10
114.7212857262947
 20
22.28691175234369
 10
115.2787142737053
 20
21.71308824765631
 10
97.7787142737053
 20
4.71308824765631
  0
LWPOLYLINE
  5
1FD
330
17
100
AcDbEntity
  8
STRUT_OUTLINE
100
AcDbPolyline
 90
5
 70
1
 10
92.12601301844171
 20
4.718226621086192
 10
91.5581969815583
 20
5.281773378913808
 10
114.7160919815583
 20
28.615106378913808
 10
115.2839080184417
 20
28.05155962108619
 10
92.12601301844171
 20
4.718226621086192
  0
LWPOLYLINE
  5
1FE
330
17
100
AcDbEntity
  8
STRUT_OUTLINE
100
AcDbPolyline
 90
5
 70
1
 10
85.27800883873898
 20
4.712404649580355
 10
84.72199116126102
 20
5.287595350419645
 10
114.72199116126102
 20
34.28759535041964
 10
115.27800883873898
 20
33.71240464958036
 10
85.27800883873898
 20
4.712404649580355
  0
LWPOLYLINE
  5
1FF
330
17
100
AcDbEntity
  8
PILLAR
100
AcDbPolyline
 90
4
 70
1
 10
7.4668941043867685
 20
18.81501715573857
 10
8.266894104386768
 20
18.81501715573857
 10
8.266894104386768
 20
19.615017155738567
 10
7.4668941043867685
 20
19.615017155738567
  0
LWPOLYLINE
  5
200
330
17
100
AcDbEntity
  8
PILLAR
100
AcDbPolyline
 90
4
 70
1
 10
7.46689410438677
 20
60.38498284426144
 10
8.26689410438677
 20
60.38498284426144
 10
8.26689410438677
 20
61.184982844261434
 10
7.46689410438677
 20
61.184982844261434
  0
LWPOLYLINE
  5
201
330
17
100
AcDbEntity
  8
PILLAR
100
AcDbPolyline
 90
4
 70
1
 10
7.565116367293128
 20
48.466279155050024
 10
8.365116367293128
 20
48.466279155050024
 10
8.365116367293128
 20
49.26627915505002
 10
7.565116367293128
 20
49.26627915505002
  0
LWPOLYLINE
  5
202
330
17
100
AcDbEntity
  8
PILLAR
100
AcDbPolyline
 90
4
 70
1
 10
7.565116367293129
 20
30.73372084494998
 10
8.36511636729313
 20
30.73372084494998
 10
8.36511636729313
 20
31.533720844949976
 10
7.565116367293129
 20
31.533720844949976
  0
LWPOLYLINE
  5
203
330
17
100
AcDbEntity
  8
PILLAR
100
AcDbPolyline
 90
4
 70
1
 10
8.766666666666666
 20
9.6
 10
9.566666666666666
 20
9.6
 10
9.566666666666666
 20
10.4
 10
8.766666666666666
 20
10.4
  0
LWPOLYLINE
  5
204
330
17
100
AcDbEntity
  8
PILLAR
100
AcDbPolyline
 90
4
 70
1
 10
8.766666666666666
 20
69.6
 10
9.566666666666666
 20
69.6
 10
9.566666666666666
 20
70.4
 10
8.766666666666666
 20
70.4
  0
LWPOLYLINE
  5
205
330
17
100
AcDbEntity
  8
PILLAR
100
AcDbPolyline
 90
4
 70
1
 10
9.6
 20
8.766666666666666
 10
10.4
 20
8.766666666666666
 10
10.4
 20
9.566666666666666
 10
9.6
 20
9.566666666666666
  0
LWPOLYLINE
  5
206
330
17
100
AcDbEntity
  8
PILLAR
100
AcDbPolyline
 90
4
 70
1
 10
9.6
 20
9.6
 10
10.4
 20
9.6
 10
10.4
 20
10.4
 10
9.6
 20
10.4
  0
LWPOLYLINE
  5
207
330
17
100
AcDbEntity
  8
PILLAR
100
AcDbPolyline
 90
4
 70
1
 10
9.6
 20
10.711111166666667
 10
10.4
 20
10.711111166666667
 10
10.4
 20
11.511111166666668
 10
9.6
 20
11.511111166666668
  0
LWPOLYLINE
  5
208
330
17
100
AcDbEntity
  8
PILLAR
100
AcDbPolyline
 90
4
 70
1
 10
9.6
 20
16.742857142857144
 10
10.4
 20
16.742857142857144
 10
10.4
 20
17.54285714285714
 10
9.6
 20
17.54285714285714
  0
LWPOLYLINE
  5
209
330
17
100
AcDbEntity
  8
PILLAR
100
AcDbPolyline
 90
4
 70
1
 10
9.6
 20
20.71111116666667
 10
10.4
 20
20.71111116666667
 10
10.4
 20
21.511111166666666
 10
9.6
 20
21.511111166666666
  0
LWPOLYLINE
  5
20A
330
17
100
AcDbEntity
  8
PILLAR
100
AcDbPolyline
 90
4
 70
1
 10
9.6
 20
21.6
 10
10.4
 20
21.6
 10
10.4
 20
22.4
 10
9.6
 20
22.4
  0
LWPOLYLINE
  5
20B
330
17
100
AcDbEntity
  8
PILLAR
100
AcDbPolyline
 90
4
 70
1
 10
9.6
 20
22.655555500000002
 10
10.4
 20
22.655555500000002
 10
10.4
 20
23.4555555
 10
9.6
 20
23.4555555
  0
LWPOLYLINE
  5
20C
330
17
100
AcDbEntity
  8
PILLAR
100
AcDbPolyline
 90
4
 70
1
 10
9.6
 20
22.89545434133953
 10
10.4
 20
22.89545434133953
 10
10.4
 20
23.695454341339527
 10
9.6
 20
23.695454341339527
  0
LWPOLYLINE
  5
20D
330
17
100
AcDbEntity
  8
PILLAR
100
AcDbPolyline
 90
4
 70
1
 10
9.6
 20
27.933333333333334
 10
10.4
 20
27.933333333333334
 10
10.4
 20
28.73333333333333
 10
9.6
 20
28.73333333333333
  0
LWPOLYLINE
  5
20E
330
17
100
AcDbEntity
  8
PILLAR
100
AcDbPolyline
 90
4
 70
1
 10
9.6
 20
28.76666666666667
 10
10.4
 20
28.76666666666667
 10
10.4
 20
29.566666666666666
 10
9.6
 20
29.566666666666666
  0
LWPOLYLINE
  5
20F
330
17
100
AcDbEntity
  8
PILLAR
100
AcDbPolyline
 90
4
 70
1
 10
9.6
 20
32.6555555
 10
10.4
 20
32.6555555
 10
10.4
 20
33.455555499999996
 10
9.6
 20
33.455555499999996
  0
LWPOLYLINE
  5
210
330
17
100
AcDbEntity
  8
PILLAR
100
AcDbPolyline
 90
4
 70
1
 10
9.6
 20
33.6
 10
10.4
 20
33.6
 10
10.4
 20
34.4
 10
9.6
 20
34.4
  0
LWPOLYLINE
  5
211
330
17
100
AcDbEntity
  8
PILLAR
100
AcDbPolyline
 90
4
 70
1
 10
9.6
 20
34.6
 10
10.4
 20
34.6
 10
10.4
 20
35.4
 10
9.6
 20
35.4
  0
LWPOLYLINE
  5
212
330
17
100
AcDbEntity
  8
PILLAR
100
AcDbPolyline
 90
4
 70
1
 10
9.6
 20
44.6
 10
10.4
 20
44.6
 10
10.4
 20
45.4
 10
9.6
 20
45.4
  0
LWPOLYLINE
  5
213
330
17
100
AcDbEntity
  8
PILLAR
100
AcDbPolyline
 90
4
 70
1
 10
9.6
 20
45.6
 10
10.4
 20
45.6
 10
10.4
 20
46.4
 10
9.6
 20
46.4
  0
LWPOLYLINE
  5
214
330
17
100
AcDbEntity
  8
PILLAR
100
AcDbPolyline
 90
4
 70
1
 10
9.6
 20
46.544444500000004
 10
10.4
 20
46.544444500000004
 10
10.4
 20
47.3444445
 10
9.6
 20
47.3444445
  0
LWPOLYLINE
  5
215
330
17
100
AcDbEntity
  8
PILLAR
100
AcDbPolyline
 90
4
 70
1
 10
9.6
 20
50.43333333333334
 10
10.4
 20
50.43333333333334
 10
10.4
 20
51.233333333333334
 10
9.6
 20
51.233333333333334
  0
LWPOLYLINE
  5
216
330
17
100
AcDbEntity
  8
PILLAR
100
AcDbPolyline
 90
4
 70
1
 10
9.6
 20
51.266666666666666
 10
10.4
 20
51.266666666666666
 10
10.4
 20
52.06666666666666
 10
9.6
 20
52.06666666666666
  0
LWPOLYLINE
  5
217
330
17
100
AcDbEntity
  8
PILLAR
100
AcDbPolyline
 90
4
 70
1
 10
9.6
 20
56.304545658660466
 10
10.4
 20
56.304545658660466
 10
10.4
 20
57.10454565866046
 10
9.6
 20
57.10454565866046
  0
LWPOLYLINE
  5
218
330
17
100
AcDbEntity
  8
PILLAR
100
AcDbPolyline
 90
4
 70
1
 10
9.6
 20
56.544444500000004
 10
10.4
 20
56.544444500000004
 10
10.4
 20
57.3444445
 10
9.6
 20
57.3444445
  0
LWPOLYLINE
  5
219
330
17
100
AcDbEntity
  8
PILLAR
100
AcDbPolyline
 90
4
 70
1
 10
9.6
 20
57.6
 10
10.4
 20
57.6
 10
10.4
 20
58.4
 10
9.6
 20
58.4
  0
LWPOLYLINE
  5
21A
330
17
100
AcDbEntity
  8
PILLAR
100
AcDbPolyline
 90
4
 70
1
 10
9.6
 20
58.488888833333334
 10
10.4
 20
58.488888833333334
 10
10.4
 20
59.28888883333333
 10
9.6
 20
59.28888883333333
  0
LWPOLYLINE
  5
21B
330
17
100
AcDbEntity
  8
PILLAR
100
AcDbPolyline
 90
4
 70
1
 10
9.6
 20
62.457142857142856
 10
10.4
 20
62.457142857142856
 10
10.4
 20
63.25714285714285
 10
9.6
 20
63.25714285714285
  0
LWPOLYLINE
  5
21C
330
17
100
AcDbEntity
  8
PILLAR
100
AcDbPolyline
 90
4
 70
1
 10
9.6
 20
68.48888883333333
 10
10.4
 20
68.48888883333333
 10
10.4
 20
69.28888883333335
 10
9.6
 20
69.28888883333335
  0
LWPOLYLINE
  5
21D
330
17
100
AcDbEntity
  8
PILLAR
100
AcDbPolyline
 90
4
 70
1
 10
9.6
 20
69.6
 10
10.4
 20
69.6
 10
10.4
 20
70.4
 10
9.6
 20
70.4
  0
LWPOLYLINE
  5
21E
330
17
100
AcDbEntity
  8
PILLAR
100
AcDbPolyline
 90
4
 70
1
 10
9.6
 20
70.43333333333332
 10
10.4
 20
70.43333333333332
 10
10.4
 20
71.23333333333333
 10
9.6
 20
71.23333333333333
  0
LWPOLYLINE
  5
21F
330
17
100
AcDbEntity
  8
PILLAR
100
AcDbPolyline
 90
4
 70
1
 10
9.700000044999998
 20
10.6
 10
10.500000044999998
 20
10.6
 10
10.500000044999998
 20
11.4
 10
9.700000044999998
 20
11.4
  0
LWPOLYLINE
  5
220
330
17
100
AcDbEntity
  8
PILLAR
100
AcDbPolyline
 90
4
 70
1
 10
9.700000044999998
 20
68.6
 10
10.500000044999998
 20
68.6
 10
10.500000044999998
 20
69.4
 10
9.700000044999998
 20
69.4
  0
LWPOLYLINE
  5
221
330
17
100
AcDbEntity
  8
PILLAR
100
AcDbPolyline
 90
4
 70
1
 10
10.158035980737804
 20
69.10892884293288
 10
10.958035980737804
 20
69.10892884293288
 10
10.958035980737804
 20
69.9089288429329
 10
10.158035980737804
 20
69.9089288429329
  0
LWPOLYLINE
  5
222
330
17
100
AcDbEntity
  8
PILLAR
100
AcDbPolyline
 90
4
 70
1
 10
10.158035980737806
 20
10.091071157067105
 10
10.958035980737806
 20
10.091071157067105
 10
10.958035980737806
 20
10.891071157067106
 10
10.158035980737806
 20
10.891071157067106
  0
LWPOLYLINE
  5
223
330
17
100
AcDbEntity
  8
PILLAR
100
AcDbPolyline
 90
4
 70
1
 10
10.462068965517238
 20
51.266666666666666
 10
11.262068965517239
 20
51.266666666666666
 10
11.262068965517239
 20
52.06666666666666
 10
10.462068965517238
 20
52.06666666666666
  0
LWPOLYLINE
  5
224
330
17
100
AcDbEntity
  8
PILLAR
100
AcDbPolyline
 90
4
 70
1
 10
10.462068965517242
 20
27.933333333333334
 10
11.262068965517242
 20
27.933333333333334
 10
11.262068965517242
 20
28.73333333333333
 10
10.462068965517242
 20
28.73333333333333
  0
LWPOLYLINE
  5
225
330
17
100
AcDbEntity
  8
PILLAR
100
AcDbPolyline
 90
4
 70
1
 10
10.6
 20
9.687999948927997
 10
11.4
 20
9.687999948927997
 10
11.4
 20
10.487999948927998
 10
10.6
 20
10.487999948927998
  0
LWPOLYLINE
  5
226
330
17
100
AcDbEntity
  8
PILLAR
100
AcDbPolyline
 90
4
 70
1
 10
10.6
 20
10.6
 10
11.4
 20
10.6
 10
11.4
 20
11.4
 10
10.6
 20
11.4
  0
LWPOLYLINE
  5
227
330
17
100
AcDbEntity
  8
PILLAR
100
AcDbPolyline
 90
4
 70
1
 10
10.6
 20
15.77142857142857
 10
11.4
 20
15.77142857142857
 10
11.4
 20
16.57142857142857
 10
10.6
 20
16.57142857142857
  0
LWPOLYLINE
  5
228
330
17
100
AcDbEntity
  8
PILLAR
100
AcDbPolyline
 90
4
 70
1
 10
10.6
 20
21.887878609607437
 10
11.4
 20
21.887878609607437
 10
11.4
 20
22.687878609607434
 10
10.6
 20
22.687878609607434
  0
LWPOLYLINE
  5
229
330
17
100
AcDbEntity
  8
PILLAR
100
AcDbPolyline
 90
4
 70
1
 10
10.6
 20
27.8
 10
11.4
 20
27.8
 10
11.4
 20
28.599999999999998
 10
10.6
 20
28.599999999999998
  0
LWPOLYLINE
  5
22A
330
17
100
AcDbEntity
  8
PILLAR
100
AcDbPolyline
 90
4
 70
1
 10
10.6
 20
51.4
 10
11.4
 20
51.4
 10
11.4
 20
52.199999999999996
 10
10.6
 20
52.199999999999996
  0
LWPOLYLINE
  5
22B
330
17
100
AcDbEntity
  8
PILLAR
100
AcDbPolyline
 90
4
 70
1
 10
10.6
 20
57.31212139039256
 10
11.4
 20
57.31212139039256
 10
11.4
 20
58.11212139039256
 10
10.6
 20
58.11212139039256
  0
LWPOLYLINE
  5
22C
330
17
100
AcDbEntity
  8
PILLAR
100
AcDbPolyline
 90
4
 70
1
 10
10.6
 20
63.42857142857143
 10
11.4
 20
63.42857142857143
 10
11.4
 20
64.22857142857143
 10
10.6
 20
64.22857142857143
  0
LWPOLYLINE
  5
22D
330
17
100
AcDbEntity
  8
PILLAR
100
AcDbPolyline
 90
4
 70
1
 10
10.6
 20
68.6
 10
11.4
 20
68.6
 10
11.4
 20
69.4
 10
10.6
 20
69.4
  0
LWPOLYLINE
  5
22E
330
17
100
AcDbEntity
  8
PILLAR
100
AcDbPolyline
 90
4
 70
1
 10
10.6
 20
69.512000051072
 10
11.4
 20
69.512000051072
 10
11.4
 20
70.312000051072
 10
10.6
 20
70.312000051072
  0
LWPOLYLINE
  5
22F
330
17
100
AcDbEntity
  8
PILLAR
100
AcDbPolyline
 90
4
 70
1
 10
10.696491166666666
 20
9.6
 10
11.496491166666667
 20
9.6
 10
11.496491166666667
 20
10.4
 10
10.696491166666666
 20
10.4
  0
LWPOLYLINE
  5
230
330
17
100
AcDbEntity
  8
PILLAR
100
AcDbPolyline
 90
4
 70
1
 10
10.696491166666666
 20
69.6
 10
11.496491166666667
 20
69.6
 10
11.496491166666667
 20
70.4
 10
10.696491166666666
 20
70.4
  0
LWPOLYLINE
  5
231
330
17
100
AcDbEntity
  8
PILLAR
100
AcDbPolyline
 90
4
 70
1
 10
10.885714116111702
 20
21.6
 10
11.685714116111702
 20
21.6
 10
11.685714116111702
 20
22.4
 10
10.885714116111702
 20
22.4
  0
LWPOLYLINE
  5
232
330
17
100
AcDbEntity
  8
PILLAR
100
AcDbPolyline
 90
4
 70
1
 10
10.885714116111703
 20
57.6
 10
11.685714116111704
 20
57.6
 10
11.685714116111704
 20
58.4
 10
10.885714116111703
 20
58.4
  0
LWPOLYLINE
  5
233
330
17
100
AcDbEntity
  8
PILLAR
100
AcDbPolyline
 90
4
 70
1
 10
15.923529411764706
 20
10.6
 10
16.723529411764705
 20
10.6
 10
16.723529411764705
 20
11.4
 10
15.923529411764706
 20
11.4
  0
LWPOLYLINE
  5
234
330
17
100
AcDbEntity
  8
PILLAR
100
AcDbPolyline
 90
4
 70
1
 10
15.923529411764706
 20
68.6
 10
16.723529411764705
 20
68.6
 10
16.723529411764705
 20
69.4
 10
15.923529411764706
 20
69.4
  0
LWPOLYLINE
  5
235
330
17
100
AcDbEntity
  8
PILLAR
100
AcDbPolyline
 90
4
 70
1
 10
16.95294117647059
 20
9.6
 10
17.752941176470586
 20
9.6
 10
17.752941176470586
 20
10.4
 10
16.95294117647059
 20
10.4
  0
LWPOLYLINE
  5
236
330
17
100
AcDbEntity
  8
PILLAR
100
AcDbPolyline
 90
4
 70
1
 10
16.95294117647059
 20
69.6
 10
17.752941176470586
 20
69.6
 10
17.752941176470586
 20
70.4
 10
16.95294117647059
 20
70.4
  0
LWPOLYLINE
  5
237
330
17
100
AcDbEntity
  8
PILLAR
100
AcDbPolyline
 90
4
 70
1
 10
17.01379310344828
 20
21.6
 10
17.813793103448276
 20
21.6
 10
17.813793103448276
 20
22.4
 10
17.01379310344828
 20
22.4
  0
LWPOLYLINE
  5
238
330
17
100
AcDbEntity
  8
PILLAR
100
AcDbPolyline
 90
4
 70
1
 10
17.01379310344828
 20
57.6
 10
17.813793103448276
 20
57.6
 10
17.813793103448276
 20
58.4
 10
17.01379310344828
 20
58.4
  0
LWPOLYLINE
  5
239
330
17
100
AcDbEntity
  8
PILLAR
100
AcDbPolyline
 90
4
 70
1
 10
19.07696727440586
 20
7.536660362005737
 10
19.876967274405857
 20
7.536660362005737
 10
19.876967274405857
 20
8.336660362005738
 10
19.07696727440586
 20
8.336660362005738
  0
LWPOLYLINE
  5
23A
330
17
100
AcDbEntity
  8
PILLAR
100
AcDbPolyline
 90
4
 70
1
 10
19.07696727440586
 20
71.66333963799426
 10
19.876967274405857
 20
71.66333963799426
 10
19.876967274405857
 20
72.46333963799427
 10
19.07696727440586
 20
72.46333963799427
  0
LWPOLYLINE
  5
23B
330
17
100
AcDbEntity
  8
PILLAR
100
AcDbPolyline
 90
4
 70
1
 10
21.113157833333336
 20
9.6
 10
21.913157833333333
 20
9.6
 10
21.913157833333333
 20
10.4
 10
21.113157833333336
 20
10.4
  0
LWPOLYLINE
  5
23C
330
17
100
AcDbEntity
  8
PILLAR
100
AcDbPolyline
 90
4
 70
1
 10
21.113157833333336
 20
69.6
 10
21.913157833333333
 20
69.6
 10
21.913157833333333
 20
70.4
 10
21.113157833333336
 20
70.4
  0
LWPOLYLINE
  5
23D
330
17
100
AcDbEntity
  8
PILLAR
100
AcDbPolyline
 90
4
 70
1
 10
21.803007629215895
 20
10.6
 10
22.60300762921589
 20
10.6
 10
22.60300762921589
 20
11.4
 10
21.803007629215895
 20
11.4
  0
LWPOLYLINE
  5
23E
330
17
100
AcDbEntity
  8
PILLAR
100
AcDbPolyline
 90
4
 70
1
 10
21.803007629215898
 20
68.6
 10
22.603007629215895
 20
68.6
 10
22.603007629215895
 20
69.4
 10
21.803007629215898
 20
69.4
  0
LWPOLYLINE
  5
23F
330
17
100
AcDbEntity
  8
PILLAR
100
AcDbPolyline
 90
4
 70
1
 10
21.951926877947752
 20
10.449952578990006
 10
22.75192687794775
 20
10.449952578990006
 10
22.75192687794775
 20
11.249952578990007
 10
21.951926877947752
 20
11.249952578990007
  0
LWPOLYLINE
  5
240
330
17
100
AcDbEntity
  8
PILLAR
100
AcDbPolyline
 90
4
 70
1
 10
21.951926877947752
 20
68.75004742101
 10
22.75192687794775
 20
68.75004742101
 10
22.75192687794775
 20
69.55004742101
 10
21.951926877947752
 20
69.55004742101
  0
LWPOLYLINE
  5
241
330
17
100
AcDbEntity
  8
PILLAR
100
AcDbPolyline
 90
4
 70
1
 10
22.1
 20
9.6
 10
22.9
 20
9.6
 10
22.9
 20
10.4
 10
22.1
 20
10.4
  0
LWPOLYLINE
  5
242
330
17
100
AcDbEntity
  8
PILLAR
100
AcDbPolyline
 90
4
 70
1
 10
22.1
 20
10.300757694688356
 10
22.9
 20
10.300757694688356
 10
22.9
 20
11.100757694688356
 10
22.1
 20
11.100757694688356
  0
LWPOLYLINE
  5
243
330
17
100
AcDbEntity
  8
PILLAR
100
AcDbPolyline
 90
4
 70
1
 10
22.1
 20
16.683333333333334
 10
22.9
 20
16.683333333333334
 10
22.9
 20
17.48333333333333
 10
22.1
 20
17.48333333333333
  0
LWPOLYLINE
  5
244
330
17
100
AcDbEntity
  8
PILLAR
100
AcDbPolyline
 90
4
 70
1
 10
22.1
 20
21.6
 10
22.9
 20
21.6
 10
22.9
 20
22.4
 10
22.1
 20
22.4
  0
LWPOLYLINE
  5
245
330
17
100
AcDbEntity
  8
PILLAR
100
AcDbPolyline
 90
4
 70
1
 10
22.1
 20
27.933333333333334
 10
22.9
 20
27.933333333333334
 10
22.9
 20
28.73333333333333
 10
22.1
 20
28.73333333333333
  0
LWPOLYLINE
  5
246
330
17
100
AcDbEntity
  8
PILLAR
100
AcDbPolyline
 90
4
 70
1
 10
22.1
 20
33.6
 10
22.9
 20
33.6
 10
22.9
 20
34.4
 10
22.1
 20
34.4
  0
LWPOLYLINE
  5
247
330
17
100
AcDbEntity
  8
PILLAR
100
AcDbPolyline
 90
4
 70
1
 10
22.1
 20
45.6
 10
22.9
 20
45.6
 10
22.9
 20
46.4
 10
22.1
 20
46.4
  0
LWPOLYLINE
  5
248
330
17
100
AcDbEntity
  8
PILLAR
100
AcDbPolyline
 90
4
 70
1
 10
22.1
 20
51.266666666666666
 10
22.9
 20
51.266666666666666
 10
22.9
 20
52.06666666666666
 10
22.1
 20
52.06666666666666
  0
LWPOLYLINE
  5
249
330
17
100
AcDbEntity
  8
PILLAR
100
AcDbPolyline
 90
4
 70
1
 10
22.1
 20
57.6
 10
22.9
 20
57.6
 10
22.9
 20
58.4
 10
22.1
 20
58.4
  0
LWPOLYLINE
  5
24A
330
17
100
AcDbEntity
  8
PILLAR
100
AcDbPolyline
 90
4
 70
1
 10
22.1
 20
62.516666666666666
 10
22.9
 20
62.516666666666666
 10
22.9
 20
63.31666666666666
 10
22.1
 20
63.31666666666666
  0
LWPOLYLINE
  5
24B
330
17
100
AcDbEntity
  8
PILLAR
100
AcDbPolyline
 90
4
 70
1
 10
22.1
 20
68.89924230531163
 10
22.9
 20
68.89924230531163
 10
22.9
 20
69.69924230531164
 10
22.1
 20
69.69924230531164
  0
LWPOLYLINE
  5
24C
330
17
100
AcDbEntity
  8
PILLAR
100
AcDbPolyline
 90
4
 70
1
 10
22.1
 20
69.6
 10
22.9
 20
69.6
 10
22.9
 20
70.4
 10
22.1
 20
70.4
  0
LWPOLYLINE
  5
24D
330
17
100
AcDbEntity
  8
PILLAR
100
AcDbPolyline
 90
4
 70
1
 10
22.795488857679914
 20
9.6
 10
23.59548885767991
 20
9.6
 10
23.59548885767991
 20
10.4
 10
22.795488857679914
 20
10.4
  0
LWPOLYLINE
  5
24E
330
17
100
AcDbEntity
  8
PILLAR
100
AcDbPolyline
 90
4
 70
1
 10
22.795488857679914
 20
69.6
 10
23.59548885767991
 20
69.6
 10
23.59548885767991
 20
70.4
 10
22.795488857679914
 20
70.4
  0
LWPOLYLINE
  5
24F
330
17
100
AcDbEntity
  8
PILLAR
100
AcDbPolyline
 90
4
 70
1
 10
23.0429825
 20
9.6
 10
23.842982499999998
 20
9.6
 10
23.842982499999998
 20
10.4
 10
23.0429825
 20
10.4
  0
LWPOLYLINE
  5
250
330
17
100
AcDbEntity
  8
PILLAR
100
AcDbPolyline
 90
4
 70
1
 10
23.0429825
 20
69.6
 10
23.842982499999998
 20
69.6
 10
23.842982499999998
 20
70.4
 10
23.0429825
 20
70.4
  0
LWPOLYLINE
  5
251
330
17
100
AcDbEntity
  8
PILLAR
100
AcDbPolyline
 90
4
 70
1
 10
28.393103448275863
 20
10.6
 10
29.19310344827586
 20
10.6
 10
29.19310344827586
 20
11.4
 10
28.393103448275863
 20
11.4
  0
LWPOLYLINE
  5
252
330
17
100
AcDbEntity
  8
PILLAR
100
AcDbPolyline
 90
4
 70
1
 10
28.393103448275863
 20
68.6
 10
29.19310344827586
 20
68.6
 10
29.19310344827586
 20
69.4
 10
28.393103448275863
 20
69.4
  0
LWPOLYLINE
  5
253
330
17
100
AcDbEntity
  8
PILLAR
100
AcDbPolyline
 90
4
 70
1
 10
29.427586206896553
 20
9.6
 10
30.22758620689655
 20
9.6
 10
30.22758620689655
 20
10.4
 10
29.427586206896553
 20
10.4
  0
LWPOLYLINE
  5
254
330
17
100
AcDbEntity
  8
PILLAR
100
AcDbPolyline
 90
4
 70
1
 10
29.427586206896553
 20
69.6
 10
30.22758620689655
 20
69.6
 10
30.22758620689655
 20
70.4
 10
29.427586206896553
 20
70.4
  0
LWPOLYLINE
  5
255
330
17
100
AcDbEntity
  8
PILLAR
100
AcDbPolyline
 90
4
 70
1
 10
31.34547989264181
 20
7.746036103779588
 10
32.14547989264181
 20
7.746036103779588
 10
32.14547989264181
 20
8.546036103779588
 10
31.34547989264181
 20
8.546036103779588
  0
LWPOLYLINE
  5
256
330
17
100
AcDbEntity
  8
PILLAR
100
AcDbPolyline
 90
4
 70
1
 10
31.34547989264181
 20
71.4539638962204
 10
32.14547989264181
 20
71.4539638962204
 10
32.14547989264181
 20
72.25396389622041
 10
31.34547989264181
 20
72.25396389622041
  0
LWPOLYLINE
  5
257
330
17
100
AcDbEntity
  8
PILLAR
100
AcDbPolyline
 90
4
 70
1
 10
33.459649166666665
 20
9.6
 10
34.25964916666666
 20
9.6
 10
34.25964916666666
 20
10.4
 10
33.459649166666665
 20
10.4
  0
LWPOLYLINE
  5
258
330
17
100
AcDbEntity
  8
PILLAR
100
AcDbPolyline
 90
4
 70
1
 10
33.459649166666665
 20
69.6
 10
34.25964916666666
 20
69.6
 10
34.25964916666666
 20
70.4
 10
33.459649166666665
 20
70.4
  0
LWPOLYLINE
  5
259
330
17
100
AcDbEntity
  8
PILLAR
100
AcDbPolyline
 90
4
 70
1
 10
34.6
 20
9.6
 10
35.4
 20
9.6
 10
35.4
 20
10.4
 10
34.6
 20
10.4
  0
LWPOLYLINE
  5
25A
330
17
100
AcDbEntity
  8
PILLAR
100
AcDbPolyline
 90
4
 70
1
 10
34.6
 20
21.6
 10
35.4
 20
21.6
 10
35.4
 20
22.4
 10
34.6
 20
22.4
  0
LWPOLYLINE
  5
25B
330
17
100
AcDbEntity
  8
PILLAR
100
AcDbPolyline
 90
4
 70
1
 10
34.6
 20
27.933333333333334
 10
35.4
 20
27.933333333333334
 10
35.4
 20
28.73333333333333
 10
34.6
 20
28.73333333333333
  0
LWPOLYLINE
  5
25C
330
17
100
AcDbEntity
  8
PILLAR
100
AcDbPolyline
 90
4
 70
1
 10
34.6
 20
33.6
 10
35.4
 20
33.6
 10
35.4
 20
34.4
 10
34.6
 20
34.4
  0
LWPOLYLINE
  5
25D
330
17
100
AcDbEntity
  8
PILLAR
100
AcDbPolyline
 90
4
 70
1
 10
34.6
 20
45.6
 10
35.4
 20
45.6
 10
35.4
 20
46.4
 10
34.6
 20
46.4
  0
LWPOLYLINE
  5
25E
330
17
100
AcDbEntity
  8
PILLAR
100
AcDbPolyline
 90
4
 70
1
 10
34.6
 20
51.266666666666666
 10
35.4
 20
51.266666666666666
 10
35.4
 20
52.06666666666666
 10
34.6
 20
52.06666666666666
  0
LWPOLYLINE
  5
25F
330
17
100
AcDbEntity
  8
PILLAR
100
AcDbPolyline
 90
4
 70
1
 10
34.6
 20
57.6
 10
35.4
 20
57.6
 10
35.4
 20
58.4
 10
34.6
 20
58.4
  0
LWPOLYLINE
  5
260
330
17
100
AcDbEntity
  8
PILLAR
100
AcDbPolyline
 90
4
 70
1
 10
34.6
 20
69.6
 10
35.4
 20
69.6
 10
35.4
 20
70.4
 10
34.6
 20
70.4
  0
LWPOLYLINE
  5
261
330
17
100
AcDbEntity
  8
PILLAR
100
AcDbPolyline
 90
4
 70
1
 10
35.38947366666667
 20
9.6
 10
36.189473666666665
 20
9.6
 10
36.189473666666665
 20
10.4
 10
35.38947366666667
 20
10.4
  0
LWPOLYLINE
  5
262
330
17
100
AcDbEntity
  8
PILLAR
100
AcDbPolyline
 90
4
 70
1
 10
35.38947366666667
 20
69.6
 10
36.189473666666665
 20
69.6
 10
36.189473666666665
 20
70.4
 10
35.38947366666667
 20
70.4
  0
LWPOLYLINE
  5
263
330
17
100
AcDbEntity
  8
PILLAR
100
AcDbPolyline
 90
4
 70
1
 10
45.80614033333334
 20
9.6
 10
46.606140333333336
 20
9.6
 10
46.606140333333336
 20
10.4
 10
45.80614033333334
 20
10.4
  0
LWPOLYLINE
  5
264
330
17
100
AcDbEntity
  8
PILLAR
100
AcDbPolyline
 90
4
 70
1
 10
45.80614033333334
 20
69.6
 10
46.606140333333336
 20
69.6
 10
46.606140333333336
 20
70.4
 10
45.80614033333334
 20
70.4
  0
LWPOLYLINE
  5
265
330
17
100
AcDbEntity
  8
PILLAR
100
AcDbPolyline
 90
4
 70
1
 10
47.1
 20
9.6
 10
47.9
 20
9.6
 10
47.9
 20
10.4
 10
47.1
 20
10.4
  0
LWPOLYLINE
  5
266
330
17
100
AcDbEntity
  8
PILLAR
100
AcDbPolyline
 90
4
 70
1
 10
47.1
 20
21.6
 10
47.9
 20
21.6
 10
47.9
 20
22.4
 10
47.1
 20
22.4
  0
LWPOLYLINE
  5
267
330
17
100
AcDbEntity
  8
PILLAR
100
AcDbPolyline
 90
4
 70
1
 10
47.1
 20
27.933333333333334
 10
47.9
 20
27.933333333333334
 10
47.9
 20
28.73333333333333
 10
47.1
 20
28.73333333333333
  0
LWPOLYLINE
  5
268
330
17
100
AcDbEntity
  8
PILLAR
100
AcDbPolyline
 90
4
 70
1
 10
47.1
 20
33.6
 10
47.9
 20
33.6
 10
47.9
 20
34.4
 10
47.1
 20
34.4
  0
LWPOLYLINE
  5
269
330
17
100
AcDbEntity
  8
PILLAR
100
AcDbPolyline
 90
4
 70
1
 10
47.1
 20
45.6
 10
47.9
 20
45.6
 10
47.9
 20
46.4
 10
47.1
 20
46.4
  0
LWPOLYLINE
  5
26A
330
17
100
AcDbEntity
  8
PILLAR
100
AcDbPolyline
 90
4
 70
1
 10
47.1
 20
51.266666666666666
 10
47.9
 20
51.266666666666666
 10
47.9
 20
52.06666666666666
 10
47.1
 20
52.06666666666666
  0
LWPOLYLINE
  5
26B
330
17
100
AcDbEntity
  8
PILLAR
100
AcDbPolyline
 90
4
 70
1
 10
47.1
 20
57.6
 10
47.9
 20
57.6
 10
47.9
 20
58.4
 10
47.1
 20
58.4
  0
LWPOLYLINE
  5
26C
330
17
100
AcDbEntity
  8
PILLAR
100
AcDbPolyline
 90
4
 70
1
 10
47.1
 20
69.6
 10
47.9
 20
69.6
 10
47.9
 20
70.4
 10
47.1
 20
70.4
  0
LWPOLYLINE
  5
26D
330
17
100
AcDbEntity
  8
PILLAR
100
AcDbPolyline
 90
4
 70
1
 10
47.735964833333334
 20
9.6
 10
48.53596483333333
 20
9.6
 10
48.53596483333333
 20
10.4
 10
47.735964833333334
 20
10.4
  0
LWPOLYLINE
  5
26E
330
17
100
AcDbEntity
  8
PILLAR
100
AcDbPolyline
 90
4
 70
1
 10
47.735964833333334
 20
69.6
 10
48.53596483333333
 20
69.6
 10
48.53596483333333
 20
70.4
 10
47.735964833333334
 20
70.4
  0
LWPOLYLINE
  5
26F
330
17
100
AcDbEntity
  8
PILLAR
100
AcDbPolyline
 90
4
 70
1
 10
58.152631500000005
 20
9.6
 10
58.9526315
 20
9.6
 10
58.9526315
 20
10.4
 10
58.152631500000005
 20
10.4
  0
LWPOLYLINE
  5
270
330
17
100
AcDbEntity
  8
PILLAR
100
AcDbPolyline
 90
4
 70
1
 10
58.152631500000005
 20
69.6
 10
58.9526315
 20
69.6
 10
58.9526315
 20
70.4
 10
58.152631500000005
 20
70.4
  0
LWPOLYLINE
  5
271
330
17
100
AcDbEntity
  8
PILLAR
100
AcDbPolyline
 90
4
 70
1
 10
59.6
 20
9.6
 10
60.4
 20
9.6
 10
60.4
 20
10.4
 10
59.6
 20
10.4
  0
LWPOLYLINE
  5
272
330
17
100
AcDbEntity
  8
PILLAR
100
AcDbPolyline
 90
4
 70
1
 10
59.6
 20
21.6
 10
60.4
 20
21.6
 10
60.4
 20
22.4
 10
59.6
 20
22.4
  0
LWPOLYLINE
  5
273
330
17
100
AcDbEntity
  8
PILLAR
100
AcDbPolyline
 90
4
 70
1
 10
59.6
 20
27.933333333333334
 10
60.4
 20
27.933333333333334
 10
60.4
 20
28.73333333333333
 10
59.6
 20
28.73333333333333
  0
LWPOLYLINE
  5
274
330
17
100
AcDbEntity
  8
PILLAR
100
AcDbPolyline
 90
4
 70
1
 10
59.6
 20
33.6
 10
60.4
 20
33.6
 10
60.4
 20
34.4
 10
59.6
 20
34.4
  0
LWPOLYLINE
  5
275
330
17
100
AcDbEntity
  8
PILLAR
100
AcDbPolyline
 90
4
 70
1
 10
59.6
 20
45.6
 10
60.4
 20
45.6
 10
60.4
 20
46.4
 10
59.6
 20
46.4
  0
LWPOLYLINE
  5
276
330
17
100
AcDbEntity
  8
PILLAR
100
AcDbPolyline
 90
4
 70
1
 10
59.6
 20
51.266666666666666
 10
60.4
 20
51.266666666666666
 10
60.4
 20
52.06666666666666
 10
59.6
 20
52.06666666666666
  0
LWPOLYLINE
  5
277
330
17
100
AcDbEntity
  8
PILLAR
100
AcDbPolyline
 90
4
 70
1
 10
59.6
 20
57.6
 10
60.4
 20
57.6
 10
60.4
 20
58.4
 10
59.6
 20
58.4
  0
LWPOLYLINE
  5
278
330
17
100
AcDbEntity
  8
PILLAR
100
AcDbPolyline
 90
4
 70
1
 10
59.6
 20
69.6
 10
60.4
 20
69.6
 10
60.4
 20
70.4
 10
59.6
 20
70.4
  0
LWPOLYLINE
  5
279
330
17
100
AcDbEntity
  8
PILLAR
100
AcDbPolyline
 90
4
 70
1
 10
61.047368500000005
 20
9.6
 10
61.8473685
 20
9.6
 10
61.8473685
 20
10.4
 10
61.047368500000005
 20
10.4
  0
LWPOLYLINE
  5
27A
330
17
100
AcDbEntity
  8
PILLAR
100
AcDbPolyline
 90
4
 70
1
 10
61.047368500000005
 20
69.6
 10
61.8473685
 20
69.6
 10
61.8473685
 20
70.4
 10
61.047368500000005
 20
70.4
  0
LWPOLYLINE
  5
27B
330
17
100
AcDbEntity
  8
PILLAR
100
AcDbPolyline
 90
4
 70
1
 10
71.46403516666666
 20
9.6
 10
72.26403516666667
 20
9.6
 10
72.26403516666667
 20
10.4
 10
71.46403516666666
 20
10.4
  0
LWPOLYLINE
  5
27C
330
17
100
AcDbEntity
  8
PILLAR
100
AcDbPolyline
 90
4
 70
1
 10
71.46403516666666
 20
69.6
 10
72.26403516666667
 20
69.6
 10
72.26403516666667
 20
70.4
 10
71.46403516666666
 20
70.4
  0
LWPOLYLINE
  5
27D
330
17
100
AcDbEntity
  8
PILLAR
100
AcDbPolyline
 90
4
 70
1
 10
72.1
 20
9.6
 10
72.9
 20
9.6
 10
72.9
 20
10.4
 10
72.1
 20
10.4
  0
LWPOLYLINE
  5
27E
330
17
100
AcDbEntity
  8
PILLAR
100
AcDbPolyline
 90
4
 70
1
 10
72.1
 20
21.6
 10
72.9
 20
21.6
 10
72.9
 20
22.4
 10
72.1
 20
22.4
  0
LWPOLYLINE
  5
27F
330
17
100
AcDbEntity
  8
PILLAR
100
AcDbPolyline
 90
4
 70
1
 10
72.1
 20
27.933333333333334
 10
72.9
 20
27.933333333333334
 10
72.9
 20
28.73333333333333
 10
72.1
 20
28.73333333333333
  0
LWPOLYLINE
  5
280
330
17
100
AcDbEntity
  8
PILLAR
100
AcDbPolyline
 90
4
 70
1
 10
72.1
 20
33.6
 10
72.9
 20
33.6
 10
72.9
 20
34.4
 10
72.1
 20
34.4
  0
LWPOLYLINE
  5
281
330
17
100
AcDbEntity
  8
PILLAR
100
AcDbPolyline
 90
4
 70
1
 10
72.1
 20
45.6
 10
72.9
 20
45.6
 10
72.9
 20
46.4
 10
72.1
 20
46.4
  0
LWPOLYLINE
  5
282
330
17
100
AcDbEntity
  8
PILLAR
100
AcDbPolyline
 90
4
 70
1
 10
72.1
 20
51.266666666666666
 10
72.9
 20
51.266666666666666
 10
72.9
 20
52.06666666666666
 10
72.1
 20
52.06666666666666
  0
LWPOLYLINE
  5
283
330
17
100
AcDbEntity
  8
PILLAR
100
AcDbPolyline
 90
4
 70
1
 10
72.1
 20
57.6
 10
72.9
 20
57.6
 10
72.9
 20
58.4
 10
72.1
 20
58.4
  0
LWPOLYLINE
  5
284
330
17
100
AcDbEntity
  8
PILLAR
100
AcDbPolyline
 90
4
 70
1
 10
72.1
 20
69.6
 10
72.9
 20
69.6
 10
72.9
 20
70.4
 10
72.1
 20
70.4
  0
LWPOLYLINE
  5
285
330
17
100
AcDbEntity
  8
PILLAR
100
AcDbPolyline
 90
4
 70
1
 10
73.39385966666666
 20
9.6
 10
74.19385966666667
 20
9.6
 10
74.19385966666667
 20
10.4
 10
73.39385966666666
 20
10.4
  0
LWPOLYLINE
  5
286
330
17
100
AcDbEntity
  8
PILLAR
100
AcDbPolyline
 90
4
 70
1
 10
73.39385966666666
 20
69.6
 10
74.19385966666667
 20
69.6
 10
74.19385966666667
 20
70.4
 10
73.39385966666666
 20
70.4
  0
LWPOLYLINE
  5
287
330
17
100
AcDbEntity
  8
PILLAR
100
AcDbPolyline
 90
4
 70
1
 10
83.81052633333333
 20
9.6
 10
84.61052633333334
 20
9.6
 10
84.61052633333334
 20
10.4
 10
83.81052633333333
 20
10.4
  0
LWPOLYLINE
  5
288
330
17
100
AcDbEntity
  8
PILLAR
100
AcDbPolyline
 90
4
 70
1
 10
83.81052633333333
 20
69.6
 10
84.61052633333334
 20
69.6
 10
84.61052633333334
 20
70.4
 10
83.81052633333333
 20
70.4
  0
LWPOLYLINE
  5
289
330
17
100
AcDbEntity
  8
PILLAR
100
AcDbPolyline
 90
4
 70
1
 10
84.6
 20
9.6
 10
85.4
 20
9.6
 10
85.4
 20
10.4
 10
84.6
 20
10.4
  0
LWPOLYLINE
  5
28A
330
17
100
AcDbEntity
  8
PILLAR
100
AcDbPolyline
 90
4
 70
1
 10
84.6
 20
21.6
 10
85.4
 20
21.6
 10
85.4
 20
22.4
 10
84.6
 20
22.4
  0
LWPOLYLINE
  5
28B
330
17
100
AcDbEntity
  8
PILLAR
100
AcDbPolyline
 90
4
 70
1
 10
84.6
 20
27.933333333333334
 10
85.4
 20
27.933333333333334
 10
85.4
 20
28.73333333333333
 10
84.6
 20
28.73333333333333
  0
LWPOLYLINE
  5
28C
330
17
100
AcDbEntity
  8
PILLAR
100
AcDbPolyline
 90
4
 70
1
 10
84.6
 20
33.6
 10
85.4
 20
33.6
 10
85.4
 20
34.4
 10
84.6
 20
34.4
  0
LWPOLYLINE
  5
28D
330
17
100
AcDbEntity
  8
PILLAR
100
AcDbPolyline
 90
4
 70
1
 10
84.6
 20
45.6
 10
85.4
 20
45.6
 10
85.4
 20
46.4
 10
84.6
 20
46.4
  0
LWPOLYLINE
  5
28E
330
17
100
AcDbEntity
  8
PILLAR
100
AcDbPolyline
 90
4
 70
1
 10
84.6
 20
51.266666666666666
 10
85.4
 20
51.266666666666666
 10
85.4
 20
52.06666666666666
 10
84.6
 20
52.06666666666666
  0
LWPOLYLINE
  5
28F
330
17
100
AcDbEntity
  8
PILLAR
100
AcDbPolyline
 90
4
 70
1
 10
84.6
 20
57.6
 10
85.4
 20
57.6
 10
85.4
 20
58.4
 10
84.6
 20
58.4
  0
LWPOLYLINE
  5
290
330
17
100
AcDbEntity
  8
PILLAR
100
AcDbPolyline
 90
4
 70
1
 10
84.6
 20
69.6
 10
85.4
 20
69.6
 10
85.4
 20
70.4
 10
84.6
 20
70.4
  0
LWPOLYLINE
  5
291
330
17
100
AcDbEntity
  8
PILLAR
100
AcDbPolyline
 90
4
 70
1
 10
85.74035083333332
 20
9.6
 10
86.54035083333333
 20
9.6
 10
86.54035083333333
 20
10.4
 10
85.74035083333332
 20
10.4
  0
LWPOLYLINE
  5
292
330
17
100
AcDbEntity
  8
PILLAR
100
AcDbPolyline
 90
4
 70
1
 10
85.74035083333332
 20
69.6
 10
86.54035083333333
 20
69.6
 10
86.54035083333333
 20
70.4
 10
85.74035083333332
 20
70.4
  0
LWPOLYLINE
  5
293
330
17
100
AcDbEntity
  8
PILLAR
100
AcDbPolyline
 90
4
 70
1
 10
87.85452010735818
 20
7.746036103779588
 10
88.6545201073582
 20
7.746036103779588
 10
88.6545201073582
 20
8.546036103779588
 10
87.85452010735818
 20
8.546036103779588
  0
LWPOLYLINE
  5
294
330
17
100
AcDbEntity
  8
PILLAR
100
AcDbPolyline
 90
4
 70
1
 10
87.85452010735818
 20
71.4539638962204
 10
88.6545201073582
 20
71.4539638962204
 10
88.6545201073582
 20
72.25396389622041
 10
87.85452010735818
 20
72.25396389622041
  0
LWPOLYLINE
  5
295
330
17
100
AcDbEntity
  8
PILLAR
100
AcDbPolyline
 90
4
 70
1
 10
89.77241379310344
 20
9.6
 10
90.57241379310345
 20
9.6
 10
90.57241379310345
 20
10.4
 10
89.77241379310344
 20
10.4
  0
LWPOLYLINE
  5
296
330
17
100
AcDbEntity
  8
PILLAR
100
AcDbPolyline
 90
4
 70
1
 10
89.77241379310344
 20
69.6
 10
90.57241379310345
 20
69.6
 10
90.57241379310345
 20
70.4
 10
89.77241379310344
 20
70.4
  0
LWPOLYLINE
  5
297
330
17
100
AcDbEntity
  8
PILLAR
100
AcDbPolyline
 90
4
 70
1
 10
90.80689655172414
 20
10.6
 10
91.60689655172415
 20
10.6
 10
91.60689655172415
 20
11.4
 10
90.80689655172414
 20
11.4
  0
LWPOLYLINE
  5
298
330
17
100
AcDbEntity
  8
PILLAR
100
AcDbPolyline
 90
4
 70
1
 10
90.80689655172414
 20
68.6
 10
91.60689655172415
 20
68.6
 10
91.60689655172415
 20
69.4
 10
90.80689655172414
 20
69.4
  0
LWPOLYLINE
  5
299
330
17
100
AcDbEntity
  8
PILLAR
100
AcDbPolyline
 90
4
 70
1
 10
96.1570175
 20
9.6
 10
96.9570175
 20
9.6
 10
96.9570175
 20
10.4
 10
96.1570175
 20
10.4
  0
LWPOLYLINE
  5
29A
330
17
100
AcDbEntity
  8
PILLAR
100
AcDbPolyline
 90
4
 70
1
 10
96.1570175
 20
69.6
 10
96.9570175
 20
69.6
 10
96.9570175
 20
70.4
 10
96.1570175
 20
70.4
  0
LWPOLYLINE
  5
29B
330
17
100
AcDbEntity
  8
PILLAR
100
AcDbPolyline
 90
4
 70
1
 10
96.40451114232009
 20
9.6
 10
97.2045111423201
 20
9.6
 10
97.2045111423201
 20
10.4
 10
96.40451114232009
 20
10.4
  0
LWPOLYLINE
  5
29C
330
17
100
AcDbEntity
  8
PILLAR
100
AcDbPolyline
 90
4
 70
1
 10
96.40451114232009
 20
69.6
 10
97.2045111423201
 20
69.6
 10
97.2045111423201
 20
70.4
 10
96.40451114232009
 20
70.4
  0
LWPOLYLINE
  5
29D
330
17
100
AcDbEntity
  8
PILLAR
100
AcDbPolyline
 90
4
 70
1
 10
97.1
 20
9.6
 10
97.9
 20
9.6
 10
97.9
 20
10.4
 10
97.1
 20
10.4
  0
LWPOLYLINE
  5
29E
330
17
100
AcDbEntity
  8
PILLAR
100
AcDbPolyline
 90
4
 70
1
 10
97.1
 20
10.300757694688352
 10
97.9
 20
10.300757694688352
 10
97.9
 20
11.100757694688353
 10
97.1
 20
11.100757694688353
  0
LWPOLYLINE
  5
29F
330
17
100
AcDbEntity
  8
PILLAR
100
AcDbPolyline
 90
4
 70
1
 10
97.1
 20
16.683333333333334
 10
97.9
 20
16.683333333333334
 10
97.9
 20
17.48333333333333
 10
97.1
 20
17.48333333333333
  0
LWPOLYLINE
  5
2A0
330
17
100
AcDbEntity
  8
PILLAR
100
AcDbPolyline
 90
4
 70
1
 10
97.1
 20
21.6
 10
97.9
 20
21.6
 10
97.9
 20
22.4
 10
97.1
 20
22.4
  0
LWPOLYLINE
  5
2A1
330
17
100
AcDbEntity
  8
PILLAR
100
AcDbPolyline
 90
4
 70
1
 10
97.1
 20
27.933333333333334
 10
97.9
 20
27.933333333333334
 10
97.9
 20
28.73333333333333
 10
97.1
 20
28.73333333333333
  0
LWPOLYLINE
  5
2A2
330
17
100
AcDbEntity
  8
PILLAR
100
AcDbPolyline
 90
4
 70
1
 10
97.1
 20
33.6
 10
97.9
 20
33.6
 10
97.9
 20
34.4
 10
97.1
 20
34.4
  0
LWPOLYLINE
  5
2A3
330
17
100
AcDbEntity
  8
PILLAR
100
AcDbPolyline
 90
4
 70
1
 10
97.1
 20
45.6
 10
97.9
 20
45.6
 10
97.9
 20
46.4
 10
97.1
 20
46.4
  0
LWPOLYLINE
  5
2A4
330
17
100
AcDbEntity
  8
PILLAR
100
AcDbPolyline
 90
4
 70
1
 10
97.1
 20
51.266666666666666
 10
97.9
 20
51.266666666666666
 10
97.9
 20
52.06666666666666
 10
97.1
 20
52.06666666666666
  0
LWPOLYLINE
  5
2A5
330
17
100
AcDbEntity
  8
PILLAR
100
AcDbPolyline
 90
4
 70
1
 10
97.1
 20
57.6
 10
97.9
 20
57.6
 10
97.9
 20
58.4
 10
97.1
 20
58.4
  0
LWPOLYLINE
  5
2A6
330
17
100
AcDbEntity
  8
PILLAR
100
AcDbPolyline
 90
4
 70
1
 10
97.1
 20
62.516666666666666
 10
97.9
 20
62.516666666666666
 10
97.9
 20
63.31666666666666
 10
97.1
 20
63.31666666666666
  0
LWPOLYLINE
  5
2A7
330
17
100
AcDbEntity
  8
PILLAR
100
AcDbPolyline
 90
4
 70
1
 10
97.1
 20
68.89924230531165
 10
97.9
 20
68.89924230531165
 10
97.9
 20
69.69924230531166
 10
97.1
 20
69.69924230531166
  0
LWPOLYLINE
  5
2A8
330
17
100
AcDbEntity
  8
PILLAR
100
AcDbPolyline
 90
4
 70
1
 10
97.1
 20
69.6
 10
97.9
 20
69.6
 10
97.9
 20
70.4
 10
97.1
 20
70.4
  0
LWPOLYLINE
  5
2A9
330
17
100
AcDbEntity
  8
PILLAR
100
AcDbPolyline
 90
4
 70
1
 10
97.24807312205225
 20
10.449952578990004
 10
98.04807312205226
 20
10.449952578990004
 10
98.04807312205226
 20
11.249952578990005
 10
97.24807312205225
 20
11.249952578990005
  0
LWPOLYLINE
  5
2AA
330
17
100
AcDbEntity
  8
PILLAR
100
AcDbPolyline
 90
4
 70
1
 10
97.24807312205225
 20
68.75004742101
 10
98.04807312205226
 20
68.75004742101
 10
98.04807312205226
 20
69.55004742101
 10
97.24807312205225
 20
69.55004742101
  0
LWPOLYLINE
  5
2AB
330
17
100
AcDbEntity
  8
PILLAR
100
AcDbPolyline
 90
4
 70
1
 10
97.3969923707841
 20
10.6
 10
98.19699237078412
 20
10.6
 10
98.19699237078412
 20
11.4
 10
97.3969923707841
 20
11.4
  0
LWPOLYLINE
  5
2AC
330
17
100
AcDbEntity
  8
PILLAR
100
AcDbPolyline
 90
4
 70
1
 10
97.3969923707841
 20
68.6
 10
98.19699237078412
 20
68.6
 10
98.19699237078412
 20
69.4
 10
97.3969923707841
 20
69.4
  0
LWPOLYLINE
  5
2AD
330
17
100
AcDbEntity
  8
PILLAR
100
AcDbPolyline
 90
4
 70
1
 10
98.08684216666666
 20
9.6
 10
98.88684216666667
 20
9.6
 10
98.88684216666667
 20
10.4
 10
98.08684216666666
 20
10.4
  0
LWPOLYLINE
  5
2AE
330
17
100
AcDbEntity
  8
PILLAR
100
AcDbPolyline
 90
4
 70
1
 10
98.08684216666666
 20
69.6
 10
98.88684216666667
 20
69.6
 10
98.88684216666667
 20
70.4
 10
98.08684216666666
 20
70.4
  0
LWPOLYLINE
  5
2AF
330
17
100
AcDbEntity
  8
PILLAR
100
AcDbPolyline
 90
4
 70
1
 10
100.12303272559413
 20
7.536660362005737
 10
100.92303272559414
 20
7.536660362005737
 10
100.92303272559414
 20
8.336660362005738
 10
100.12303272559413
 20
8.336660362005738
  0
LWPOLYLINE
  5
2B0
330
17
100
AcDbEntity
  8
PILLAR
100
AcDbPolyline
 90
4
 70
1
 10
100.12303272559413
 20
71.66333963799426
 10
100.92303272559414
 20
71.66333963799426
 10
100.92303272559414
 20
72.46333963799427
 10
100.12303272559413
 20
72.46333963799427
  0
LWPOLYLINE
  5
2B1
330
17
100
AcDbEntity
  8
PILLAR
100
AcDbPolyline
 90
4
 70
1
 10
102.18620689655172
 20
21.6
 10
102.98620689655174
 20
21.6
 10
102.98620689655174
 20
22.4
 10
102.18620689655172
 20
22.4
  0
LWPOLYLINE
  5
2B2
330
17
100
AcDbEntity
  8
PILLAR
100
AcDbPolyline
 90
4
 70
1
 10
102.18620689655172
 20
57.6
 10
102.98620689655174
 20
57.6
 10
102.98620689655174
 20
58.4
 10
102.18620689655172
 20
58.4
  0
LWPOLYLINE
  5
2B3
330
17
100
AcDbEntity
  8
PILLAR
100
AcDbPolyline
 90
4
 70
1
 10
102.2470588235294
 20
9.6
 10
103.04705882352941
 20
9.6
 10
103.04705882352941
 20
10.4
 10
102.2470588235294
 20
10.4
  0
LWPOLYLINE
  5
2B4
330
17
100
AcDbEntity
  8
PILLAR
100
AcDbPolyline
 90
4
 70
1
 10
102.2470588235294
 20
69.6
 10
103.04705882352941
 20
69.6
 10
103.04705882352941
 20
70.4
 10
102.2470588235294
 20
70.4
  0
LWPOLYLINE
  5
2B5
330
17
100
AcDbEntity
  8
PILLAR
100
AcDbPolyline
 90
4
 70
1
 10
103.27647058823528
 20
10.6
 10
104.0764705882353
 20
10.6
 10
104.0764705882353
 20
11.4
 10
103.27647058823528
 20
11.4
  0
LWPOLYLINE
  5
2B6
330
17
100
AcDbEntity
  8
PILLAR
100
AcDbPolyline
 90
4
 70
1
 10
103.27647058823528
 20
68.6
 10
104.0764705882353
 20
68.6
 10
104.0764705882353
 20
69.4
 10
103.27647058823528
 20
69.4
  0
LWPOLYLINE
  5
2B7
330
17
100
AcDbEntity
  8
PILLAR
100
AcDbPolyline
 90
4
 70
1
 10
108.31428588388829
 20
21.6
 10
109.1142858838883
 20
21.6
 10
109.1142858838883
 20
22.4
 10
108.31428588388829
 20
22.4
  0
LWPOLYLINE
  5
2B8
330
17
100
AcDbEntity
  8
PILLAR
100
AcDbPolyline
 90
4
 70
1
 10
108.31428588388829
 20
57.6
 10
109.1142858838883
 20
57.6
 10
109.1142858838883
 20
58.4
 10
108.31428588388829
 20
58.4
  0
LWPOLYLINE
  5
2B9
330
17
100
AcDbEntity
  8
PILLAR
100
AcDbPolyline
 90
4
 70
1
 10
108.50350883333333
 20
9.6
 10
109.30350883333334
 20
9.6
 10
109.30350883333334
 20
10.4
 10
108.50350883333333
 20
10.4
  0
LWPOLYLINE
  5
2BA
330
17
100
AcDbEntity
  8
PILLAR
100
AcDbPolyline
 90
4
 70
1
 10
108.50350883333333
 20
69.6
 10
109.30350883333334
 20
69.6
 10
109.30350883333334
 20
70.4
 10
108.50350883333333
 20
70.4
  0
LWPOLYLINE
  5
2BB
330
17
100
AcDbEntity
  8
PILLAR
100
AcDbPolyline
 90
4
 70
1
 10
108.6
 20
9.687999948927997
 10
109.4
 20
9.687999948927997
 10
109.4
 20
10.487999948927998
 10
108.6
 20
10.487999948927998
  0
LWPOLYLINE
  5
2BC
330
17
100
AcDbEntity
  8
PILLAR
100
AcDbPolyline
 90
4
 70
1
 10
108.6
 20
10.6
 10
109.4
 20
10.6
 10
109.4
 20
11.4
 10
108.6
 20
11.4
  0
LWPOLYLINE
  5
2BD
330
17
100
AcDbEntity
  8
PILLAR
100
AcDbPolyline
 90
4
 70
1
 10
108.6
 20
15.77142857142857
 10
109.4
 20
15.77142857142857
 10
109.4
 20
16.57142857142857
 10
108.6
 20
16.57142857142857
  0
LWPOLYLINE
  5
2BE
330
17
100
AcDbEntity
  8
PILLAR
100
AcDbPolyline
 90
4
 70
1
 10
108.6
 20
21.887878609607437
 10
109.4
 20
21.887878609607437
 10
109.4
 20
22.687878609607434
 10
108.6
 20
22.687878609607434
  0
LWPOLYLINE
  5
2BF
330
17
100
AcDbEntity
  8
PILLAR
100
AcDbPolyline
 90
4
 70
1
 10
108.6
 20
27.8
 10
109.4
 20
27.8
 10
109.4
 20
28.599999999999998
 10
108.6
 20
28.599999999999998
  0
LWPOLYLINE
  5
2C0
330
17
100
AcDbEntity
  8
PILLAR
100
AcDbPolyline
 90
4
 70
1
 10
108.6
 20
51.4
 10
109.4
 20
51.4
 10
109.4
 20
52.199999999999996
 10
108.6
 20
52.199999999999996
  0
LWPOLYLINE
  5
2C1
330
17
100
AcDbEntity
  8
PILLAR
100
AcDbPolyline
 90
4
 70
1
 10
108.6
 20
57.31212139039256
 10
109.4
 20
57.31212139039256
 10
109.4
 20
58.11212139039256
 10
108.6
 20
58.11212139039256
  0
LWPOLYLINE
  5
2C2
330
17
100
AcDbEntity
  8
PILLAR
100
AcDbPolyline
 90
4
 70
1
 10
108.6
 20
63.42857142857143
 10
109.4
 20
63.42857142857143
 10
109.4
 20
64.22857142857143
 10
108.6
 20
64.22857142857143
  0
LWPOLYLINE
  5
2C3
330
17
100
AcDbEntity
  8
PILLAR
100
AcDbPolyline
 90
4
 70
1
 10
108.6
 20
68.6
 10
109.4
 20
68.6
 10
109.4
 20
69.4
 10
108.6
 20
69.4
  0
LWPOLYLINE
  5
2C4
330
17
100
AcDbEntity
  8
PILLAR
100
AcDbPolyline
 90
4
 70
1
 10
108.6
 20
69.512000051072
 10
109.4
 20
69.512000051072
 10
109.4
 20
70.312000051072
 10
108.6
 20
70.312000051072
  0
LWPOLYLINE
  5
2C5
330
17
100
AcDbEntity
  8
PILLAR
100
AcDbPolyline
 90
4
 70
1
 10
108.73793103448276
 20
27.933333333333334
 10
109.53793103448277
 20
27.933333333333334
 10
109.53793103448277
 20
28.73333333333333
 10
108.73793103448276
 20
28.73333333333333
  0
LWPOLYLINE
  5
2C6
330
17
100
AcDbEntity
  8
PILLAR
100
AcDbPolyline
 90
4
 70
1
 10
108.73793103448276
 20
51.266666666666666
 10
109.53793103448277
 20
51.266666666666666
 10
109.53793103448277
 20
52.06666666666666
 10
108.73793103448276
 20
52.06666666666666
  0
LWPOLYLINE
  5
2C7
330
17
100
AcDbEntity
  8
PILLAR
100
AcDbPolyline
 90
4
 70
1
 10
109.0419640192622
 20
10.091071157067105
 10
109.8419640192622
 20
10.091071157067105
 10
109.8419640192622
 20
10.891071157067106
 10
109.0419640192622
 20
10.891071157067106
  0
LWPOLYLINE
  5
2C8
330
17
100
AcDbEntity
  8
PILLAR
100
AcDbPolyline
 90
4
 70
1
 10
109.0419640192622
 20
69.10892884293288
 10
109.8419640192622
 20
69.10892884293288
 10
109.8419640192622
 20
69.9089288429329
 10
109.0419640192622
 20
69.9089288429329
  0
LWPOLYLINE
  5
2C9
330
17
100
AcDbEntity
  8
PILLAR
100
AcDbPolyline
 90
4
 70
1
 10
109.49999995499999
 20
10.6
 10
110.299999955
 20
10.6
 10
110.299999955
 20
11.4
 10
109.49999995499999
 20
11.4
  0
LWPOLYLINE
  5
2CA
330
17
100
AcDbEntity
  8
PILLAR
100
AcDbPolyline
 90
4
 70
1
 10
109.49999995499999
 20
68.6
 10
110.299999955
 20
68.6
 10
110.299999955
 20
69.4
 10
109.49999995499999
 20
69.4
  0
LWPOLYLINE
  5
2CB
330
17
100
AcDbEntity
  8
PILLAR
100
AcDbPolyline
 90
4
 70
1
 10
109.6
 20
8.766666666666666
 10
110.4
 20
8.766666666666666
 10
110.4
 20
9.566666666666666
 10
109.6
 20
9.566666666666666
  0
LWPOLYLINE
  5
2CC
330
17
100
AcDbEntity
  8
PILLAR
100
AcDbPolyline
 90
4
 70
1
 10
109.6
 20
9.6
 10
110.4
 20
9.6
 10
110.4
 20
10.4
 10
109.6
 20
10.4
  0
LWPOLYLINE
  5
2CD
330
17
100
AcDbEntity
  8
PILLAR
100
AcDbPolyline
 90
4
 70
1
 10
109.6
 20
10.711111166666667
 10
110.4
 20
10.711111166666667
 10
110.4
 20
11.511111166666668
 10
109.6
 20
11.511111166666668
  0
LWPOLYLINE
  5
2CE
330
17
100
AcDbEntity
  8
PILLAR
100
AcDbPolyline
 90
4
 70
1
 10
109.6
 20
16.742857142857144
 10
110.4
 20
16.742857142857144
 10
110.4
 20
17.54285714285714
 10
109.6
 20
17.54285714285714
  0
LWPOLYLINE
  5
2CF
330
17
100
AcDbEntity
  8
PILLAR
100
AcDbPolyline
 90
4
 70
1
 10
109.6
 20
20.71111116666667
 10
110.4
 20
20.71111116666667
 10
110.4
 20
21.511111166666666
 10
109.6
 20
21.511111166666666
  0
LWPOLYLINE
  5
2D0
330
17
100
AcDbEntity
  8
PILLAR
100
AcDbPolyline
 90
4
 70
1
 10
109.6
 20
21.6
 10
110.4
 20
21.6
 10
110.4
 20
22.4
 10
109.6
 20
22.4
  0
LWPOLYLINE
  5
2D1
330
17
100
AcDbEntity
  8
PILLAR
100
AcDbPolyline
 90
4
 70
1
 10
109.6
 20
22.655555500000002
 10
110.4
 20
22.655555500000002
 10
110.4
 20
23.4555555
 10
109.6
 20
23.4555555
  0
LWPOLYLINE
  5
2D2
330
17
100
AcDbEntity
  8
PILLAR
100
AcDbPolyline
 90
4
 70
1
 10
109.6
 20
22.89545434133953
 10
110.4
 20
22.89545434133953
 10
110.4
 20
23.695454341339527
 10
109.6
 20
23.695454341339527
  0
LWPOLYLINE
  5
2D3
330
17
100
AcDbEntity
  8
PILLAR
100
AcDbPolyline
 90
4
 70
1
 10
109.6
 20
27.933333333333334
 10
110.4
 20
27.933333333333334
 10
110.4
 20
28.73333333333333
 10
109.6
 20
28.73333333333333
  0
LWPOLYLINE
  5
2D4
330
17
100
AcDbEntity
  8
PILLAR
100
AcDbPolyline
 90
4
 70
1
 10
109.6
 20
28.76666666666667
 10
110.4
 20
28.76666666666667
 10
110.4
 20
29.566666666666666
 10
109.6
 20
29.566666666666666
  0
LWPOLYLINE
  5
2D5
330
17
100
AcDbEntity
  8
PILLAR
100
AcDbPolyline
 90
4
 70
1
 10
109.6
 20
32.6555555
 10
110.4
 20
32.6555555
 10
110.4
 20
33.455555499999996
 10
109.6
 20
33.455555499999996
  0
LWPOLYLINE
  5
2D6
330
17
100
AcDbEntity
  8
PILLAR
100
AcDbPolyline
 90
4
 70
1
 10
109.6
 20
33.6
 10
110.4
 20
33.6
 10
110.4
 20
34.4
 10
109.6
 20
34.4
  0
LWPOLYLINE
  5
2D7
330
17
100
AcDbEntity
  8
PILLAR
100
AcDbPolyline
 90
4
 70
1
 10
109.6
 20
34.6
 10
110.4
 20
34.6
 10
110.4
 20
35.4
 10
109.6
 20
35.4
  0
LWPOLYLINE
  5
2D8
330
17
100
AcDbEntity
  8
PILLAR
100
AcDbPolyline
 90
4
 70
1
 10
109.6
 20
44.6
 10
110.4
 20
44.6
 10
110.4
 20
45.4
 10
109.6
 20
45.4
  0
LWPOLYLINE
  5
2D9
330
17
100
AcDbEntity
  8
PILLAR
100
AcDbPolyline
 90
4
 70
1
 10
109.6
 20
45.6
 10
110.4
 20
45.6
 10
110.4
 20
46.4
 10
109.6
 20
46.4
  0
LWPOLYLINE
  5
2DA
330
17
100
AcDbEntity
  8
PILLAR
100
AcDbPolyline
 90
4
 70
1
 10
109.6
 20
46.544444500000004
 10
110.4
 20
46.544444500000004
 10
110.4
 20
47.3444445
 10
109.6
 20
47.3444445
  0
LWPOLYLINE
  5
2DB
330
17
100
AcDbEntity
  8
PILLAR
100
AcDbPolyline
 90
4
 70
1
 10
109.6
 20
50.43333333333334
 10
110.4
 20
50.43333333333334
 10
110.4
 20
51.233333333333334
 10
109.6
 20
51.233333333333334
  0
LWPOLYLINE
  5
2DC
330
17
100
AcDbEntity
  8
PILLAR
100
AcDbPolyline
 90
4
 70
1
 10
109.6
 20
51.266666666666666
 10
110.4
 20
51.266666666666666
 10
110.4
 20
52.06666666666666
 10
109.6
 20
52.06666666666666
  0
LWPOLYLINE
  5
2DD
330
17
100
AcDbEntity
  8
PILLAR
100
AcDbPolyline
 90
4
 70
1
 10
109.6
 20
56.30454565866047
 10
110.4
 20
56.30454565866047
 10
110.4
 20
57.10454565866047
 10
109.6
 20
57.10454565866047
  0
LWPOLYLINE
  5
2DE
330
17
100
AcDbEntity
  8
PILLAR
100
AcDbPolyline
 90
4
 70
1
 10
109.6
 20
56.544444500000004
 10
110.4
 20
56.544444500000004
 10
110.4
 20
57.3444445
 10
109.6
 20
57.3444445
  0
LWPOLYLINE
  5
2DF
330
17
100
AcDbEntity
  8
PILLAR
100
AcDbPolyline
 90
4
 70
1
 10
109.6
 20
57.6
 10
110.4
 20
57.6
 10
110.4
 20
58.4
 10
109.6
 20
58.4
  0
LWPOLYLINE
  5
2E0
330
17
100
AcDbEntity
  8
PILLAR
100
AcDbPolyline
 90
4
 70
1
 10
109.6
 20
58.488888833333334
 10
110.4
 20
58.488888833333334
 10
110.4
 20
59.28888883333333
 10
109.6
 20
59.28888883333333
  0
LWPOLYLINE
  5
2E1
330
17
100
AcDbEntity
  8
PILLAR
100
AcDbPolyline
 90
4
 70
1
 10
109.6
 20
62.457142857142856
 10
110.4
 20
62.457142857142856
 10
110.4
 20
63.25714285714285
 10
109.6
 20
63.25714285714285
  0
LWPOLYLINE
  5
2E2
330
17
100
AcDbEntity
  8
PILLAR
100
AcDbPolyline
 90
4
 70
1
 10
109.6
 20
68.48888883333333
 10
110.4
 20
68.48888883333333
 10
110.4
 20
69.28888883333335
 10
109.6
 20
69.28888883333335
  0
LWPOLYLINE
  5
2E3
330
17
100
AcDbEntity
  8
PILLAR
100
AcDbPolyline
 90
4
 70
1
 10
109.6
 20
69.6
 10
110.4
 20
69.6
 10
110.4
 20
70.4
 10
109.6
 20
70.4
  0
LWPOLYLINE
  5
2E4
330
17
100
AcDbEntity
  8
PILLAR
100
AcDbPolyline
 90
4
 70
1
 10
109.6
 20
70.43333333333332
 10
110.4
 20
70.43333333333332
 10
110.4
 20
71.23333333333333
 10
109.6
 20
71.23333333333333
  0
LWPOLYLINE
  5
2E5
330
17
100
AcDbEntity
  8
PILLAR
100
AcDbPolyline
 90
4
 70
1
 10
110.43333333333332
 20
9.6
 10
111.23333333333333
 20
9.6
 10
111.23333333333333
 20
10.4
 10
110.43333333333332
 20
10.4
  0
LWPOLYLINE
  5
2E6
330
17
100
AcDbEntity
  8
PILLAR
100
AcDbPolyline
 90
4
 70
1
 10
110.43333333333332
 20
69.6
 10
111.23333333333333
 20
69.6
 10
111.23333333333333
 20
70.4
 10
110.43333333333332
 20
70.4
  0
LWPOLYLINE
  5
2E7
330
17
100
AcDbEntity
  8
PILLAR
100
AcDbPolyline
 90
4
 70
1
 10
111.63488363270686
 20
30.73372084494998
 10
112.43488363270687
 20
30.73372084494998
 10
112.43488363270687
 20
31.533720844949976
 10
111.63488363270686
 20
31.533720844949976
  0
LWPOLYLINE
  5
2E8
330
17
100
AcDbEntity
  8
PILLAR
100
AcDbPolyline
 90
4
 70
1
 10
111.63488363270686
 20
48.466279155050024
 10
112.43488363270687
 20
48.466279155050024
 10
112.43488363270687
 20
49.26627915505002
 10
111.63488363270686
 20
49.26627915505002
  0
LWPOLYLINE
  5
2E9
330
17
100
AcDbEntity
  8
PILLAR
100
AcDbPolyline
 90
4
 70
1
 10
111.73310589561322
 20
18.81501715573857
 10
112.53310589561323
 20
18.81501715573857
 10
112.53310589561323
 20
19.615017155738567
 10
111.73310589561322
 20
19.615017155738567
  0
LWPOLYLINE
  5
2EA
330
17
100
AcDbEntity
  8
PILLAR
100
AcDbPolyline
 90
4
 70
1
 10
111.73310589561322
 20
60.38498284426144
 10
112.53310589561323
 20
60.38498284426144
 10
112.53310589561323
 20
61.184982844261434
 10
111.73310589561322
 20
61.184982844261434
  0
CIRCLE
  5
2EB
330
17
100
AcDbEntity
  8
DEBUG_NODE
100
AcDbCircle
 10
5.0
 20
5.0
 30
0.0
 40
0.12
  0
CIRCLE
  5
2EC
330
17
100
AcDbEntity
  8
DEBUG_NODE
100
AcDbCircle
 10
10.0
 20
5.0
 30
0.0
 40
0.12
  0
CIRCLE
  5
2ED
330
17
100
AcDbEntity
  8
DEBUG_NODE
100
AcDbCircle
 10
10.0
 20
75.0
 30
0.0
 40
0.12
  0
CIRCLE
  5
2EE
330
17
100
AcDbEntity
  8
DEBUG_NODE
100
AcDbCircle
 10
22.5
 20
5.0
 30
0.0
 40
0.12
  0
CIRCLE
  5
2EF
330
17
100
AcDbEntity
  8
DEBUG_NODE
100
AcDbCircle
 10
22.5
 20
75.0
 30
0.0
 40
0.12
  0
CIRCLE
  5
2F0
330
17
100
AcDbEntity
  8
DEBUG_NODE
100
AcDbCircle
 10
35.0
 20
5.0
 30
0.0
 40
0.12
  0
CIRCLE
  5
2F1
330
17
100
AcDbEntity
  8
DEBUG_NODE
100
AcDbCircle
 10
35.0
 20
75.0
 30
0.0
 40
0.12
  0
CIRCLE
  5
2F2
330
17
100
AcDbEntity
  8
DEBUG_NODE
100
AcDbCircle
 10
47.5
 20
5.0
 30
0.0
 40
0.12
  0
CIRCLE
  5
2F3
330
17
100
AcDbEntity
  8
DEBUG_NODE
100
AcDbCircle
 10
47.5
 20
75.0
 30
0.0
 40
0.12
  0
CIRCLE
  5
2F4
330
17
100
AcDbEntity
  8
DEBUG_NODE
100
AcDbCircle
 10
60.0
 20
5.0
 30
0.0
 40
0.12
  0
CIRCLE
  5
2F5
330
17
100
AcDbEntity
  8
DEBUG_NODE
100
AcDbCircle
 10
60.0
 20
75.0
 30
0.0
 40
0.12
  0
CIRCLE
  5
2F6
330
17
100
AcDbEntity
  8
DEBUG_NODE
100
AcDbCircle
 10
72.5
 20
5.0
 30
0.0
 40
0.12
  0
CIRCLE
  5
2F7
330
17
100
AcDbEntity
  8
DEBUG_NODE
100
AcDbCircle
 10
72.5
 20
75.0
 30
0.0
 40
0.12
  0
CIRCLE
  5
2F8
330
17
100
AcDbEntity
  8
DEBUG_NODE
100
AcDbCircle
 10
85.0
 20
5.0
 30
0.0
 40
0.12
  0
CIRCLE
  5
2F9
330
17
100
AcDbEntity
  8
DEBUG_NODE
100
AcDbCircle
 10
85.0
 20
75.0
 30
0.0
 40
0.12
  0
CIRCLE
  5
2FA
330
17
100
AcDbEntity
  8
DEBUG_NODE
100
AcDbCircle
 10
97.5
 20
5.0
 30
0.0
 40
0.12
  0
CIRCLE
  5
2FB
330
17
100
AcDbEntity
  8
DEBUG_NODE
100
AcDbCircle
 10
97.5
 20
75.0
 30
0.0
 40
0.12
  0
CIRCLE
  5
2FC
330
17
100
AcDbEntity
  8
DEBUG_NODE
100
AcDbCircle
 10
110.0
 20
5.0
 30
0.0
 40
0.12
  0
CIRCLE
  5
2FD
330
17
100
AcDbEntity
  8
DEBUG_NODE
100
AcDbCircle
 10
110.0
 20
75.0
 30
0.0
 40
0.12
  0
CIRCLE
  5
2FE
330
17
100
AcDbEntity
  8
DEBUG_NODE
100
AcDbCircle
 10
5.0
 20
10.0
 30
0.0
 40
0.12
  0
CIRCLE
  5
2FF
330
17
100
AcDbEntity
  8
DEBUG_NODE
100
AcDbCircle
 10
115.0
 20
10.0
 30
0.0
 40
0.12
  0
CIRCLE
  5
300
330
17
100
AcDbEntity
  8
DEBUG_NODE
100
AcDbCircle
 10
5.0
 20
22.0
 30
0.0
 40
0.12
  0
CIRCLE
  5
301
330
17
100
AcDbEntity
  8
DEBUG_NODE
100
AcDbCircle
 10
115.0
 20
22.0
 30
0.0
 40
0.12
  0
CIRCLE
  5
302
330
17
100
AcDbEntity
  8
DEBUG_NODE
100
AcDbCircle
 10
5.0
 20
34.0
 30
0.0
 40
0.12
  0
CIRCLE
  5
303
330
17
100
AcDbEntity
  8
DEBUG_NODE
100
AcDbCircle
 10
115.0
 20
34.0
 30
0.0
 40
0.12
  0
CIRCLE
  5
304
330
17
100
AcDbEntity
  8
DEBUG_NODE
100
AcDbCircle
 10
5.0
 20
46.0
 30
0.0
 40
0.12
  0
CIRCLE
  5
305
330
17
100
AcDbEntity
  8
DEBUG_NODE
100
AcDbCircle
 10
115.0
 20
46.0
 30
0.0
 40
0.12
  0
CIRCLE
  5
306
330
17
100
AcDbEntity
  8
DEBUG_NODE
100
AcDbCircle
 10
5.0
 20
58.0
 30
0.0
 40
0.12
  0
CIRCLE
  5
307
330
17
100
AcDbEntity
  8
DEBUG_NODE
100
AcDbCircle
 10
115.0
 20
58.0
 30
0.0
 40
0.12
  0
CIRCLE
  5
308
330
17
100
AcDbEntity
  8
DEBUG_NODE
100
AcDbCircle
 10
5.0
 20
70.0
 30
0.0
 40
0.12
  0
CIRCLE
  5
309
330
17
100
AcDbEntity
  8
DEBUG_NODE
100
AcDbCircle
 10
115.0
 20
70.0
 30
0.0
 40
0.12
  0
CIRCLE
  5
30A
330
17
100
AcDbEntity
  8
DEBUG_NODE
100
AcDbCircle
 10
10.0
 20
10.0
 30
0.0
 40
0.12
  0
CIRCLE
  5
30B
330
17
100
AcDbEntity
  8
DEBUG_NODE
100
AcDbCircle
 10
10.0
 20
22.0
 30
0.0
 40
0.12
  0
CIRCLE
  5
30C
330
17
100
AcDbEntity
  8
DEBUG_NODE
100
AcDbCircle
 10
10.0
 20
34.0
 30
0.0
 40
0.12
  0
CIRCLE
  5
30D
330
17
100
AcDbEntity
  8
DEBUG_NODE
100
AcDbCircle
 10
10.0
 20
46.0
 30
0.0
 40
0.12
  0
CIRCLE
  5
30E
330
17
100
AcDbEntity
  8
DEBUG_NODE
100
AcDbCircle
 10
10.0
 20
58.0
 30
0.0
 40
0.12
  0
CIRCLE
  5
30F
330
17
100
AcDbEntity
  8
DEBUG_NODE
100
AcDbCircle
 10
10.0
 20
70.0
 30
0.0
 40
0.12
  0
CIRCLE
  5
310
330
17
100
AcDbEntity
  8
DEBUG_NODE
100
AcDbCircle
 10
22.5
 20
10.0
 30
0.0
 40
0.12
  0
CIRCLE
  5
311
330
17
100
AcDbEntity
  8
DEBUG_NODE
100
AcDbCircle
 10
22.5
 20
22.0
 30
0.0
 40
0.12
  0
CIRCLE
  5
312
330
17
100
AcDbEntity
  8
DEBUG_NODE
100
AcDbCircle
 10
22.5
 20
34.0
 30
0.0
 40
0.12
  0
CIRCLE
  5
313
330
17
100
AcDbEntity
  8
DEBUG_NODE
100
AcDbCircle
 10
22.5
 20
46.0
 30
0.0
 40
0.12
  0
CIRCLE
  5
314
330
17
100
AcDbEntity
  8
DEBUG_NODE
100
AcDbCircle
 10
22.5
 20
58.0
 30
0.0
 40
0.12
  0
CIRCLE
  5
315
330
17
100
AcDbEntity
  8
DEBUG_NODE
100
AcDbCircle
 10
22.5
 20
70.0
 30
0.0
 40
0.12
  0
CIRCLE
  5
316
330
17
100
AcDbEntity
  8
DEBUG_NODE
100
AcDbCircle
 10
35.0
 20
10.0
 30
0.0
 40
0.12
  0
CIRCLE
  5
317
330
17
100
AcDbEntity
  8
DEBUG_NODE
100
AcDbCircle
 10
35.0
 20
22.0
 30
0.0
 40
0.12
  0
CIRCLE
  5
318
330
17
100
AcDbEntity
  8
DEBUG_NODE
100
AcDbCircle
 10
35.0
 20
34.0
 30
0.0
 40
0.12
  0
CIRCLE
  5
319
330
17
100
AcDbEntity
  8
DEBUG_NODE
100
AcDbCircle
 10
35.0
 20
46.0
 30
0.0
 40
0.12
  0
CIRCLE
  5
31A
330
17
100
AcDbEntity
  8
DEBUG_NODE
100
AcDbCircle
 10
35.0
 20
58.0
 30
0.0
 40
0.12
  0
CIRCLE
  5
31B
330
17
100
AcDbEntity
  8
DEBUG_NODE
100
AcDbCircle
 10
35.0
 20
70.0
 30
0.0
 40
0.12
  0
CIRCLE
  5
31C
330
17
100
AcDbEntity
  8
DEBUG_NODE
100
AcDbCircle
 10
47.5
 20
10.0
 30
0.0
 40
0.12
  0
CIRCLE
  5
31D
330
17
100
AcDbEntity
  8
DEBUG_NODE
100
AcDbCircle
 10
47.5
 20
22.0
 30
0.0
 40
0.12
  0
CIRCLE
  5
31E
330
17
100
AcDbEntity
  8
DEBUG_NODE
100
AcDbCircle
 10
47.5
 20
34.0
 30
0.0
 40
0.12
  0
CIRCLE
  5
31F
330
17
100
AcDbEntity
  8
DEBUG_NODE
100
AcDbCircle
 10
47.5
 20
46.0
 30
0.0
 40
0.12
  0
CIRCLE
  5
320
330
17
100
AcDbEntity
  8
DEBUG_NODE
100
AcDbCircle
 10
47.5
 20
58.0
 30
0.0
 40
0.12
  0
CIRCLE
  5
321
330
17
100
AcDbEntity
  8
DEBUG_NODE
100
AcDbCircle
 10
47.5
 20
70.0
 30
0.0
 40
0.12
  0
CIRCLE
  5
322
330
17
100
AcDbEntity
  8
DEBUG_NODE
100
AcDbCircle
 10
60.0
 20
10.0
 30
0.0
 40
0.12
  0
CIRCLE
  5
323
330
17
100
AcDbEntity
  8
DEBUG_NODE
100
AcDbCircle
 10
60.0
 20
22.0
 30
0.0
 40
0.12
  0
CIRCLE
  5
324
330
17
100
AcDbEntity
  8
DEBUG_NODE
100
AcDbCircle
 10
60.0
 20
34.0
 30
0.0
 40
0.12
  0
CIRCLE
  5
325
330
17
100
AcDbEntity
  8
DEBUG_NODE
100
AcDbCircle
 10
60.0
 20
46.0
 30
0.0
 40
0.12
  0
CIRCLE
  5
326
330
17
100
AcDbEntity
  8
DEBUG_NODE
100
AcDbCircle
 10
60.0
 20
58.0
 30
0.0
 40
0.12
  0
CIRCLE
  5
327
330
17
100
AcDbEntity
  8
DEBUG_NODE
100
AcDbCircle
 10
60.0
 20
70.0
 30
0.0
 40
0.12
  0
CIRCLE
  5
328
330
17
100
AcDbEntity
  8
DEBUG_NODE
100
AcDbCircle
 10
72.5
 20
10.0
 30
0.0
 40
0.12
  0
CIRCLE
  5
329
330
17
100
AcDbEntity
  8
DEBUG_NODE
100
AcDbCircle
 10
72.5
 20
22.0
 30
0.0
 40
0.12
  0
CIRCLE
  5
32A
330
17
100
AcDbEntity
  8
DEBUG_NODE
100
AcDbCircle
 10
72.5
 20
34.0
 30
0.0
 40
0.12
  0
CIRCLE
  5
32B
330
17
100
AcDbEntity
  8
DEBUG_NODE
100
AcDbCircle
 10
72.5
 20
46.0
 30
0.0
 40
0.12
  0
CIRCLE
  5
32C
330
17
100
AcDbEntity
  8
DEBUG_NODE
100
AcDbCircle
 10
72.5
 20
58.0
 30
0.0
 40
0.12
  0
CIRCLE
  5
32D
330
17
100
AcDbEntity
  8
DEBUG_NODE
100
AcDbCircle
 10
72.5
 20
70.0
 30
0.0
 40
0.12
  0
CIRCLE
  5
32E
330
17
100
AcDbEntity
  8
DEBUG_NODE
100
AcDbCircle
 10
85.0
 20
10.0
 30
0.0
 40
0.12
  0
CIRCLE
  5
32F
330
17
100
AcDbEntity
  8
DEBUG_NODE
100
AcDbCircle
 10
85.0
 20
22.0
 30
0.0
 40
0.12
  0
CIRCLE
  5
330
330
17
100
AcDbEntity
  8
DEBUG_NODE
100
AcDbCircle
 10
85.0
 20
34.0
 30
0.0
 40
0.12
  0
CIRCLE
  5
331
330
17
100
AcDbEntity
  8
DEBUG_NODE
100
AcDbCircle
 10
85.0
 20
46.0
 30
0.0
 40
0.12
  0
CIRCLE
  5
332
330
17
100
AcDbEntity
  8
DEBUG_NODE
100
AcDbCircle
 10
85.0
 20
58.0
 30
0.0
 40
0.12
  0
CIRCLE
  5
333
330
17
100
AcDbEntity
  8
DEBUG_NODE
100
AcDbCircle
 10
85.0
 20
70.0
 30
0.0
 40
0.12
  0
CIRCLE
  5
334
330
17
100
AcDbEntity
  8
DEBUG_NODE
100
AcDbCircle
 10
97.5
 20
10.0
 30
0.0
 40
0.12
  0
CIRCLE
  5
335
330
17
100
AcDbEntity
  8
DEBUG_NODE
100
AcDbCircle
 10
97.5
 20
22.0
 30
0.0
 40
0.12
  0
CIRCLE
  5
336
330
17
100
AcDbEntity
  8
DEBUG_NODE
100
AcDbCircle
 10
97.5
 20
34.0
 30
0.0
 40
0.12
  0
CIRCLE
  5
337
330
17
100
AcDbEntity
  8
DEBUG_NODE
100
AcDbCircle
 10
97.5
 20
46.0
 30
0.0
 40
0.12
  0
CIRCLE
  5
338
330
17
100
AcDbEntity
  8
DEBUG_NODE
100
AcDbCircle
 10
97.5
 20
58.0
 30
0.0
 40
0.12
  0
CIRCLE
  5
339
330
17
100
AcDbEntity
  8
DEBUG_NODE
100
AcDbCircle
 10
97.5
 20
70.0
 30
0.0
 40
0.12
  0
CIRCLE
  5
33A
330
17
100
AcDbEntity
  8
DEBUG_NODE
100
AcDbCircle
 10
110.0
 20
10.0
 30
0.0
 40
0.12
  0
CIRCLE
  5
33B
330
17
100
AcDbEntity
  8
DEBUG_NODE
100
AcDbCircle
 10
110.0
 20
22.0
 30
0.0
 40
0.12
  0
CIRCLE
  5
33C
330
17
100
AcDbEntity
  8
DEBUG_NODE
100
AcDbCircle
 10
110.0
 20
34.0
 30
0.0
 40
0.12
  0
CIRCLE
  5
33D
330
17
100
AcDbEntity
  8
DEBUG_NODE
100
AcDbCircle
 10
110.0
 20
46.0
 30
0.0
 40
0.12
  0
CIRCLE
  5
33E
330
17
100
AcDbEntity
  8
DEBUG_NODE
100
AcDbCircle
 10
110.0
 20
58.0
 30
0.0
 40
0.12
  0
CIRCLE
  5
33F
330
17
100
AcDbEntity
  8
DEBUG_NODE
100
AcDbCircle
 10
110.0
 20
70.0
 30
0.0
 40
0.12
  0
CIRCLE
  5
340
330
17
100
AcDbEntity
  8
DEBUG_NODE
100
AcDbCircle
 10
10.0
 20
28.333333333333332
 30
0.0
 40
0.12
  0
CIRCLE
  5
341
330
17
100
AcDbEntity
  8
DEBUG_NODE
100
AcDbCircle
 10
22.5
 20
28.333333333333332
 30
0.0
 40
0.12
  0
CIRCLE
  5
342
330
17
100
AcDbEntity
  8
DEBUG_NODE
100
AcDbCircle
 10
10.0
 20
51.666666666666664
 30
0.0
 40
0.12
  0
CIRCLE
  5
343
330
17
100
AcDbEntity
  8
DEBUG_NODE
100
AcDbCircle
 10
22.5
 20
51.666666666666664
 30
0.0
 40
0.12
  0
CIRCLE
  5
344
330
17
100
AcDbEntity
  8
DEBUG_NODE
100
AcDbCircle
 10
35.0
 20
28.333333333333332
 30
0.0
 40
0.12
  0
CIRCLE
  5
345
330
17
100
AcDbEntity
  8
DEBUG_NODE
100
AcDbCircle
 10
35.0
 20
51.666666666666664
 30
0.0
 40
0.12
  0
CIRCLE
  5
346
330
17
100
AcDbEntity
  8
DEBUG_NODE
100
AcDbCircle
 10
47.5
 20
28.333333333333332
 30
0.0
 40
0.12
  0
CIRCLE
  5
347
330
17
100
AcDbEntity
  8
DEBUG_NODE
100
AcDbCircle
 10
47.5
 20
51.666666666666664
 30
0.0
 40
0.12
  0
CIRCLE
  5
348
330
17
100
AcDbEntity
  8
DEBUG_NODE
100
AcDbCircle
 10
60.0
 20
28.333333333333332
 30
0.0
 40
0.12
  0
CIRCLE
  5
349
330
17
100
AcDbEntity
  8
DEBUG_NODE
100
AcDbCircle
 10
60.0
 20
51.666666666666664
 30
0.0
 40
0.12
  0
CIRCLE
  5
34A
330
17
100
AcDbEntity
  8
DEBUG_NODE
100
AcDbCircle
 10
72.5
 20
28.333333333333332
 30
0.0
 40
0.12
  0
CIRCLE
  5
34B
330
17
100
AcDbEntity
  8
DEBUG_NODE
100
AcDbCircle
 10
72.5
 20
51.666666666666664
 30
0.0
 40
0.12
  0
CIRCLE
  5
34C
330
17
100
AcDbEntity
  8
DEBUG_NODE
100
AcDbCircle
 10
85.0
 20
28.333333333333332
 30
0.0
 40
0.12
  0
CIRCLE
  5
34D
330
17
100
AcDbEntity
  8
DEBUG_NODE
100
AcDbCircle
 10
85.0
 20
51.666666666666664
 30
0.0
 40
0.12
  0
CIRCLE
  5
34E
330
17
100
AcDbEntity
  8
DEBUG_NODE
100
AcDbCircle
 10
97.5
 20
28.333333333333332
 30
0.0
 40
0.12
  0
CIRCLE
  5
34F
330
17
100
AcDbEntity
  8
DEBUG_NODE
100
AcDbCircle
 10
97.5
 20
51.666666666666664
 30
0.0
 40
0.12
  0
CIRCLE
  5
350
330
17
100
AcDbEntity
  8
DEBUG_NODE
100
AcDbCircle
 10
110.0
 20
28.333333333333332
 30
0.0
 40
0.12
  0
CIRCLE
  5
351
330
17
100
AcDbEntity
  8
DEBUG_NODE
100
AcDbCircle
 10
110.0
 20
51.666666666666664
 30
0.0
 40
0.12
  0
CIRCLE
  5
352
330
17
100
AcDbEntity
  8
DEBUG_NODE
100
AcDbCircle
 10
11.0
 20
5.0
 30
0.0
 40
0.12
  0
CIRCLE
  5
353
330
17
100
AcDbEntity
  8
DEBUG_NODE
100
AcDbCircle
 10
11.0
 20
10.0
 30
0.0
 40
0.12
  0
CIRCLE
  5
354
330
17
100
AcDbEntity
  8
DEBUG_NODE
100
AcDbCircle
 10
5.0
 20
16.666667
 30
0.0
 40
0.12
  0
CIRCLE
  5
355
330
17
100
AcDbEntity
  8
DEBUG_NODE
100
AcDbCircle
 10
11.0
 20
16.666667
 30
0.0
 40
0.12
  0
CIRCLE
  5
356
330
17
100
AcDbEntity
  8
DEBUG_NODE
100
AcDbCircle
 10
11.0
 20
22.0
 30
0.0
 40
0.12
  0
CIRCLE
  5
357
330
17
100
AcDbEntity
  8
DEBUG_NODE
100
AcDbCircle
 10
5.0
 20
28.333333
 30
0.0
 40
0.12
  0
CIRCLE
  5
358
330
17
100
AcDbEntity
  8
DEBUG_NODE
100
AcDbCircle
 10
11.0
 20
28.333333
 30
0.0
 40
0.12
  0
CIRCLE
  5
359
330
17
100
AcDbEntity
  8
DEBUG_NODE
100
AcDbCircle
 10
11.0
 20
34.0
 30
0.0
 40
0.12
  0
CIRCLE
  5
35A
330
17
100
AcDbEntity
  8
DEBUG_NODE
100
AcDbCircle
 10
5.0
 20
40.0
 30
0.0
 40
0.12
  0
CIRCLE
  5
35B
330
17
100
AcDbEntity
  8
DEBUG_NODE
100
AcDbCircle
 10
11.0
 20
40.0
 30
0.0
 40
0.12
  0
CIRCLE
  5
35C
330
17
100
AcDbEntity
  8
DEBUG_NODE
100
AcDbCircle
 10
11.0
 20
46.0
 30
0.0
 40
0.12
  0
CIRCLE
  5
35D
330
17
100
AcDbEntity
  8
DEBUG_NODE
100
AcDbCircle
 10
5.0
 20
51.666667
 30
0.0
 40
0.12
  0
CIRCLE
  5
35E
330
17
100
AcDbEntity
  8
DEBUG_NODE
100
AcDbCircle
 10
11.0
 20
51.666667
 30
0.0
 40
0.12
  0
CIRCLE
  5
35F
330
17
100
AcDbEntity
  8
DEBUG_NODE
100
AcDbCircle
 10
11.0
 20
58.0
 30
0.0
 40
0.12
  0
CIRCLE
  5
360
330
17
100
AcDbEntity
  8
DEBUG_NODE
100
AcDbCircle
 10
5.0
 20
63.333333
 30
0.0
 40
0.12
  0
CIRCLE
  5
361
330
17
100
AcDbEntity
  8
DEBUG_NODE
100
AcDbCircle
 10
11.0
 20
63.333333
 30
0.0
 40
0.12
  0
CIRCLE
  5
362
330
17
100
AcDbEntity
  8
DEBUG_NODE
100
AcDbCircle
 10
11.0
 20
70.0
 30
0.0
 40
0.12
  0
CIRCLE
  5
363
330
17
100
AcDbEntity
  8
DEBUG_NODE
100
AcDbCircle
 10
5.0
 20
75.0
 30
0.0
 40
0.12
  0
CIRCLE
  5
364
330
17
100
AcDbEntity
  8
DEBUG_NODE
100
AcDbCircle
 10
11.0
 20
75.0
 30
0.0
 40
0.12
  0
CIRCLE
  5
365
330
17
100
AcDbEntity
  8
DEBUG_NODE
100
AcDbCircle
 10
5.0
 20
69.0
 30
0.0
 40
0.12
  0
CIRCLE
  5
366
330
17
100
AcDbEntity
  8
DEBUG_NODE
100
AcDbCircle
 10
10.0
 20
69.0
 30
0.0
 40
0.12
  0
CIRCLE
  5
367
330
17
100
AcDbEntity
  8
DEBUG_NODE
100
AcDbCircle
 10
16.578947
 20
75.0
 30
0.0
 40
0.12
  0
CIRCLE
  5
368
330
17
100
AcDbEntity
  8
DEBUG_NODE
100
AcDbCircle
 10
16.578947
 20
69.0
 30
0.0
 40
0.12
  0
CIRCLE
  5
369
330
17
100
AcDbEntity
  8
DEBUG_NODE
100
AcDbCircle
 10
22.5
 20
69.0
 30
0.0
 40
0.12
  0
CIRCLE
  5
36A
330
17
100
AcDbEntity
  8
DEBUG_NODE
100
AcDbCircle
 10
28.157895
 20
75.0
 30
0.0
 40
0.12
  0
CIRCLE
  5
36B
330
17
100
AcDbEntity
  8
DEBUG_NODE
100
AcDbCircle
 10
28.157895
 20
69.0
 30
0.0
 40
0.12
  0
CIRCLE
  5
36C
330
17
100
AcDbEntity
  8
DEBUG_NODE
100
AcDbCircle
 10
35.0
 20
69.0
 30
0.0
 40
0.12
  0
CIRCLE
  5
36D
330
17
100
AcDbEntity
  8
DEBUG_NODE
100
AcDbCircle
 10
39.736842
 20
75.0
 30
0.0
 40
0.12
  0
CIRCLE
  5
36E
330
17
100
AcDbEntity
  8
DEBUG_NODE
100
AcDbCircle
 10
39.736842
 20
69.0
 30
0.0
 40
0.12
  0
CIRCLE
  5
36F
330
17
100
AcDbEntity
  8
DEBUG_NODE
100
AcDbCircle
 10
47.5
 20
69.0
 30
0.0
 40
0.12
  0
CIRCLE
  5
370
330
17
100
AcDbEntity
  8
DEBUG_NODE
100
AcDbCircle
 10
51.315789
 20
75.0
 30
0.0
 40
0.12
  0
CIRCLE
  5
371
330
17
100
AcDbEntity
  8
DEBUG_NODE
100
AcDbCircle
 10
51.315789
 20
69.0
 30
0.0
 40
0.12
  0
CIRCLE
  5
372
330
17
100
AcDbEntity
  8
DEBUG_NODE
100
AcDbCircle
 10
60.0
 20
69.0
 30
0.0
 40
0.12
  0
CIRCLE
  5
373
330
17
100
AcDbEntity
  8
DEBUG_NODE
100
AcDbCircle
 10
68.684211
 20
75.0
 30
0.0
 40
0.12
  0
CIRCLE
  5
374
330
17
100
AcDbEntity
  8
DEBUG_NODE
100
AcDbCircle
 10
68.684211
 20
69.0
 30
0.0
 40
0.12
  0
CIRCLE
  5
375
330
17
100
AcDbEntity
  8
DEBUG_NODE
100
AcDbCircle
 10
72.5
 20
69.0
 30
0.0
 40
0.12
  0
CIRCLE
  5
376
330
17
100
AcDbEntity
  8
DEBUG_NODE
100
AcDbCircle
 10
80.263158
 20
75.0
 30
0.0
 40
0.12
  0
CIRCLE
  5
377
330
17
100
AcDbEntity
  8
DEBUG_NODE
100
AcDbCircle
 10
80.263158
 20
69.0
 30
0.0
 40
0.12
  0
CIRCLE
  5
378
330
17
100
AcDbEntity
  8
DEBUG_NODE
100
AcDbCircle
 10
85.0
 20
69.0
 30
0.0
 40
0.12
  0
CIRCLE
  5
379
330
17
100
AcDbEntity
  8
DEBUG_NODE
100
AcDbCircle
 10
91.842105
 20
75.0
 30
0.0
 40
0.12
  0
CIRCLE
  5
37A
330
17
100
AcDbEntity
  8
DEBUG_NODE
100
AcDbCircle
 10
91.842105
 20
69.0
 30
0.0
 40
0.12
  0
CIRCLE
  5
37B
330
17
100
AcDbEntity
  8
DEBUG_NODE
100
AcDbCircle
 10
97.5
 20
69.0
 30
0.0
 40
0.12
  0
CIRCLE
  5
37C
330
17
100
AcDbEntity
  8
DEBUG_NODE
100
AcDbCircle
 10
103.421053
 20
75.0
 30
0.0
 40
0.12
  0
CIRCLE
  5
37D
330
17
100
AcDbEntity
  8
DEBUG_NODE
100
AcDbCircle
 10
103.421053
 20
69.0
 30
0.0
 40
0.12
  0
CIRCLE
  5
37E
330
17
100
AcDbEntity
  8
DEBUG_NODE
100
AcDbCircle
 10
110.0
 20
69.0
 30
0.0
 40
0.12
  0
CIRCLE
  5
37F
330
17
100
AcDbEntity
  8
DEBUG_NODE
100
AcDbCircle
 10
115.0
 20
75.0
 30
0.0
 40
0.12
  0
CIRCLE
  5
380
330
17
100
AcDbEntity
  8
DEBUG_NODE
100
AcDbCircle
 10
115.0
 20
69.0
 30
0.0
 40
0.12
  0
CIRCLE
  5
381
330
17
100
AcDbEntity
  8
DEBUG_NODE
100
AcDbCircle
 10
115.0
 20
5.0
 30
0.0
 40
0.12
  0
CIRCLE
  5
382
330
17
100
AcDbEntity
  8
DEBUG_NODE
100
AcDbCircle
 10
109.0
 20
5.0
 30
0.0
 40
0.12
  0
CIRCLE
  5
383
330
17
100
AcDbEntity
  8
DEBUG_NODE
100
AcDbCircle
 10
109.0
 20
10.0
 30
0.0
 40
0.12
  0
CIRCLE
  5
384
330
17
100
AcDbEntity
  8
DEBUG_NODE
100
AcDbCircle
 10
115.0
 20
16.666667
 30
0.0
 40
0.12
  0
CIRCLE
  5
385
330
17
100
AcDbEntity
  8
DEBUG_NODE
100
AcDbCircle
 10
109.0
 20
16.666667
 30
0.0
 40
0.12
  0
CIRCLE
  5
386
330
17
100
AcDbEntity
  8
DEBUG_NODE
100
AcDbCircle
 10
109.0
 20
22.0
 30
0.0
 40
0.12
  0
CIRCLE
  5
387
330
17
100
AcDbEntity
  8
DEBUG_NODE
100
AcDbCircle
 10
115.0
 20
28.333333
 30
0.0
 40
0.12
  0
CIRCLE
  5
388
330
17
100
AcDbEntity
  8
DEBUG_NODE
100
AcDbCircle
 10
109.0
 20
28.333333
 30
0.0
 40
0.12
  0
CIRCLE
  5
389
330
17
100
AcDbEntity
  8
DEBUG_NODE
100
AcDbCircle
 10
109.0
 20
34.0
 30
0.0
 40
0.12
  0
CIRCLE
  5
38A
330
17
100
AcDbEntity
  8
DEBUG_NODE
100
AcDbCircle
 10
115.0
 20
40.0
 30
0.0
 40
0.12
  0
CIRCLE
  5
38B
330
17
100
AcDbEntity
  8
DEBUG_NODE
100
AcDbCircle
 10
109.0
 20
40.0
 30
0.0
 40
0.12
  0
CIRCLE
  5
38C
330
17
100
AcDbEntity
  8
DEBUG_NODE
100
AcDbCircle
 10
109.0
 20
46.0
 30
0.0
 40
0.12
  0
CIRCLE
  5
38D
330
17
100
AcDbEntity
  8
DEBUG_NODE
100
AcDbCircle
 10
115.0
 20
51.666667
 30
0.0
 40
0.12
  0
CIRCLE
  5
38E
330
17
100
AcDbEntity
  8
DEBUG_NODE
100
AcDbCircle
 10
109.0
 20
51.666667
 30
0.0
 40
0.12
  0
CIRCLE
  5
38F
330
17
100
AcDbEntity
  8
DEBUG_NODE
100
AcDbCircle
 10
109.0
 20
58.0
 30
0.0
 40
0.12
  0
CIRCLE
  5
390
330
17
100
AcDbEntity
  8
DEBUG_NODE
100
AcDbCircle
 10
115.0
 20
63.333333
 30
0.0
 40
0.12
  0
CIRCLE
  5
391
330
17
100
AcDbEntity
  8
DEBUG_NODE
100
AcDbCircle
 10
109.0
 20
63.333333
 30
0.0
 40
0.12
  0
CIRCLE
  5
392
330
17
100
AcDbEntity
  8
DEBUG_NODE
100
AcDbCircle
 10
109.0
 20
70.0
 30
0.0
 40
0.12
  0
CIRCLE
  5
393
330
17
100
AcDbEntity
  8
DEBUG_NODE
100
AcDbCircle
 10
109.0
 20
75.0
 30
0.0
 40
0.12
  0
CIRCLE
  5
394
330
17
100
AcDbEntity
  8
DEBUG_NODE
100
AcDbCircle
 10
5.0
 20
11.0
 30
0.0
 40
0.12
  0
CIRCLE
  5
395
330
17
100
AcDbEntity
  8
DEBUG_NODE
100
AcDbCircle
 10
10.0
 20
11.0
 30
0.0
 40
0.12
  0
CIRCLE
  5
396
330
17
100
AcDbEntity
  8
DEBUG_NODE
100
AcDbCircle
 10
16.578947
 20
5.0
 30
0.0
 40
0.12
  0
CIRCLE
  5
397
330
17
100
AcDbEntity
  8
DEBUG_NODE
100
AcDbCircle
 10
16.578947
 20
11.0
 30
0.0
 40
0.12
  0
CIRCLE
  5
398
330
17
100
AcDbEntity
  8
DEBUG_NODE
100
AcDbCircle
 10
22.5
 20
11.0
 30
0.0
 40
0.12
  0
CIRCLE
  5
399
330
17
100
AcDbEntity
  8
DEBUG_NODE
100
AcDbCircle
 10
28.157895
 20
5.0
 30
0.0
 40
0.12
  0
CIRCLE
  5
39A
330
17
100
AcDbEntity
  8
DEBUG_NODE
100
AcDbCircle
 10
28.157895
 20
11.0
 30
0.0
 40
0.12
  0
CIRCLE
  5
39B
330
17
100
AcDbEntity
  8
DEBUG_NODE
100
AcDbCircle
 10
35.0
 20
11.0
 30
0.0
 40
0.12
  0
CIRCLE
  5
39C
330
17
100
AcDbEntity
  8
DEBUG_NODE
100
AcDbCircle
 10
39.736842
 20
5.0
 30
0.0
 40
0.12
  0
CIRCLE
  5
39D
330
17
100
AcDbEntity
  8
DEBUG_NODE
100
AcDbCircle
 10
39.736842
 20
11.0
 30
0.0
 40
0.12
  0
CIRCLE
  5
39E
330
17
100
AcDbEntity
  8
DEBUG_NODE
100
AcDbCircle
 10
47.5
 20
11.0
 30
0.0
 40
0.12
  0
CIRCLE
  5
39F
330
17
100
AcDbEntity
  8
DEBUG_NODE
100
AcDbCircle
 10
51.315789
 20
5.0
 30
0.0
 40
0.12
  0
CIRCLE
  5
3A0
330
17
100
AcDbEntity
  8
DEBUG_NODE
100
AcDbCircle
 10
51.315789
 20
11.0
 30
0.0
 40
0.12
  0
CIRCLE
  5
3A1
330
17
100
AcDbEntity
  8
DEBUG_NODE
100
AcDbCircle
 10
60.0
 20
11.0
 30
0.0
 40
0.12
  0
CIRCLE
  5
3A2
330
17
100
AcDbEntity
  8
DEBUG_NODE
100
AcDbCircle
 10
68.684211
 20
5.0
 30
0.0
 40
0.12
  0
CIRCLE
  5
3A3
330
17
100
AcDbEntity
  8
DEBUG_NODE
100
AcDbCircle
 10
68.684211
 20
11.0
 30
0.0
 40
0.12
  0
CIRCLE
  5
3A4
330
17
100
AcDbEntity
  8
DEBUG_NODE
100
AcDbCircle
 10
72.5
 20
11.0
 30
0.0
 40
0.12
  0
CIRCLE
  5
3A5
330
17
100
AcDbEntity
  8
DEBUG_NODE
100
AcDbCircle
 10
80.263158
 20
5.0
 30
0.0
 40
0.12
  0
CIRCLE
  5
3A6
330
17
100
AcDbEntity
  8
DEBUG_NODE
100
AcDbCircle
 10
80.263158
 20
11.0
 30
0.0
 40
0.12
  0
CIRCLE
  5
3A7
330
17
100
AcDbEntity
  8
DEBUG_NODE
100
AcDbCircle
 10
85.0
 20
11.0
 30
0.0
 40
0.12
  0
CIRCLE
  5
3A8
330
17
100
AcDbEntity
  8
DEBUG_NODE
100
AcDbCircle
 10
91.842105
 20
5.0
 30
0.0
 40
0.12
  0
CIRCLE
  5
3A9
330
17
100
AcDbEntity
  8
DEBUG_NODE
100
AcDbCircle
 10
91.842105
 20
11.0
 30
0.0
 40
0.12
  0
CIRCLE
  5
3AA
330
17
100
AcDbEntity
  8
DEBUG_NODE
100
AcDbCircle
 10
97.5
 20
11.0
 30
0.0
 40
0.12
  0
CIRCLE
  5
3AB
330
17
100
AcDbEntity
  8
DEBUG_NODE
100
AcDbCircle
 10
103.421053
 20
5.0
 30
0.0
 40
0.12
  0
CIRCLE
  5
3AC
330
17
100
AcDbEntity
  8
DEBUG_NODE
100
AcDbCircle
 10
103.421053
 20
11.0
 30
0.0
 40
0.12
  0
CIRCLE
  5
3AD
330
17
100
AcDbEntity
  8
DEBUG_NODE
100
AcDbCircle
 10
110.0
 20
11.0
 30
0.0
 40
0.12
  0
CIRCLE
  5
3AE
330
17
100
AcDbEntity
  8
DEBUG_NODE
100
AcDbCircle
 10
115.0
 20
11.0
 30
0.0
 40
0.12
  0
CIRCLE
  5
3AF
330
17
100
AcDbEntity
  8
DEBUG_NODE
100
AcDbCircle
 10
10.0
 20
9.166666666666666
 30
0.0
 40
0.12
  0
CIRCLE
  5
3B0
330
17
100
AcDbEntity
  8
DEBUG_NODE
100
AcDbCircle
 10
10.0
 20
11.111111166666667
 30
0.0
 40
0.12
  0
CIRCLE
  5
3B1
330
17
100
AcDbEntity
  8
DEBUG_NODE
100
AcDbCircle
 10
10.0
 20
21.111111166666667
 30
0.0
 40
0.12
  0
CIRCLE
  5
3B2
330
17
100
AcDbEntity
  8
DEBUG_NODE
100
AcDbCircle
 10
10.0
 20
23.0555555
 30
0.0
 40
0.12
  0
CIRCLE
  5
3B3
330
17
100
AcDbEntity
  8
DEBUG_NODE
100
AcDbCircle
 10
10.0
 20
33.0555555
 30
0.0
 40
0.12
  0
CIRCLE
  5
3B4
330
17
100
AcDbEntity
  8
DEBUG_NODE
100
AcDbCircle
 10
10.0
 20
35.0
 30
0.0
 40
0.12
  0
CIRCLE
  5
3B5
330
17
100
AcDbEntity
  8
DEBUG_NODE
100
AcDbCircle
 10
10.0
 20
45.0
 30
0.0
 40
0.12
  0
CIRCLE
  5
3B6
330
17
100
AcDbEntity
  8
DEBUG_NODE
100
AcDbCircle
 10
10.0
 20
46.9444445
 30
0.0
 40
0.12
  0
CIRCLE
  5
3B7
330
17
100
AcDbEntity
  8
DEBUG_NODE
100
AcDbCircle
 10
10.0
 20
56.9444445
 30
0.0
 40
0.12
  0
CIRCLE
  5
3B8
330
17
100
AcDbEntity
  8
DEBUG_NODE
100
AcDbCircle
 10
10.0
 20
58.88888883333333
 30
0.0
 40
0.12
  0
CIRCLE
  5
3B9
330
17
100
AcDbEntity
  8
DEBUG_NODE
100
AcDbCircle
 10
10.0
 20
68.88888883333334
 30
0.0
 40
0.12
  0
CIRCLE
  5
3BA
330
17
100
AcDbEntity
  8
DEBUG_NODE
100
AcDbCircle
 10
10.0
 20
70.83333333333333
 30
0.0
 40
0.12
  0
CIRCLE
  5
3BB
330
17
100
AcDbEntity
  8
DEBUG_NODE
100
AcDbCircle
 10
10.0
 20
17.142857142857142
 30
0.0
 40
0.12
  0
CIRCLE
  5
3BC
330
17
100
AcDbEntity
  8
DEBUG_NODE
100
AcDbCircle
 10
10.0
 20
23.29545434133953
 30
0.0
 40
0.12
  0
CIRCLE
  5
3BD
330
17
100
AcDbEntity
  8
DEBUG_NODE
100
AcDbCircle
 10
10.0
 20
29.166666666666668
 30
0.0
 40
0.12
  0
CIRCLE
  5
3BE
330
17
100
AcDbEntity
  8
DEBUG_NODE
100
AcDbCircle
 10
10.0
 20
62.857142857142854
 30
0.0
 40
0.12
  0
CIRCLE
  5
3BF
330
17
100
AcDbEntity
  8
DEBUG_NODE
100
AcDbCircle
 10
10.0
 20
56.704545658660464
 30
0.0
 40
0.12
  0
CIRCLE
  5
3C0
330
17
100
AcDbEntity
  8
DEBUG_NODE
100
AcDbCircle
 10
10.0
 20
50.833333333333336
 30
0.0
 40
0.12
  0
CIRCLE
  5
3C1
330
17
100
AcDbEntity
  8
DEBUG_NODE
100
AcDbCircle
 10
22.5
 20
10.700757694688356
 30
0.0
 40
0.12
  0
CIRCLE
  5
3C2
330
17
100
AcDbEntity
  8
DEBUG_NODE
100
AcDbCircle
 10
22.5
 20
17.083333333333332
 30
0.0
 40
0.12
  0
CIRCLE
  5
3C3
330
17
100
AcDbEntity
  8
DEBUG_NODE
100
AcDbCircle
 10
22.5
 20
69.29924230531164
 30
0.0
 40
0.12
  0
CIRCLE
  5
3C4
330
17
100
AcDbEntity
  8
DEBUG_NODE
100
AcDbCircle
 10
22.5
 20
62.916666666666664
 30
0.0
 40
0.12
  0
CIRCLE
  5
3C5
330
17
100
AcDbEntity
  8
DEBUG_NODE
100
AcDbCircle
 10
97.5
 20
69.29924230531165
 30
0.0
 40
0.12
  0
CIRCLE
  5
3C6
330
17
100
AcDbEntity
  8
DEBUG_NODE
100
AcDbCircle
 10
97.5
 20
62.916666666666664
 30
0.0
 40
0.12
  0
CIRCLE
  5
3C7
330
17
100
AcDbEntity
  8
DEBUG_NODE
100
AcDbCircle
 10
97.5
 20
10.700757694688352
 30
0.0
 40
0.12
  0
CIRCLE
  5
3C8
330
17
100
AcDbEntity
  8
DEBUG_NODE
100
AcDbCircle
 10
97.5
 20
17.083333333333332
 30
0.0
 40
0.12
  0
CIRCLE
  5
3C9
330
17
100
AcDbEntity
  8
DEBUG_NODE
100
AcDbCircle
 10
110.0
 20
9.166666666666666
 30
0.0
 40
0.12
  0
CIRCLE
  5
3CA
330
17
100
AcDbEntity
  8
DEBUG_NODE
100
AcDbCircle
 10
110.0
 20
11.111111166666667
 30
0.0
 40
0.12
  0
CIRCLE
  5
3CB
330
17
100
AcDbEntity
  8
DEBUG_NODE
100
AcDbCircle
 10
110.0
 20
21.111111166666667
 30
0.0
 40
0.12
  0
CIRCLE
  5
3CC
330
17
100
AcDbEntity
  8
DEBUG_NODE
100
AcDbCircle
 10
110.0
 20
23.0555555
 30
0.0
 40
0.12
  0
CIRCLE
  5
3CD
330
17
100
AcDbEntity
  8
DEBUG_NODE
100
AcDbCircle
 10
110.0
 20
33.0555555
 30
0.0
 40
0.12
  0
CIRCLE
  5
3CE
330
17
100
AcDbEntity
  8
DEBUG_NODE
100
AcDbCircle
 10
110.0
 20
35.0
 30
0.0
 40
0.12
  0
CIRCLE
  5
3CF
330
17
100
AcDbEntity
  8
DEBUG_NODE
100
AcDbCircle
 10
110.0
 20
45.0
 30
0.0
 40
0.12
  0
CIRCLE
  5
3D0
330
17
100
AcDbEntity
  8
DEBUG_NODE
100
AcDbCircle
 10
110.0
 20
46.9444445
 30
0.0
 40
0.12
  0
CIRCLE
  5
3D1
330
17
100
AcDbEntity
  8
DEBUG_NODE
100
AcDbCircle
 10
110.0
 20
56.9444445
 30
0.0
 40
0.12
  0
CIRCLE
  5
3D2
330
17
100
AcDbEntity
  8
DEBUG_NODE
100
AcDbCircle
 10
110.0
 20
58.88888883333333
 30
0.0
 40
0.12
  0
CIRCLE
  5
3D3
330
17
100
AcDbEntity
  8
DEBUG_NODE
100
AcDbCircle
 10
110.0
 20
68.88888883333334
 30
0.0
 40
0.12
  0
CIRCLE
  5
3D4
330
17
100
AcDbEntity
  8
DEBUG_NODE
100
AcDbCircle
 10
110.0
 20
70.83333333333333
 30
0.0
 40
0.12
  0
CIRCLE
  5
3D5
330
17
100
AcDbEntity
  8
DEBUG_NODE
100
AcDbCircle
 10
110.0
 20
62.857142857142854
 30
0.0
 40
0.12
  0
CIRCLE
  5
3D6
330
17
100
AcDbEntity
  8
DEBUG_NODE
100
AcDbCircle
 10
110.0
 20
56.70454565866047
 30
0.0
 40
0.12
  0
CIRCLE
  5
3D7
330
17
100
AcDbEntity
  8
DEBUG_NODE
100
AcDbCircle
 10
110.0
 20
50.833333333333336
 30
0.0
 40
0.12
  0
CIRCLE
  5
3D8
330
17
100
AcDbEntity
  8
DEBUG_NODE
100
AcDbCircle
 10
110.0
 20
17.142857142857142
 30
0.0
 40
0.12
  0
CIRCLE
  5
3D9
330
17
100
AcDbEntity
  8
DEBUG_NODE
100
AcDbCircle
 10
110.0
 20
23.29545434133953
 30
0.0
 40
0.12
  0
CIRCLE
  5
3DA
330
17
100
AcDbEntity
  8
DEBUG_NODE
100
AcDbCircle
 10
110.0
 20
29.166666666666668
 30
0.0
 40
0.12
  0
CIRCLE
  5
3DB
330
17
100
AcDbEntity
  8
DEBUG_NODE
100
AcDbCircle
 10
9.166666666666666
 20
10.0
 30
0.0
 40
0.12
  0
CIRCLE
  5
3DC
330
17
100
AcDbEntity
  8
DEBUG_NODE
100
AcDbCircle
 10
11.096491166666667
 20
10.0
 30
0.0
 40
0.12
  0
CIRCLE
  5
3DD
330
17
100
AcDbEntity
  8
DEBUG_NODE
100
AcDbCircle
 10
21.513157833333334
 20
10.0
 30
0.0
 40
0.12
  0
CIRCLE
  5
3DE
330
17
100
AcDbEntity
  8
DEBUG_NODE
100
AcDbCircle
 10
23.4429825
 20
10.0
 30
0.0
 40
0.12
  0
CIRCLE
  5
3DF
330
17
100
AcDbEntity
  8
DEBUG_NODE
100
AcDbCircle
 10
33.859649166666664
 20
10.0
 30
0.0
 40
0.12
  0
CIRCLE
  5
3E0
330
17
100
AcDbEntity
  8
DEBUG_NODE
100
AcDbCircle
 10
35.789473666666666
 20
10.0
 30
0.0
 40
0.12
  0
CIRCLE
  5
3E1
330
17
100
AcDbEntity
  8
DEBUG_NODE
100
AcDbCircle
 10
46.20614033333334
 20
10.0
 30
0.0
 40
0.12
  0
CIRCLE
  5
3E2
330
17
100
AcDbEntity
  8
DEBUG_NODE
100
AcDbCircle
 10
48.13596483333333
 20
10.0
 30
0.0
 40
0.12
  0
CIRCLE
  5
3E3
330
17
100
AcDbEntity
  8
DEBUG_NODE
100
AcDbCircle
 10
58.552631500000004
 20
10.0
 30
0.0
 40
0.12
  0
CIRCLE
  5
3E4
330
17
100
AcDbEntity
  8
DEBUG_NODE
100
AcDbCircle
 10
61.4473685
 20
10.0
 30
0.0
 40
0.12
  0
CIRCLE
  5
3E5
330
17
100
AcDbEntity
  8
DEBUG_NODE
100
AcDbCircle
 10
71.86403516666667
 20
10.0
 30
0.0
 40
0.12
  0
CIRCLE
  5
3E6
330
17
100
AcDbEntity
  8
DEBUG_NODE
100
AcDbCircle
 10
73.79385966666666
 20
10.0
 30
0.0
 40
0.12
  0
CIRCLE
  5
3E7
330
17
100
AcDbEntity
  8
DEBUG_NODE
100
AcDbCircle
 10
84.21052633333333
 20
10.0
 30
0.0
 40
0.12
  0
CIRCLE
  5
3E8
330
17
100
AcDbEntity
  8
DEBUG_NODE
100
AcDbCircle
 10
86.14035083333333
 20
10.0
 30
0.0
 40
0.12
  0
CIRCLE
  5
3E9
330
17
100
AcDbEntity
  8
DEBUG_NODE
100
AcDbCircle
 10
96.5570175
 20
10.0
 30
0.0
 40
0.12
  0
CIRCLE
  5
3EA
330
17
100
AcDbEntity
  8
DEBUG_NODE
100
AcDbCircle
 10
98.48684216666666
 20
10.0
 30
0.0
 40
0.12
  0
CIRCLE
  5
3EB
330
17
100
AcDbEntity
  8
DEBUG_NODE
100
AcDbCircle
 10
108.90350883333333
 20
10.0
 30
0.0
 40
0.12
  0
CIRCLE
  5
3EC
330
17
100
AcDbEntity
  8
DEBUG_NODE
100
AcDbCircle
 10
110.83333333333333
 20
10.0
 30
0.0
 40
0.12
  0
CIRCLE
  5
3ED
330
17
100
AcDbEntity
  8
DEBUG_NODE
100
AcDbCircle
 10
17.352941176470587
 20
10.0
 30
0.0
 40
0.12
  0
CIRCLE
  5
3EE
330
17
100
AcDbEntity
  8
DEBUG_NODE
100
AcDbCircle
 10
23.195488857679912
 20
10.0
 30
0.0
 40
0.12
  0
CIRCLE
  5
3EF
330
17
100
AcDbEntity
  8
DEBUG_NODE
100
AcDbCircle
 10
29.82758620689655
 20
10.0
 30
0.0
 40
0.12
  0
CIRCLE
  5
3F0
330
17
100
AcDbEntity
  8
DEBUG_NODE
100
AcDbCircle
 10
102.6470588235294
 20
10.0
 30
0.0
 40
0.12
  0
CIRCLE
  5
3F1
330
17
100
AcDbEntity
  8
DEBUG_NODE
100
AcDbCircle
 10
96.8045111423201
 20
10.0
 30
0.0
 40
0.12
  0
CIRCLE
  5
3F2
330
17
100
AcDbEntity
  8
DEBUG_NODE
100
AcDbCircle
 10
90.17241379310344
 20
10.0
 30
0.0
 40
0.12
  0
CIRCLE
  5
3F3
330
17
100
AcDbEntity
  8
DEBUG_NODE
100
AcDbCircle
 10
11.285714116111702
 20
22.0
 30
0.0
 40
0.12
  0
CIRCLE
  5
3F4
330
17
100
AcDbEntity
  8
DEBUG_NODE
100
AcDbCircle
 10
17.413793103448278
 20
22.0
 30
0.0
 40
0.12
  0
CIRCLE
  5
3F5
330
17
100
AcDbEntity
  8
DEBUG_NODE
100
AcDbCircle
 10
108.7142858838883
 20
22.0
 30
0.0
 40
0.12
  0
CIRCLE
  5
3F6
330
17
100
AcDbEntity
  8
DEBUG_NODE
100
AcDbCircle
 10
102.58620689655173
 20
22.0
 30
0.0
 40
0.12
  0
CIRCLE
  5
3F7
330
17
100
AcDbEntity
  8
DEBUG_NODE
100
AcDbCircle
 10
11.285714116111704
 20
58.0
 30
0.0
 40
0.12
  0
CIRCLE
  5
3F8
330
17
100
AcDbEntity
  8
DEBUG_NODE
100
AcDbCircle
 10
17.413793103448278
 20
58.0
 30
0.0
 40
0.12
  0
CIRCLE
  5
3F9
330
17
100
AcDbEntity
  8
DEBUG_NODE
100
AcDbCircle
 10
108.7142858838883
 20
58.0
 30
0.0
 40
0.12
  0
CIRCLE
  5
3FA
330
17
100
AcDbEntity
  8
DEBUG_NODE
100
AcDbCircle
 10
102.58620689655173
 20
58.0
 30
0.0
 40
0.12
  0
CIRCLE
  5
3FB
330
17
100
AcDbEntity
  8
DEBUG_NODE
100
AcDbCircle
 10
9.166666666666666
 20
70.0
 30
0.0
 40
0.12
  0
CIRCLE
  5
3FC
330
17
100
AcDbEntity
  8
DEBUG_NODE
100
AcDbCircle
 10
11.096491166666667
 20
70.0
 30
0.0
 40
0.12
  0
CIRCLE
  5
3FD
330
17
100
AcDbEntity
  8
DEBUG_NODE
100
AcDbCircle
 10
21.513157833333334
 20
70.0
 30
0.0
 40
0.12
  0
CIRCLE
  5
3FE
330
17
100
AcDbEntity
  8
DEBUG_NODE
100
AcDbCircle
 10
23.4429825
 20
70.0
 30
0.0
 40
0.12
  0
CIRCLE
  5
3FF
330
17
100
AcDbEntity
  8
DEBUG_NODE
100
AcDbCircle
 10
33.859649166666664
 20
70.0
 30
0.0
 40
0.12
  0
CIRCLE
  5
400
330
17
100
AcDbEntity
  8
DEBUG_NODE
100
AcDbCircle
 10
35.789473666666666
 20
70.0
 30
0.0
 40
0.12
  0
CIRCLE
  5
401
330
17
100
AcDbEntity
  8
DEBUG_NODE
100
AcDbCircle
 10
46.20614033333334
 20
70.0
 30
0.0
 40
0.12
  0
CIRCLE
  5
402
330
17
100
AcDbEntity
  8
DEBUG_NODE
100
AcDbCircle
 10
48.13596483333333
 20
70.0
 30
0.0
 40
0.12
  0
CIRCLE
  5
403
330
17
100
AcDbEntity
  8
DEBUG_NODE
100
AcDbCircle
 10
58.552631500000004
 20
70.0
 30
0.0
 40
0.12
  0
CIRCLE
  5
404
330
17
100
AcDbEntity
  8
DEBUG_NODE
100
AcDbCircle
 10
61.4473685
 20
70.0
 30
0.0
 40
0.12
  0
CIRCLE
  5
405
330
17
100
AcDbEntity
  8
DEBUG_NODE
100
AcDbCircle
 10
71.86403516666667
 20
70.0
 30
0.0
 40
0.12
  0
CIRCLE
  5
406
330
17
100
AcDbEntity
  8
DEBUG_NODE
100
AcDbCircle
 10
73.79385966666666
 20
70.0
 30
0.0
 40
0.12
  0
CIRCLE
  5
407
330
17
100
AcDbEntity
  8
DEBUG_NODE
100
AcDbCircle
 10
84.21052633333333
 20
70.0
 30
0.0
 40
0.12
  0
CIRCLE
  5
408
330
17
100
AcDbEntity
  8
DEBUG_NODE
100
AcDbCircle
 10
86.14035083333333
 20
70.0
 30
0.0
 40
0.12
  0
CIRCLE
  5
409
330
17
100
AcDbEntity
  8
DEBUG_NODE
100
AcDbCircle
 10
96.5570175
 20
70.0
 30
0.0
 40
0.12
  0
CIRCLE
  5
40A
330
17
100
AcDbEntity
  8
DEBUG_NODE
100
AcDbCircle
 10
98.48684216666666
 20
70.0
 30
0.0
 40
0.12
  0
CIRCLE
  5
40B
330
17
100
AcDbEntity
  8
DEBUG_NODE
100
AcDbCircle
 10
108.90350883333333
 20
70.0
 30
0.0
 40
0.12
  0
CIRCLE
  5
40C
330
17
100
AcDbEntity
  8
DEBUG_NODE
100
AcDbCircle
 10
110.83333333333333
 20
70.0
 30
0.0
 40
0.12
  0
CIRCLE
  5
40D
330
17
100
AcDbEntity
  8
DEBUG_NODE
100
AcDbCircle
 10
17.352941176470587
 20
70.0
 30
0.0
 40
0.12
  0
CIRCLE
  5
40E
330
17
100
AcDbEntity
  8
DEBUG_NODE
100
AcDbCircle
 10
23.195488857679912
 20
70.0
 30
0.0
 40
0.12
  0
CIRCLE
  5
40F
330
17
100
AcDbEntity
  8
DEBUG_NODE
100
AcDbCircle
 10
29.82758620689655
 20
70.0
 30
0.0
 40
0.12
  0
CIRCLE
  5
410
330
17
100
AcDbEntity
  8
DEBUG_NODE
100
AcDbCircle
 10
102.6470588235294
 20
70.0
 30
0.0
 40
0.12
  0
CIRCLE
  5
411
330
17
100
AcDbEntity
  8
DEBUG_NODE
100
AcDbCircle
 10
96.8045111423201
 20
70.0
 30
0.0
 40
0.12
  0
CIRCLE
  5
412
330
17
100
AcDbEntity
  8
DEBUG_NODE
100
AcDbCircle
 10
90.17241379310344
 20
70.0
 30
0.0
 40
0.12
  0
CIRCLE
  5
413
330
17
100
AcDbEntity
  8
DEBUG_NODE
100
AcDbCircle
 10
10.862068965517242
 20
28.333333333333332
 30
0.0
 40
0.12
  0
CIRCLE
  5
414
330
17
100
AcDbEntity
  8
DEBUG_NODE
100
AcDbCircle
 10
10.862068965517238
 20
51.666666666666664
 30
0.0
 40
0.12
  0
CIRCLE
  5
415
330
17
100
AcDbEntity
  8
DEBUG_NODE
100
AcDbCircle
 10
109.13793103448276
 20
28.333333333333332
 30
0.0
 40
0.12
  0
CIRCLE
  5
416
330
17
100
AcDbEntity
  8
DEBUG_NODE
100
AcDbCircle
 10
109.13793103448276
 20
51.666666666666664
 30
0.0
 40
0.12
  0
CIRCLE
  5
417
330
17
100
AcDbEntity
  8
DEBUG_NODE
100
AcDbCircle
 10
11.0
 20
11.0
 30
0.0
 40
0.12
  0
CIRCLE
  5
418
330
17
100
AcDbEntity
  8
DEBUG_NODE
100
AcDbCircle
 10
11.0
 20
10.087999948927997
 30
0.0
 40
0.12
  0
CIRCLE
  5
419
330
17
100
AcDbEntity
  8
DEBUG_NODE
100
AcDbCircle
 10
11.0
 20
16.17142857142857
 30
0.0
 40
0.12
  0
CIRCLE
  5
41A
330
17
100
AcDbEntity
  8
DEBUG_NODE
100
AcDbCircle
 10
10.100000044999998
 20
11.0
 30
0.0
 40
0.12
  0
CIRCLE
  5
41B
330
17
100
AcDbEntity
  8
DEBUG_NODE
100
AcDbCircle
 10
10.558035980737806
 20
10.491071157067106
 30
0.0
 40
0.12
  0
CIRCLE
  5
41C
330
17
100
AcDbEntity
  8
DEBUG_NODE
100
AcDbCircle
 10
7.866894104386769
 20
19.21501715573857
 30
0.0
 40
0.12
  0
CIRCLE
  5
41D
330
17
100
AcDbEntity
  8
DEBUG_NODE
100
AcDbCircle
 10
11.0
 20
22.287878609607436
 30
0.0
 40
0.12
  0
CIRCLE
  5
41E
330
17
100
AcDbEntity
  8
DEBUG_NODE
100
AcDbCircle
 10
11.0
 20
28.2
 30
0.0
 40
0.12
  0
CIRCLE
  5
41F
330
17
100
AcDbEntity
  8
DEBUG_NODE
100
AcDbCircle
 10
7.965116367293129
 20
31.133720844949977
 30
0.0
 40
0.12
  0
CIRCLE
  5
420
330
17
100
AcDbEntity
  8
DEBUG_NODE
100
AcDbCircle
 10
7.965116367293128
 20
48.86627915505002
 30
0.0
 40
0.12
  0
CIRCLE
  5
421
330
17
100
AcDbEntity
  8
DEBUG_NODE
100
AcDbCircle
 10
11.0
 20
57.71212139039256
 30
0.0
 40
0.12
  0
CIRCLE
  5
422
330
17
100
AcDbEntity
  8
DEBUG_NODE
100
AcDbCircle
 10
11.0
 20
51.8
 30
0.0
 40
0.12
  0
CIRCLE
  5
423
330
17
100
AcDbEntity
  8
DEBUG_NODE
100
AcDbCircle
 10
7.866894104386771
 20
60.784982844261435
 30
0.0
 40
0.12
  0
CIRCLE
  5
424
330
17
100
AcDbEntity
  8
DEBUG_NODE
100
AcDbCircle
 10
11.0
 20
69.0
 30
0.0
 40
0.12
  0
CIRCLE
  5
425
330
17
100
AcDbEntity
  8
DEBUG_NODE
100
AcDbCircle
 10
11.0
 20
69.912000051072
 30
0.0
 40
0.12
  0
CIRCLE
  5
426
330
17
100
AcDbEntity
  8
DEBUG_NODE
100
AcDbCircle
 10
11.0
 20
63.82857142857143
 30
0.0
 40
0.12
  0
CIRCLE
  5
427
330
17
100
AcDbEntity
  8
DEBUG_NODE
100
AcDbCircle
 10
10.100000044999998
 20
69.0
 30
0.0
 40
0.12
  0
CIRCLE
  5
428
330
17
100
AcDbEntity
  8
DEBUG_NODE
100
AcDbCircle
 10
10.558035980737804
 20
69.50892884293289
 30
0.0
 40
0.12
  0
CIRCLE
  5
429
330
17
100
AcDbEntity
  8
DEBUG_NODE
100
AcDbCircle
 10
16.323529411764707
 20
69.0
 30
0.0
 40
0.12
  0
CIRCLE
  5
42A
330
17
100
AcDbEntity
  8
DEBUG_NODE
100
AcDbCircle
 10
22.203007629215897
 20
69.0
 30
0.0
 40
0.12
  0
CIRCLE
  5
42B
330
17
100
AcDbEntity
  8
DEBUG_NODE
100
AcDbCircle
 10
19.476967274405858
 20
72.06333963799426
 30
0.0
 40
0.12
  0
CIRCLE
  5
42C
330
17
100
AcDbEntity
  8
DEBUG_NODE
100
AcDbCircle
 10
22.35192687794775
 20
69.15004742101
 30
0.0
 40
0.12
  0
CIRCLE
  5
42D
330
17
100
AcDbEntity
  8
DEBUG_NODE
100
AcDbCircle
 10
28.79310344827586
 20
69.0
 30
0.0
 40
0.12
  0
CIRCLE
  5
42E
330
17
100
AcDbEntity
  8
DEBUG_NODE
100
AcDbCircle
 10
31.745479892641807
 20
71.8539638962204
 30
0.0
 40
0.12
  0
CIRCLE
  5
42F
330
17
100
AcDbEntity
  8
DEBUG_NODE
100
AcDbCircle
 10
91.20689655172414
 20
69.0
 30
0.0
 40
0.12
  0
CIRCLE
  5
430
330
17
100
AcDbEntity
  8
DEBUG_NODE
100
AcDbCircle
 10
88.25452010735819
 20
71.8539638962204
 30
0.0
 40
0.12
  0
CIRCLE
  5
431
330
17
100
AcDbEntity
  8
DEBUG_NODE
100
AcDbCircle
 10
97.79699237078411
 20
69.0
 30
0.0
 40
0.12
  0
CIRCLE
  5
432
330
17
100
AcDbEntity
  8
DEBUG_NODE
100
AcDbCircle
 10
100.52303272559413
 20
72.06333963799426
 30
0.0
 40
0.12
  0
CIRCLE
  5
433
330
17
100
AcDbEntity
  8
DEBUG_NODE
100
AcDbCircle
 10
97.64807312205225
 20
69.15004742101
 30
0.0
 40
0.12
  0
CIRCLE
  5
434
330
17
100
AcDbEntity
  8
DEBUG_NODE
100
AcDbCircle
 10
109.0
 20
69.0
 30
0.0
 40
0.12
  0
CIRCLE
  5
435
330
17
100
AcDbEntity
  8
DEBUG_NODE
100
AcDbCircle
 10
109.899999955
 20
69.0
 30
0.0
 40
0.12
  0
CIRCLE
  5
436
330
17
100
AcDbEntity
  8
DEBUG_NODE
100
AcDbCircle
 10
103.67647058823529
 20
69.0
 30
0.0
 40
0.12
  0
CIRCLE
  5
437
330
17
100
AcDbEntity
  8
DEBUG_NODE
100
AcDbCircle
 10
109.0
 20
69.912000051072
 30
0.0
 40
0.12
  0
CIRCLE
  5
438
330
17
100
AcDbEntity
  8
DEBUG_NODE
100
AcDbCircle
 10
109.4419640192622
 20
69.50892884293289
 30
0.0
 40
0.12
  0
CIRCLE
  5
439
330
17
100
AcDbEntity
  8
DEBUG_NODE
100
AcDbCircle
 10
109.0
 20
11.0
 30
0.0
 40
0.12
  0
CIRCLE
  5
43A
330
17
100
AcDbEntity
  8
DEBUG_NODE
100
AcDbCircle
 10
109.0
 20
10.087999948927997
 30
0.0
 40
0.12
  0
CIRCLE
  5
43B
330
17
100
AcDbEntity
  8
DEBUG_NODE
100
AcDbCircle
 10
109.0
 20
16.17142857142857
 30
0.0
 40
0.12
  0
CIRCLE
  5
43C
330
17
100
AcDbEntity
  8
DEBUG_NODE
100
AcDbCircle
 10
109.899999955
 20
11.0
 30
0.0
 40
0.12
  0
CIRCLE
  5
43D
330
17
100
AcDbEntity
  8
DEBUG_NODE
100
AcDbCircle
 10
109.4419640192622
 20
10.491071157067106
 30
0.0
 40
0.12
  0
CIRCLE
  5
43E
330
17
100
AcDbEntity
  8
DEBUG_NODE
100
AcDbCircle
 10
112.13310589561323
 20
19.21501715573857
 30
0.0
 40
0.12
  0
CIRCLE
  5
43F
330
17
100
AcDbEntity
  8
DEBUG_NODE
100
AcDbCircle
 10
109.0
 20
22.287878609607436
 30
0.0
 40
0.12
  0
CIRCLE
  5
440
330
17
100
AcDbEntity
  8
DEBUG_NODE
100
AcDbCircle
 10
109.0
 20
28.2
 30
0.0
 40
0.12
  0
CIRCLE
  5
441
330
17
100
AcDbEntity
  8
DEBUG_NODE
100
AcDbCircle
 10
112.03488363270687
 20
31.133720844949977
 30
0.0
 40
0.12
  0
CIRCLE
  5
442
330
17
100
AcDbEntity
  8
DEBUG_NODE
100
AcDbCircle
 10
112.03488363270687
 20
48.86627915505002
 30
0.0
 40
0.12
  0
CIRCLE
  5
443
330
17
100
AcDbEntity
  8
DEBUG_NODE
100
AcDbCircle
 10
109.0
 20
57.71212139039256
 30
0.0
 40
0.12
  0
CIRCLE
  5
444
330
17
100
AcDbEntity
  8
DEBUG_NODE
100
AcDbCircle
 10
109.0
 20
51.8
 30
0.0
 40
0.12
  0
CIRCLE
  5
445
330
17
100
AcDbEntity
  8
DEBUG_NODE
100
AcDbCircle
 10
112.13310589561323
 20
60.784982844261435
 30
0.0
 40
0.12
  0
CIRCLE
  5
446
330
17
100
AcDbEntity
  8
DEBUG_NODE
100
AcDbCircle
 10
109.0
 20
63.82857142857143
 30
0.0
 40
0.12
  0
CIRCLE
  5
447
330
17
100
AcDbEntity
  8
DEBUG_NODE
100
AcDbCircle
 10
16.323529411764707
 20
11.0
 30
0.0
 40
0.12
  0
CIRCLE
  5
448
330
17
100
AcDbEntity
  8
DEBUG_NODE
100
AcDbCircle
 10
22.203007629215893
 20
11.0
 30
0.0
 40
0.12
  0
CIRCLE
  5
449
330
17
100
AcDbEntity
  8
DEBUG_NODE
100
AcDbCircle
 10
19.476967274405858
 20
7.936660362005737
 30
0.0
 40
0.12
  0
CIRCLE
  5
44A
330
17
100
AcDbEntity
  8
DEBUG_NODE
100
AcDbCircle
 10
22.35192687794775
 20
10.849952578990006
 30
0.0
 40
0.12
  0
CIRCLE
  5
44B
330
17
100
AcDbEntity
  8
DEBUG_NODE
100
AcDbCircle
 10
28.79310344827586
 20
11.0
 30
0.0
 40
0.12
  0
CIRCLE
  5
44C
330
17
100
AcDbEntity
  8
DEBUG_NODE
100
AcDbCircle
 10
31.745479892641807
 20
8.146036103779588
 30
0.0
 40
0.12
  0
CIRCLE
  5
44D
330
17
100
AcDbEntity
  8
DEBUG_NODE
100
AcDbCircle
 10
91.20689655172414
 20
11.0
 30
0.0
 40
0.12
  0
CIRCLE
  5
44E
330
17
100
AcDbEntity
  8
DEBUG_NODE
100
AcDbCircle
 10
88.25452010735819
 20
8.146036103779588
 30
0.0
 40
0.12
  0
CIRCLE
  5
44F
330
17
100
AcDbEntity
  8
DEBUG_NODE
100
AcDbCircle
 10
97.79699237078411
 20
11.0
 30
0.0
 40
0.12
  0
CIRCLE
  5
450
330
17
100
AcDbEntity
  8
DEBUG_NODE
100
AcDbCircle
 10
100.52303272559413
 20
7.936660362005737
 30
0.0
 40
0.12
  0
CIRCLE
  5
451
330
17
100
AcDbEntity
  8
DEBUG_NODE
100
AcDbCircle
 10
97.64807312205225
 20
10.849952578990004
 30
0.0
 40
0.12
  0
CIRCLE
  5
452
330
17
100
AcDbEntity
  8
DEBUG_NODE
100
AcDbCircle
 10
103.67647058823529
 20
11.0
 30
0.0
 40
0.12
  0
ENDSEC
  0
SECTION
  2
OBJECTS
  0
DICTIONARY
  5
A
330
0
100
AcDbDictionary
281
1
  3
ACAD_COLOR
350
B
  3
ACAD_GROUP
350
C
  3
ACAD_LAYOUT
350
D
  3
ACAD_MATERIAL
350
E
  3
ACAD_MLEADERSTYLE
350
F
  3
ACAD_MLINESTYLE
350
10
  3
ACAD_PLOTSETTINGS
350
11
  3
ACAD_PLOTSTYLENAME
350
12
  3
ACAD_SCALELIST
350
14
  3
ACAD_TABLESTYLE
350
15
  3
ACAD_VISUALSTYLE
350
16
  3
EZDXF_META
350
2D
  0
DICTIONARY
  5
B
330
A
100
AcDbDictionary
281
1
  0
DICTIONARY
  5
C
330
A
100
AcDbDictionary
281
1
  0
DICTIONARY
  5
D
330
A
100
AcDbDictionary
281
1
  3
Model
350
1A
  3
Layout1
350
1E
  0
DICTIONARY
  5
E
330
A
100
AcDbDictionary
281
1
  3
ByBlock
350
1F
  3
ByLayer
350
20
  3
Global
350
21
  0
DICTIONARY
  5
F
330
A
100
AcDbDictionary
281
1
  3
Standard
350
2C
  0
DICTIONARY
  5
10
330
A
100
AcDbDictionary
281
1
  3
Standard
350
22
  0
DICTIONARY
  5
11
330
A
100
AcDbDictionary
281
1
  0
ACDBDICTIONARYWDFLT
  5
12
330
A
100
AcDbDictionary
281
1
  3
Normal
350
13
100
AcDbDictionaryWithDefault
340
13
  0
ACDBPLACEHOLDER
  5
13
330
12
  0
DICTIONARY
  5
14
330
A
100
AcDbDictionary
281
1
  0
DICTIONARY
  5
15
330
A
100
AcDbDictionary
281
1
  0
DICTIONARY
  5
16
330
A
100
AcDbDictionary
281
1
  0
LAYOUT
  5
1A
330
D
100
AcDbPlotSettings
  1

  4
A3
  6

 40
7.5
 41
20.0
 42
7.5
 43
20.0
 44
420.0
 45
297.0
 46
0.0
 47
0.0
 48
0.0
 49
0.0
140
0.0
141
0.0
142
1.0
143
1.0
 70
1024
 72
1
 73
0
 74
5
  7

 75
16
 76
0
 77
2
 78
300
147
1.0
148
0.0
149
0.0
100
AcDbLayout
  1
Model
 70
1
 71
0
 10
0.0
 20
0.0
 11
420.0
 21
297.0
 12
0.0
 22
0.0
 32
0.0
 14
1e+20
 24
1e+20
 34
1e+20
 15
-1e+20
 25
-1e+20
 35
-1e+20
146
0.0
 13
0.0
 23
0.0
 33
0.0
 16
1.0
 26
0.0
 36
0.0
 17
0.0
 27
1.0
 37
0.0
 76
1
330
17
  0
LAYOUT
  5
1E
330
D
100
AcDbPlotSettings
  1

  4
A3
  6

 40
7.5
 41
20.0
 42
7.5
 43
20.0
 44
420.0
 45
297.0
 46
0.0
 47
0.0
 48
0.0
 49
0.0
140
0.0
141
0.0
142
1.0
143
1.0
 70
0
 72
1
 73
0
 74
5
  7

 75
16
 76
0
 77
2
 78
300
147
1.0
148
0.0
149
0.0
100
AcDbLayout
  1
Layout1
 70
1
 71
1
 10
0.0
 20
0.0
 11
420.0
 21
297.0
 12
0.0
 22
0.0
 32
0.0
 14
1e+20
 24
1e+20
 34
1e+20
 15
-1e+20
 25
-1e+20
 35
-1e+20
146
0.0
 13
0.0
 23
0.0
 33
0.0
 16
1.0
 26
0.0
 36
0.0
 17
0.0
 27
1.0
 37
0.0
 76
1
330
1B
  0
MATERIAL
  5
1F
102
{ACAD_REACTORS
330
E
102
}
330
E
100
AcDbMaterial
  1
ByBlock
  2

 70
0
 40
1.0
 71
1
 41
1.0
 91
-1023410177
 42
1.0
 72
1
  3

 73
1
 74
1
 75
1
 44
0.5
 73
0
 45
1.0
 46
1.0
 77
1
  4

 78
1
 79
1
170
1
 48
1.0
171
1
  6

172
1
173
1
174
1
140
1.0
141
1.0
175
1
  7

176
1
177
1
178
1
143
1.0
179
1
  8

270
1
271
1
272
1
145
1.0
146
1.0
273
1
  9

274
1
275
1
276
1
 42
1.0
 72
1
  3

 73
1
 74
1
 75
1
 94
63
  0
MATERIAL
  5
20
102
{ACAD_REACTORS
330
E
102
}
330
E
100
AcDbMaterial
  1
ByLayer
  2

 70
0
 40
1.0
 71
1
 41
1.0
 91
-1023410177
 42
1.0
 72
1
  3

 73
1
 74
1
 75
1
 44
0.5
 73
0
 45
1.0
 46
1.0
 77
1
  4

 78
1
 79
1
170
1
 48
1.0
171
1
  6

172
1
173
1
174
1
140
1.0
141
1.0
175
1
  7

176
1
177
1
178
1
143
1.0
179
1
  8

270
1
271
1
272
1
145
1.0
146
1.0
273
1
  9

274
1
275
1
276
1
 42
1.0
 72
1
  3

 73
1
 74
1
 75
1
 94
63
  0
MATERIAL
  5
21
102
{ACAD_REACTORS
330
E
102
}
330
E
100
AcDbMaterial
  1
Global
  2

 70
0
 40
1.0
 71
1
 41
1.0
 91
-1023410177
 42
1.0
 72
1
  3

 73
1
 74
1
 75
1
 44
0.5
 73
0
 45
1.0
 46
1.0
 77
1
  4

 78
1
 79
1
170
1
 48
1.0
171
1
  6

172
1
173
1
174
1
140
1.0
141
1.0
175
1
  7

176
1
177
1
178
1
143
1.0
179
1
  8

270
1
271
1
272
1
145
1.0
146
1.0
273
1
  9

274
1
275
1
276
1
 42
1.0
 72
1
  3

 73
1
 74
1
 75
1
 94
63
  0
MLINESTYLE
  5
22
102
{ACAD_REACTORS
330
10
102
}
330
10
100
AcDbMlineStyle
  2
Standard
 70
0
  3

 62
256
 51
90.0
 52
90.0
 71
2
 49
0.5
 62
256
  6
BYLAYER
 49
-0.5
 62
256
  6
BYLAYER
  0
MLEADERSTYLE
  5
2C
102
{ACAD_REACTORS
330
F
102
}
330
F
100
AcDbMLeaderStyle
179
2
170
2
171
1
172
0
 90
2
 40
0.0
 41
0.0
173
1
 91
-1056964608
 92
-2
290
1
 42
2.0
291
1
 43
8.0
  3
Standard
 44
4.0
300

342
29
174
1
175
1
176
0
178
1
 93
-1056964608
 45
4.0
292
0
297
0
 46
4.0
 94
-1056964608
 47
1.0
 49
1.0
140
1.0
294
1
141
0.0
177
0
142
1.0
295
0
296
0
143
3.75
271
0
272
9
273
9
  0
DICTIONARY
  5
2D
330
A
100
AcDbDictionary
280
1
281
1
  3
CREATED_BY_EZDXF
350
2E
  3
WRITTEN_BY_EZDXF
350
455
  0
DICTIONARYVAR
  5
2E
330
2D
100
DictionaryVariables
280
0
  1
1.4.3 @ 2026-07-03T08:59:38.496694+00:00
  0
DICTIONARYVAR
  5
455
330
2D
100
DictionaryVariables
280
0
  1
1.4.3 @ 2026-07-03T08:59:38.541276+00:00
  0
ENDSEC
  0
EOF
