  0
SECTION
  2
HEADER
  9
$ACADVER
  1
AC1024
  9
$ACADMAINTVER
 70
6
  9
$DWGCODEPAGE
  3
ANSI_1252
  9
$LASTSAVEDBY
  1
ezdxf
  9
$INSBASE
 10
0.0
 20
0.0
 30
0.0
  9
$EXTMIN
 10
1e+20
 20
1e+20
 30
1e+20
  9
$EXTMAX
 10
-1e+20
 20
-1e+20
 30
-1e+20
  9
$LIMMIN
 10
0.0
 20
0.0
  9
$LIMMAX
 10
420.0
 20
297.0
  9
$ORTHOMODE
 70
0
  9
$REGENMODE
 70
1
  9
$FILLMODE
 70
1
  9
$QTEXTMODE
 70
0
  9
$MIRRTEXT
 70
1
  9
$LTSCALE
 40
1.0
  9
$ATTMODE
 70
1
  9
$TEXTSIZE
 40
2.5
  9
$TRACEWID
 40
1.0
  9
$TEXTSTYLE
  7
Standard
  9
$CLAYER
  8
0
  9
$CELTYPE
  6
ByLayer
  9
$CECOLOR
 62
256
  9
$CELTSCALE
 40
1.0
  9
$DISPSILH
 70
0
  9
$DIMSCALE
 40
1.0
  9
$DIMASZ
 40
2.5
  9
$DIMEXO
 40
0.625
  9
$DIMDLI
 40
3.75
  9
$DIMRND
 40
0.0
  9
$DIMDLE
 40
0.0
  9
$DIMEXE
 40
1.25
  9
$DIMTP
 40
0.0
  9
$DIMTM
 40
0.0
  9
$DIMTXT
 40
2.5
  9
$DIMCEN
 40
2.5
  9
$DIMTSZ
 40
0.0
  9
$DIMTOL
 70
0
  9
$DIMLIM
 70
0
  9
$DIMTIH
 70
0
  9
$DIMTOH
 70
0
  9
$DIMSE1
 70
0
  9
$DIMSE2
 70
0
  9
$DIMTAD
 70
1
  9
$DIMZIN
 70
8
  9
$DIMBLK
  1

  9
$DIMASO
 70
1
  9
$DIMSHO
 70
1
  9
$DIMPOST
  1

  9
$DIMAPOST
  1

  9
$DIMALT
 70
0
  9
$DIMALTD
 70
3
  9
$DIMALTF
 40
0.03937007874
  9
$DIMLFAC
 40
1.0
  9
$DIMTOFL
 70
1
  9
$DIMTVP
 40
0.0
  9
$DIMTIX
 70
0
  9
$DIMSOXD
 70
0
  9
$DIMSAH
 70
0
  9
$DIMBLK1
  1

  9
$DIMBLK2
  1

  9
$DIMSTYLE
  2
ISO-25
  9
$DIMCLRD
 70
0
  9
$DIMCLRE
 70
0
  9
$DIMCLRT
 70
0
  9
$DIMTFAC
 40
1.0
  9
$DIMGAP
 40
0.625
  9
$DIMJUST
 70
0
  9
$DIMSD1
 70
0
  9
$DIMSD2
 70
0
  9
$DIMTOLJ
 70
0
  9
$DIMTZIN
 70
8
  9
$DIMALTZ
 70
0
  9
$DIMALTTZ
 70
0
  9
$DIMUPT
 70
0
  9
$DIMDEC
 70
2
  9
$DIMTDEC
 70
2
  9
$DIMALTU
 70
2
  9
$DIMALTTD
 70
3
  9
$DIMTXSTY
  7
Standard
  9
$DIMAUNIT
 70
0
  9
$DIMADEC
 70
0
  9
$DIMALTRND
 40
0.0
  9
$DIMAZIN
 70
0
  9
$DIMDSEP
 70
44
  9
$DIMATFIT
 70
3
  9
$DIMFRAC
 70
0
  9
$DIMLDRBLK
  1

  9
$DIMLUNIT
 70
2
  9
$DIMLWD
 70
-2
  9
$DIMLWE
 70
-2
  9
$DIMTMOVE
 70
0
  9
$DIMFXL
 40
1.0
  9
$DIMFXLON
 70
0
  9
$DIMJOGANG
 40
0.785398163397
  9
$DIMTFILL
 70
0
  9
$DIMTFILLCLR
 70
0
  9
$DIMARCSYM
 70
0
  9
$DIMLTYPE
  6

  9
$DIMLTEX1
  6

  9
$DIMLTEX2
  6

  9
$DIMTXTDIRECTION
 70
0
  9
$LUNITS
 70
2
  9
$LUPREC
 70
4
  9
$SKETCHINC
 40
1.0
  9
$FILLETRAD
 40
10.0
  9
$AUNITS
 70
0
  9
$AUPREC
 70
2
  9
$MENU
  1
.
  9
$ELEVATION
 40
0.0
  9
$PELEVATION
 40
0.0
  9
$THICKNESS
 40
0.0
  9
$LIMCHECK
 70
0
  9
$CHAMFERA
 40
0.0
  9
$CHAMFERB
 40
0.0
  9
$CHAMFERC
 40
0.0
  9
$CHAMFERD
 40
0.0
  9
$SKPOLY
 70
0
  9
$TDCREATE
 40
2461225.550150463
  9
$TDUCREATE
 40
2458532.153996898
  9
$TDUPDATE
 40
2461225.550150463
  9
$TDUUPDATE
 40
2458532.1544311
  9
$TDINDWG
 40
0.0
  9
$TDUSRTIMER
 40
0.0
  9
$USRTIMER
 70
1
  9
$ANGBASE
 50
0.0
  9
$ANGDIR
 70
0
  9
$PDMODE
 70
0
  9
$PDSIZE
 40
0.0
  9
$PLINEWID
 40
0.0
  9
$SPLFRAME
 70
0
  9
$SPLINETYPE
 70
6
  9
$SPLINESEGS
 70
8
  9
$HANDSEED
  5
7C
  9
$SURFTAB1
 70
6
  9
$SURFTAB2
 70
6
  9
$SURFTYPE
 70
6
  9
$SURFU
 70
6
  9
$SURFV
 70
6
  9
$UCSBASE
  2

  9
$UCSNAME
  2

  9
$UCSORG
 10
0.0
 20
0.0
 30
0.0
  9
$UCSXDIR
 10
1.0
 20
0.0
 30
0.0
  9
$UCSYDIR
 10
0.0
 20
1.0
 30
0.0
  9
$UCSORTHOREF
  2

  9
$UCSORTHOVIEW
 70
0
  9
$UCSORGTOP
 10
0.0
 20
0.0
 30
0.0
  9
$UCSORGBOTTOM
 10
0.0
 20
0.0
 30
0.0
  9
$UCSORGLEFT
 10
0.0
 20
0.0
 30
0.0
  9
$UCSORGRIGHT
 10
0.0
 20
0.0
 30
0.0
  9
$UCSORGFRONT
 10
0.0
 20
0.0
 30
0.0
  9
$UCSORGBACK
 10
0.0
 20
0.0
 30
0.0
  9
$PUCSBASE
  2

  9
$PUCSNAME
  2

  9
$PUCSORG
 10
0.0
 20
0.0
 30
0.0
  9
$PUCSXDIR
 10
1.0
 20
0.0
 30
0.0
  9
$PUCSYDIR
 10
0.0
 20
1.0
 30
0.0
  9
$PUCSORTHOREF
  2

  9
$PUCSORTHOVIEW
 70
0
  9
$PUCSORGTOP
 10
0.0
 20
0.0
 30
0.0
  9
$PUCSORGBOTTOM
 10
0.0
 20
0.0
 30
0.0
  9
$PUCSORGLEFT
 10
0.0
 20
0.0
 30
0.0
  9
$PUCSORGRIGHT
 10
0.0
 20
0.0
 30
0.0
  9
$PUCSORGFRONT
 10
0.0
 20
0.0
 30
0.0
  9
$PUCSORGBACK
 10
0.0
 20
0.0
 30
0.0
  9
$USERI1
 70
0
  9
$USERI2
 70
0
  9
$USERI3
 70
0
  9
$USERI4
 70
0
  9
$USERI5
 70
0
  9
$USERR1
 40
0.0
  9
$USERR2
 40
0.0
  9
$USERR3
 40
0.0
  9
$USERR4
 40
0.0
  9
$USERR5
 40
0.0
  9
$WORLDVIEW
 70
1
  9
$SHADEDGE
 70
3
  9
$SHADEDIF
 70
70
  9
$TILEMODE
 70
1
  9
$MAXACTVP
 70
64
  9
$PINSBASE
 10
0.0
 20
0.0
 30
0.0
  9
$PLIMCHECK
 70
0
  9
$PEXTMIN
 10
1e+20
 20
1e+20
 30
1e+20
  9
$PEXTMAX
 10
-1e+20
 20
-1e+20
 30
-1e+20
  9
$PLIMMIN
 10
0.0
 20
0.0
  9
$PLIMMAX
 10
420.0
 20
297.0
  9
$UNITMODE
 70
0
  9
$VISRETAIN
 70
1
  9
$PLINEGEN
 70
0
  9
$PSLTSCALE
 70
1
  9
$TREEDEPTH
 70
3020
  9
$CMLSTYLE
  2
Standard
  9
$CMLJUST
 70
0
  9
$CMLSCALE
 40
20.0
  9
$PROXYGRAPHICS
 70
1
  9
$MEASUREMENT
 70
1
  9
$CELWEIGHT
370
-1
  9
$ENDCAPS
280
0
  9
$JOINSTYLE
280
0
  9
$LWDISPLAY
290
0
  9
$INSUNITS
 70
6
  9
$HYPERLINKBASE
  1

  9
$STYLESHEET
  1

  9
$XEDIT
290
1
  9
$CEPSNTYPE
380
0
  9
$PSTYLEMODE
290
1
  9
$FINGERPRINTGUID
  2
{D8F7D6DB-42D3-4A92-84FB-55B15C3DE968}
  9
$VERSIONGUID
  2
{BC53CC8C-CAF2-48FF-BB34-045982098D14}
  9
$EXTNAMES
290
1
  9
$PSVPSCALE
 40
0.0
  9
$OLESTARTUP
290
0
  9
$SORTENTS
280
127
  9
$INDEXCTL
280
0
  9
$HIDETEXT
280
1
  9
$XCLIPFRAME
280
1
  9
$HALOGAP
280
0
  9
$OBSCOLOR
 70
257
  9
$OBSLTYPE
280
0
  9
$INTERSECTIONDISPLAY
280
0
  9
$INTERSECTIONCOLOR
 70
257
  9
$DIMASSOC
280
2
  9
$PROJECTNAME
  1

  9
$CAMERADISPLAY
290
0
  9
$LENSLENGTH
 40
50.0
  9
$CAMERAHEIGHT
 40
0.0
  9
$STEPSPERSEC
 40
24.0
  9
$STEPSIZE
 40
100.0
  9
$3DDWFPREC
 40
2.0
  9
$PSOLWIDTH
 40
0.005
  9
$PSOLHEIGHT
 40
0.08
  9
$LOFTANG1
 40
1.570796326795
  9
$LOFTANG2
 40
1.570796326795
  9
$LOFTMAG1
 40
0.0
  9
$LOFTMAG2
 40
0.0
  9
$LOFTPARAM
 70
7
  9
$LOFTNORMALS
280
1
  9
$LATITUDE
 40
37.795
  9
$LONGITUDE
 40
-122.394
  9
$NORTHDIRECTION
 40
0.0
  9
$TIMEZONE
 70
-8000
  9
$LIGHTGLYPHDISPLAY
280
1
  9
$TILEMODELIGHTSYNCH
280
1
  9
$CMATERIAL
347
20
  9
$SOLIDHIST
280
0
  9
$SHOWHIST
280
1
  9
$DWFFRAME
280
2
  9
$DGNFRAME
280
2
  9
$REALWORLDSCALE
290
1
  9
$INTERFERECOLOR
 62
256
  9
$CSHADOW
280
0
  9
$SHADOWPLANELOCATION
 40
0.0
  0
ENDSEC
  0
SECTION
  2
CLASSES
  0
CLASS
  1
ACDBDICTIONARYWDFLT
  2
AcDbDictionaryWithDefault
  3
ObjectDBX Classes
 90
0
 91
0
280
0
281
0
  0
CLASS
  1
SUN
  2
AcDbSun
  3
SCENEOE
 90
1153
 91
0
280
0
281
0
  0
CLASS
  1
VISUALSTYLE
  2
AcDbVisualStyle
  3
ObjectDBX Classes
 90
4095
 91
0
280
0
281
0
  0
CLASS
  1
MATERIAL
  2
AcDbMaterial
  3
ObjectDBX Classes
 90
1153
 91
0
280
0
281
0
  0
CLASS
  1
SCALE
  2
AcDbScale
  3
ObjectDBX Classes
 90
1153
 91
0
280
0
281
0
  0
CLASS
  1
TABLESTYLE
  2
AcDbTableStyle
  3
ObjectDBX Classes
 90
4095
 91
0
280
0
281
0
  0
CLASS
  1
MLEADERSTYLE
  2
AcDbMLeaderStyle
  3
ACDB_MLEADERSTYLE_CLASS
 90
4095
 91
0
280
0
281
0
  0
CLASS
  1
DICTIONARYVAR
  2
AcDbDictionaryVar
  3
ObjectDBX Classes
 90
0
 91
0
280
0
281
0
  0
CLASS
  1
CELLSTYLEMAP
  2
AcDbCellStyleMap
  3
ObjectDBX Classes
 90
1152
 91
0
280
0
281
0
  0
CLASS
  1
MENTALRAYRENDERSETTINGS
  2
AcDbMentalRayRenderSettings
  3
SCENEOE
 90
1024
 91
0
280
0
281
0
  0
CLASS
  1
ACDBDETAILVIEWSTYLE
  2
AcDbDetailViewStyle
  3
ObjectDBX Classes
 90
1025
 91
0
280
0
281
0
  0
CLASS
  1
ACDBSECTIONVIEWSTYLE
  2
AcDbSectionViewStyle
  3
ObjectDBX Classes
 90
1025
 91
0
280
0
281
0
  0
CLASS
  1
RASTERVARIABLES
  2
AcDbRasterVariables
  3
ISM
 90
0
 91
0
280
0
281
0
  0
CLASS
  1
LAYOUT
  2
AcDbLayout
  3
ObjectDBX Classes
 90
0
 91
0
280
0
281
0
  0
CLASS
  1
ACDBPLACEHOLDER
  2
AcDbPlaceHolder
  3
ObjectDBX Classes
 90
0
 91
0
280
0
281
0
  0
ENDSEC
  0
SECTION
  2
TABLES
  0
TABLE
  2
VPORT
  5
8
330
0
100
AcDbSymbolTable
 70
1
  0
VPORT
  5
23
330
8
100
AcDbSymbolTableRecord
100
AcDbViewportTableRecord
  2
*Active
 70
0
 10
0.0
 20
0.0
 11
1.0
 21
1.0
 12
0.0
 22
0.0
 13
0.0
 23
0.0
 14
0.5
 24
0.5
 15
0.5
 25
0.5
 16
0.0
 26
0.0
 36
1.0
 17
0.0
 27
0.0
 37
0.0
 40
1000.0
 41
1.34
 42
50.0
 43
0.0
 44
0.0
 50
0.0
 51
0.0
 71
0
 72
1000
 73
1
 74
3
 75
0
 76
0
 77
0
 78
0
281
0
 65
0
146
0.0
  0
ENDTAB
  0
TABLE
  2
LTYPE
  5
2
330
0
100
AcDbSymbolTable
 70
3
  0
LTYPE
  5
24
330
2
100
AcDbSymbolTableRecord
100
AcDbLinetypeTableRecord
  2
ByBlock
 70
0
  3

 72
65
 73
0
 40
0.0
  0
LTYPE
  5
25
330
2
100
AcDbSymbolTableRecord
100
AcDbLinetypeTableRecord
  2
ByLayer
 70
0
  3

 72
65
 73
0
 40
0.0
  0
LTYPE
  5
26
330
2
100
AcDbSymbolTableRecord
100
AcDbLinetypeTableRecord
  2
Continuous
 70
0
  3

 72
65
 73
0
 40
0.0
  0
ENDTAB
  0
TABLE
  2
LAYER
  5
1
330
0
100
AcDbSymbolTable
 70
17
  0
LAYER
  5
27
330
1
100
AcDbSymbolTableRecord
100
AcDbLayerTableRecord
  2
0
 70
0
 62
7
  6
Continuous
370
-3
390
13
347
21
  0
LAYER
  5
28
330
1
100
AcDbSymbolTableRecord
100
AcDbLayerTableRecord
  2
Defpoints
 70
0
 62
7
  6
Continuous
290
0
370
-3
390
13
347
21
  0
LAYER
  5
2F
330
1
100
AcDbSymbolTableRecord
100
AcDbLayerTableRecord
  2
WALL_REF
 70
0
 62
1
  6
Continuous
370
-3
390
13
347
21
  0
LAYER
  5
30
330
1
100
AcDbSymbolTableRecord
100
AcDbLayerTableRecord
  2
WALING
 70
0
 62
6
  6
Continuous
370
-3
390
13
347
21
  0
LAYER
  5
31
330
1
100
AcDbSymbolTableRecord
100
AcDbLayerTableRecord
  2
STRUT
 70
0
 62
4
  6
Continuous
370
-3
390
13
347
21
  0
LAYER
  5
32
330
1
100
AcDbSymbolTableRecord
100
AcDbLayerTableRecord
  2
CORNER
 70
0
 62
2
  6
Continuous
370
-3
390
13
347
21
  0
LAYER
  5
33
330
1
100
AcDbSymbolTableRecord
100
AcDbLayerTableRecord
  2
TIE
 70
0
 62
8
  6
Continuous
370
-3
390
13
347
21
  0
LAYER
  5
34
330
1
100
AcDbSymbolTableRecord
100
AcDbLayerTableRecord
  2
TRUSS_WEB
 70
0
 62
30
  6
Continuous
370
-3
390
13
347
21
  0
LAYER
  5
35
330
1
100
AcDbSymbolTableRecord
100
AcDbLayerTableRecord
  2
RING_STRUT
 70
0
 62
140
  6
Continuous
370
-3
390
13
347
21
  0
LAYER
  5
36
330
1
100
AcDbSymbolTableRecord
100
AcDbLayerTableRecord
  2
RADIAL_STRUT
 70
0
 62
5
  6
Continuous
370
-3
390
13
347
21
  0
LAYER
  5
37
330
1
100
AcDbSymbolTableRecord
100
AcDbLayerTableRecord
  2
PILLAR
 70
0
 62
7
  6
Continuous
370
-3
390
13
347
21
  0
LAYER
  5
38
330
1
100
AcDbSymbolTableRecord
100
AcDbLayerTableRecord
  2
STRUT_OUTLINE
 70
0
 62
9
  6
Continuous
370
-3
390
13
347
21
  0
LAYER
  5
39
330
1
100
AcDbSymbolTableRecord
100
AcDbLayerTableRecord
  2
WALING_OUTLINE
 70
0
 62
213
  6
Continuous
370
-3
390
13
347
21
  0
LAYER
  5
3A
330
1
100
AcDbSymbolTableRecord
100
AcDbLayerTableRecord
  2
TRUSS_CHORD
 70
0
 62
3
  6
Continuous
370
-3
390
13
347
21
  0
LAYER
  5
3B
330
1
100
AcDbSymbolTableRecord
100
AcDbLayerTableRecord
  2
DEBUG_NODE
 70
0
 62
1
  6
Continuous
370
-3
390
13
347
21
  0
LAYER
  5
3C
330
1
100
AcDbSymbolTableRecord
100
AcDbLayerTableRecord
  2
DEBUG_ISSUE
 70
0
 62
1
  6
Continuous
370
-3
390
13
347
21
  0
LAYER
  5
3D
330
1
100
AcDbSymbolTableRecord
100
AcDbLayerTableRecord
  2
CORE_PROTECTION
 70
0
 62
1
  6
Continuous
370
-3
390
13
347
21
  0
ENDTAB
  0
TABLE
  2
STYLE
  5
5
330
0
100
AcDbSymbolTable
 70
1
  0
STYLE
  5
29
330
5
100
AcDbSymbolTableRecord
100
AcDbTextStyleTableRecord
  2
Standard
 70
0
 40
0.0
 41
1.0
 50
0.0
 71
0
 42
2.5
  3
txt
  4

  0
ENDTAB
  0
TABLE
  2
VIEW
  5
7
330
0
100
AcDbSymbolTable
 70
0
  0
ENDTAB
  0
TABLE
  2
UCS
  5
6
330
0
100
AcDbSymbolTable
 70
0
  0
ENDTAB
  0
TABLE
  2
APPID
  5
3
330
0
100
AcDbSymbolTable
 70
3
  0
APPID
  5
2A
330
3
100
AcDbSymbolTableRecord
100
AcDbRegAppTableRecord
  2
ACAD
 70
0
  0
APPID
  5
79
330
3
100
AcDbSymbolTableRecord
100
AcDbRegAppTableRecord
  2
HATCHBACKGROUNDCOLOR
 70
0
  0
APPID
  5
7A
330
3
100
AcDbSymbolTableRecord
100
AcDbRegAppTableRecord
  2
EZDXF
 70
0
  0
ENDTAB
  0
TABLE
  2
DIMSTYLE
  5
4
330
0
100
AcDbSymbolTable
 70
1
100
AcDbDimStyleTable
  0
DIMSTYLE
105
2B
330
4
100
AcDbSymbolTableRecord
100
AcDbDimStyleTableRecord
  2
Standard
 70
0
 40
1.0
 41
2.5
 42
0.625
 43
3.75
 44
1.25
 45
0.0
 46
0.0
 47
0.0
 48
0.0
 49
2.5
140
2.5
141
2.5
142
0.0
143
0.03937007874
144
1.0
145
0.0
146
1.0
147
0.625
148
0.0
 69
0
 70
0
 71
0
 72
0
 73
0
 74
0
 75
0
 76
0
 77
1
 78
8
 79
3
170
0
171
3
172
1
173
0
174
0
175
0
176
0
177
0
178
0
179
2
271
2
272
2
273
2
274
3
275
0
276
0
277
2
278
44
279
0
280
0
281
0
282
0
283
0
284
8
285
0
286
0
288
0
289
3
290
0
371
-2
372
-2
  0
ENDTAB
  0
TABLE
  2
BLOCK_RECORD
  5
9
330
0
100
AcDbSymbolTable
 70
2
  0
BLOCK_RECORD
  5
17
330
9
100
AcDbSymbolTableRecord
100
AcDbBlockTableRecord
  2
*Model_Space
340
1A
 70
0
280
1
281
0
  0
BLOCK_RECORD
  5
1B
330
9
100
AcDbSymbolTableRecord
100
AcDbBlockTableRecord
  2
*Paper_Space
340
1E
 70
0
280
1
281
0
  0
ENDTAB
  0
ENDSEC
  0
SECTION
  2
BLOCKS
  0
BLOCK
  5
18
330
17
100
AcDbEntity
  8
0
100
AcDbBlockBegin
  2
*Model_Space
 70
0
 10
0.0
 20
0.0
 30
0.0
  3
*Model_Space
  1

  0
ENDBLK
  5
19
330
17
100
AcDbEntity
  8
0
100
AcDbBlockEnd
  0
BLOCK
  5
1C
330
1B
100
AcDbEntity
  8
0
100
AcDbBlockBegin
  2
*Paper_Space
 70
0
 10
0.0
 20
0.0
 30
0.0
  3
*Paper_Space
  1

  0
ENDBLK
  5
1D
330
1B
100
AcDbEntity
  8
0
100
AcDbBlockEnd
  0
ENDSEC
  0
SECTION
  2
ENTITIES
  0
LWPOLYLINE
  5
3E
330
17
100
AcDbEntity
  8
WALL_REF
100
AcDbPolyline
 90
8
 70
1
 10
10.0
 20
0.0
 10
50.0
 20
0.0
 10
60.0
 20
10.0
 10
60.0
 20
30.0
 10
50.0
 20
40.0
 10
10.0
 20
40.0
 10
0.0
 20
30.0
 10
0.0
 20
10.0
  0
LWPOLYLINE
  5
3F
330
17
100
AcDbEntity
  8
WALING
100
AcDbPolyline
 90
9
 70
1
 10
10.828427124746192
 20
2.0
 10
2.0
 20
10.828427124746192
 10
2.0
 20
29.17157287525381
 10
10.828427124746188
 20
38.0
 10
49.171572875253815
 20
38.0
 10
58.0
 20
29.171572875253812
 10
58.0
 20
10.828427124746188
 10
49.171572875253815
 20
2.0
 10
10.828427124746192
 20
2.0
  0
LWPOLYLINE
  5
40
330
17
100
AcDbEntity
  8
RING_STRUT
100
AcDbPolyline
 90
42
 70
1
 10
43.0
 20
20.0
 10
42.84764550914453
 20
21.984440694845368
 10
42.3941530967141
 20
23.9223677817375
 10
41.650152240493725
 20
25.768357892270476
 10
40.63308168996733
 20
27.47914258284207
 10
39.36678071681023
 20
29.01462251029914
 10
37.880930342566295
 20
30.338807326554544
 10
36.21035764065942
 20
31.42065926184225
 10
34.39421941931054
 20
32.2348206237343
 10
32.47508441914069
 20
32.762208159959116
 10
30.497935537970463
 20
32.99046035366053
 10
28.5091154698208
 20
32.914227166875776
 10
26.5552404714434
 20
32.535295440890835
 10
24.68210771677258
 20
31.86254701419515
 10
22.933621849984128
 20
30.91175053971535
 10
21.35076589784765
 20
29.705191880955518
 10
19.970640662314743
 20
28.271151750245277
 10
18.825595109166386
 20
26.643242832812433
 10
17.94246813567277
 20
24.859621933929994
 10
17.341959489588874
 20
22.96209561574079
 10
17.038144584611373
 20
20.99514028687445
 10
17.038144584611373
 20
19.004859713125555
 10
17.34195948958887
 20
17.037904384259217
 10
17.94246813567277
 20
15.140378066070008
 10
18.825595109166382
 20
13.356757167187569
 10
19.970640662314743
 20
11.728848249754721
 10
21.35076589784765
 20
10.294808119044486
 10
22.93362184998412
 20
9.088249460284654
 10
24.682107716772578
 20
8.137452985804853
 10
26.5552404714434
 20
7.464704559109167
 10
28.509115469820788
 20
7.085772833124224
 10
30.49793553797046
 20
7.009539646339469
 10
32.47508441914069
 20
7.237791840040886
 10
34.39421941931053
 20
7.765179376265699
 10
36.21035764065942
 20
8.57934073815775
 10
37.88093034256629
 20
9.661192673445452
 10
39.366780716810226
 20
10.985377489700856
 10
40.63308168996733
 20
12.520857417157934
 10
41.650152240493725
 20
14.23164210772952
 10
42.3941530967141
 20
16.0776322182625
 10
42.84764550914453
 20
18.015559305154625
 10
43.0
 20
20.0
  0
LWPOLYLINE
  5
41
330
17
100
AcDbEntity
  8
RADIAL_STRUT
100
AcDbPolyline
 90
2
 70
0
 10
43.0
 20
20.0
 10
58.0
 20
20.0
  0
LWPOLYLINE
  5
42
330
17
100
AcDbEntity
  8
RADIAL_STRUT
100
AcDbPolyline
 90
2
 70
0
 10
39.95857776054672
 20
28.356238925925012
 10
50.21183205363313
 20
36.959740821620684
  0
LWPOLYLINE
  5
43
330
17
100
AcDbEntity
  8
RADIAL_STRUT
100
AcDbPolyline
 90
2
 70
0
 10
32.257426309670095
 20
32.80250078915871
 10
33.17388565275237
 20
38.0
  0
LWPOLYLINE
  5
44
330
17
100
AcDbEntity
  8
RADIAL_STRUT
100
AcDbPolyline
 90
2
 70
0
 10
23.500000000000004
 20
31.258330249197705
 10
19.60769515458674
 20
38.0
  0
LWPOLYLINE
  5
45
330
17
100
AcDbEntity
  8
RADIAL_STRUT
100
AcDbPolyline
 90
2
 70
0
 10
17.78399592978319
 20
24.446261863233694
 10
2.747519013674363
 20
29.919091888928172
  0
LWPOLYLINE
  5
46
330
17
100
AcDbEntity
  8
RADIAL_STRUT
100
AcDbPolyline
 90
2
 70
0
 10
17.783995929783188
 20
15.553738136766308
 10
2.7475190136743586
 20
10.080908111071833
  0
LWPOLYLINE
  5
47
330
17
100
AcDbEntity
  8
RADIAL_STRUT
100
AcDbPolyline
 90
2
 70
0
 10
23.499999999999993
 20
8.7416697508023
 10
19.607695154586725
 20
2.0
  0
LWPOLYLINE
  5
48
330
17
100
AcDbEntity
  8
RADIAL_STRUT
100
AcDbPolyline
 90
2
 70
0
 10
32.25742630967009
 20
7.197499210841293
 10
33.17388565275236
 20
2.0
  0
LWPOLYLINE
  5
49
330
17
100
AcDbEntity
  8
RADIAL_STRUT
100
AcDbPolyline
 90
2
 70
0
 10
39.95857776054671
 20
11.643761074074986
 10
50.211832053633124
 20
3.0402591783793076
  0
LWPOLYLINE
  5
4A
330
17
100
AcDbEntity
  8
WALING_OUTLINE
100
AcDbPolyline
 90
9
 70
1
 10
10.662741699796953
 20
1.6
 10
1.6
 20
10.662741699796953
 10
1.6
 20
29.337258300203047
 10
10.66274169979695
 20
38.4
 10
49.337258300203054
 20
38.4
 10
58.4
 20
29.33725830020305
 10
58.4
 20
10.66274169979695
 10
49.337258300203054
 20
1.6
 10
10.662741699796953
 20
1.6
  0
LWPOLYLINE
  5
4B
330
17
100
AcDbEntity
  8
STRUT_OUTLINE
100
AcDbPolyline
 90
42
 70
1
 10
43.401177133470135
 20
20.0
 10
43.24412101662138
 20
17.95431990288543
 10
42.776633928339464
 20
15.956588813409171
 10
42.00967336975004
 20
14.053631855110229
 10
40.96121624630078
 20
12.290052726219548
 10
39.65583750433432
 20
10.707188226777987
 10
38.12413411517466
 20
9.342139359078757
 10
36.40200790805202
 20
8.226901711618888
 10
34.52982406165499
 20
7.387615509623314
 10
32.551464978553575
 20
6.843952910320763
 10
30.513301718876292
 20
6.608656904251853
 10
28.463107101962926
 20
6.687242630371192
 10
26.44893595196953
 20
7.077868105864716
 10
24.517998733519644
 20
7.7713774006656555
 10
22.715554978427242
 20
8.7515152446951
 10
21.083852440631222
 20
9.995308037615297
 10
19.66113684465055
 20
11.473602330550111
 10
18.4807554382172
 20
13.151748158217286
 10
17.570375361053102
 20
14.99041120474673
 10
16.951335150564596
 20
16.946494766706333
 10
16.638144584611375
 20
18.974149903303328
 10
16.638144584611375
 20
21.02585009669668
 10
16.951335150564596
 20
23.05350523329367
 10
17.570375361053102
 20
25.009588795253276
 10
18.4807554382172
 20
26.848251841782712
 10
19.661136844650553
 20
28.526397669449892
 10
21.083852440631222
 20
30.004691962384708
 10
22.71555497842723
 20
31.248484755304894
 10
24.517998733519654
 20
32.22862259933436
 10
26.448935951969492
 20
32.922131894135276
 10
28.463107101962972
 20
33.31275736962881
 10
30.513301718876267
 20
33.39134309574815
 10
32.551464978553575
 20
33.15604708967924
 10
34.529824061655
 20
32.612384490376684
 10
36.40200790805203
 20
31.773098288381107
 10
38.12413411517467
 20
30.65786064092124
 10
39.65583750433433
 20
29.292811773222006
 10
40.96121624630077
 20
27.709947273780465
 10
42.00967336975004
 20
25.946368144889767
 10
42.776633928339464
 20
24.043411186590827
 10
43.244121016621385
 20
22.04568009711456
 10
43.401177133470135
 20
20.0
  0
LWPOLYLINE
  5
4C
330
17
100
AcDbEntity
  8
STRUT_OUTLINE
100
AcDbPolyline
 90
5
 70
1
 10
58.0
 20
20.4
 10
58.0
 20
19.6
 10
43.0
 20
19.6
 10
43.0
 20
20.4
 10
58.0
 20
20.4
  0
LWPOLYLINE
  5
4D
330
17
100
AcDbEntity
  8
STRUT_OUTLINE
100
AcDbPolyline
 90
5
 70
1
 10
49.95471700975852
 20
37.26615859886827
 10
50.468947097507744
 20
36.653323044373096
 10
40.21569280442133
 20
28.04982114867742
 10
39.701462716672104
 20
28.662656703172605
 10
49.95471700975852
 20
37.26615859886827
  0
LWPOLYLINE
  5
4E
330
17
100
AcDbEntity
  8
STRUT_OUTLINE
100
AcDbPolyline
 90
5
 70
1
 10
32.779962551547484
 20
38.06945927106677
 10
33.56780875395725
 20
37.93054072893323
 10
32.65134941087498
 20
32.73304151809194
 10
31.86350320846521
 20
32.871960060225476
 10
32.779962551547484
 20
38.06945927106677
  0
LWPOLYLINE
  5
4F
330
17
100
AcDbEntity
  8
STRUT_OUTLINE
100
AcDbPolyline
 90
5
 70
1
 10
19.261284993072962
 20
37.8
 10
19.954105316100517
 20
38.2
 10
23.84641016151378
 20
31.458330249197704
 10
23.153589838486226
 20
31.058330249197706
 10
19.261284993072962
 20
37.8
  0
LWPOLYLINE
  5
50
330
17
100
AcDbEntity
  8
STRUT_OUTLINE
100
AcDbPolyline
 90
5
 70
1
 10
2.6107109563440956
 20
29.543214840613807
 10
2.8843270710046305
 20
30.294968937242537
 10
17.92080398711346
 20
24.82213891154806
 10
17.647187872452925
 20
24.07038481491933
 10
2.6107109563440956
 20
29.543214840613807
  0
LWPOLYLINE
  5
51
330
17
100
AcDbEntity
  8
STRUT_OUTLINE
100
AcDbPolyline
 90
5
 70
1
 10
2.884327071004626
 20
9.70503106275747
 10
2.610710956344091
 20
10.456785159386197
 10
17.64718787245292
 20
15.92961518508067
 10
17.920803987113455
 20
15.177861088451944
 10
2.884327071004626
 20
9.70503106275747
  0
LWPOLYLINE
  5
52
330
17
100
AcDbEntity
  8
STRUT_OUTLINE
100
AcDbPolyline
 90
5
 70
1
 10
19.954105316100502
 20
1.7999999999999998
 10
19.261284993072948
 20
2.2
 10
23.153589838486216
 20
8.9416697508023
 10
23.84641016151377
 20
8.541669750802301
 10
19.954105316100502
 20
1.7999999999999998
  0
LWPOLYLINE
  5
53
330
17
100
AcDbEntity
  8
STRUT_OUTLINE
100
AcDbPolyline
 90
5
 70
1
 10
33.567808753957245
 20
2.069459271066772
 10
32.77996255154748
 20
1.930540728933228
 10
31.863503208465204
 20
7.1280399397745215
 10
32.65134941087497
 20
7.266958481908065
 10
33.567808753957245
 20
2.069459271066772
  0
LWPOLYLINE
  5
54
330
17
100
AcDbEntity
  8
STRUT_OUTLINE
100
AcDbPolyline
 90
5
 70
1
 10
50.46894709750774
 20
3.3466769556268985
 10
49.95471700975851
 20
2.7338414011317167
 10
39.7014627166721
 20
11.337343296827395
 10
40.21569280442132
 20
11.950178851322576
 10
50.46894709750774
 20
3.3466769556268985
  0
LWPOLYLINE
  5
55
330
17
100
AcDbEntity
  8
CORE_PROTECTION
100
AcDbPolyline
 90
42
 70
1
 10
34.0
 20
20.0
 10
33.953121695121396
 20
20.610597136875498
 10
33.81358556821972
 20
21.20688239438077
 10
33.58466222784422
 20
21.77487935146784
 10
33.27171744306687
 20
22.30127464087448
 10
32.88208637440315
 20
22.773730003168968
 10
32.424901643866555
 20
23.181171485093707
 10
31.91087927404905
 20
23.51404900364377
 10
31.35206751363401
 20
23.764560191918246
 10
30.761564436658674
 20
23.92683327998742
 10
30.153210934760143
 20
23.99706472420324
 10
29.5412662984064
 20
23.9736083590387
 10
28.940073991213353
 20
23.857013981812564
 10
28.36372545131464
 20
23.6500144659062
 10
27.825729799995116
 20
23.3574617045278
 10
27.338697199337737
 20
22.986212886447852
 10
26.914043280712228
 20
22.54496976930624
 10
26.561721572051194
 20
22.04407471778844
 10
26.28999019559162
 20
21.495268287363075
 10
26.105218304488883
 20
20.91141403561255
 10
26.011736795265037
 20
20.306197011345983
 10
26.011736795265037
 20
19.693802988654017
 10
26.105218304488883
 20
19.088585964387452
 10
26.28999019559162
 20
18.504731712636925
 10
26.561721572051194
 20
17.95592528221156
 10
26.914043280712228
 20
17.45503023069376
 10
27.338697199337737
 20
17.013787113552148
 10
27.825729799995113
 20
16.6425382954722
 10
28.36372545131464
 20
16.3499855340938
 10
28.940073991213353
 20
16.142986018187436
 10
29.541266298406395
 20
16.0263916409613
 10
30.153210934760143
 20
16.00293527579676
 10
30.761564436658674
 20
16.07316672001258
 10
31.35206751363401
 20
16.235439808081754
 10
31.91087927404905
 20
16.48595099635623
 10
32.42490164386655
 20
16.818828514906293
 10
32.882086374403144
 20
17.226269996831032
 10
33.27171744306687
 20
17.69872535912552
 10
33.58466222784422
 20
18.22512064853216
 10
33.81358556821972
 20
18.79311760561923
 10
33.953121695121396
 20
19.3894028631245
 10
34.0
 20
20.0
  0
LWPOLYLINE
  5
56
330
17
100
AcDbEntity
  8
PILLAR
100
AcDbPolyline
 90
4
 70
1
 10
2.3475190136743587
 20
9.680908111071833
 10
3.1475190136743585
 20
9.680908111071833
 10
3.1475190136743585
 20
10.480908111071834
 10
2.3475190136743587
 20
10.480908111071834
  0
LWPOLYLINE
  5
57
330
17
100
AcDbEntity
  8
PILLAR
100
AcDbPolyline
 90
4
 70
1
 10
2.347519013674363
 20
29.519091888928173
 10
3.147519013674363
 20
29.519091888928173
 10
3.147519013674363
 20
30.31909188892817
 10
2.347519013674363
 20
30.31909188892817
  0
LWPOLYLINE
  5
58
330
17
100
AcDbEntity
  8
PILLAR
100
AcDbPolyline
 90
4
 70
1
 10
17.38399592978319
 20
15.153738136766307
 10
18.183995929783187
 20
15.153738136766307
 10
18.183995929783187
 20
15.953738136766308
 10
17.38399592978319
 20
15.953738136766308
  0
LWPOLYLINE
  5
59
330
17
100
AcDbEntity
  8
PILLAR
100
AcDbPolyline
 90
4
 70
1
 10
17.383995929783193
 20
24.046261863233696
 10
18.18399592978319
 20
24.046261863233696
 10
18.18399592978319
 20
24.846261863233693
 10
17.383995929783193
 20
24.846261863233693
  0
LWPOLYLINE
  5
5A
330
17
100
AcDbEntity
  8
PILLAR
100
AcDbPolyline
 90
4
 70
1
 10
19.207695154586727
 20
1.6
 10
20.007695154586724
 20
1.6
 10
20.007695154586724
 20
2.4
 10
19.207695154586727
 20
2.4
  0
LWPOLYLINE
  5
5B
330
17
100
AcDbEntity
  8
PILLAR
100
AcDbPolyline
 90
4
 70
1
 10
19.20769515458674
 20
37.6
 10
20.007695154586738
 20
37.6
 10
20.007695154586738
 20
38.4
 10
19.20769515458674
 20
38.4
  0
LWPOLYLINE
  5
5C
330
17
100
AcDbEntity
  8
PILLAR
100
AcDbPolyline
 90
4
 70
1
 10
23.099999999999994
 20
8.3416697508023
 10
23.89999999999999
 20
8.3416697508023
 10
23.89999999999999
 20
9.1416697508023
 10
23.099999999999994
 20
9.1416697508023
  0
LWPOLYLINE
  5
5D
330
17
100
AcDbEntity
  8
PILLAR
100
AcDbPolyline
 90
4
 70
1
 10
23.100000000000005
 20
30.858330249197707
 10
23.900000000000002
 20
30.858330249197707
 10
23.900000000000002
 20
31.658330249197704
 10
23.100000000000005
 20
31.658330249197704
  0
LWPOLYLINE
  5
5E
330
17
100
AcDbEntity
  8
PILLAR
100
AcDbPolyline
 90
4
 70
1
 10
31.85742630967009
 20
6.797499210841293
 10
32.657426309670086
 20
6.797499210841293
 10
32.657426309670086
 20
7.597499210841294
 10
31.85742630967009
 20
7.597499210841294
  0
LWPOLYLINE
  5
5F
330
17
100
AcDbEntity
  8
PILLAR
100
AcDbPolyline
 90
4
 70
1
 10
31.857426309670096
 20
32.40250078915871
 10
32.65742630967009
 20
32.40250078915871
 10
32.65742630967009
 20
33.202500789158705
 10
31.857426309670096
 20
33.202500789158705
  0
LWPOLYLINE
  5
60
330
17
100
AcDbEntity
  8
PILLAR
100
AcDbPolyline
 90
4
 70
1
 10
39.55857776054671
 20
11.243761074074985
 10
40.35857776054671
 20
11.243761074074985
 10
40.35857776054671
 20
12.043761074074986
 10
39.55857776054671
 20
12.043761074074986
  0
LWPOLYLINE
  5
61
330
17
100
AcDbEntity
  8
PILLAR
100
AcDbPolyline
 90
4
 70
1
 10
39.55857776054672
 20
27.956238925925014
 10
40.358577760546716
 20
27.956238925925014
 10
40.358577760546716
 20
28.75623892592501
 10
39.55857776054672
 20
28.75623892592501
  0
LWPOLYLINE
  5
62
330
17
100
AcDbEntity
  8
PILLAR
100
AcDbPolyline
 90
4
 70
1
 10
42.6
 20
19.6
 10
43.4
 20
19.6
 10
43.4
 20
20.4
 10
42.6
 20
20.4
  0
LWPOLYLINE
  5
63
330
17
100
AcDbEntity
  8
PILLAR
100
AcDbPolyline
 90
4
 70
1
 10
49.811832053633125
 20
2.6402591783793077
 10
50.61183205363312
 20
2.6402591783793077
 10
50.61183205363312
 20
3.4402591783793075
 10
49.811832053633125
 20
3.4402591783793075
  0
LWPOLYLINE
  5
64
330
17
100
AcDbEntity
  8
PILLAR
100
AcDbPolyline
 90
4
 70
1
 10
49.81183205363313
 20
36.559740821620686
 10
50.61183205363313
 20
36.559740821620686
 10
50.61183205363313
 20
37.35974082162068
 10
49.81183205363313
 20
37.35974082162068
  0
LWPOLYLINE
  5
65
330
17
100
AcDbEntity
  8
PILLAR
100
AcDbPolyline
 90
4
 70
1
 10
57.6
 20
19.6
 10
58.4
 20
19.6
 10
58.4
 20
20.4
 10
57.6
 20
20.4
  0
CIRCLE
  5
66
330
17
100
AcDbEntity
  8
DEBUG_NODE
100
AcDbCircle
 10
10.828427124746192
 20
2.0
 30
0.0
 40
0.12
  0
CIRCLE
  5
67
330
17
100
AcDbEntity
  8
DEBUG_NODE
100
AcDbCircle
 10
43.0
 20
20.0
 30
0.0
 40
0.12
  0
CIRCLE
  5
68
330
17
100
AcDbEntity
  8
DEBUG_NODE
100
AcDbCircle
 10
58.0
 20
20.0
 30
0.0
 40
0.12
  0
CIRCLE
  5
69
330
17
100
AcDbEntity
  8
DEBUG_NODE
100
AcDbCircle
 10
39.95857776054672
 20
28.356238925925012
 30
0.0
 40
0.12
  0
CIRCLE
  5
6A
330
17
100
AcDbEntity
  8
DEBUG_NODE
100
AcDbCircle
 10
50.21183205363313
 20
36.959740821620684
 30
0.0
 40
0.12
  0
CIRCLE
  5
6B
330
17
100
AcDbEntity
  8
DEBUG_NODE
100
AcDbCircle
 10
32.257426309670095
 20
32.80250078915871
 30
0.0
 40
0.12
  0
CIRCLE
  5
6C
330
17
100
AcDbEntity
  8
DEBUG_NODE
100
AcDbCircle
 10
33.17388565275237
 20
38.0
 30
0.0
 40
0.12
  0
CIRCLE
  5
6D
330
17
100
AcDbEntity
  8
DEBUG_NODE
100
AcDbCircle
 10
23.500000000000004
 20
31.258330249197705
 30
0.0
 40
0.12
  0
CIRCLE
  5
6E
330
17
100
AcDbEntity
  8
DEBUG_NODE
100
AcDbCircle
 10
19.60769515458674
 20
38.0
 30
0.0
 40
0.12
  0
CIRCLE
  5
6F
330
17
100
AcDbEntity
  8
DEBUG_NODE
100
AcDbCircle
 10
17.78399592978319
 20
24.446261863233694
 30
0.0
 40
0.12
  0
CIRCLE
  5
70
330
17
100
AcDbEntity
  8
DEBUG_NODE
100
AcDbCircle
 10
2.747519013674363
 20
29.919091888928172
 30
0.0
 40
0.12
  0
CIRCLE
  5
71
330
17
100
AcDbEntity
  8
DEBUG_NODE
100
AcDbCircle
 10
17.783995929783188
 20
15.553738136766308
 30
0.0
 40
0.12
  0
CIRCLE
  5
72
330
17
100
AcDbEntity
  8
DEBUG_NODE
100
AcDbCircle
 10
2.7475190136743586
 20
10.080908111071833
 30
0.0
 40
0.12
  0
CIRCLE
  5
73
330
17
100
AcDbEntity
  8
DEBUG_NODE
100
AcDbCircle
 10
23.499999999999993
 20
8.7416697508023
 30
0.0
 40
0.12
  0
CIRCLE
  5
74
330
17
100
AcDbEntity
  8
DEBUG_NODE
100
AcDbCircle
 10
19.607695154586725
 20
2.0
 30
0.0
 40
0.12
  0
CIRCLE
  5
75
330
17
100
AcDbEntity
  8
DEBUG_NODE
100
AcDbCircle
 10
32.25742630967009
 20
7.197499210841293
 30
0.0
 40
0.12
  0
CIRCLE
  5
76
330
17
100
AcDbEntity
  8
DEBUG_NODE
100
AcDbCircle
 10
33.17388565275236
 20
2.0
 30
0.0
 40
0.12
  0
CIRCLE
  5
77
330
17
100
AcDbEntity
  8
DEBUG_NODE
100
AcDbCircle
 10
39.95857776054671
 20
11.643761074074986
 30
0.0
 40
0.12
  0
CIRCLE
  5
78
330
17
100
AcDbEntity
  8
DEBUG_NODE
100
AcDbCircle
 10
50.211832053633124
 20
3.0402591783793076
 30
0.0
 40
0.12
  0
ENDSEC
  0
SECTION
  2
OBJECTS
  0
DICTIONARY
  5
A
330
0
100
AcDbDictionary
281
1
  3
ACAD_COLOR
350
B
  3
ACAD_GROUP
350
C
  3
ACAD_LAYOUT
350
D
  3
ACAD_MATERIAL
350
E
  3
ACAD_MLEADERSTYLE
350
F
  3
ACAD_MLINESTYLE
350
10
  3
ACAD_PLOTSETTINGS
350
11
  3
ACAD_PLOTSTYLENAME
350
12
  3
ACAD_SCALELIST
350
14
  3
ACAD_TABLESTYLE
350
15
  3
ACAD_VISUALSTYLE
350
16
  3
EZDXF_META
350
2D
  0
DICTIONARY
  5
B
330
A
100
AcDbDictionary
281
1
  0
DICTIONARY
  5
C
330
A
100
AcDbDictionary
281
1
  0
DICTIONARY
  5
D
330
A
100
AcDbDictionary
281
1
  3
Model
350
1A
  3
Layout1
350
1E
  0
DICTIONARY
  5
E
330
A
100
AcDbDictionary
281
1
  3
ByBlock
350
1F
  3
ByLayer
350
20
  3
Global
350
21
  0
DICTIONARY
  5
F
330
A
100
AcDbDictionary
281
1
  3
Standard
350
2C
  0
DICTIONARY
  5
10
330
A
100
AcDbDictionary
281
1
  3
Standard
350
22
  0
DICTIONARY
  5
11
330
A
100
AcDbDictionary
281
1
  0
ACDBDICTIONARYWDFLT
  5
12
330
A
100
AcDbDictionary
281
1
  3
Normal
350
13
100
AcDbDictionaryWithDefault
340
13
  0
ACDBPLACEHOLDER
  5
13
330
12
  0
DICTIONARY
  5
14
330
A
100
AcDbDictionary
281
1
  0
DICTIONARY
  5
15
330
A
100
AcDbDictionary
281
1
  0
DICTIONARY
  5
16
330
A
100
AcDbDictionary
281
1
  0
LAYOUT
  5
1A
330
D
100
AcDbPlotSettings
  1

  4
A3
  6

 40
7.5
 41
20.0
 42
7.5
 43
20.0
 44
420.0
 45
297.0
 46
0.0
 47
0.0
 48
0.0
 49
0.0
140
0.0
141
0.0
142
1.0
143
1.0
 70
1024
 72
1
 73
0
 74
5
  7

 75
16
 76
0
 77
2
 78
300
147
1.0
148
0.0
149
0.0
100
AcDbLayout
  1
Model
 70
1
 71
0
 10
0.0
 20
0.0
 11
420.0
 21
297.0
 12
0.0
 22
0.0
 32
0.0
 14
1e+20
 24
1e+20
 34
1e+20
 15
-1e+20
 25
-1e+20
 35
-1e+20
146
0.0
 13
0.0
 23
0.0
 33
0.0
 16
1.0
 26
0.0
 36
0.0
 17
0.0
 27
1.0
 37
0.0
 76
1
330
17
  0
LAYOUT
  5
1E
330
D
100
AcDbPlotSettings
  1

  4
A3
  6

 40
7.5
 41
20.0
 42
7.5
 43
20.0
 44
420.0
 45
297.0
 46
0.0
 47
0.0
 48
0.0
 49
0.0
140
0.0
141
0.0
142
1.0
143
1.0
 70
0
 72
1
 73
0
 74
5
  7

 75
16
 76
0
 77
2
 78
300
147
1.0
148
0.0
149
0.0
100
AcDbLayout
  1
Layout1
 70
1
 71
1
 10
0.0
 20
0.0
 11
420.0
 21
297.0
 12
0.0
 22
0.0
 32
0.0
 14
1e+20
 24
1e+20
 34
1e+20
 15
-1e+20
 25
-1e+20
 35
-1e+20
146
0.0
 13
0.0
 23
0.0
 33
0.0
 16
1.0
 26
0.0
 36
0.0
 17
0.0
 27
1.0
 37
0.0
 76
1
330
1B
  0
MATERIAL
  5
1F
102
{ACAD_REACTORS
330
E
102
}
330
E
100
AcDbMaterial
  1
ByBlock
  2

 70
0
 40
1.0
 71
1
 41
1.0
 91
-1023410177
 42
1.0
 72
1
  3

 73
1
 74
1
 75
1
 44
0.5
 73
0
 45
1.0
 46
1.0
 77
1
  4

 78
1
 79
1
170
1
 48
1.0
171
1
  6

172
1
173
1
174
1
140
1.0
141
1.0
175
1
  7

176
1
177
1
178
1
143
1.0
179
1
  8

270
1
271
1
272
1
145
1.0
146
1.0
273
1
  9

274
1
275
1
276
1
 42
1.0
 72
1
  3

 73
1
 74
1
 75
1
 94
63
  0
MATERIAL
  5
20
102
{ACAD_REACTORS
330
E
102
}
330
E
100
AcDbMaterial
  1
ByLayer
  2

 70
0
 40
1.0
 71
1
 41
1.0
 91
-1023410177
 42
1.0
 72
1
  3

 73
1
 74
1
 75
1
 44
0.5
 73
0
 45
1.0
 46
1.0
 77
1
  4

 78
1
 79
1
170
1
 48
1.0
171
1
  6

172
1
173
1
174
1
140
1.0
141
1.0
175
1
  7

176
1
177
1
178
1
143
1.0
179
1
  8

270
1
271
1
272
1
145
1.0
146
1.0
273
1
  9

274
1
275
1
276
1
 42
1.0
 72
1
  3

 73
1
 74
1
 75
1
 94
63
  0
MATERIAL
  5
21
102
{ACAD_REACTORS
330
E
102
}
330
E
100
AcDbMaterial
  1
Global
  2

 70
0
 40
1.0
 71
1
 41
1.0
 91
-1023410177
 42
1.0
 72
1
  3

 73
1
 74
1
 75
1
 44
0.5
 73
0
 45
1.0
 46
1.0
 77
1
  4

 78
1
 79
1
170
1
 48
1.0
171
1
  6

172
1
173
1
174
1
140
1.0
141
1.0
175
1
  7

176
1
177
1
178
1
143
1.0
179
1
  8

270
1
271
1
272
1
145
1.0
146
1.0
273
1
  9

274
1
275
1
276
1
 42
1.0
 72
1
  3

 73
1
 74
1
 75
1
 94
63
  0
MLINESTYLE
  5
22
102
{ACAD_REACTORS
330
10
102
}
330
10
100
AcDbMlineStyle
  2
Standard
 70
0
  3

 62
256
 51
90.0
 52
90.0
 71
2
 49
0.5
 62
256
  6
BYLAYER
 49
-0.5
 62
256
  6
BYLAYER
  0
MLEADERSTYLE
  5
2C
102
{ACAD_REACTORS
330
F
102
}
330
F
100
AcDbMLeaderStyle
179
2
170
2
171
1
172
0
 90
2
 40
0.0
 41
0.0
173
1
 91
-1056964608
 92
-2
290
1
 42
2.0
291
1
 43
8.0
  3
Standard
 44
4.0
300

342
29
174
1
175
1
176
0
178
1
 93
-1056964608
 45
4.0
292
0
297
0
 46
4.0
 94
-1056964608
 47
1.0
 49
1.0
140
1.0
294
1
141
0.0
177
0
142
1.0
295
0
296
0
143
3.75
271
0
272
9
273
9
  0
DICTIONARY
  5
2D
330
A
100
AcDbDictionary
280
1
281
1
  3
CREATED_BY_EZDXF
350
2E
  3
WRITTEN_BY_EZDXF
350
7B
  0
DICTIONARYVAR
  5
2E
330
2D
100
DictionaryVariables
280
0
  1
1.4.3 @ 2026-07-03T05:12:13.964191+00:00
  0
DICTIONARYVAR
  5
7B
330
2D
100
DictionaryVariables
280
0
  1
1.4.3 @ 2026-07-03T05:12:13.972931+00:00
  0
ENDSEC
  0
EOF
