  0
SECTION
  2
HEADER
  9
$ACADVER
  1
AC1024
  9
$ACADMAINTVER
 70
6
  9
$DWGCODEPAGE
  3
ANSI_1252
  9
$LASTSAVEDBY
  1
ezdxf
  9
$INSBASE
 10
0.0
 20
0.0
 30
0.0
  9
$EXTMIN
 10
1e+20
 20
1e+20
 30
1e+20
  9
$EXTMAX
 10
-1e+20
 20
-1e+20
 30
-1e+20
  9
$LIMMIN
 10
0.0
 20
0.0
  9
$LIMMAX
 10
420.0
 20
297.0
  9
$ORTHOMODE
 70
0
  9
$REGENMODE
 70
1
  9
$FILLMODE
 70
1
  9
$QTEXTMODE
 70
0
  9
$MIRRTEXT
 70
1
  9
$LTSCALE
 40
1.0
  9
$ATTMODE
 70
1
  9
$TEXTSIZE
 40
2.5
  9
$TRACEWID
 40
1.0
  9
$TEXTSTYLE
  7
Standard
  9
$CLAYER
  8
0
  9
$CELTYPE
  6
ByLayer
  9
$CECOLOR
 62
256
  9
$CELTSCALE
 40
1.0
  9
$DISPSILH
 70
0
  9
$DIMSCALE
 40
1.0
  9
$DIMASZ
 40
2.5
  9
$DIMEXO
 40
0.625
  9
$DIMDLI
 40
3.75
  9
$DIMRND
 40
0.0
  9
$DIMDLE
 40
0.0
  9
$DIMEXE
 40
1.25
  9
$DIMTP
 40
0.0
  9
$DIMTM
 40
0.0
  9
$DIMTXT
 40
2.5
  9
$DIMCEN
 40
2.5
  9
$DIMTSZ
 40
0.0
  9
$DIMTOL
 70
0
  9
$DIMLIM
 70
0
  9
$DIMTIH
 70
0
  9
$DIMTOH
 70
0
  9
$DIMSE1
 70
0
  9
$DIMSE2
 70
0
  9
$DIMTAD
 70
1
  9
$DIMZIN
 70
8
  9
$DIMBLK
  1

  9
$DIMASO
 70
1
  9
$DIMSHO
 70
1
  9
$DIMPOST
  1

  9
$DIMAPOST
  1

  9
$DIMALT
 70
0
  9
$DIMALTD
 70
3
  9
$DIMALTF
 40
0.03937007874
  9
$DIMLFAC
 40
1.0
  9
$DIMTOFL
 70
1
  9
$DIMTVP
 40
0.0
  9
$DIMTIX
 70
0
  9
$DIMSOXD
 70
0
  9
$DIMSAH
 70
0
  9
$DIMBLK1
  1

  9
$DIMBLK2
  1

  9
$DIMSTYLE
  2
ISO-25
  9
$DIMCLRD
 70
0
  9
$DIMCLRE
 70
0
  9
$DIMCLRT
 70
0
  9
$DIMTFAC
 40
1.0
  9
$DIMGAP
 40
0.625
  9
$DIMJUST
 70
0
  9
$DIMSD1
 70
0
  9
$DIMSD2
 70
0
  9
$DIMTOLJ
 70
0
  9
$DIMTZIN
 70
8
  9
$DIMALTZ
 70
0
  9
$DIMALTTZ
 70
0
  9
$DIMUPT
 70
0
  9
$DIMDEC
 70
2
  9
$DIMTDEC
 70
2
  9
$DIMALTU
 70
2
  9
$DIMALTTD
 70
3
  9
$DIMTXSTY
  7
Standard
  9
$DIMAUNIT
 70
0
  9
$DIMADEC
 70
0
  9
$DIMALTRND
 40
0.0
  9
$DIMAZIN
 70
0
  9
$DIMDSEP
 70
44
  9
$DIMATFIT
 70
3
  9
$DIMFRAC
 70
0
  9
$DIMLDRBLK
  1

  9
$DIMLUNIT
 70
2
  9
$DIMLWD
 70
-2
  9
$DIMLWE
 70
-2
  9
$DIMTMOVE
 70
0
  9
$DIMFXL
 40
1.0
  9
$DIMFXLON
 70
0
  9
$DIMJOGANG
 40
0.785398163397
  9
$DIMTFILL
 70
0
  9
$DIMTFILLCLR
 70
0
  9
$DIMARCSYM
 70
0
  9
$DIMLTYPE
  6

  9
$DIMLTEX1
  6

  9
$DIMLTEX2
  6

  9
$DIMTXTDIRECTION
 70
0
  9
$LUNITS
 70
2
  9
$LUPREC
 70
4
  9
$SKETCHINC
 40
1.0
  9
$FILLETRAD
 40
10.0
  9
$AUNITS
 70
0
  9
$AUPREC
 70
2
  9
$MENU
  1
.
  9
$ELEVATION
 40
0.0
  9
$PELEVATION
 40
0.0
  9
$THICKNESS
 40
0.0
  9
$LIMCHECK
 70
0
  9
$CHAMFERA
 40
0.0
  9
$CHAMFERB
 40
0.0
  9
$CHAMFERC
 40
0.0
  9
$CHAMFERD
 40
0.0
  9
$SKPOLY
 70
0
  9
$TDCREATE
 40
2461225.5500810184
  9
$TDUCREATE
 40
2458532.153996898
  9
$TDUPDATE
 40
2461225.5500810184
  9
$TDUUPDATE
 40
2458532.1544311
  9
$TDINDWG
 40
0.0
  9
$TDUSRTIMER
 40
0.0
  9
$USRTIMER
 70
1
  9
$ANGBASE
 50
0.0
  9
$ANGDIR
 70
0
  9
$PDMODE
 70
0
  9
$PDSIZE
 40
0.0
  9
$PLINEWID
 40
0.0
  9
$SPLFRAME
 70
0
  9
$SPLINETYPE
 70
6
  9
$SPLINESEGS
 70
8
  9
$HANDSEED
  5
1FE
  9
$SURFTAB1
 70
6
  9
$SURFTAB2
 70
6
  9
$SURFTYPE
 70
6
  9
$SURFU
 70
6
  9
$SURFV
 70
6
  9
$UCSBASE
  2

  9
$UCSNAME
  2

  9
$UCSORG
 10
0.0
 20
0.0
 30
0.0
  9
$UCSXDIR
 10
1.0
 20
0.0
 30
0.0
  9
$UCSYDIR
 10
0.0
 20
1.0
 30
0.0
  9
$UCSORTHOREF
  2

  9
$UCSORTHOVIEW
 70
0
  9
$UCSORGTOP
 10
0.0
 20
0.0
 30
0.0
  9
$UCSORGBOTTOM
 10
0.0
 20
0.0
 30
0.0
  9
$UCSORGLEFT
 10
0.0
 20
0.0
 30
0.0
  9
$UCSORGRIGHT
 10
0.0
 20
0.0
 30
0.0
  9
$UCSORGFRONT
 10
0.0
 20
0.0
 30
0.0
  9
$UCSORGBACK
 10
0.0
 20
0.0
 30
0.0
  9
$PUCSBASE
  2

  9
$PUCSNAME
  2

  9
$PUCSORG
 10
0.0
 20
0.0
 30
0.0
  9
$PUCSXDIR
 10
1.0
 20
0.0
 30
0.0
  9
$PUCSYDIR
 10
0.0
 20
1.0
 30
0.0
  9
$PUCSORTHOREF
  2

  9
$PUCSORTHOVIEW
 70
0
  9
$PUCSORGTOP
 10
0.0
 20
0.0
 30
0.0
  9
$PUCSORGBOTTOM
 10
0.0
 20
0.0
 30
0.0
  9
$PUCSORGLEFT
 10
0.0
 20
0.0
 30
0.0
  9
$PUCSORGRIGHT
 10
0.0
 20
0.0
 30
0.0
  9
$PUCSORGFRONT
 10
0.0
 20
0.0
 30
0.0
  9
$PUCSORGBACK
 10
0.0
 20
0.0
 30
0.0
  9
$USERI1
 70
0
  9
$USERI2
 70
0
  9
$USERI3
 70
0
  9
$USERI4
 70
0
  9
$USERI5
 70
0
  9
$USERR1
 40
0.0
  9
$USERR2
 40
0.0
  9
$USERR3
 40
0.0
  9
$USERR4
 40
0.0
  9
$USERR5
 40
0.0
  9
$WORLDVIEW
 70
1
  9
$SHADEDGE
 70
3
  9
$SHADEDIF
 70
70
  9
$TILEMODE
 70
1
  9
$MAXACTVP
 70
64
  9
$PINSBASE
 10
0.0
 20
0.0
 30
0.0
  9
$PLIMCHECK
 70
0
  9
$PEXTMIN
 10
1e+20
 20
1e+20
 30
1e+20
  9
$PEXTMAX
 10
-1e+20
 20
-1e+20
 30
-1e+20
  9
$PLIMMIN
 10
0.0
 20
0.0
  9
$PLIMMAX
 10
420.0
 20
297.0
  9
$UNITMODE
 70
0
  9
$VISRETAIN
 70
1
  9
$PLINEGEN
 70
0
  9
$PSLTSCALE
 70
1
  9
$TREEDEPTH
 70
3020
  9
$CMLSTYLE
  2
Standard
  9
$CMLJUST
 70
0
  9
$CMLSCALE
 40
20.0
  9
$PROXYGRAPHICS
 70
1
  9
$MEASUREMENT
 70
1
  9
$CELWEIGHT
370
-1
  9
$ENDCAPS
280
0
  9
$JOINSTYLE
280
0
  9
$LWDISPLAY
290
0
  9
$INSUNITS
 70
6
  9
$HYPERLINKBASE
  1

  9
$STYLESHEET
  1

  9
$XEDIT
290
1
  9
$CEPSNTYPE
380
0
  9
$PSTYLEMODE
290
1
  9
$FINGERPRINTGUID
  2
{AA3B6089-9234-4D66-A086-C5FD09008CC2}
  9
$VERSIONGUID
  2
{96A4A717-19EF-4583-9091-75489E8A8872}
  9
$EXTNAMES
290
1
  9
$PSVPSCALE
 40
0.0
  9
$OLESTARTUP
290
0
  9
$SORTENTS
280
127
  9
$INDEXCTL
280
0
  9
$HIDETEXT
280
1
  9
$XCLIPFRAME
280
1
  9
$HALOGAP
280
0
  9
$OBSCOLOR
 70
257
  9
$OBSLTYPE
280
0
  9
$INTERSECTIONDISPLAY
280
0
  9
$INTERSECTIONCOLOR
 70
257
  9
$DIMASSOC
280
2
  9
$PROJECTNAME
  1

  9
$CAMERADISPLAY
290
0
  9
$LENSLENGTH
 40
50.0
  9
$CAMERAHEIGHT
 40
0.0
  9
$STEPSPERSEC
 40
24.0
  9
$STEPSIZE
 40
100.0
  9
$3DDWFPREC
 40
2.0
  9
$PSOLWIDTH
 40
0.005
  9
$PSOLHEIGHT
 40
0.08
  9
$LOFTANG1
 40
1.570796326795
  9
$LOFTANG2
 40
1.570796326795
  9
$LOFTMAG1
 40
0.0
  9
$LOFTMAG2
 40
0.0
  9
$LOFTPARAM
 70
7
  9
$LOFTNORMALS
280
1
  9
$LATITUDE
 40
37.795
  9
$LONGITUDE
 40
-122.394
  9
$NORTHDIRECTION
 40
0.0
  9
$TIMEZONE
 70
-8000
  9
$LIGHTGLYPHDISPLAY
280
1
  9
$TILEMODELIGHTSYNCH
280
1
  9
$CMATERIAL
347
20
  9
$SOLIDHIST
280
0
  9
$SHOWHIST
280
1
  9
$DWFFRAME
280
2
  9
$DGNFRAME
280
2
  9
$REALWORLDSCALE
290
1
  9
$INTERFERECOLOR
 62
256
  9
$CSHADOW
280
0
  9
$SHADOWPLANELOCATION
 40
0.0
  0
ENDSEC
  0
SECTION
  2
CLASSES
  0
CLASS
  1
ACDBDICTIONARYWDFLT
  2
AcDbDictionaryWithDefault
  3
ObjectDBX Classes
 90
0
 91
0
280
0
281
0
  0
CLASS
  1
SUN
  2
AcDbSun
  3
SCENEOE
 90
1153
 91
0
280
0
281
0
  0
CLASS
  1
VISUALSTYLE
  2
AcDbVisualStyle
  3
ObjectDBX Classes
 90
4095
 91
0
280
0
281
0
  0
CLASS
  1
MATERIAL
  2
AcDbMaterial
  3
ObjectDBX Classes
 90
1153
 91
0
280
0
281
0
  0
CLASS
  1
SCALE
  2
AcDbScale
  3
ObjectDBX Classes
 90
1153
 91
0
280
0
281
0
  0
CLASS
  1
TABLESTYLE
  2
AcDbTableStyle
  3
ObjectDBX Classes
 90
4095
 91
0
280
0
281
0
  0
CLASS
  1
MLEADERSTYLE
  2
AcDbMLeaderStyle
  3
ACDB_MLEADERSTYLE_CLASS
 90
4095
 91
0
280
0
281
0
  0
CLASS
  1
DICTIONARYVAR
  2
AcDbDictionaryVar
  3
ObjectDBX Classes
 90
0
 91
0
280
0
281
0
  0
CLASS
  1
CELLSTYLEMAP
  2
AcDbCellStyleMap
  3
ObjectDBX Classes
 90
1152
 91
0
280
0
281
0
  0
CLASS
  1
MENTALRAYRENDERSETTINGS
  2
AcDbMentalRayRenderSettings
  3
SCENEOE
 90
1024
 91
0
280
0
281
0
  0
CLASS
  1
ACDBDETAILVIEWSTYLE
  2
AcDbDetailViewStyle
  3
ObjectDBX Classes
 90
1025
 91
0
280
0
281
0
  0
CLASS
  1
ACDBSECTIONVIEWSTYLE
  2
AcDbSectionViewStyle
  3
ObjectDBX Classes
 90
1025
 91
0
280
0
281
0
  0
CLASS
  1
RASTERVARIABLES
  2
AcDbRasterVariables
  3
ISM
 90
0
 91
0
280
0
281
0
  0
CLASS
  1
LAYOUT
  2
AcDbLayout
  3
ObjectDBX Classes
 90
0
 91
0
280
0
281
0
  0
CLASS
  1
ACDBPLACEHOLDER
  2
AcDbPlaceHolder
  3
ObjectDBX Classes
 90
0
 91
0
280
0
281
0
  0
ENDSEC
  0
SECTION
  2
TABLES
  0
TABLE
  2
VPORT
  5
8
330
0
100
AcDbSymbolTable
 70
1
  0
VPORT
  5
23
330
8
100
AcDbSymbolTableRecord
100
AcDbViewportTableRecord
  2
*Active
 70
0
 10
0.0
 20
0.0
 11
1.0
 21
1.0
 12
0.0
 22
0.0
 13
0.0
 23
0.0
 14
0.5
 24
0.5
 15
0.5
 25
0.5
 16
0.0
 26
0.0
 36
1.0
 17
0.0
 27
0.0
 37
0.0
 40
1000.0
 41
1.34
 42
50.0
 43
0.0
 44
0.0
 50
0.0
 51
0.0
 71
0
 72
1000
 73
1
 74
3
 75
0
 76
0
 77
0
 78
0
281
0
 65
0
146
0.0
  0
ENDTAB
  0
TABLE
  2
LTYPE
  5
2
330
0
100
AcDbSymbolTable
 70
3
  0
LTYPE
  5
24
330
2
100
AcDbSymbolTableRecord
100
AcDbLinetypeTableRecord
  2
ByBlock
 70
0
  3

 72
65
 73
0
 40
0.0
  0
LTYPE
  5
25
330
2
100
AcDbSymbolTableRecord
100
AcDbLinetypeTableRecord
  2
ByLayer
 70
0
  3

 72
65
 73
0
 40
0.0
  0
LTYPE
  5
26
330
2
100
AcDbSymbolTableRecord
100
AcDbLinetypeTableRecord
  2
Continuous
 70
0
  3

 72
65
 73
0
 40
0.0
  0
ENDTAB
  0
TABLE
  2
LAYER
  5
1
330
0
100
AcDbSymbolTable
 70
17
  0
LAYER
  5
27
330
1
100
AcDbSymbolTableRecord
100
AcDbLayerTableRecord
  2
0
 70
0
 62
7
  6
Continuous
370
-3
390
13
347
21
  0
LAYER
  5
28
330
1
100
AcDbSymbolTableRecord
100
AcDbLayerTableRecord
  2
Defpoints
 70
0
 62
7
  6
Continuous
290
0
370
-3
390
13
347
21
  0
LAYER
  5
2F
330
1
100
AcDbSymbolTableRecord
100
AcDbLayerTableRecord
  2
WALL_REF
 70
0
 62
1
  6
Continuous
370
-3
390
13
347
21
  0
LAYER
  5
30
330
1
100
AcDbSymbolTableRecord
100
AcDbLayerTableRecord
  2
WALING
 70
0
 62
6
  6
Continuous
370
-3
390
13
347
21
  0
LAYER
  5
31
330
1
100
AcDbSymbolTableRecord
100
AcDbLayerTableRecord
  2
STRUT
 70
0
 62
4
  6
Continuous
370
-3
390
13
347
21
  0
LAYER
  5
32
330
1
100
AcDbSymbolTableRecord
100
AcDbLayerTableRecord
  2
CORNER
 70
0
 62
2
  6
Continuous
370
-3
390
13
347
21
  0
LAYER
  5
33
330
1
100
AcDbSymbolTableRecord
100
AcDbLayerTableRecord
  2
TIE
 70
0
 62
8
  6
Continuous
370
-3
390
13
347
21
  0
LAYER
  5
34
330
1
100
AcDbSymbolTableRecord
100
AcDbLayerTableRecord
  2
TRUSS_WEB
 70
0
 62
30
  6
Continuous
370
-3
390
13
347
21
  0
LAYER
  5
35
330
1
100
AcDbSymbolTableRecord
100
AcDbLayerTableRecord
  2
RING_STRUT
 70
0
 62
140
  6
Continuous
370
-3
390
13
347
21
  0
LAYER
  5
36
330
1
100
AcDbSymbolTableRecord
100
AcDbLayerTableRecord
  2
RADIAL_STRUT
 70
0
 62
5
  6
Continuous
370
-3
390
13
347
21
  0
LAYER
  5
37
330
1
100
AcDbSymbolTableRecord
100
AcDbLayerTableRecord
  2
PILLAR
 70
0
 62
7
  6
Continuous
370
-3
390
13
347
21
  0
LAYER
  5
38
330
1
100
AcDbSymbolTableRecord
100
AcDbLayerTableRecord
  2
STRUT_OUTLINE
 70
0
 62
9
  6
Continuous
370
-3
390
13
347
21
  0
LAYER
  5
39
330
1
100
AcDbSymbolTableRecord
100
AcDbLayerTableRecord
  2
WALING_OUTLINE
 70
0
 62
213
  6
Continuous
370
-3
390
13
347
21
  0
LAYER
  5
3A
330
1
100
AcDbSymbolTableRecord
100
AcDbLayerTableRecord
  2
TRUSS_CHORD
 70
0
 62
3
  6
Continuous
370
-3
390
13
347
21
  0
LAYER
  5
3B
330
1
100
AcDbSymbolTableRecord
100
AcDbLayerTableRecord
  2
DEBUG_NODE
 70
0
 62
1
  6
Continuous
370
-3
390
13
347
21
  0
LAYER
  5
3C
330
1
100
AcDbSymbolTableRecord
100
AcDbLayerTableRecord
  2
DEBUG_ISSUE
 70
0
 62
1
  6
Continuous
370
-3
390
13
347
21
  0
LAYER
  5
3D
330
1
100
AcDbSymbolTableRecord
100
AcDbLayerTableRecord
  2
CORE_PROTECTION
 70
0
 62
1
  6
Continuous
370
-3
390
13
347
21
  0
ENDTAB
  0
TABLE
  2
STYLE
  5
5
330
0
100
AcDbSymbolTable
 70
1
  0
STYLE
  5
29
330
5
100
AcDbSymbolTableRecord
100
AcDbTextStyleTableRecord
  2
Standard
 70
0
 40
0.0
 41
1.0
 50
0.0
 71
0
 42
2.5
  3
txt
  4

  0
ENDTAB
  0
TABLE
  2
VIEW
  5
7
330
0
100
AcDbSymbolTable
 70
0
  0
ENDTAB
  0
TABLE
  2
UCS
  5
6
330
0
100
AcDbSymbolTable
 70
0
  0
ENDTAB
  0
TABLE
  2
APPID
  5
3
330
0
100
AcDbSymbolTable
 70
3
  0
APPID
  5
2A
330
3
100
AcDbSymbolTableRecord
100
AcDbRegAppTableRecord
  2
ACAD
 70
0
  0
APPID
  5
1FB
330
3
100
AcDbSymbolTableRecord
100
AcDbRegAppTableRecord
  2
HATCHBACKGROUNDCOLOR
 70
0
  0
APPID
  5
1FC
330
3
100
AcDbSymbolTableRecord
100
AcDbRegAppTableRecord
  2
EZDXF
 70
0
  0
ENDTAB
  0
TABLE
  2
DIMSTYLE
  5
4
330
0
100
AcDbSymbolTable
 70
1
100
AcDbDimStyleTable
  0
DIMSTYLE
105
2B
330
4
100
AcDbSymbolTableRecord
100
AcDbDimStyleTableRecord
  2
Standard
 70
0
 40
1.0
 41
2.5
 42
0.625
 43
3.75
 44
1.25
 45
0.0
 46
0.0
 47
0.0
 48
0.0
 49
2.5
140
2.5
141
2.5
142
0.0
143
0.03937007874
144
1.0
145
0.0
146
1.0
147
0.625
148
0.0
 69
0
 70
0
 71
0
 72
0
 73
0
 74
0
 75
0
 76
0
 77
1
 78
8
 79
3
170
0
171
3
172
1
173
0
174
0
175
0
176
0
177
0
178
0
179
2
271
2
272
2
273
2
274
3
275
0
276
0
277
2
278
44
279
0
280
0
281
0
282
0
283
0
284
8
285
0
286
0
288
0
289
3
290
0
371
-2
372
-2
  0
ENDTAB
  0
TABLE
  2
BLOCK_RECORD
  5
9
330
0
100
AcDbSymbolTable
 70
2
  0
BLOCK_RECORD
  5
17
330
9
100
AcDbSymbolTableRecord
100
AcDbBlockTableRecord
  2
*Model_Space
340
1A
 70
0
280
1
281
0
  0
BLOCK_RECORD
  5
1B
330
9
100
AcDbSymbolTableRecord
100
AcDbBlockTableRecord
  2
*Paper_Space
340
1E
 70
0
280
1
281
0
  0
ENDTAB
  0
ENDSEC
  0
SECTION
  2
BLOCKS
  0
BLOCK
  5
18
330
17
100
AcDbEntity
  8
0
100
AcDbBlockBegin
  2
*Model_Space
 70
0
 10
0.0
 20
0.0
 30
0.0
  3
*Model_Space
  1

  0
ENDBLK
  5
19
330
17
100
AcDbEntity
  8
0
100
AcDbBlockEnd
  0
BLOCK
  5
1C
330
1B
100
AcDbEntity
  8
0
100
AcDbBlockBegin
  2
*Paper_Space
 70
0
 10
0.0
 20
0.0
 30
0.0
  3
*Paper_Space
  1

  0
ENDBLK
  5
1D
330
1B
100
AcDbEntity
  8
0
100
AcDbBlockEnd
  0
ENDSEC
  0
SECTION
  2
ENTITIES
  0
LWPOLYLINE
  5
3E
330
17
100
AcDbEntity
  8
WALL_REF
100
AcDbPolyline
 90
4
 70
1
 10
0.0
 20
0.0
 10
60.0
 20
0.0
 10
60.0
 20
40.0
 10
0.0
 20
40.0
  0
LWPOLYLINE
  5
3F
330
17
100
AcDbEntity
  8
WALING
100
AcDbPolyline
 90
5
 70
1
 10
5.0
 20
5.0
 10
5.0
 20
35.0
 10
55.0
 20
35.0
 10
55.0
 20
5.0
 10
5.0
 20
5.0
  0
LWPOLYLINE
  5
40
330
17
100
AcDbEntity
  8
STRUT
100
AcDbPolyline
 90
2
 70
0
 10
19.666666666666668
 20
5.0
 10
19.666666666666668
 20
35.0
  0
LWPOLYLINE
  5
41
330
17
100
AcDbEntity
  8
STRUT
100
AcDbPolyline
 90
2
 70
0
 10
23.666666666666668
 20
5.0
 10
23.666666666666668
 20
35.0
  0
LWPOLYLINE
  5
42
330
17
100
AcDbEntity
  8
STRUT
100
AcDbPolyline
 90
2
 70
0
 10
36.333333333333336
 20
5.0
 10
36.333333333333336
 20
35.0
  0
LWPOLYLINE
  5
43
330
17
100
AcDbEntity
  8
STRUT
100
AcDbPolyline
 90
2
 70
0
 10
40.333333333333336
 20
5.0
 10
40.333333333333336
 20
35.0
  0
LWPOLYLINE
  5
44
330
17
100
AcDbEntity
  8
STRUT
100
AcDbPolyline
 90
2
 70
0
 10
5.0
 20
18.0
 10
55.0
 20
18.0
  0
LWPOLYLINE
  5
45
330
17
100
AcDbEntity
  8
STRUT
100
AcDbPolyline
 90
2
 70
0
 10
5.0
 20
22.0
 10
55.0
 20
22.0
  0
LWPOLYLINE
  5
46
330
17
100
AcDbEntity
  8
TIE
100
AcDbPolyline
 90
2
 70
0
 10
19.666666666666668
 20
20.0
 10
23.666666666666668
 20
20.0
  0
LWPOLYLINE
  5
47
330
17
100
AcDbEntity
  8
TIE
100
AcDbPolyline
 90
2
 70
0
 10
36.333333333333336
 20
20.0
 10
40.333333333333336
 20
20.0
  0
LWPOLYLINE
  5
48
330
17
100
AcDbEntity
  8
TIE
100
AcDbPolyline
 90
2
 70
0
 10
17.5
 20
18.0
 10
17.5
 20
22.0
  0
LWPOLYLINE
  5
49
330
17
100
AcDbEntity
  8
TIE
100
AcDbPolyline
 90
2
 70
0
 10
30.0
 20
18.0
 10
30.0
 20
22.0
  0
LWPOLYLINE
  5
4A
330
17
100
AcDbEntity
  8
TIE
100
AcDbPolyline
 90
2
 70
0
 10
42.5
 20
18.0
 10
42.5
 20
22.0
  0
LWPOLYLINE
  5
4B
330
17
100
AcDbEntity
  8
TRUSS_CHORD
100
AcDbPolyline
 90
2
 70
0
 10
5.0
 20
5.0
 10
5.0
 20
9.285714
  0
LWPOLYLINE
  5
4C
330
17
100
AcDbEntity
  8
TRUSS_CHORD
100
AcDbPolyline
 90
2
 70
0
 10
9.5
 20
5.0
 10
9.5
 20
9.285714
  0
LWPOLYLINE
  5
4D
330
17
100
AcDbEntity
  8
TRUSS_WEB
100
AcDbPolyline
 90
2
 70
0
 10
5.0
 20
5.0
 10
9.5
 20
9.285714
  0
LWPOLYLINE
  5
4E
330
17
100
AcDbEntity
  8
TRUSS_CHORD
100
AcDbPolyline
 90
2
 70
0
 10
5.0
 20
9.285714
 10
5.0
 20
13.571429
  0
LWPOLYLINE
  5
4F
330
17
100
AcDbEntity
  8
TRUSS_CHORD
100
AcDbPolyline
 90
2
 70
0
 10
9.5
 20
9.285714
 10
9.5
 20
13.571429
  0
LWPOLYLINE
  5
50
330
17
100
AcDbEntity
  8
TRUSS_WEB
100
AcDbPolyline
 90
2
 70
0
 10
9.5
 20
9.285714
 10
5.0
 20
13.571429
  0
LWPOLYLINE
  5
51
330
17
100
AcDbEntity
  8
TRUSS_CHORD
100
AcDbPolyline
 90
2
 70
0
 10
5.0
 20
13.571429
 10
5.0
 20
20.0
  0
LWPOLYLINE
  5
52
330
17
100
AcDbEntity
  8
TRUSS_CHORD
100
AcDbPolyline
 90
2
 70
0
 10
9.5
 20
13.571429
 10
9.5
 20
20.0
  0
LWPOLYLINE
  5
53
330
17
100
AcDbEntity
  8
TRUSS_WEB
100
AcDbPolyline
 90
2
 70
0
 10
5.0
 20
13.571429
 10
9.5
 20
20.0
  0
LWPOLYLINE
  5
54
330
17
100
AcDbEntity
  8
TRUSS_CHORD
100
AcDbPolyline
 90
2
 70
0
 10
5.0
 20
20.0
 10
5.0
 20
26.428571
  0
LWPOLYLINE
  5
55
330
17
100
AcDbEntity
  8
TRUSS_CHORD
100
AcDbPolyline
 90
2
 70
0
 10
9.5
 20
20.0
 10
9.5
 20
26.428571
  0
LWPOLYLINE
  5
56
330
17
100
AcDbEntity
  8
TRUSS_WEB
100
AcDbPolyline
 90
2
 70
0
 10
9.5
 20
20.0
 10
5.0
 20
26.428571
  0
LWPOLYLINE
  5
57
330
17
100
AcDbEntity
  8
TRUSS_CHORD
100
AcDbPolyline
 90
2
 70
0
 10
5.0
 20
26.428571
 10
5.0
 20
30.714286
  0
LWPOLYLINE
  5
58
330
17
100
AcDbEntity
  8
TRUSS_CHORD
100
AcDbPolyline
 90
2
 70
0
 10
9.5
 20
26.428571
 10
9.5
 20
30.714286
  0
LWPOLYLINE
  5
59
330
17
100
AcDbEntity
  8
TRUSS_WEB
100
AcDbPolyline
 90
2
 70
0
 10
5.0
 20
26.428571
 10
9.5
 20
30.714286
  0
LWPOLYLINE
  5
5A
330
17
100
AcDbEntity
  8
TRUSS_CHORD
100
AcDbPolyline
 90
2
 70
0
 10
5.0
 20
30.714286
 10
5.0
 20
35.0
  0
LWPOLYLINE
  5
5B
330
17
100
AcDbEntity
  8
TRUSS_CHORD
100
AcDbPolyline
 90
2
 70
0
 10
9.5
 20
30.714286
 10
9.5
 20
35.0
  0
LWPOLYLINE
  5
5C
330
17
100
AcDbEntity
  8
TRUSS_WEB
100
AcDbPolyline
 90
2
 70
0
 10
9.5
 20
30.714286
 10
5.0
 20
35.0
  0
LWPOLYLINE
  5
5D
330
17
100
AcDbEntity
  8
TRUSS_CHORD
100
AcDbPolyline
 90
2
 70
0
 10
5.0
 20
35.0
 10
9.166667
 20
35.0
  0
LWPOLYLINE
  5
5E
330
17
100
AcDbEntity
  8
TRUSS_CHORD
100
AcDbPolyline
 90
2
 70
0
 10
5.0
 20
30.5
 10
9.166667
 20
30.5
  0
LWPOLYLINE
  5
5F
330
17
100
AcDbEntity
  8
TRUSS_WEB
100
AcDbPolyline
 90
2
 70
0
 10
5.0
 20
35.0
 10
9.166667
 20
30.5
  0
LWPOLYLINE
  5
60
330
17
100
AcDbEntity
  8
TRUSS_CHORD
100
AcDbPolyline
 90
2
 70
0
 10
9.166667
 20
35.0
 10
13.333333
 20
35.0
  0
LWPOLYLINE
  5
61
330
17
100
AcDbEntity
  8
TRUSS_CHORD
100
AcDbPolyline
 90
2
 70
0
 10
9.166667
 20
30.5
 10
13.333333
 20
30.5
  0
LWPOLYLINE
  5
62
330
17
100
AcDbEntity
  8
TRUSS_WEB
100
AcDbPolyline
 90
2
 70
0
 10
9.166667
 20
30.5
 10
13.333333
 20
35.0
  0
LWPOLYLINE
  5
63
330
17
100
AcDbEntity
  8
TRUSS_CHORD
100
AcDbPolyline
 90
2
 70
0
 10
13.333333
 20
35.0
 10
17.5
 20
35.0
  0
LWPOLYLINE
  5
64
330
17
100
AcDbEntity
  8
TRUSS_CHORD
100
AcDbPolyline
 90
2
 70
0
 10
13.333333
 20
30.5
 10
17.5
 20
30.5
  0
LWPOLYLINE
  5
65
330
17
100
AcDbEntity
  8
TRUSS_WEB
100
AcDbPolyline
 90
2
 70
0
 10
13.333333
 20
35.0
 10
17.5
 20
30.5
  0
LWPOLYLINE
  5
66
330
17
100
AcDbEntity
  8
TRUSS_CHORD
100
AcDbPolyline
 90
2
 70
0
 10
17.5
 20
35.0
 10
21.666667
 20
35.0
  0
LWPOLYLINE
  5
67
330
17
100
AcDbEntity
  8
TRUSS_CHORD
100
AcDbPolyline
 90
2
 70
0
 10
17.5
 20
30.5
 10
21.666667
 20
30.5
  0
LWPOLYLINE
  5
68
330
17
100
AcDbEntity
  8
TRUSS_WEB
100
AcDbPolyline
 90
2
 70
0
 10
17.5
 20
30.5
 10
21.666667
 20
35.0
  0
LWPOLYLINE
  5
69
330
17
100
AcDbEntity
  8
TRUSS_CHORD
100
AcDbPolyline
 90
2
 70
0
 10
21.666667
 20
35.0
 10
25.833333
 20
35.0
  0
LWPOLYLINE
  5
6A
330
17
100
AcDbEntity
  8
TRUSS_CHORD
100
AcDbPolyline
 90
2
 70
0
 10
21.666667
 20
30.5
 10
25.833333
 20
30.5
  0
LWPOLYLINE
  5
6B
330
17
100
AcDbEntity
  8
TRUSS_WEB
100
AcDbPolyline
 90
2
 70
0
 10
21.666667
 20
35.0
 10
25.833333
 20
30.5
  0
LWPOLYLINE
  5
6C
330
17
100
AcDbEntity
  8
TRUSS_CHORD
100
AcDbPolyline
 90
2
 70
0
 10
25.833333
 20
35.0
 10
30.0
 20
35.0
  0
LWPOLYLINE
  5
6D
330
17
100
AcDbEntity
  8
TRUSS_CHORD
100
AcDbPolyline
 90
2
 70
0
 10
25.833333
 20
30.5
 10
30.0
 20
30.5
  0
LWPOLYLINE
  5
6E
330
17
100
AcDbEntity
  8
TRUSS_WEB
100
AcDbPolyline
 90
2
 70
0
 10
25.833333
 20
30.5
 10
30.0
 20
35.0
  0
LWPOLYLINE
  5
6F
330
17
100
AcDbEntity
  8
TRUSS_CHORD
100
AcDbPolyline
 90
2
 70
0
 10
30.0
 20
35.0
 10
34.166667
 20
35.0
  0
LWPOLYLINE
  5
70
330
17
100
AcDbEntity
  8
TRUSS_CHORD
100
AcDbPolyline
 90
2
 70
0
 10
30.0
 20
30.5
 10
34.166667
 20
30.5
  0
LWPOLYLINE
  5
71
330
17
100
AcDbEntity
  8
TRUSS_WEB
100
AcDbPolyline
 90
2
 70
0
 10
30.0
 20
35.0
 10
34.166667
 20
30.5
  0
LWPOLYLINE
  5
72
330
17
100
AcDbEntity
  8
TRUSS_CHORD
100
AcDbPolyline
 90
2
 70
0
 10
34.166667
 20
35.0
 10
38.333333
 20
35.0
  0
LWPOLYLINE
  5
73
330
17
100
AcDbEntity
  8
TRUSS_CHORD
100
AcDbPolyline
 90
2
 70
0
 10
34.166667
 20
30.5
 10
38.333333
 20
30.5
  0
LWPOLYLINE
  5
74
330
17
100
AcDbEntity
  8
TRUSS_WEB
100
AcDbPolyline
 90
2
 70
0
 10
34.166667
 20
30.5
 10
38.333333
 20
35.0
  0
LWPOLYLINE
  5
75
330
17
100
AcDbEntity
  8
TRUSS_CHORD
100
AcDbPolyline
 90
2
 70
0
 10
38.333333
 20
35.0
 10
42.5
 20
35.0
  0
LWPOLYLINE
  5
76
330
17
100
AcDbEntity
  8
TRUSS_CHORD
100
AcDbPolyline
 90
2
 70
0
 10
38.333333
 20
30.5
 10
42.5
 20
30.5
  0
LWPOLYLINE
  5
77
330
17
100
AcDbEntity
  8
TRUSS_WEB
100
AcDbPolyline
 90
2
 70
0
 10
38.333333
 20
35.0
 10
42.5
 20
30.5
  0
LWPOLYLINE
  5
78
330
17
100
AcDbEntity
  8
TRUSS_CHORD
100
AcDbPolyline
 90
2
 70
0
 10
42.5
 20
35.0
 10
46.666667
 20
35.0
  0
LWPOLYLINE
  5
79
330
17
100
AcDbEntity
  8
TRUSS_CHORD
100
AcDbPolyline
 90
2
 70
0
 10
42.5
 20
30.5
 10
46.666667
 20
30.5
  0
LWPOLYLINE
  5
7A
330
17
100
AcDbEntity
  8
TRUSS_WEB
100
AcDbPolyline
 90
2
 70
0
 10
42.5
 20
30.5
 10
46.666667
 20
35.0
  0
LWPOLYLINE
  5
7B
330
17
100
AcDbEntity
  8
TRUSS_CHORD
100
AcDbPolyline
 90
2
 70
0
 10
46.666667
 20
35.0
 10
50.833333
 20
35.0
  0
LWPOLYLINE
  5
7C
330
17
100
AcDbEntity
  8
TRUSS_CHORD
100
AcDbPolyline
 90
2
 70
0
 10
46.666667
 20
30.5
 10
50.833333
 20
30.5
  0
LWPOLYLINE
  5
7D
330
17
100
AcDbEntity
  8
TRUSS_WEB
100
AcDbPolyline
 90
2
 70
0
 10
46.666667
 20
35.0
 10
50.833333
 20
30.5
  0
LWPOLYLINE
  5
7E
330
17
100
AcDbEntity
  8
TRUSS_CHORD
100
AcDbPolyline
 90
2
 70
0
 10
50.833333
 20
35.0
 10
55.0
 20
35.0
  0
LWPOLYLINE
  5
7F
330
17
100
AcDbEntity
  8
TRUSS_CHORD
100
AcDbPolyline
 90
2
 70
0
 10
50.833333
 20
30.5
 10
55.0
 20
30.5
  0
LWPOLYLINE
  5
80
330
17
100
AcDbEntity
  8
TRUSS_WEB
100
AcDbPolyline
 90
2
 70
0
 10
50.833333
 20
30.5
 10
55.0
 20
35.0
  0
LWPOLYLINE
  5
81
330
17
100
AcDbEntity
  8
TRUSS_CHORD
100
AcDbPolyline
 90
2
 70
0
 10
55.0
 20
5.0
 10
55.0
 20
9.285714
  0
LWPOLYLINE
  5
82
330
17
100
AcDbEntity
  8
TRUSS_CHORD
100
AcDbPolyline
 90
2
 70
0
 10
50.5
 20
5.0
 10
50.5
 20
9.285714
  0
LWPOLYLINE
  5
83
330
17
100
AcDbEntity
  8
TRUSS_WEB
100
AcDbPolyline
 90
2
 70
0
 10
55.0
 20
5.0
 10
50.5
 20
9.285714
  0
LWPOLYLINE
  5
84
330
17
100
AcDbEntity
  8
TRUSS_CHORD
100
AcDbPolyline
 90
2
 70
0
 10
55.0
 20
9.285714
 10
55.0
 20
13.571429
  0
LWPOLYLINE
  5
85
330
17
100
AcDbEntity
  8
TRUSS_CHORD
100
AcDbPolyline
 90
2
 70
0
 10
50.5
 20
9.285714
 10
50.5
 20
13.571429
  0
LWPOLYLINE
  5
86
330
17
100
AcDbEntity
  8
TRUSS_WEB
100
AcDbPolyline
 90
2
 70
0
 10
50.5
 20
9.285714
 10
55.0
 20
13.571429
  0
LWPOLYLINE
  5
87
330
17
100
AcDbEntity
  8
TRUSS_CHORD
100
AcDbPolyline
 90
2
 70
0
 10
55.0
 20
13.571429
 10
55.0
 20
20.0
  0
LWPOLYLINE
  5
88
330
17
100
AcDbEntity
  8
TRUSS_CHORD
100
AcDbPolyline
 90
2
 70
0
 10
50.5
 20
13.571429
 10
50.5
 20
20.0
  0
LWPOLYLINE
  5
89
330
17
100
AcDbEntity
  8
TRUSS_WEB
100
AcDbPolyline
 90
2
 70
0
 10
55.0
 20
13.571429
 10
50.5
 20
20.0
  0
LWPOLYLINE
  5
8A
330
17
100
AcDbEntity
  8
TRUSS_CHORD
100
AcDbPolyline
 90
2
 70
0
 10
55.0
 20
20.0
 10
55.0
 20
26.428571
  0
LWPOLYLINE
  5
8B
330
17
100
AcDbEntity
  8
TRUSS_CHORD
100
AcDbPolyline
 90
2
 70
0
 10
50.5
 20
20.0
 10
50.5
 20
26.428571
  0
LWPOLYLINE
  5
8C
330
17
100
AcDbEntity
  8
TRUSS_WEB
100
AcDbPolyline
 90
2
 70
0
 10
50.5
 20
20.0
 10
55.0
 20
26.428571
  0
LWPOLYLINE
  5
8D
330
17
100
AcDbEntity
  8
TRUSS_CHORD
100
AcDbPolyline
 90
2
 70
0
 10
55.0
 20
26.428571
 10
55.0
 20
30.714286
  0
LWPOLYLINE
  5
8E
330
17
100
AcDbEntity
  8
TRUSS_CHORD
100
AcDbPolyline
 90
2
 70
0
 10
50.5
 20
26.428571
 10
50.5
 20
30.714286
  0
LWPOLYLINE
  5
8F
330
17
100
AcDbEntity
  8
TRUSS_WEB
100
AcDbPolyline
 90
2
 70
0
 10
55.0
 20
26.428571
 10
50.5
 20
30.714286
  0
LWPOLYLINE
  5
90
330
17
100
AcDbEntity
  8
TRUSS_CHORD
100
AcDbPolyline
 90
2
 70
0
 10
55.0
 20
30.714286
 10
55.0
 20
35.0
  0
LWPOLYLINE
  5
91
330
17
100
AcDbEntity
  8
TRUSS_CHORD
100
AcDbPolyline
 90
2
 70
0
 10
50.5
 20
30.714286
 10
50.5
 20
35.0
  0
LWPOLYLINE
  5
92
330
17
100
AcDbEntity
  8
TRUSS_WEB
100
AcDbPolyline
 90
2
 70
0
 10
50.5
 20
30.714286
 10
55.0
 20
35.0
  0
LWPOLYLINE
  5
93
330
17
100
AcDbEntity
  8
TRUSS_CHORD
100
AcDbPolyline
 90
2
 70
0
 10
5.0
 20
5.0
 10
9.166667
 20
5.0
  0
LWPOLYLINE
  5
94
330
17
100
AcDbEntity
  8
TRUSS_CHORD
100
AcDbPolyline
 90
2
 70
0
 10
5.0
 20
9.5
 10
9.166667
 20
9.5
  0
LWPOLYLINE
  5
95
330
17
100
AcDbEntity
  8
TRUSS_WEB
100
AcDbPolyline
 90
2
 70
0
 10
5.0
 20
5.0
 10
9.166667
 20
9.5
  0
LWPOLYLINE
  5
96
330
17
100
AcDbEntity
  8
TRUSS_CHORD
100
AcDbPolyline
 90
2
 70
0
 10
9.166667
 20
5.0
 10
13.333333
 20
5.0
  0
LWPOLYLINE
  5
97
330
17
100
AcDbEntity
  8
TRUSS_CHORD
100
AcDbPolyline
 90
2
 70
0
 10
9.166667
 20
9.5
 10
13.333333
 20
9.5
  0
LWPOLYLINE
  5
98
330
17
100
AcDbEntity
  8
TRUSS_WEB
100
AcDbPolyline
 90
2
 70
0
 10
9.166667
 20
9.5
 10
13.333333
 20
5.0
  0
LWPOLYLINE
  5
99
330
17
100
AcDbEntity
  8
TRUSS_CHORD
100
AcDbPolyline
 90
2
 70
0
 10
13.333333
 20
5.0
 10
17.5
 20
5.0
  0
LWPOLYLINE
  5
9A
330
17
100
AcDbEntity
  8
TRUSS_CHORD
100
AcDbPolyline
 90
2
 70
0
 10
13.333333
 20
9.5
 10
17.5
 20
9.5
  0
LWPOLYLINE
  5
9B
330
17
100
AcDbEntity
  8
TRUSS_WEB
100
AcDbPolyline
 90
2
 70
0
 10
13.333333
 20
5.0
 10
17.5
 20
9.5
  0
LWPOLYLINE
  5
9C
330
17
100
AcDbEntity
  8
TRUSS_CHORD
100
AcDbPolyline
 90
2
 70
0
 10
17.5
 20
5.0
 10
21.666667
 20
5.0
  0
LWPOLYLINE
  5
9D
330
17
100
AcDbEntity
  8
TRUSS_CHORD
100
AcDbPolyline
 90
2
 70
0
 10
17.5
 20
9.5
 10
21.666667
 20
9.5
  0
LWPOLYLINE
  5
9E
330
17
100
AcDbEntity
  8
TRUSS_WEB
100
AcDbPolyline
 90
2
 70
0
 10
17.5
 20
9.5
 10
21.666667
 20
5.0
  0
LWPOLYLINE
  5
9F
330
17
100
AcDbEntity
  8
TRUSS_CHORD
100
AcDbPolyline
 90
2
 70
0
 10
21.666667
 20
5.0
 10
25.833333
 20
5.0
  0
LWPOLYLINE
  5
A0
330
17
100
AcDbEntity
  8
TRUSS_CHORD
100
AcDbPolyline
 90
2
 70
0
 10
21.666667
 20
9.5
 10
25.833333
 20
9.5
  0
LWPOLYLINE
  5
A1
330
17
100
AcDbEntity
  8
TRUSS_WEB
100
AcDbPolyline
 90
2
 70
0
 10
21.666667
 20
5.0
 10
25.833333
 20
9.5
  0
LWPOLYLINE
  5
A2
330
17
100
AcDbEntity
  8
TRUSS_CHORD
100
AcDbPolyline
 90
2
 70
0
 10
25.833333
 20
5.0
 10
30.0
 20
5.0
  0
LWPOLYLINE
  5
A3
330
17
100
AcDbEntity
  8
TRUSS_CHORD
100
AcDbPolyline
 90
2
 70
0
 10
25.833333
 20
9.5
 10
30.0
 20
9.5
  0
LWPOLYLINE
  5
A4
330
17
100
AcDbEntity
  8
TRUSS_WEB
100
AcDbPolyline
 90
2
 70
0
 10
25.833333
 20
9.5
 10
30.0
 20
5.0
  0
LWPOLYLINE
  5
A5
330
17
100
AcDbEntity
  8
TRUSS_CHORD
100
AcDbPolyline
 90
2
 70
0
 10
30.0
 20
5.0
 10
34.166667
 20
5.0
  0
LWPOLYLINE
  5
A6
330
17
100
AcDbEntity
  8
TRUSS_CHORD
100
AcDbPolyline
 90
2
 70
0
 10
30.0
 20
9.5
 10
34.166667
 20
9.5
  0
LWPOLYLINE
  5
A7
330
17
100
AcDbEntity
  8
TRUSS_WEB
100
AcDbPolyline
 90
2
 70
0
 10
30.0
 20
5.0
 10
34.166667
 20
9.5
  0
LWPOLYLINE
  5
A8
330
17
100
AcDbEntity
  8
TRUSS_CHORD
100
AcDbPolyline
 90
2
 70
0
 10
34.166667
 20
5.0
 10
38.333333
 20
5.0
  0
LWPOLYLINE
  5
A9
330
17
100
AcDbEntity
  8
TRUSS_CHORD
100
AcDbPolyline
 90
2
 70
0
 10
34.166667
 20
9.5
 10
38.333333
 20
9.5
  0
LWPOLYLINE
  5
AA
330
17
100
AcDbEntity
  8
TRUSS_WEB
100
AcDbPolyline
 90
2
 70
0
 10
34.166667
 20
9.5
 10
38.333333
 20
5.0
  0
LWPOLYLINE
  5
AB
330
17
100
AcDbEntity
  8
TRUSS_CHORD
100
AcDbPolyline
 90
2
 70
0
 10
38.333333
 20
5.0
 10
42.5
 20
5.0
  0
LWPOLYLINE
  5
AC
330
17
100
AcDbEntity
  8
TRUSS_CHORD
100
AcDbPolyline
 90
2
 70
0
 10
38.333333
 20
9.5
 10
42.5
 20
9.5
  0
LWPOLYLINE
  5
AD
330
17
100
AcDbEntity
  8
TRUSS_WEB
100
AcDbPolyline
 90
2
 70
0
 10
38.333333
 20
5.0
 10
42.5
 20
9.5
  0
LWPOLYLINE
  5
AE
330
17
100
AcDbEntity
  8
TRUSS_CHORD
100
AcDbPolyline
 90
2
 70
0
 10
42.5
 20
5.0
 10
46.666667
 20
5.0
  0
LWPOLYLINE
  5
AF
330
17
100
AcDbEntity
  8
TRUSS_CHORD
100
AcDbPolyline
 90
2
 70
0
 10
42.5
 20
9.5
 10
46.666667
 20
9.5
  0
LWPOLYLINE
  5
B0
330
17
100
AcDbEntity
  8
TRUSS_WEB
100
AcDbPolyline
 90
2
 70
0
 10
42.5
 20
9.5
 10
46.666667
 20
5.0
  0
LWPOLYLINE
  5
B1
330
17
100
AcDbEntity
  8
TRUSS_CHORD
100
AcDbPolyline
 90
2
 70
0
 10
46.666667
 20
5.0
 10
50.833333
 20
5.0
  0
LWPOLYLINE
  5
B2
330
17
100
AcDbEntity
  8
TRUSS_CHORD
100
AcDbPolyline
 90
2
 70
0
 10
46.666667
 20
9.5
 10
50.833333
 20
9.5
  0
LWPOLYLINE
  5
B3
330
17
100
AcDbEntity
  8
TRUSS_WEB
100
AcDbPolyline
 90
2
 70
0
 10
46.666667
 20
5.0
 10
50.833333
 20
9.5
  0
LWPOLYLINE
  5
B4
330
17
100
AcDbEntity
  8
TRUSS_CHORD
100
AcDbPolyline
 90
2
 70
0
 10
50.833333
 20
5.0
 10
55.0
 20
5.0
  0
LWPOLYLINE
  5
B5
330
17
100
AcDbEntity
  8
TRUSS_CHORD
100
AcDbPolyline
 90
2
 70
0
 10
50.833333
 20
9.5
 10
55.0
 20
9.5
  0
LWPOLYLINE
  5
B6
330
17
100
AcDbEntity
  8
TRUSS_WEB
100
AcDbPolyline
 90
2
 70
0
 10
50.833333
 20
9.5
 10
55.0
 20
5.0
  0
LWPOLYLINE
  5
B7
330
17
100
AcDbEntity
  8
WALING_OUTLINE
100
AcDbPolyline
 90
5
 70
1
 10
4.6
 20
4.6
 10
4.6
 20
35.4
 10
55.4
 20
35.4
 10
55.4
 20
4.6
 10
4.6
 20
4.6
  0
LWPOLYLINE
  5
B8
330
17
100
AcDbEntity
  8
STRUT_OUTLINE
100
AcDbPolyline
 90
5
 70
1
 10
19.26666666666667
 20
35.0
 10
20.066666666666666
 20
35.0
 10
20.066666666666666
 20
5.0
 10
19.26666666666667
 20
5.0
 10
19.26666666666667
 20
35.0
  0
LWPOLYLINE
  5
B9
330
17
100
AcDbEntity
  8
STRUT_OUTLINE
100
AcDbPolyline
 90
5
 70
1
 10
23.26666666666667
 20
35.0
 10
24.066666666666666
 20
35.0
 10
24.066666666666666
 20
5.0
 10
23.26666666666667
 20
5.0
 10
23.26666666666667
 20
35.0
  0
LWPOLYLINE
  5
BA
330
17
100
AcDbEntity
  8
STRUT_OUTLINE
100
AcDbPolyline
 90
5
 70
1
 10
35.93333333333334
 20
35.0
 10
36.733333333333334
 20
35.0
 10
36.733333333333334
 20
5.0
 10
35.93333333333334
 20
5.0
 10
35.93333333333334
 20
35.0
  0
LWPOLYLINE
  5
BB
330
17
100
AcDbEntity
  8
STRUT_OUTLINE
100
AcDbPolyline
 90
5
 70
1
 10
39.93333333333334
 20
35.0
 10
40.733333333333334
 20
35.0
 10
40.733333333333334
 20
5.0
 10
39.93333333333334
 20
5.0
 10
39.93333333333334
 20
35.0
  0
LWPOLYLINE
  5
BC
330
17
100
AcDbEntity
  8
STRUT_OUTLINE
100
AcDbPolyline
 90
5
 70
1
 10
55.0
 20
18.4
 10
55.0
 20
17.6
 10
5.0
 20
17.6
 10
5.0
 20
18.4
 10
55.0
 20
18.4
  0
LWPOLYLINE
  5
BD
330
17
100
AcDbEntity
  8
STRUT_OUTLINE
100
AcDbPolyline
 90
5
 70
1
 10
55.0
 20
22.4
 10
55.0
 20
21.6
 10
5.0
 20
21.6
 10
5.0
 20
22.4
 10
55.0
 20
22.4
  0
LWPOLYLINE
  5
BE
330
17
100
AcDbEntity
  8
STRUT_OUTLINE
100
AcDbPolyline
 90
5
 70
1
 10
23.666666666666668
 20
20.15
 10
23.666666666666668
 20
19.85
 10
19.666666666666668
 20
19.85
 10
19.666666666666668
 20
20.15
 10
23.666666666666668
 20
20.15
  0
LWPOLYLINE
  5
BF
330
17
100
AcDbEntity
  8
STRUT_OUTLINE
100
AcDbPolyline
 90
5
 70
1
 10
40.333333333333336
 20
20.15
 10
40.333333333333336
 20
19.85
 10
36.333333333333336
 20
19.85
 10
36.333333333333336
 20
20.15
 10
40.333333333333336
 20
20.15
  0
LWPOLYLINE
  5
C0
330
17
100
AcDbEntity
  8
STRUT_OUTLINE
100
AcDbPolyline
 90
5
 70
1
 10
17.35
 20
22.0
 10
17.65
 20
22.0
 10
17.65
 20
18.0
 10
17.35
 20
18.0
 10
17.35
 20
22.0
  0
LWPOLYLINE
  5
C1
330
17
100
AcDbEntity
  8
STRUT_OUTLINE
100
AcDbPolyline
 90
5
 70
1
 10
29.85
 20
22.0
 10
30.15
 20
22.0
 10
30.15
 20
18.0
 10
29.85
 20
18.0
 10
29.85
 20
22.0
  0
LWPOLYLINE
  5
C2
330
17
100
AcDbEntity
  8
STRUT_OUTLINE
100
AcDbPolyline
 90
5
 70
1
 10
42.35
 20
22.0
 10
42.65
 20
22.0
 10
42.65
 20
18.0
 10
42.35
 20
18.0
 10
42.35
 20
22.0
  0
LWPOLYLINE
  5
C3
330
17
100
AcDbEntity
  8
TRUSS_CHORD
100
AcDbPolyline
 90
5
 70
1
 10
4.6
 20
9.285714
 10
5.4
 20
9.285714
 10
5.4
 20
5.0
 10
4.6
 20
5.0
 10
4.6
 20
9.285714
  0
LWPOLYLINE
  5
C4
330
17
100
AcDbEntity
  8
TRUSS_CHORD
100
AcDbPolyline
 90
5
 70
1
 10
9.1
 20
9.285714
 10
9.9
 20
9.285714
 10
9.9
 20
5.0
 10
9.1
 20
5.0
 10
9.1
 20
9.285714
  0
LWPOLYLINE
  5
C5
330
17
100
AcDbEntity
  8
STRUT_OUTLINE
100
AcDbPolyline
 90
5
 70
1
 10
9.224137940678174
 20
9.575369181598262
 10
9.775862059321826
 20
8.996058818401739
 10
5.275862059321825
 20
4.7103448184017385
 10
4.724137940678175
 20
5.2896551815982615
 10
9.224137940678174
 20
9.575369181598262
  0
LWPOLYLINE
  5
C6
330
17
100
AcDbEntity
  8
TRUSS_CHORD
100
AcDbPolyline
 90
5
 70
1
 10
4.6
 20
13.571429
 10
5.4
 20
13.571429
 10
5.4
 20
9.285714
 10
4.6
 20
9.285714
 10
4.6
 20
13.571429
  0
LWPOLYLINE
  5
C7
330
17
100
AcDbEntity
  8
TRUSS_CHORD
100
AcDbPolyline
 90
5
 70
1
 10
9.1
 20
13.571429
 10
9.9
 20
13.571429
 10
9.9
 20
9.285714
 10
9.1
 20
9.285714
 10
9.1
 20
13.571429
  0
LWPOLYLINE
  5
C8
330
17
100
AcDbEntity
  8
STRUT_OUTLINE
100
AcDbPolyline
 90
5
 70
1
 10
4.724137906925256
 20
13.281773850547378
 10
5.275862093074744
 20
13.861084149452623
 10
9.775862093074744
 20
9.575369149452623
 10
9.224137906925256
 20
8.996058850547378
 10
4.724137906925256
 20
13.281773850547378
  0
LWPOLYLINE
  5
C9
330
17
100
AcDbEntity
  8
TRUSS_CHORD
100
AcDbPolyline
 90
5
 70
1
 10
4.6
 20
20.0
 10
5.4
 20
20.0
 10
5.4
 20
13.571429
 10
4.6
 20
13.571429
 10
4.6
 20
20.0
  0
LWPOLYLINE
  5
CA
330
17
100
AcDbEntity
  8
TRUSS_CHORD
100
AcDbPolyline
 90
5
 70
1
 10
9.1
 20
20.0
 10
9.9
 20
20.0
 10
9.9
 20
13.571429
 10
9.1
 20
13.571429
 10
9.1
 20
20.0
  0
LWPOLYLINE
  5
CB
330
17
100
AcDbEntity
  8
STRUT_OUTLINE
100
AcDbPolyline
 90
5
 70
1
 10
9.1723072389767
 20
20.22938494800864
 10
9.8276927610233
 20
19.77061505199136
 10
5.3276927610233
 20
13.34204405199136
 10
4.6723072389767
 20
13.80081394800864
 10
9.1723072389767
 20
20.22938494800864
  0
LWPOLYLINE
  5
CC
330
17
100
AcDbEntity
  8
TRUSS_CHORD
100
AcDbPolyline
 90
5
 70
1
 10
4.6
 20
26.428571
 10
5.4
 20
26.428571
 10
5.4
 20
20.0
 10
4.6
 20
20.0
 10
4.6
 20
26.428571
  0
LWPOLYLINE
  5
CD
330
17
100
AcDbEntity
  8
TRUSS_CHORD
100
AcDbPolyline
 90
5
 70
1
 10
9.1
 20
26.428571
 10
9.9
 20
26.428571
 10
9.9
 20
20.0
 10
9.1
 20
20.0
 10
9.1
 20
26.428571
  0
LWPOLYLINE
  5
CE
330
17
100
AcDbEntity
  8
STRUT_OUTLINE
100
AcDbPolyline
 90
5
 70
1
 10
4.6723072389767
 20
26.19918605199136
 10
5.3276927610233
 20
26.65795594800864
 10
9.8276927610233
 20
20.22938494800864
 10
9.1723072389767
 20
19.77061505199136
 10
4.6723072389767
 20
26.19918605199136
  0
LWPOLYLINE
  5
CF
330
17
100
AcDbEntity
  8
TRUSS_CHORD
100
AcDbPolyline
 90
5
 70
1
 10
4.6
 20
30.714286
 10
5.4
 20
30.714286
 10
5.4
 20
26.428571
 10
4.6
 20
26.428571
 10
4.6
 20
30.714286
  0
LWPOLYLINE
  5
D0
330
17
100
AcDbEntity
  8
TRUSS_CHORD
100
AcDbPolyline
 90
5
 70
1
 10
9.1
 20
30.714286
 10
9.9
 20
30.714286
 10
9.9
 20
26.428571
 10
9.1
 20
26.428571
 10
9.1
 20
30.714286
  0
LWPOLYLINE
  5
D1
330
17
100
AcDbEntity
  8
STRUT_OUTLINE
100
AcDbPolyline
 90
5
 70
1
 10
9.224137906925256
 20
31.003941149452626
 10
9.775862093074744
 20
30.424630850547377
 10
5.275862093074744
 20
26.138915850547377
 10
4.724137906925256
 20
26.718226149452626
 10
9.224137906925256
 20
31.003941149452626
  0
LWPOLYLINE
  5
D2
330
17
100
AcDbEntity
  8
TRUSS_CHORD
100
AcDbPolyline
 90
5
 70
1
 10
4.6
 20
35.0
 10
5.4
 20
35.0
 10
5.4
 20
30.714286
 10
4.6
 20
30.714286
 10
4.6
 20
35.0
  0
LWPOLYLINE
  5
D3
330
17
100
AcDbEntity
  8
TRUSS_CHORD
100
AcDbPolyline
 90
5
 70
1
 10
9.1
 20
35.0
 10
9.9
 20
35.0
 10
9.9
 20
30.714286
 10
9.1
 20
30.714286
 10
9.1
 20
35.0
  0
LWPOLYLINE
  5
D4
330
17
100
AcDbEntity
  8
STRUT_OUTLINE
100
AcDbPolyline
 90
5
 70
1
 10
4.724137940678175
 20
34.71034481840174
 10
5.275862059321825
 20
35.28965518159826
 10
9.775862059321826
 20
31.003941181598265
 10
9.224137940678174
 20
30.424630818401738
 10
4.724137940678175
 20
34.71034481840174
  0
LWPOLYLINE
  5
D5
330
17
100
AcDbEntity
  8
TRUSS_CHORD
100
AcDbPolyline
 90
5
 70
1
 10
9.166667
 20
35.4
 10
9.166667
 20
34.6
 10
5.0
 20
34.6
 10
5.0
 20
35.4
 10
9.166667
 20
35.4
  0
LWPOLYLINE
  5
D6
330
17
100
AcDbEntity
  8
TRUSS_CHORD
100
AcDbPolyline
 90
5
 70
1
 10
9.166667
 20
30.9
 10
9.166667
 20
30.1
 10
5.0
 20
30.1
 10
5.0
 20
30.9
 10
9.166667
 20
30.9
  0
LWPOLYLINE
  5
D7
330
17
100
AcDbEntity
  8
STRUT_OUTLINE
100
AcDbPolyline
 90
5
 70
1
 10
9.460171258768854
 20
30.77176322430481
 10
8.873162741231146
 20
30.22823677569519
 10
4.706495741231147
 20
34.728236775695194
 10
5.293504258768853
 20
35.271763224304806
 10
9.460171258768854
 20
30.77176322430481
  0
LWPOLYLINE
  5
D8
330
17
100
AcDbEntity
  8
TRUSS_CHORD
100
AcDbPolyline
 90
5
 70
1
 10
13.333333
 20
35.4
 10
13.333333
 20
34.6
 10
9.166667
 20
34.6
 10
9.166667
 20
35.4
 10
13.333333
 20
35.4
  0
LWPOLYLINE
  5
D9
330
17
100
AcDbEntity
  8
TRUSS_CHORD
100
AcDbPolyline
 90
5
 70
1
 10
13.333333
 20
30.9
 10
13.333333
 20
30.1
 10
9.166667
 20
30.1
 10
9.166667
 20
30.9
 10
13.333333
 20
30.9
  0
LWPOLYLINE
  5
DA
330
17
100
AcDbEntity
  8
STRUT_OUTLINE
100
AcDbPolyline
 90
5
 70
1
 10
13.039828708715902
 20
35.27176318918834
 10
13.626837291284097
 20
34.72823681081166
 10
9.460171291284098
 20
30.228236810811655
 10
8.873162708715903
 20
30.771763189188345
 10
13.039828708715902
 20
35.27176318918834
  0
LWPOLYLINE
  5
DB
330
17
100
AcDbEntity
  8
TRUSS_CHORD
100
AcDbPolyline
 90
5
 70
1
 10
17.5
 20
35.4
 10
17.5
 20
34.6
 10
13.333333
 20
34.6
 10
13.333333
 20
35.4
 10
17.5
 20
35.4
  0
LWPOLYLINE
  5
DC
330
17
100
AcDbEntity
  8
TRUSS_CHORD
100
AcDbPolyline
 90
5
 70
1
 10
17.5
 20
30.9
 10
17.5
 20
30.1
 10
13.333333
 20
30.1
 10
13.333333
 20
30.9
 10
17.5
 20
30.9
  0
LWPOLYLINE
  5
DD
330
17
100
AcDbEntity
  8
STRUT_OUTLINE
100
AcDbPolyline
 90
5
 70
1
 10
17.793504258768852
 20
30.77176322430481
 10
17.206495741231148
 20
30.22823677569519
 10
13.039828741231146
 20
34.728236775695194
 10
13.626837258768854
 20
35.271763224304806
 10
17.793504258768852
 20
30.77176322430481
  0
LWPOLYLINE
  5
DE
330
17
100
AcDbEntity
  8
TRUSS_CHORD
100
AcDbPolyline
 90
5
 70
1
 10
21.666667
 20
35.4
 10
21.666667
 20
34.6
 10
17.5
 20
34.6
 10
17.5
 20
35.4
 10
21.666667
 20
35.4
  0
LWPOLYLINE
  5
DF
330
17
100
AcDbEntity
  8
TRUSS_CHORD
100
AcDbPolyline
 90
5
 70
1
 10
21.666667
 20
30.9
 10
21.666667
 20
30.1
 10
17.5
 20
30.1
 10
17.5
 20
30.9
 10
21.666667
 20
30.9
  0
LWPOLYLINE
  5
E0
330
17
100
AcDbEntity
  8
STRUT_OUTLINE
100
AcDbPolyline
 90
5
 70
1
 10
21.37316274123115
 20
35.271763224304806
 10
21.960171258768852
 20
34.728236775695194
 10
17.793504258768852
 20
30.22823677569519
 10
17.206495741231148
 20
30.77176322430481
 10
21.37316274123115
 20
35.271763224304806
  0
LWPOLYLINE
  5
E1
330
17
100
AcDbEntity
  8
TRUSS_CHORD
100
AcDbPolyline
 90
5
 70
1
 10
25.833333
 20
35.4
 10
25.833333
 20
34.6
 10
21.666667
 20
34.6
 10
21.666667
 20
35.4
 10
25.833333
 20
35.4
  0
LWPOLYLINE
  5
E2
330
17
100
AcDbEntity
  8
TRUSS_CHORD
100
AcDbPolyline
 90
5
 70
1
 10
25.833333
 20
30.9
 10
25.833333
 20
30.1
 10
21.666667
 20
30.1
 10
21.666667
 20
30.9
 10
25.833333
 20
30.9
  0
LWPOLYLINE
  5
E3
330
17
100
AcDbEntity
  8
STRUT_OUTLINE
100
AcDbPolyline
 90
5
 70
1
 10
26.126837291284097
 20
30.771763189188345
 10
25.539828708715902
 20
30.228236810811655
 10
21.373162708715903
 20
34.72823681081166
 10
21.960171291284098
 20
35.27176318918834
 10
26.126837291284097
 20
30.771763189188345
  0
LWPOLYLINE
  5
E4
330
17
100
AcDbEntity
  8
TRUSS_CHORD
100
AcDbPolyline
 90
5
 70
1
 10
30.0
 20
35.4
 10
30.0
 20
34.6
 10
25.833333
 20
34.6
 10
25.833333
 20
35.4
 10
30.0
 20
35.4
  0
LWPOLYLINE
  5
E5
330
17
100
AcDbEntity
  8
TRUSS_CHORD
100
AcDbPolyline
 90
5
 70
1
 10
30.0
 20
30.9
 10
30.0
 20
30.1
 10
25.833333
 20
30.1
 10
25.833333
 20
30.9
 10
30.0
 20
30.9
  0
LWPOLYLINE
  5
E6
330
17
100
AcDbEntity
  8
STRUT_OUTLINE
100
AcDbPolyline
 90
5
 70
1
 10
29.706495741231148
 20
35.271763224304806
 10
30.293504258768852
 20
34.728236775695194
 10
26.12683725876885
 20
30.22823677569519
 10
25.539828741231148
 20
30.77176322430481
 10
29.706495741231148
 20
35.271763224304806
  0
LWPOLYLINE
  5
E7
330
17
100
AcDbEntity
  8
TRUSS_CHORD
100
AcDbPolyline
 90
5
 70
1
 10
34.166667
 20
35.4
 10
34.166667
 20
34.6
 10
30.0
 20
34.6
 10
30.0
 20
35.4
 10
34.166667
 20
35.4
  0
LWPOLYLINE
  5
E8
330
17
100
AcDbEntity
  8
TRUSS_CHORD
100
AcDbPolyline
 90
5
 70
1
 10
34.166667
 20
30.9
 10
34.166667
 20
30.1
 10
30.0
 20
30.1
 10
30.0
 20
30.9
 10
34.166667
 20
30.9
  0
LWPOLYLINE
  5
E9
330
17
100
AcDbEntity
  8
STRUT_OUTLINE
100
AcDbPolyline
 90
5
 70
1
 10
34.46017125876885
 20
30.77176322430481
 10
33.87316274123114
 20
30.22823677569519
 10
29.706495741231148
 20
34.728236775695194
 10
30.293504258768852
 20
35.271763224304806
 10
34.46017125876885
 20
30.77176322430481
  0
LWPOLYLINE
  5
EA
330
17
100
AcDbEntity
  8
TRUSS_CHORD
100
AcDbPolyline
 90
5
 70
1
 10
38.333333
 20
35.4
 10
38.333333
 20
34.6
 10
34.166667
 20
34.6
 10
34.166667
 20
35.4
 10
38.333333
 20
35.4
  0
LWPOLYLINE
  5
EB
330
17
100
AcDbEntity
  8
TRUSS_CHORD
100
AcDbPolyline
 90
5
 70
1
 10
38.333333
 20
30.9
 10
38.333333
 20
30.1
 10
34.166667
 20
30.1
 10
34.166667
 20
30.9
 10
38.333333
 20
30.9
  0
LWPOLYLINE
  5
EC
330
17
100
AcDbEntity
  8
STRUT_OUTLINE
100
AcDbPolyline
 90
5
 70
1
 10
38.03982870871591
 20
35.27176318918834
 10
38.6268372912841
 20
34.72823681081166
 10
34.46017129128409
 20
30.228236810811655
 10
33.8731627087159
 20
30.771763189188345
 10
38.03982870871591
 20
35.27176318918834
  0
LWPOLYLINE
  5
ED
330
17
100
AcDbEntity
  8
TRUSS_CHORD
100
AcDbPolyline
 90
5
 70
1
 10
42.5
 20
35.4
 10
42.5
 20
34.6
 10
38.333333
 20
34.6
 10
38.333333
 20
35.4
 10
42.5
 20
35.4
  0
LWPOLYLINE
  5
EE
330
17
100
AcDbEntity
  8
TRUSS_CHORD
100
AcDbPolyline
 90
5
 70
1
 10
42.5
 20
30.9
 10
42.5
 20
30.1
 10
38.333333
 20
30.1
 10
38.333333
 20
30.9
 10
42.5
 20
30.9
  0
LWPOLYLINE
  5
EF
330
17
100
AcDbEntity
  8
STRUT_OUTLINE
100
AcDbPolyline
 90
5
 70
1
 10
42.793504258768856
 20
30.77176322430481
 10
42.206495741231144
 20
30.22823677569519
 10
38.03982874123115
 20
34.728236775695194
 10
38.62683725876886
 20
35.271763224304806
 10
42.793504258768856
 20
30.77176322430481
  0
LWPOLYLINE
  5
F0
330
17
100
AcDbEntity
  8
TRUSS_CHORD
100
AcDbPolyline
 90
5
 70
1
 10
46.666667
 20
35.4
 10
46.666667
 20
34.6
 10
42.5
 20
34.6
 10
42.5
 20
35.4
 10
46.666667
 20
35.4
  0
LWPOLYLINE
  5
F1
330
17
100
AcDbEntity
  8
TRUSS_CHORD
100
AcDbPolyline
 90
5
 70
1
 10
46.666667
 20
30.9
 10
46.666667
 20
30.1
 10
42.5
 20
30.1
 10
42.5
 20
30.9
 10
46.666667
 20
30.9
  0
LWPOLYLINE
  5
F2
330
17
100
AcDbEntity
  8
STRUT_OUTLINE
100
AcDbPolyline
 90
5
 70
1
 10
46.37316274123114
 20
35.271763224304806
 10
46.96017125876885
 20
34.728236775695194
 10
42.793504258768856
 20
30.22823677569519
 10
42.206495741231144
 20
30.77176322430481
 10
46.37316274123114
 20
35.271763224304806
  0
LWPOLYLINE
  5
F3
330
17
100
AcDbEntity
  8
TRUSS_CHORD
100
AcDbPolyline
 90
5
 70
1
 10
50.833333
 20
35.4
 10
50.833333
 20
34.6
 10
46.666667
 20
34.6
 10
46.666667
 20
35.4
 10
50.833333
 20
35.4
  0
LWPOLYLINE
  5
F4
330
17
100
AcDbEntity
  8
TRUSS_CHORD
100
AcDbPolyline
 90
5
 70
1
 10
50.833333
 20
30.9
 10
50.833333
 20
30.1
 10
46.666667
 20
30.1
 10
46.666667
 20
30.9
 10
50.833333
 20
30.9
  0
LWPOLYLINE
  5
F5
330
17
100
AcDbEntity
  8
STRUT_OUTLINE
100
AcDbPolyline
 90
5
 70
1
 10
51.1268372912841
 20
30.771763189188345
 10
50.53982870871591
 20
30.228236810811655
 10
46.3731627087159
 20
34.72823681081166
 10
46.96017129128409
 20
35.27176318918834
 10
51.1268372912841
 20
30.771763189188345
  0
LWPOLYLINE
  5
F6
330
17
100
AcDbEntity
  8
TRUSS_CHORD
100
AcDbPolyline
 90
5
 70
1
 10
55.0
 20
35.4
 10
55.0
 20
34.6
 10
50.833333
 20
34.6
 10
50.833333
 20
35.4
 10
55.0
 20
35.4
  0
LWPOLYLINE
  5
F7
330
17
100
AcDbEntity
  8
TRUSS_CHORD
100
AcDbPolyline
 90
5
 70
1
 10
55.0
 20
30.9
 10
55.0
 20
30.1
 10
50.833333
 20
30.1
 10
50.833333
 20
30.9
 10
55.0
 20
30.9
  0
LWPOLYLINE
  5
F8
330
17
100
AcDbEntity
  8
STRUT_OUTLINE
100
AcDbPolyline
 90
5
 70
1
 10
54.706495741231144
 20
35.271763224304806
 10
55.293504258768856
 20
34.728236775695194
 10
51.12683725876886
 20
30.22823677569519
 10
50.53982874123115
 20
30.77176322430481
 10
54.706495741231144
 20
35.271763224304806
  0
LWPOLYLINE
  5
F9
330
17
100
AcDbEntity
  8
TRUSS_CHORD
100
AcDbPolyline
 90
5
 70
1
 10
54.6
 20
9.285714
 10
55.4
 20
9.285714
 10
55.4
 20
5.0
 10
54.6
 20
5.0
 10
54.6
 20
9.285714
  0
LWPOLYLINE
  5
FA
330
17
100
AcDbEntity
  8
TRUSS_CHORD
100
AcDbPolyline
 90
5
 70
1
 10
50.1
 20
9.285714
 10
50.9
 20
9.285714
 10
50.9
 20
5.0
 10
50.1
 20
5.0
 10
50.1
 20
9.285714
  0
LWPOLYLINE
  5
FB
330
17
100
AcDbEntity
  8
STRUT_OUTLINE
100
AcDbPolyline
 90
5
 70
1
 10
50.224137940678176
 20
8.996058818401739
 10
50.775862059321824
 20
9.575369181598262
 10
55.275862059321824
 20
5.2896551815982615
 10
54.724137940678176
 20
4.7103448184017385
 10
50.224137940678176
 20
8.996058818401739
  0
LWPOLYLINE
  5
FC
330
17
100
AcDbEntity
  8
TRUSS_CHORD
100
AcDbPolyline
 90
5
 70
1
 10
54.6
 20
13.571429
 10
55.4
 20
13.571429
 10
55.4
 20
9.285714
 10
54.6
 20
9.285714
 10
54.6
 20
13.571429
  0
LWPOLYLINE
  5
FD
330
17
100
AcDbEntity
  8
TRUSS_CHORD
100
AcDbPolyline
 90
5
 70
1
 10
50.1
 20
13.571429
 10
50.9
 20
13.571429
 10
50.9
 20
9.285714
 10
50.1
 20
9.285714
 10
50.1
 20
13.571429
  0
LWPOLYLINE
  5
FE
330
17
100
AcDbEntity
  8
STRUT_OUTLINE
100
AcDbPolyline
 90
5
 70
1
 10
54.72413790692526
 20
13.861084149452623
 10
55.27586209307474
 20
13.281773850547378
 10
50.77586209307474
 20
8.996058850547378
 10
50.22413790692526
 20
9.575369149452623
 10
54.72413790692526
 20
13.861084149452623
  0
LWPOLYLINE
  5
FF
330
17
100
AcDbEntity
  8
TRUSS_CHORD
100
AcDbPolyline
 90
5
 70
1
 10
54.6
 20
20.0
 10
55.4
 20
20.0
 10
55.4
 20
13.571429
 10
54.6
 20
13.571429
 10
54.6
 20
20.0
  0
LWPOLYLINE
  5
100
330
17
100
AcDbEntity
  8
TRUSS_CHORD
100
AcDbPolyline
 90
5
 70
1
 10
50.1
 20
20.0
 10
50.9
 20
20.0
 10
50.9
 20
13.571429
 10
50.1
 20
13.571429
 10
50.1
 20
20.0
  0
LWPOLYLINE
  5
101
330
17
100
AcDbEntity
  8
STRUT_OUTLINE
100
AcDbPolyline
 90
5
 70
1
 10
50.1723072389767
 20
19.77061505199136
 10
50.8276927610233
 20
20.22938494800864
 10
55.3276927610233
 20
13.80081394800864
 10
54.6723072389767
 20
13.34204405199136
 10
50.1723072389767
 20
19.77061505199136
  0
LWPOLYLINE
  5
102
330
17
100
AcDbEntity
  8
TRUSS_CHORD
100
AcDbPolyline
 90
5
 70
1
 10
54.6
 20
26.428571
 10
55.4
 20
26.428571
 10
55.4
 20
20.0
 10
54.6
 20
20.0
 10
54.6
 20
26.428571
  0
LWPOLYLINE
  5
103
330
17
100
AcDbEntity
  8
TRUSS_CHORD
100
AcDbPolyline
 90
5
 70
1
 10
50.1
 20
26.428571
 10
50.9
 20
26.428571
 10
50.9
 20
20.0
 10
50.1
 20
20.0
 10
50.1
 20
26.428571
  0
LWPOLYLINE
  5
104
330
17
100
AcDbEntity
  8
STRUT_OUTLINE
100
AcDbPolyline
 90
5
 70
1
 10
54.6723072389767
 20
26.65795594800864
 10
55.3276927610233
 20
26.19918605199136
 10
50.8276927610233
 20
19.77061505199136
 10
50.1723072389767
 20
20.22938494800864
 10
54.6723072389767
 20
26.65795594800864
  0
LWPOLYLINE
  5
105
330
17
100
AcDbEntity
  8
TRUSS_CHORD
100
AcDbPolyline
 90
5
 70
1
 10
54.6
 20
30.714286
 10
55.4
 20
30.714286
 10
55.4
 20
26.428571
 10
54.6
 20
26.428571
 10
54.6
 20
30.714286
  0
LWPOLYLINE
  5
106
330
17
100
AcDbEntity
  8
TRUSS_CHORD
100
AcDbPolyline
 90
5
 70
1
 10
50.1
 20
30.714286
 10
50.9
 20
30.714286
 10
50.9
 20
26.428571
 10
50.1
 20
26.428571
 10
50.1
 20
30.714286
  0
LWPOLYLINE
  5
107
330
17
100
AcDbEntity
  8
STRUT_OUTLINE
100
AcDbPolyline
 90
5
 70
1
 10
50.22413790692526
 20
30.424630850547377
 10
50.77586209307474
 20
31.003941149452626
 10
55.27586209307474
 20
26.718226149452626
 10
54.72413790692526
 20
26.138915850547377
 10
50.22413790692526
 20
30.424630850547377
  0
LWPOLYLINE
  5
108
330
17
100
AcDbEntity
  8
TRUSS_CHORD
100
AcDbPolyline
 90
5
 70
1
 10
54.6
 20
35.0
 10
55.4
 20
35.0
 10
55.4
 20
30.714286
 10
54.6
 20
30.714286
 10
54.6
 20
35.0
  0
LWPOLYLINE
  5
109
330
17
100
AcDbEntity
  8
TRUSS_CHORD
100
AcDbPolyline
 90
5
 70
1
 10
50.1
 20
35.0
 10
50.9
 20
35.0
 10
50.9
 20
30.714286
 10
50.1
 20
30.714286
 10
50.1
 20
35.0
  0
LWPOLYLINE
  5
10A
330
17
100
AcDbEntity
  8
STRUT_OUTLINE
100
AcDbPolyline
 90
5
 70
1
 10
54.724137940678176
 20
35.28965518159826
 10
55.275862059321824
 20
34.71034481840174
 10
50.775862059321824
 20
30.424630818401738
 10
50.224137940678176
 20
31.003941181598265
 10
54.724137940678176
 20
35.28965518159826
  0
LWPOLYLINE
  5
10B
330
17
100
AcDbEntity
  8
TRUSS_CHORD
100
AcDbPolyline
 90
5
 70
1
 10
9.166667
 20
5.4
 10
9.166667
 20
4.6
 10
5.0
 20
4.6
 10
5.0
 20
5.4
 10
9.166667
 20
5.4
  0
LWPOLYLINE
  5
10C
330
17
100
AcDbEntity
  8
TRUSS_CHORD
100
AcDbPolyline
 90
5
 70
1
 10
9.166667
 20
9.9
 10
9.166667
 20
9.1
 10
5.0
 20
9.1
 10
5.0
 20
9.9
 10
9.166667
 20
9.9
  0
LWPOLYLINE
  5
10D
330
17
100
AcDbEntity
  8
STRUT_OUTLINE
100
AcDbPolyline
 90
5
 70
1
 10
8.873162741231146
 20
9.77176322430481
 10
9.460171258768854
 20
9.22823677569519
 10
5.293504258768853
 20
4.728236775695191
 10
4.706495741231147
 20
5.271763224304809
 10
8.873162741231146
 20
9.77176322430481
  0
LWPOLYLINE
  5
10E
330
17
100
AcDbEntity
  8
TRUSS_CHORD
100
AcDbPolyline
 90
5
 70
1
 10
13.333333
 20
5.4
 10
13.333333
 20
4.6
 10
9.166667
 20
4.6
 10
9.166667
 20
5.4
 10
13.333333
 20
5.4
  0
LWPOLYLINE
  5
10F
330
17
100
AcDbEntity
  8
TRUSS_CHORD
100
AcDbPolyline
 90
5
 70
1
 10
13.333333
 20
9.9
 10
13.333333
 20
9.1
 10
9.166667
 20
9.1
 10
9.166667
 20
9.9
 10
13.333333
 20
9.9
  0
LWPOLYLINE
  5
110
330
17
100
AcDbEntity
  8
STRUT_OUTLINE
100
AcDbPolyline
 90
5
 70
1
 10
13.626837291284097
 20
5.271763189188344
 10
13.039828708715902
 20
4.728236810811656
 10
8.873162708715903
 20
9.228236810811657
 10
9.460171291284098
 20
9.771763189188343
 10
13.626837291284097
 20
5.271763189188344
  0
LWPOLYLINE
  5
111
330
17
100
AcDbEntity
  8
TRUSS_CHORD
100
AcDbPolyline
 90
5
 70
1
 10
17.5
 20
5.4
 10
17.5
 20
4.6
 10
13.333333
 20
4.6
 10
13.333333
 20
5.4
 10
17.5
 20
5.4
  0
LWPOLYLINE
  5
112
330
17
100
AcDbEntity
  8
TRUSS_CHORD
100
AcDbPolyline
 90
5
 70
1
 10
17.5
 20
9.9
 10
17.5
 20
9.1
 10
13.333333
 20
9.1
 10
13.333333
 20
9.9
 10
17.5
 20
9.9
  0
LWPOLYLINE
  5
113
330
17
100
AcDbEntity
  8
STRUT_OUTLINE
100
AcDbPolyline
 90
5
 70
1
 10
17.206495741231148
 20
9.77176322430481
 10
17.793504258768852
 20
9.22823677569519
 10
13.626837258768854
 20
4.728236775695191
 10
13.039828741231146
 20
5.271763224304809
 10
17.206495741231148
 20
9.77176322430481
  0
LWPOLYLINE
  5
114
330
17
100
AcDbEntity
  8
TRUSS_CHORD
100
AcDbPolyline
 90
5
 70
1
 10
21.666667
 20
5.4
 10
21.666667
 20
4.6
 10
17.5
 20
4.6
 10
17.5
 20
5.4
 10
21.666667
 20
5.4
  0
LWPOLYLINE
  5
115
330
17
100
AcDbEntity
  8
TRUSS_CHORD
100
AcDbPolyline
 90
5
 70
1
 10
21.666667
 20
9.9
 10
21.666667
 20
9.1
 10
17.5
 20
9.1
 10
17.5
 20
9.9
 10
21.666667
 20
9.9
  0
LWPOLYLINE
  5
116
330
17
100
AcDbEntity
  8
STRUT_OUTLINE
100
AcDbPolyline
 90
5
 70
1
 10
21.960171258768852
 20
5.271763224304809
 10
21.37316274123115
 20
4.728236775695191
 10
17.206495741231148
 20
9.22823677569519
 10
17.793504258768852
 20
9.77176322430481
 10
21.960171258768852
 20
5.271763224304809
  0
LWPOLYLINE
  5
117
330
17
100
AcDbEntity
  8
TRUSS_CHORD
100
AcDbPolyline
 90
5
 70
1
 10
25.833333
 20
5.4
 10
25.833333
 20
4.6
 10
21.666667
 20
4.6
 10
21.666667
 20
5.4
 10
25.833333
 20
5.4
  0
LWPOLYLINE
  5
118
330
17
100
AcDbEntity
  8
TRUSS_CHORD
100
AcDbPolyline
 90
5
 70
1
 10
25.833333
 20
9.9
 10
25.833333
 20
9.1
 10
21.666667
 20
9.1
 10
21.666667
 20
9.9
 10
25.833333
 20
9.9
  0
LWPOLYLINE
  5
119
330
17
100
AcDbEntity
  8
STRUT_OUTLINE
100
AcDbPolyline
 90
5
 70
1
 10
25.539828708715902
 20
9.771763189188343
 10
26.126837291284097
 20
9.228236810811657
 10
21.960171291284098
 20
4.728236810811656
 10
21.373162708715903
 20
5.271763189188344
 10
25.539828708715902
 20
9.771763189188343
  0
LWPOLYLINE
  5
11A
330
17
100
AcDbEntity
  8
TRUSS_CHORD
100
AcDbPolyline
 90
5
 70
1
 10
30.0
 20
5.4
 10
30.0
 20
4.6
 10
25.833333
 20
4.6
 10
25.833333
 20
5.4
 10
30.0
 20
5.4
  0
LWPOLYLINE
  5
11B
330
17
100
AcDbEntity
  8
TRUSS_CHORD
100
AcDbPolyline
 90
5
 70
1
 10
30.0
 20
9.9
 10
30.0
 20
9.1
 10
25.833333
 20
9.1
 10
25.833333
 20
9.9
 10
30.0
 20
9.9
  0
LWPOLYLINE
  5
11C
330
17
100
AcDbEntity
  8
STRUT_OUTLINE
100
AcDbPolyline
 90
5
 70
1
 10
30.293504258768852
 20
5.271763224304809
 10
29.706495741231148
 20
4.728236775695191
 10
25.539828741231148
 20
9.22823677569519
 10
26.12683725876885
 20
9.77176322430481
 10
30.293504258768852
 20
5.271763224304809
  0
LWPOLYLINE
  5
11D
330
17
100
AcDbEntity
  8
TRUSS_CHORD
100
AcDbPolyline
 90
5
 70
1
 10
34.166667
 20
5.4
 10
34.166667
 20
4.6
 10
30.0
 20
4.6
 10
30.0
 20
5.4
 10
34.166667
 20
5.4
  0
LWPOLYLINE
  5
11E
330
17
100
AcDbEntity
  8
TRUSS_CHORD
100
AcDbPolyline
 90
5
 70
1
 10
34.166667
 20
9.9
 10
34.166667
 20
9.1
 10
30.0
 20
9.1
 10
30.0
 20
9.9
 10
34.166667
 20
9.9
  0
LWPOLYLINE
  5
11F
330
17
100
AcDbEntity
  8
STRUT_OUTLINE
100
AcDbPolyline
 90
5
 70
1
 10
33.87316274123114
 20
9.77176322430481
 10
34.46017125876885
 20
9.22823677569519
 10
30.293504258768852
 20
4.728236775695191
 10
29.706495741231148
 20
5.271763224304809
 10
33.87316274123114
 20
9.77176322430481
  0
LWPOLYLINE
  5
120
330
17
100
AcDbEntity
  8
TRUSS_CHORD
100
AcDbPolyline
 90
5
 70
1
 10
38.333333
 20
5.4
 10
38.333333
 20
4.6
 10
34.166667
 20
4.6
 10
34.166667
 20
5.4
 10
38.333333
 20
5.4
  0
LWPOLYLINE
  5
121
330
17
100
AcDbEntity
  8
TRUSS_CHORD
100
AcDbPolyline
 90
5
 70
1
 10
38.333333
 20
9.9
 10
38.333333
 20
9.1
 10
34.166667
 20
9.1
 10
34.166667
 20
9.9
 10
38.333333
 20
9.9
  0
LWPOLYLINE
  5
122
330
17
100
AcDbEntity
  8
STRUT_OUTLINE
100
AcDbPolyline
 90
5
 70
1
 10
38.6268372912841
 20
5.271763189188344
 10
38.03982870871591
 20
4.728236810811656
 10
33.8731627087159
 20
9.228236810811657
 10
34.46017129128409
 20
9.771763189188343
 10
38.6268372912841
 20
5.271763189188344
  0
LWPOLYLINE
  5
123
330
17
100
AcDbEntity
  8
TRUSS_CHORD
100
AcDbPolyline
 90
5
 70
1
 10
42.5
 20
5.4
 10
42.5
 20
4.6
 10
38.333333
 20
4.6
 10
38.333333
 20
5.4
 10
42.5
 20
5.4
  0
LWPOLYLINE
  5
124
330
17
100
AcDbEntity
  8
TRUSS_CHORD
100
AcDbPolyline
 90
5
 70
1
 10
42.5
 20
9.9
 10
42.5
 20
9.1
 10
38.333333
 20
9.1
 10
38.333333
 20
9.9
 10
42.5
 20
9.9
  0
LWPOLYLINE
  5
125
330
17
100
AcDbEntity
  8
STRUT_OUTLINE
100
AcDbPolyline
 90
5
 70
1
 10
42.206495741231144
 20
9.77176322430481
 10
42.793504258768856
 20
9.22823677569519
 10
38.62683725876886
 20
4.728236775695191
 10
38.03982874123115
 20
5.271763224304809
 10
42.206495741231144
 20
9.77176322430481
  0
LWPOLYLINE
  5
126
330
17
100
AcDbEntity
  8
TRUSS_CHORD
100
AcDbPolyline
 90
5
 70
1
 10
46.666667
 20
5.4
 10
46.666667
 20
4.6
 10
42.5
 20
4.6
 10
42.5
 20
5.4
 10
46.666667
 20
5.4
  0
LWPOLYLINE
  5
127
330
17
100
AcDbEntity
  8
TRUSS_CHORD
100
AcDbPolyline
 90
5
 70
1
 10
46.666667
 20
9.9
 10
46.666667
 20
9.1
 10
42.5
 20
9.1
 10
42.5
 20
9.9
 10
46.666667
 20
9.9
  0
LWPOLYLINE
  5
128
330
17
100
AcDbEntity
  8
STRUT_OUTLINE
100
AcDbPolyline
 90
5
 70
1
 10
46.96017125876885
 20
5.271763224304809
 10
46.37316274123114
 20
4.728236775695191
 10
42.206495741231144
 20
9.22823677569519
 10
42.793504258768856
 20
9.77176322430481
 10
46.96017125876885
 20
5.271763224304809
  0
LWPOLYLINE
  5
129
330
17
100
AcDbEntity
  8
TRUSS_CHORD
100
AcDbPolyline
 90
5
 70
1
 10
50.833333
 20
5.4
 10
50.833333
 20
4.6
 10
46.666667
 20
4.6
 10
46.666667
 20
5.4
 10
50.833333
 20
5.4
  0
LWPOLYLINE
  5
12A
330
17
100
AcDbEntity
  8
TRUSS_CHORD
100
AcDbPolyline
 90
5
 70
1
 10
50.833333
 20
9.9
 10
50.833333
 20
9.1
 10
46.666667
 20
9.1
 10
46.666667
 20
9.9
 10
50.833333
 20
9.9
  0
LWPOLYLINE
  5
12B
330
17
100
AcDbEntity
  8
STRUT_OUTLINE
100
AcDbPolyline
 90
5
 70
1
 10
50.53982870871591
 20
9.771763189188343
 10
51.1268372912841
 20
9.228236810811657
 10
46.96017129128409
 20
4.728236810811656
 10
46.3731627087159
 20
5.271763189188344
 10
50.53982870871591
 20
9.771763189188343
  0
LWPOLYLINE
  5
12C
330
17
100
AcDbEntity
  8
TRUSS_CHORD
100
AcDbPolyline
 90
5
 70
1
 10
55.0
 20
5.4
 10
55.0
 20
4.6
 10
50.833333
 20
4.6
 10
50.833333
 20
5.4
 10
55.0
 20
5.4
  0
LWPOLYLINE
  5
12D
330
17
100
AcDbEntity
  8
TRUSS_CHORD
100
AcDbPolyline
 90
5
 70
1
 10
55.0
 20
9.9
 10
55.0
 20
9.1
 10
50.833333
 20
9.1
 10
50.833333
 20
9.9
 10
55.0
 20
9.9
  0
LWPOLYLINE
  5
12E
330
17
100
AcDbEntity
  8
STRUT_OUTLINE
100
AcDbPolyline
 90
5
 70
1
 10
55.293504258768856
 20
5.271763224304809
 10
54.706495741231144
 20
4.728236775695191
 10
50.53982874123115
 20
9.22823677569519
 10
51.12683725876886
 20
9.77176322430481
 10
55.293504258768856
 20
5.271763224304809
  0
LWPOLYLINE
  5
12F
330
17
100
AcDbEntity
  8
PILLAR
100
AcDbPolyline
 90
4
 70
1
 10
7.69999990666666
 20
17.6
 10
8.49999990666666
 20
17.6
 10
8.49999990666666
 20
18.4
 10
7.69999990666666
 20
18.4
  0
LWPOLYLINE
  5
130
330
17
100
AcDbEntity
  8
PILLAR
100
AcDbPolyline
 90
4
 70
1
 10
7.69999990666666
 20
21.6
 10
8.49999990666666
 20
21.6
 10
8.49999990666666
 20
22.4
 10
7.69999990666666
 20
22.4
  0
LWPOLYLINE
  5
131
330
17
100
AcDbEntity
  8
PILLAR
100
AcDbPolyline
 90
4
 70
1
 10
8.874999737500042
 20
30.1
 10
9.674999737500043
 20
30.1
 10
9.674999737500043
 20
30.9
 10
8.874999737500042
 20
30.9
  0
LWPOLYLINE
  5
132
330
17
100
AcDbEntity
  8
PILLAR
100
AcDbPolyline
 90
4
 70
1
 10
8.874999737500044
 20
9.1
 10
9.674999737500045
 20
9.1
 10
9.674999737500045
 20
9.9
 10
8.874999737500044
 20
9.9
  0
LWPOLYLINE
  5
133
330
17
100
AcDbEntity
  8
PILLAR
100
AcDbPolyline
 90
4
 70
1
 10
9.028303948335918
 20
8.817432050586337
 10
9.828303948335918
 20
8.817432050586337
 10
9.828303948335918
 20
9.617432050586338
 10
9.028303948335918
 20
9.617432050586338
  0
LWPOLYLINE
  5
134
330
17
100
AcDbEntity
  8
PILLAR
100
AcDbPolyline
 90
4
 70
1
 10
9.028303948335918
 20
30.382567949413666
 10
9.828303948335918
 20
30.382567949413666
 10
9.828303948335918
 20
31.182567949413663
 10
9.028303948335918
 20
31.182567949413663
  0
LWPOLYLINE
  5
135
330
17
100
AcDbEntity
  8
PILLAR
100
AcDbPolyline
 90
4
 70
1
 10
9.1
 20
8.740000302400048
 10
9.9
 20
8.740000302400048
 10
9.9
 20
9.540000302400049
 10
9.1
 20
9.540000302400049
  0
LWPOLYLINE
  5
136
330
17
100
AcDbEntity
  8
PILLAR
100
AcDbPolyline
 90
4
 70
1
 10
9.1
 20
9.1
 10
9.9
 20
9.1
 10
9.9
 20
9.9
 10
9.1
 20
9.9
  0
LWPOLYLINE
  5
137
330
17
100
AcDbEntity
  8
PILLAR
100
AcDbPolyline
 90
4
 70
1
 10
9.1
 20
17.6
 10
9.9
 20
17.6
 10
9.9
 20
18.4
 10
9.1
 20
18.4
  0
LWPOLYLINE
  5
138
330
17
100
AcDbEntity
  8
PILLAR
100
AcDbPolyline
 90
4
 70
1
 10
9.1
 20
21.6
 10
9.9
 20
21.6
 10
9.9
 20
22.4
 10
9.1
 20
22.4
  0
LWPOLYLINE
  5
139
330
17
100
AcDbEntity
  8
PILLAR
100
AcDbPolyline
 90
4
 70
1
 10
9.1
 20
30.1
 10
9.9
 20
30.1
 10
9.9
 20
30.9
 10
9.1
 20
30.9
  0
LWPOLYLINE
  5
13A
330
17
100
AcDbEntity
  8
PILLAR
100
AcDbPolyline
 90
4
 70
1
 10
9.1
 20
30.45999969759995
 10
9.9
 20
30.45999969759995
 10
9.9
 20
31.259999697599948
 10
9.1
 20
31.259999697599948
  0
LWPOLYLINE
  5
13B
330
17
100
AcDbEntity
  8
PILLAR
100
AcDbPolyline
 90
4
 70
1
 10
17.1
 20
17.6
 10
17.9
 20
17.6
 10
17.9
 20
18.4
 10
17.1
 20
18.4
  0
LWPOLYLINE
  5
13C
330
17
100
AcDbEntity
  8
PILLAR
100
AcDbPolyline
 90
4
 70
1
 10
17.1
 20
21.6
 10
17.9
 20
21.6
 10
17.9
 20
22.4
 10
17.1
 20
22.4
  0
LWPOLYLINE
  5
13D
330
17
100
AcDbEntity
  8
PILLAR
100
AcDbPolyline
 90
4
 70
1
 10
19.26666666666667
 20
6.760000187199983
 10
20.066666666666666
 20
6.760000187199983
 10
20.066666666666666
 20
7.560000187199984
 10
19.26666666666667
 20
7.560000187199984
  0
LWPOLYLINE
  5
13E
330
17
100
AcDbEntity
  8
PILLAR
100
AcDbPolyline
 90
4
 70
1
 10
19.26666666666667
 20
9.1
 10
20.066666666666666
 20
9.1
 10
20.066666666666666
 20
9.9
 10
19.26666666666667
 20
9.9
  0
LWPOLYLINE
  5
13F
330
17
100
AcDbEntity
  8
PILLAR
100
AcDbPolyline
 90
4
 70
1
 10
19.26666666666667
 20
17.6
 10
20.066666666666666
 20
17.6
 10
20.066666666666666
 20
18.4
 10
19.26666666666667
 20
18.4
  0
LWPOLYLINE
  5
140
330
17
100
AcDbEntity
  8
PILLAR
100
AcDbPolyline
 90
4
 70
1
 10
19.26666666666667
 20
19.6
 10
20.066666666666666
 20
19.6
 10
20.066666666666666
 20
20.4
 10
19.26666666666667
 20
20.4
  0
LWPOLYLINE
  5
141
330
17
100
AcDbEntity
  8
PILLAR
100
AcDbPolyline
 90
4
 70
1
 10
19.26666666666667
 20
21.6
 10
20.066666666666666
 20
21.6
 10
20.066666666666666
 20
22.4
 10
19.26666666666667
 20
22.4
  0
LWPOLYLINE
  5
142
330
17
100
AcDbEntity
  8
PILLAR
100
AcDbPolyline
 90
4
 70
1
 10
19.26666666666667
 20
30.1
 10
20.066666666666666
 20
30.1
 10
20.066666666666666
 20
30.9
 10
19.26666666666667
 20
30.9
  0
LWPOLYLINE
  5
143
330
17
100
AcDbEntity
  8
PILLAR
100
AcDbPolyline
 90
4
 70
1
 10
19.26666666666667
 20
32.43999981280002
 10
20.066666666666666
 20
32.43999981280002
 10
20.066666666666666
 20
33.239999812800015
 10
19.26666666666667
 20
33.239999812800015
  0
LWPOLYLINE
  5
144
330
17
100
AcDbEntity
  8
PILLAR
100
AcDbPolyline
 90
4
 70
1
 10
23.26666666666667
 20
6.759999985599999
 10
24.066666666666666
 20
6.759999985599999
 10
24.066666666666666
 20
7.559999985599999
 10
23.26666666666667
 20
7.559999985599999
  0
LWPOLYLINE
  5
145
330
17
100
AcDbEntity
  8
PILLAR
100
AcDbPolyline
 90
4
 70
1
 10
23.26666666666667
 20
9.1
 10
24.066666666666666
 20
9.1
 10
24.066666666666666
 20
9.9
 10
23.26666666666667
 20
9.9
  0
LWPOLYLINE
  5
146
330
17
100
AcDbEntity
  8
PILLAR
100
AcDbPolyline
 90
4
 70
1
 10
23.26666666666667
 20
17.6
 10
24.066666666666666
 20
17.6
 10
24.066666666666666
 20
18.4
 10
23.26666666666667
 20
18.4
  0
LWPOLYLINE
  5
147
330
17
100
AcDbEntity
  8
PILLAR
100
AcDbPolyline
 90
4
 70
1
 10
23.26666666666667
 20
19.6
 10
24.066666666666666
 20
19.6
 10
24.066666666666666
 20
20.4
 10
23.26666666666667
 20
20.4
  0
LWPOLYLINE
  5
148
330
17
100
AcDbEntity
  8
PILLAR
100
AcDbPolyline
 90
4
 70
1
 10
23.26666666666667
 20
21.6
 10
24.066666666666666
 20
21.6
 10
24.066666666666666
 20
22.4
 10
23.26666666666667
 20
22.4
  0
LWPOLYLINE
  5
149
330
17
100
AcDbEntity
  8
PILLAR
100
AcDbPolyline
 90
4
 70
1
 10
23.26666666666667
 20
30.1
 10
24.066666666666666
 20
30.1
 10
24.066666666666666
 20
30.9
 10
23.26666666666667
 20
30.9
  0
LWPOLYLINE
  5
14A
330
17
100
AcDbEntity
  8
PILLAR
100
AcDbPolyline
 90
4
 70
1
 10
23.26666666666667
 20
32.4400000144
 10
24.066666666666666
 20
32.4400000144
 10
24.066666666666666
 20
33.240000014399996
 10
23.26666666666667
 20
33.240000014399996
  0
LWPOLYLINE
  5
14B
330
17
100
AcDbEntity
  8
PILLAR
100
AcDbPolyline
 90
4
 70
1
 10
29.6
 20
17.6
 10
30.4
 20
17.6
 10
30.4
 20
18.4
 10
29.6
 20
18.4
  0
LWPOLYLINE
  5
14C
330
17
100
AcDbEntity
  8
PILLAR
100
AcDbPolyline
 90
4
 70
1
 10
29.6
 20
21.6
 10
30.4
 20
21.6
 10
30.4
 20
22.4
 10
29.6
 20
22.4
  0
LWPOLYLINE
  5
14D
330
17
100
AcDbEntity
  8
PILLAR
100
AcDbPolyline
 90
4
 70
1
 10
35.93333333333334
 20
6.759999985599995
 10
36.733333333333334
 20
6.759999985599995
 10
36.733333333333334
 20
7.559999985599996
 10
35.93333333333334
 20
7.559999985599996
  0
LWPOLYLINE
  5
14E
330
17
100
AcDbEntity
  8
PILLAR
100
AcDbPolyline
 90
4
 70
1
 10
35.93333333333334
 20
9.1
 10
36.733333333333334
 20
9.1
 10
36.733333333333334
 20
9.9
 10
35.93333333333334
 20
9.9
  0
LWPOLYLINE
  5
14F
330
17
100
AcDbEntity
  8
PILLAR
100
AcDbPolyline
 90
4
 70
1
 10
35.93333333333334
 20
17.6
 10
36.733333333333334
 20
17.6
 10
36.733333333333334
 20
18.4
 10
35.93333333333334
 20
18.4
  0
LWPOLYLINE
  5
150
330
17
100
AcDbEntity
  8
PILLAR
100
AcDbPolyline
 90
4
 70
1
 10
35.93333333333334
 20
19.6
 10
36.733333333333334
 20
19.6
 10
36.733333333333334
 20
20.4
 10
35.93333333333334
 20
20.4
  0
LWPOLYLINE
  5
151
330
17
100
AcDbEntity
  8
PILLAR
100
AcDbPolyline
 90
4
 70
1
 10
35.93333333333334
 20
21.6
 10
36.733333333333334
 20
21.6
 10
36.733333333333334
 20
22.4
 10
35.93333333333334
 20
22.4
  0
LWPOLYLINE
  5
152
330
17
100
AcDbEntity
  8
PILLAR
100
AcDbPolyline
 90
4
 70
1
 10
35.93333333333334
 20
30.1
 10
36.733333333333334
 20
30.1
 10
36.733333333333334
 20
30.9
 10
35.93333333333334
 20
30.9
  0
LWPOLYLINE
  5
153
330
17
100
AcDbEntity
  8
PILLAR
100
AcDbPolyline
 90
4
 70
1
 10
35.93333333333334
 20
32.440000014400006
 10
36.733333333333334
 20
32.440000014400006
 10
36.733333333333334
 20
33.2400000144
 10
35.93333333333334
 20
33.2400000144
  0
LWPOLYLINE
  5
154
330
17
100
AcDbEntity
  8
PILLAR
100
AcDbPolyline
 90
4
 70
1
 10
39.93333333333334
 20
6.760000187199985
 10
40.733333333333334
 20
6.760000187199985
 10
40.733333333333334
 20
7.560000187199986
 10
39.93333333333334
 20
7.560000187199986
  0
LWPOLYLINE
  5
155
330
17
100
AcDbEntity
  8
PILLAR
100
AcDbPolyline
 90
4
 70
1
 10
39.93333333333334
 20
9.1
 10
40.733333333333334
 20
9.1
 10
40.733333333333334
 20
9.9
 10
39.93333333333334
 20
9.9
  0
LWPOLYLINE
  5
156
330
17
100
AcDbEntity
  8
PILLAR
100
AcDbPolyline
 90
4
 70
1
 10
39.93333333333334
 20
17.6
 10
40.733333333333334
 20
17.6
 10
40.733333333333334
 20
18.4
 10
39.93333333333334
 20
18.4
  0
LWPOLYLINE
  5
157
330
17
100
AcDbEntity
  8
PILLAR
100
AcDbPolyline
 90
4
 70
1
 10
39.93333333333334
 20
19.6
 10
40.733333333333334
 20
19.6
 10
40.733333333333334
 20
20.4
 10
39.93333333333334
 20
20.4
  0
LWPOLYLINE
  5
158
330
17
100
AcDbEntity
  8
PILLAR
100
AcDbPolyline
 90
4
 70
1
 10
39.93333333333334
 20
21.6
 10
40.733333333333334
 20
21.6
 10
40.733333333333334
 20
22.4
 10
39.93333333333334
 20
22.4
  0
LWPOLYLINE
  5
159
330
17
100
AcDbEntity
  8
PILLAR
100
AcDbPolyline
 90
4
 70
1
 10
39.93333333333334
 20
30.1
 10
40.733333333333334
 20
30.1
 10
40.733333333333334
 20
30.9
 10
39.93333333333334
 20
30.9
  0
LWPOLYLINE
  5
15A
330
17
100
AcDbEntity
  8
PILLAR
100
AcDbPolyline
 90
4
 70
1
 10
39.93333333333334
 20
32.43999981280002
 10
40.733333333333334
 20
32.43999981280002
 10
40.733333333333334
 20
33.239999812800015
 10
39.93333333333334
 20
33.239999812800015
  0
LWPOLYLINE
  5
15B
330
17
100
AcDbEntity
  8
PILLAR
100
AcDbPolyline
 90
4
 70
1
 10
42.1
 20
17.6
 10
42.9
 20
17.6
 10
42.9
 20
18.4
 10
42.1
 20
18.4
  0
LWPOLYLINE
  5
15C
330
17
100
AcDbEntity
  8
PILLAR
100
AcDbPolyline
 90
4
 70
1
 10
42.1
 20
21.6
 10
42.9
 20
21.6
 10
42.9
 20
22.4
 10
42.1
 20
22.4
  0
LWPOLYLINE
  5
15D
330
17
100
AcDbEntity
  8
PILLAR
100
AcDbPolyline
 90
4
 70
1
 10
50.1
 20
8.740000302400045
 10
50.9
 20
8.740000302400045
 10
50.9
 20
9.540000302400045
 10
50.1
 20
9.540000302400045
  0
LWPOLYLINE
  5
15E
330
17
100
AcDbEntity
  8
PILLAR
100
AcDbPolyline
 90
4
 70
1
 10
50.1
 20
9.1
 10
50.9
 20
9.1
 10
50.9
 20
9.9
 10
50.1
 20
9.9
  0
LWPOLYLINE
  5
15F
330
17
100
AcDbEntity
  8
PILLAR
100
AcDbPolyline
 90
4
 70
1
 10
50.1
 20
17.6
 10
50.9
 20
17.6
 10
50.9
 20
18.4
 10
50.1
 20
18.4
  0
LWPOLYLINE
  5
160
330
17
100
AcDbEntity
  8
PILLAR
100
AcDbPolyline
 90
4
 70
1
 10
50.1
 20
21.6
 10
50.9
 20
21.6
 10
50.9
 20
22.4
 10
50.1
 20
22.4
  0
LWPOLYLINE
  5
161
330
17
100
AcDbEntity
  8
PILLAR
100
AcDbPolyline
 90
4
 70
1
 10
50.1
 20
30.1
 10
50.9
 20
30.1
 10
50.9
 20
30.9
 10
50.1
 20
30.9
  0
LWPOLYLINE
  5
162
330
17
100
AcDbEntity
  8
PILLAR
100
AcDbPolyline
 90
4
 70
1
 10
50.1
 20
30.459999697599955
 10
50.9
 20
30.459999697599955
 10
50.9
 20
31.25999969759995
 10
50.1
 20
31.25999969759995
  0
LWPOLYLINE
  5
163
330
17
100
AcDbEntity
  8
PILLAR
100
AcDbPolyline
 90
4
 70
1
 10
50.171696051664085
 20
8.817432050586335
 10
50.97169605166408
 20
8.817432050586335
 10
50.97169605166408
 20
9.617432050586336
 10
50.171696051664085
 20
9.617432050586336
  0
LWPOLYLINE
  5
164
330
17
100
AcDbEntity
  8
PILLAR
100
AcDbPolyline
 90
4
 70
1
 10
50.171696051664085
 20
30.382567949413666
 10
50.97169605166408
 20
30.382567949413666
 10
50.97169605166408
 20
31.182567949413663
 10
50.171696051664085
 20
31.182567949413663
  0
LWPOLYLINE
  5
165
330
17
100
AcDbEntity
  8
PILLAR
100
AcDbPolyline
 90
4
 70
1
 10
50.325000262499955
 20
9.1
 10
51.12500026249995
 20
9.1
 10
51.12500026249995
 20
9.9
 10
50.325000262499955
 20
9.9
  0
LWPOLYLINE
  5
166
330
17
100
AcDbEntity
  8
PILLAR
100
AcDbPolyline
 90
4
 70
1
 10
50.32500026249996
 20
30.1
 10
51.12500026249996
 20
30.1
 10
51.12500026249996
 20
30.9
 10
50.32500026249996
 20
30.9
  0
LWPOLYLINE
  5
167
330
17
100
AcDbEntity
  8
PILLAR
100
AcDbPolyline
 90
4
 70
1
 10
51.50000009333334
 20
17.6
 10
52.30000009333334
 20
17.6
 10
52.30000009333334
 20
18.4
 10
51.50000009333334
 20
18.4
  0
LWPOLYLINE
  5
168
330
17
100
AcDbEntity
  8
PILLAR
100
AcDbPolyline
 90
4
 70
1
 10
51.50000009333334
 20
21.6
 10
52.30000009333334
 20
21.6
 10
52.30000009333334
 20
22.4
 10
51.50000009333334
 20
22.4
  0
CIRCLE
  5
169
330
17
100
AcDbEntity
  8
DEBUG_NODE
100
AcDbCircle
 10
5.0
 20
5.0
 30
0.0
 40
0.12
  0
CIRCLE
  5
16A
330
17
100
AcDbEntity
  8
DEBUG_NODE
100
AcDbCircle
 10
19.666666666666668
 20
5.0
 30
0.0
 40
0.12
  0
CIRCLE
  5
16B
330
17
100
AcDbEntity
  8
DEBUG_NODE
100
AcDbCircle
 10
19.666666666666668
 20
35.0
 30
0.0
 40
0.12
  0
CIRCLE
  5
16C
330
17
100
AcDbEntity
  8
DEBUG_NODE
100
AcDbCircle
 10
23.666666666666668
 20
5.0
 30
0.0
 40
0.12
  0
CIRCLE
  5
16D
330
17
100
AcDbEntity
  8
DEBUG_NODE
100
AcDbCircle
 10
23.666666666666668
 20
35.0
 30
0.0
 40
0.12
  0
CIRCLE
  5
16E
330
17
100
AcDbEntity
  8
DEBUG_NODE
100
AcDbCircle
 10
36.333333333333336
 20
5.0
 30
0.0
 40
0.12
  0
CIRCLE
  5
16F
330
17
100
AcDbEntity
  8
DEBUG_NODE
100
AcDbCircle
 10
36.333333333333336
 20
35.0
 30
0.0
 40
0.12
  0
CIRCLE
  5
170
330
17
100
AcDbEntity
  8
DEBUG_NODE
100
AcDbCircle
 10
40.333333333333336
 20
5.0
 30
0.0
 40
0.12
  0
CIRCLE
  5
171
330
17
100
AcDbEntity
  8
DEBUG_NODE
100
AcDbCircle
 10
40.333333333333336
 20
35.0
 30
0.0
 40
0.12
  0
CIRCLE
  5
172
330
17
100
AcDbEntity
  8
DEBUG_NODE
100
AcDbCircle
 10
5.0
 20
18.0
 30
0.0
 40
0.12
  0
CIRCLE
  5
173
330
17
100
AcDbEntity
  8
DEBUG_NODE
100
AcDbCircle
 10
55.0
 20
18.0
 30
0.0
 40
0.12
  0
CIRCLE
  5
174
330
17
100
AcDbEntity
  8
DEBUG_NODE
100
AcDbCircle
 10
5.0
 20
22.0
 30
0.0
 40
0.12
  0
CIRCLE
  5
175
330
17
100
AcDbEntity
  8
DEBUG_NODE
100
AcDbCircle
 10
55.0
 20
22.0
 30
0.0
 40
0.12
  0
CIRCLE
  5
176
330
17
100
AcDbEntity
  8
DEBUG_NODE
100
AcDbCircle
 10
19.666666666666668
 20
18.0
 30
0.0
 40
0.12
  0
CIRCLE
  5
177
330
17
100
AcDbEntity
  8
DEBUG_NODE
100
AcDbCircle
 10
19.666666666666668
 20
22.0
 30
0.0
 40
0.12
  0
CIRCLE
  5
178
330
17
100
AcDbEntity
  8
DEBUG_NODE
100
AcDbCircle
 10
23.666666666666668
 20
18.0
 30
0.0
 40
0.12
  0
CIRCLE
  5
179
330
17
100
AcDbEntity
  8
DEBUG_NODE
100
AcDbCircle
 10
23.666666666666668
 20
22.0
 30
0.0
 40
0.12
  0
CIRCLE
  5
17A
330
17
100
AcDbEntity
  8
DEBUG_NODE
100
AcDbCircle
 10
36.333333333333336
 20
18.0
 30
0.0
 40
0.12
  0
CIRCLE
  5
17B
330
17
100
AcDbEntity
  8
DEBUG_NODE
100
AcDbCircle
 10
36.333333333333336
 20
22.0
 30
0.0
 40
0.12
  0
CIRCLE
  5
17C
330
17
100
AcDbEntity
  8
DEBUG_NODE
100
AcDbCircle
 10
40.333333333333336
 20
18.0
 30
0.0
 40
0.12
  0
CIRCLE
  5
17D
330
17
100
AcDbEntity
  8
DEBUG_NODE
100
AcDbCircle
 10
40.333333333333336
 20
22.0
 30
0.0
 40
0.12
  0
CIRCLE
  5
17E
330
17
100
AcDbEntity
  8
DEBUG_NODE
100
AcDbCircle
 10
19.666666666666668
 20
20.0
 30
0.0
 40
0.12
  0
CIRCLE
  5
17F
330
17
100
AcDbEntity
  8
DEBUG_NODE
100
AcDbCircle
 10
23.666666666666668
 20
20.0
 30
0.0
 40
0.12
  0
CIRCLE
  5
180
330
17
100
AcDbEntity
  8
DEBUG_NODE
100
AcDbCircle
 10
36.333333333333336
 20
20.0
 30
0.0
 40
0.12
  0
CIRCLE
  5
181
330
17
100
AcDbEntity
  8
DEBUG_NODE
100
AcDbCircle
 10
40.333333333333336
 20
20.0
 30
0.0
 40
0.12
  0
CIRCLE
  5
182
330
17
100
AcDbEntity
  8
DEBUG_NODE
100
AcDbCircle
 10
17.5
 20
18.0
 30
0.0
 40
0.12
  0
CIRCLE
  5
183
330
17
100
AcDbEntity
  8
DEBUG_NODE
100
AcDbCircle
 10
17.5
 20
22.0
 30
0.0
 40
0.12
  0
CIRCLE
  5
184
330
17
100
AcDbEntity
  8
DEBUG_NODE
100
AcDbCircle
 10
30.0
 20
18.0
 30
0.0
 40
0.12
  0
CIRCLE
  5
185
330
17
100
AcDbEntity
  8
DEBUG_NODE
100
AcDbCircle
 10
30.0
 20
22.0
 30
0.0
 40
0.12
  0
CIRCLE
  5
186
330
17
100
AcDbEntity
  8
DEBUG_NODE
100
AcDbCircle
 10
42.5
 20
18.0
 30
0.0
 40
0.12
  0
CIRCLE
  5
187
330
17
100
AcDbEntity
  8
DEBUG_NODE
100
AcDbCircle
 10
42.5
 20
22.0
 30
0.0
 40
0.12
  0
CIRCLE
  5
188
330
17
100
AcDbEntity
  8
DEBUG_NODE
100
AcDbCircle
 10
5.0
 20
9.285714
 30
0.0
 40
0.12
  0
CIRCLE
  5
189
330
17
100
AcDbEntity
  8
DEBUG_NODE
100
AcDbCircle
 10
9.5
 20
5.0
 30
0.0
 40
0.12
  0
CIRCLE
  5
18A
330
17
100
AcDbEntity
  8
DEBUG_NODE
100
AcDbCircle
 10
9.5
 20
9.285714
 30
0.0
 40
0.12
  0
CIRCLE
  5
18B
330
17
100
AcDbEntity
  8
DEBUG_NODE
100
AcDbCircle
 10
5.0
 20
13.571429
 30
0.0
 40
0.12
  0
CIRCLE
  5
18C
330
17
100
AcDbEntity
  8
DEBUG_NODE
100
AcDbCircle
 10
9.5
 20
13.571429
 30
0.0
 40
0.12
  0
CIRCLE
  5
18D
330
17
100
AcDbEntity
  8
DEBUG_NODE
100
AcDbCircle
 10
5.0
 20
20.0
 30
0.0
 40
0.12
  0
CIRCLE
  5
18E
330
17
100
AcDbEntity
  8
DEBUG_NODE
100
AcDbCircle
 10
9.5
 20
20.0
 30
0.0
 40
0.12
  0
CIRCLE
  5
18F
330
17
100
AcDbEntity
  8
DEBUG_NODE
100
AcDbCircle
 10
5.0
 20
26.428571
 30
0.0
 40
0.12
  0
CIRCLE
  5
190
330
17
100
AcDbEntity
  8
DEBUG_NODE
100
AcDbCircle
 10
9.5
 20
26.428571
 30
0.0
 40
0.12
  0
CIRCLE
  5
191
330
17
100
AcDbEntity
  8
DEBUG_NODE
100
AcDbCircle
 10
5.0
 20
30.714286
 30
0.0
 40
0.12
  0
CIRCLE
  5
192
330
17
100
AcDbEntity
  8
DEBUG_NODE
100
AcDbCircle
 10
9.5
 20
30.714286
 30
0.0
 40
0.12
  0
CIRCLE
  5
193
330
17
100
AcDbEntity
  8
DEBUG_NODE
100
AcDbCircle
 10
5.0
 20
35.0
 30
0.0
 40
0.12
  0
CIRCLE
  5
194
330
17
100
AcDbEntity
  8
DEBUG_NODE
100
AcDbCircle
 10
9.5
 20
35.0
 30
0.0
 40
0.12
  0
CIRCLE
  5
195
330
17
100
AcDbEntity
  8
DEBUG_NODE
100
AcDbCircle
 10
9.166667
 20
35.0
 30
0.0
 40
0.12
  0
CIRCLE
  5
196
330
17
100
AcDbEntity
  8
DEBUG_NODE
100
AcDbCircle
 10
5.0
 20
30.5
 30
0.0
 40
0.12
  0
CIRCLE
  5
197
330
17
100
AcDbEntity
  8
DEBUG_NODE
100
AcDbCircle
 10
9.166667
 20
30.5
 30
0.0
 40
0.12
  0
CIRCLE
  5
198
330
17
100
AcDbEntity
  8
DEBUG_NODE
100
AcDbCircle
 10
13.333333
 20
35.0
 30
0.0
 40
0.12
  0
CIRCLE
  5
199
330
17
100
AcDbEntity
  8
DEBUG_NODE
100
AcDbCircle
 10
13.333333
 20
30.5
 30
0.0
 40
0.12
  0
CIRCLE
  5
19A
330
17
100
AcDbEntity
  8
DEBUG_NODE
100
AcDbCircle
 10
17.5
 20
35.0
 30
0.0
 40
0.12
  0
CIRCLE
  5
19B
330
17
100
AcDbEntity
  8
DEBUG_NODE
100
AcDbCircle
 10
17.5
 20
30.5
 30
0.0
 40
0.12
  0
CIRCLE
  5
19C
330
17
100
AcDbEntity
  8
DEBUG_NODE
100
AcDbCircle
 10
21.666667
 20
35.0
 30
0.0
 40
0.12
  0
CIRCLE
  5
19D
330
17
100
AcDbEntity
  8
DEBUG_NODE
100
AcDbCircle
 10
21.666667
 20
30.5
 30
0.0
 40
0.12
  0
CIRCLE
  5
19E
330
17
100
AcDbEntity
  8
DEBUG_NODE
100
AcDbCircle
 10
25.833333
 20
35.0
 30
0.0
 40
0.12
  0
CIRCLE
  5
19F
330
17
100
AcDbEntity
  8
DEBUG_NODE
100
AcDbCircle
 10
25.833333
 20
30.5
 30
0.0
 40
0.12
  0
CIRCLE
  5
1A0
330
17
100
AcDbEntity
  8
DEBUG_NODE
100
AcDbCircle
 10
30.0
 20
35.0
 30
0.0
 40
0.12
  0
CIRCLE
  5
1A1
330
17
100
AcDbEntity
  8
DEBUG_NODE
100
AcDbCircle
 10
30.0
 20
30.5
 30
0.0
 40
0.12
  0
CIRCLE
  5
1A2
330
17
100
AcDbEntity
  8
DEBUG_NODE
100
AcDbCircle
 10
34.166667
 20
35.0
 30
0.0
 40
0.12
  0
CIRCLE
  5
1A3
330
17
100
AcDbEntity
  8
DEBUG_NODE
100
AcDbCircle
 10
34.166667
 20
30.5
 30
0.0
 40
0.12
  0
CIRCLE
  5
1A4
330
17
100
AcDbEntity
  8
DEBUG_NODE
100
AcDbCircle
 10
38.333333
 20
35.0
 30
0.0
 40
0.12
  0
CIRCLE
  5
1A5
330
17
100
AcDbEntity
  8
DEBUG_NODE
100
AcDbCircle
 10
38.333333
 20
30.5
 30
0.0
 40
0.12
  0
CIRCLE
  5
1A6
330
17
100
AcDbEntity
  8
DEBUG_NODE
100
AcDbCircle
 10
42.5
 20
35.0
 30
0.0
 40
0.12
  0
CIRCLE
  5
1A7
330
17
100
AcDbEntity
  8
DEBUG_NODE
100
AcDbCircle
 10
42.5
 20
30.5
 30
0.0
 40
0.12
  0
CIRCLE
  5
1A8
330
17
100
AcDbEntity
  8
DEBUG_NODE
100
AcDbCircle
 10
46.666667
 20
35.0
 30
0.0
 40
0.12
  0
CIRCLE
  5
1A9
330
17
100
AcDbEntity
  8
DEBUG_NODE
100
AcDbCircle
 10
46.666667
 20
30.5
 30
0.0
 40
0.12
  0
CIRCLE
  5
1AA
330
17
100
AcDbEntity
  8
DEBUG_NODE
100
AcDbCircle
 10
50.833333
 20
35.0
 30
0.0
 40
0.12
  0
CIRCLE
  5
1AB
330
17
100
AcDbEntity
  8
DEBUG_NODE
100
AcDbCircle
 10
50.833333
 20
30.5
 30
0.0
 40
0.12
  0
CIRCLE
  5
1AC
330
17
100
AcDbEntity
  8
DEBUG_NODE
100
AcDbCircle
 10
55.0
 20
35.0
 30
0.0
 40
0.12
  0
CIRCLE
  5
1AD
330
17
100
AcDbEntity
  8
DEBUG_NODE
100
AcDbCircle
 10
55.0
 20
30.5
 30
0.0
 40
0.12
  0
CIRCLE
  5
1AE
330
17
100
AcDbEntity
  8
DEBUG_NODE
100
AcDbCircle
 10
55.0
 20
5.0
 30
0.0
 40
0.12
  0
CIRCLE
  5
1AF
330
17
100
AcDbEntity
  8
DEBUG_NODE
100
AcDbCircle
 10
55.0
 20
9.285714
 30
0.0
 40
0.12
  0
CIRCLE
  5
1B0
330
17
100
AcDbEntity
  8
DEBUG_NODE
100
AcDbCircle
 10
50.5
 20
5.0
 30
0.0
 40
0.12
  0
CIRCLE
  5
1B1
330
17
100
AcDbEntity
  8
DEBUG_NODE
100
AcDbCircle
 10
50.5
 20
9.285714
 30
0.0
 40
0.12
  0
CIRCLE
  5
1B2
330
17
100
AcDbEntity
  8
DEBUG_NODE
100
AcDbCircle
 10
55.0
 20
13.571429
 30
0.0
 40
0.12
  0
CIRCLE
  5
1B3
330
17
100
AcDbEntity
  8
DEBUG_NODE
100
AcDbCircle
 10
50.5
 20
13.571429
 30
0.0
 40
0.12
  0
CIRCLE
  5
1B4
330
17
100
AcDbEntity
  8
DEBUG_NODE
100
AcDbCircle
 10
55.0
 20
20.0
 30
0.0
 40
0.12
  0
CIRCLE
  5
1B5
330
17
100
AcDbEntity
  8
DEBUG_NODE
100
AcDbCircle
 10
50.5
 20
20.0
 30
0.0
 40
0.12
  0
CIRCLE
  5
1B6
330
17
100
AcDbEntity
  8
DEBUG_NODE
100
AcDbCircle
 10
55.0
 20
26.428571
 30
0.0
 40
0.12
  0
CIRCLE
  5
1B7
330
17
100
AcDbEntity
  8
DEBUG_NODE
100
AcDbCircle
 10
50.5
 20
26.428571
 30
0.0
 40
0.12
  0
CIRCLE
  5
1B8
330
17
100
AcDbEntity
  8
DEBUG_NODE
100
AcDbCircle
 10
55.0
 20
30.714286
 30
0.0
 40
0.12
  0
CIRCLE
  5
1B9
330
17
100
AcDbEntity
  8
DEBUG_NODE
100
AcDbCircle
 10
50.5
 20
30.714286
 30
0.0
 40
0.12
  0
CIRCLE
  5
1BA
330
17
100
AcDbEntity
  8
DEBUG_NODE
100
AcDbCircle
 10
50.5
 20
35.0
 30
0.0
 40
0.12
  0
CIRCLE
  5
1BB
330
17
100
AcDbEntity
  8
DEBUG_NODE
100
AcDbCircle
 10
9.166667
 20
5.0
 30
0.0
 40
0.12
  0
CIRCLE
  5
1BC
330
17
100
AcDbEntity
  8
DEBUG_NODE
100
AcDbCircle
 10
5.0
 20
9.5
 30
0.0
 40
0.12
  0
CIRCLE
  5
1BD
330
17
100
AcDbEntity
  8
DEBUG_NODE
100
AcDbCircle
 10
9.166667
 20
9.5
 30
0.0
 40
0.12
  0
CIRCLE
  5
1BE
330
17
100
AcDbEntity
  8
DEBUG_NODE
100
AcDbCircle
 10
13.333333
 20
5.0
 30
0.0
 40
0.12
  0
CIRCLE
  5
1BF
330
17
100
AcDbEntity
  8
DEBUG_NODE
100
AcDbCircle
 10
13.333333
 20
9.5
 30
0.0
 40
0.12
  0
CIRCLE
  5
1C0
330
17
100
AcDbEntity
  8
DEBUG_NODE
100
AcDbCircle
 10
17.5
 20
5.0
 30
0.0
 40
0.12
  0
CIRCLE
  5
1C1
330
17
100
AcDbEntity
  8
DEBUG_NODE
100
AcDbCircle
 10
17.5
 20
9.5
 30
0.0
 40
0.12
  0
CIRCLE
  5
1C2
330
17
100
AcDbEntity
  8
DEBUG_NODE
100
AcDbCircle
 10
21.666667
 20
5.0
 30
0.0
 40
0.12
  0
CIRCLE
  5
1C3
330
17
100
AcDbEntity
  8
DEBUG_NODE
100
AcDbCircle
 10
21.666667
 20
9.5
 30
0.0
 40
0.12
  0
CIRCLE
  5
1C4
330
17
100
AcDbEntity
  8
DEBUG_NODE
100
AcDbCircle
 10
25.833333
 20
5.0
 30
0.0
 40
0.12
  0
CIRCLE
  5
1C5
330
17
100
AcDbEntity
  8
DEBUG_NODE
100
AcDbCircle
 10
25.833333
 20
9.5
 30
0.0
 40
0.12
  0
CIRCLE
  5
1C6
330
17
100
AcDbEntity
  8
DEBUG_NODE
100
AcDbCircle
 10
30.0
 20
5.0
 30
0.0
 40
0.12
  0
CIRCLE
  5
1C7
330
17
100
AcDbEntity
  8
DEBUG_NODE
100
AcDbCircle
 10
30.0
 20
9.5
 30
0.0
 40
0.12
  0
CIRCLE
  5
1C8
330
17
100
AcDbEntity
  8
DEBUG_NODE
100
AcDbCircle
 10
34.166667
 20
5.0
 30
0.0
 40
0.12
  0
CIRCLE
  5
1C9
330
17
100
AcDbEntity
  8
DEBUG_NODE
100
AcDbCircle
 10
34.166667
 20
9.5
 30
0.0
 40
0.12
  0
CIRCLE
  5
1CA
330
17
100
AcDbEntity
  8
DEBUG_NODE
100
AcDbCircle
 10
38.333333
 20
5.0
 30
0.0
 40
0.12
  0
CIRCLE
  5
1CB
330
17
100
AcDbEntity
  8
DEBUG_NODE
100
AcDbCircle
 10
38.333333
 20
9.5
 30
0.0
 40
0.12
  0
CIRCLE
  5
1CC
330
17
100
AcDbEntity
  8
DEBUG_NODE
100
AcDbCircle
 10
42.5
 20
5.0
 30
0.0
 40
0.12
  0
CIRCLE
  5
1CD
330
17
100
AcDbEntity
  8
DEBUG_NODE
100
AcDbCircle
 10
42.5
 20
9.5
 30
0.0
 40
0.12
  0
CIRCLE
  5
1CE
330
17
100
AcDbEntity
  8
DEBUG_NODE
100
AcDbCircle
 10
46.666667
 20
5.0
 30
0.0
 40
0.12
  0
CIRCLE
  5
1CF
330
17
100
AcDbEntity
  8
DEBUG_NODE
100
AcDbCircle
 10
46.666667
 20
9.5
 30
0.0
 40
0.12
  0
CIRCLE
  5
1D0
330
17
100
AcDbEntity
  8
DEBUG_NODE
100
AcDbCircle
 10
50.833333
 20
5.0
 30
0.0
 40
0.12
  0
CIRCLE
  5
1D1
330
17
100
AcDbEntity
  8
DEBUG_NODE
100
AcDbCircle
 10
50.833333
 20
9.5
 30
0.0
 40
0.12
  0
CIRCLE
  5
1D2
330
17
100
AcDbEntity
  8
DEBUG_NODE
100
AcDbCircle
 10
55.0
 20
9.5
 30
0.0
 40
0.12
  0
CIRCLE
  5
1D3
330
17
100
AcDbEntity
  8
DEBUG_NODE
100
AcDbCircle
 10
19.666666666666668
 20
30.5
 30
0.0
 40
0.12
  0
CIRCLE
  5
1D4
330
17
100
AcDbEntity
  8
DEBUG_NODE
100
AcDbCircle
 10
19.666666666666668
 20
32.839999812800016
 30
0.0
 40
0.12
  0
CIRCLE
  5
1D5
330
17
100
AcDbEntity
  8
DEBUG_NODE
100
AcDbCircle
 10
19.666666666666668
 20
9.5
 30
0.0
 40
0.12
  0
CIRCLE
  5
1D6
330
17
100
AcDbEntity
  8
DEBUG_NODE
100
AcDbCircle
 10
19.666666666666668
 20
7.160000187199984
 30
0.0
 40
0.12
  0
CIRCLE
  5
1D7
330
17
100
AcDbEntity
  8
DEBUG_NODE
100
AcDbCircle
 10
23.666666666666668
 20
30.5
 30
0.0
 40
0.12
  0
CIRCLE
  5
1D8
330
17
100
AcDbEntity
  8
DEBUG_NODE
100
AcDbCircle
 10
23.666666666666668
 20
32.8400000144
 30
0.0
 40
0.12
  0
CIRCLE
  5
1D9
330
17
100
AcDbEntity
  8
DEBUG_NODE
100
AcDbCircle
 10
23.666666666666668
 20
9.5
 30
0.0
 40
0.12
  0
CIRCLE
  5
1DA
330
17
100
AcDbEntity
  8
DEBUG_NODE
100
AcDbCircle
 10
23.666666666666668
 20
7.159999985599999
 30
0.0
 40
0.12
  0
CIRCLE
  5
1DB
330
17
100
AcDbEntity
  8
DEBUG_NODE
100
AcDbCircle
 10
36.333333333333336
 20
30.5
 30
0.0
 40
0.12
  0
CIRCLE
  5
1DC
330
17
100
AcDbEntity
  8
DEBUG_NODE
100
AcDbCircle
 10
36.333333333333336
 20
32.840000014400005
 30
0.0
 40
0.12
  0
CIRCLE
  5
1DD
330
17
100
AcDbEntity
  8
DEBUG_NODE
100
AcDbCircle
 10
36.333333333333336
 20
9.5
 30
0.0
 40
0.12
  0
CIRCLE
  5
1DE
330
17
100
AcDbEntity
  8
DEBUG_NODE
100
AcDbCircle
 10
36.333333333333336
 20
7.159999985599995
 30
0.0
 40
0.12
  0
CIRCLE
  5
1DF
330
17
100
AcDbEntity
  8
DEBUG_NODE
100
AcDbCircle
 10
40.333333333333336
 20
30.5
 30
0.0
 40
0.12
  0
CIRCLE
  5
1E0
330
17
100
AcDbEntity
  8
DEBUG_NODE
100
AcDbCircle
 10
40.333333333333336
 20
32.839999812800016
 30
0.0
 40
0.12
  0
CIRCLE
  5
1E1
330
17
100
AcDbEntity
  8
DEBUG_NODE
100
AcDbCircle
 10
40.333333333333336
 20
9.5
 30
0.0
 40
0.12
  0
CIRCLE
  5
1E2
330
17
100
AcDbEntity
  8
DEBUG_NODE
100
AcDbCircle
 10
40.333333333333336
 20
7.160000187199985
 30
0.0
 40
0.12
  0
CIRCLE
  5
1E3
330
17
100
AcDbEntity
  8
DEBUG_NODE
100
AcDbCircle
 10
9.5
 20
18.0
 30
0.0
 40
0.12
  0
CIRCLE
  5
1E4
330
17
100
AcDbEntity
  8
DEBUG_NODE
100
AcDbCircle
 10
8.09999990666666
 20
18.0
 30
0.0
 40
0.12
  0
CIRCLE
  5
1E5
330
17
100
AcDbEntity
  8
DEBUG_NODE
100
AcDbCircle
 10
50.5
 20
18.0
 30
0.0
 40
0.12
  0
CIRCLE
  5
1E6
330
17
100
AcDbEntity
  8
DEBUG_NODE
100
AcDbCircle
 10
51.90000009333334
 20
18.0
 30
0.0
 40
0.12
  0
CIRCLE
  5
1E7
330
17
100
AcDbEntity
  8
DEBUG_NODE
100
AcDbCircle
 10
9.5
 20
22.0
 30
0.0
 40
0.12
  0
CIRCLE
  5
1E8
330
17
100
AcDbEntity
  8
DEBUG_NODE
100
AcDbCircle
 10
8.09999990666666
 20
22.0
 30
0.0
 40
0.12
  0
CIRCLE
  5
1E9
330
17
100
AcDbEntity
  8
DEBUG_NODE
100
AcDbCircle
 10
50.5
 20
22.0
 30
0.0
 40
0.12
  0
CIRCLE
  5
1EA
330
17
100
AcDbEntity
  8
DEBUG_NODE
100
AcDbCircle
 10
51.90000009333334
 20
22.0
 30
0.0
 40
0.12
  0
CIRCLE
  5
1EB
330
17
100
AcDbEntity
  8
DEBUG_NODE
100
AcDbCircle
 10
9.5
 20
9.140000302400049
 30
0.0
 40
0.12
  0
CIRCLE
  5
1EC
330
17
100
AcDbEntity
  8
DEBUG_NODE
100
AcDbCircle
 10
9.428303948335918
 20
9.217432050586337
 30
0.0
 40
0.12
  0
CIRCLE
  5
1ED
330
17
100
AcDbEntity
  8
DEBUG_NODE
100
AcDbCircle
 10
9.5
 20
9.5
 30
0.0
 40
0.12
  0
CIRCLE
  5
1EE
330
17
100
AcDbEntity
  8
DEBUG_NODE
100
AcDbCircle
 10
9.274999737500044
 20
9.5
 30
0.0
 40
0.12
  0
CIRCLE
  5
1EF
330
17
100
AcDbEntity
  8
DEBUG_NODE
100
AcDbCircle
 10
9.5
 20
30.5
 30
0.0
 40
0.12
  0
CIRCLE
  5
1F0
330
17
100
AcDbEntity
  8
DEBUG_NODE
100
AcDbCircle
 10
9.274999737500043
 20
30.5
 30
0.0
 40
0.12
  0
CIRCLE
  5
1F1
330
17
100
AcDbEntity
  8
DEBUG_NODE
100
AcDbCircle
 10
9.5
 20
30.85999969759995
 30
0.0
 40
0.12
  0
CIRCLE
  5
1F2
330
17
100
AcDbEntity
  8
DEBUG_NODE
100
AcDbCircle
 10
9.428303948335918
 20
30.782567949413664
 30
0.0
 40
0.12
  0
CIRCLE
  5
1F3
330
17
100
AcDbEntity
  8
DEBUG_NODE
100
AcDbCircle
 10
50.5
 20
30.5
 30
0.0
 40
0.12
  0
CIRCLE
  5
1F4
330
17
100
AcDbEntity
  8
DEBUG_NODE
100
AcDbCircle
 10
50.72500026249996
 20
30.5
 30
0.0
 40
0.12
  0
CIRCLE
  5
1F5
330
17
100
AcDbEntity
  8
DEBUG_NODE
100
AcDbCircle
 10
50.5
 20
30.859999697599953
 30
0.0
 40
0.12
  0
CIRCLE
  5
1F6
330
17
100
AcDbEntity
  8
DEBUG_NODE
100
AcDbCircle
 10
50.571696051664084
 20
30.782567949413664
 30
0.0
 40
0.12
  0
CIRCLE
  5
1F7
330
17
100
AcDbEntity
  8
DEBUG_NODE
100
AcDbCircle
 10
50.5
 20
9.140000302400045
 30
0.0
 40
0.12
  0
CIRCLE
  5
1F8
330
17
100
AcDbEntity
  8
DEBUG_NODE
100
AcDbCircle
 10
50.571696051664084
 20
9.217432050586336
 30
0.0
 40
0.12
  0
CIRCLE
  5
1F9
330
17
100
AcDbEntity
  8
DEBUG_NODE
100
AcDbCircle
 10
50.5
 20
9.5
 30
0.0
 40
0.12
  0
CIRCLE
  5
1FA
330
17
100
AcDbEntity
  8
DEBUG_NODE
100
AcDbCircle
 10
50.725000262499954
 20
9.5
 30
0.0
 40
0.12
  0
ENDSEC
  0
SECTION
  2
OBJECTS
  0
DICTIONARY
  5
A
330
0
100
AcDbDictionary
281
1
  3
ACAD_COLOR
350
B
  3
ACAD_GROUP
350
C
  3
ACAD_LAYOUT
350
D
  3
ACAD_MATERIAL
350
E
  3
ACAD_MLEADERSTYLE
350
F
  3
ACAD_MLINESTYLE
350
10
  3
ACAD_PLOTSETTINGS
350
11
  3
ACAD_PLOTSTYLENAME
350
12
  3
ACAD_SCALELIST
350
14
  3
ACAD_TABLESTYLE
350
15
  3
ACAD_VISUALSTYLE
350
16
  3
EZDXF_META
350
2D
  0
DICTIONARY
  5
B
330
A
100
AcDbDictionary
281
1
  0
DICTIONARY
  5
C
330
A
100
AcDbDictionary
281
1
  0
DICTIONARY
  5
D
330
A
100
AcDbDictionary
281
1
  3
Model
350
1A
  3
Layout1
350
1E
  0
DICTIONARY
  5
E
330
A
100
AcDbDictionary
281
1
  3
ByBlock
350
1F
  3
ByLayer
350
20
  3
Global
350
21
  0
DICTIONARY
  5
F
330
A
100
AcDbDictionary
281
1
  3
Standard
350
2C
  0
DICTIONARY
  5
10
330
A
100
AcDbDictionary
281
1
  3
Standard
350
22
  0
DICTIONARY
  5
11
330
A
100
AcDbDictionary
281
1
  0
ACDBDICTIONARYWDFLT
  5
12
330
A
100
AcDbDictionary
281
1
  3
Normal
350
13
100
AcDbDictionaryWithDefault
340
13
  0
ACDBPLACEHOLDER
  5
13
330
12
  0
DICTIONARY
  5
14
330
A
100
AcDbDictionary
281
1
  0
DICTIONARY
  5
15
330
A
100
AcDbDictionary
281
1
  0
DICTIONARY
  5
16
330
A
100
AcDbDictionary
281
1
  0
LAYOUT
  5
1A
330
D
100
AcDbPlotSettings
  1

  4
A3
  6

 40
7.5
 41
20.0
 42
7.5
 43
20.0
 44
420.0
 45
297.0
 46
0.0
 47
0.0
 48
0.0
 49
0.0
140
0.0
141
0.0
142
1.0
143
1.0
 70
1024
 72
1
 73
0
 74
5
  7

 75
16
 76
0
 77
2
 78
300
147
1.0
148
0.0
149
0.0
100
AcDbLayout
  1
Model
 70
1
 71
0
 10
0.0
 20
0.0
 11
420.0
 21
297.0
 12
0.0
 22
0.0
 32
0.0
 14
1e+20
 24
1e+20
 34
1e+20
 15
-1e+20
 25
-1e+20
 35
-1e+20
146
0.0
 13
0.0
 23
0.0
 33
0.0
 16
1.0
 26
0.0
 36
0.0
 17
0.0
 27
1.0
 37
0.0
 76
1
330
17
  0
LAYOUT
  5
1E
330
D
100
AcDbPlotSettings
  1

  4
A3
  6

 40
7.5
 41
20.0
 42
7.5
 43
20.0
 44
420.0
 45
297.0
 46
0.0
 47
0.0
 48
0.0
 49
0.0
140
0.0
141
0.0
142
1.0
143
1.0
 70
0
 72
1
 73
0
 74
5
  7

 75
16
 76
0
 77
2
 78
300
147
1.0
148
0.0
149
0.0
100
AcDbLayout
  1
Layout1
 70
1
 71
1
 10
0.0
 20
0.0
 11
420.0
 21
297.0
 12
0.0
 22
0.0
 32
0.0
 14
1e+20
 24
1e+20
 34
1e+20
 15
-1e+20
 25
-1e+20
 35
-1e+20
146
0.0
 13
0.0
 23
0.0
 33
0.0
 16
1.0
 26
0.0
 36
0.0
 17
0.0
 27
1.0
 37
0.0
 76
1
330
1B
  0
MATERIAL
  5
1F
102
{ACAD_REACTORS
330
E
102
}
330
E
100
AcDbMaterial
  1
ByBlock
  2

 70
0
 40
1.0
 71
1
 41
1.0
 91
-1023410177
 42
1.0
 72
1
  3

 73
1
 74
1
 75
1
 44
0.5
 73
0
 45
1.0
 46
1.0
 77
1
  4

 78
1
 79
1
170
1
 48
1.0
171
1
  6

172
1
173
1
174
1
140
1.0
141
1.0
175
1
  7

176
1
177
1
178
1
143
1.0
179
1
  8

270
1
271
1
272
1
145
1.0
146
1.0
273
1
  9

274
1
275
1
276
1
 42
1.0
 72
1
  3

 73
1
 74
1
 75
1
 94
63
  0
MATERIAL
  5
20
102
{ACAD_REACTORS
330
E
102
}
330
E
100
AcDbMaterial
  1
ByLayer
  2

 70
0
 40
1.0
 71
1
 41
1.0
 91
-1023410177
 42
1.0
 72
1
  3

 73
1
 74
1
 75
1
 44
0.5
 73
0
 45
1.0
 46
1.0
 77
1
  4

 78
1
 79
1
170
1
 48
1.0
171
1
  6

172
1
173
1
174
1
140
1.0
141
1.0
175
1
  7

176
1
177
1
178
1
143
1.0
179
1
  8

270
1
271
1
272
1
145
1.0
146
1.0
273
1
  9

274
1
275
1
276
1
 42
1.0
 72
1
  3

 73
1
 74
1
 75
1
 94
63
  0
MATERIAL
  5
21
102
{ACAD_REACTORS
330
E
102
}
330
E
100
AcDbMaterial
  1
Global
  2

 70
0
 40
1.0
 71
1
 41
1.0
 91
-1023410177
 42
1.0
 72
1
  3

 73
1
 74
1
 75
1
 44
0.5
 73
0
 45
1.0
 46
1.0
 77
1
  4

 78
1
 79
1
170
1
 48
1.0
171
1
  6

172
1
173
1
174
1
140
1.0
141
1.0
175
1
  7

176
1
177
1
178
1
143
1.0
179
1
  8

270
1
271
1
272
1
145
1.0
146
1.0
273
1
  9

274
1
275
1
276
1
 42
1.0
 72
1
  3

 73
1
 74
1
 75
1
 94
63
  0
MLINESTYLE
  5
22
102
{ACAD_REACTORS
330
10
102
}
330
10
100
AcDbMlineStyle
  2
Standard
 70
0
  3

 62
256
 51
90.0
 52
90.0
 71
2
 49
0.5
 62
256
  6
BYLAYER
 49
-0.5
 62
256
  6
BYLAYER
  0
MLEADERSTYLE
  5
2C
102
{ACAD_REACTORS
330
F
102
}
330
F
100
AcDbMLeaderStyle
179
2
170
2
171
1
172
0
 90
2
 40
0.0
 41
0.0
173
1
 91
-1056964608
 92
-2
290
1
 42
2.0
291
1
 43
8.0
  3
Standard
 44
4.0
300

342
29
174
1
175
1
176
0
178
1
 93
-1056964608
 45
4.0
292
0
297
0
 46
4.0
 94
-1056964608
 47
1.0
 49
1.0
140
1.0
294
1
141
0.0
177
0
142
1.0
295
0
296
0
143
3.75
271
0
272
9
273
9
  0
DICTIONARY
  5
2D
330
A
100
AcDbDictionary
280
1
281
1
  3
CREATED_BY_EZDXF
350
2E
  3
WRITTEN_BY_EZDXF
350
1FD
  0
DICTIONARYVAR
  5
2E
330
2D
100
DictionaryVariables
280
0
  1
1.4.3 @ 2026-07-03T05:12:07.734293+00:00
  0
DICTIONARYVAR
  5
1FD
330
2D
100
DictionaryVariables
280
0
  1
1.4.3 @ 2026-07-03T05:12:07.759546+00:00
  0
ENDSEC
  0
EOF
