  0
SECTION
  2
HEADER
  9
$ACADVER
  1
AC1024
  9
$ACADMAINTVER
 70
6
  9
$DWGCODEPAGE
  3
ANSI_1252
  9
$LASTSAVEDBY
  1
ezdxf
  9
$INSBASE
 10
0.0
 20
0.0
 30
0.0
  9
$EXTMIN
 10
1e+20
 20
1e+20
 30
1e+20
  9
$EXTMAX
 10
-1e+20
 20
-1e+20
 30
-1e+20
  9
$LIMMIN
 10
0.0
 20
0.0
  9
$LIMMAX
 10
420.0
 20
297.0
  9
$ORTHOMODE
 70
0
  9
$REGENMODE
 70
1
  9
$FILLMODE
 70
1
  9
$QTEXTMODE
 70
0
  9
$MIRRTEXT
 70
1
  9
$LTSCALE
 40
1.0
  9
$ATTMODE
 70
1
  9
$TEXTSIZE
 40
2.5
  9
$TRACEWID
 40
1.0
  9
$TEXTSTYLE
  7
Standard
  9
$CLAYER
  8
0
  9
$CELTYPE
  6
ByLayer
  9
$CECOLOR
 62
256
  9
$CELTSCALE
 40
1.0
  9
$DISPSILH
 70
0
  9
$DIMSCALE
 40
1.0
  9
$DIMASZ
 40
2.5
  9
$DIMEXO
 40
0.625
  9
$DIMDLI
 40
3.75
  9
$DIMRND
 40
0.0
  9
$DIMDLE
 40
0.0
  9
$DIMEXE
 40
1.25
  9
$DIMTP
 40
0.0
  9
$DIMTM
 40
0.0
  9
$DIMTXT
 40
2.5
  9
$DIMCEN
 40
2.5
  9
$DIMTSZ
 40
0.0
  9
$DIMTOL
 70
0
  9
$DIMLIM
 70
0
  9
$DIMTIH
 70
0
  9
$DIMTOH
 70
0
  9
$DIMSE1
 70
0
  9
$DIMSE2
 70
0
  9
$DIMTAD
 70
1
  9
$DIMZIN
 70
8
  9
$DIMBLK
  1

  9
$DIMASO
 70
1
  9
$DIMSHO
 70
1
  9
$DIMPOST
  1

  9
$DIMAPOST
  1

  9
$DIMALT
 70
0
  9
$DIMALTD
 70
3
  9
$DIMALTF
 40
0.03937007874
  9
$DIMLFAC
 40
1.0
  9
$DIMTOFL
 70
1
  9
$DIMTVP
 40
0.0
  9
$DIMTIX
 70
0
  9
$DIMSOXD
 70
0
  9
$DIMSAH
 70
0
  9
$DIMBLK1
  1

  9
$DIMBLK2
  1

  9
$DIMSTYLE
  2
ISO-25
  9
$DIMCLRD
 70
0
  9
$DIMCLRE
 70
0
  9
$DIMCLRT
 70
0
  9
$DIMTFAC
 40
1.0
  9
$DIMGAP
 40
0.625
  9
$DIMJUST
 70
0
  9
$DIMSD1
 70
0
  9
$DIMSD2
 70
0
  9
$DIMTOLJ
 70
0
  9
$DIMTZIN
 70
8
  9
$DIMALTZ
 70
0
  9
$DIMALTTZ
 70
0
  9
$DIMUPT
 70
0
  9
$DIMDEC
 70
2
  9
$DIMTDEC
 70
2
  9
$DIMALTU
 70
2
  9
$DIMALTTD
 70
3
  9
$DIMTXSTY
  7
Standard
  9
$DIMAUNIT
 70
0
  9
$DIMADEC
 70
0
  9
$DIMALTRND
 40
0.0
  9
$DIMAZIN
 70
0
  9
$DIMDSEP
 70
44
  9
$DIMATFIT
 70
3
  9
$DIMFRAC
 70
0
  9
$DIMLDRBLK
  1

  9
$DIMLUNIT
 70
2
  9
$DIMLWD
 70
-2
  9
$DIMLWE
 70
-2
  9
$DIMTMOVE
 70
0
  9
$DIMFXL
 40
1.0
  9
$DIMFXLON
 70
0
  9
$DIMJOGANG
 40
0.785398163397
  9
$DIMTFILL
 70
0
  9
$DIMTFILLCLR
 70
0
  9
$DIMARCSYM
 70
0
  9
$DIMLTYPE
  6

  9
$DIMLTEX1
  6

  9
$DIMLTEX2
  6

  9
$DIMTXTDIRECTION
 70
0
  9
$LUNITS
 70
2
  9
$LUPREC
 70
4
  9
$SKETCHINC
 40
1.0
  9
$FILLETRAD
 40
10.0
  9
$AUNITS
 70
0
  9
$AUPREC
 70
2
  9
$MENU
  1
.
  9
$ELEVATION
 40
0.0
  9
$PELEVATION
 40
0.0
  9
$THICKNESS
 40
0.0
  9
$LIMCHECK
 70
0
  9
$CHAMFERA
 40
0.0
  9
$CHAMFERB
 40
0.0
  9
$CHAMFERC
 40
0.0
  9
$CHAMFERD
 40
0.0
  9
$SKPOLY
 70
0
  9
$TDCREATE
 40
2461210.5627893517
  9
$TDUCREATE
 40
2458532.153996898
  9
$TDUPDATE
 40
2461210.5627893517
  9
$TDUUPDATE
 40
2458532.1544311
  9
$TDINDWG
 40
0.0
  9
$TDUSRTIMER
 40
0.0
  9
$USRTIMER
 70
1
  9
$ANGBASE
 50
0.0
  9
$ANGDIR
 70
0
  9
$PDMODE
 70
0
  9
$PDSIZE
 40
0.0
  9
$PLINEWID
 40
0.0
  9
$SPLFRAME
 70
0
  9
$SPLINETYPE
 70
6
  9
$SPLINESEGS
 70
8
  9
$HANDSEED
  5
278
  9
$SURFTAB1
 70
6
  9
$SURFTAB2
 70
6
  9
$SURFTYPE
 70
6
  9
$SURFU
 70
6
  9
$SURFV
 70
6
  9
$UCSBASE
  2

  9
$UCSNAME
  2

  9
$UCSORG
 10
0.0
 20
0.0
 30
0.0
  9
$UCSXDIR
 10
1.0
 20
0.0
 30
0.0
  9
$UCSYDIR
 10
0.0
 20
1.0
 30
0.0
  9
$UCSORTHOREF
  2

  9
$UCSORTHOVIEW
 70
0
  9
$UCSORGTOP
 10
0.0
 20
0.0
 30
0.0
  9
$UCSORGBOTTOM
 10
0.0
 20
0.0
 30
0.0
  9
$UCSORGLEFT
 10
0.0
 20
0.0
 30
0.0
  9
$UCSORGRIGHT
 10
0.0
 20
0.0
 30
0.0
  9
$UCSORGFRONT
 10
0.0
 20
0.0
 30
0.0
  9
$UCSORGBACK
 10
0.0
 20
0.0
 30
0.0
  9
$PUCSBASE
  2

  9
$PUCSNAME
  2

  9
$PUCSORG
 10
0.0
 20
0.0
 30
0.0
  9
$PUCSXDIR
 10
1.0
 20
0.0
 30
0.0
  9
$PUCSYDIR
 10
0.0
 20
1.0
 30
0.0
  9
$PUCSORTHOREF
  2

  9
$PUCSORTHOVIEW
 70
0
  9
$PUCSORGTOP
 10
0.0
 20
0.0
 30
0.0
  9
$PUCSORGBOTTOM
 10
0.0
 20
0.0
 30
0.0
  9
$PUCSORGLEFT
 10
0.0
 20
0.0
 30
0.0
  9
$PUCSORGRIGHT
 10
0.0
 20
0.0
 30
0.0
  9
$PUCSORGFRONT
 10
0.0
 20
0.0
 30
0.0
  9
$PUCSORGBACK
 10
0.0
 20
0.0
 30
0.0
  9
$USERI1
 70
0
  9
$USERI2
 70
0
  9
$USERI3
 70
0
  9
$USERI4
 70
0
  9
$USERI5
 70
0
  9
$USERR1
 40
0.0
  9
$USERR2
 40
0.0
  9
$USERR3
 40
0.0
  9
$USERR4
 40
0.0
  9
$USERR5
 40
0.0
  9
$WORLDVIEW
 70
1
  9
$SHADEDGE
 70
3
  9
$SHADEDIF
 70
70
  9
$TILEMODE
 70
1
  9
$MAXACTVP
 70
64
  9
$PINSBASE
 10
0.0
 20
0.0
 30
0.0
  9
$PLIMCHECK
 70
0
  9
$PEXTMIN
 10
1e+20
 20
1e+20
 30
1e+20
  9
$PEXTMAX
 10
-1e+20
 20
-1e+20
 30
-1e+20
  9
$PLIMMIN
 10
0.0
 20
0.0
  9
$PLIMMAX
 10
420.0
 20
297.0
  9
$UNITMODE
 70
0
  9
$VISRETAIN
 70
1
  9
$PLINEGEN
 70
0
  9
$PSLTSCALE
 70
1
  9
$TREEDEPTH
 70
3020
  9
$CMLSTYLE
  2
Standard
  9
$CMLJUST
 70
0
  9
$CMLSCALE
 40
20.0
  9
$PROXYGRAPHICS
 70
1
  9
$MEASUREMENT
 70
1
  9
$CELWEIGHT
370
-1
  9
$ENDCAPS
280
0
  9
$JOINSTYLE
280
0
  9
$LWDISPLAY
290
0
  9
$INSUNITS
 70
6
  9
$HYPERLINKBASE
  1

  9
$STYLESHEET
  1

  9
$XEDIT
290
1
  9
$CEPSNTYPE
380
0
  9
$PSTYLEMODE
290
1
  9
$FINGERPRINTGUID
  2
{05162665-7A75-4193-B907-07A55669EFB5}
  9
$VERSIONGUID
  2
{CD1007F1-F716-4D97-B1B4-7599CC708CEF}
  9
$EXTNAMES
290
1
  9
$PSVPSCALE
 40
0.0
  9
$OLESTARTUP
290
0
  9
$SORTENTS
280
127
  9
$INDEXCTL
280
0
  9
$HIDETEXT
280
1
  9
$XCLIPFRAME
280
1
  9
$HALOGAP
280
0
  9
$OBSCOLOR
 70
257
  9
$OBSLTYPE
280
0
  9
$INTERSECTIONDISPLAY
280
0
  9
$INTERSECTIONCOLOR
 70
257
  9
$DIMASSOC
280
2
  9
$PROJECTNAME
  1

  9
$CAMERADISPLAY
290
0
  9
$LENSLENGTH
 40
50.0
  9
$CAMERAHEIGHT
 40
0.0
  9
$STEPSPERSEC
 40
24.0
  9
$STEPSIZE
 40
100.0
  9
$3DDWFPREC
 40
2.0
  9
$PSOLWIDTH
 40
0.005
  9
$PSOLHEIGHT
 40
0.08
  9
$LOFTANG1
 40
1.570796326795
  9
$LOFTANG2
 40
1.570796326795
  9
$LOFTMAG1
 40
0.0
  9
$LOFTMAG2
 40
0.0
  9
$LOFTPARAM
 70
7
  9
$LOFTNORMALS
280
1
  9
$LATITUDE
 40
37.795
  9
$LONGITUDE
 40
-122.394
  9
$NORTHDIRECTION
 40
0.0
  9
$TIMEZONE
 70
-8000
  9
$LIGHTGLYPHDISPLAY
280
1
  9
$TILEMODELIGHTSYNCH
280
1
  9
$CMATERIAL
347
20
  9
$SOLIDHIST
280
0
  9
$SHOWHIST
280
1
  9
$DWFFRAME
280
2
  9
$DGNFRAME
280
2
  9
$REALWORLDSCALE
290
1
  9
$INTERFERECOLOR
 62
256
  9
$CSHADOW
280
0
  9
$SHADOWPLANELOCATION
 40
0.0
  0
ENDSEC
  0
SECTION
  2
CLASSES
  0
CLASS
  1
ACDBDICTIONARYWDFLT
  2
AcDbDictionaryWithDefault
  3
ObjectDBX Classes
 90
0
 91
0
280
0
281
0
  0
CLASS
  1
SUN
  2
AcDbSun
  3
SCENEOE
 90
1153
 91
0
280
0
281
0
  0
CLASS
  1
VISUALSTYLE
  2
AcDbVisualStyle
  3
ObjectDBX Classes
 90
4095
 91
0
280
0
281
0
  0
CLASS
  1
MATERIAL
  2
AcDbMaterial
  3
ObjectDBX Classes
 90
1153
 91
0
280
0
281
0
  0
CLASS
  1
SCALE
  2
AcDbScale
  3
ObjectDBX Classes
 90
1153
 91
0
280
0
281
0
  0
CLASS
  1
TABLESTYLE
  2
AcDbTableStyle
  3
ObjectDBX Classes
 90
4095
 91
0
280
0
281
0
  0
CLASS
  1
MLEADERSTYLE
  2
AcDbMLeaderStyle
  3
ACDB_MLEADERSTYLE_CLASS
 90
4095
 91
0
280
0
281
0
  0
CLASS
  1
DICTIONARYVAR
  2
AcDbDictionaryVar
  3
ObjectDBX Classes
 90
0
 91
0
280
0
281
0
  0
CLASS
  1
CELLSTYLEMAP
  2
AcDbCellStyleMap
  3
ObjectDBX Classes
 90
1152
 91
0
280
0
281
0
  0
CLASS
  1
MENTALRAYRENDERSETTINGS
  2
AcDbMentalRayRenderSettings
  3
SCENEOE
 90
1024
 91
0
280
0
281
0
  0
CLASS
  1
ACDBDETAILVIEWSTYLE
  2
AcDbDetailViewStyle
  3
ObjectDBX Classes
 90
1025
 91
0
280
0
281
0
  0
CLASS
  1
ACDBSECTIONVIEWSTYLE
  2
AcDbSectionViewStyle
  3
ObjectDBX Classes
 90
1025
 91
0
280
0
281
0
  0
CLASS
  1
RASTERVARIABLES
  2
AcDbRasterVariables
  3
ISM
 90
0
 91
0
280
0
281
0
  0
CLASS
  1
ACDBPLACEHOLDER
  2
AcDbPlaceHolder
  3
ObjectDBX Classes
 90
0
 91
0
280
0
281
0
  0
CLASS
  1
LAYOUT
  2
AcDbLayout
  3
ObjectDBX Classes
 90
0
 91
0
280
0
281
0
  0
ENDSEC
  0
SECTION
  2
TABLES
  0
TABLE
  2
VPORT
  5
8
330
0
100
AcDbSymbolTable
 70
1
  0
VPORT
  5
23
330
8
100
AcDbSymbolTableRecord
100
AcDbViewportTableRecord
  2
*Active
 70
0
 10
0.0
 20
0.0
 11
1.0
 21
1.0
 12
0.0
 22
0.0
 13
0.0
 23
0.0
 14
0.5
 24
0.5
 15
0.5
 25
0.5
 16
0.0
 26
0.0
 36
1.0
 17
0.0
 27
0.0
 37
0.0
 40
1000.0
 41
1.34
 42
50.0
 43
0.0
 44
0.0
 50
0.0
 51
0.0
 71
0
 72
1000
 73
1
 74
3
 75
0
 76
0
 77
0
 78
0
281
0
 65
0
146
0.0
  0
ENDTAB
  0
TABLE
  2
LTYPE
  5
2
330
0
100
AcDbSymbolTable
 70
5
  0
LTYPE
  5
24
330
2
100
AcDbSymbolTableRecord
100
AcDbLinetypeTableRecord
  2
ByBlock
 70
0
  3

 72
65
 73
0
 40
0.0
  0
LTYPE
  5
25
330
2
100
AcDbSymbolTableRecord
100
AcDbLinetypeTableRecord
  2
ByLayer
 70
0
  3

 72
65
 73
0
 40
0.0
  0
LTYPE
  5
26
330
2
100
AcDbSymbolTableRecord
100
AcDbLinetypeTableRecord
  2
Continuous
 70
0
  3

 72
65
 73
0
 40
0.0
  0
LTYPE
  5
2F
330
2
100
AcDbSymbolTableRecord
100
AcDbLinetypeTableRecord
  2
DASHED
 70
0
  3

 72
65
 73
1
 40
0.5
 49
-0.25
 74
0
  0
LTYPE
  5
30
330
2
100
AcDbSymbolTableRecord
100
AcDbLinetypeTableRecord
  2
CENTER
 70
0
  3

 72
65
 73
3
 40
1.25
 49
-0.25
 74
0
 49
0.25
 74
0
 49
-0.25
 74
0
  0
ENDTAB
  0
TABLE
  2
LAYER
  5
1
330
0
100
AcDbSymbolTable
 70
5
  0
LAYER
  5
27
330
1
100
AcDbSymbolTableRecord
100
AcDbLayerTableRecord
  2
0
 70
0
 62
7
  6
Continuous
370
-3
390
13
347
21
  0
LAYER
  5
28
330
1
100
AcDbSymbolTableRecord
100
AcDbLayerTableRecord
  2
Defpoints
 70
0
 62
7
  6
Continuous
290
0
370
-3
390
13
347
21
  0
LAYER
  5
31
330
1
100
AcDbSymbolTableRecord
100
AcDbLayerTableRecord
  2
WALL_BOUNDARY
 70
0
 62
1
  6
Continuous
370
-3
390
13
347
21
  0
LAYER
  5
32
330
1
100
AcDbSymbolTableRecord
100
AcDbLayerTableRecord
  2
WALL_MAIN
 70
0
 62
3
  6
Continuous
370
-3
390
13
347
21
  0
LAYER
  5
33
330
1
100
AcDbSymbolTableRecord
100
AcDbLayerTableRecord
  2
WALL_CURTAIN
 70
0
 62
4
  6
DASHED
370
-3
390
13
347
21
  0
ENDTAB
  0
TABLE
  2
STYLE
  5
5
330
0
100
AcDbSymbolTable
 70
1
  0
STYLE
  5
29
330
5
100
AcDbSymbolTableRecord
100
AcDbTextStyleTableRecord
  2
Standard
 70
0
 40
0.0
 41
1.0
 50
0.0
 71
0
 42
2.5
  3
txt
  4

  0
ENDTAB
  0
TABLE
  2
VIEW
  5
7
330
0
100
AcDbSymbolTable
 70
0
  0
ENDTAB
  0
TABLE
  2
UCS
  5
6
330
0
100
AcDbSymbolTable
 70
0
  0
ENDTAB
  0
TABLE
  2
APPID
  5
3
330
0
100
AcDbSymbolTable
 70
3
  0
APPID
  5
2A
330
3
100
AcDbSymbolTableRecord
100
AcDbRegAppTableRecord
  2
ACAD
 70
0
  0
APPID
  5
275
330
3
100
AcDbSymbolTableRecord
100
AcDbRegAppTableRecord
  2
HATCHBACKGROUNDCOLOR
 70
0
  0
APPID
  5
276
330
3
100
AcDbSymbolTableRecord
100
AcDbRegAppTableRecord
  2
EZDXF
 70
0
  0
ENDTAB
  0
TABLE
  2
DIMSTYLE
  5
4
330
0
100
AcDbSymbolTable
 70
1
100
AcDbDimStyleTable
  0
DIMSTYLE
105
2B
330
4
100
AcDbSymbolTableRecord
100
AcDbDimStyleTableRecord
  2
Standard
 70
0
 40
1.0
 41
2.5
 42
0.625
 43
3.75
 44
1.25
 45
0.0
 46
0.0
 47
0.0
 48
0.0
 49
2.5
140
2.5
141
2.5
142
0.0
143
0.03937007874
144
1.0
145
0.0
146
1.0
147
0.625
148
0.0
 69
0
 70
0
 71
0
 72
0
 73
0
 74
0
 75
0
 76
0
 77
1
 78
8
 79
3
170
0
171
3
172
1
173
0
174
0
175
0
176
0
177
0
178
0
179
2
271
2
272
2
273
2
274
3
275
0
276
0
277
2
278
44
279
0
280
0
281
0
282
0
283
0
284
8
285
0
286
0
288
0
289
3
290
0
371
-2
372
-2
  0
ENDTAB
  0
TABLE
  2
BLOCK_RECORD
  5
9
330
0
100
AcDbSymbolTable
 70
2
  0
BLOCK_RECORD
  5
17
330
9
100
AcDbSymbolTableRecord
100
AcDbBlockTableRecord
  2
*Model_Space
340
1A
 70
0
280
1
281
0
  0
BLOCK_RECORD
  5
1B
330
9
100
AcDbSymbolTableRecord
100
AcDbBlockTableRecord
  2
*Paper_Space
340
1E
 70
0
280
1
281
0
  0
ENDTAB
  0
ENDSEC
  0
SECTION
  2
BLOCKS
  0
BLOCK
  5
18
330
17
100
AcDbEntity
  8
0
100
AcDbBlockBegin
  2
*Model_Space
 70
0
 10
0.0
 20
0.0
 30
0.0
  3
*Model_Space
  1

  0
ENDBLK
  5
19
330
17
100
AcDbEntity
  8
0
100
AcDbBlockEnd
  0
BLOCK
  5
1C
330
1B
100
AcDbEntity
  8
0
100
AcDbBlockBegin
  2
*Paper_Space
 70
0
 10
0.0
 20
0.0
 30
0.0
  3
*Paper_Space
  1

  0
ENDBLK
  5
1D
330
1B
100
AcDbEntity
  8
0
100
AcDbBlockEnd
  0
ENDSEC
  0
SECTION
  2
ENTITIES
  0
LWPOLYLINE
  5
34
330
17
100
AcDbEntity
  8
WALL_BOUNDARY
100
AcDbPolyline
 90
5
 70
1
 10
0.0
 20
0.0
 10
60.0
 20
0.0
 10
60.0
 20
40.0
 10
0.0
 20
40.0
 10
0.0
 20
0.0
  0
CIRCLE
  5
35
330
17
100
AcDbEntity
  8
WALL_MAIN
100
AcDbCircle
 10
0.0
 20
0.0
 30
0.0
 40
0.5
  0
CIRCLE
  5
36
330
17
100
AcDbEntity
  8
WALL_MAIN
100
AcDbCircle
 10
1.2
 20
0.0
 30
0.0
 40
0.5
  0
CIRCLE
  5
37
330
17
100
AcDbEntity
  8
WALL_MAIN
100
AcDbCircle
 10
2.4
 20
0.0
 30
0.0
 40
0.5
  0
CIRCLE
  5
38
330
17
100
AcDbEntity
  8
WALL_MAIN
100
AcDbCircle
 10
3.5999999999999996
 20
0.0
 30
0.0
 40
0.5
  0
CIRCLE
  5
39
330
17
100
AcDbEntity
  8
WALL_MAIN
100
AcDbCircle
 10
4.8
 20
0.0
 30
0.0
 40
0.5
  0
CIRCLE
  5
3A
330
17
100
AcDbEntity
  8
WALL_MAIN
100
AcDbCircle
 10
6.0
 20
0.0
 30
0.0
 40
0.5
  0
CIRCLE
  5
3B
330
17
100
AcDbEntity
  8
WALL_MAIN
100
AcDbCircle
 10
7.199999999999999
 20
0.0
 30
0.0
 40
0.5
  0
CIRCLE
  5
3C
330
17
100
AcDbEntity
  8
WALL_MAIN
100
AcDbCircle
 10
8.4
 20
0.0
 30
0.0
 40
0.5
  0
CIRCLE
  5
3D
330
17
100
AcDbEntity
  8
WALL_MAIN
100
AcDbCircle
 10
9.6
 20
0.0
 30
0.0
 40
0.5
  0
CIRCLE
  5
3E
330
17
100
AcDbEntity
  8
WALL_MAIN
100
AcDbCircle
 10
10.799999999999999
 20
0.0
 30
0.0
 40
0.5
  0
CIRCLE
  5
3F
330
17
100
AcDbEntity
  8
WALL_MAIN
100
AcDbCircle
 10
12.0
 20
0.0
 30
0.0
 40
0.5
  0
CIRCLE
  5
40
330
17
100
AcDbEntity
  8
WALL_MAIN
100
AcDbCircle
 10
13.2
 20
0.0
 30
0.0
 40
0.5
  0
CIRCLE
  5
41
330
17
100
AcDbEntity
  8
WALL_MAIN
100
AcDbCircle
 10
14.399999999999999
 20
0.0
 30
0.0
 40
0.5
  0
CIRCLE
  5
42
330
17
100
AcDbEntity
  8
WALL_MAIN
100
AcDbCircle
 10
15.6
 20
0.0
 30
0.0
 40
0.5
  0
CIRCLE
  5
43
330
17
100
AcDbEntity
  8
WALL_MAIN
100
AcDbCircle
 10
16.8
 20
0.0
 30
0.0
 40
0.5
  0
CIRCLE
  5
44
330
17
100
AcDbEntity
  8
WALL_MAIN
100
AcDbCircle
 10
18.0
 20
0.0
 30
0.0
 40
0.5
  0
CIRCLE
  5
45
330
17
100
AcDbEntity
  8
WALL_MAIN
100
AcDbCircle
 10
19.2
 20
0.0
 30
0.0
 40
0.5
  0
CIRCLE
  5
46
330
17
100
AcDbEntity
  8
WALL_MAIN
100
AcDbCircle
 10
20.4
 20
0.0
 30
0.0
 40
0.5
  0
CIRCLE
  5
47
330
17
100
AcDbEntity
  8
WALL_MAIN
100
AcDbCircle
 10
21.599999999999998
 20
0.0
 30
0.0
 40
0.5
  0
CIRCLE
  5
48
330
17
100
AcDbEntity
  8
WALL_MAIN
100
AcDbCircle
 10
22.8
 20
0.0
 30
0.0
 40
0.5
  0
CIRCLE
  5
49
330
17
100
AcDbEntity
  8
WALL_MAIN
100
AcDbCircle
 10
24.0
 20
0.0
 30
0.0
 40
0.5
  0
CIRCLE
  5
4A
330
17
100
AcDbEntity
  8
WALL_MAIN
100
AcDbCircle
 10
25.2
 20
0.0
 30
0.0
 40
0.5
  0
CIRCLE
  5
4B
330
17
100
AcDbEntity
  8
WALL_MAIN
100
AcDbCircle
 10
26.4
 20
0.0
 30
0.0
 40
0.5
  0
CIRCLE
  5
4C
330
17
100
AcDbEntity
  8
WALL_MAIN
100
AcDbCircle
 10
27.599999999999998
 20
0.0
 30
0.0
 40
0.5
  0
CIRCLE
  5
4D
330
17
100
AcDbEntity
  8
WALL_MAIN
100
AcDbCircle
 10
28.799999999999997
 20
0.0
 30
0.0
 40
0.5
  0
CIRCLE
  5
4E
330
17
100
AcDbEntity
  8
WALL_MAIN
100
AcDbCircle
 10
30.0
 20
0.0
 30
0.0
 40
0.5
  0
CIRCLE
  5
4F
330
17
100
AcDbEntity
  8
WALL_MAIN
100
AcDbCircle
 10
31.2
 20
0.0
 30
0.0
 40
0.5
  0
CIRCLE
  5
50
330
17
100
AcDbEntity
  8
WALL_MAIN
100
AcDbCircle
 10
32.4
 20
0.0
 30
0.0
 40
0.5
  0
CIRCLE
  5
51
330
17
100
AcDbEntity
  8
WALL_MAIN
100
AcDbCircle
 10
33.6
 20
0.0
 30
0.0
 40
0.5
  0
CIRCLE
  5
52
330
17
100
AcDbEntity
  8
WALL_MAIN
100
AcDbCircle
 10
34.8
 20
0.0
 30
0.0
 40
0.5
  0
CIRCLE
  5
53
330
17
100
AcDbEntity
  8
WALL_MAIN
100
AcDbCircle
 10
36.0
 20
0.0
 30
0.0
 40
0.5
  0
CIRCLE
  5
54
330
17
100
AcDbEntity
  8
WALL_MAIN
100
AcDbCircle
 10
37.199999999999996
 20
0.0
 30
0.0
 40
0.5
  0
CIRCLE
  5
55
330
17
100
AcDbEntity
  8
WALL_MAIN
100
AcDbCircle
 10
38.4
 20
0.0
 30
0.0
 40
0.5
  0
CIRCLE
  5
56
330
17
100
AcDbEntity
  8
WALL_MAIN
100
AcDbCircle
 10
39.6
 20
0.0
 30
0.0
 40
0.5
  0
CIRCLE
  5
57
330
17
100
AcDbEntity
  8
WALL_MAIN
100
AcDbCircle
 10
40.8
 20
0.0
 30
0.0
 40
0.5
  0
CIRCLE
  5
58
330
17
100
AcDbEntity
  8
WALL_MAIN
100
AcDbCircle
 10
42.0
 20
0.0
 30
0.0
 40
0.5
  0
CIRCLE
  5
59
330
17
100
AcDbEntity
  8
WALL_MAIN
100
AcDbCircle
 10
43.199999999999996
 20
0.0
 30
0.0
 40
0.5
  0
CIRCLE
  5
5A
330
17
100
AcDbEntity
  8
WALL_MAIN
100
AcDbCircle
 10
44.4
 20
0.0
 30
0.0
 40
0.5
  0
CIRCLE
  5
5B
330
17
100
AcDbEntity
  8
WALL_MAIN
100
AcDbCircle
 10
45.6
 20
0.0
 30
0.0
 40
0.5
  0
CIRCLE
  5
5C
330
17
100
AcDbEntity
  8
WALL_MAIN
100
AcDbCircle
 10
46.8
 20
0.0
 30
0.0
 40
0.5
  0
CIRCLE
  5
5D
330
17
100
AcDbEntity
  8
WALL_MAIN
100
AcDbCircle
 10
48.0
 20
0.0
 30
0.0
 40
0.5
  0
CIRCLE
  5
5E
330
17
100
AcDbEntity
  8
WALL_MAIN
100
AcDbCircle
 10
49.199999999999996
 20
0.0
 30
0.0
 40
0.5
  0
CIRCLE
  5
5F
330
17
100
AcDbEntity
  8
WALL_MAIN
100
AcDbCircle
 10
50.4
 20
0.0
 30
0.0
 40
0.5
  0
CIRCLE
  5
60
330
17
100
AcDbEntity
  8
WALL_MAIN
100
AcDbCircle
 10
51.6
 20
0.0
 30
0.0
 40
0.5
  0
CIRCLE
  5
61
330
17
100
AcDbEntity
  8
WALL_MAIN
100
AcDbCircle
 10
52.8
 20
0.0
 30
0.0
 40
0.5
  0
CIRCLE
  5
62
330
17
100
AcDbEntity
  8
WALL_MAIN
100
AcDbCircle
 10
54.0
 20
0.0
 30
0.0
 40
0.5
  0
CIRCLE
  5
63
330
17
100
AcDbEntity
  8
WALL_MAIN
100
AcDbCircle
 10
55.199999999999996
 20
0.0
 30
0.0
 40
0.5
  0
CIRCLE
  5
64
330
17
100
AcDbEntity
  8
WALL_MAIN
100
AcDbCircle
 10
56.4
 20
0.0
 30
0.0
 40
0.5
  0
CIRCLE
  5
65
330
17
100
AcDbEntity
  8
WALL_MAIN
100
AcDbCircle
 10
57.599999999999994
 20
0.0
 30
0.0
 40
0.5
  0
CIRCLE
  5
66
330
17
100
AcDbEntity
  8
WALL_MAIN
100
AcDbCircle
 10
58.8
 20
0.0
 30
0.0
 40
0.5
  0
CIRCLE
  5
67
330
17
100
AcDbEntity
  8
WALL_MAIN
100
AcDbCircle
 10
60.0
 20
0.0
 30
0.0
 40
0.5
  0
CIRCLE
  5
68
330
17
100
AcDbEntity
  8
WALL_MAIN
100
AcDbCircle
 10
60.0
 20
1.2121212121212122
 30
0.0
 40
0.5
  0
CIRCLE
  5
69
330
17
100
AcDbEntity
  8
WALL_MAIN
100
AcDbCircle
 10
60.0
 20
2.4242424242424243
 30
0.0
 40
0.5
  0
CIRCLE
  5
6A
330
17
100
AcDbEntity
  8
WALL_MAIN
100
AcDbCircle
 10
60.0
 20
3.6363636363636367
 30
0.0
 40
0.5
  0
CIRCLE
  5
6B
330
17
100
AcDbEntity
  8
WALL_MAIN
100
AcDbCircle
 10
60.0
 20
4.848484848484849
 30
0.0
 40
0.5
  0
CIRCLE
  5
6C
330
17
100
AcDbEntity
  8
WALL_MAIN
100
AcDbCircle
 10
60.0
 20
6.0606060606060606
 30
0.0
 40
0.5
  0
CIRCLE
  5
6D
330
17
100
AcDbEntity
  8
WALL_MAIN
100
AcDbCircle
 10
60.0
 20
7.272727272727273
 30
0.0
 40
0.5
  0
CIRCLE
  5
6E
330
17
100
AcDbEntity
  8
WALL_MAIN
100
AcDbCircle
 10
60.0
 20
8.484848484848484
 30
0.0
 40
0.5
  0
CIRCLE
  5
6F
330
17
100
AcDbEntity
  8
WALL_MAIN
100
AcDbCircle
 10
60.0
 20
9.696969696969697
 30
0.0
 40
0.5
  0
CIRCLE
  5
70
330
17
100
AcDbEntity
  8
WALL_MAIN
100
AcDbCircle
 10
60.0
 20
10.90909090909091
 30
0.0
 40
0.5
  0
CIRCLE
  5
71
330
17
100
AcDbEntity
  8
WALL_MAIN
100
AcDbCircle
 10
60.0
 20
12.121212121212121
 30
0.0
 40
0.5
  0
CIRCLE
  5
72
330
17
100
AcDbEntity
  8
WALL_MAIN
100
AcDbCircle
 10
60.0
 20
13.333333333333334
 30
0.0
 40
0.5
  0
CIRCLE
  5
73
330
17
100
AcDbEntity
  8
WALL_MAIN
100
AcDbCircle
 10
60.0
 20
14.545454545454547
 30
0.0
 40
0.5
  0
CIRCLE
  5
74
330
17
100
AcDbEntity
  8
WALL_MAIN
100
AcDbCircle
 10
60.0
 20
15.757575757575758
 30
0.0
 40
0.5
  0
CIRCLE
  5
75
330
17
100
AcDbEntity
  8
WALL_MAIN
100
AcDbCircle
 10
60.0
 20
16.96969696969697
 30
0.0
 40
0.5
  0
CIRCLE
  5
76
330
17
100
AcDbEntity
  8
WALL_MAIN
100
AcDbCircle
 10
60.0
 20
18.181818181818183
 30
0.0
 40
0.5
  0
CIRCLE
  5
77
330
17
100
AcDbEntity
  8
WALL_MAIN
100
AcDbCircle
 10
60.0
 20
19.393939393939394
 30
0.0
 40
0.5
  0
CIRCLE
  5
78
330
17
100
AcDbEntity
  8
WALL_MAIN
100
AcDbCircle
 10
60.0
 20
20.606060606060606
 30
0.0
 40
0.5
  0
CIRCLE
  5
79
330
17
100
AcDbEntity
  8
WALL_MAIN
100
AcDbCircle
 10
60.0
 20
21.81818181818182
 30
0.0
 40
0.5
  0
CIRCLE
  5
7A
330
17
100
AcDbEntity
  8
WALL_MAIN
100
AcDbCircle
 10
60.0
 20
23.03030303030303
 30
0.0
 40
0.5
  0
CIRCLE
  5
7B
330
17
100
AcDbEntity
  8
WALL_MAIN
100
AcDbCircle
 10
60.0
 20
24.242424242424242
 30
0.0
 40
0.5
  0
CIRCLE
  5
7C
330
17
100
AcDbEntity
  8
WALL_MAIN
100
AcDbCircle
 10
60.0
 20
25.454545454545457
 30
0.0
 40
0.5
  0
CIRCLE
  5
7D
330
17
100
AcDbEntity
  8
WALL_MAIN
100
AcDbCircle
 10
60.0
 20
26.666666666666668
 30
0.0
 40
0.5
  0
CIRCLE
  5
7E
330
17
100
AcDbEntity
  8
WALL_MAIN
100
AcDbCircle
 10
60.0
 20
27.87878787878788
 30
0.0
 40
0.5
  0
CIRCLE
  5
7F
330
17
100
AcDbEntity
  8
WALL_MAIN
100
AcDbCircle
 10
60.0
 20
29.090909090909093
 30
0.0
 40
0.5
  0
CIRCLE
  5
80
330
17
100
AcDbEntity
  8
WALL_MAIN
100
AcDbCircle
 10
60.0
 20
30.303030303030305
 30
0.0
 40
0.5
  0
CIRCLE
  5
81
330
17
100
AcDbEntity
  8
WALL_MAIN
100
AcDbCircle
 10
60.0
 20
31.515151515151516
 30
0.0
 40
0.5
  0
CIRCLE
  5
82
330
17
100
AcDbEntity
  8
WALL_MAIN
100
AcDbCircle
 10
60.0
 20
32.72727272727273
 30
0.0
 40
0.5
  0
CIRCLE
  5
83
330
17
100
AcDbEntity
  8
WALL_MAIN
100
AcDbCircle
 10
60.0
 20
33.93939393939394
 30
0.0
 40
0.5
  0
CIRCLE
  5
84
330
17
100
AcDbEntity
  8
WALL_MAIN
100
AcDbCircle
 10
60.0
 20
35.151515151515156
 30
0.0
 40
0.5
  0
CIRCLE
  5
85
330
17
100
AcDbEntity
  8
WALL_MAIN
100
AcDbCircle
 10
60.0
 20
36.36363636363637
 30
0.0
 40
0.5
  0
CIRCLE
  5
86
330
17
100
AcDbEntity
  8
WALL_MAIN
100
AcDbCircle
 10
60.0
 20
37.57575757575758
 30
0.0
 40
0.5
  0
CIRCLE
  5
87
330
17
100
AcDbEntity
  8
WALL_MAIN
100
AcDbCircle
 10
60.0
 20
38.78787878787879
 30
0.0
 40
0.5
  0
CIRCLE
  5
88
330
17
100
AcDbEntity
  8
WALL_MAIN
100
AcDbCircle
 10
60.0
 20
40.0
 30
0.0
 40
0.5
  0
CIRCLE
  5
89
330
17
100
AcDbEntity
  8
WALL_MAIN
100
AcDbCircle
 10
58.8
 20
40.0
 30
0.0
 40
0.5
  0
CIRCLE
  5
8A
330
17
100
AcDbEntity
  8
WALL_MAIN
100
AcDbCircle
 10
57.6
 20
40.0
 30
0.0
 40
0.5
  0
CIRCLE
  5
8B
330
17
100
AcDbEntity
  8
WALL_MAIN
100
AcDbCircle
 10
56.4
 20
40.0
 30
0.0
 40
0.5
  0
CIRCLE
  5
8C
330
17
100
AcDbEntity
  8
WALL_MAIN
100
AcDbCircle
 10
55.2
 20
40.0
 30
0.0
 40
0.5
  0
CIRCLE
  5
8D
330
17
100
AcDbEntity
  8
WALL_MAIN
100
AcDbCircle
 10
54.0
 20
40.0
 30
0.0
 40
0.5
  0
CIRCLE
  5
8E
330
17
100
AcDbEntity
  8
WALL_MAIN
100
AcDbCircle
 10
52.8
 20
40.0
 30
0.0
 40
0.5
  0
CIRCLE
  5
8F
330
17
100
AcDbEntity
  8
WALL_MAIN
100
AcDbCircle
 10
51.6
 20
40.0
 30
0.0
 40
0.5
  0
CIRCLE
  5
90
330
17
100
AcDbEntity
  8
WALL_MAIN
100
AcDbCircle
 10
50.4
 20
40.0
 30
0.0
 40
0.5
  0
CIRCLE
  5
91
330
17
100
AcDbEntity
  8
WALL_MAIN
100
AcDbCircle
 10
49.2
 20
40.0
 30
0.0
 40
0.5
  0
CIRCLE
  5
92
330
17
100
AcDbEntity
  8
WALL_MAIN
100
AcDbCircle
 10
48.0
 20
40.0
 30
0.0
 40
0.5
  0
CIRCLE
  5
93
330
17
100
AcDbEntity
  8
WALL_MAIN
100
AcDbCircle
 10
46.8
 20
40.0
 30
0.0
 40
0.5
  0
CIRCLE
  5
94
330
17
100
AcDbEntity
  8
WALL_MAIN
100
AcDbCircle
 10
45.6
 20
40.0
 30
0.0
 40
0.5
  0
CIRCLE
  5
95
330
17
100
AcDbEntity
  8
WALL_MAIN
100
AcDbCircle
 10
44.4
 20
40.0
 30
0.0
 40
0.5
  0
CIRCLE
  5
96
330
17
100
AcDbEntity
  8
WALL_MAIN
100
AcDbCircle
 10
43.2
 20
40.0
 30
0.0
 40
0.5
  0
CIRCLE
  5
97
330
17
100
AcDbEntity
  8
WALL_MAIN
100
AcDbCircle
 10
42.0
 20
40.0
 30
0.0
 40
0.5
  0
CIRCLE
  5
98
330
17
100
AcDbEntity
  8
WALL_MAIN
100
AcDbCircle
 10
40.8
 20
40.0
 30
0.0
 40
0.5
  0
CIRCLE
  5
99
330
17
100
AcDbEntity
  8
WALL_MAIN
100
AcDbCircle
 10
39.6
 20
40.0
 30
0.0
 40
0.5
  0
CIRCLE
  5
9A
330
17
100
AcDbEntity
  8
WALL_MAIN
100
AcDbCircle
 10
38.400000000000006
 20
40.0
 30
0.0
 40
0.5
  0
CIRCLE
  5
9B
330
17
100
AcDbEntity
  8
WALL_MAIN
100
AcDbCircle
 10
37.2
 20
40.0
 30
0.0
 40
0.5
  0
CIRCLE
  5
9C
330
17
100
AcDbEntity
  8
WALL_MAIN
100
AcDbCircle
 10
36.0
 20
40.0
 30
0.0
 40
0.5
  0
CIRCLE
  5
9D
330
17
100
AcDbEntity
  8
WALL_MAIN
100
AcDbCircle
 10
34.8
 20
40.0
 30
0.0
 40
0.5
  0
CIRCLE
  5
9E
330
17
100
AcDbEntity
  8
WALL_MAIN
100
AcDbCircle
 10
33.6
 20
40.0
 30
0.0
 40
0.5
  0
CIRCLE
  5
9F
330
17
100
AcDbEntity
  8
WALL_MAIN
100
AcDbCircle
 10
32.400000000000006
 20
40.0
 30
0.0
 40
0.5
  0
CIRCLE
  5
A0
330
17
100
AcDbEntity
  8
WALL_MAIN
100
AcDbCircle
 10
31.200000000000003
 20
40.0
 30
0.0
 40
0.5
  0
CIRCLE
  5
A1
330
17
100
AcDbEntity
  8
WALL_MAIN
100
AcDbCircle
 10
30.0
 20
40.0
 30
0.0
 40
0.5
  0
CIRCLE
  5
A2
330
17
100
AcDbEntity
  8
WALL_MAIN
100
AcDbCircle
 10
28.8
 20
40.0
 30
0.0
 40
0.5
  0
CIRCLE
  5
A3
330
17
100
AcDbEntity
  8
WALL_MAIN
100
AcDbCircle
 10
27.6
 20
40.0
 30
0.0
 40
0.5
  0
CIRCLE
  5
A4
330
17
100
AcDbEntity
  8
WALL_MAIN
100
AcDbCircle
 10
26.4
 20
40.0
 30
0.0
 40
0.5
  0
CIRCLE
  5
A5
330
17
100
AcDbEntity
  8
WALL_MAIN
100
AcDbCircle
 10
25.200000000000003
 20
40.0
 30
0.0
 40
0.5
  0
CIRCLE
  5
A6
330
17
100
AcDbEntity
  8
WALL_MAIN
100
AcDbCircle
 10
24.0
 20
40.0
 30
0.0
 40
0.5
  0
CIRCLE
  5
A7
330
17
100
AcDbEntity
  8
WALL_MAIN
100
AcDbCircle
 10
22.800000000000004
 20
40.0
 30
0.0
 40
0.5
  0
CIRCLE
  5
A8
330
17
100
AcDbEntity
  8
WALL_MAIN
100
AcDbCircle
 10
21.6
 20
40.0
 30
0.0
 40
0.5
  0
CIRCLE
  5
A9
330
17
100
AcDbEntity
  8
WALL_MAIN
100
AcDbCircle
 10
20.4
 20
40.0
 30
0.0
 40
0.5
  0
CIRCLE
  5
AA
330
17
100
AcDbEntity
  8
WALL_MAIN
100
AcDbCircle
 10
19.200000000000003
 20
40.0
 30
0.0
 40
0.5
  0
CIRCLE
  5
AB
330
17
100
AcDbEntity
  8
WALL_MAIN
100
AcDbCircle
 10
18.0
 20
40.0
 30
0.0
 40
0.5
  0
CIRCLE
  5
AC
330
17
100
AcDbEntity
  8
WALL_MAIN
100
AcDbCircle
 10
16.800000000000004
 20
40.0
 30
0.0
 40
0.5
  0
CIRCLE
  5
AD
330
17
100
AcDbEntity
  8
WALL_MAIN
100
AcDbCircle
 10
15.600000000000001
 20
40.0
 30
0.0
 40
0.5
  0
CIRCLE
  5
AE
330
17
100
AcDbEntity
  8
WALL_MAIN
100
AcDbCircle
 10
14.399999999999999
 20
40.0
 30
0.0
 40
0.5
  0
CIRCLE
  5
AF
330
17
100
AcDbEntity
  8
WALL_MAIN
100
AcDbCircle
 10
13.200000000000003
 20
40.0
 30
0.0
 40
0.5
  0
CIRCLE
  5
B0
330
17
100
AcDbEntity
  8
WALL_MAIN
100
AcDbCircle
 10
12.0
 20
40.0
 30
0.0
 40
0.5
  0
CIRCLE
  5
B1
330
17
100
AcDbEntity
  8
WALL_MAIN
100
AcDbCircle
 10
10.800000000000004
 20
40.0
 30
0.0
 40
0.5
  0
CIRCLE
  5
B2
330
17
100
AcDbEntity
  8
WALL_MAIN
100
AcDbCircle
 10
9.600000000000001
 20
40.0
 30
0.0
 40
0.5
  0
CIRCLE
  5
B3
330
17
100
AcDbEntity
  8
WALL_MAIN
100
AcDbCircle
 10
8.399999999999999
 20
40.0
 30
0.0
 40
0.5
  0
CIRCLE
  5
B4
330
17
100
AcDbEntity
  8
WALL_MAIN
100
AcDbCircle
 10
7.200000000000003
 20
40.0
 30
0.0
 40
0.5
  0
CIRCLE
  5
B5
330
17
100
AcDbEntity
  8
WALL_MAIN
100
AcDbCircle
 10
6.0
 20
40.0
 30
0.0
 40
0.5
  0
CIRCLE
  5
B6
330
17
100
AcDbEntity
  8
WALL_MAIN
100
AcDbCircle
 10
4.800000000000004
 20
40.0
 30
0.0
 40
0.5
  0
CIRCLE
  5
B7
330
17
100
AcDbEntity
  8
WALL_MAIN
100
AcDbCircle
 10
3.6000000000000014
 20
40.0
 30
0.0
 40
0.5
  0
CIRCLE
  5
B8
330
17
100
AcDbEntity
  8
WALL_MAIN
100
AcDbCircle
 10
2.4000000000000057
 20
40.0
 30
0.0
 40
0.5
  0
CIRCLE
  5
B9
330
17
100
AcDbEntity
  8
WALL_MAIN
100
AcDbCircle
 10
1.2000000000000028
 20
40.0
 30
0.0
 40
0.5
  0
CIRCLE
  5
BA
330
17
100
AcDbEntity
  8
WALL_MAIN
100
AcDbCircle
 10
0.0
 20
40.0
 30
0.0
 40
0.5
  0
CIRCLE
  5
BB
330
17
100
AcDbEntity
  8
WALL_MAIN
100
AcDbCircle
 10
0.0
 20
38.78787878787879
 30
0.0
 40
0.5
  0
CIRCLE
  5
BC
330
17
100
AcDbEntity
  8
WALL_MAIN
100
AcDbCircle
 10
0.0
 20
37.57575757575758
 30
0.0
 40
0.5
  0
CIRCLE
  5
BD
330
17
100
AcDbEntity
  8
WALL_MAIN
100
AcDbCircle
 10
0.0
 20
36.36363636363636
 30
0.0
 40
0.5
  0
CIRCLE
  5
BE
330
17
100
AcDbEntity
  8
WALL_MAIN
100
AcDbCircle
 10
0.0
 20
35.15151515151515
 30
0.0
 40
0.5
  0
CIRCLE
  5
BF
330
17
100
AcDbEntity
  8
WALL_MAIN
100
AcDbCircle
 10
0.0
 20
33.93939393939394
 30
0.0
 40
0.5
  0
CIRCLE
  5
C0
330
17
100
AcDbEntity
  8
WALL_MAIN
100
AcDbCircle
 10
0.0
 20
32.72727272727273
 30
0.0
 40
0.5
  0
CIRCLE
  5
C1
330
17
100
AcDbEntity
  8
WALL_MAIN
100
AcDbCircle
 10
0.0
 20
31.515151515151516
 30
0.0
 40
0.5
  0
CIRCLE
  5
C2
330
17
100
AcDbEntity
  8
WALL_MAIN
100
AcDbCircle
 10
0.0
 20
30.303030303030305
 30
0.0
 40
0.5
  0
CIRCLE
  5
C3
330
17
100
AcDbEntity
  8
WALL_MAIN
100
AcDbCircle
 10
0.0
 20
29.09090909090909
 30
0.0
 40
0.5
  0
CIRCLE
  5
C4
330
17
100
AcDbEntity
  8
WALL_MAIN
100
AcDbCircle
 10
0.0
 20
27.87878787878788
 30
0.0
 40
0.5
  0
CIRCLE
  5
C5
330
17
100
AcDbEntity
  8
WALL_MAIN
100
AcDbCircle
 10
0.0
 20
26.666666666666664
 30
0.0
 40
0.5
  0
CIRCLE
  5
C6
330
17
100
AcDbEntity
  8
WALL_MAIN
100
AcDbCircle
 10
0.0
 20
25.454545454545453
 30
0.0
 40
0.5
  0
CIRCLE
  5
C7
330
17
100
AcDbEntity
  8
WALL_MAIN
100
AcDbCircle
 10
0.0
 20
24.242424242424242
 30
0.0
 40
0.5
  0
CIRCLE
  5
C8
330
17
100
AcDbEntity
  8
WALL_MAIN
100
AcDbCircle
 10
0.0
 20
23.03030303030303
 30
0.0
 40
0.5
  0
CIRCLE
  5
C9
330
17
100
AcDbEntity
  8
WALL_MAIN
100
AcDbCircle
 10
0.0
 20
21.818181818181817
 30
0.0
 40
0.5
  0
CIRCLE
  5
CA
330
17
100
AcDbEntity
  8
WALL_MAIN
100
AcDbCircle
 10
0.0
 20
20.606060606060606
 30
0.0
 40
0.5
  0
CIRCLE
  5
CB
330
17
100
AcDbEntity
  8
WALL_MAIN
100
AcDbCircle
 10
0.0
 20
19.393939393939394
 30
0.0
 40
0.5
  0
CIRCLE
  5
CC
330
17
100
AcDbEntity
  8
WALL_MAIN
100
AcDbCircle
 10
0.0
 20
18.18181818181818
 30
0.0
 40
0.5
  0
CIRCLE
  5
CD
330
17
100
AcDbEntity
  8
WALL_MAIN
100
AcDbCircle
 10
0.0
 20
16.96969696969697
 30
0.0
 40
0.5
  0
CIRCLE
  5
CE
330
17
100
AcDbEntity
  8
WALL_MAIN
100
AcDbCircle
 10
0.0
 20
15.757575757575758
 30
0.0
 40
0.5
  0
CIRCLE
  5
CF
330
17
100
AcDbEntity
  8
WALL_MAIN
100
AcDbCircle
 10
0.0
 20
14.545454545454543
 30
0.0
 40
0.5
  0
CIRCLE
  5
D0
330
17
100
AcDbEntity
  8
WALL_MAIN
100
AcDbCircle
 10
0.0
 20
13.333333333333332
 30
0.0
 40
0.5
  0
CIRCLE
  5
D1
330
17
100
AcDbEntity
  8
WALL_MAIN
100
AcDbCircle
 10
0.0
 20
12.121212121212121
 30
0.0
 40
0.5
  0
CIRCLE
  5
D2
330
17
100
AcDbEntity
  8
WALL_MAIN
100
AcDbCircle
 10
0.0
 20
10.909090909090907
 30
0.0
 40
0.5
  0
CIRCLE
  5
D3
330
17
100
AcDbEntity
  8
WALL_MAIN
100
AcDbCircle
 10
0.0
 20
9.696969696969695
 30
0.0
 40
0.5
  0
CIRCLE
  5
D4
330
17
100
AcDbEntity
  8
WALL_MAIN
100
AcDbCircle
 10
0.0
 20
8.484848484848484
 30
0.0
 40
0.5
  0
CIRCLE
  5
D5
330
17
100
AcDbEntity
  8
WALL_MAIN
100
AcDbCircle
 10
0.0
 20
7.272727272727273
 30
0.0
 40
0.5
  0
CIRCLE
  5
D6
330
17
100
AcDbEntity
  8
WALL_MAIN
100
AcDbCircle
 10
0.0
 20
6.060606060606062
 30
0.0
 40
0.5
  0
CIRCLE
  5
D7
330
17
100
AcDbEntity
  8
WALL_MAIN
100
AcDbCircle
 10
0.0
 20
4.848484848484844
 30
0.0
 40
0.5
  0
CIRCLE
  5
D8
330
17
100
AcDbEntity
  8
WALL_MAIN
100
AcDbCircle
 10
0.0
 20
3.636363636363633
 30
0.0
 40
0.5
  0
CIRCLE
  5
D9
330
17
100
AcDbEntity
  8
WALL_MAIN
100
AcDbCircle
 10
0.0
 20
2.424242424242422
 30
0.0
 40
0.5
  0
CIRCLE
  5
DA
330
17
100
AcDbEntity
  8
WALL_MAIN
100
AcDbCircle
 10
0.0
 20
1.212121212121211
 30
0.0
 40
0.5
  0
CIRCLE
  5
DB
330
17
100
AcDbEntity
  8
WALL_CURTAIN
100
AcDbCircle
 10
-0.6
 20
-1.125
 30
0.0
 40
0.425
  0
CIRCLE
  5
DC
330
17
100
AcDbEntity
  8
WALL_CURTAIN
100
AcDbCircle
 10
0.0
 20
-1.125
 30
0.0
 40
0.425
  0
CIRCLE
  5
DD
330
17
100
AcDbEntity
  8
WALL_CURTAIN
100
AcDbCircle
 10
0.6
 20
-1.125
 30
0.0
 40
0.425
  0
CIRCLE
  5
DE
330
17
100
AcDbEntity
  8
WALL_CURTAIN
100
AcDbCircle
 10
1.2
 20
-1.125
 30
0.0
 40
0.425
  0
CIRCLE
  5
DF
330
17
100
AcDbEntity
  8
WALL_CURTAIN
100
AcDbCircle
 10
1.7999999999999998
 20
-1.125
 30
0.0
 40
0.425
  0
CIRCLE
  5
E0
330
17
100
AcDbEntity
  8
WALL_CURTAIN
100
AcDbCircle
 10
2.4
 20
-1.125
 30
0.0
 40
0.425
  0
CIRCLE
  5
E1
330
17
100
AcDbEntity
  8
WALL_CURTAIN
100
AcDbCircle
 10
3.0
 20
-1.125
 30
0.0
 40
0.425
  0
CIRCLE
  5
E2
330
17
100
AcDbEntity
  8
WALL_CURTAIN
100
AcDbCircle
 10
3.5999999999999996
 20
-1.125
 30
0.0
 40
0.425
  0
CIRCLE
  5
E3
330
17
100
AcDbEntity
  8
WALL_CURTAIN
100
AcDbCircle
 10
4.199999999999999
 20
-1.125
 30
0.0
 40
0.425
  0
CIRCLE
  5
E4
330
17
100
AcDbEntity
  8
WALL_CURTAIN
100
AcDbCircle
 10
4.8
 20
-1.125
 30
0.0
 40
0.425
  0
CIRCLE
  5
E5
330
17
100
AcDbEntity
  8
WALL_CURTAIN
100
AcDbCircle
 10
5.3999999999999995
 20
-1.125
 30
0.0
 40
0.425
  0
CIRCLE
  5
E6
330
17
100
AcDbEntity
  8
WALL_CURTAIN
100
AcDbCircle
 10
6.0
 20
-1.125
 30
0.0
 40
0.425
  0
CIRCLE
  5
E7
330
17
100
AcDbEntity
  8
WALL_CURTAIN
100
AcDbCircle
 10
6.6
 20
-1.125
 30
0.0
 40
0.425
  0
CIRCLE
  5
E8
330
17
100
AcDbEntity
  8
WALL_CURTAIN
100
AcDbCircle
 10
7.199999999999999
 20
-1.125
 30
0.0
 40
0.425
  0
CIRCLE
  5
E9
330
17
100
AcDbEntity
  8
WALL_CURTAIN
100
AcDbCircle
 10
7.799999999999999
 20
-1.125
 30
0.0
 40
0.425
  0
CIRCLE
  5
EA
330
17
100
AcDbEntity
  8
WALL_CURTAIN
100
AcDbCircle
 10
8.4
 20
-1.125
 30
0.0
 40
0.425
  0
CIRCLE
  5
EB
330
17
100
AcDbEntity
  8
WALL_CURTAIN
100
AcDbCircle
 10
9.0
 20
-1.125
 30
0.0
 40
0.425
  0
CIRCLE
  5
EC
330
17
100
AcDbEntity
  8
WALL_CURTAIN
100
AcDbCircle
 10
9.6
 20
-1.125
 30
0.0
 40
0.425
  0
CIRCLE
  5
ED
330
17
100
AcDbEntity
  8
WALL_CURTAIN
100
AcDbCircle
 10
10.2
 20
-1.125
 30
0.0
 40
0.425
  0
CIRCLE
  5
EE
330
17
100
AcDbEntity
  8
WALL_CURTAIN
100
AcDbCircle
 10
10.799999999999999
 20
-1.125
 30
0.0
 40
0.425
  0
CIRCLE
  5
EF
330
17
100
AcDbEntity
  8
WALL_CURTAIN
100
AcDbCircle
 10
11.399999999999999
 20
-1.125
 30
0.0
 40
0.425
  0
CIRCLE
  5
F0
330
17
100
AcDbEntity
  8
WALL_CURTAIN
100
AcDbCircle
 10
12.0
 20
-1.125
 30
0.0
 40
0.425
  0
CIRCLE
  5
F1
330
17
100
AcDbEntity
  8
WALL_CURTAIN
100
AcDbCircle
 10
12.6
 20
-1.125
 30
0.0
 40
0.425
  0
CIRCLE
  5
F2
330
17
100
AcDbEntity
  8
WALL_CURTAIN
100
AcDbCircle
 10
13.2
 20
-1.125
 30
0.0
 40
0.425
  0
CIRCLE
  5
F3
330
17
100
AcDbEntity
  8
WALL_CURTAIN
100
AcDbCircle
 10
13.799999999999999
 20
-1.125
 30
0.0
 40
0.425
  0
CIRCLE
  5
F4
330
17
100
AcDbEntity
  8
WALL_CURTAIN
100
AcDbCircle
 10
14.399999999999999
 20
-1.125
 30
0.0
 40
0.425
  0
CIRCLE
  5
F5
330
17
100
AcDbEntity
  8
WALL_CURTAIN
100
AcDbCircle
 10
14.999999999999998
 20
-1.125
 30
0.0
 40
0.425
  0
CIRCLE
  5
F6
330
17
100
AcDbEntity
  8
WALL_CURTAIN
100
AcDbCircle
 10
15.6
 20
-1.125
 30
0.0
 40
0.425
  0
CIRCLE
  5
F7
330
17
100
AcDbEntity
  8
WALL_CURTAIN
100
AcDbCircle
 10
16.2
 20
-1.125
 30
0.0
 40
0.425
  0
CIRCLE
  5
F8
330
17
100
AcDbEntity
  8
WALL_CURTAIN
100
AcDbCircle
 10
16.8
 20
-1.125
 30
0.0
 40
0.425
  0
CIRCLE
  5
F9
330
17
100
AcDbEntity
  8
WALL_CURTAIN
100
AcDbCircle
 10
17.400000000000002
 20
-1.125
 30
0.0
 40
0.425
  0
CIRCLE
  5
FA
330
17
100
AcDbEntity
  8
WALL_CURTAIN
100
AcDbCircle
 10
18.0
 20
-1.125
 30
0.0
 40
0.425
  0
CIRCLE
  5
FB
330
17
100
AcDbEntity
  8
WALL_CURTAIN
100
AcDbCircle
 10
18.6
 20
-1.125
 30
0.0
 40
0.425
  0
CIRCLE
  5
FC
330
17
100
AcDbEntity
  8
WALL_CURTAIN
100
AcDbCircle
 10
19.2
 20
-1.125
 30
0.0
 40
0.425
  0
CIRCLE
  5
FD
330
17
100
AcDbEntity
  8
WALL_CURTAIN
100
AcDbCircle
 10
19.8
 20
-1.125
 30
0.0
 40
0.425
  0
CIRCLE
  5
FE
330
17
100
AcDbEntity
  8
WALL_CURTAIN
100
AcDbCircle
 10
20.4
 20
-1.125
 30
0.0
 40
0.425
  0
CIRCLE
  5
FF
330
17
100
AcDbEntity
  8
WALL_CURTAIN
100
AcDbCircle
 10
21.0
 20
-1.125
 30
0.0
 40
0.425
  0
CIRCLE
  5
100
330
17
100
AcDbEntity
  8
WALL_CURTAIN
100
AcDbCircle
 10
21.599999999999998
 20
-1.125
 30
0.0
 40
0.425
  0
CIRCLE
  5
101
330
17
100
AcDbEntity
  8
WALL_CURTAIN
100
AcDbCircle
 10
22.2
 20
-1.125
 30
0.0
 40
0.425
  0
CIRCLE
  5
102
330
17
100
AcDbEntity
  8
WALL_CURTAIN
100
AcDbCircle
 10
22.8
 20
-1.125
 30
0.0
 40
0.425
  0
CIRCLE
  5
103
330
17
100
AcDbEntity
  8
WALL_CURTAIN
100
AcDbCircle
 10
23.400000000000002
 20
-1.125
 30
0.0
 40
0.425
  0
CIRCLE
  5
104
330
17
100
AcDbEntity
  8
WALL_CURTAIN
100
AcDbCircle
 10
24.0
 20
-1.125
 30
0.0
 40
0.425
  0
CIRCLE
  5
105
330
17
100
AcDbEntity
  8
WALL_CURTAIN
100
AcDbCircle
 10
24.6
 20
-1.125
 30
0.0
 40
0.425
  0
CIRCLE
  5
106
330
17
100
AcDbEntity
  8
WALL_CURTAIN
100
AcDbCircle
 10
25.2
 20
-1.125
 30
0.0
 40
0.425
  0
CIRCLE
  5
107
330
17
100
AcDbEntity
  8
WALL_CURTAIN
100
AcDbCircle
 10
25.8
 20
-1.125
 30
0.0
 40
0.425
  0
CIRCLE
  5
108
330
17
100
AcDbEntity
  8
WALL_CURTAIN
100
AcDbCircle
 10
26.4
 20
-1.125
 30
0.0
 40
0.425
  0
CIRCLE
  5
109
330
17
100
AcDbEntity
  8
WALL_CURTAIN
100
AcDbCircle
 10
27.0
 20
-1.125
 30
0.0
 40
0.425
  0
CIRCLE
  5
10A
330
17
100
AcDbEntity
  8
WALL_CURTAIN
100
AcDbCircle
 10
27.599999999999998
 20
-1.125
 30
0.0
 40
0.425
  0
CIRCLE
  5
10B
330
17
100
AcDbEntity
  8
WALL_CURTAIN
100
AcDbCircle
 10
28.2
 20
-1.125
 30
0.0
 40
0.425
  0
CIRCLE
  5
10C
330
17
100
AcDbEntity
  8
WALL_CURTAIN
100
AcDbCircle
 10
28.799999999999997
 20
-1.125
 30
0.0
 40
0.425
  0
CIRCLE
  5
10D
330
17
100
AcDbEntity
  8
WALL_CURTAIN
100
AcDbCircle
 10
29.4
 20
-1.125
 30
0.0
 40
0.425
  0
CIRCLE
  5
10E
330
17
100
AcDbEntity
  8
WALL_CURTAIN
100
AcDbCircle
 10
30.0
 20
-1.125
 30
0.0
 40
0.425
  0
CIRCLE
  5
10F
330
17
100
AcDbEntity
  8
WALL_CURTAIN
100
AcDbCircle
 10
30.6
 20
-1.125
 30
0.0
 40
0.425
  0
CIRCLE
  5
110
330
17
100
AcDbEntity
  8
WALL_CURTAIN
100
AcDbCircle
 10
31.2
 20
-1.125
 30
0.0
 40
0.425
  0
CIRCLE
  5
111
330
17
100
AcDbEntity
  8
WALL_CURTAIN
100
AcDbCircle
 10
31.8
 20
-1.125
 30
0.0
 40
0.425
  0
CIRCLE
  5
112
330
17
100
AcDbEntity
  8
WALL_CURTAIN
100
AcDbCircle
 10
32.4
 20
-1.125
 30
0.0
 40
0.425
  0
CIRCLE
  5
113
330
17
100
AcDbEntity
  8
WALL_CURTAIN
100
AcDbCircle
 10
33.0
 20
-1.125
 30
0.0
 40
0.425
  0
CIRCLE
  5
114
330
17
100
AcDbEntity
  8
WALL_CURTAIN
100
AcDbCircle
 10
33.6
 20
-1.125
 30
0.0
 40
0.425
  0
CIRCLE
  5
115
330
17
100
AcDbEntity
  8
WALL_CURTAIN
100
AcDbCircle
 10
34.2
 20
-1.125
 30
0.0
 40
0.425
  0
CIRCLE
  5
116
330
17
100
AcDbEntity
  8
WALL_CURTAIN
100
AcDbCircle
 10
34.8
 20
-1.125
 30
0.0
 40
0.425
  0
CIRCLE
  5
117
330
17
100
AcDbEntity
  8
WALL_CURTAIN
100
AcDbCircle
 10
35.4
 20
-1.125
 30
0.0
 40
0.425
  0
CIRCLE
  5
118
330
17
100
AcDbEntity
  8
WALL_CURTAIN
100
AcDbCircle
 10
36.0
 20
-1.125
 30
0.0
 40
0.425
  0
CIRCLE
  5
119
330
17
100
AcDbEntity
  8
WALL_CURTAIN
100
AcDbCircle
 10
36.6
 20
-1.125
 30
0.0
 40
0.425
  0
CIRCLE
  5
11A
330
17
100
AcDbEntity
  8
WALL_CURTAIN
100
AcDbCircle
 10
37.199999999999996
 20
-1.125
 30
0.0
 40
0.425
  0
CIRCLE
  5
11B
330
17
100
AcDbEntity
  8
WALL_CURTAIN
100
AcDbCircle
 10
37.8
 20
-1.125
 30
0.0
 40
0.425
  0
CIRCLE
  5
11C
330
17
100
AcDbEntity
  8
WALL_CURTAIN
100
AcDbCircle
 10
38.4
 20
-1.125
 30
0.0
 40
0.425
  0
CIRCLE
  5
11D
330
17
100
AcDbEntity
  8
WALL_CURTAIN
100
AcDbCircle
 10
39.0
 20
-1.125
 30
0.0
 40
0.425
  0
CIRCLE
  5
11E
330
17
100
AcDbEntity
  8
WALL_CURTAIN
100
AcDbCircle
 10
39.6
 20
-1.125
 30
0.0
 40
0.425
  0
CIRCLE
  5
11F
330
17
100
AcDbEntity
  8
WALL_CURTAIN
100
AcDbCircle
 10
40.2
 20
-1.125
 30
0.0
 40
0.425
  0
CIRCLE
  5
120
330
17
100
AcDbEntity
  8
WALL_CURTAIN
100
AcDbCircle
 10
40.8
 20
-1.125
 30
0.0
 40
0.425
  0
CIRCLE
  5
121
330
17
100
AcDbEntity
  8
WALL_CURTAIN
100
AcDbCircle
 10
41.4
 20
-1.125
 30
0.0
 40
0.425
  0
CIRCLE
  5
122
330
17
100
AcDbEntity
  8
WALL_CURTAIN
100
AcDbCircle
 10
42.0
 20
-1.125
 30
0.0
 40
0.425
  0
CIRCLE
  5
123
330
17
100
AcDbEntity
  8
WALL_CURTAIN
100
AcDbCircle
 10
42.6
 20
-1.125
 30
0.0
 40
0.425
  0
CIRCLE
  5
124
330
17
100
AcDbEntity
  8
WALL_CURTAIN
100
AcDbCircle
 10
43.199999999999996
 20
-1.125
 30
0.0
 40
0.425
  0
CIRCLE
  5
125
330
17
100
AcDbEntity
  8
WALL_CURTAIN
100
AcDbCircle
 10
43.8
 20
-1.125
 30
0.0
 40
0.425
  0
CIRCLE
  5
126
330
17
100
AcDbEntity
  8
WALL_CURTAIN
100
AcDbCircle
 10
44.4
 20
-1.125
 30
0.0
 40
0.425
  0
CIRCLE
  5
127
330
17
100
AcDbEntity
  8
WALL_CURTAIN
100
AcDbCircle
 10
45.0
 20
-1.125
 30
0.0
 40
0.425
  0
CIRCLE
  5
128
330
17
100
AcDbEntity
  8
WALL_CURTAIN
100
AcDbCircle
 10
45.6
 20
-1.125
 30
0.0
 40
0.425
  0
CIRCLE
  5
129
330
17
100
AcDbEntity
  8
WALL_CURTAIN
100
AcDbCircle
 10
46.2
 20
-1.125
 30
0.0
 40
0.425
  0
CIRCLE
  5
12A
330
17
100
AcDbEntity
  8
WALL_CURTAIN
100
AcDbCircle
 10
46.8
 20
-1.125
 30
0.0
 40
0.425
  0
CIRCLE
  5
12B
330
17
100
AcDbEntity
  8
WALL_CURTAIN
100
AcDbCircle
 10
47.4
 20
-1.125
 30
0.0
 40
0.425
  0
CIRCLE
  5
12C
330
17
100
AcDbEntity
  8
WALL_CURTAIN
100
AcDbCircle
 10
48.0
 20
-1.125
 30
0.0
 40
0.425
  0
CIRCLE
  5
12D
330
17
100
AcDbEntity
  8
WALL_CURTAIN
100
AcDbCircle
 10
48.6
 20
-1.125
 30
0.0
 40
0.425
  0
CIRCLE
  5
12E
330
17
100
AcDbEntity
  8
WALL_CURTAIN
100
AcDbCircle
 10
49.199999999999996
 20
-1.125
 30
0.0
 40
0.425
  0
CIRCLE
  5
12F
330
17
100
AcDbEntity
  8
WALL_CURTAIN
100
AcDbCircle
 10
49.8
 20
-1.125
 30
0.0
 40
0.425
  0
CIRCLE
  5
130
330
17
100
AcDbEntity
  8
WALL_CURTAIN
100
AcDbCircle
 10
50.4
 20
-1.125
 30
0.0
 40
0.425
  0
CIRCLE
  5
131
330
17
100
AcDbEntity
  8
WALL_CURTAIN
100
AcDbCircle
 10
51.0
 20
-1.125
 30
0.0
 40
0.425
  0
CIRCLE
  5
132
330
17
100
AcDbEntity
  8
WALL_CURTAIN
100
AcDbCircle
 10
51.6
 20
-1.125
 30
0.0
 40
0.425
  0
CIRCLE
  5
133
330
17
100
AcDbEntity
  8
WALL_CURTAIN
100
AcDbCircle
 10
52.2
 20
-1.125
 30
0.0
 40
0.425
  0
CIRCLE
  5
134
330
17
100
AcDbEntity
  8
WALL_CURTAIN
100
AcDbCircle
 10
52.8
 20
-1.125
 30
0.0
 40
0.425
  0
CIRCLE
  5
135
330
17
100
AcDbEntity
  8
WALL_CURTAIN
100
AcDbCircle
 10
53.4
 20
-1.125
 30
0.0
 40
0.425
  0
CIRCLE
  5
136
330
17
100
AcDbEntity
  8
WALL_CURTAIN
100
AcDbCircle
 10
54.0
 20
-1.125
 30
0.0
 40
0.425
  0
CIRCLE
  5
137
330
17
100
AcDbEntity
  8
WALL_CURTAIN
100
AcDbCircle
 10
54.6
 20
-1.125
 30
0.0
 40
0.425
  0
CIRCLE
  5
138
330
17
100
AcDbEntity
  8
WALL_CURTAIN
100
AcDbCircle
 10
55.199999999999996
 20
-1.125
 30
0.0
 40
0.425
  0
CIRCLE
  5
139
330
17
100
AcDbEntity
  8
WALL_CURTAIN
100
AcDbCircle
 10
55.8
 20
-1.125
 30
0.0
 40
0.425
  0
CIRCLE
  5
13A
330
17
100
AcDbEntity
  8
WALL_CURTAIN
100
AcDbCircle
 10
56.4
 20
-1.125
 30
0.0
 40
0.425
  0
CIRCLE
  5
13B
330
17
100
AcDbEntity
  8
WALL_CURTAIN
100
AcDbCircle
 10
57.0
 20
-1.125
 30
0.0
 40
0.425
  0
CIRCLE
  5
13C
330
17
100
AcDbEntity
  8
WALL_CURTAIN
100
AcDbCircle
 10
57.599999999999994
 20
-1.125
 30
0.0
 40
0.425
  0
CIRCLE
  5
13D
330
17
100
AcDbEntity
  8
WALL_CURTAIN
100
AcDbCircle
 10
58.199999999999996
 20
-1.125
 30
0.0
 40
0.425
  0
CIRCLE
  5
13E
330
17
100
AcDbEntity
  8
WALL_CURTAIN
100
AcDbCircle
 10
58.8
 20
-1.125
 30
0.0
 40
0.425
  0
CIRCLE
  5
13F
330
17
100
AcDbEntity
  8
WALL_CURTAIN
100
AcDbCircle
 10
59.4
 20
-1.125
 30
0.0
 40
0.425
  0
CIRCLE
  5
140
330
17
100
AcDbEntity
  8
WALL_CURTAIN
100
AcDbCircle
 10
60.0
 20
-1.125
 30
0.0
 40
0.425
  0
CIRCLE
  5
141
330
17
100
AcDbEntity
  8
WALL_CURTAIN
100
AcDbCircle
 10
60.6
 20
-1.125
 30
0.0
 40
0.425
  0
CIRCLE
  5
142
330
17
100
AcDbEntity
  8
WALL_CURTAIN
100
AcDbCircle
 10
61.125
 20
-0.6
 30
0.0
 40
0.425
  0
CIRCLE
  5
143
330
17
100
AcDbEntity
  8
WALL_CURTAIN
100
AcDbCircle
 10
61.125
 20
0.0
 30
0.0
 40
0.425
  0
CIRCLE
  5
144
330
17
100
AcDbEntity
  8
WALL_CURTAIN
100
AcDbCircle
 10
61.125
 20
0.6
 30
0.0
 40
0.425
  0
CIRCLE
  5
145
330
17
100
AcDbEntity
  8
WALL_CURTAIN
100
AcDbCircle
 10
61.125
 20
0.6121212121212122
 30
0.0
 40
0.425
  0
CIRCLE
  5
146
330
17
100
AcDbEntity
  8
WALL_CURTAIN
100
AcDbCircle
 10
61.125
 20
1.2121212121212122
 30
0.0
 40
0.425
  0
CIRCLE
  5
147
330
17
100
AcDbEntity
  8
WALL_CURTAIN
100
AcDbCircle
 10
61.125
 20
1.812121212121212
 30
0.0
 40
0.425
  0
CIRCLE
  5
148
330
17
100
AcDbEntity
  8
WALL_CURTAIN
100
AcDbCircle
 10
61.125
 20
1.8242424242424242
 30
0.0
 40
0.425
  0
CIRCLE
  5
149
330
17
100
AcDbEntity
  8
WALL_CURTAIN
100
AcDbCircle
 10
61.125
 20
2.4242424242424243
 30
0.0
 40
0.425
  0
CIRCLE
  5
14A
330
17
100
AcDbEntity
  8
WALL_CURTAIN
100
AcDbCircle
 10
61.125
 20
3.0242424242424244
 30
0.0
 40
0.425
  0
CIRCLE
  5
14B
330
17
100
AcDbEntity
  8
WALL_CURTAIN
100
AcDbCircle
 10
61.125
 20
3.0363636363636366
 30
0.0
 40
0.425
  0
CIRCLE
  5
14C
330
17
100
AcDbEntity
  8
WALL_CURTAIN
100
AcDbCircle
 10
61.125
 20
3.6363636363636367
 30
0.0
 40
0.425
  0
CIRCLE
  5
14D
330
17
100
AcDbEntity
  8
WALL_CURTAIN
100
AcDbCircle
 10
61.125
 20
4.236363636363636
 30
0.0
 40
0.425
  0
CIRCLE
  5
14E
330
17
100
AcDbEntity
  8
WALL_CURTAIN
100
AcDbCircle
 10
61.125
 20
4.248484848484849
 30
0.0
 40
0.425
  0
CIRCLE
  5
14F
330
17
100
AcDbEntity
  8
WALL_CURTAIN
100
AcDbCircle
 10
61.125
 20
4.848484848484849
 30
0.0
 40
0.425
  0
CIRCLE
  5
150
330
17
100
AcDbEntity
  8
WALL_CURTAIN
100
AcDbCircle
 10
61.125
 20
5.448484848484848
 30
0.0
 40
0.425
  0
CIRCLE
  5
151
330
17
100
AcDbEntity
  8
WALL_CURTAIN
100
AcDbCircle
 10
61.125
 20
5.460606060606061
 30
0.0
 40
0.425
  0
CIRCLE
  5
152
330
17
100
AcDbEntity
  8
WALL_CURTAIN
100
AcDbCircle
 10
61.125
 20
6.0606060606060606
 30
0.0
 40
0.425
  0
CIRCLE
  5
153
330
17
100
AcDbEntity
  8
WALL_CURTAIN
100
AcDbCircle
 10
61.125
 20
6.66060606060606
 30
0.0
 40
0.425
  0
CIRCLE
  5
154
330
17
100
AcDbEntity
  8
WALL_CURTAIN
100
AcDbCircle
 10
61.125
 20
6.672727272727274
 30
0.0
 40
0.425
  0
CIRCLE
  5
155
330
17
100
AcDbEntity
  8
WALL_CURTAIN
100
AcDbCircle
 10
61.125
 20
7.272727272727273
 30
0.0
 40
0.425
  0
CIRCLE
  5
156
330
17
100
AcDbEntity
  8
WALL_CURTAIN
100
AcDbCircle
 10
61.125
 20
7.872727272727273
 30
0.0
 40
0.425
  0
CIRCLE
  5
157
330
17
100
AcDbEntity
  8
WALL_CURTAIN
100
AcDbCircle
 10
61.125
 20
7.884848484848485
 30
0.0
 40
0.425
  0
CIRCLE
  5
158
330
17
100
AcDbEntity
  8
WALL_CURTAIN
100
AcDbCircle
 10
61.125
 20
8.484848484848484
 30
0.0
 40
0.425
  0
CIRCLE
  5
159
330
17
100
AcDbEntity
  8
WALL_CURTAIN
100
AcDbCircle
 10
61.125
 20
9.084848484848484
 30
0.0
 40
0.425
  0
CIRCLE
  5
15A
330
17
100
AcDbEntity
  8
WALL_CURTAIN
100
AcDbCircle
 10
61.125
 20
9.096969696969698
 30
0.0
 40
0.425
  0
CIRCLE
  5
15B
330
17
100
AcDbEntity
  8
WALL_CURTAIN
100
AcDbCircle
 10
61.125
 20
9.696969696969697
 30
0.0
 40
0.425
  0
CIRCLE
  5
15C
330
17
100
AcDbEntity
  8
WALL_CURTAIN
100
AcDbCircle
 10
61.125
 20
10.296969696969697
 30
0.0
 40
0.425
  0
CIRCLE
  5
15D
330
17
100
AcDbEntity
  8
WALL_CURTAIN
100
AcDbCircle
 10
61.125
 20
10.30909090909091
 30
0.0
 40
0.425
  0
CIRCLE
  5
15E
330
17
100
AcDbEntity
  8
WALL_CURTAIN
100
AcDbCircle
 10
61.125
 20
10.90909090909091
 30
0.0
 40
0.425
  0
CIRCLE
  5
15F
330
17
100
AcDbEntity
  8
WALL_CURTAIN
100
AcDbCircle
 10
61.125
 20
11.50909090909091
 30
0.0
 40
0.425
  0
CIRCLE
  5
160
330
17
100
AcDbEntity
  8
WALL_CURTAIN
100
AcDbCircle
 10
61.125
 20
11.521212121212121
 30
0.0
 40
0.425
  0
CIRCLE
  5
161
330
17
100
AcDbEntity
  8
WALL_CURTAIN
100
AcDbCircle
 10
61.125
 20
12.121212121212121
 30
0.0
 40
0.425
  0
CIRCLE
  5
162
330
17
100
AcDbEntity
  8
WALL_CURTAIN
100
AcDbCircle
 10
61.125
 20
12.72121212121212
 30
0.0
 40
0.425
  0
CIRCLE
  5
163
330
17
100
AcDbEntity
  8
WALL_CURTAIN
100
AcDbCircle
 10
61.125
 20
12.733333333333334
 30
0.0
 40
0.425
  0
CIRCLE
  5
164
330
17
100
AcDbEntity
  8
WALL_CURTAIN
100
AcDbCircle
 10
61.125
 20
13.333333333333334
 30
0.0
 40
0.425
  0
CIRCLE
  5
165
330
17
100
AcDbEntity
  8
WALL_CURTAIN
100
AcDbCircle
 10
61.125
 20
13.933333333333334
 30
0.0
 40
0.425
  0
CIRCLE
  5
166
330
17
100
AcDbEntity
  8
WALL_CURTAIN
100
AcDbCircle
 10
61.125
 20
13.945454545454547
 30
0.0
 40
0.425
  0
CIRCLE
  5
167
330
17
100
AcDbEntity
  8
WALL_CURTAIN
100
AcDbCircle
 10
61.125
 20
14.545454545454547
 30
0.0
 40
0.425
  0
CIRCLE
  5
168
330
17
100
AcDbEntity
  8
WALL_CURTAIN
100
AcDbCircle
 10
61.125
 20
15.145454545454546
 30
0.0
 40
0.425
  0
CIRCLE
  5
169
330
17
100
AcDbEntity
  8
WALL_CURTAIN
100
AcDbCircle
 10
61.125
 20
15.157575757575758
 30
0.0
 40
0.425
  0
CIRCLE
  5
16A
330
17
100
AcDbEntity
  8
WALL_CURTAIN
100
AcDbCircle
 10
61.125
 20
15.757575757575758
 30
0.0
 40
0.425
  0
CIRCLE
  5
16B
330
17
100
AcDbEntity
  8
WALL_CURTAIN
100
AcDbCircle
 10
61.125
 20
16.35757575757576
 30
0.0
 40
0.425
  0
CIRCLE
  5
16C
330
17
100
AcDbEntity
  8
WALL_CURTAIN
100
AcDbCircle
 10
61.125
 20
16.369696969696967
 30
0.0
 40
0.425
  0
CIRCLE
  5
16D
330
17
100
AcDbEntity
  8
WALL_CURTAIN
100
AcDbCircle
 10
61.125
 20
16.96969696969697
 30
0.0
 40
0.425
  0
CIRCLE
  5
16E
330
17
100
AcDbEntity
  8
WALL_CURTAIN
100
AcDbCircle
 10
61.125
 20
17.56969696969697
 30
0.0
 40
0.425
  0
CIRCLE
  5
16F
330
17
100
AcDbEntity
  8
WALL_CURTAIN
100
AcDbCircle
 10
61.125
 20
17.581818181818182
 30
0.0
 40
0.425
  0
CIRCLE
  5
170
330
17
100
AcDbEntity
  8
WALL_CURTAIN
100
AcDbCircle
 10
61.125
 20
18.181818181818183
 30
0.0
 40
0.425
  0
CIRCLE
  5
171
330
17
100
AcDbEntity
  8
WALL_CURTAIN
100
AcDbCircle
 10
61.125
 20
18.781818181818185
 30
0.0
 40
0.425
  0
CIRCLE
  5
172
330
17
100
AcDbEntity
  8
WALL_CURTAIN
100
AcDbCircle
 10
61.125
 20
18.793939393939393
 30
0.0
 40
0.425
  0
CIRCLE
  5
173
330
17
100
AcDbEntity
  8
WALL_CURTAIN
100
AcDbCircle
 10
61.125
 20
19.393939393939394
 30
0.0
 40
0.425
  0
CIRCLE
  5
174
330
17
100
AcDbEntity
  8
WALL_CURTAIN
100
AcDbCircle
 10
61.125
 20
19.993939393939396
 30
0.0
 40
0.425
  0
CIRCLE
  5
175
330
17
100
AcDbEntity
  8
WALL_CURTAIN
100
AcDbCircle
 10
61.125
 20
20.006060606060604
 30
0.0
 40
0.425
  0
CIRCLE
  5
176
330
17
100
AcDbEntity
  8
WALL_CURTAIN
100
AcDbCircle
 10
61.125
 20
20.606060606060606
 30
0.0
 40
0.425
  0
CIRCLE
  5
177
330
17
100
AcDbEntity
  8
WALL_CURTAIN
100
AcDbCircle
 10
61.125
 20
21.206060606060607
 30
0.0
 40
0.425
  0
CIRCLE
  5
178
330
17
100
AcDbEntity
  8
WALL_CURTAIN
100
AcDbCircle
 10
61.125
 20
21.21818181818182
 30
0.0
 40
0.425
  0
CIRCLE
  5
179
330
17
100
AcDbEntity
  8
WALL_CURTAIN
100
AcDbCircle
 10
61.125
 20
21.81818181818182
 30
0.0
 40
0.425
  0
CIRCLE
  5
17A
330
17
100
AcDbEntity
  8
WALL_CURTAIN
100
AcDbCircle
 10
61.125
 20
22.41818181818182
 30
0.0
 40
0.425
  0
CIRCLE
  5
17B
330
17
100
AcDbEntity
  8
WALL_CURTAIN
100
AcDbCircle
 10
61.125
 20
22.43030303030303
 30
0.0
 40
0.425
  0
CIRCLE
  5
17C
330
17
100
AcDbEntity
  8
WALL_CURTAIN
100
AcDbCircle
 10
61.125
 20
23.03030303030303
 30
0.0
 40
0.425
  0
CIRCLE
  5
17D
330
17
100
AcDbEntity
  8
WALL_CURTAIN
100
AcDbCircle
 10
61.125
 20
23.630303030303033
 30
0.0
 40
0.425
  0
CIRCLE
  5
17E
330
17
100
AcDbEntity
  8
WALL_CURTAIN
100
AcDbCircle
 10
61.125
 20
23.64242424242424
 30
0.0
 40
0.425
  0
CIRCLE
  5
17F
330
17
100
AcDbEntity
  8
WALL_CURTAIN
100
AcDbCircle
 10
61.125
 20
24.242424242424242
 30
0.0
 40
0.425
  0
CIRCLE
  5
180
330
17
100
AcDbEntity
  8
WALL_CURTAIN
100
AcDbCircle
 10
61.125
 20
24.842424242424244
 30
0.0
 40
0.425
  0
CIRCLE
  5
181
330
17
100
AcDbEntity
  8
WALL_CURTAIN
100
AcDbCircle
 10
61.125
 20
24.854545454545455
 30
0.0
 40
0.425
  0
CIRCLE
  5
182
330
17
100
AcDbEntity
  8
WALL_CURTAIN
100
AcDbCircle
 10
61.125
 20
25.454545454545457
 30
0.0
 40
0.425
  0
CIRCLE
  5
183
330
17
100
AcDbEntity
  8
WALL_CURTAIN
100
AcDbCircle
 10
61.125
 20
26.05454545454546
 30
0.0
 40
0.425
  0
CIRCLE
  5
184
330
17
100
AcDbEntity
  8
WALL_CURTAIN
100
AcDbCircle
 10
61.125
 20
26.066666666666666
 30
0.0
 40
0.425
  0
CIRCLE
  5
185
330
17
100
AcDbEntity
  8
WALL_CURTAIN
100
AcDbCircle
 10
61.125
 20
26.666666666666668
 30
0.0
 40
0.425
  0
CIRCLE
  5
186
330
17
100
AcDbEntity
  8
WALL_CURTAIN
100
AcDbCircle
 10
61.125
 20
27.26666666666667
 30
0.0
 40
0.425
  0
CIRCLE
  5
187
330
17
100
AcDbEntity
  8
WALL_CURTAIN
100
AcDbCircle
 10
61.125
 20
27.278787878787877
 30
0.0
 40
0.425
  0
CIRCLE
  5
188
330
17
100
AcDbEntity
  8
WALL_CURTAIN
100
AcDbCircle
 10
61.125
 20
27.87878787878788
 30
0.0
 40
0.425
  0
CIRCLE
  5
189
330
17
100
AcDbEntity
  8
WALL_CURTAIN
100
AcDbCircle
 10
61.125
 20
28.47878787878788
 30
0.0
 40
0.425
  0
CIRCLE
  5
18A
330
17
100
AcDbEntity
  8
WALL_CURTAIN
100
AcDbCircle
 10
61.125
 20
28.490909090909092
 30
0.0
 40
0.425
  0
CIRCLE
  5
18B
330
17
100
AcDbEntity
  8
WALL_CURTAIN
100
AcDbCircle
 10
61.125
 20
29.090909090909093
 30
0.0
 40
0.425
  0
CIRCLE
  5
18C
330
17
100
AcDbEntity
  8
WALL_CURTAIN
100
AcDbCircle
 10
61.125
 20
29.690909090909095
 30
0.0
 40
0.425
  0
CIRCLE
  5
18D
330
17
100
AcDbEntity
  8
WALL_CURTAIN
100
AcDbCircle
 10
61.125
 20
29.703030303030303
 30
0.0
 40
0.425
  0
CIRCLE
  5
18E
330
17
100
AcDbEntity
  8
WALL_CURTAIN
100
AcDbCircle
 10
61.125
 20
30.303030303030305
 30
0.0
 40
0.425
  0
CIRCLE
  5
18F
330
17
100
AcDbEntity
  8
WALL_CURTAIN
100
AcDbCircle
 10
61.125
 20
30.903030303030306
 30
0.0
 40
0.425
  0
CIRCLE
  5
190
330
17
100
AcDbEntity
  8
WALL_CURTAIN
100
AcDbCircle
 10
61.125
 20
30.915151515151514
 30
0.0
 40
0.425
  0
CIRCLE
  5
191
330
17
100
AcDbEntity
  8
WALL_CURTAIN
100
AcDbCircle
 10
61.125
 20
31.515151515151516
 30
0.0
 40
0.425
  0
CIRCLE
  5
192
330
17
100
AcDbEntity
  8
WALL_CURTAIN
100
AcDbCircle
 10
61.125
 20
32.11515151515152
 30
0.0
 40
0.425
  0
CIRCLE
  5
193
330
17
100
AcDbEntity
  8
WALL_CURTAIN
100
AcDbCircle
 10
61.125
 20
32.127272727272725
 30
0.0
 40
0.425
  0
CIRCLE
  5
194
330
17
100
AcDbEntity
  8
WALL_CURTAIN
100
AcDbCircle
 10
61.125
 20
32.72727272727273
 30
0.0
 40
0.425
  0
CIRCLE
  5
195
330
17
100
AcDbEntity
  8
WALL_CURTAIN
100
AcDbCircle
 10
61.125
 20
33.32727272727273
 30
0.0
 40
0.425
  0
CIRCLE
  5
196
330
17
100
AcDbEntity
  8
WALL_CURTAIN
100
AcDbCircle
 10
61.125
 20
33.339393939393936
 30
0.0
 40
0.425
  0
CIRCLE
  5
197
330
17
100
AcDbEntity
  8
WALL_CURTAIN
100
AcDbCircle
 10
61.125
 20
33.93939393939394
 30
0.0
 40
0.425
  0
CIRCLE
  5
198
330
17
100
AcDbEntity
  8
WALL_CURTAIN
100
AcDbCircle
 10
61.125
 20
34.53939393939394
 30
0.0
 40
0.425
  0
CIRCLE
  5
199
330
17
100
AcDbEntity
  8
WALL_CURTAIN
100
AcDbCircle
 10
61.125
 20
34.551515151515154
 30
0.0
 40
0.425
  0
CIRCLE
  5
19A
330
17
100
AcDbEntity
  8
WALL_CURTAIN
100
AcDbCircle
 10
61.125
 20
35.151515151515156
 30
0.0
 40
0.425
  0
CIRCLE
  5
19B
330
17
100
AcDbEntity
  8
WALL_CURTAIN
100
AcDbCircle
 10
61.125
 20
35.75151515151516
 30
0.0
 40
0.425
  0
CIRCLE
  5
19C
330
17
100
AcDbEntity
  8
WALL_CURTAIN
100
AcDbCircle
 10
61.125
 20
35.763636363636365
 30
0.0
 40
0.425
  0
CIRCLE
  5
19D
330
17
100
AcDbEntity
  8
WALL_CURTAIN
100
AcDbCircle
 10
61.125
 20
36.36363636363637
 30
0.0
 40
0.425
  0
CIRCLE
  5
19E
330
17
100
AcDbEntity
  8
WALL_CURTAIN
100
AcDbCircle
 10
61.125
 20
36.96363636363637
 30
0.0
 40
0.425
  0
CIRCLE
  5
19F
330
17
100
AcDbEntity
  8
WALL_CURTAIN
100
AcDbCircle
 10
61.125
 20
36.97575757575758
 30
0.0
 40
0.425
  0
CIRCLE
  5
1A0
330
17
100
AcDbEntity
  8
WALL_CURTAIN
100
AcDbCircle
 10
61.125
 20
37.57575757575758
 30
0.0
 40
0.425
  0
CIRCLE
  5
1A1
330
17
100
AcDbEntity
  8
WALL_CURTAIN
100
AcDbCircle
 10
61.125
 20
38.17575757575758
 30
0.0
 40
0.425
  0
CIRCLE
  5
1A2
330
17
100
AcDbEntity
  8
WALL_CURTAIN
100
AcDbCircle
 10
61.125
 20
38.18787878787879
 30
0.0
 40
0.425
  0
CIRCLE
  5
1A3
330
17
100
AcDbEntity
  8
WALL_CURTAIN
100
AcDbCircle
 10
61.125
 20
38.78787878787879
 30
0.0
 40
0.425
  0
CIRCLE
  5
1A4
330
17
100
AcDbEntity
  8
WALL_CURTAIN
100
AcDbCircle
 10
61.125
 20
39.38787878787879
 30
0.0
 40
0.425
  0
CIRCLE
  5
1A5
330
17
100
AcDbEntity
  8
WALL_CURTAIN
100
AcDbCircle
 10
61.125
 20
39.4
 30
0.0
 40
0.425
  0
CIRCLE
  5
1A6
330
17
100
AcDbEntity
  8
WALL_CURTAIN
100
AcDbCircle
 10
61.125
 20
40.0
 30
0.0
 40
0.425
  0
CIRCLE
  5
1A7
330
17
100
AcDbEntity
  8
WALL_CURTAIN
100
AcDbCircle
 10
61.125
 20
40.6
 30
0.0
 40
0.425
  0
CIRCLE
  5
1A8
330
17
100
AcDbEntity
  8
WALL_CURTAIN
100
AcDbCircle
 10
60.6
 20
41.125
 30
0.0
 40
0.425
  0
CIRCLE
  5
1A9
330
17
100
AcDbEntity
  8
WALL_CURTAIN
100
AcDbCircle
 10
60.0
 20
41.125
 30
0.0
 40
0.425
  0
CIRCLE
  5
1AA
330
17
100
AcDbEntity
  8
WALL_CURTAIN
100
AcDbCircle
 10
59.4
 20
41.125
 30
0.0
 40
0.425
  0
CIRCLE
  5
1AB
330
17
100
AcDbEntity
  8
WALL_CURTAIN
100
AcDbCircle
 10
58.8
 20
41.125
 30
0.0
 40
0.425
  0
CIRCLE
  5
1AC
330
17
100
AcDbEntity
  8
WALL_CURTAIN
100
AcDbCircle
 10
58.199999999999996
 20
41.125
 30
0.0
 40
0.425
  0
CIRCLE
  5
1AD
330
17
100
AcDbEntity
  8
WALL_CURTAIN
100
AcDbCircle
 10
57.6
 20
41.125
 30
0.0
 40
0.425
  0
CIRCLE
  5
1AE
330
17
100
AcDbEntity
  8
WALL_CURTAIN
100
AcDbCircle
 10
57.0
 20
41.125
 30
0.0
 40
0.425
  0
CIRCLE
  5
1AF
330
17
100
AcDbEntity
  8
WALL_CURTAIN
100
AcDbCircle
 10
56.4
 20
41.125
 30
0.0
 40
0.425
  0
CIRCLE
  5
1B0
330
17
100
AcDbEntity
  8
WALL_CURTAIN
100
AcDbCircle
 10
55.8
 20
41.125
 30
0.0
 40
0.425
  0
CIRCLE
  5
1B1
330
17
100
AcDbEntity
  8
WALL_CURTAIN
100
AcDbCircle
 10
55.2
 20
41.125
 30
0.0
 40
0.425
  0
CIRCLE
  5
1B2
330
17
100
AcDbEntity
  8
WALL_CURTAIN
100
AcDbCircle
 10
54.6
 20
41.125
 30
0.0
 40
0.425
  0
CIRCLE
  5
1B3
330
17
100
AcDbEntity
  8
WALL_CURTAIN
100
AcDbCircle
 10
54.0
 20
41.125
 30
0.0
 40
0.425
  0
CIRCLE
  5
1B4
330
17
100
AcDbEntity
  8
WALL_CURTAIN
100
AcDbCircle
 10
53.4
 20
41.125
 30
0.0
 40
0.425
  0
CIRCLE
  5
1B5
330
17
100
AcDbEntity
  8
WALL_CURTAIN
100
AcDbCircle
 10
52.8
 20
41.125
 30
0.0
 40
0.425
  0
CIRCLE
  5
1B6
330
17
100
AcDbEntity
  8
WALL_CURTAIN
100
AcDbCircle
 10
52.199999999999996
 20
41.125
 30
0.0
 40
0.425
  0
CIRCLE
  5
1B7
330
17
100
AcDbEntity
  8
WALL_CURTAIN
100
AcDbCircle
 10
51.6
 20
41.125
 30
0.0
 40
0.425
  0
CIRCLE
  5
1B8
330
17
100
AcDbEntity
  8
WALL_CURTAIN
100
AcDbCircle
 10
51.0
 20
41.125
 30
0.0
 40
0.425
  0
CIRCLE
  5
1B9
330
17
100
AcDbEntity
  8
WALL_CURTAIN
100
AcDbCircle
 10
50.4
 20
41.125
 30
0.0
 40
0.425
  0
CIRCLE
  5
1BA
330
17
100
AcDbEntity
  8
WALL_CURTAIN
100
AcDbCircle
 10
49.8
 20
41.125
 30
0.0
 40
0.425
  0
CIRCLE
  5
1BB
330
17
100
AcDbEntity
  8
WALL_CURTAIN
100
AcDbCircle
 10
49.2
 20
41.125
 30
0.0
 40
0.425
  0
CIRCLE
  5
1BC
330
17
100
AcDbEntity
  8
WALL_CURTAIN
100
AcDbCircle
 10
48.6
 20
41.125
 30
0.0
 40
0.425
  0
CIRCLE
  5
1BD
330
17
100
AcDbEntity
  8
WALL_CURTAIN
100
AcDbCircle
 10
48.0
 20
41.125
 30
0.0
 40
0.425
  0
CIRCLE
  5
1BE
330
17
100
AcDbEntity
  8
WALL_CURTAIN
100
AcDbCircle
 10
47.4
 20
41.125
 30
0.0
 40
0.425
  0
CIRCLE
  5
1BF
330
17
100
AcDbEntity
  8
WALL_CURTAIN
100
AcDbCircle
 10
46.8
 20
41.125
 30
0.0
 40
0.425
  0
CIRCLE
  5
1C0
330
17
100
AcDbEntity
  8
WALL_CURTAIN
100
AcDbCircle
 10
46.199999999999996
 20
41.125
 30
0.0
 40
0.425
  0
CIRCLE
  5
1C1
330
17
100
AcDbEntity
  8
WALL_CURTAIN
100
AcDbCircle
 10
45.6
 20
41.125
 30
0.0
 40
0.425
  0
CIRCLE
  5
1C2
330
17
100
AcDbEntity
  8
WALL_CURTAIN
100
AcDbCircle
 10
45.0
 20
41.125
 30
0.0
 40
0.425
  0
CIRCLE
  5
1C3
330
17
100
AcDbEntity
  8
WALL_CURTAIN
100
AcDbCircle
 10
44.4
 20
41.125
 30
0.0
 40
0.425
  0
CIRCLE
  5
1C4
330
17
100
AcDbEntity
  8
WALL_CURTAIN
100
AcDbCircle
 10
43.8
 20
41.125
 30
0.0
 40
0.425
  0
CIRCLE
  5
1C5
330
17
100
AcDbEntity
  8
WALL_CURTAIN
100
AcDbCircle
 10
43.2
 20
41.125
 30
0.0
 40
0.425
  0
CIRCLE
  5
1C6
330
17
100
AcDbEntity
  8
WALL_CURTAIN
100
AcDbCircle
 10
42.6
 20
41.125
 30
0.0
 40
0.425
  0
CIRCLE
  5
1C7
330
17
100
AcDbEntity
  8
WALL_CURTAIN
100
AcDbCircle
 10
42.0
 20
41.125
 30
0.0
 40
0.425
  0
CIRCLE
  5
1C8
330
17
100
AcDbEntity
  8
WALL_CURTAIN
100
AcDbCircle
 10
41.4
 20
41.125
 30
0.0
 40
0.425
  0
CIRCLE
  5
1C9
330
17
100
AcDbEntity
  8
WALL_CURTAIN
100
AcDbCircle
 10
40.8
 20
41.125
 30
0.0
 40
0.425
  0
CIRCLE
  5
1CA
330
17
100
AcDbEntity
  8
WALL_CURTAIN
100
AcDbCircle
 10
40.199999999999996
 20
41.125
 30
0.0
 40
0.425
  0
CIRCLE
  5
1CB
330
17
100
AcDbEntity
  8
WALL_CURTAIN
100
AcDbCircle
 10
39.6
 20
41.125
 30
0.0
 40
0.425
  0
CIRCLE
  5
1CC
330
17
100
AcDbEntity
  8
WALL_CURTAIN
100
AcDbCircle
 10
39.0
 20
41.125
 30
0.0
 40
0.425
  0
CIRCLE
  5
1CD
330
17
100
AcDbEntity
  8
WALL_CURTAIN
100
AcDbCircle
 10
38.400000000000006
 20
41.125
 30
0.0
 40
0.425
  0
CIRCLE
  5
1CE
330
17
100
AcDbEntity
  8
WALL_CURTAIN
100
AcDbCircle
 10
37.800000000000004
 20
41.125
 30
0.0
 40
0.425
  0
CIRCLE
  5
1CF
330
17
100
AcDbEntity
  8
WALL_CURTAIN
100
AcDbCircle
 10
37.2
 20
41.125
 30
0.0
 40
0.425
  0
CIRCLE
  5
1D0
330
17
100
AcDbEntity
  8
WALL_CURTAIN
100
AcDbCircle
 10
36.6
 20
41.125
 30
0.0
 40
0.425
  0
CIRCLE
  5
1D1
330
17
100
AcDbEntity
  8
WALL_CURTAIN
100
AcDbCircle
 10
36.0
 20
41.125
 30
0.0
 40
0.425
  0
CIRCLE
  5
1D2
330
17
100
AcDbEntity
  8
WALL_CURTAIN
100
AcDbCircle
 10
35.4
 20
41.125
 30
0.0
 40
0.425
  0
CIRCLE
  5
1D3
330
17
100
AcDbEntity
  8
WALL_CURTAIN
100
AcDbCircle
 10
34.8
 20
41.125
 30
0.0
 40
0.425
  0
CIRCLE
  5
1D4
330
17
100
AcDbEntity
  8
WALL_CURTAIN
100
AcDbCircle
 10
34.199999999999996
 20
41.125
 30
0.0
 40
0.425
  0
CIRCLE
  5
1D5
330
17
100
AcDbEntity
  8
WALL_CURTAIN
100
AcDbCircle
 10
33.6
 20
41.125
 30
0.0
 40
0.425
  0
CIRCLE
  5
1D6
330
17
100
AcDbEntity
  8
WALL_CURTAIN
100
AcDbCircle
 10
33.0
 20
41.125
 30
0.0
 40
0.425
  0
CIRCLE
  5
1D7
330
17
100
AcDbEntity
  8
WALL_CURTAIN
100
AcDbCircle
 10
32.400000000000006
 20
41.125
 30
0.0
 40
0.425
  0
CIRCLE
  5
1D8
330
17
100
AcDbEntity
  8
WALL_CURTAIN
100
AcDbCircle
 10
31.800000000000004
 20
41.125
 30
0.0
 40
0.425
  0
CIRCLE
  5
1D9
330
17
100
AcDbEntity
  8
WALL_CURTAIN
100
AcDbCircle
 10
31.200000000000003
 20
41.125
 30
0.0
 40
0.425
  0
CIRCLE
  5
1DA
330
17
100
AcDbEntity
  8
WALL_CURTAIN
100
AcDbCircle
 10
30.6
 20
41.125
 30
0.0
 40
0.425
  0
CIRCLE
  5
1DB
330
17
100
AcDbEntity
  8
WALL_CURTAIN
100
AcDbCircle
 10
30.0
 20
41.125
 30
0.0
 40
0.425
  0
CIRCLE
  5
1DC
330
17
100
AcDbEntity
  8
WALL_CURTAIN
100
AcDbCircle
 10
29.4
 20
41.125
 30
0.0
 40
0.425
  0
CIRCLE
  5
1DD
330
17
100
AcDbEntity
  8
WALL_CURTAIN
100
AcDbCircle
 10
28.8
 20
41.125
 30
0.0
 40
0.425
  0
CIRCLE
  5
1DE
330
17
100
AcDbEntity
  8
WALL_CURTAIN
100
AcDbCircle
 10
28.2
 20
41.125
 30
0.0
 40
0.425
  0
CIRCLE
  5
1DF
330
17
100
AcDbEntity
  8
WALL_CURTAIN
100
AcDbCircle
 10
27.6
 20
41.125
 30
0.0
 40
0.425
  0
CIRCLE
  5
1E0
330
17
100
AcDbEntity
  8
WALL_CURTAIN
100
AcDbCircle
 10
27.0
 20
41.125
 30
0.0
 40
0.425
  0
CIRCLE
  5
1E1
330
17
100
AcDbEntity
  8
WALL_CURTAIN
100
AcDbCircle
 10
26.4
 20
41.125
 30
0.0
 40
0.425
  0
CIRCLE
  5
1E2
330
17
100
AcDbEntity
  8
WALL_CURTAIN
100
AcDbCircle
 10
25.799999999999997
 20
41.125
 30
0.0
 40
0.425
  0
CIRCLE
  5
1E3
330
17
100
AcDbEntity
  8
WALL_CURTAIN
100
AcDbCircle
 10
25.200000000000003
 20
41.125
 30
0.0
 40
0.425
  0
CIRCLE
  5
1E4
330
17
100
AcDbEntity
  8
WALL_CURTAIN
100
AcDbCircle
 10
24.6
 20
41.125
 30
0.0
 40
0.425
  0
CIRCLE
  5
1E5
330
17
100
AcDbEntity
  8
WALL_CURTAIN
100
AcDbCircle
 10
24.0
 20
41.125
 30
0.0
 40
0.425
  0
CIRCLE
  5
1E6
330
17
100
AcDbEntity
  8
WALL_CURTAIN
100
AcDbCircle
 10
23.4
 20
41.125
 30
0.0
 40
0.425
  0
CIRCLE
  5
1E7
330
17
100
AcDbEntity
  8
WALL_CURTAIN
100
AcDbCircle
 10
22.800000000000004
 20
41.125
 30
0.0
 40
0.425
  0
CIRCLE
  5
1E8
330
17
100
AcDbEntity
  8
WALL_CURTAIN
100
AcDbCircle
 10
22.200000000000003
 20
41.125
 30
0.0
 40
0.425
  0
CIRCLE
  5
1E9
330
17
100
AcDbEntity
  8
WALL_CURTAIN
100
AcDbCircle
 10
21.6
 20
41.125
 30
0.0
 40
0.425
  0
CIRCLE
  5
1EA
330
17
100
AcDbEntity
  8
WALL_CURTAIN
100
AcDbCircle
 10
21.0
 20
41.125
 30
0.0
 40
0.425
  0
CIRCLE
  5
1EB
330
17
100
AcDbEntity
  8
WALL_CURTAIN
100
AcDbCircle
 10
20.4
 20
41.125
 30
0.0
 40
0.425
  0
CIRCLE
  5
1EC
330
17
100
AcDbEntity
  8
WALL_CURTAIN
100
AcDbCircle
 10
19.799999999999997
 20
41.125
 30
0.0
 40
0.425
  0
CIRCLE
  5
1ED
330
17
100
AcDbEntity
  8
WALL_CURTAIN
100
AcDbCircle
 10
19.200000000000003
 20
41.125
 30
0.0
 40
0.425
  0
CIRCLE
  5
1EE
330
17
100
AcDbEntity
  8
WALL_CURTAIN
100
AcDbCircle
 10
18.6
 20
41.125
 30
0.0
 40
0.425
  0
CIRCLE
  5
1EF
330
17
100
AcDbEntity
  8
WALL_CURTAIN
100
AcDbCircle
 10
18.0
 20
41.125
 30
0.0
 40
0.425
  0
CIRCLE
  5
1F0
330
17
100
AcDbEntity
  8
WALL_CURTAIN
100
AcDbCircle
 10
17.4
 20
41.125
 30
0.0
 40
0.425
  0
CIRCLE
  5
1F1
330
17
100
AcDbEntity
  8
WALL_CURTAIN
100
AcDbCircle
 10
16.800000000000004
 20
41.125
 30
0.0
 40
0.425
  0
CIRCLE
  5
1F2
330
17
100
AcDbEntity
  8
WALL_CURTAIN
100
AcDbCircle
 10
16.200000000000003
 20
41.125
 30
0.0
 40
0.425
  0
CIRCLE
  5
1F3
330
17
100
AcDbEntity
  8
WALL_CURTAIN
100
AcDbCircle
 10
15.600000000000001
 20
41.125
 30
0.0
 40
0.425
  0
CIRCLE
  5
1F4
330
17
100
AcDbEntity
  8
WALL_CURTAIN
100
AcDbCircle
 10
15.000000000000002
 20
41.125
 30
0.0
 40
0.425
  0
CIRCLE
  5
1F5
330
17
100
AcDbEntity
  8
WALL_CURTAIN
100
AcDbCircle
 10
14.399999999999999
 20
41.125
 30
0.0
 40
0.425
  0
CIRCLE
  5
1F6
330
17
100
AcDbEntity
  8
WALL_CURTAIN
100
AcDbCircle
 10
13.799999999999999
 20
41.125
 30
0.0
 40
0.425
  0
CIRCLE
  5
1F7
330
17
100
AcDbEntity
  8
WALL_CURTAIN
100
AcDbCircle
 10
13.200000000000003
 20
41.125
 30
0.0
 40
0.425
  0
CIRCLE
  5
1F8
330
17
100
AcDbEntity
  8
WALL_CURTAIN
100
AcDbCircle
 10
12.600000000000003
 20
41.125
 30
0.0
 40
0.425
  0
CIRCLE
  5
1F9
330
17
100
AcDbEntity
  8
WALL_CURTAIN
100
AcDbCircle
 10
12.0
 20
41.125
 30
0.0
 40
0.425
  0
CIRCLE
  5
1FA
330
17
100
AcDbEntity
  8
WALL_CURTAIN
100
AcDbCircle
 10
11.4
 20
41.125
 30
0.0
 40
0.425
  0
CIRCLE
  5
1FB
330
17
100
AcDbEntity
  8
WALL_CURTAIN
100
AcDbCircle
 10
10.800000000000004
 20
41.125
 30
0.0
 40
0.425
  0
CIRCLE
  5
1FC
330
17
100
AcDbEntity
  8
WALL_CURTAIN
100
AcDbCircle
 10
10.200000000000005
 20
41.125
 30
0.0
 40
0.425
  0
CIRCLE
  5
1FD
330
17
100
AcDbEntity
  8
WALL_CURTAIN
100
AcDbCircle
 10
9.600000000000001
 20
41.125
 30
0.0
 40
0.425
  0
CIRCLE
  5
1FE
330
17
100
AcDbEntity
  8
WALL_CURTAIN
100
AcDbCircle
 10
9.000000000000002
 20
41.125
 30
0.0
 40
0.425
  0
CIRCLE
  5
1FF
330
17
100
AcDbEntity
  8
WALL_CURTAIN
100
AcDbCircle
 10
8.399999999999999
 20
41.125
 30
0.0
 40
0.425
  0
CIRCLE
  5
200
330
17
100
AcDbEntity
  8
WALL_CURTAIN
100
AcDbCircle
 10
7.799999999999999
 20
41.125
 30
0.0
 40
0.425
  0
CIRCLE
  5
201
330
17
100
AcDbEntity
  8
WALL_CURTAIN
100
AcDbCircle
 10
7.200000000000003
 20
41.125
 30
0.0
 40
0.425
  0
CIRCLE
  5
202
330
17
100
AcDbEntity
  8
WALL_CURTAIN
100
AcDbCircle
 10
6.600000000000003
 20
41.125
 30
0.0
 40
0.425
  0
CIRCLE
  5
203
330
17
100
AcDbEntity
  8
WALL_CURTAIN
100
AcDbCircle
 10
6.0
 20
41.125
 30
0.0
 40
0.425
  0
CIRCLE
  5
204
330
17
100
AcDbEntity
  8
WALL_CURTAIN
100
AcDbCircle
 10
5.4
 20
41.125
 30
0.0
 40
0.425
  0
CIRCLE
  5
205
330
17
100
AcDbEntity
  8
WALL_CURTAIN
100
AcDbCircle
 10
4.800000000000004
 20
41.125
 30
0.0
 40
0.425
  0
CIRCLE
  5
206
330
17
100
AcDbEntity
  8
WALL_CURTAIN
100
AcDbCircle
 10
4.200000000000005
 20
41.125
 30
0.0
 40
0.425
  0
CIRCLE
  5
207
330
17
100
AcDbEntity
  8
WALL_CURTAIN
100
AcDbCircle
 10
3.6000000000000014
 20
41.125
 30
0.0
 40
0.425
  0
CIRCLE
  5
208
330
17
100
AcDbEntity
  8
WALL_CURTAIN
100
AcDbCircle
 10
3.0000000000000013
 20
41.125
 30
0.0
 40
0.425
  0
CIRCLE
  5
209
330
17
100
AcDbEntity
  8
WALL_CURTAIN
100
AcDbCircle
 10
2.4000000000000057
 20
41.125
 30
0.0
 40
0.425
  0
CIRCLE
  5
20A
330
17
100
AcDbEntity
  8
WALL_CURTAIN
100
AcDbCircle
 10
1.8000000000000056
 20
41.125
 30
0.0
 40
0.425
  0
CIRCLE
  5
20B
330
17
100
AcDbEntity
  8
WALL_CURTAIN
100
AcDbCircle
 10
1.2000000000000028
 20
41.125
 30
0.0
 40
0.425
  0
CIRCLE
  5
20C
330
17
100
AcDbEntity
  8
WALL_CURTAIN
100
AcDbCircle
 10
0.6000000000000029
 20
41.125
 30
0.0
 40
0.425
  0
CIRCLE
  5
20D
330
17
100
AcDbEntity
  8
WALL_CURTAIN
100
AcDbCircle
 10
0.0
 20
41.125
 30
0.0
 40
0.425
  0
CIRCLE
  5
20E
330
17
100
AcDbEntity
  8
WALL_CURTAIN
100
AcDbCircle
 10
-0.6
 20
41.125
 30
0.0
 40
0.425
  0
CIRCLE
  5
20F
330
17
100
AcDbEntity
  8
WALL_CURTAIN
100
AcDbCircle
 10
-1.125
 20
40.6
 30
0.0
 40
0.425
  0
CIRCLE
  5
210
330
17
100
AcDbEntity
  8
WALL_CURTAIN
100
AcDbCircle
 10
-1.125
 20
40.0
 30
0.0
 40
0.425
  0
CIRCLE
  5
211
330
17
100
AcDbEntity
  8
WALL_CURTAIN
100
AcDbCircle
 10
-1.125
 20
39.4
 30
0.0
 40
0.425
  0
CIRCLE
  5
212
330
17
100
AcDbEntity
  8
WALL_CURTAIN
100
AcDbCircle
 10
-1.125
 20
39.38787878787879
 30
0.0
 40
0.425
  0
CIRCLE
  5
213
330
17
100
AcDbEntity
  8
WALL_CURTAIN
100
AcDbCircle
 10
-1.125
 20
38.78787878787879
 30
0.0
 40
0.425
  0
CIRCLE
  5
214
330
17
100
AcDbEntity
  8
WALL_CURTAIN
100
AcDbCircle
 10
-1.125
 20
38.18787878787879
 30
0.0
 40
0.425
  0
CIRCLE
  5
215
330
17
100
AcDbEntity
  8
WALL_CURTAIN
100
AcDbCircle
 10
-1.125
 20
38.17575757575758
 30
0.0
 40
0.425
  0
CIRCLE
  5
216
330
17
100
AcDbEntity
  8
WALL_CURTAIN
100
AcDbCircle
 10
-1.125
 20
37.57575757575758
 30
0.0
 40
0.425
  0
CIRCLE
  5
217
330
17
100
AcDbEntity
  8
WALL_CURTAIN
100
AcDbCircle
 10
-1.125
 20
36.97575757575758
 30
0.0
 40
0.425
  0
CIRCLE
  5
218
330
17
100
AcDbEntity
  8
WALL_CURTAIN
100
AcDbCircle
 10
-1.125
 20
36.96363636363636
 30
0.0
 40
0.425
  0
CIRCLE
  5
219
330
17
100
AcDbEntity
  8
WALL_CURTAIN
100
AcDbCircle
 10
-1.125
 20
36.36363636363636
 30
0.0
 40
0.425
  0
CIRCLE
  5
21A
330
17
100
AcDbEntity
  8
WALL_CURTAIN
100
AcDbCircle
 10
-1.125
 20
35.76363636363636
 30
0.0
 40
0.425
  0
CIRCLE
  5
21B
330
17
100
AcDbEntity
  8
WALL_CURTAIN
100
AcDbCircle
 10
-1.125
 20
35.75151515151515
 30
0.0
 40
0.425
  0
CIRCLE
  5
21C
330
17
100
AcDbEntity
  8
WALL_CURTAIN
100
AcDbCircle
 10
-1.125
 20
35.15151515151515
 30
0.0
 40
0.425
  0
CIRCLE
  5
21D
330
17
100
AcDbEntity
  8
WALL_CURTAIN
100
AcDbCircle
 10
-1.125
 20
34.55151515151515
 30
0.0
 40
0.425
  0
CIRCLE
  5
21E
330
17
100
AcDbEntity
  8
WALL_CURTAIN
100
AcDbCircle
 10
-1.125
 20
34.53939393939394
 30
0.0
 40
0.425
  0
CIRCLE
  5
21F
330
17
100
AcDbEntity
  8
WALL_CURTAIN
100
AcDbCircle
 10
-1.125
 20
33.93939393939394
 30
0.0
 40
0.425
  0
CIRCLE
  5
220
330
17
100
AcDbEntity
  8
WALL_CURTAIN
100
AcDbCircle
 10
-1.125
 20
33.339393939393936
 30
0.0
 40
0.425
  0
CIRCLE
  5
221
330
17
100
AcDbEntity
  8
WALL_CURTAIN
100
AcDbCircle
 10
-1.125
 20
33.32727272727273
 30
0.0
 40
0.425
  0
CIRCLE
  5
222
330
17
100
AcDbEntity
  8
WALL_CURTAIN
100
AcDbCircle
 10
-1.125
 20
32.72727272727273
 30
0.0
 40
0.425
  0
CIRCLE
  5
223
330
17
100
AcDbEntity
  8
WALL_CURTAIN
100
AcDbCircle
 10
-1.125
 20
32.127272727272725
 30
0.0
 40
0.425
  0
CIRCLE
  5
224
330
17
100
AcDbEntity
  8
WALL_CURTAIN
100
AcDbCircle
 10
-1.125
 20
32.11515151515152
 30
0.0
 40
0.425
  0
CIRCLE
  5
225
330
17
100
AcDbEntity
  8
WALL_CURTAIN
100
AcDbCircle
 10
-1.125
 20
31.515151515151516
 30
0.0
 40
0.425
  0
CIRCLE
  5
226
330
17
100
AcDbEntity
  8
WALL_CURTAIN
100
AcDbCircle
 10
-1.125
 20
30.915151515151514
 30
0.0
 40
0.425
  0
CIRCLE
  5
227
330
17
100
AcDbEntity
  8
WALL_CURTAIN
100
AcDbCircle
 10
-1.125
 20
30.903030303030306
 30
0.0
 40
0.425
  0
CIRCLE
  5
228
330
17
100
AcDbEntity
  8
WALL_CURTAIN
100
AcDbCircle
 10
-1.125
 20
30.303030303030305
 30
0.0
 40
0.425
  0
CIRCLE
  5
229
330
17
100
AcDbEntity
  8
WALL_CURTAIN
100
AcDbCircle
 10
-1.125
 20
29.703030303030303
 30
0.0
 40
0.425
  0
CIRCLE
  5
22A
330
17
100
AcDbEntity
  8
WALL_CURTAIN
100
AcDbCircle
 10
-1.125
 20
29.69090909090909
 30
0.0
 40
0.425
  0
CIRCLE
  5
22B
330
17
100
AcDbEntity
  8
WALL_CURTAIN
100
AcDbCircle
 10
-1.125
 20
29.09090909090909
 30
0.0
 40
0.425
  0
CIRCLE
  5
22C
330
17
100
AcDbEntity
  8
WALL_CURTAIN
100
AcDbCircle
 10
-1.125
 20
28.49090909090909
 30
0.0
 40
0.425
  0
CIRCLE
  5
22D
330
17
100
AcDbEntity
  8
WALL_CURTAIN
100
AcDbCircle
 10
-1.125
 20
28.47878787878788
 30
0.0
 40
0.425
  0
CIRCLE
  5
22E
330
17
100
AcDbEntity
  8
WALL_CURTAIN
100
AcDbCircle
 10
-1.125
 20
27.87878787878788
 30
0.0
 40
0.425
  0
CIRCLE
  5
22F
330
17
100
AcDbEntity
  8
WALL_CURTAIN
100
AcDbCircle
 10
-1.125
 20
27.278787878787877
 30
0.0
 40
0.425
  0
CIRCLE
  5
230
330
17
100
AcDbEntity
  8
WALL_CURTAIN
100
AcDbCircle
 10
-1.125
 20
27.266666666666666
 30
0.0
 40
0.425
  0
CIRCLE
  5
231
330
17
100
AcDbEntity
  8
WALL_CURTAIN
100
AcDbCircle
 10
-1.125
 20
26.666666666666664
 30
0.0
 40
0.425
  0
CIRCLE
  5
232
330
17
100
AcDbEntity
  8
WALL_CURTAIN
100
AcDbCircle
 10
-1.125
 20
26.066666666666663
 30
0.0
 40
0.425
  0
CIRCLE
  5
233
330
17
100
AcDbEntity
  8
WALL_CURTAIN
100
AcDbCircle
 10
-1.125
 20
26.054545454545455
 30
0.0
 40
0.425
  0
CIRCLE
  5
234
330
17
100
AcDbEntity
  8
WALL_CURTAIN
100
AcDbCircle
 10
-1.125
 20
25.454545454545453
 30
0.0
 40
0.425
  0
CIRCLE
  5
235
330
17
100
AcDbEntity
  8
WALL_CURTAIN
100
AcDbCircle
 10
-1.125
 20
24.854545454545452
 30
0.0
 40
0.425
  0
CIRCLE
  5
236
330
17
100
AcDbEntity
  8
WALL_CURTAIN
100
AcDbCircle
 10
-1.125
 20
24.842424242424244
 30
0.0
 40
0.425
  0
CIRCLE
  5
237
330
17
100
AcDbEntity
  8
WALL_CURTAIN
100
AcDbCircle
 10
-1.125
 20
24.242424242424242
 30
0.0
 40
0.425
  0
CIRCLE
  5
238
330
17
100
AcDbEntity
  8
WALL_CURTAIN
100
AcDbCircle
 10
-1.125
 20
23.64242424242424
 30
0.0
 40
0.425
  0
CIRCLE
  5
239
330
17
100
AcDbEntity
  8
WALL_CURTAIN
100
AcDbCircle
 10
-1.125
 20
23.630303030303033
 30
0.0
 40
0.425
  0
CIRCLE
  5
23A
330
17
100
AcDbEntity
  8
WALL_CURTAIN
100
AcDbCircle
 10
-1.125
 20
23.03030303030303
 30
0.0
 40
0.425
  0
CIRCLE
  5
23B
330
17
100
AcDbEntity
  8
WALL_CURTAIN
100
AcDbCircle
 10
-1.125
 20
22.43030303030303
 30
0.0
 40
0.425
  0
CIRCLE
  5
23C
330
17
100
AcDbEntity
  8
WALL_CURTAIN
100
AcDbCircle
 10
-1.125
 20
22.418181818181818
 30
0.0
 40
0.425
  0
CIRCLE
  5
23D
330
17
100
AcDbEntity
  8
WALL_CURTAIN
100
AcDbCircle
 10
-1.125
 20
21.818181818181817
 30
0.0
 40
0.425
  0
CIRCLE
  5
23E
330
17
100
AcDbEntity
  8
WALL_CURTAIN
100
AcDbCircle
 10
-1.125
 20
21.218181818181815
 30
0.0
 40
0.425
  0
CIRCLE
  5
23F
330
17
100
AcDbEntity
  8
WALL_CURTAIN
100
AcDbCircle
 10
-1.125
 20
21.206060606060607
 30
0.0
 40
0.425
  0
CIRCLE
  5
240
330
17
100
AcDbEntity
  8
WALL_CURTAIN
100
AcDbCircle
 10
-1.125
 20
20.606060606060606
 30
0.0
 40
0.425
  0
CIRCLE
  5
241
330
17
100
AcDbEntity
  8
WALL_CURTAIN
100
AcDbCircle
 10
-1.125
 20
20.006060606060604
 30
0.0
 40
0.425
  0
CIRCLE
  5
242
330
17
100
AcDbEntity
  8
WALL_CURTAIN
100
AcDbCircle
 10
-1.125
 20
19.993939393939396
 30
0.0
 40
0.425
  0
CIRCLE
  5
243
330
17
100
AcDbEntity
  8
WALL_CURTAIN
100
AcDbCircle
 10
-1.125
 20
19.393939393939394
 30
0.0
 40
0.425
  0
CIRCLE
  5
244
330
17
100
AcDbEntity
  8
WALL_CURTAIN
100
AcDbCircle
 10
-1.125
 20
18.793939393939393
 30
0.0
 40
0.425
  0
CIRCLE
  5
245
330
17
100
AcDbEntity
  8
WALL_CURTAIN
100
AcDbCircle
 10
-1.125
 20
18.78181818181818
 30
0.0
 40
0.425
  0
CIRCLE
  5
246
330
17
100
AcDbEntity
  8
WALL_CURTAIN
100
AcDbCircle
 10
-1.125
 20
18.18181818181818
 30
0.0
 40
0.425
  0
CIRCLE
  5
247
330
17
100
AcDbEntity
  8
WALL_CURTAIN
100
AcDbCircle
 10
-1.125
 20
17.58181818181818
 30
0.0
 40
0.425
  0
CIRCLE
  5
248
330
17
100
AcDbEntity
  8
WALL_CURTAIN
100
AcDbCircle
 10
-1.125
 20
17.56969696969697
 30
0.0
 40
0.425
  0
CIRCLE
  5
249
330
17
100
AcDbEntity
  8
WALL_CURTAIN
100
AcDbCircle
 10
-1.125
 20
16.96969696969697
 30
0.0
 40
0.425
  0
CIRCLE
  5
24A
330
17
100
AcDbEntity
  8
WALL_CURTAIN
100
AcDbCircle
 10
-1.125
 20
16.369696969696967
 30
0.0
 40
0.425
  0
CIRCLE
  5
24B
330
17
100
AcDbEntity
  8
WALL_CURTAIN
100
AcDbCircle
 10
-1.125
 20
16.35757575757576
 30
0.0
 40
0.425
  0
CIRCLE
  5
24C
330
17
100
AcDbEntity
  8
WALL_CURTAIN
100
AcDbCircle
 10
-1.125
 20
15.757575757575758
 30
0.0
 40
0.425
  0
CIRCLE
  5
24D
330
17
100
AcDbEntity
  8
WALL_CURTAIN
100
AcDbCircle
 10
-1.125
 20
15.157575757575758
 30
0.0
 40
0.425
  0
CIRCLE
  5
24E
330
17
100
AcDbEntity
  8
WALL_CURTAIN
100
AcDbCircle
 10
-1.125
 20
15.145454545454543
 30
0.0
 40
0.425
  0
CIRCLE
  5
24F
330
17
100
AcDbEntity
  8
WALL_CURTAIN
100
AcDbCircle
 10
-1.125
 20
14.545454545454543
 30
0.0
 40
0.425
  0
CIRCLE
  5
250
330
17
100
AcDbEntity
  8
WALL_CURTAIN
100
AcDbCircle
 10
-1.125
 20
13.945454545454544
 30
0.0
 40
0.425
  0
CIRCLE
  5
251
330
17
100
AcDbEntity
  8
WALL_CURTAIN
100
AcDbCircle
 10
-1.125
 20
13.933333333333332
 30
0.0
 40
0.425
  0
CIRCLE
  5
252
330
17
100
AcDbEntity
  8
WALL_CURTAIN
100
AcDbCircle
 10
-1.125
 20
13.333333333333332
 30
0.0
 40
0.425
  0
CIRCLE
  5
253
330
17
100
AcDbEntity
  8
WALL_CURTAIN
100
AcDbCircle
 10
-1.125
 20
12.733333333333333
 30
0.0
 40
0.425
  0
CIRCLE
  5
254
330
17
100
AcDbEntity
  8
WALL_CURTAIN
100
AcDbCircle
 10
-1.125
 20
12.72121212121212
 30
0.0
 40
0.425
  0
CIRCLE
  5
255
330
17
100
AcDbEntity
  8
WALL_CURTAIN
100
AcDbCircle
 10
-1.125
 20
12.121212121212121
 30
0.0
 40
0.425
  0
CIRCLE
  5
256
330
17
100
AcDbEntity
  8
WALL_CURTAIN
100
AcDbCircle
 10
-1.125
 20
11.521212121212121
 30
0.0
 40
0.425
  0
CIRCLE
  5
257
330
17
100
AcDbEntity
  8
WALL_CURTAIN
100
AcDbCircle
 10
-1.125
 20
11.509090909090906
 30
0.0
 40
0.425
  0
CIRCLE
  5
258
330
17
100
AcDbEntity
  8
WALL_CURTAIN
100
AcDbCircle
 10
-1.125
 20
10.909090909090907
 30
0.0
 40
0.425
  0
CIRCLE
  5
259
330
17
100
AcDbEntity
  8
WALL_CURTAIN
100
AcDbCircle
 10
-1.125
 20
10.309090909090907
 30
0.0
 40
0.425
  0
CIRCLE
  5
25A
330
17
100
AcDbEntity
  8
WALL_CURTAIN
100
AcDbCircle
 10
-1.125
 20
10.296969696969695
 30
0.0
 40
0.425
  0
CIRCLE
  5
25B
330
17
100
AcDbEntity
  8
WALL_CURTAIN
100
AcDbCircle
 10
-1.125
 20
9.696969696969695
 30
0.0
 40
0.425
  0
CIRCLE
  5
25C
330
17
100
AcDbEntity
  8
WALL_CURTAIN
100
AcDbCircle
 10
-1.125
 20
9.096969696969696
 30
0.0
 40
0.425
  0
CIRCLE
  5
25D
330
17
100
AcDbEntity
  8
WALL_CURTAIN
100
AcDbCircle
 10
-1.125
 20
9.084848484848484
 30
0.0
 40
0.425
  0
CIRCLE
  5
25E
330
17
100
AcDbEntity
  8
WALL_CURTAIN
100
AcDbCircle
 10
-1.125
 20
8.484848484848484
 30
0.0
 40
0.425
  0
CIRCLE
  5
25F
330
17
100
AcDbEntity
  8
WALL_CURTAIN
100
AcDbCircle
 10
-1.125
 20
7.884848484848485
 30
0.0
 40
0.425
  0
CIRCLE
  5
260
330
17
100
AcDbEntity
  8
WALL_CURTAIN
100
AcDbCircle
 10
-1.125
 20
7.872727272727273
 30
0.0
 40
0.425
  0
CIRCLE
  5
261
330
17
100
AcDbEntity
  8
WALL_CURTAIN
100
AcDbCircle
 10
-1.125
 20
7.272727272727273
 30
0.0
 40
0.425
  0
CIRCLE
  5
262
330
17
100
AcDbEntity
  8
WALL_CURTAIN
100
AcDbCircle
 10
-1.125
 20
6.672727272727274
 30
0.0
 40
0.425
  0
CIRCLE
  5
263
330
17
100
AcDbEntity
  8
WALL_CURTAIN
100
AcDbCircle
 10
-1.125
 20
6.660606060606062
 30
0.0
 40
0.425
  0
CIRCLE
  5
264
330
17
100
AcDbEntity
  8
WALL_CURTAIN
100
AcDbCircle
 10
-1.125
 20
6.060606060606062
 30
0.0
 40
0.425
  0
CIRCLE
  5
265
330
17
100
AcDbEntity
  8
WALL_CURTAIN
100
AcDbCircle
 10
-1.125
 20
5.460606060606063
 30
0.0
 40
0.425
  0
CIRCLE
  5
266
330
17
100
AcDbEntity
  8
WALL_CURTAIN
100
AcDbCircle
 10
-1.125
 20
5.448484848484844
 30
0.0
 40
0.425
  0
CIRCLE
  5
267
330
17
100
AcDbEntity
  8
WALL_CURTAIN
100
AcDbCircle
 10
-1.125
 20
4.848484848484844
 30
0.0
 40
0.425
  0
CIRCLE
  5
268
330
17
100
AcDbEntity
  8
WALL_CURTAIN
100
AcDbCircle
 10
-1.125
 20
4.2484848484848445
 30
0.0
 40
0.425
  0
CIRCLE
  5
269
330
17
100
AcDbEntity
  8
WALL_CURTAIN
100
AcDbCircle
 10
-1.125
 20
4.236363636363633
 30
0.0
 40
0.425
  0
CIRCLE
  5
26A
330
17
100
AcDbEntity
  8
WALL_CURTAIN
100
AcDbCircle
 10
-1.125
 20
3.636363636363633
 30
0.0
 40
0.425
  0
CIRCLE
  5
26B
330
17
100
AcDbEntity
  8
WALL_CURTAIN
100
AcDbCircle
 10
-1.125
 20
3.036363636363633
 30
0.0
 40
0.425
  0
CIRCLE
  5
26C
330
17
100
AcDbEntity
  8
WALL_CURTAIN
100
AcDbCircle
 10
-1.125
 20
3.024242424242422
 30
0.0
 40
0.425
  0
CIRCLE
  5
26D
330
17
100
AcDbEntity
  8
WALL_CURTAIN
100
AcDbCircle
 10
-1.125
 20
2.424242424242422
 30
0.0
 40
0.425
  0
CIRCLE
  5
26E
330
17
100
AcDbEntity
  8
WALL_CURTAIN
100
AcDbCircle
 10
-1.125
 20
1.824242424242422
 30
0.0
 40
0.425
  0
CIRCLE
  5
26F
330
17
100
AcDbEntity
  8
WALL_CURTAIN
100
AcDbCircle
 10
-1.125
 20
1.8121212121212111
 30
0.0
 40
0.425
  0
CIRCLE
  5
270
330
17
100
AcDbEntity
  8
WALL_CURTAIN
100
AcDbCircle
 10
-1.125
 20
1.212121212121211
 30
0.0
 40
0.425
  0
CIRCLE
  5
271
330
17
100
AcDbEntity
  8
WALL_CURTAIN
100
AcDbCircle
 10
-1.125
 20
0.6121212121212111
 30
0.0
 40
0.425
  0
CIRCLE
  5
272
330
17
100
AcDbEntity
  8
WALL_CURTAIN
100
AcDbCircle
 10
-1.125
 20
0.6
 30
0.0
 40
0.425
  0
CIRCLE
  5
273
330
17
100
AcDbEntity
  8
WALL_CURTAIN
100
AcDbCircle
 10
-1.125
 20
0.0
 30
0.0
 40
0.425
  0
CIRCLE
  5
274
330
17
100
AcDbEntity
  8
WALL_CURTAIN
100
AcDbCircle
 10
-1.125
 20
-0.6
 30
0.0
 40
0.425
  0
ENDSEC
  0
SECTION
  2
OBJECTS
  0
DICTIONARY
  5
A
330
0
100
AcDbDictionary
281
1
  3
ACAD_COLOR
350
B
  3
ACAD_GROUP
350
C
  3
ACAD_LAYOUT
350
D
  3
ACAD_MATERIAL
350
E
  3
ACAD_MLEADERSTYLE
350
F
  3
ACAD_MLINESTYLE
350
10
  3
ACAD_PLOTSETTINGS
350
11
  3
ACAD_PLOTSTYLENAME
350
12
  3
ACAD_SCALELIST
350
14
  3
ACAD_TABLESTYLE
350
15
  3
ACAD_VISUALSTYLE
350
16
  3
EZDXF_META
350
2D
  0
DICTIONARY
  5
B
330
A
100
AcDbDictionary
281
1
  0
DICTIONARY
  5
C
330
A
100
AcDbDictionary
281
1
  0
DICTIONARY
  5
D
330
A
100
AcDbDictionary
281
1
  3
Model
350
1A
  3
Layout1
350
1E
  0
DICTIONARY
  5
E
330
A
100
AcDbDictionary
281
1
  3
ByBlock
350
1F
  3
ByLayer
350
20
  3
Global
350
21
  0
DICTIONARY
  5
F
330
A
100
AcDbDictionary
281
1
  3
Standard
350
2C
  0
DICTIONARY
  5
10
330
A
100
AcDbDictionary
281
1
  3
Standard
350
22
  0
DICTIONARY
  5
11
330
A
100
AcDbDictionary
281
1
  0
ACDBDICTIONARYWDFLT
  5
12
330
A
100
AcDbDictionary
281
1
  3
Normal
350
13
100
AcDbDictionaryWithDefault
340
13
  0
ACDBPLACEHOLDER
  5
13
330
12
  0
DICTIONARY
  5
14
330
A
100
AcDbDictionary
281
1
  0
DICTIONARY
  5
15
330
A
100
AcDbDictionary
281
1
  0
DICTIONARY
  5
16
330
A
100
AcDbDictionary
281
1
  0
LAYOUT
  5
1A
330
D
100
AcDbPlotSettings
  1

  4
A3
  6

 40
7.5
 41
20.0
 42
7.5
 43
20.0
 44
420.0
 45
297.0
 46
0.0
 47
0.0
 48
0.0
 49
0.0
140
0.0
141
0.0
142
1.0
143
1.0
 70
1024
 72
1
 73
0
 74
5
  7

 75
16
 76
0
 77
2
 78
300
147
1.0
148
0.0
149
0.0
100
AcDbLayout
  1
Model
 70
1
 71
0
 10
0.0
 20
0.0
 11
420.0
 21
297.0
 12
0.0
 22
0.0
 32
0.0
 14
1e+20
 24
1e+20
 34
1e+20
 15
-1e+20
 25
-1e+20
 35
-1e+20
146
0.0
 13
0.0
 23
0.0
 33
0.0
 16
1.0
 26
0.0
 36
0.0
 17
0.0
 27
1.0
 37
0.0
 76
1
330
17
  0
LAYOUT
  5
1E
330
D
100
AcDbPlotSettings
  1

  4
A3
  6

 40
7.5
 41
20.0
 42
7.5
 43
20.0
 44
420.0
 45
297.0
 46
0.0
 47
0.0
 48
0.0
 49
0.0
140
0.0
141
0.0
142
1.0
143
1.0
 70
0
 72
1
 73
0
 74
5
  7

 75
16
 76
0
 77
2
 78
300
147
1.0
148
0.0
149
0.0
100
AcDbLayout
  1
Layout1
 70
1
 71
1
 10
0.0
 20
0.0
 11
420.0
 21
297.0
 12
0.0
 22
0.0
 32
0.0
 14
1e+20
 24
1e+20
 34
1e+20
 15
-1e+20
 25
-1e+20
 35
-1e+20
146
0.0
 13
0.0
 23
0.0
 33
0.0
 16
1.0
 26
0.0
 36
0.0
 17
0.0
 27
1.0
 37
0.0
 76
1
330
1B
  0
MATERIAL
  5
1F
102
{ACAD_REACTORS
330
E
102
}
330
E
100
AcDbMaterial
  1
ByBlock
  2

 70
0
 40
1.0
 71
1
 41
1.0
 91
-1023410177
 42
1.0
 72
1
  3

 73
1
 74
1
 75
1
 44
0.5
 73
0
 45
1.0
 46
1.0
 77
1
  4

 78
1
 79
1
170
1
 48
1.0
171
1
  6

172
1
173
1
174
1
140
1.0
141
1.0
175
1
  7

176
1
177
1
178
1
143
1.0
179
1
  8

270
1
271
1
272
1
145
1.0
146
1.0
273
1
  9

274
1
275
1
276
1
 42
1.0
 72
1
  3

 73
1
 74
1
 75
1
 94
63
  0
MATERIAL
  5
20
102
{ACAD_REACTORS
330
E
102
}
330
E
100
AcDbMaterial
  1
ByLayer
  2

 70
0
 40
1.0
 71
1
 41
1.0
 91
-1023410177
 42
1.0
 72
1
  3

 73
1
 74
1
 75
1
 44
0.5
 73
0
 45
1.0
 46
1.0
 77
1
  4

 78
1
 79
1
170
1
 48
1.0
171
1
  6

172
1
173
1
174
1
140
1.0
141
1.0
175
1
  7

176
1
177
1
178
1
143
1.0
179
1
  8

270
1
271
1
272
1
145
1.0
146
1.0
273
1
  9

274
1
275
1
276
1
 42
1.0
 72
1
  3

 73
1
 74
1
 75
1
 94
63
  0
MATERIAL
  5
21
102
{ACAD_REACTORS
330
E
102
}
330
E
100
AcDbMaterial
  1
Global
  2

 70
0
 40
1.0
 71
1
 41
1.0
 91
-1023410177
 42
1.0
 72
1
  3

 73
1
 74
1
 75
1
 44
0.5
 73
0
 45
1.0
 46
1.0
 77
1
  4

 78
1
 79
1
170
1
 48
1.0
171
1
  6

172
1
173
1
174
1
140
1.0
141
1.0
175
1
  7

176
1
177
1
178
1
143
1.0
179
1
  8

270
1
271
1
272
1
145
1.0
146
1.0
273
1
  9

274
1
275
1
276
1
 42
1.0
 72
1
  3

 73
1
 74
1
 75
1
 94
63
  0
MLINESTYLE
  5
22
102
{ACAD_REACTORS
330
10
102
}
330
10
100
AcDbMlineStyle
  2
Standard
 70
0
  3

 62
256
 51
90.0
 52
90.0
 71
2
 49
0.5
 62
256
  6
BYLAYER
 49
-0.5
 62
256
  6
BYLAYER
  0
MLEADERSTYLE
  5
2C
102
{ACAD_REACTORS
330
F
102
}
330
F
100
AcDbMLeaderStyle
179
2
170
2
171
1
172
0
 90
2
 40
0.0
 41
0.0
173
1
 91
-1056964608
 92
-2
290
1
 42
2.0
291
1
 43
8.0
  3
Standard
 44
4.0
300

342
29
174
1
175
1
176
0
178
1
 93
-1056964608
 45
4.0
292
0
297
0
 46
4.0
 94
-1056964608
 47
1.0
 49
1.0
140
1.0
294
1
141
0.0
177
0
142
1.0
295
0
296
0
143
3.75
271
0
272
9
273
9
  0
DICTIONARY
  5
2D
330
A
100
AcDbDictionary
280
1
281
1
  3
CREATED_BY_EZDXF
350
2E
  3
WRITTEN_BY_EZDXF
350
277
  0
DICTIONARYVAR
  5
2E
330
2D
100
DictionaryVariables
280
0
  1
1.4.3 @ 2026-06-18T05:30:25.973676+00:00
  0
DICTIONARYVAR
  5
277
330
2D
100
DictionaryVariables
280
0
  1
1.4.3 @ 2026-06-18T05:30:25.992957+00:00
  0
ENDSEC
  0
EOF
