  0
SECTION
  2
HEADER
  9
$ACADVER
  1
AC1024
  9
$ACADMAINTVER
 70
6
  9
$DWGCODEPAGE
  3
ANSI_1252
  9
$LASTSAVEDBY
  1
ezdxf
  9
$INSBASE
 10
0.0
 20
0.0
 30
0.0
  9
$EXTMIN
 10
1e+20
 20
1e+20
 30
1e+20
  9
$EXTMAX
 10
-1e+20
 20
-1e+20
 30
-1e+20
  9
$LIMMIN
 10
0.0
 20
0.0
  9
$LIMMAX
 10
420.0
 20
297.0
  9
$ORTHOMODE
 70
0
  9
$REGENMODE
 70
1
  9
$FILLMODE
 70
1
  9
$QTEXTMODE
 70
0
  9
$MIRRTEXT
 70
1
  9
$LTSCALE
 40
1.0
  9
$ATTMODE
 70
1
  9
$TEXTSIZE
 40
2.5
  9
$TRACEWID
 40
1.0
  9
$TEXTSTYLE
  7
Standard
  9
$CLAYER
  8
0
  9
$CELTYPE
  6
ByLayer
  9
$CECOLOR
 62
256
  9
$CELTSCALE
 40
1.0
  9
$DISPSILH
 70
0
  9
$DIMSCALE
 40
1.0
  9
$DIMASZ
 40
2.5
  9
$DIMEXO
 40
0.625
  9
$DIMDLI
 40
3.75
  9
$DIMRND
 40
0.0
  9
$DIMDLE
 40
0.0
  9
$DIMEXE
 40
1.25
  9
$DIMTP
 40
0.0
  9
$DIMTM
 40
0.0
  9
$DIMTXT
 40
2.5
  9
$DIMCEN
 40
2.5
  9
$DIMTSZ
 40
0.0
  9
$DIMTOL
 70
0
  9
$DIMLIM
 70
0
  9
$DIMTIH
 70
0
  9
$DIMTOH
 70
0
  9
$DIMSE1
 70
0
  9
$DIMSE2
 70
0
  9
$DIMTAD
 70
1
  9
$DIMZIN
 70
8
  9
$DIMBLK
  1

  9
$DIMASO
 70
1
  9
$DIMSHO
 70
1
  9
$DIMPOST
  1

  9
$DIMAPOST
  1

  9
$DIMALT
 70
0
  9
$DIMALTD
 70
3
  9
$DIMALTF
 40
0.03937007874
  9
$DIMLFAC
 40
1.0
  9
$DIMTOFL
 70
1
  9
$DIMTVP
 40
0.0
  9
$DIMTIX
 70
0
  9
$DIMSOXD
 70
0
  9
$DIMSAH
 70
0
  9
$DIMBLK1
  1

  9
$DIMBLK2
  1

  9
$DIMSTYLE
  2
ISO-25
  9
$DIMCLRD
 70
0
  9
$DIMCLRE
 70
0
  9
$DIMCLRT
 70
0
  9
$DIMTFAC
 40
1.0
  9
$DIMGAP
 40
0.625
  9
$DIMJUST
 70
0
  9
$DIMSD1
 70
0
  9
$DIMSD2
 70
0
  9
$DIMTOLJ
 70
0
  9
$DIMTZIN
 70
8
  9
$DIMALTZ
 70
0
  9
$DIMALTTZ
 70
0
  9
$DIMUPT
 70
0
  9
$DIMDEC
 70
2
  9
$DIMTDEC
 70
2
  9
$DIMALTU
 70
2
  9
$DIMALTTD
 70
3
  9
$DIMTXSTY
  7
Standard
  9
$DIMAUNIT
 70
0
  9
$DIMADEC
 70
0
  9
$DIMALTRND
 40
0.0
  9
$DIMAZIN
 70
0
  9
$DIMDSEP
 70
44
  9
$DIMATFIT
 70
3
  9
$DIMFRAC
 70
0
  9
$DIMLDRBLK
  1

  9
$DIMLUNIT
 70
2
  9
$DIMLWD
 70
-2
  9
$DIMLWE
 70
-2
  9
$DIMTMOVE
 70
0
  9
$DIMFXL
 40
1.0
  9
$DIMFXLON
 70
0
  9
$DIMJOGANG
 40
0.785398163397
  9
$DIMTFILL
 70
0
  9
$DIMTFILLCLR
 70
0
  9
$DIMARCSYM
 70
0
  9
$DIMLTYPE
  6

  9
$DIMLTEX1
  6

  9
$DIMLTEX2
  6

  9
$DIMTXTDIRECTION
 70
0
  9
$LUNITS
 70
2
  9
$LUPREC
 70
4
  9
$SKETCHINC
 40
1.0
  9
$FILLETRAD
 40
10.0
  9
$AUNITS
 70
0
  9
$AUPREC
 70
2
  9
$MENU
  1
.
  9
$ELEVATION
 40
0.0
  9
$PELEVATION
 40
0.0
  9
$THICKNESS
 40
0.0
  9
$LIMCHECK
 70
0
  9
$CHAMFERA
 40
0.0
  9
$CHAMFERB
 40
0.0
  9
$CHAMFERC
 40
0.0
  9
$CHAMFERD
 40
0.0
  9
$SKPOLY
 70
0
  9
$TDCREATE
 40
2461210.4072569446
  9
$TDUCREATE
 40
2458532.153996898
  9
$TDUPDATE
 40
2461210.4072569446
  9
$TDUUPDATE
 40
2458532.1544311
  9
$TDINDWG
 40
0.0
  9
$TDUSRTIMER
 40
0.0
  9
$USRTIMER
 70
1
  9
$ANGBASE
 50
0.0
  9
$ANGDIR
 70
0
  9
$PDMODE
 70
0
  9
$PDSIZE
 40
0.0
  9
$PLINEWID
 40
0.0
  9
$SPLFRAME
 70
0
  9
$SPLINETYPE
 70
6
  9
$SPLINESEGS
 70
8
  9
$HANDSEED
  5
13E
  9
$SURFTAB1
 70
6
  9
$SURFTAB2
 70
6
  9
$SURFTYPE
 70
6
  9
$SURFU
 70
6
  9
$SURFV
 70
6
  9
$UCSBASE
  2

  9
$UCSNAME
  2

  9
$UCSORG
 10
0.0
 20
0.0
 30
0.0
  9
$UCSXDIR
 10
1.0
 20
0.0
 30
0.0
  9
$UCSYDIR
 10
0.0
 20
1.0
 30
0.0
  9
$UCSORTHOREF
  2

  9
$UCSORTHOVIEW
 70
0
  9
$UCSORGTOP
 10
0.0
 20
0.0
 30
0.0
  9
$UCSORGBOTTOM
 10
0.0
 20
0.0
 30
0.0
  9
$UCSORGLEFT
 10
0.0
 20
0.0
 30
0.0
  9
$UCSORGRIGHT
 10
0.0
 20
0.0
 30
0.0
  9
$UCSORGFRONT
 10
0.0
 20
0.0
 30
0.0
  9
$UCSORGBACK
 10
0.0
 20
0.0
 30
0.0
  9
$PUCSBASE
  2

  9
$PUCSNAME
  2

  9
$PUCSORG
 10
0.0
 20
0.0
 30
0.0
  9
$PUCSXDIR
 10
1.0
 20
0.0
 30
0.0
  9
$PUCSYDIR
 10
0.0
 20
1.0
 30
0.0
  9
$PUCSORTHOREF
  2

  9
$PUCSORTHOVIEW
 70
0
  9
$PUCSORGTOP
 10
0.0
 20
0.0
 30
0.0
  9
$PUCSORGBOTTOM
 10
0.0
 20
0.0
 30
0.0
  9
$PUCSORGLEFT
 10
0.0
 20
0.0
 30
0.0
  9
$PUCSORGRIGHT
 10
0.0
 20
0.0
 30
0.0
  9
$PUCSORGFRONT
 10
0.0
 20
0.0
 30
0.0
  9
$PUCSORGBACK
 10
0.0
 20
0.0
 30
0.0
  9
$USERI1
 70
0
  9
$USERI2
 70
0
  9
$USERI3
 70
0
  9
$USERI4
 70
0
  9
$USERI5
 70
0
  9
$USERR1
 40
0.0
  9
$USERR2
 40
0.0
  9
$USERR3
 40
0.0
  9
$USERR4
 40
0.0
  9
$USERR5
 40
0.0
  9
$WORLDVIEW
 70
1
  9
$SHADEDGE
 70
3
  9
$SHADEDIF
 70
70
  9
$TILEMODE
 70
1
  9
$MAXACTVP
 70
64
  9
$PINSBASE
 10
0.0
 20
0.0
 30
0.0
  9
$PLIMCHECK
 70
0
  9
$PEXTMIN
 10
1e+20
 20
1e+20
 30
1e+20
  9
$PEXTMAX
 10
-1e+20
 20
-1e+20
 30
-1e+20
  9
$PLIMMIN
 10
0.0
 20
0.0
  9
$PLIMMAX
 10
420.0
 20
297.0
  9
$UNITMODE
 70
0
  9
$VISRETAIN
 70
1
  9
$PLINEGEN
 70
0
  9
$PSLTSCALE
 70
1
  9
$TREEDEPTH
 70
3020
  9
$CMLSTYLE
  2
Standard
  9
$CMLJUST
 70
0
  9
$CMLSCALE
 40
20.0
  9
$PROXYGRAPHICS
 70
1
  9
$MEASUREMENT
 70
1
  9
$CELWEIGHT
370
-1
  9
$ENDCAPS
280
0
  9
$JOINSTYLE
280
0
  9
$LWDISPLAY
290
0
  9
$INSUNITS
 70
6
  9
$HYPERLINKBASE
  1

  9
$STYLESHEET
  1

  9
$XEDIT
290
1
  9
$CEPSNTYPE
380
0
  9
$PSTYLEMODE
290
1
  9
$FINGERPRINTGUID
  2
{02CE5CBD-D6A1-4B3F-8C9F-DCEDFE40349B}
  9
$VERSIONGUID
  2
{2CC5424C-2CFF-4BA0-9155-29A16F5DDA79}
  9
$EXTNAMES
290
1
  9
$PSVPSCALE
 40
0.0
  9
$OLESTARTUP
290
0
  9
$SORTENTS
280
127
  9
$INDEXCTL
280
0
  9
$HIDETEXT
280
1
  9
$XCLIPFRAME
280
1
  9
$HALOGAP
280
0
  9
$OBSCOLOR
 70
257
  9
$OBSLTYPE
280
0
  9
$INTERSECTIONDISPLAY
280
0
  9
$INTERSECTIONCOLOR
 70
257
  9
$DIMASSOC
280
2
  9
$PROJECTNAME
  1

  9
$CAMERADISPLAY
290
0
  9
$LENSLENGTH
 40
50.0
  9
$CAMERAHEIGHT
 40
0.0
  9
$STEPSPERSEC
 40
24.0
  9
$STEPSIZE
 40
100.0
  9
$3DDWFPREC
 40
2.0
  9
$PSOLWIDTH
 40
0.005
  9
$PSOLHEIGHT
 40
0.08
  9
$LOFTANG1
 40
1.570796326795
  9
$LOFTANG2
 40
1.570796326795
  9
$LOFTMAG1
 40
0.0
  9
$LOFTMAG2
 40
0.0
  9
$LOFTPARAM
 70
7
  9
$LOFTNORMALS
280
1
  9
$LATITUDE
 40
37.795
  9
$LONGITUDE
 40
-122.394
  9
$NORTHDIRECTION
 40
0.0
  9
$TIMEZONE
 70
-8000
  9
$LIGHTGLYPHDISPLAY
280
1
  9
$TILEMODELIGHTSYNCH
280
1
  9
$CMATERIAL
347
20
  9
$SOLIDHIST
280
0
  9
$SHOWHIST
280
1
  9
$DWFFRAME
280
2
  9
$DGNFRAME
280
2
  9
$REALWORLDSCALE
290
1
  9
$INTERFERECOLOR
 62
256
  9
$CSHADOW
280
0
  9
$SHADOWPLANELOCATION
 40
0.0
  0
ENDSEC
  0
SECTION
  2
CLASSES
  0
CLASS
  1
ACDBDICTIONARYWDFLT
  2
AcDbDictionaryWithDefault
  3
ObjectDBX Classes
 90
0
 91
0
280
0
281
0
  0
CLASS
  1
SUN
  2
AcDbSun
  3
SCENEOE
 90
1153
 91
0
280
0
281
0
  0
CLASS
  1
VISUALSTYLE
  2
AcDbVisualStyle
  3
ObjectDBX Classes
 90
4095
 91
0
280
0
281
0
  0
CLASS
  1
MATERIAL
  2
AcDbMaterial
  3
ObjectDBX Classes
 90
1153
 91
0
280
0
281
0
  0
CLASS
  1
SCALE
  2
AcDbScale
  3
ObjectDBX Classes
 90
1153
 91
0
280
0
281
0
  0
CLASS
  1
TABLESTYLE
  2
AcDbTableStyle
  3
ObjectDBX Classes
 90
4095
 91
0
280
0
281
0
  0
CLASS
  1
MLEADERSTYLE
  2
AcDbMLeaderStyle
  3
ACDB_MLEADERSTYLE_CLASS
 90
4095
 91
0
280
0
281
0
  0
CLASS
  1
DICTIONARYVAR
  2
AcDbDictionaryVar
  3
ObjectDBX Classes
 90
0
 91
0
280
0
281
0
  0
CLASS
  1
CELLSTYLEMAP
  2
AcDbCellStyleMap
  3
ObjectDBX Classes
 90
1152
 91
0
280
0
281
0
  0
CLASS
  1
MENTALRAYRENDERSETTINGS
  2
AcDbMentalRayRenderSettings
  3
SCENEOE
 90
1024
 91
0
280
0
281
0
  0
CLASS
  1
ACDBDETAILVIEWSTYLE
  2
AcDbDetailViewStyle
  3
ObjectDBX Classes
 90
1025
 91
0
280
0
281
0
  0
CLASS
  1
ACDBSECTIONVIEWSTYLE
  2
AcDbSectionViewStyle
  3
ObjectDBX Classes
 90
1025
 91
0
280
0
281
0
  0
CLASS
  1
RASTERVARIABLES
  2
AcDbRasterVariables
  3
ISM
 90
0
 91
0
280
0
281
0
  0
CLASS
  1
ACDBPLACEHOLDER
  2
AcDbPlaceHolder
  3
ObjectDBX Classes
 90
0
 91
0
280
0
281
0
  0
CLASS
  1
LAYOUT
  2
AcDbLayout
  3
ObjectDBX Classes
 90
0
 91
0
280
0
281
0
  0
ENDSEC
  0
SECTION
  2
TABLES
  0
TABLE
  2
VPORT
  5
8
330
0
100
AcDbSymbolTable
 70
1
  0
VPORT
  5
23
330
8
100
AcDbSymbolTableRecord
100
AcDbViewportTableRecord
  2
*Active
 70
0
 10
0.0
 20
0.0
 11
1.0
 21
1.0
 12
0.0
 22
0.0
 13
0.0
 23
0.0
 14
0.5
 24
0.5
 15
0.5
 25
0.5
 16
0.0
 26
0.0
 36
1.0
 17
0.0
 27
0.0
 37
0.0
 40
1000.0
 41
1.34
 42
50.0
 43
0.0
 44
0.0
 50
0.0
 51
0.0
 71
0
 72
1000
 73
1
 74
3
 75
0
 76
0
 77
0
 78
0
281
0
 65
0
146
0.0
  0
ENDTAB
  0
TABLE
  2
LTYPE
  5
2
330
0
100
AcDbSymbolTable
 70
3
  0
LTYPE
  5
24
330
2
100
AcDbSymbolTableRecord
100
AcDbLinetypeTableRecord
  2
ByBlock
 70
0
  3

 72
65
 73
0
 40
0.0
  0
LTYPE
  5
25
330
2
100
AcDbSymbolTableRecord
100
AcDbLinetypeTableRecord
  2
ByLayer
 70
0
  3

 72
65
 73
0
 40
0.0
  0
LTYPE
  5
26
330
2
100
AcDbSymbolTableRecord
100
AcDbLinetypeTableRecord
  2
Continuous
 70
0
  3

 72
65
 73
0
 40
0.0
  0
ENDTAB
  0
TABLE
  2
LAYER
  5
1
330
0
100
AcDbSymbolTable
 70
3
  0
LAYER
  5
27
330
1
100
AcDbSymbolTableRecord
100
AcDbLayerTableRecord
  2
0
 70
0
 62
7
  6
Continuous
370
-3
390
13
347
21
  0
LAYER
  5
28
330
1
100
AcDbSymbolTableRecord
100
AcDbLayerTableRecord
  2
Defpoints
 70
0
 62
7
  6
Continuous
290
0
370
-3
390
13
347
21
  0
LAYER
  5
2F
330
1
100
AcDbSymbolTableRecord
100
AcDbLayerTableRecord
  2
WALL_MAIN
 70
0
 62
3
  6
Continuous
370
-3
390
13
347
21
  0
ENDTAB
  0
TABLE
  2
STYLE
  5
5
330
0
100
AcDbSymbolTable
 70
1
  0
STYLE
  5
29
330
5
100
AcDbSymbolTableRecord
100
AcDbTextStyleTableRecord
  2
Standard
 70
0
 40
0.0
 41
1.0
 50
0.0
 71
0
 42
2.5
  3
txt
  4

  0
ENDTAB
  0
TABLE
  2
VIEW
  5
7
330
0
100
AcDbSymbolTable
 70
0
  0
ENDTAB
  0
TABLE
  2
UCS
  5
6
330
0
100
AcDbSymbolTable
 70
0
  0
ENDTAB
  0
TABLE
  2
APPID
  5
3
330
0
100
AcDbSymbolTable
 70
3
  0
APPID
  5
2A
330
3
100
AcDbSymbolTableRecord
100
AcDbRegAppTableRecord
  2
ACAD
 70
0
  0
APPID
  5
13B
330
3
100
AcDbSymbolTableRecord
100
AcDbRegAppTableRecord
  2
HATCHBACKGROUNDCOLOR
 70
0
  0
APPID
  5
13C
330
3
100
AcDbSymbolTableRecord
100
AcDbRegAppTableRecord
  2
EZDXF
 70
0
  0
ENDTAB
  0
TABLE
  2
DIMSTYLE
  5
4
330
0
100
AcDbSymbolTable
 70
1
100
AcDbDimStyleTable
  0
DIMSTYLE
105
2B
330
4
100
AcDbSymbolTableRecord
100
AcDbDimStyleTableRecord
  2
Standard
 70
0
 40
1.0
 41
2.5
 42
0.625
 43
3.75
 44
1.25
 45
0.0
 46
0.0
 47
0.0
 48
0.0
 49
2.5
140
2.5
141
2.5
142
0.0
143
0.03937007874
144
1.0
145
0.0
146
1.0
147
0.625
148
0.0
 69
0
 70
0
 71
0
 72
0
 73
0
 74
0
 75
0
 76
0
 77
1
 78
8
 79
3
170
0
171
3
172
1
173
0
174
0
175
0
176
0
177
0
178
0
179
2
271
2
272
2
273
2
274
3
275
0
276
0
277
2
278
44
279
0
280
0
281
0
282
0
283
0
284
8
285
0
286
0
288
0
289
3
290
0
371
-2
372
-2
  0
ENDTAB
  0
TABLE
  2
BLOCK_RECORD
  5
9
330
0
100
AcDbSymbolTable
 70
2
  0
BLOCK_RECORD
  5
17
330
9
100
AcDbSymbolTableRecord
100
AcDbBlockTableRecord
  2
*Model_Space
340
1A
 70
0
280
1
281
0
  0
BLOCK_RECORD
  5
1B
330
9
100
AcDbSymbolTableRecord
100
AcDbBlockTableRecord
  2
*Paper_Space
340
1E
 70
0
280
1
281
0
  0
ENDTAB
  0
ENDSEC
  0
SECTION
  2
BLOCKS
  0
BLOCK
  5
18
330
17
100
AcDbEntity
  8
0
100
AcDbBlockBegin
  2
*Model_Space
 70
0
 10
0.0
 20
0.0
 30
0.0
  3
*Model_Space
  1

  0
ENDBLK
  5
19
330
17
100
AcDbEntity
  8
0
100
AcDbBlockEnd
  0
BLOCK
  5
1C
330
1B
100
AcDbEntity
  8
0
100
AcDbBlockBegin
  2
*Paper_Space
 70
0
 10
0.0
 20
0.0
 30
0.0
  3
*Paper_Space
  1

  0
ENDBLK
  5
1D
330
1B
100
AcDbEntity
  8
0
100
AcDbBlockEnd
  0
ENDSEC
  0
SECTION
  2
ENTITIES
  0
CIRCLE
  5
30
330
17
100
AcDbEntity
  8
WALL_MAIN
100
AcDbCircle
 10
29.54233165318147
 20
70.15701250359415
 30
0.0
 40
0.5
  0
CIRCLE
  5
31
330
17
100
AcDbEntity
  8
WALL_MAIN
100
AcDbCircle
 10
29.54233165318147
 20
68.94902229869498
 30
0.0
 40
0.5
  0
CIRCLE
  5
32
330
17
100
AcDbEntity
  8
WALL_MAIN
100
AcDbCircle
 10
29.54233165318147
 20
67.74103209379582
 30
0.0
 40
0.5
  0
CIRCLE
  5
33
330
17
100
AcDbEntity
  8
WALL_MAIN
100
AcDbCircle
 10
29.54233165318147
 20
66.53304188889666
 30
0.0
 40
0.5
  0
CIRCLE
  5
34
330
17
100
AcDbEntity
  8
WALL_MAIN
100
AcDbCircle
 10
29.54233165318147
 20
65.3250516839975
 30
0.0
 40
0.5
  0
CIRCLE
  5
35
330
17
100
AcDbEntity
  8
WALL_MAIN
100
AcDbCircle
 10
29.54233165318147
 20
64.11706147909834
 30
0.0
 40
0.5
  0
CIRCLE
  5
36
330
17
100
AcDbEntity
  8
WALL_MAIN
100
AcDbCircle
 10
29.54233165318147
 20
62.909071274199185
 30
0.0
 40
0.5
  0
CIRCLE
  5
37
330
17
100
AcDbEntity
  8
WALL_MAIN
100
AcDbCircle
 10
29.54233165318147
 20
61.701081069300024
 30
0.0
 40
0.5
  0
CIRCLE
  5
38
330
17
100
AcDbEntity
  8
WALL_MAIN
100
AcDbCircle
 10
29.54233165318147
 20
60.49309086440086
 30
0.0
 40
0.5
  0
CIRCLE
  5
39
330
17
100
AcDbEntity
  8
WALL_MAIN
100
AcDbCircle
 10
29.54233165318147
 20
59.28510065950171
 30
0.0
 40
0.5
  0
CIRCLE
  5
3A
330
17
100
AcDbEntity
  8
WALL_MAIN
100
AcDbCircle
 10
29.54233165318147
 20
58.07711045460255
 30
0.0
 40
0.5
  0
CIRCLE
  5
3B
330
17
100
AcDbEntity
  8
WALL_MAIN
100
AcDbCircle
 10
29.54233165318147
 20
56.869120249703386
 30
0.0
 40
0.5
  0
CIRCLE
  5
3C
330
17
100
AcDbEntity
  8
WALL_MAIN
100
AcDbCircle
 10
29.54233165318147
 20
55.661130044804224
 30
0.0
 40
0.5
  0
CIRCLE
  5
3D
330
17
100
AcDbEntity
  8
WALL_MAIN
100
AcDbCircle
 10
29.54233165318147
 20
54.45313983990506
 30
0.0
 40
0.5
  0
CIRCLE
  5
3E
330
17
100
AcDbEntity
  8
WALL_MAIN
100
AcDbCircle
 10
29.54233165318147
 20
53.2451496350059
 30
0.0
 40
0.5
  0
CIRCLE
  5
3F
330
17
100
AcDbEntity
  8
WALL_MAIN
100
AcDbCircle
 10
29.54233165318147
 20
52.03715943010674
 30
0.0
 40
0.5
  0
CIRCLE
  5
40
330
17
100
AcDbEntity
  8
WALL_MAIN
100
AcDbCircle
 10
29.54233165318147
 20
50.82916922520758
 30
0.0
 40
0.5
  0
CIRCLE
  5
41
330
17
100
AcDbEntity
  8
WALL_MAIN
100
AcDbCircle
 10
29.54233165318147
 20
49.62117902030842
 30
0.0
 40
0.5
  0
CIRCLE
  5
42
330
17
100
AcDbEntity
  8
WALL_MAIN
100
AcDbCircle
 10
29.54233165318147
 20
48.413188815409264
 30
0.0
 40
0.5
  0
CIRCLE
  5
43
330
17
100
AcDbEntity
  8
WALL_MAIN
100
AcDbCircle
 10
29.54233165318147
 20
47.2051986105101
 30
0.0
 40
0.5
  0
CIRCLE
  5
44
330
17
100
AcDbEntity
  8
WALL_MAIN
100
AcDbCircle
 10
29.54233165318147
 20
45.99720840561094
 30
0.0
 40
0.5
  0
CIRCLE
  5
45
330
17
100
AcDbEntity
  8
WALL_MAIN
100
AcDbCircle
 10
29.54233165318147
 20
44.78921820071179
 30
0.0
 40
0.5
  0
CIRCLE
  5
46
330
17
100
AcDbEntity
  8
WALL_MAIN
100
AcDbCircle
 10
29.54233165318147
 20
43.581227995812625
 30
0.0
 40
0.5
  0
CIRCLE
  5
47
330
17
100
AcDbEntity
  8
WALL_MAIN
100
AcDbCircle
 10
29.54233165318147
 20
42.373237790913464
 30
0.0
 40
0.5
  0
CIRCLE
  5
48
330
17
100
AcDbEntity
  8
WALL_MAIN
100
AcDbCircle
 10
29.54233165318147
 20
41.1652475860143
 30
0.0
 40
0.5
  0
CIRCLE
  5
49
330
17
100
AcDbEntity
  8
WALL_MAIN
100
AcDbCircle
 10
29.54233165318147
 20
39.95725738111514
 30
0.0
 40
0.5
  0
CIRCLE
  5
4A
330
17
100
AcDbEntity
  8
WALL_MAIN
100
AcDbCircle
 10
29.54233165318147
 20
38.74926717621598
 30
0.0
 40
0.5
  0
CIRCLE
  5
4B
330
17
100
AcDbEntity
  8
WALL_MAIN
100
AcDbCircle
 10
29.54233165318147
 20
37.54127697131682
 30
0.0
 40
0.5
  0
CIRCLE
  5
4C
330
17
100
AcDbEntity
  8
WALL_MAIN
100
AcDbCircle
 10
29.54233165318147
 20
36.33328676641766
 30
0.0
 40
0.5
  0
CIRCLE
  5
4D
330
17
100
AcDbEntity
  8
WALL_MAIN
100
AcDbCircle
 10
29.54233165318147
 20
35.1252965615185
 30
0.0
 40
0.5
  0
CIRCLE
  5
4E
330
17
100
AcDbEntity
  8
WALL_MAIN
100
AcDbCircle
 10
29.54233165318147
 20
33.91730635661934
 30
0.0
 40
0.5
  0
CIRCLE
  5
4F
330
17
100
AcDbEntity
  8
WALL_MAIN
100
AcDbCircle
 10
29.54233165318147
 20
32.70931615172018
 30
0.0
 40
0.5
  0
CIRCLE
  5
50
330
17
100
AcDbEntity
  8
WALL_MAIN
100
AcDbCircle
 10
29.54233165318147
 20
31.50132594682102
 30
0.0
 40
0.5
  0
CIRCLE
  5
51
330
17
100
AcDbEntity
  8
WALL_MAIN
100
AcDbCircle
 10
29.54233165318147
 20
30.293335741921858
 30
0.0
 40
0.5
  0
CIRCLE
  5
52
330
17
100
AcDbEntity
  8
WALL_MAIN
100
AcDbCircle
 10
29.54233165318147
 20
29.085345537022697
 30
0.0
 40
0.5
  0
CIRCLE
  5
53
330
17
100
AcDbEntity
  8
WALL_MAIN
100
AcDbCircle
 10
29.54233165318147
 20
27.877355332123535
 30
0.0
 40
0.5
  0
CIRCLE
  5
54
330
17
100
AcDbEntity
  8
WALL_MAIN
100
AcDbCircle
 10
29.54233165318147
 20
26.66936512722438
 30
0.0
 40
0.5
  0
CIRCLE
  5
55
330
17
100
AcDbEntity
  8
WALL_MAIN
100
AcDbCircle
 10
29.54233165318147
 20
25.46137492232522
 30
0.0
 40
0.5
  0
CIRCLE
  5
56
330
17
100
AcDbEntity
  8
WALL_MAIN
100
AcDbCircle
 10
29.54233165318147
 20
24.25338471742606
 30
0.0
 40
0.5
  0
CIRCLE
  5
57
330
17
100
AcDbEntity
  8
WALL_MAIN
100
AcDbCircle
 10
29.54233165318147
 20
23.045394512526897
 30
0.0
 40
0.5
  0
CIRCLE
  5
58
330
17
100
AcDbEntity
  8
WALL_MAIN
100
AcDbCircle
 10
29.54233165318147
 20
21.837404307627736
 30
0.0
 40
0.5
  0
CIRCLE
  5
59
330
17
100
AcDbEntity
  8
WALL_MAIN
100
AcDbCircle
 10
29.54233165318147
 20
20.629414102728575
 30
0.0
 40
0.5
  0
CIRCLE
  5
5A
330
17
100
AcDbEntity
  8
WALL_MAIN
100
AcDbCircle
 10
29.54233165318147
 20
19.42142389782942
 30
0.0
 40
0.5
  0
CIRCLE
  5
5B
330
17
100
AcDbEntity
  8
WALL_MAIN
100
AcDbCircle
 10
29.54233165318147
 20
18.21343369293026
 30
0.0
 40
0.5
  0
CIRCLE
  5
5C
330
17
100
AcDbEntity
  8
WALL_MAIN
100
AcDbCircle
 10
30.758547869397685
 20
18.21343369293026
 30
0.0
 40
0.5
  0
CIRCLE
  5
5D
330
17
100
AcDbEntity
  8
WALL_MAIN
100
AcDbCircle
 10
31.974764085613902
 20
18.21343369293026
 30
0.0
 40
0.5
  0
CIRCLE
  5
5E
330
17
100
AcDbEntity
  8
WALL_MAIN
100
AcDbCircle
 10
33.190980301830116
 20
18.21343369293026
 30
0.0
 40
0.5
  0
CIRCLE
  5
5F
330
17
100
AcDbEntity
  8
WALL_MAIN
100
AcDbCircle
 10
34.407196518046334
 20
18.21343369293026
 30
0.0
 40
0.5
  0
CIRCLE
  5
60
330
17
100
AcDbEntity
  8
WALL_MAIN
100
AcDbCircle
 10
35.623412734262544
 20
18.21343369293026
 30
0.0
 40
0.5
  0
CIRCLE
  5
61
330
17
100
AcDbEntity
  8
WALL_MAIN
100
AcDbCircle
 10
36.83962895047876
 20
18.21343369293026
 30
0.0
 40
0.5
  0
CIRCLE
  5
62
330
17
100
AcDbEntity
  8
WALL_MAIN
100
AcDbCircle
 10
38.05584516669498
 20
18.21343369293026
 30
0.0
 40
0.5
  0
CIRCLE
  5
63
330
17
100
AcDbEntity
  8
WALL_MAIN
100
AcDbCircle
 10
39.27206138291119
 20
18.21343369293026
 30
0.0
 40
0.5
  0
CIRCLE
  5
64
330
17
100
AcDbEntity
  8
WALL_MAIN
100
AcDbCircle
 10
40.48827759912741
 20
18.21343369293026
 30
0.0
 40
0.5
  0
CIRCLE
  5
65
330
17
100
AcDbEntity
  8
WALL_MAIN
100
AcDbCircle
 10
41.704493815343625
 20
18.21343369293026
 30
0.0
 40
0.5
  0
CIRCLE
  5
66
330
17
100
AcDbEntity
  8
WALL_MAIN
100
AcDbCircle
 10
42.920710031559835
 20
18.21343369293026
 30
0.0
 40
0.5
  0
CIRCLE
  5
67
330
17
100
AcDbEntity
  8
WALL_MAIN
100
AcDbCircle
 10
44.13692624777605
 20
18.21343369293026
 30
0.0
 40
0.5
  0
CIRCLE
  5
68
330
17
100
AcDbEntity
  8
WALL_MAIN
100
AcDbCircle
 10
45.35314246399227
 20
18.21343369293026
 30
0.0
 40
0.5
  0
CIRCLE
  5
69
330
17
100
AcDbEntity
  8
WALL_MAIN
100
AcDbCircle
 10
46.56935868020848
 20
18.21343369293026
 30
0.0
 40
0.5
  0
CIRCLE
  5
6A
330
17
100
AcDbEntity
  8
WALL_MAIN
100
AcDbCircle
 10
47.785574896424706
 20
18.21343369293026
 30
0.0
 40
0.5
  0
CIRCLE
  5
6B
330
17
100
AcDbEntity
  8
WALL_MAIN
100
AcDbCircle
 10
49.001791112640916
 20
18.21343369293026
 30
0.0
 40
0.5
  0
CIRCLE
  5
6C
330
17
100
AcDbEntity
  8
WALL_MAIN
100
AcDbCircle
 10
50.21800732885713
 20
18.21343369293026
 30
0.0
 40
0.5
  0
CIRCLE
  5
6D
330
17
100
AcDbEntity
  8
WALL_MAIN
100
AcDbCircle
 10
51.43422354507335
 20
18.21343369293026
 30
0.0
 40
0.5
  0
CIRCLE
  5
6E
330
17
100
AcDbEntity
  8
WALL_MAIN
100
AcDbCircle
 10
52.65043976128956
 20
18.21343369293026
 30
0.0
 40
0.5
  0
CIRCLE
  5
6F
330
17
100
AcDbEntity
  8
WALL_MAIN
100
AcDbCircle
 10
53.86665597750578
 20
18.21343369293026
 30
0.0
 40
0.5
  0
CIRCLE
  5
70
330
17
100
AcDbEntity
  8
WALL_MAIN
100
AcDbCircle
 10
55.082872193722
 20
18.21343369293026
 30
0.0
 40
0.5
  0
CIRCLE
  5
71
330
17
100
AcDbEntity
  8
WALL_MAIN
100
AcDbCircle
 10
56.29908840993821
 20
18.21343369293026
 30
0.0
 40
0.5
  0
CIRCLE
  5
72
330
17
100
AcDbEntity
  8
WALL_MAIN
100
AcDbCircle
 10
57.515304626154425
 20
18.21343369293026
 30
0.0
 40
0.5
  0
CIRCLE
  5
73
330
17
100
AcDbEntity
  8
WALL_MAIN
100
AcDbCircle
 10
58.73152084237064
 20
18.21343369293026
 30
0.0
 40
0.5
  0
CIRCLE
  5
74
330
17
100
AcDbEntity
  8
WALL_MAIN
100
AcDbCircle
 10
59.94773705858685
 20
18.21343369293026
 30
0.0
 40
0.5
  0
CIRCLE
  5
75
330
17
100
AcDbEntity
  8
WALL_MAIN
100
AcDbCircle
 10
61.16395327480307
 20
18.21343369293026
 30
0.0
 40
0.5
  0
CIRCLE
  5
76
330
17
100
AcDbEntity
  8
WALL_MAIN
100
AcDbCircle
 10
62.38016949101929
 20
18.21343369293026
 30
0.0
 40
0.5
  0
CIRCLE
  5
77
330
17
100
AcDbEntity
  8
WALL_MAIN
100
AcDbCircle
 10
63.5963857072355
 20
18.21343369293026
 30
0.0
 40
0.5
  0
CIRCLE
  5
78
330
17
100
AcDbEntity
  8
WALL_MAIN
100
AcDbCircle
 10
64.81260192345172
 20
18.21343369293026
 30
0.0
 40
0.5
  0
CIRCLE
  5
79
330
17
100
AcDbEntity
  8
WALL_MAIN
100
AcDbCircle
 10
66.02881813966793
 20
18.21343369293026
 30
0.0
 40
0.5
  0
CIRCLE
  5
7A
330
17
100
AcDbEntity
  8
WALL_MAIN
100
AcDbCircle
 10
67.24503435588414
 20
18.21343369293026
 30
0.0
 40
0.5
  0
CIRCLE
  5
7B
330
17
100
AcDbEntity
  8
WALL_MAIN
100
AcDbCircle
 10
68.46125057210037
 20
18.21343369293026
 30
0.0
 40
0.5
  0
CIRCLE
  5
7C
330
17
100
AcDbEntity
  8
WALL_MAIN
100
AcDbCircle
 10
69.67746678831658
 20
18.21343369293026
 30
0.0
 40
0.5
  0
CIRCLE
  5
7D
330
17
100
AcDbEntity
  8
WALL_MAIN
100
AcDbCircle
 10
70.89368300453279
 20
18.21343369293026
 30
0.0
 40
0.5
  0
CIRCLE
  5
7E
330
17
100
AcDbEntity
  8
WALL_MAIN
100
AcDbCircle
 10
72.10989922074901
 20
18.21343369293026
 30
0.0
 40
0.5
  0
CIRCLE
  5
7F
330
17
100
AcDbEntity
  8
WALL_MAIN
100
AcDbCircle
 10
73.32611543696522
 20
18.21343369293026
 30
0.0
 40
0.5
  0
CIRCLE
  5
80
330
17
100
AcDbEntity
  8
WALL_MAIN
100
AcDbCircle
 10
74.54233165318144
 20
18.21343369293026
 30
0.0
 40
0.5
  0
CIRCLE
  5
81
330
17
100
AcDbEntity
  8
WALL_MAIN
100
AcDbCircle
 10
75.75854786939766
 20
18.21343369293026
 30
0.0
 40
0.5
  0
CIRCLE
  5
82
330
17
100
AcDbEntity
  8
WALL_MAIN
100
AcDbCircle
 10
76.97476408561387
 20
18.21343369293026
 30
0.0
 40
0.5
  0
CIRCLE
  5
83
330
17
100
AcDbEntity
  8
WALL_MAIN
100
AcDbCircle
 10
78.19098030183008
 20
18.21343369293026
 30
0.0
 40
0.5
  0
CIRCLE
  5
84
330
17
100
AcDbEntity
  8
WALL_MAIN
100
AcDbCircle
 10
79.4071965180463
 20
18.21343369293026
 30
0.0
 40
0.5
  0
CIRCLE
  5
85
330
17
100
AcDbEntity
  8
WALL_MAIN
100
AcDbCircle
 10
80.62341273426252
 20
18.21343369293026
 30
0.0
 40
0.5
  0
CIRCLE
  5
86
330
17
100
AcDbEntity
  8
WALL_MAIN
100
AcDbCircle
 10
81.83962895047873
 20
18.21343369293026
 30
0.0
 40
0.5
  0
CIRCLE
  5
87
330
17
100
AcDbEntity
  8
WALL_MAIN
100
AcDbCircle
 10
83.05584516669495
 20
18.21343369293026
 30
0.0
 40
0.5
  0
CIRCLE
  5
88
330
17
100
AcDbEntity
  8
WALL_MAIN
100
AcDbCircle
 10
84.27206138291116
 20
18.21343369293026
 30
0.0
 40
0.5
  0
CIRCLE
  5
89
330
17
100
AcDbEntity
  8
WALL_MAIN
100
AcDbCircle
 10
85.48827759912737
 20
18.21343369293026
 30
0.0
 40
0.5
  0
CIRCLE
  5
8A
330
17
100
AcDbEntity
  8
WALL_MAIN
100
AcDbCircle
 10
86.7044938153436
 20
18.21343369293026
 30
0.0
 40
0.5
  0
CIRCLE
  5
8B
330
17
100
AcDbEntity
  8
WALL_MAIN
100
AcDbCircle
 10
87.9207100315598
 20
18.21343369293026
 30
0.0
 40
0.5
  0
CIRCLE
  5
8C
330
17
100
AcDbEntity
  8
WALL_MAIN
100
AcDbCircle
 10
89.13692624777602
 20
18.21343369293026
 30
0.0
 40
0.5
  0
CIRCLE
  5
8D
330
17
100
AcDbEntity
  8
WALL_MAIN
100
AcDbCircle
 10
90.35314246399224
 20
18.21343369293026
 30
0.0
 40
0.5
  0
CIRCLE
  5
8E
330
17
100
AcDbEntity
  8
WALL_MAIN
100
AcDbCircle
 10
91.56935868020845
 20
18.21343369293026
 30
0.0
 40
0.5
  0
CIRCLE
  5
8F
330
17
100
AcDbEntity
  8
WALL_MAIN
100
AcDbCircle
 10
92.78557489642466
 20
18.21343369293026
 30
0.0
 40
0.5
  0
CIRCLE
  5
90
330
17
100
AcDbEntity
  8
WALL_MAIN
100
AcDbCircle
 10
94.00179111264089
 20
18.21343369293026
 30
0.0
 40
0.5
  0
CIRCLE
  5
91
330
17
100
AcDbEntity
  8
WALL_MAIN
100
AcDbCircle
 10
95.21800732885711
 20
18.21343369293026
 30
0.0
 40
0.5
  0
CIRCLE
  5
92
330
17
100
AcDbEntity
  8
WALL_MAIN
100
AcDbCircle
 10
96.43422354507331
 20
18.21343369293026
 30
0.0
 40
0.5
  0
CIRCLE
  5
93
330
17
100
AcDbEntity
  8
WALL_MAIN
100
AcDbCircle
 10
97.65043976128953
 20
18.21343369293026
 30
0.0
 40
0.5
  0
CIRCLE
  5
94
330
17
100
AcDbEntity
  8
WALL_MAIN
100
AcDbCircle
 10
98.86665597750576
 20
18.21343369293026
 30
0.0
 40
0.5
  0
CIRCLE
  5
95
330
17
100
AcDbEntity
  8
WALL_MAIN
100
AcDbCircle
 10
100.08287219372195
 20
18.21343369293026
 30
0.0
 40
0.5
  0
CIRCLE
  5
96
330
17
100
AcDbEntity
  8
WALL_MAIN
100
AcDbCircle
 10
101.29908840993818
 20
18.21343369293026
 30
0.0
 40
0.5
  0
CIRCLE
  5
97
330
17
100
AcDbEntity
  8
WALL_MAIN
100
AcDbCircle
 10
102.5153046261544
 20
18.21343369293026
 30
0.0
 40
0.5
  0
CIRCLE
  5
98
330
17
100
AcDbEntity
  8
WALL_MAIN
100
AcDbCircle
 10
103.7315208423706
 20
18.21343369293026
 30
0.0
 40
0.5
  0
CIRCLE
  5
99
330
17
100
AcDbEntity
  8
WALL_MAIN
100
AcDbCircle
 10
104.94773705858682
 20
18.21343369293026
 30
0.0
 40
0.5
  0
CIRCLE
  5
9A
330
17
100
AcDbEntity
  8
WALL_MAIN
100
AcDbCircle
 10
106.16395327480305
 20
18.21343369293026
 30
0.0
 40
0.5
  0
CIRCLE
  5
9B
330
17
100
AcDbEntity
  8
WALL_MAIN
100
AcDbCircle
 10
107.38016949101925
 20
18.21343369293026
 30
0.0
 40
0.5
  0
CIRCLE
  5
9C
330
17
100
AcDbEntity
  8
WALL_MAIN
100
AcDbCircle
 10
108.59638570723547
 20
18.21343369293026
 30
0.0
 40
0.5
  0
CIRCLE
  5
9D
330
17
100
AcDbEntity
  8
WALL_MAIN
100
AcDbCircle
 10
109.8126019234517
 20
18.21343369293026
 30
0.0
 40
0.5
  0
CIRCLE
  5
9E
330
17
100
AcDbEntity
  8
WALL_MAIN
100
AcDbCircle
 10
111.02881813966789
 20
18.21343369293026
 30
0.0
 40
0.5
  0
CIRCLE
  5
9F
330
17
100
AcDbEntity
  8
WALL_MAIN
100
AcDbCircle
 10
112.24503435588412
 20
18.21343369293026
 30
0.0
 40
0.5
  0
CIRCLE
  5
A0
330
17
100
AcDbEntity
  8
WALL_MAIN
100
AcDbCircle
 10
113.46125057210034
 20
18.21343369293026
 30
0.0
 40
0.5
  0
CIRCLE
  5
A1
330
17
100
AcDbEntity
  8
WALL_MAIN
100
AcDbCircle
 10
114.67746678831654
 20
18.21343369293026
 30
0.0
 40
0.5
  0
CIRCLE
  5
A2
330
17
100
AcDbEntity
  8
WALL_MAIN
100
AcDbCircle
 10
115.89368300453276
 20
18.21343369293026
 30
0.0
 40
0.5
  0
CIRCLE
  5
A3
330
17
100
AcDbEntity
  8
WALL_MAIN
100
AcDbCircle
 10
117.10989922074899
 20
18.21343369293026
 30
0.0
 40
0.5
  0
CIRCLE
  5
A4
330
17
100
AcDbEntity
  8
WALL_MAIN
100
AcDbCircle
 10
118.32611543696518
 20
18.21343369293026
 30
0.0
 40
0.5
  0
CIRCLE
  5
A5
330
17
100
AcDbEntity
  8
WALL_MAIN
100
AcDbCircle
 10
119.5423316531814
 20
18.21343369293026
 30
0.0
 40
0.5
  0
CIRCLE
  5
A6
330
17
100
AcDbEntity
  8
WALL_MAIN
100
AcDbCircle
 10
119.5423316531814
 20
19.42555490505147
 30
0.0
 40
0.5
  0
CIRCLE
  5
A7
330
17
100
AcDbEntity
  8
WALL_MAIN
100
AcDbCircle
 10
119.5423316531814
 20
20.637676117172685
 30
0.0
 40
0.5
  0
CIRCLE
  5
A8
330
17
100
AcDbEntity
  8
WALL_MAIN
100
AcDbCircle
 10
119.5423316531814
 20
21.849797329293896
 30
0.0
 40
0.5
  0
CIRCLE
  5
A9
330
17
100
AcDbEntity
  8
WALL_MAIN
100
AcDbCircle
 10
119.5423316531814
 20
23.061918541415107
 30
0.0
 40
0.5
  0
CIRCLE
  5
AA
330
17
100
AcDbEntity
  8
WALL_MAIN
100
AcDbCircle
 10
119.5423316531814
 20
24.27403975353632
 30
0.0
 40
0.5
  0
CIRCLE
  5
AB
330
17
100
AcDbEntity
  8
WALL_MAIN
100
AcDbCircle
 10
119.5423316531814
 20
25.486160965657533
 30
0.0
 40
0.5
  0
CIRCLE
  5
AC
330
17
100
AcDbEntity
  8
WALL_MAIN
100
AcDbCircle
 10
119.5423316531814
 20
26.698282177778744
 30
0.0
 40
0.5
  0
CIRCLE
  5
AD
330
17
100
AcDbEntity
  8
WALL_MAIN
100
AcDbCircle
 10
119.5423316531814
 20
27.910403389899955
 30
0.0
 40
0.5
  0
CIRCLE
  5
AE
330
17
100
AcDbEntity
  8
WALL_MAIN
100
AcDbCircle
 10
119.5423316531814
 20
29.12252460202117
 30
0.0
 40
0.5
  0
CIRCLE
  5
AF
330
17
100
AcDbEntity
  8
WALL_MAIN
100
AcDbCircle
 10
119.5423316531814
 20
30.33464581414238
 30
0.0
 40
0.5
  0
CIRCLE
  5
B0
330
17
100
AcDbEntity
  8
WALL_MAIN
100
AcDbCircle
 10
119.5423316531814
 20
31.546767026263595
 30
0.0
 40
0.5
  0
CIRCLE
  5
B1
330
17
100
AcDbEntity
  8
WALL_MAIN
100
AcDbCircle
 10
119.5423316531814
 20
32.758888238384806
 30
0.0
 40
0.5
  0
CIRCLE
  5
B2
330
17
100
AcDbEntity
  8
WALL_MAIN
100
AcDbCircle
 10
119.5423316531814
 20
33.97100945050602
 30
0.0
 40
0.5
  0
CIRCLE
  5
B3
330
17
100
AcDbEntity
  8
WALL_MAIN
100
AcDbCircle
 10
119.5423316531814
 20
35.18313066262723
 30
0.0
 40
0.5
  0
CIRCLE
  5
B4
330
17
100
AcDbEntity
  8
WALL_MAIN
100
AcDbCircle
 10
119.5423316531814
 20
36.39525187474844
 30
0.0
 40
0.5
  0
CIRCLE
  5
B5
330
17
100
AcDbEntity
  8
WALL_MAIN
100
AcDbCircle
 10
119.5423316531814
 20
37.60737308686966
 30
0.0
 40
0.5
  0
CIRCLE
  5
B6
330
17
100
AcDbEntity
  8
WALL_MAIN
100
AcDbCircle
 10
119.5423316531814
 20
38.81949429899086
 30
0.0
 40
0.5
  0
CIRCLE
  5
B7
330
17
100
AcDbEntity
  8
WALL_MAIN
100
AcDbCircle
 10
119.5423316531814
 20
40.03161551111208
 30
0.0
 40
0.5
  0
CIRCLE
  5
B8
330
17
100
AcDbEntity
  8
WALL_MAIN
100
AcDbCircle
 10
119.5423316531814
 20
41.24373672323329
 30
0.0
 40
0.5
  0
CIRCLE
  5
B9
330
17
100
AcDbEntity
  8
WALL_MAIN
100
AcDbCircle
 10
119.5423316531814
 20
42.4558579353545
 30
0.0
 40
0.5
  0
CIRCLE
  5
BA
330
17
100
AcDbEntity
  8
WALL_MAIN
100
AcDbCircle
 10
119.5423316531814
 20
43.66797914747572
 30
0.0
 40
0.5
  0
CIRCLE
  5
BB
330
17
100
AcDbEntity
  8
WALL_MAIN
100
AcDbCircle
 10
119.5423316531814
 20
44.88010035959692
 30
0.0
 40
0.5
  0
CIRCLE
  5
BC
330
17
100
AcDbEntity
  8
WALL_MAIN
100
AcDbCircle
 10
119.5423316531814
 20
46.09222157171814
 30
0.0
 40
0.5
  0
CIRCLE
  5
BD
330
17
100
AcDbEntity
  8
WALL_MAIN
100
AcDbCircle
 10
119.5423316531814
 20
47.30434278383935
 30
0.0
 40
0.5
  0
CIRCLE
  5
BE
330
17
100
AcDbEntity
  8
WALL_MAIN
100
AcDbCircle
 10
119.5423316531814
 20
48.516463995960564
 30
0.0
 40
0.5
  0
CIRCLE
  5
BF
330
17
100
AcDbEntity
  8
WALL_MAIN
100
AcDbCircle
 10
119.5423316531814
 20
49.728585208081775
 30
0.0
 40
0.5
  0
CIRCLE
  5
C0
330
17
100
AcDbEntity
  8
WALL_MAIN
100
AcDbCircle
 10
119.5423316531814
 20
50.940706420202986
 30
0.0
 40
0.5
  0
CIRCLE
  5
C1
330
17
100
AcDbEntity
  8
WALL_MAIN
100
AcDbCircle
 10
119.5423316531814
 20
52.1528276323242
 30
0.0
 40
0.5
  0
CIRCLE
  5
C2
330
17
100
AcDbEntity
  8
WALL_MAIN
100
AcDbCircle
 10
119.5423316531814
 20
53.364948844445415
 30
0.0
 40
0.5
  0
CIRCLE
  5
C3
330
17
100
AcDbEntity
  8
WALL_MAIN
100
AcDbCircle
 10
119.5423316531814
 20
54.577070056566626
 30
0.0
 40
0.5
  0
CIRCLE
  5
C4
330
17
100
AcDbEntity
  8
WALL_MAIN
100
AcDbCircle
 10
119.5423316531814
 20
55.78919126868784
 30
0.0
 40
0.5
  0
CIRCLE
  5
C5
330
17
100
AcDbEntity
  8
WALL_MAIN
100
AcDbCircle
 10
119.5423316531814
 20
57.00131248080905
 30
0.0
 40
0.5
  0
CIRCLE
  5
C6
330
17
100
AcDbEntity
  8
WALL_MAIN
100
AcDbCircle
 10
119.5423316531814
 20
58.21343369293026
 30
0.0
 40
0.5
  0
CIRCLE
  5
C7
330
17
100
AcDbEntity
  8
WALL_MAIN
100
AcDbCircle
 10
119.5423316531814
 20
59.42555490505147
 30
0.0
 40
0.5
  0
CIRCLE
  5
C8
330
17
100
AcDbEntity
  8
WALL_MAIN
100
AcDbCircle
 10
119.5423316531814
 20
60.63767611717268
 30
0.0
 40
0.5
  0
CIRCLE
  5
C9
330
17
100
AcDbEntity
  8
WALL_MAIN
100
AcDbCircle
 10
119.5423316531814
 20
61.8497973292939
 30
0.0
 40
0.5
  0
CIRCLE
  5
CA
330
17
100
AcDbEntity
  8
WALL_MAIN
100
AcDbCircle
 10
119.5423316531814
 20
63.06191854141511
 30
0.0
 40
0.5
  0
CIRCLE
  5
CB
330
17
100
AcDbEntity
  8
WALL_MAIN
100
AcDbCircle
 10
119.5423316531814
 20
64.27403975353633
 30
0.0
 40
0.5
  0
CIRCLE
  5
CC
330
17
100
AcDbEntity
  8
WALL_MAIN
100
AcDbCircle
 10
119.5423316531814
 20
65.48616096565753
 30
0.0
 40
0.5
  0
CIRCLE
  5
CD
330
17
100
AcDbEntity
  8
WALL_MAIN
100
AcDbCircle
 10
119.5423316531814
 20
66.69828217777874
 30
0.0
 40
0.5
  0
CIRCLE
  5
CE
330
17
100
AcDbEntity
  8
WALL_MAIN
100
AcDbCircle
 10
119.5423316531814
 20
67.91040338989995
 30
0.0
 40
0.5
  0
CIRCLE
  5
CF
330
17
100
AcDbEntity
  8
WALL_MAIN
100
AcDbCircle
 10
119.5423316531814
 20
69.12252460202117
 30
0.0
 40
0.5
  0
CIRCLE
  5
D0
330
17
100
AcDbEntity
  8
WALL_MAIN
100
AcDbCircle
 10
119.5423316531814
 20
70.33464581414239
 30
0.0
 40
0.5
  0
CIRCLE
  5
D1
330
17
100
AcDbEntity
  8
WALL_MAIN
100
AcDbCircle
 10
119.5423316531814
 20
71.5467670262636
 30
0.0
 40
0.5
  0
CIRCLE
  5
D2
330
17
100
AcDbEntity
  8
WALL_MAIN
100
AcDbCircle
 10
119.5423316531814
 20
72.7588882383848
 30
0.0
 40
0.5
  0
CIRCLE
  5
D3
330
17
100
AcDbEntity
  8
WALL_MAIN
100
AcDbCircle
 10
119.5423316531814
 20
73.97100945050602
 30
0.0
 40
0.5
  0
CIRCLE
  5
D4
330
17
100
AcDbEntity
  8
WALL_MAIN
100
AcDbCircle
 10
119.5423316531814
 20
75.18313066262724
 30
0.0
 40
0.5
  0
CIRCLE
  5
D5
330
17
100
AcDbEntity
  8
WALL_MAIN
100
AcDbCircle
 10
119.5423316531814
 20
76.39525187474845
 30
0.0
 40
0.5
  0
CIRCLE
  5
D6
330
17
100
AcDbEntity
  8
WALL_MAIN
100
AcDbCircle
 10
119.5423316531814
 20
77.60737308686966
 30
0.0
 40
0.5
  0
CIRCLE
  5
D7
330
17
100
AcDbEntity
  8
WALL_MAIN
100
AcDbCircle
 10
119.5423316531814
 20
78.81949429899086
 30
0.0
 40
0.5
  0
CIRCLE
  5
D8
330
17
100
AcDbEntity
  8
WALL_MAIN
100
AcDbCircle
 10
119.5423316531814
 20
80.03161551111208
 30
0.0
 40
0.5
  0
CIRCLE
  5
D9
330
17
100
AcDbEntity
  8
WALL_MAIN
100
AcDbCircle
 10
119.5423316531814
 20
81.2437367232333
 30
0.0
 40
0.5
  0
CIRCLE
  5
DA
330
17
100
AcDbEntity
  8
WALL_MAIN
100
AcDbCircle
 10
119.5423316531814
 20
82.45585793535452
 30
0.0
 40
0.5
  0
CIRCLE
  5
DB
330
17
100
AcDbEntity
  8
WALL_MAIN
100
AcDbCircle
 10
119.5423316531814
 20
83.6679791474757
 30
0.0
 40
0.5
  0
CIRCLE
  5
DC
330
17
100
AcDbEntity
  8
WALL_MAIN
100
AcDbCircle
 10
119.5423316531814
 20
84.88010035959692
 30
0.0
 40
0.5
  0
CIRCLE
  5
DD
330
17
100
AcDbEntity
  8
WALL_MAIN
100
AcDbCircle
 10
119.5423316531814
 20
86.09222157171814
 30
0.0
 40
0.5
  0
CIRCLE
  5
DE
330
17
100
AcDbEntity
  8
WALL_MAIN
100
AcDbCircle
 10
119.5423316531814
 20
87.30434278383936
 30
0.0
 40
0.5
  0
CIRCLE
  5
DF
330
17
100
AcDbEntity
  8
WALL_MAIN
100
AcDbCircle
 10
119.5423316531814
 20
88.51646399596058
 30
0.0
 40
0.5
  0
CIRCLE
  5
E0
330
17
100
AcDbEntity
  8
WALL_MAIN
100
AcDbCircle
 10
119.5423316531814
 20
89.72858520808177
 30
0.0
 40
0.5
  0
CIRCLE
  5
E1
330
17
100
AcDbEntity
  8
WALL_MAIN
100
AcDbCircle
 10
119.5423316531814
 20
90.94070642020299
 30
0.0
 40
0.5
  0
CIRCLE
  5
E2
330
17
100
AcDbEntity
  8
WALL_MAIN
100
AcDbCircle
 10
119.5423316531814
 20
92.1528276323242
 30
0.0
 40
0.5
  0
CIRCLE
  5
E3
330
17
100
AcDbEntity
  8
WALL_MAIN
100
AcDbCircle
 10
119.5423316531814
 20
93.36494884444542
 30
0.0
 40
0.5
  0
CIRCLE
  5
E4
330
17
100
AcDbEntity
  8
WALL_MAIN
100
AcDbCircle
 10
119.5423316531814
 20
94.57707005656661
 30
0.0
 40
0.5
  0
CIRCLE
  5
E5
330
17
100
AcDbEntity
  8
WALL_MAIN
100
AcDbCircle
 10
119.5423316531814
 20
95.78919126868783
 30
0.0
 40
0.5
  0
CIRCLE
  5
E6
330
17
100
AcDbEntity
  8
WALL_MAIN
100
AcDbCircle
 10
119.5423316531814
 20
97.00131248080905
 30
0.0
 40
0.5
  0
CIRCLE
  5
E7
330
17
100
AcDbEntity
  8
WALL_MAIN
100
AcDbCircle
 10
119.5423316531814
 20
98.21343369293027
 30
0.0
 40
0.5
  0
CIRCLE
  5
E8
330
17
100
AcDbEntity
  8
WALL_MAIN
100
AcDbCircle
 10
118.33564286834245
 20
98.21343369293027
 30
0.0
 40
0.5
  0
CIRCLE
  5
E9
330
17
100
AcDbEntity
  8
WALL_MAIN
100
AcDbCircle
 10
117.12895408350349
 20
98.21343369293027
 30
0.0
 40
0.5
  0
CIRCLE
  5
EA
330
17
100
AcDbEntity
  8
WALL_MAIN
100
AcDbCircle
 10
115.92226529866451
 20
98.21343369293027
 30
0.0
 40
0.5
  0
CIRCLE
  5
EB
330
17
100
AcDbEntity
  8
WALL_MAIN
100
AcDbCircle
 10
114.71557651382555
 20
98.21343369293027
 30
0.0
 40
0.5
  0
CIRCLE
  5
EC
330
17
100
AcDbEntity
  8
WALL_MAIN
100
AcDbCircle
 10
113.5088877289866
 20
98.21343369293027
 30
0.0
 40
0.5
  0
CIRCLE
  5
ED
330
17
100
AcDbEntity
  8
WALL_MAIN
100
AcDbCircle
 10
112.30219894414762
 20
98.21343369293027
 30
0.0
 40
0.5
  0
CIRCLE
  5
EE
330
17
100
AcDbEntity
  8
WALL_MAIN
100
AcDbCircle
 10
111.09551015930866
 20
98.21343369293027
 30
0.0
 40
0.5
  0
CIRCLE
  5
EF
330
17
100
AcDbEntity
  8
WALL_MAIN
100
AcDbCircle
 10
109.8888213744697
 20
98.21343369293027
 30
0.0
 40
0.5
  0
CIRCLE
  5
F0
330
17
100
AcDbEntity
  8
WALL_MAIN
100
AcDbCircle
 10
108.68213258963074
 20
98.21343369293027
 30
0.0
 40
0.5
  0
CIRCLE
  5
F1
330
17
100
AcDbEntity
  8
WALL_MAIN
100
AcDbCircle
 10
107.47544380479178
 20
98.21343369293027
 30
0.0
 40
0.5
  0
CIRCLE
  5
F2
330
17
100
AcDbEntity
  8
WALL_MAIN
100
AcDbCircle
 10
106.2687550199528
 20
98.21343369293027
 30
0.0
 40
0.5
  0
CIRCLE
  5
F3
330
17
100
AcDbEntity
  8
WALL_MAIN
100
AcDbCircle
 10
105.06206623511385
 20
98.21343369293027
 30
0.0
 40
0.5
  0
CIRCLE
  5
F4
330
17
100
AcDbEntity
  8
WALL_MAIN
100
AcDbCircle
 10
103.85537745027489
 20
98.21343369293027
 30
0.0
 40
0.5
  0
CIRCLE
  5
F5
330
17
100
AcDbEntity
  8
WALL_MAIN
100
AcDbCircle
 10
102.64868866543591
 20
98.21343369293027
 30
0.0
 40
0.5
  0
CIRCLE
  5
F6
330
17
100
AcDbEntity
  8
WALL_MAIN
100
AcDbCircle
 10
101.44199988059695
 20
98.21343369293027
 30
0.0
 40
0.5
  0
CIRCLE
  5
F7
330
17
100
AcDbEntity
  8
WALL_MAIN
100
AcDbCircle
 10
100.235311095758
 20
98.21343369293027
 30
0.0
 40
0.5
  0
CIRCLE
  5
F8
330
17
100
AcDbEntity
  8
WALL_MAIN
100
AcDbCircle
 10
99.02862231091903
 20
98.21343369293027
 30
0.0
 40
0.5
  0
CIRCLE
  5
F9
330
17
100
AcDbEntity
  8
WALL_MAIN
100
AcDbCircle
 10
97.82193352608007
 20
98.21343369293027
 30
0.0
 40
0.5
  0
CIRCLE
  5
FA
330
17
100
AcDbEntity
  8
WALL_MAIN
100
AcDbCircle
 10
96.6152447412411
 20
98.21343369293027
 30
0.0
 40
0.5
  0
CIRCLE
  5
FB
330
17
100
AcDbEntity
  8
WALL_MAIN
100
AcDbCircle
 10
95.40855595640214
 20
98.21343369293027
 30
0.0
 40
0.5
  0
CIRCLE
  5
FC
330
17
100
AcDbEntity
  8
WALL_MAIN
100
AcDbCircle
 10
94.20186717156318
 20
98.21343369293027
 30
0.0
 40
0.5
  0
CIRCLE
  5
FD
330
17
100
AcDbEntity
  8
WALL_MAIN
100
AcDbCircle
 10
92.9951783867242
 20
98.21343369293027
 30
0.0
 40
0.5
  0
CIRCLE
  5
FE
330
17
100
AcDbEntity
  8
WALL_MAIN
100
AcDbCircle
 10
91.78848960188525
 20
98.21343369293027
 30
0.0
 40
0.5
  0
CIRCLE
  5
FF
330
17
100
AcDbEntity
  8
WALL_MAIN
100
AcDbCircle
 10
90.58180081704629
 20
98.21343369293027
 30
0.0
 40
0.5
  0
CIRCLE
  5
100
330
17
100
AcDbEntity
  8
WALL_MAIN
100
AcDbCircle
 10
89.37511203220733
 20
98.21343369293027
 30
0.0
 40
0.5
  0
CIRCLE
  5
101
330
17
100
AcDbEntity
  8
WALL_MAIN
100
AcDbCircle
 10
88.16842324736837
 20
98.21343369293027
 30
0.0
 40
0.5
  0
CIRCLE
  5
102
330
17
100
AcDbEntity
  8
WALL_MAIN
100
AcDbCircle
 10
86.96173446252939
 20
98.21343369293027
 30
0.0
 40
0.5
  0
CIRCLE
  5
103
330
17
100
AcDbEntity
  8
WALL_MAIN
100
AcDbCircle
 10
85.75504567769043
 20
98.21343369293027
 30
0.0
 40
0.5
  0
CIRCLE
  5
104
330
17
100
AcDbEntity
  8
WALL_MAIN
100
AcDbCircle
 10
84.54835689285147
 20
98.21343369293027
 30
0.0
 40
0.5
  0
CIRCLE
  5
105
330
17
100
AcDbEntity
  8
WALL_MAIN
100
AcDbCircle
 10
83.3416681080125
 20
98.21343369293027
 30
0.0
 40
0.5
  0
CIRCLE
  5
106
330
17
100
AcDbEntity
  8
WALL_MAIN
100
AcDbCircle
 10
82.13497932317354
 20
98.21343369293027
 30
0.0
 40
0.5
  0
CIRCLE
  5
107
330
17
100
AcDbEntity
  8
WALL_MAIN
100
AcDbCircle
 10
80.92829053833458
 20
98.21343369293027
 30
0.0
 40
0.5
  0
CIRCLE
  5
108
330
17
100
AcDbEntity
  8
WALL_MAIN
100
AcDbCircle
 10
79.72160175349562
 20
98.21343369293027
 30
0.0
 40
0.5
  0
CIRCLE
  5
109
330
17
100
AcDbEntity
  8
WALL_MAIN
100
AcDbCircle
 10
78.51491296865666
 20
98.21343369293027
 30
0.0
 40
0.5
  0
CIRCLE
  5
10A
330
17
100
AcDbEntity
  8
WALL_MAIN
100
AcDbCircle
 10
77.30822418381769
 20
98.21343369293027
 30
0.0
 40
0.5
  0
CIRCLE
  5
10B
330
17
100
AcDbEntity
  8
WALL_MAIN
100
AcDbCircle
 10
76.10153539897873
 20
98.21343369293027
 30
0.0
 40
0.5
  0
CIRCLE
  5
10C
330
17
100
AcDbEntity
  8
WALL_MAIN
100
AcDbCircle
 10
74.89484661413977
 20
98.21343369293027
 30
0.0
 40
0.5
  0
CIRCLE
  5
10D
330
17
100
AcDbEntity
  8
WALL_MAIN
100
AcDbCircle
 10
73.68815782930079
 20
98.21343369293027
 30
0.0
 40
0.5
  0
CIRCLE
  5
10E
330
17
100
AcDbEntity
  8
WALL_MAIN
100
AcDbCircle
 10
72.48146904446183
 20
98.21343369293027
 30
0.0
 40
0.5
  0
CIRCLE
  5
10F
330
17
100
AcDbEntity
  8
WALL_MAIN
100
AcDbCircle
 10
71.27478025962287
 20
98.21343369293027
 30
0.0
 40
0.5
  0
CIRCLE
  5
110
330
17
100
AcDbEntity
  8
WALL_MAIN
100
AcDbCircle
 10
70.06809147478391
 20
98.21343369293027
 30
0.0
 40
0.5
  0
CIRCLE
  5
111
330
17
100
AcDbEntity
  8
WALL_MAIN
100
AcDbCircle
 10
68.86140268994495
 20
98.21343369293027
 30
0.0
 40
0.5
  0
CIRCLE
  5
112
330
17
100
AcDbEntity
  8
WALL_MAIN
100
AcDbCircle
 10
67.65471390510598
 20
98.21343369293027
 30
0.0
 40
0.5
  0
CIRCLE
  5
113
330
17
100
AcDbEntity
  8
WALL_MAIN
100
AcDbCircle
 10
66.44802512026702
 20
98.21343369293027
 30
0.0
 40
0.5
  0
CIRCLE
  5
114
330
17
100
AcDbEntity
  8
WALL_MAIN
100
AcDbCircle
 10
65.24133633542806
 20
98.21343369293027
 30
0.0
 40
0.5
  0
CIRCLE
  5
115
330
17
100
AcDbEntity
  8
WALL_MAIN
100
AcDbCircle
 10
64.03464755058909
 20
98.21343369293027
 30
0.0
 40
0.5
  0
CIRCLE
  5
116
330
17
100
AcDbEntity
  8
WALL_MAIN
100
AcDbCircle
 10
62.827958765750125
 20
98.21343369293027
 30
0.0
 40
0.5
  0
CIRCLE
  5
117
330
17
100
AcDbEntity
  8
WALL_MAIN
100
AcDbCircle
 10
61.621269980911165
 20
98.21343369293027
 30
0.0
 40
0.5
  0
CIRCLE
  5
118
330
17
100
AcDbEntity
  8
WALL_MAIN
100
AcDbCircle
 10
60.414581196072206
 20
98.21343369293027
 30
0.0
 40
0.5
  0
CIRCLE
  5
119
330
17
100
AcDbEntity
  8
WALL_MAIN
100
AcDbCircle
 10
59.20789241123324
 20
98.21343369293027
 30
0.0
 40
0.5
  0
CIRCLE
  5
11A
330
17
100
AcDbEntity
  8
WALL_MAIN
100
AcDbCircle
 10
58.00120362639427
 20
98.21343369293027
 30
0.0
 40
0.5
  0
CIRCLE
  5
11B
330
17
100
AcDbEntity
  8
WALL_MAIN
100
AcDbCircle
 10
57.13881356659995
 20
97.36323911143523
 30
0.0
 40
0.5
  0
CIRCLE
  5
11C
330
17
100
AcDbEntity
  8
WALL_MAIN
100
AcDbCircle
 10
56.27642350680562
 20
96.5130445299402
 30
0.0
 40
0.5
  0
CIRCLE
  5
11D
330
17
100
AcDbEntity
  8
WALL_MAIN
100
AcDbCircle
 10
55.4140334470113
 20
95.66284994844517
 30
0.0
 40
0.5
  0
CIRCLE
  5
11E
330
17
100
AcDbEntity
  8
WALL_MAIN
100
AcDbCircle
 10
54.55164338721697
 20
94.81265536695012
 30
0.0
 40
0.5
  0
CIRCLE
  5
11F
330
17
100
AcDbEntity
  8
WALL_MAIN
100
AcDbCircle
 10
53.68925332742264
 20
93.9624607854551
 30
0.0
 40
0.5
  0
CIRCLE
  5
120
330
17
100
AcDbEntity
  8
WALL_MAIN
100
AcDbCircle
 10
52.82686326762831
 20
93.11226620396006
 30
0.0
 40
0.5
  0
CIRCLE
  5
121
330
17
100
AcDbEntity
  8
WALL_MAIN
100
AcDbCircle
 10
51.96447320783398
 20
92.26207162246503
 30
0.0
 40
0.5
  0
CIRCLE
  5
122
330
17
100
AcDbEntity
  8
WALL_MAIN
100
AcDbCircle
 10
51.10208314803966
 20
91.41187704097
 30
0.0
 40
0.5
  0
CIRCLE
  5
123
330
17
100
AcDbEntity
  8
WALL_MAIN
100
AcDbCircle
 10
50.23969308824533
 20
90.56168245947497
 30
0.0
 40
0.5
  0
CIRCLE
  5
124
330
17
100
AcDbEntity
  8
WALL_MAIN
100
AcDbCircle
 10
49.377303028451
 20
89.71148787797992
 30
0.0
 40
0.5
  0
CIRCLE
  5
125
330
17
100
AcDbEntity
  8
WALL_MAIN
100
AcDbCircle
 10
48.514912968656674
 20
88.86129329648489
 30
0.0
 40
0.5
  0
CIRCLE
  5
126
330
17
100
AcDbEntity
  8
WALL_MAIN
100
AcDbCircle
 10
47.65252290886235
 20
88.01109871498986
 30
0.0
 40
0.5
  0
CIRCLE
  5
127
330
17
100
AcDbEntity
  8
WALL_MAIN
100
AcDbCircle
 10
46.79013284906802
 20
87.16090413349482
 30
0.0
 40
0.5
  0
CIRCLE
  5
128
330
17
100
AcDbEntity
  8
WALL_MAIN
100
AcDbCircle
 10
45.927742789273694
 20
86.31070955199979
 30
0.0
 40
0.5
  0
CIRCLE
  5
129
330
17
100
AcDbEntity
  8
WALL_MAIN
100
AcDbCircle
 10
45.065352729479365
 20
85.46051497050476
 30
0.0
 40
0.5
  0
CIRCLE
  5
12A
330
17
100
AcDbEntity
  8
WALL_MAIN
100
AcDbCircle
 10
44.202962669685036
 20
84.61032038900973
 30
0.0
 40
0.5
  0
CIRCLE
  5
12B
330
17
100
AcDbEntity
  8
WALL_MAIN
100
AcDbCircle
 10
43.340572609890714
 20
83.76012580751468
 30
0.0
 40
0.5
  0
CIRCLE
  5
12C
330
17
100
AcDbEntity
  8
WALL_MAIN
100
AcDbCircle
 10
42.478182550096385
 20
82.90993122601965
 30
0.0
 40
0.5
  0
CIRCLE
  5
12D
330
17
100
AcDbEntity
  8
WALL_MAIN
100
AcDbCircle
 10
41.615792490302056
 20
82.05973664452462
 30
0.0
 40
0.5
  0
CIRCLE
  5
12E
330
17
100
AcDbEntity
  8
WALL_MAIN
100
AcDbCircle
 10
40.75340243050773
 20
81.20954206302959
 30
0.0
 40
0.5
  0
CIRCLE
  5
12F
330
17
100
AcDbEntity
  8
WALL_MAIN
100
AcDbCircle
 10
39.8910123707134
 20
80.35934748153456
 30
0.0
 40
0.5
  0
CIRCLE
  5
130
330
17
100
AcDbEntity
  8
WALL_MAIN
100
AcDbCircle
 10
39.028622310919076
 20
79.50915290003951
 30
0.0
 40
0.5
  0
CIRCLE
  5
131
330
17
100
AcDbEntity
  8
WALL_MAIN
100
AcDbCircle
 10
38.16623225112474
 20
78.65895831854448
 30
0.0
 40
0.5
  0
CIRCLE
  5
132
330
17
100
AcDbEntity
  8
WALL_MAIN
100
AcDbCircle
 10
37.30384219133042
 20
77.80876373704945
 30
0.0
 40
0.5
  0
CIRCLE
  5
133
330
17
100
AcDbEntity
  8
WALL_MAIN
100
AcDbCircle
 10
36.44145213153609
 20
76.95856915555441
 30
0.0
 40
0.5
  0
CIRCLE
  5
134
330
17
100
AcDbEntity
  8
WALL_MAIN
100
AcDbCircle
 10
35.57906207174176
 20
76.10837457405938
 30
0.0
 40
0.5
  0
CIRCLE
  5
135
330
17
100
AcDbEntity
  8
WALL_MAIN
100
AcDbCircle
 10
34.71667201194744
 20
75.25817999256435
 30
0.0
 40
0.5
  0
CIRCLE
  5
136
330
17
100
AcDbEntity
  8
WALL_MAIN
100
AcDbCircle
 10
33.8542819521531
 20
74.40798541106932
 30
0.0
 40
0.5
  0
CIRCLE
  5
137
330
17
100
AcDbEntity
  8
WALL_MAIN
100
AcDbCircle
 10
32.99189189235878
 20
73.55779082957429
 30
0.0
 40
0.5
  0
CIRCLE
  5
138
330
17
100
AcDbEntity
  8
WALL_MAIN
100
AcDbCircle
 10
32.12950183256445
 20
72.70759624807924
 30
0.0
 40
0.5
  0
CIRCLE
  5
139
330
17
100
AcDbEntity
  8
WALL_MAIN
100
AcDbCircle
 10
31.267111772770125
 20
71.85740166658421
 30
0.0
 40
0.5
  0
CIRCLE
  5
13A
330
17
100
AcDbEntity
  8
WALL_MAIN
100
AcDbCircle
 10
30.404721712975796
 20
71.00720708508918
 30
0.0
 40
0.5
  0
ENDSEC
  0
SECTION
  2
OBJECTS
  0
DICTIONARY
  5
A
330
0
100
AcDbDictionary
281
1
  3
ACAD_COLOR
350
B
  3
ACAD_GROUP
350
C
  3
ACAD_LAYOUT
350
D
  3
ACAD_MATERIAL
350
E
  3
ACAD_MLEADERSTYLE
350
F
  3
ACAD_MLINESTYLE
350
10
  3
ACAD_PLOTSETTINGS
350
11
  3
ACAD_PLOTSTYLENAME
350
12
  3
ACAD_SCALELIST
350
14
  3
ACAD_TABLESTYLE
350
15
  3
ACAD_VISUALSTYLE
350
16
  3
EZDXF_META
350
2D
  0
DICTIONARY
  5
B
330
A
100
AcDbDictionary
281
1
  0
DICTIONARY
  5
C
330
A
100
AcDbDictionary
281
1
  0
DICTIONARY
  5
D
330
A
100
AcDbDictionary
281
1
  3
Model
350
1A
  3
Layout1
350
1E
  0
DICTIONARY
  5
E
330
A
100
AcDbDictionary
281
1
  3
ByBlock
350
1F
  3
ByLayer
350
20
  3
Global
350
21
  0
DICTIONARY
  5
F
330
A
100
AcDbDictionary
281
1
  3
Standard
350
2C
  0
DICTIONARY
  5
10
330
A
100
AcDbDictionary
281
1
  3
Standard
350
22
  0
DICTIONARY
  5
11
330
A
100
AcDbDictionary
281
1
  0
ACDBDICTIONARYWDFLT
  5
12
330
A
100
AcDbDictionary
281
1
  3
Normal
350
13
100
AcDbDictionaryWithDefault
340
13
  0
ACDBPLACEHOLDER
  5
13
330
12
  0
DICTIONARY
  5
14
330
A
100
AcDbDictionary
281
1
  0
DICTIONARY
  5
15
330
A
100
AcDbDictionary
281
1
  0
DICTIONARY
  5
16
330
A
100
AcDbDictionary
281
1
  0
LAYOUT
  5
1A
330
D
100
AcDbPlotSettings
  1

  4
A3
  6

 40
7.5
 41
20.0
 42
7.5
 43
20.0
 44
420.0
 45
297.0
 46
0.0
 47
0.0
 48
0.0
 49
0.0
140
0.0
141
0.0
142
1.0
143
1.0
 70
1024
 72
1
 73
0
 74
5
  7

 75
16
 76
0
 77
2
 78
300
147
1.0
148
0.0
149
0.0
100
AcDbLayout
  1
Model
 70
1
 71
0
 10
0.0
 20
0.0
 11
420.0
 21
297.0
 12
0.0
 22
0.0
 32
0.0
 14
1e+20
 24
1e+20
 34
1e+20
 15
-1e+20
 25
-1e+20
 35
-1e+20
146
0.0
 13
0.0
 23
0.0
 33
0.0
 16
1.0
 26
0.0
 36
0.0
 17
0.0
 27
1.0
 37
0.0
 76
1
330
17
  0
LAYOUT
  5
1E
330
D
100
AcDbPlotSettings
  1

  4
A3
  6

 40
7.5
 41
20.0
 42
7.5
 43
20.0
 44
420.0
 45
297.0
 46
0.0
 47
0.0
 48
0.0
 49
0.0
140
0.0
141
0.0
142
1.0
143
1.0
 70
0
 72
1
 73
0
 74
5
  7

 75
16
 76
0
 77
2
 78
300
147
1.0
148
0.0
149
0.0
100
AcDbLayout
  1
Layout1
 70
1
 71
1
 10
0.0
 20
0.0
 11
420.0
 21
297.0
 12
0.0
 22
0.0
 32
0.0
 14
1e+20
 24
1e+20
 34
1e+20
 15
-1e+20
 25
-1e+20
 35
-1e+20
146
0.0
 13
0.0
 23
0.0
 33
0.0
 16
1.0
 26
0.0
 36
0.0
 17
0.0
 27
1.0
 37
0.0
 76
1
330
1B
  0
MATERIAL
  5
1F
102
{ACAD_REACTORS
330
E
102
}
330
E
100
AcDbMaterial
  1
ByBlock
  2

 70
0
 40
1.0
 71
1
 41
1.0
 91
-1023410177
 42
1.0
 72
1
  3

 73
1
 74
1
 75
1
 44
0.5
 73
0
 45
1.0
 46
1.0
 77
1
  4

 78
1
 79
1
170
1
 48
1.0
171
1
  6

172
1
173
1
174
1
140
1.0
141
1.0
175
1
  7

176
1
177
1
178
1
143
1.0
179
1
  8

270
1
271
1
272
1
145
1.0
146
1.0
273
1
  9

274
1
275
1
276
1
 42
1.0
 72
1
  3

 73
1
 74
1
 75
1
 94
63
  0
MATERIAL
  5
20
102
{ACAD_REACTORS
330
E
102
}
330
E
100
AcDbMaterial
  1
ByLayer
  2

 70
0
 40
1.0
 71
1
 41
1.0
 91
-1023410177
 42
1.0
 72
1
  3

 73
1
 74
1
 75
1
 44
0.5
 73
0
 45
1.0
 46
1.0
 77
1
  4

 78
1
 79
1
170
1
 48
1.0
171
1
  6

172
1
173
1
174
1
140
1.0
141
1.0
175
1
  7

176
1
177
1
178
1
143
1.0
179
1
  8

270
1
271
1
272
1
145
1.0
146
1.0
273
1
  9

274
1
275
1
276
1
 42
1.0
 72
1
  3

 73
1
 74
1
 75
1
 94
63
  0
MATERIAL
  5
21
102
{ACAD_REACTORS
330
E
102
}
330
E
100
AcDbMaterial
  1
Global
  2

 70
0
 40
1.0
 71
1
 41
1.0
 91
-1023410177
 42
1.0
 72
1
  3

 73
1
 74
1
 75
1
 44
0.5
 73
0
 45
1.0
 46
1.0
 77
1
  4

 78
1
 79
1
170
1
 48
1.0
171
1
  6

172
1
173
1
174
1
140
1.0
141
1.0
175
1
  7

176
1
177
1
178
1
143
1.0
179
1
  8

270
1
271
1
272
1
145
1.0
146
1.0
273
1
  9

274
1
275
1
276
1
 42
1.0
 72
1
  3

 73
1
 74
1
 75
1
 94
63
  0
MLINESTYLE
  5
22
102
{ACAD_REACTORS
330
10
102
}
330
10
100
AcDbMlineStyle
  2
Standard
 70
0
  3

 62
256
 51
90.0
 52
90.0
 71
2
 49
0.5
 62
256
  6
BYLAYER
 49
-0.5
 62
256
  6
BYLAYER
  0
MLEADERSTYLE
  5
2C
102
{ACAD_REACTORS
330
F
102
}
330
F
100
AcDbMLeaderStyle
179
2
170
2
171
1
172
0
 90
2
 40
0.0
 41
0.0
173
1
 91
-1056964608
 92
-2
290
1
 42
2.0
291
1
 43
8.0
  3
Standard
 44
4.0
300

342
29
174
1
175
1
176
0
178
1
 93
-1056964608
 45
4.0
292
0
297
0
 46
4.0
 94
-1056964608
 47
1.0
 49
1.0
140
1.0
294
1
141
0.0
177
0
142
1.0
295
0
296
0
143
3.75
271
0
272
9
273
9
  0
DICTIONARY
  5
2D
330
A
100
AcDbDictionary
280
1
281
1
  3
CREATED_BY_EZDXF
350
2E
  3
WRITTEN_BY_EZDXF
350
13D
  0
DICTIONARYVAR
  5
2E
330
2D
100
DictionaryVariables
280
0
  1
1.4.3 @ 2026-06-18T01:46:27.278692+00:00
  0
DICTIONARYVAR
  5
13D
330
2D
100
DictionaryVariables
280
0
  1
1.4.3 @ 2026-06-18T01:46:27.285566+00:00
  0
ENDSEC
  0
EOF
