  0
SECTION
  2
HEADER
  9
$ACADVER
  1
AC1024
  9
$ACADMAINTVER
 70
6
  9
$DWGCODEPAGE
  3
ANSI_1252
  9
$LASTSAVEDBY
  1
ezdxf
  9
$INSBASE
 10
0.0
 20
0.0
 30
0.0
  9
$EXTMIN
 10
1e+20
 20
1e+20
 30
1e+20
  9
$EXTMAX
 10
-1e+20
 20
-1e+20
 30
-1e+20
  9
$LIMMIN
 10
0.0
 20
0.0
  9
$LIMMAX
 10
420.0
 20
297.0
  9
$ORTHOMODE
 70
0
  9
$REGENMODE
 70
1
  9
$FILLMODE
 70
1
  9
$QTEXTMODE
 70
0
  9
$MIRRTEXT
 70
1
  9
$LTSCALE
 40
1.0
  9
$ATTMODE
 70
1
  9
$TEXTSIZE
 40
2.5
  9
$TRACEWID
 40
1.0
  9
$TEXTSTYLE
  7
Standard
  9
$CLAYER
  8
0
  9
$CELTYPE
  6
ByLayer
  9
$CECOLOR
 62
256
  9
$CELTSCALE
 40
1.0
  9
$DISPSILH
 70
0
  9
$DIMSCALE
 40
1.0
  9
$DIMASZ
 40
2.5
  9
$DIMEXO
 40
0.625
  9
$DIMDLI
 40
3.75
  9
$DIMRND
 40
0.0
  9
$DIMDLE
 40
0.0
  9
$DIMEXE
 40
1.25
  9
$DIMTP
 40
0.0
  9
$DIMTM
 40
0.0
  9
$DIMTXT
 40
2.5
  9
$DIMCEN
 40
2.5
  9
$DIMTSZ
 40
0.0
  9
$DIMTOL
 70
0
  9
$DIMLIM
 70
0
  9
$DIMTIH
 70
0
  9
$DIMTOH
 70
0
  9
$DIMSE1
 70
0
  9
$DIMSE2
 70
0
  9
$DIMTAD
 70
1
  9
$DIMZIN
 70
8
  9
$DIMBLK
  1

  9
$DIMASO
 70
1
  9
$DIMSHO
 70
1
  9
$DIMPOST
  1

  9
$DIMAPOST
  1

  9
$DIMALT
 70
0
  9
$DIMALTD
 70
3
  9
$DIMALTF
 40
0.03937007874
  9
$DIMLFAC
 40
1.0
  9
$DIMTOFL
 70
1
  9
$DIMTVP
 40
0.0
  9
$DIMTIX
 70
0
  9
$DIMSOXD
 70
0
  9
$DIMSAH
 70
0
  9
$DIMBLK1
  1

  9
$DIMBLK2
  1

  9
$DIMSTYLE
  2
ISO-25
  9
$DIMCLRD
 70
0
  9
$DIMCLRE
 70
0
  9
$DIMCLRT
 70
0
  9
$DIMTFAC
 40
1.0
  9
$DIMGAP
 40
0.625
  9
$DIMJUST
 70
0
  9
$DIMSD1
 70
0
  9
$DIMSD2
 70
0
  9
$DIMTOLJ
 70
0
  9
$DIMTZIN
 70
8
  9
$DIMALTZ
 70
0
  9
$DIMALTTZ
 70
0
  9
$DIMUPT
 70
0
  9
$DIMDEC
 70
2
  9
$DIMTDEC
 70
2
  9
$DIMALTU
 70
2
  9
$DIMALTTD
 70
3
  9
$DIMTXSTY
  7
Standard
  9
$DIMAUNIT
 70
0
  9
$DIMADEC
 70
0
  9
$DIMALTRND
 40
0.0
  9
$DIMAZIN
 70
0
  9
$DIMDSEP
 70
44
  9
$DIMATFIT
 70
3
  9
$DIMFRAC
 70
0
  9
$DIMLDRBLK
  1

  9
$DIMLUNIT
 70
2
  9
$DIMLWD
 70
-2
  9
$DIMLWE
 70
-2
  9
$DIMTMOVE
 70
0
  9
$DIMFXL
 40
1.0
  9
$DIMFXLON
 70
0
  9
$DIMJOGANG
 40
0.785398163397
  9
$DIMTFILL
 70
0
  9
$DIMTFILLCLR
 70
0
  9
$DIMARCSYM
 70
0
  9
$DIMLTYPE
  6

  9
$DIMLTEX1
  6

  9
$DIMLTEX2
  6

  9
$DIMTXTDIRECTION
 70
0
  9
$LUNITS
 70
2
  9
$LUPREC
 70
4
  9
$SKETCHINC
 40
1.0
  9
$FILLETRAD
 40
10.0
  9
$AUNITS
 70
0
  9
$AUPREC
 70
2
  9
$MENU
  1
.
  9
$ELEVATION
 40
0.0
  9
$PELEVATION
 40
0.0
  9
$THICKNESS
 40
0.0
  9
$LIMCHECK
 70
0
  9
$CHAMFERA
 40
0.0
  9
$CHAMFERB
 40
0.0
  9
$CHAMFERC
 40
0.0
  9
$CHAMFERD
 40
0.0
  9
$SKPOLY
 70
0
  9
$TDCREATE
 40
2461210.489502315
  9
$TDUCREATE
 40
2458532.153996898
  9
$TDUPDATE
 40
2461210.489502315
  9
$TDUUPDATE
 40
2458532.1544311
  9
$TDINDWG
 40
0.0
  9
$TDUSRTIMER
 40
0.0
  9
$USRTIMER
 70
1
  9
$ANGBASE
 50
0.0
  9
$ANGDIR
 70
0
  9
$PDMODE
 70
0
  9
$PDSIZE
 40
0.0
  9
$PLINEWID
 40
0.0
  9
$SPLFRAME
 70
0
  9
$SPLINETYPE
 70
6
  9
$SPLINESEGS
 70
8
  9
$HANDSEED
  5
411
  9
$SURFTAB1
 70
6
  9
$SURFTAB2
 70
6
  9
$SURFTYPE
 70
6
  9
$SURFU
 70
6
  9
$SURFV
 70
6
  9
$UCSBASE
  2

  9
$UCSNAME
  2

  9
$UCSORG
 10
0.0
 20
0.0
 30
0.0
  9
$UCSXDIR
 10
1.0
 20
0.0
 30
0.0
  9
$UCSYDIR
 10
0.0
 20
1.0
 30
0.0
  9
$UCSORTHOREF
  2

  9
$UCSORTHOVIEW
 70
0
  9
$UCSORGTOP
 10
0.0
 20
0.0
 30
0.0
  9
$UCSORGBOTTOM
 10
0.0
 20
0.0
 30
0.0
  9
$UCSORGLEFT
 10
0.0
 20
0.0
 30
0.0
  9
$UCSORGRIGHT
 10
0.0
 20
0.0
 30
0.0
  9
$UCSORGFRONT
 10
0.0
 20
0.0
 30
0.0
  9
$UCSORGBACK
 10
0.0
 20
0.0
 30
0.0
  9
$PUCSBASE
  2

  9
$PUCSNAME
  2

  9
$PUCSORG
 10
0.0
 20
0.0
 30
0.0
  9
$PUCSXDIR
 10
1.0
 20
0.0
 30
0.0
  9
$PUCSYDIR
 10
0.0
 20
1.0
 30
0.0
  9
$PUCSORTHOREF
  2

  9
$PUCSORTHOVIEW
 70
0
  9
$PUCSORGTOP
 10
0.0
 20
0.0
 30
0.0
  9
$PUCSORGBOTTOM
 10
0.0
 20
0.0
 30
0.0
  9
$PUCSORGLEFT
 10
0.0
 20
0.0
 30
0.0
  9
$PUCSORGRIGHT
 10
0.0
 20
0.0
 30
0.0
  9
$PUCSORGFRONT
 10
0.0
 20
0.0
 30
0.0
  9
$PUCSORGBACK
 10
0.0
 20
0.0
 30
0.0
  9
$USERI1
 70
0
  9
$USERI2
 70
0
  9
$USERI3
 70
0
  9
$USERI4
 70
0
  9
$USERI5
 70
0
  9
$USERR1
 40
0.0
  9
$USERR2
 40
0.0
  9
$USERR3
 40
0.0
  9
$USERR4
 40
0.0
  9
$USERR5
 40
0.0
  9
$WORLDVIEW
 70
1
  9
$SHADEDGE
 70
3
  9
$SHADEDIF
 70
70
  9
$TILEMODE
 70
1
  9
$MAXACTVP
 70
64
  9
$PINSBASE
 10
0.0
 20
0.0
 30
0.0
  9
$PLIMCHECK
 70
0
  9
$PEXTMIN
 10
1e+20
 20
1e+20
 30
1e+20
  9
$PEXTMAX
 10
-1e+20
 20
-1e+20
 30
-1e+20
  9
$PLIMMIN
 10
0.0
 20
0.0
  9
$PLIMMAX
 10
420.0
 20
297.0
  9
$UNITMODE
 70
0
  9
$VISRETAIN
 70
1
  9
$PLINEGEN
 70
0
  9
$PSLTSCALE
 70
1
  9
$TREEDEPTH
 70
3020
  9
$CMLSTYLE
  2
Standard
  9
$CMLJUST
 70
0
  9
$CMLSCALE
 40
20.0
  9
$PROXYGRAPHICS
 70
1
  9
$MEASUREMENT
 70
1
  9
$CELWEIGHT
370
-1
  9
$ENDCAPS
280
0
  9
$JOINSTYLE
280
0
  9
$LWDISPLAY
290
0
  9
$INSUNITS
 70
6
  9
$HYPERLINKBASE
  1

  9
$STYLESHEET
  1

  9
$XEDIT
290
1
  9
$CEPSNTYPE
380
0
  9
$PSTYLEMODE
290
1
  9
$FINGERPRINTGUID
  2
{3B657AA9-7442-476B-BDAF-B3068E282D5B}
  9
$VERSIONGUID
  2
{8F14DD97-DB2E-4B88-B2DC-3E3B5BAD3A0B}
  9
$EXTNAMES
290
1
  9
$PSVPSCALE
 40
0.0
  9
$OLESTARTUP
290
0
  9
$SORTENTS
280
127
  9
$INDEXCTL
280
0
  9
$HIDETEXT
280
1
  9
$XCLIPFRAME
280
1
  9
$HALOGAP
280
0
  9
$OBSCOLOR
 70
257
  9
$OBSLTYPE
280
0
  9
$INTERSECTIONDISPLAY
280
0
  9
$INTERSECTIONCOLOR
 70
257
  9
$DIMASSOC
280
2
  9
$PROJECTNAME
  1

  9
$CAMERADISPLAY
290
0
  9
$LENSLENGTH
 40
50.0
  9
$CAMERAHEIGHT
 40
0.0
  9
$STEPSPERSEC
 40
24.0
  9
$STEPSIZE
 40
100.0
  9
$3DDWFPREC
 40
2.0
  9
$PSOLWIDTH
 40
0.005
  9
$PSOLHEIGHT
 40
0.08
  9
$LOFTANG1
 40
1.570796326795
  9
$LOFTANG2
 40
1.570796326795
  9
$LOFTMAG1
 40
0.0
  9
$LOFTMAG2
 40
0.0
  9
$LOFTPARAM
 70
7
  9
$LOFTNORMALS
280
1
  9
$LATITUDE
 40
37.795
  9
$LONGITUDE
 40
-122.394
  9
$NORTHDIRECTION
 40
0.0
  9
$TIMEZONE
 70
-8000
  9
$LIGHTGLYPHDISPLAY
280
1
  9
$TILEMODELIGHTSYNCH
280
1
  9
$CMATERIAL
347
20
  9
$SOLIDHIST
280
0
  9
$SHOWHIST
280
1
  9
$DWFFRAME
280
2
  9
$DGNFRAME
280
2
  9
$REALWORLDSCALE
290
1
  9
$INTERFERECOLOR
 62
256
  9
$CSHADOW
280
0
  9
$SHADOWPLANELOCATION
 40
0.0
  0
ENDSEC
  0
SECTION
  2
CLASSES
  0
CLASS
  1
ACDBDICTIONARYWDFLT
  2
AcDbDictionaryWithDefault
  3
ObjectDBX Classes
 90
0
 91
0
280
0
281
0
  0
CLASS
  1
SUN
  2
AcDbSun
  3
SCENEOE
 90
1153
 91
0
280
0
281
0
  0
CLASS
  1
VISUALSTYLE
  2
AcDbVisualStyle
  3
ObjectDBX Classes
 90
4095
 91
0
280
0
281
0
  0
CLASS
  1
MATERIAL
  2
AcDbMaterial
  3
ObjectDBX Classes
 90
1153
 91
0
280
0
281
0
  0
CLASS
  1
SCALE
  2
AcDbScale
  3
ObjectDBX Classes
 90
1153
 91
0
280
0
281
0
  0
CLASS
  1
TABLESTYLE
  2
AcDbTableStyle
  3
ObjectDBX Classes
 90
4095
 91
0
280
0
281
0
  0
CLASS
  1
MLEADERSTYLE
  2
AcDbMLeaderStyle
  3
ACDB_MLEADERSTYLE_CLASS
 90
4095
 91
0
280
0
281
0
  0
CLASS
  1
DICTIONARYVAR
  2
AcDbDictionaryVar
  3
ObjectDBX Classes
 90
0
 91
0
280
0
281
0
  0
CLASS
  1
CELLSTYLEMAP
  2
AcDbCellStyleMap
  3
ObjectDBX Classes
 90
1152
 91
0
280
0
281
0
  0
CLASS
  1
MENTALRAYRENDERSETTINGS
  2
AcDbMentalRayRenderSettings
  3
SCENEOE
 90
1024
 91
0
280
0
281
0
  0
CLASS
  1
ACDBDETAILVIEWSTYLE
  2
AcDbDetailViewStyle
  3
ObjectDBX Classes
 90
1025
 91
0
280
0
281
0
  0
CLASS
  1
ACDBSECTIONVIEWSTYLE
  2
AcDbSectionViewStyle
  3
ObjectDBX Classes
 90
1025
 91
0
280
0
281
0
  0
CLASS
  1
RASTERVARIABLES
  2
AcDbRasterVariables
  3
ISM
 90
0
 91
0
280
0
281
0
  0
CLASS
  1
ACDBPLACEHOLDER
  2
AcDbPlaceHolder
  3
ObjectDBX Classes
 90
0
 91
0
280
0
281
0
  0
CLASS
  1
LAYOUT
  2
AcDbLayout
  3
ObjectDBX Classes
 90
0
 91
0
280
0
281
0
  0
ENDSEC
  0
SECTION
  2
TABLES
  0
TABLE
  2
VPORT
  5
8
330
0
100
AcDbSymbolTable
 70
1
  0
VPORT
  5
23
330
8
100
AcDbSymbolTableRecord
100
AcDbViewportTableRecord
  2
*Active
 70
0
 10
0.0
 20
0.0
 11
1.0
 21
1.0
 12
0.0
 22
0.0
 13
0.0
 23
0.0
 14
0.5
 24
0.5
 15
0.5
 25
0.5
 16
0.0
 26
0.0
 36
1.0
 17
0.0
 27
0.0
 37
0.0
 40
1000.0
 41
1.34
 42
50.0
 43
0.0
 44
0.0
 50
0.0
 51
0.0
 71
0
 72
1000
 73
1
 74
3
 75
0
 76
0
 77
0
 78
0
281
0
 65
0
146
0.0
  0
ENDTAB
  0
TABLE
  2
LTYPE
  5
2
330
0
100
AcDbSymbolTable
 70
3
  0
LTYPE
  5
24
330
2
100
AcDbSymbolTableRecord
100
AcDbLinetypeTableRecord
  2
ByBlock
 70
0
  3

 72
65
 73
0
 40
0.0
  0
LTYPE
  5
25
330
2
100
AcDbSymbolTableRecord
100
AcDbLinetypeTableRecord
  2
ByLayer
 70
0
  3

 72
65
 73
0
 40
0.0
  0
LTYPE
  5
26
330
2
100
AcDbSymbolTableRecord
100
AcDbLinetypeTableRecord
  2
Continuous
 70
0
  3

 72
65
 73
0
 40
0.0
  0
ENDTAB
  0
TABLE
  2
LAYER
  5
1
330
0
100
AcDbSymbolTable
 70
4
  0
LAYER
  5
27
330
1
100
AcDbSymbolTableRecord
100
AcDbLayerTableRecord
  2
0
 70
0
 62
7
  6
Continuous
370
-3
390
13
347
21
  0
LAYER
  5
28
330
1
100
AcDbSymbolTableRecord
100
AcDbLayerTableRecord
  2
Defpoints
 70
0
 62
7
  6
Continuous
290
0
370
-3
390
13
347
21
  0
LAYER
  5
2F
330
1
100
AcDbSymbolTableRecord
100
AcDbLayerTableRecord
  2
WALL_MAIN
 70
0
 62
3
  6
Continuous
370
-3
390
13
347
21
  0
LAYER
  5
30
330
1
100
AcDbSymbolTableRecord
100
AcDbLayerTableRecord
  2
WALL_CURTAIN
 70
0
 62
4
  6
Continuous
370
-3
390
13
347
21
  0
ENDTAB
  0
TABLE
  2
STYLE
  5
5
330
0
100
AcDbSymbolTable
 70
1
  0
STYLE
  5
29
330
5
100
AcDbSymbolTableRecord
100
AcDbTextStyleTableRecord
  2
Standard
 70
0
 40
0.0
 41
1.0
 50
0.0
 71
0
 42
2.5
  3
txt
  4

  0
ENDTAB
  0
TABLE
  2
VIEW
  5
7
330
0
100
AcDbSymbolTable
 70
0
  0
ENDTAB
  0
TABLE
  2
UCS
  5
6
330
0
100
AcDbSymbolTable
 70
0
  0
ENDTAB
  0
TABLE
  2
APPID
  5
3
330
0
100
AcDbSymbolTable
 70
3
  0
APPID
  5
2A
330
3
100
AcDbSymbolTableRecord
100
AcDbRegAppTableRecord
  2
ACAD
 70
0
  0
APPID
  5
40E
330
3
100
AcDbSymbolTableRecord
100
AcDbRegAppTableRecord
  2
HATCHBACKGROUNDCOLOR
 70
0
  0
APPID
  5
40F
330
3
100
AcDbSymbolTableRecord
100
AcDbRegAppTableRecord
  2
EZDXF
 70
0
  0
ENDTAB
  0
TABLE
  2
DIMSTYLE
  5
4
330
0
100
AcDbSymbolTable
 70
1
100
AcDbDimStyleTable
  0
DIMSTYLE
105
2B
330
4
100
AcDbSymbolTableRecord
100
AcDbDimStyleTableRecord
  2
Standard
 70
0
 40
1.0
 41
2.5
 42
0.625
 43
3.75
 44
1.25
 45
0.0
 46
0.0
 47
0.0
 48
0.0
 49
2.5
140
2.5
141
2.5
142
0.0
143
0.03937007874
144
1.0
145
0.0
146
1.0
147
0.625
148
0.0
 69
0
 70
0
 71
0
 72
0
 73
0
 74
0
 75
0
 76
0
 77
1
 78
8
 79
3
170
0
171
3
172
1
173
0
174
0
175
0
176
0
177
0
178
0
179
2
271
2
272
2
273
2
274
3
275
0
276
0
277
2
278
44
279
0
280
0
281
0
282
0
283
0
284
8
285
0
286
0
288
0
289
3
290
0
371
-2
372
-2
  0
ENDTAB
  0
TABLE
  2
BLOCK_RECORD
  5
9
330
0
100
AcDbSymbolTable
 70
2
  0
BLOCK_RECORD
  5
17
330
9
100
AcDbSymbolTableRecord
100
AcDbBlockTableRecord
  2
*Model_Space
340
1A
 70
0
280
1
281
0
  0
BLOCK_RECORD
  5
1B
330
9
100
AcDbSymbolTableRecord
100
AcDbBlockTableRecord
  2
*Paper_Space
340
1E
 70
0
280
1
281
0
  0
ENDTAB
  0
ENDSEC
  0
SECTION
  2
BLOCKS
  0
BLOCK
  5
18
330
17
100
AcDbEntity
  8
0
100
AcDbBlockBegin
  2
*Model_Space
 70
0
 10
0.0
 20
0.0
 30
0.0
  3
*Model_Space
  1

  0
ENDBLK
  5
19
330
17
100
AcDbEntity
  8
0
100
AcDbBlockEnd
  0
BLOCK
  5
1C
330
1B
100
AcDbEntity
  8
0
100
AcDbBlockBegin
  2
*Paper_Space
 70
0
 10
0.0
 20
0.0
 30
0.0
  3
*Paper_Space
  1

  0
ENDBLK
  5
1D
330
1B
100
AcDbEntity
  8
0
100
AcDbBlockEnd
  0
ENDSEC
  0
SECTION
  2
ENTITIES
  0
CIRCLE
  5
31
330
17
100
AcDbEntity
  8
WALL_MAIN
100
AcDbCircle
 10
29.54233165318147
 20
70.15701250359415
 30
0.0
 40
0.5
  0
CIRCLE
  5
32
330
17
100
AcDbEntity
  8
WALL_MAIN
100
AcDbCircle
 10
29.54233165318147
 20
68.94902229869498
 30
0.0
 40
0.5
  0
CIRCLE
  5
33
330
17
100
AcDbEntity
  8
WALL_MAIN
100
AcDbCircle
 10
29.54233165318147
 20
67.74103209379582
 30
0.0
 40
0.5
  0
CIRCLE
  5
34
330
17
100
AcDbEntity
  8
WALL_MAIN
100
AcDbCircle
 10
29.54233165318147
 20
66.53304188889666
 30
0.0
 40
0.5
  0
CIRCLE
  5
35
330
17
100
AcDbEntity
  8
WALL_MAIN
100
AcDbCircle
 10
29.54233165318147
 20
65.3250516839975
 30
0.0
 40
0.5
  0
CIRCLE
  5
36
330
17
100
AcDbEntity
  8
WALL_MAIN
100
AcDbCircle
 10
29.54233165318147
 20
64.11706147909834
 30
0.0
 40
0.5
  0
CIRCLE
  5
37
330
17
100
AcDbEntity
  8
WALL_MAIN
100
AcDbCircle
 10
29.54233165318147
 20
62.909071274199185
 30
0.0
 40
0.5
  0
CIRCLE
  5
38
330
17
100
AcDbEntity
  8
WALL_MAIN
100
AcDbCircle
 10
29.54233165318147
 20
61.701081069300024
 30
0.0
 40
0.5
  0
CIRCLE
  5
39
330
17
100
AcDbEntity
  8
WALL_MAIN
100
AcDbCircle
 10
29.54233165318147
 20
60.49309086440086
 30
0.0
 40
0.5
  0
CIRCLE
  5
3A
330
17
100
AcDbEntity
  8
WALL_MAIN
100
AcDbCircle
 10
29.54233165318147
 20
59.28510065950171
 30
0.0
 40
0.5
  0
CIRCLE
  5
3B
330
17
100
AcDbEntity
  8
WALL_MAIN
100
AcDbCircle
 10
29.54233165318147
 20
58.07711045460255
 30
0.0
 40
0.5
  0
CIRCLE
  5
3C
330
17
100
AcDbEntity
  8
WALL_MAIN
100
AcDbCircle
 10
29.54233165318147
 20
56.869120249703386
 30
0.0
 40
0.5
  0
CIRCLE
  5
3D
330
17
100
AcDbEntity
  8
WALL_MAIN
100
AcDbCircle
 10
29.54233165318147
 20
55.661130044804224
 30
0.0
 40
0.5
  0
CIRCLE
  5
3E
330
17
100
AcDbEntity
  8
WALL_MAIN
100
AcDbCircle
 10
29.54233165318147
 20
54.45313983990506
 30
0.0
 40
0.5
  0
CIRCLE
  5
3F
330
17
100
AcDbEntity
  8
WALL_MAIN
100
AcDbCircle
 10
29.54233165318147
 20
53.2451496350059
 30
0.0
 40
0.5
  0
CIRCLE
  5
40
330
17
100
AcDbEntity
  8
WALL_MAIN
100
AcDbCircle
 10
29.54233165318147
 20
52.03715943010674
 30
0.0
 40
0.5
  0
CIRCLE
  5
41
330
17
100
AcDbEntity
  8
WALL_MAIN
100
AcDbCircle
 10
29.54233165318147
 20
50.82916922520758
 30
0.0
 40
0.5
  0
CIRCLE
  5
42
330
17
100
AcDbEntity
  8
WALL_MAIN
100
AcDbCircle
 10
29.54233165318147
 20
49.62117902030842
 30
0.0
 40
0.5
  0
CIRCLE
  5
43
330
17
100
AcDbEntity
  8
WALL_MAIN
100
AcDbCircle
 10
29.54233165318147
 20
48.413188815409264
 30
0.0
 40
0.5
  0
CIRCLE
  5
44
330
17
100
AcDbEntity
  8
WALL_MAIN
100
AcDbCircle
 10
29.54233165318147
 20
47.2051986105101
 30
0.0
 40
0.5
  0
CIRCLE
  5
45
330
17
100
AcDbEntity
  8
WALL_MAIN
100
AcDbCircle
 10
29.54233165318147
 20
45.99720840561094
 30
0.0
 40
0.5
  0
CIRCLE
  5
46
330
17
100
AcDbEntity
  8
WALL_MAIN
100
AcDbCircle
 10
29.54233165318147
 20
44.78921820071179
 30
0.0
 40
0.5
  0
CIRCLE
  5
47
330
17
100
AcDbEntity
  8
WALL_MAIN
100
AcDbCircle
 10
29.54233165318147
 20
43.581227995812625
 30
0.0
 40
0.5
  0
CIRCLE
  5
48
330
17
100
AcDbEntity
  8
WALL_MAIN
100
AcDbCircle
 10
29.54233165318147
 20
42.373237790913464
 30
0.0
 40
0.5
  0
CIRCLE
  5
49
330
17
100
AcDbEntity
  8
WALL_MAIN
100
AcDbCircle
 10
29.54233165318147
 20
41.1652475860143
 30
0.0
 40
0.5
  0
CIRCLE
  5
4A
330
17
100
AcDbEntity
  8
WALL_MAIN
100
AcDbCircle
 10
29.54233165318147
 20
39.95725738111514
 30
0.0
 40
0.5
  0
CIRCLE
  5
4B
330
17
100
AcDbEntity
  8
WALL_MAIN
100
AcDbCircle
 10
29.54233165318147
 20
38.74926717621598
 30
0.0
 40
0.5
  0
CIRCLE
  5
4C
330
17
100
AcDbEntity
  8
WALL_MAIN
100
AcDbCircle
 10
29.54233165318147
 20
37.54127697131682
 30
0.0
 40
0.5
  0
CIRCLE
  5
4D
330
17
100
AcDbEntity
  8
WALL_MAIN
100
AcDbCircle
 10
29.54233165318147
 20
36.33328676641766
 30
0.0
 40
0.5
  0
CIRCLE
  5
4E
330
17
100
AcDbEntity
  8
WALL_MAIN
100
AcDbCircle
 10
29.54233165318147
 20
35.1252965615185
 30
0.0
 40
0.5
  0
CIRCLE
  5
4F
330
17
100
AcDbEntity
  8
WALL_MAIN
100
AcDbCircle
 10
29.54233165318147
 20
33.91730635661934
 30
0.0
 40
0.5
  0
CIRCLE
  5
50
330
17
100
AcDbEntity
  8
WALL_MAIN
100
AcDbCircle
 10
29.54233165318147
 20
32.70931615172018
 30
0.0
 40
0.5
  0
CIRCLE
  5
51
330
17
100
AcDbEntity
  8
WALL_MAIN
100
AcDbCircle
 10
29.54233165318147
 20
31.50132594682102
 30
0.0
 40
0.5
  0
CIRCLE
  5
52
330
17
100
AcDbEntity
  8
WALL_MAIN
100
AcDbCircle
 10
29.54233165318147
 20
30.293335741921858
 30
0.0
 40
0.5
  0
CIRCLE
  5
53
330
17
100
AcDbEntity
  8
WALL_MAIN
100
AcDbCircle
 10
29.54233165318147
 20
29.085345537022697
 30
0.0
 40
0.5
  0
CIRCLE
  5
54
330
17
100
AcDbEntity
  8
WALL_MAIN
100
AcDbCircle
 10
29.54233165318147
 20
27.877355332123535
 30
0.0
 40
0.5
  0
CIRCLE
  5
55
330
17
100
AcDbEntity
  8
WALL_MAIN
100
AcDbCircle
 10
29.54233165318147
 20
26.66936512722438
 30
0.0
 40
0.5
  0
CIRCLE
  5
56
330
17
100
AcDbEntity
  8
WALL_MAIN
100
AcDbCircle
 10
29.54233165318147
 20
25.46137492232522
 30
0.0
 40
0.5
  0
CIRCLE
  5
57
330
17
100
AcDbEntity
  8
WALL_MAIN
100
AcDbCircle
 10
29.54233165318147
 20
24.25338471742606
 30
0.0
 40
0.5
  0
CIRCLE
  5
58
330
17
100
AcDbEntity
  8
WALL_MAIN
100
AcDbCircle
 10
29.54233165318147
 20
23.045394512526897
 30
0.0
 40
0.5
  0
CIRCLE
  5
59
330
17
100
AcDbEntity
  8
WALL_MAIN
100
AcDbCircle
 10
29.54233165318147
 20
21.837404307627736
 30
0.0
 40
0.5
  0
CIRCLE
  5
5A
330
17
100
AcDbEntity
  8
WALL_MAIN
100
AcDbCircle
 10
29.54233165318147
 20
20.629414102728575
 30
0.0
 40
0.5
  0
CIRCLE
  5
5B
330
17
100
AcDbEntity
  8
WALL_MAIN
100
AcDbCircle
 10
29.54233165318147
 20
19.42142389782942
 30
0.0
 40
0.5
  0
CIRCLE
  5
5C
330
17
100
AcDbEntity
  8
WALL_MAIN
100
AcDbCircle
 10
29.54233165318147
 20
18.21343369293026
 30
0.0
 40
0.5
  0
CIRCLE
  5
5D
330
17
100
AcDbEntity
  8
WALL_MAIN
100
AcDbCircle
 10
30.758547869397685
 20
18.21343369293026
 30
0.0
 40
0.5
  0
CIRCLE
  5
5E
330
17
100
AcDbEntity
  8
WALL_MAIN
100
AcDbCircle
 10
31.974764085613902
 20
18.21343369293026
 30
0.0
 40
0.5
  0
CIRCLE
  5
5F
330
17
100
AcDbEntity
  8
WALL_MAIN
100
AcDbCircle
 10
33.190980301830116
 20
18.21343369293026
 30
0.0
 40
0.5
  0
CIRCLE
  5
60
330
17
100
AcDbEntity
  8
WALL_MAIN
100
AcDbCircle
 10
34.407196518046334
 20
18.21343369293026
 30
0.0
 40
0.5
  0
CIRCLE
  5
61
330
17
100
AcDbEntity
  8
WALL_MAIN
100
AcDbCircle
 10
35.623412734262544
 20
18.21343369293026
 30
0.0
 40
0.5
  0
CIRCLE
  5
62
330
17
100
AcDbEntity
  8
WALL_MAIN
100
AcDbCircle
 10
36.83962895047876
 20
18.21343369293026
 30
0.0
 40
0.5
  0
CIRCLE
  5
63
330
17
100
AcDbEntity
  8
WALL_MAIN
100
AcDbCircle
 10
38.05584516669498
 20
18.21343369293026
 30
0.0
 40
0.5
  0
CIRCLE
  5
64
330
17
100
AcDbEntity
  8
WALL_MAIN
100
AcDbCircle
 10
39.27206138291119
 20
18.21343369293026
 30
0.0
 40
0.5
  0
CIRCLE
  5
65
330
17
100
AcDbEntity
  8
WALL_MAIN
100
AcDbCircle
 10
40.48827759912741
 20
18.21343369293026
 30
0.0
 40
0.5
  0
CIRCLE
  5
66
330
17
100
AcDbEntity
  8
WALL_MAIN
100
AcDbCircle
 10
41.704493815343625
 20
18.21343369293026
 30
0.0
 40
0.5
  0
CIRCLE
  5
67
330
17
100
AcDbEntity
  8
WALL_MAIN
100
AcDbCircle
 10
42.920710031559835
 20
18.21343369293026
 30
0.0
 40
0.5
  0
CIRCLE
  5
68
330
17
100
AcDbEntity
  8
WALL_MAIN
100
AcDbCircle
 10
44.13692624777605
 20
18.21343369293026
 30
0.0
 40
0.5
  0
CIRCLE
  5
69
330
17
100
AcDbEntity
  8
WALL_MAIN
100
AcDbCircle
 10
45.35314246399227
 20
18.21343369293026
 30
0.0
 40
0.5
  0
CIRCLE
  5
6A
330
17
100
AcDbEntity
  8
WALL_MAIN
100
AcDbCircle
 10
46.56935868020848
 20
18.21343369293026
 30
0.0
 40
0.5
  0
CIRCLE
  5
6B
330
17
100
AcDbEntity
  8
WALL_MAIN
100
AcDbCircle
 10
47.785574896424706
 20
18.21343369293026
 30
0.0
 40
0.5
  0
CIRCLE
  5
6C
330
17
100
AcDbEntity
  8
WALL_MAIN
100
AcDbCircle
 10
49.001791112640916
 20
18.21343369293026
 30
0.0
 40
0.5
  0
CIRCLE
  5
6D
330
17
100
AcDbEntity
  8
WALL_MAIN
100
AcDbCircle
 10
50.21800732885713
 20
18.21343369293026
 30
0.0
 40
0.5
  0
CIRCLE
  5
6E
330
17
100
AcDbEntity
  8
WALL_MAIN
100
AcDbCircle
 10
51.43422354507335
 20
18.21343369293026
 30
0.0
 40
0.5
  0
CIRCLE
  5
6F
330
17
100
AcDbEntity
  8
WALL_MAIN
100
AcDbCircle
 10
52.65043976128956
 20
18.21343369293026
 30
0.0
 40
0.5
  0
CIRCLE
  5
70
330
17
100
AcDbEntity
  8
WALL_MAIN
100
AcDbCircle
 10
53.86665597750578
 20
18.21343369293026
 30
0.0
 40
0.5
  0
CIRCLE
  5
71
330
17
100
AcDbEntity
  8
WALL_MAIN
100
AcDbCircle
 10
55.082872193722
 20
18.21343369293026
 30
0.0
 40
0.5
  0
CIRCLE
  5
72
330
17
100
AcDbEntity
  8
WALL_MAIN
100
AcDbCircle
 10
56.29908840993821
 20
18.21343369293026
 30
0.0
 40
0.5
  0
CIRCLE
  5
73
330
17
100
AcDbEntity
  8
WALL_MAIN
100
AcDbCircle
 10
57.515304626154425
 20
18.21343369293026
 30
0.0
 40
0.5
  0
CIRCLE
  5
74
330
17
100
AcDbEntity
  8
WALL_MAIN
100
AcDbCircle
 10
58.73152084237064
 20
18.21343369293026
 30
0.0
 40
0.5
  0
CIRCLE
  5
75
330
17
100
AcDbEntity
  8
WALL_MAIN
100
AcDbCircle
 10
59.94773705858685
 20
18.21343369293026
 30
0.0
 40
0.5
  0
CIRCLE
  5
76
330
17
100
AcDbEntity
  8
WALL_MAIN
100
AcDbCircle
 10
61.16395327480307
 20
18.21343369293026
 30
0.0
 40
0.5
  0
CIRCLE
  5
77
330
17
100
AcDbEntity
  8
WALL_MAIN
100
AcDbCircle
 10
62.38016949101929
 20
18.21343369293026
 30
0.0
 40
0.5
  0
CIRCLE
  5
78
330
17
100
AcDbEntity
  8
WALL_MAIN
100
AcDbCircle
 10
63.5963857072355
 20
18.21343369293026
 30
0.0
 40
0.5
  0
CIRCLE
  5
79
330
17
100
AcDbEntity
  8
WALL_MAIN
100
AcDbCircle
 10
64.81260192345172
 20
18.21343369293026
 30
0.0
 40
0.5
  0
CIRCLE
  5
7A
330
17
100
AcDbEntity
  8
WALL_MAIN
100
AcDbCircle
 10
66.02881813966793
 20
18.21343369293026
 30
0.0
 40
0.5
  0
CIRCLE
  5
7B
330
17
100
AcDbEntity
  8
WALL_MAIN
100
AcDbCircle
 10
67.24503435588414
 20
18.21343369293026
 30
0.0
 40
0.5
  0
CIRCLE
  5
7C
330
17
100
AcDbEntity
  8
WALL_MAIN
100
AcDbCircle
 10
68.46125057210037
 20
18.21343369293026
 30
0.0
 40
0.5
  0
CIRCLE
  5
7D
330
17
100
AcDbEntity
  8
WALL_MAIN
100
AcDbCircle
 10
69.67746678831658
 20
18.21343369293026
 30
0.0
 40
0.5
  0
CIRCLE
  5
7E
330
17
100
AcDbEntity
  8
WALL_MAIN
100
AcDbCircle
 10
70.89368300453279
 20
18.21343369293026
 30
0.0
 40
0.5
  0
CIRCLE
  5
7F
330
17
100
AcDbEntity
  8
WALL_MAIN
100
AcDbCircle
 10
72.10989922074901
 20
18.21343369293026
 30
0.0
 40
0.5
  0
CIRCLE
  5
80
330
17
100
AcDbEntity
  8
WALL_MAIN
100
AcDbCircle
 10
73.32611543696522
 20
18.21343369293026
 30
0.0
 40
0.5
  0
CIRCLE
  5
81
330
17
100
AcDbEntity
  8
WALL_MAIN
100
AcDbCircle
 10
74.54233165318144
 20
18.21343369293026
 30
0.0
 40
0.5
  0
CIRCLE
  5
82
330
17
100
AcDbEntity
  8
WALL_MAIN
100
AcDbCircle
 10
75.75854786939766
 20
18.21343369293026
 30
0.0
 40
0.5
  0
CIRCLE
  5
83
330
17
100
AcDbEntity
  8
WALL_MAIN
100
AcDbCircle
 10
76.97476408561387
 20
18.21343369293026
 30
0.0
 40
0.5
  0
CIRCLE
  5
84
330
17
100
AcDbEntity
  8
WALL_MAIN
100
AcDbCircle
 10
78.19098030183008
 20
18.21343369293026
 30
0.0
 40
0.5
  0
CIRCLE
  5
85
330
17
100
AcDbEntity
  8
WALL_MAIN
100
AcDbCircle
 10
79.4071965180463
 20
18.21343369293026
 30
0.0
 40
0.5
  0
CIRCLE
  5
86
330
17
100
AcDbEntity
  8
WALL_MAIN
100
AcDbCircle
 10
80.62341273426252
 20
18.21343369293026
 30
0.0
 40
0.5
  0
CIRCLE
  5
87
330
17
100
AcDbEntity
  8
WALL_MAIN
100
AcDbCircle
 10
81.83962895047873
 20
18.21343369293026
 30
0.0
 40
0.5
  0
CIRCLE
  5
88
330
17
100
AcDbEntity
  8
WALL_MAIN
100
AcDbCircle
 10
83.05584516669495
 20
18.21343369293026
 30
0.0
 40
0.5
  0
CIRCLE
  5
89
330
17
100
AcDbEntity
  8
WALL_MAIN
100
AcDbCircle
 10
84.27206138291116
 20
18.21343369293026
 30
0.0
 40
0.5
  0
CIRCLE
  5
8A
330
17
100
AcDbEntity
  8
WALL_MAIN
100
AcDbCircle
 10
85.48827759912737
 20
18.21343369293026
 30
0.0
 40
0.5
  0
CIRCLE
  5
8B
330
17
100
AcDbEntity
  8
WALL_MAIN
100
AcDbCircle
 10
86.7044938153436
 20
18.21343369293026
 30
0.0
 40
0.5
  0
CIRCLE
  5
8C
330
17
100
AcDbEntity
  8
WALL_MAIN
100
AcDbCircle
 10
87.9207100315598
 20
18.21343369293026
 30
0.0
 40
0.5
  0
CIRCLE
  5
8D
330
17
100
AcDbEntity
  8
WALL_MAIN
100
AcDbCircle
 10
89.13692624777602
 20
18.21343369293026
 30
0.0
 40
0.5
  0
CIRCLE
  5
8E
330
17
100
AcDbEntity
  8
WALL_MAIN
100
AcDbCircle
 10
90.35314246399224
 20
18.21343369293026
 30
0.0
 40
0.5
  0
CIRCLE
  5
8F
330
17
100
AcDbEntity
  8
WALL_MAIN
100
AcDbCircle
 10
91.56935868020845
 20
18.21343369293026
 30
0.0
 40
0.5
  0
CIRCLE
  5
90
330
17
100
AcDbEntity
  8
WALL_MAIN
100
AcDbCircle
 10
92.78557489642466
 20
18.21343369293026
 30
0.0
 40
0.5
  0
CIRCLE
  5
91
330
17
100
AcDbEntity
  8
WALL_MAIN
100
AcDbCircle
 10
94.00179111264089
 20
18.21343369293026
 30
0.0
 40
0.5
  0
CIRCLE
  5
92
330
17
100
AcDbEntity
  8
WALL_MAIN
100
AcDbCircle
 10
95.21800732885711
 20
18.21343369293026
 30
0.0
 40
0.5
  0
CIRCLE
  5
93
330
17
100
AcDbEntity
  8
WALL_MAIN
100
AcDbCircle
 10
96.43422354507331
 20
18.21343369293026
 30
0.0
 40
0.5
  0
CIRCLE
  5
94
330
17
100
AcDbEntity
  8
WALL_MAIN
100
AcDbCircle
 10
97.65043976128953
 20
18.21343369293026
 30
0.0
 40
0.5
  0
CIRCLE
  5
95
330
17
100
AcDbEntity
  8
WALL_MAIN
100
AcDbCircle
 10
98.86665597750576
 20
18.21343369293026
 30
0.0
 40
0.5
  0
CIRCLE
  5
96
330
17
100
AcDbEntity
  8
WALL_MAIN
100
AcDbCircle
 10
100.08287219372195
 20
18.21343369293026
 30
0.0
 40
0.5
  0
CIRCLE
  5
97
330
17
100
AcDbEntity
  8
WALL_MAIN
100
AcDbCircle
 10
101.29908840993818
 20
18.21343369293026
 30
0.0
 40
0.5
  0
CIRCLE
  5
98
330
17
100
AcDbEntity
  8
WALL_MAIN
100
AcDbCircle
 10
102.5153046261544
 20
18.21343369293026
 30
0.0
 40
0.5
  0
CIRCLE
  5
99
330
17
100
AcDbEntity
  8
WALL_MAIN
100
AcDbCircle
 10
103.7315208423706
 20
18.21343369293026
 30
0.0
 40
0.5
  0
CIRCLE
  5
9A
330
17
100
AcDbEntity
  8
WALL_MAIN
100
AcDbCircle
 10
104.94773705858682
 20
18.21343369293026
 30
0.0
 40
0.5
  0
CIRCLE
  5
9B
330
17
100
AcDbEntity
  8
WALL_MAIN
100
AcDbCircle
 10
106.16395327480305
 20
18.21343369293026
 30
0.0
 40
0.5
  0
CIRCLE
  5
9C
330
17
100
AcDbEntity
  8
WALL_MAIN
100
AcDbCircle
 10
107.38016949101925
 20
18.21343369293026
 30
0.0
 40
0.5
  0
CIRCLE
  5
9D
330
17
100
AcDbEntity
  8
WALL_MAIN
100
AcDbCircle
 10
108.59638570723547
 20
18.21343369293026
 30
0.0
 40
0.5
  0
CIRCLE
  5
9E
330
17
100
AcDbEntity
  8
WALL_MAIN
100
AcDbCircle
 10
109.8126019234517
 20
18.21343369293026
 30
0.0
 40
0.5
  0
CIRCLE
  5
9F
330
17
100
AcDbEntity
  8
WALL_MAIN
100
AcDbCircle
 10
111.02881813966789
 20
18.21343369293026
 30
0.0
 40
0.5
  0
CIRCLE
  5
A0
330
17
100
AcDbEntity
  8
WALL_MAIN
100
AcDbCircle
 10
112.24503435588412
 20
18.21343369293026
 30
0.0
 40
0.5
  0
CIRCLE
  5
A1
330
17
100
AcDbEntity
  8
WALL_MAIN
100
AcDbCircle
 10
113.46125057210034
 20
18.21343369293026
 30
0.0
 40
0.5
  0
CIRCLE
  5
A2
330
17
100
AcDbEntity
  8
WALL_MAIN
100
AcDbCircle
 10
114.67746678831654
 20
18.21343369293026
 30
0.0
 40
0.5
  0
CIRCLE
  5
A3
330
17
100
AcDbEntity
  8
WALL_MAIN
100
AcDbCircle
 10
115.89368300453276
 20
18.21343369293026
 30
0.0
 40
0.5
  0
CIRCLE
  5
A4
330
17
100
AcDbEntity
  8
WALL_MAIN
100
AcDbCircle
 10
117.10989922074899
 20
18.21343369293026
 30
0.0
 40
0.5
  0
CIRCLE
  5
A5
330
17
100
AcDbEntity
  8
WALL_MAIN
100
AcDbCircle
 10
118.32611543696518
 20
18.21343369293026
 30
0.0
 40
0.5
  0
CIRCLE
  5
A6
330
17
100
AcDbEntity
  8
WALL_MAIN
100
AcDbCircle
 10
119.5423316531814
 20
18.21343369293026
 30
0.0
 40
0.5
  0
CIRCLE
  5
A7
330
17
100
AcDbEntity
  8
WALL_MAIN
100
AcDbCircle
 10
119.5423316531814
 20
19.42555490505147
 30
0.0
 40
0.5
  0
CIRCLE
  5
A8
330
17
100
AcDbEntity
  8
WALL_MAIN
100
AcDbCircle
 10
119.5423316531814
 20
20.637676117172685
 30
0.0
 40
0.5
  0
CIRCLE
  5
A9
330
17
100
AcDbEntity
  8
WALL_MAIN
100
AcDbCircle
 10
119.5423316531814
 20
21.849797329293896
 30
0.0
 40
0.5
  0
CIRCLE
  5
AA
330
17
100
AcDbEntity
  8
WALL_MAIN
100
AcDbCircle
 10
119.5423316531814
 20
23.061918541415107
 30
0.0
 40
0.5
  0
CIRCLE
  5
AB
330
17
100
AcDbEntity
  8
WALL_MAIN
100
AcDbCircle
 10
119.5423316531814
 20
24.27403975353632
 30
0.0
 40
0.5
  0
CIRCLE
  5
AC
330
17
100
AcDbEntity
  8
WALL_MAIN
100
AcDbCircle
 10
119.5423316531814
 20
25.486160965657533
 30
0.0
 40
0.5
  0
CIRCLE
  5
AD
330
17
100
AcDbEntity
  8
WALL_MAIN
100
AcDbCircle
 10
119.5423316531814
 20
26.698282177778744
 30
0.0
 40
0.5
  0
CIRCLE
  5
AE
330
17
100
AcDbEntity
  8
WALL_MAIN
100
AcDbCircle
 10
119.5423316531814
 20
27.910403389899955
 30
0.0
 40
0.5
  0
CIRCLE
  5
AF
330
17
100
AcDbEntity
  8
WALL_MAIN
100
AcDbCircle
 10
119.5423316531814
 20
29.12252460202117
 30
0.0
 40
0.5
  0
CIRCLE
  5
B0
330
17
100
AcDbEntity
  8
WALL_MAIN
100
AcDbCircle
 10
119.5423316531814
 20
30.33464581414238
 30
0.0
 40
0.5
  0
CIRCLE
  5
B1
330
17
100
AcDbEntity
  8
WALL_MAIN
100
AcDbCircle
 10
119.5423316531814
 20
31.546767026263595
 30
0.0
 40
0.5
  0
CIRCLE
  5
B2
330
17
100
AcDbEntity
  8
WALL_MAIN
100
AcDbCircle
 10
119.5423316531814
 20
32.758888238384806
 30
0.0
 40
0.5
  0
CIRCLE
  5
B3
330
17
100
AcDbEntity
  8
WALL_MAIN
100
AcDbCircle
 10
119.5423316531814
 20
33.97100945050602
 30
0.0
 40
0.5
  0
CIRCLE
  5
B4
330
17
100
AcDbEntity
  8
WALL_MAIN
100
AcDbCircle
 10
119.5423316531814
 20
35.18313066262723
 30
0.0
 40
0.5
  0
CIRCLE
  5
B5
330
17
100
AcDbEntity
  8
WALL_MAIN
100
AcDbCircle
 10
119.5423316531814
 20
36.39525187474844
 30
0.0
 40
0.5
  0
CIRCLE
  5
B6
330
17
100
AcDbEntity
  8
WALL_MAIN
100
AcDbCircle
 10
119.5423316531814
 20
37.60737308686966
 30
0.0
 40
0.5
  0
CIRCLE
  5
B7
330
17
100
AcDbEntity
  8
WALL_MAIN
100
AcDbCircle
 10
119.5423316531814
 20
38.81949429899086
 30
0.0
 40
0.5
  0
CIRCLE
  5
B8
330
17
100
AcDbEntity
  8
WALL_MAIN
100
AcDbCircle
 10
119.5423316531814
 20
40.03161551111208
 30
0.0
 40
0.5
  0
CIRCLE
  5
B9
330
17
100
AcDbEntity
  8
WALL_MAIN
100
AcDbCircle
 10
119.5423316531814
 20
41.24373672323329
 30
0.0
 40
0.5
  0
CIRCLE
  5
BA
330
17
100
AcDbEntity
  8
WALL_MAIN
100
AcDbCircle
 10
119.5423316531814
 20
42.4558579353545
 30
0.0
 40
0.5
  0
CIRCLE
  5
BB
330
17
100
AcDbEntity
  8
WALL_MAIN
100
AcDbCircle
 10
119.5423316531814
 20
43.66797914747572
 30
0.0
 40
0.5
  0
CIRCLE
  5
BC
330
17
100
AcDbEntity
  8
WALL_MAIN
100
AcDbCircle
 10
119.5423316531814
 20
44.88010035959692
 30
0.0
 40
0.5
  0
CIRCLE
  5
BD
330
17
100
AcDbEntity
  8
WALL_MAIN
100
AcDbCircle
 10
119.5423316531814
 20
46.09222157171814
 30
0.0
 40
0.5
  0
CIRCLE
  5
BE
330
17
100
AcDbEntity
  8
WALL_MAIN
100
AcDbCircle
 10
119.5423316531814
 20
47.30434278383935
 30
0.0
 40
0.5
  0
CIRCLE
  5
BF
330
17
100
AcDbEntity
  8
WALL_MAIN
100
AcDbCircle
 10
119.5423316531814
 20
48.516463995960564
 30
0.0
 40
0.5
  0
CIRCLE
  5
C0
330
17
100
AcDbEntity
  8
WALL_MAIN
100
AcDbCircle
 10
119.5423316531814
 20
49.728585208081775
 30
0.0
 40
0.5
  0
CIRCLE
  5
C1
330
17
100
AcDbEntity
  8
WALL_MAIN
100
AcDbCircle
 10
119.5423316531814
 20
50.940706420202986
 30
0.0
 40
0.5
  0
CIRCLE
  5
C2
330
17
100
AcDbEntity
  8
WALL_MAIN
100
AcDbCircle
 10
119.5423316531814
 20
52.1528276323242
 30
0.0
 40
0.5
  0
CIRCLE
  5
C3
330
17
100
AcDbEntity
  8
WALL_MAIN
100
AcDbCircle
 10
119.5423316531814
 20
53.364948844445415
 30
0.0
 40
0.5
  0
CIRCLE
  5
C4
330
17
100
AcDbEntity
  8
WALL_MAIN
100
AcDbCircle
 10
119.5423316531814
 20
54.577070056566626
 30
0.0
 40
0.5
  0
CIRCLE
  5
C5
330
17
100
AcDbEntity
  8
WALL_MAIN
100
AcDbCircle
 10
119.5423316531814
 20
55.78919126868784
 30
0.0
 40
0.5
  0
CIRCLE
  5
C6
330
17
100
AcDbEntity
  8
WALL_MAIN
100
AcDbCircle
 10
119.5423316531814
 20
57.00131248080905
 30
0.0
 40
0.5
  0
CIRCLE
  5
C7
330
17
100
AcDbEntity
  8
WALL_MAIN
100
AcDbCircle
 10
119.5423316531814
 20
58.21343369293026
 30
0.0
 40
0.5
  0
CIRCLE
  5
C8
330
17
100
AcDbEntity
  8
WALL_MAIN
100
AcDbCircle
 10
119.5423316531814
 20
59.42555490505147
 30
0.0
 40
0.5
  0
CIRCLE
  5
C9
330
17
100
AcDbEntity
  8
WALL_MAIN
100
AcDbCircle
 10
119.5423316531814
 20
60.63767611717268
 30
0.0
 40
0.5
  0
CIRCLE
  5
CA
330
17
100
AcDbEntity
  8
WALL_MAIN
100
AcDbCircle
 10
119.5423316531814
 20
61.8497973292939
 30
0.0
 40
0.5
  0
CIRCLE
  5
CB
330
17
100
AcDbEntity
  8
WALL_MAIN
100
AcDbCircle
 10
119.5423316531814
 20
63.06191854141511
 30
0.0
 40
0.5
  0
CIRCLE
  5
CC
330
17
100
AcDbEntity
  8
WALL_MAIN
100
AcDbCircle
 10
119.5423316531814
 20
64.27403975353633
 30
0.0
 40
0.5
  0
CIRCLE
  5
CD
330
17
100
AcDbEntity
  8
WALL_MAIN
100
AcDbCircle
 10
119.5423316531814
 20
65.48616096565753
 30
0.0
 40
0.5
  0
CIRCLE
  5
CE
330
17
100
AcDbEntity
  8
WALL_MAIN
100
AcDbCircle
 10
119.5423316531814
 20
66.69828217777874
 30
0.0
 40
0.5
  0
CIRCLE
  5
CF
330
17
100
AcDbEntity
  8
WALL_MAIN
100
AcDbCircle
 10
119.5423316531814
 20
67.91040338989995
 30
0.0
 40
0.5
  0
CIRCLE
  5
D0
330
17
100
AcDbEntity
  8
WALL_MAIN
100
AcDbCircle
 10
119.5423316531814
 20
69.12252460202117
 30
0.0
 40
0.5
  0
CIRCLE
  5
D1
330
17
100
AcDbEntity
  8
WALL_MAIN
100
AcDbCircle
 10
119.5423316531814
 20
70.33464581414239
 30
0.0
 40
0.5
  0
CIRCLE
  5
D2
330
17
100
AcDbEntity
  8
WALL_MAIN
100
AcDbCircle
 10
119.5423316531814
 20
71.5467670262636
 30
0.0
 40
0.5
  0
CIRCLE
  5
D3
330
17
100
AcDbEntity
  8
WALL_MAIN
100
AcDbCircle
 10
119.5423316531814
 20
72.7588882383848
 30
0.0
 40
0.5
  0
CIRCLE
  5
D4
330
17
100
AcDbEntity
  8
WALL_MAIN
100
AcDbCircle
 10
119.5423316531814
 20
73.97100945050602
 30
0.0
 40
0.5
  0
CIRCLE
  5
D5
330
17
100
AcDbEntity
  8
WALL_MAIN
100
AcDbCircle
 10
119.5423316531814
 20
75.18313066262724
 30
0.0
 40
0.5
  0
CIRCLE
  5
D6
330
17
100
AcDbEntity
  8
WALL_MAIN
100
AcDbCircle
 10
119.5423316531814
 20
76.39525187474845
 30
0.0
 40
0.5
  0
CIRCLE
  5
D7
330
17
100
AcDbEntity
  8
WALL_MAIN
100
AcDbCircle
 10
119.5423316531814
 20
77.60737308686966
 30
0.0
 40
0.5
  0
CIRCLE
  5
D8
330
17
100
AcDbEntity
  8
WALL_MAIN
100
AcDbCircle
 10
119.5423316531814
 20
78.81949429899086
 30
0.0
 40
0.5
  0
CIRCLE
  5
D9
330
17
100
AcDbEntity
  8
WALL_MAIN
100
AcDbCircle
 10
119.5423316531814
 20
80.03161551111208
 30
0.0
 40
0.5
  0
CIRCLE
  5
DA
330
17
100
AcDbEntity
  8
WALL_MAIN
100
AcDbCircle
 10
119.5423316531814
 20
81.2437367232333
 30
0.0
 40
0.5
  0
CIRCLE
  5
DB
330
17
100
AcDbEntity
  8
WALL_MAIN
100
AcDbCircle
 10
119.5423316531814
 20
82.45585793535452
 30
0.0
 40
0.5
  0
CIRCLE
  5
DC
330
17
100
AcDbEntity
  8
WALL_MAIN
100
AcDbCircle
 10
119.5423316531814
 20
83.6679791474757
 30
0.0
 40
0.5
  0
CIRCLE
  5
DD
330
17
100
AcDbEntity
  8
WALL_MAIN
100
AcDbCircle
 10
119.5423316531814
 20
84.88010035959692
 30
0.0
 40
0.5
  0
CIRCLE
  5
DE
330
17
100
AcDbEntity
  8
WALL_MAIN
100
AcDbCircle
 10
119.5423316531814
 20
86.09222157171814
 30
0.0
 40
0.5
  0
CIRCLE
  5
DF
330
17
100
AcDbEntity
  8
WALL_MAIN
100
AcDbCircle
 10
119.5423316531814
 20
87.30434278383936
 30
0.0
 40
0.5
  0
CIRCLE
  5
E0
330
17
100
AcDbEntity
  8
WALL_MAIN
100
AcDbCircle
 10
119.5423316531814
 20
88.51646399596058
 30
0.0
 40
0.5
  0
CIRCLE
  5
E1
330
17
100
AcDbEntity
  8
WALL_MAIN
100
AcDbCircle
 10
119.5423316531814
 20
89.72858520808177
 30
0.0
 40
0.5
  0
CIRCLE
  5
E2
330
17
100
AcDbEntity
  8
WALL_MAIN
100
AcDbCircle
 10
119.5423316531814
 20
90.94070642020299
 30
0.0
 40
0.5
  0
CIRCLE
  5
E3
330
17
100
AcDbEntity
  8
WALL_MAIN
100
AcDbCircle
 10
119.5423316531814
 20
92.1528276323242
 30
0.0
 40
0.5
  0
CIRCLE
  5
E4
330
17
100
AcDbEntity
  8
WALL_MAIN
100
AcDbCircle
 10
119.5423316531814
 20
93.36494884444542
 30
0.0
 40
0.5
  0
CIRCLE
  5
E5
330
17
100
AcDbEntity
  8
WALL_MAIN
100
AcDbCircle
 10
119.5423316531814
 20
94.57707005656661
 30
0.0
 40
0.5
  0
CIRCLE
  5
E6
330
17
100
AcDbEntity
  8
WALL_MAIN
100
AcDbCircle
 10
119.5423316531814
 20
95.78919126868783
 30
0.0
 40
0.5
  0
CIRCLE
  5
E7
330
17
100
AcDbEntity
  8
WALL_MAIN
100
AcDbCircle
 10
119.5423316531814
 20
97.00131248080905
 30
0.0
 40
0.5
  0
CIRCLE
  5
E8
330
17
100
AcDbEntity
  8
WALL_MAIN
100
AcDbCircle
 10
119.5423316531814
 20
98.21343369293027
 30
0.0
 40
0.5
  0
CIRCLE
  5
E9
330
17
100
AcDbEntity
  8
WALL_MAIN
100
AcDbCircle
 10
118.33564286834245
 20
98.21343369293027
 30
0.0
 40
0.5
  0
CIRCLE
  5
EA
330
17
100
AcDbEntity
  8
WALL_MAIN
100
AcDbCircle
 10
117.12895408350349
 20
98.21343369293027
 30
0.0
 40
0.5
  0
CIRCLE
  5
EB
330
17
100
AcDbEntity
  8
WALL_MAIN
100
AcDbCircle
 10
115.92226529866451
 20
98.21343369293027
 30
0.0
 40
0.5
  0
CIRCLE
  5
EC
330
17
100
AcDbEntity
  8
WALL_MAIN
100
AcDbCircle
 10
114.71557651382555
 20
98.21343369293027
 30
0.0
 40
0.5
  0
CIRCLE
  5
ED
330
17
100
AcDbEntity
  8
WALL_MAIN
100
AcDbCircle
 10
113.5088877289866
 20
98.21343369293027
 30
0.0
 40
0.5
  0
CIRCLE
  5
EE
330
17
100
AcDbEntity
  8
WALL_MAIN
100
AcDbCircle
 10
112.30219894414762
 20
98.21343369293027
 30
0.0
 40
0.5
  0
CIRCLE
  5
EF
330
17
100
AcDbEntity
  8
WALL_MAIN
100
AcDbCircle
 10
111.09551015930866
 20
98.21343369293027
 30
0.0
 40
0.5
  0
CIRCLE
  5
F0
330
17
100
AcDbEntity
  8
WALL_MAIN
100
AcDbCircle
 10
109.8888213744697
 20
98.21343369293027
 30
0.0
 40
0.5
  0
CIRCLE
  5
F1
330
17
100
AcDbEntity
  8
WALL_MAIN
100
AcDbCircle
 10
108.68213258963074
 20
98.21343369293027
 30
0.0
 40
0.5
  0
CIRCLE
  5
F2
330
17
100
AcDbEntity
  8
WALL_MAIN
100
AcDbCircle
 10
107.47544380479178
 20
98.21343369293027
 30
0.0
 40
0.5
  0
CIRCLE
  5
F3
330
17
100
AcDbEntity
  8
WALL_MAIN
100
AcDbCircle
 10
106.2687550199528
 20
98.21343369293027
 30
0.0
 40
0.5
  0
CIRCLE
  5
F4
330
17
100
AcDbEntity
  8
WALL_MAIN
100
AcDbCircle
 10
105.06206623511385
 20
98.21343369293027
 30
0.0
 40
0.5
  0
CIRCLE
  5
F5
330
17
100
AcDbEntity
  8
WALL_MAIN
100
AcDbCircle
 10
103.85537745027489
 20
98.21343369293027
 30
0.0
 40
0.5
  0
CIRCLE
  5
F6
330
17
100
AcDbEntity
  8
WALL_MAIN
100
AcDbCircle
 10
102.64868866543591
 20
98.21343369293027
 30
0.0
 40
0.5
  0
CIRCLE
  5
F7
330
17
100
AcDbEntity
  8
WALL_MAIN
100
AcDbCircle
 10
101.44199988059695
 20
98.21343369293027
 30
0.0
 40
0.5
  0
CIRCLE
  5
F8
330
17
100
AcDbEntity
  8
WALL_MAIN
100
AcDbCircle
 10
100.235311095758
 20
98.21343369293027
 30
0.0
 40
0.5
  0
CIRCLE
  5
F9
330
17
100
AcDbEntity
  8
WALL_MAIN
100
AcDbCircle
 10
99.02862231091903
 20
98.21343369293027
 30
0.0
 40
0.5
  0
CIRCLE
  5
FA
330
17
100
AcDbEntity
  8
WALL_MAIN
100
AcDbCircle
 10
97.82193352608007
 20
98.21343369293027
 30
0.0
 40
0.5
  0
CIRCLE
  5
FB
330
17
100
AcDbEntity
  8
WALL_MAIN
100
AcDbCircle
 10
96.6152447412411
 20
98.21343369293027
 30
0.0
 40
0.5
  0
CIRCLE
  5
FC
330
17
100
AcDbEntity
  8
WALL_MAIN
100
AcDbCircle
 10
95.40855595640214
 20
98.21343369293027
 30
0.0
 40
0.5
  0
CIRCLE
  5
FD
330
17
100
AcDbEntity
  8
WALL_MAIN
100
AcDbCircle
 10
94.20186717156318
 20
98.21343369293027
 30
0.0
 40
0.5
  0
CIRCLE
  5
FE
330
17
100
AcDbEntity
  8
WALL_MAIN
100
AcDbCircle
 10
92.9951783867242
 20
98.21343369293027
 30
0.0
 40
0.5
  0
CIRCLE
  5
FF
330
17
100
AcDbEntity
  8
WALL_MAIN
100
AcDbCircle
 10
91.78848960188525
 20
98.21343369293027
 30
0.0
 40
0.5
  0
CIRCLE
  5
100
330
17
100
AcDbEntity
  8
WALL_MAIN
100
AcDbCircle
 10
90.58180081704629
 20
98.21343369293027
 30
0.0
 40
0.5
  0
CIRCLE
  5
101
330
17
100
AcDbEntity
  8
WALL_MAIN
100
AcDbCircle
 10
89.37511203220733
 20
98.21343369293027
 30
0.0
 40
0.5
  0
CIRCLE
  5
102
330
17
100
AcDbEntity
  8
WALL_MAIN
100
AcDbCircle
 10
88.16842324736837
 20
98.21343369293027
 30
0.0
 40
0.5
  0
CIRCLE
  5
103
330
17
100
AcDbEntity
  8
WALL_MAIN
100
AcDbCircle
 10
86.96173446252939
 20
98.21343369293027
 30
0.0
 40
0.5
  0
CIRCLE
  5
104
330
17
100
AcDbEntity
  8
WALL_MAIN
100
AcDbCircle
 10
85.75504567769043
 20
98.21343369293027
 30
0.0
 40
0.5
  0
CIRCLE
  5
105
330
17
100
AcDbEntity
  8
WALL_MAIN
100
AcDbCircle
 10
84.54835689285147
 20
98.21343369293027
 30
0.0
 40
0.5
  0
CIRCLE
  5
106
330
17
100
AcDbEntity
  8
WALL_MAIN
100
AcDbCircle
 10
83.3416681080125
 20
98.21343369293027
 30
0.0
 40
0.5
  0
CIRCLE
  5
107
330
17
100
AcDbEntity
  8
WALL_MAIN
100
AcDbCircle
 10
82.13497932317354
 20
98.21343369293027
 30
0.0
 40
0.5
  0
CIRCLE
  5
108
330
17
100
AcDbEntity
  8
WALL_MAIN
100
AcDbCircle
 10
80.92829053833458
 20
98.21343369293027
 30
0.0
 40
0.5
  0
CIRCLE
  5
109
330
17
100
AcDbEntity
  8
WALL_MAIN
100
AcDbCircle
 10
79.72160175349562
 20
98.21343369293027
 30
0.0
 40
0.5
  0
CIRCLE
  5
10A
330
17
100
AcDbEntity
  8
WALL_MAIN
100
AcDbCircle
 10
78.51491296865666
 20
98.21343369293027
 30
0.0
 40
0.5
  0
CIRCLE
  5
10B
330
17
100
AcDbEntity
  8
WALL_MAIN
100
AcDbCircle
 10
77.30822418381769
 20
98.21343369293027
 30
0.0
 40
0.5
  0
CIRCLE
  5
10C
330
17
100
AcDbEntity
  8
WALL_MAIN
100
AcDbCircle
 10
76.10153539897873
 20
98.21343369293027
 30
0.0
 40
0.5
  0
CIRCLE
  5
10D
330
17
100
AcDbEntity
  8
WALL_MAIN
100
AcDbCircle
 10
74.89484661413977
 20
98.21343369293027
 30
0.0
 40
0.5
  0
CIRCLE
  5
10E
330
17
100
AcDbEntity
  8
WALL_MAIN
100
AcDbCircle
 10
73.68815782930079
 20
98.21343369293027
 30
0.0
 40
0.5
  0
CIRCLE
  5
10F
330
17
100
AcDbEntity
  8
WALL_MAIN
100
AcDbCircle
 10
72.48146904446183
 20
98.21343369293027
 30
0.0
 40
0.5
  0
CIRCLE
  5
110
330
17
100
AcDbEntity
  8
WALL_MAIN
100
AcDbCircle
 10
71.27478025962287
 20
98.21343369293027
 30
0.0
 40
0.5
  0
CIRCLE
  5
111
330
17
100
AcDbEntity
  8
WALL_MAIN
100
AcDbCircle
 10
70.06809147478391
 20
98.21343369293027
 30
0.0
 40
0.5
  0
CIRCLE
  5
112
330
17
100
AcDbEntity
  8
WALL_MAIN
100
AcDbCircle
 10
68.86140268994495
 20
98.21343369293027
 30
0.0
 40
0.5
  0
CIRCLE
  5
113
330
17
100
AcDbEntity
  8
WALL_MAIN
100
AcDbCircle
 10
67.65471390510598
 20
98.21343369293027
 30
0.0
 40
0.5
  0
CIRCLE
  5
114
330
17
100
AcDbEntity
  8
WALL_MAIN
100
AcDbCircle
 10
66.44802512026702
 20
98.21343369293027
 30
0.0
 40
0.5
  0
CIRCLE
  5
115
330
17
100
AcDbEntity
  8
WALL_MAIN
100
AcDbCircle
 10
65.24133633542806
 20
98.21343369293027
 30
0.0
 40
0.5
  0
CIRCLE
  5
116
330
17
100
AcDbEntity
  8
WALL_MAIN
100
AcDbCircle
 10
64.03464755058909
 20
98.21343369293027
 30
0.0
 40
0.5
  0
CIRCLE
  5
117
330
17
100
AcDbEntity
  8
WALL_MAIN
100
AcDbCircle
 10
62.827958765750125
 20
98.21343369293027
 30
0.0
 40
0.5
  0
CIRCLE
  5
118
330
17
100
AcDbEntity
  8
WALL_MAIN
100
AcDbCircle
 10
61.621269980911165
 20
98.21343369293027
 30
0.0
 40
0.5
  0
CIRCLE
  5
119
330
17
100
AcDbEntity
  8
WALL_MAIN
100
AcDbCircle
 10
60.414581196072206
 20
98.21343369293027
 30
0.0
 40
0.5
  0
CIRCLE
  5
11A
330
17
100
AcDbEntity
  8
WALL_MAIN
100
AcDbCircle
 10
59.20789241123324
 20
98.21343369293027
 30
0.0
 40
0.5
  0
CIRCLE
  5
11B
330
17
100
AcDbEntity
  8
WALL_MAIN
100
AcDbCircle
 10
58.00120362639427
 20
98.21343369293027
 30
0.0
 40
0.5
  0
CIRCLE
  5
11C
330
17
100
AcDbEntity
  8
WALL_MAIN
100
AcDbCircle
 10
57.13881356659995
 20
97.36323911143523
 30
0.0
 40
0.5
  0
CIRCLE
  5
11D
330
17
100
AcDbEntity
  8
WALL_MAIN
100
AcDbCircle
 10
56.27642350680562
 20
96.5130445299402
 30
0.0
 40
0.5
  0
CIRCLE
  5
11E
330
17
100
AcDbEntity
  8
WALL_MAIN
100
AcDbCircle
 10
55.4140334470113
 20
95.66284994844517
 30
0.0
 40
0.5
  0
CIRCLE
  5
11F
330
17
100
AcDbEntity
  8
WALL_MAIN
100
AcDbCircle
 10
54.55164338721697
 20
94.81265536695012
 30
0.0
 40
0.5
  0
CIRCLE
  5
120
330
17
100
AcDbEntity
  8
WALL_MAIN
100
AcDbCircle
 10
53.68925332742264
 20
93.9624607854551
 30
0.0
 40
0.5
  0
CIRCLE
  5
121
330
17
100
AcDbEntity
  8
WALL_MAIN
100
AcDbCircle
 10
52.82686326762831
 20
93.11226620396006
 30
0.0
 40
0.5
  0
CIRCLE
  5
122
330
17
100
AcDbEntity
  8
WALL_MAIN
100
AcDbCircle
 10
51.96447320783398
 20
92.26207162246503
 30
0.0
 40
0.5
  0
CIRCLE
  5
123
330
17
100
AcDbEntity
  8
WALL_MAIN
100
AcDbCircle
 10
51.10208314803966
 20
91.41187704097
 30
0.0
 40
0.5
  0
CIRCLE
  5
124
330
17
100
AcDbEntity
  8
WALL_MAIN
100
AcDbCircle
 10
50.23969308824533
 20
90.56168245947497
 30
0.0
 40
0.5
  0
CIRCLE
  5
125
330
17
100
AcDbEntity
  8
WALL_MAIN
100
AcDbCircle
 10
49.377303028451
 20
89.71148787797992
 30
0.0
 40
0.5
  0
CIRCLE
  5
126
330
17
100
AcDbEntity
  8
WALL_MAIN
100
AcDbCircle
 10
48.514912968656674
 20
88.86129329648489
 30
0.0
 40
0.5
  0
CIRCLE
  5
127
330
17
100
AcDbEntity
  8
WALL_MAIN
100
AcDbCircle
 10
47.65252290886235
 20
88.01109871498986
 30
0.0
 40
0.5
  0
CIRCLE
  5
128
330
17
100
AcDbEntity
  8
WALL_MAIN
100
AcDbCircle
 10
46.79013284906802
 20
87.16090413349482
 30
0.0
 40
0.5
  0
CIRCLE
  5
129
330
17
100
AcDbEntity
  8
WALL_MAIN
100
AcDbCircle
 10
45.927742789273694
 20
86.31070955199979
 30
0.0
 40
0.5
  0
CIRCLE
  5
12A
330
17
100
AcDbEntity
  8
WALL_MAIN
100
AcDbCircle
 10
45.065352729479365
 20
85.46051497050476
 30
0.0
 40
0.5
  0
CIRCLE
  5
12B
330
17
100
AcDbEntity
  8
WALL_MAIN
100
AcDbCircle
 10
44.202962669685036
 20
84.61032038900973
 30
0.0
 40
0.5
  0
CIRCLE
  5
12C
330
17
100
AcDbEntity
  8
WALL_MAIN
100
AcDbCircle
 10
43.340572609890714
 20
83.76012580751468
 30
0.0
 40
0.5
  0
CIRCLE
  5
12D
330
17
100
AcDbEntity
  8
WALL_MAIN
100
AcDbCircle
 10
42.478182550096385
 20
82.90993122601965
 30
0.0
 40
0.5
  0
CIRCLE
  5
12E
330
17
100
AcDbEntity
  8
WALL_MAIN
100
AcDbCircle
 10
41.615792490302056
 20
82.05973664452462
 30
0.0
 40
0.5
  0
CIRCLE
  5
12F
330
17
100
AcDbEntity
  8
WALL_MAIN
100
AcDbCircle
 10
40.75340243050773
 20
81.20954206302959
 30
0.0
 40
0.5
  0
CIRCLE
  5
130
330
17
100
AcDbEntity
  8
WALL_MAIN
100
AcDbCircle
 10
39.8910123707134
 20
80.35934748153456
 30
0.0
 40
0.5
  0
CIRCLE
  5
131
330
17
100
AcDbEntity
  8
WALL_MAIN
100
AcDbCircle
 10
39.028622310919076
 20
79.50915290003951
 30
0.0
 40
0.5
  0
CIRCLE
  5
132
330
17
100
AcDbEntity
  8
WALL_MAIN
100
AcDbCircle
 10
38.16623225112474
 20
78.65895831854448
 30
0.0
 40
0.5
  0
CIRCLE
  5
133
330
17
100
AcDbEntity
  8
WALL_MAIN
100
AcDbCircle
 10
37.30384219133042
 20
77.80876373704945
 30
0.0
 40
0.5
  0
CIRCLE
  5
134
330
17
100
AcDbEntity
  8
WALL_MAIN
100
AcDbCircle
 10
36.44145213153609
 20
76.95856915555441
 30
0.0
 40
0.5
  0
CIRCLE
  5
135
330
17
100
AcDbEntity
  8
WALL_MAIN
100
AcDbCircle
 10
35.57906207174176
 20
76.10837457405938
 30
0.0
 40
0.5
  0
CIRCLE
  5
136
330
17
100
AcDbEntity
  8
WALL_MAIN
100
AcDbCircle
 10
34.71667201194744
 20
75.25817999256435
 30
0.0
 40
0.5
  0
CIRCLE
  5
137
330
17
100
AcDbEntity
  8
WALL_MAIN
100
AcDbCircle
 10
33.8542819521531
 20
74.40798541106932
 30
0.0
 40
0.5
  0
CIRCLE
  5
138
330
17
100
AcDbEntity
  8
WALL_MAIN
100
AcDbCircle
 10
32.99189189235878
 20
73.55779082957429
 30
0.0
 40
0.5
  0
CIRCLE
  5
139
330
17
100
AcDbEntity
  8
WALL_MAIN
100
AcDbCircle
 10
32.12950183256445
 20
72.70759624807924
 30
0.0
 40
0.5
  0
CIRCLE
  5
13A
330
17
100
AcDbEntity
  8
WALL_MAIN
100
AcDbCircle
 10
31.267111772770125
 20
71.85740166658421
 30
0.0
 40
0.5
  0
CIRCLE
  5
13B
330
17
100
AcDbEntity
  8
WALL_MAIN
100
AcDbCircle
 10
30.404721712975796
 20
71.00720708508918
 30
0.0
 40
0.5
  0
CIRCLE
  5
13C
330
17
100
AcDbEntity
  8
WALL_CURTAIN
100
AcDbCircle
 10
28.41733165318147
 20
70.75701250359414
 30
0.0
 40
0.425
  0
CIRCLE
  5
13D
330
17
100
AcDbEntity
  8
WALL_CURTAIN
100
AcDbCircle
 10
28.41733165318147
 20
70.15701250359415
 30
0.0
 40
0.425
  0
CIRCLE
  5
13E
330
17
100
AcDbEntity
  8
WALL_CURTAIN
100
AcDbCircle
 10
28.41733165318147
 20
69.55701250359415
 30
0.0
 40
0.425
  0
CIRCLE
  5
13F
330
17
100
AcDbEntity
  8
WALL_CURTAIN
100
AcDbCircle
 10
28.41733165318147
 20
68.94902229869498
 30
0.0
 40
0.425
  0
CIRCLE
  5
140
330
17
100
AcDbEntity
  8
WALL_CURTAIN
100
AcDbCircle
 10
28.41733165318147
 20
68.34902229869499
 30
0.0
 40
0.425
  0
CIRCLE
  5
141
330
17
100
AcDbEntity
  8
WALL_CURTAIN
100
AcDbCircle
 10
28.41733165318147
 20
67.74103209379582
 30
0.0
 40
0.425
  0
CIRCLE
  5
142
330
17
100
AcDbEntity
  8
WALL_CURTAIN
100
AcDbCircle
 10
28.41733165318147
 20
67.14103209379583
 30
0.0
 40
0.425
  0
CIRCLE
  5
143
330
17
100
AcDbEntity
  8
WALL_CURTAIN
100
AcDbCircle
 10
28.41733165318147
 20
66.53304188889666
 30
0.0
 40
0.425
  0
CIRCLE
  5
144
330
17
100
AcDbEntity
  8
WALL_CURTAIN
100
AcDbCircle
 10
28.41733165318147
 20
65.93304188889667
 30
0.0
 40
0.425
  0
CIRCLE
  5
145
330
17
100
AcDbEntity
  8
WALL_CURTAIN
100
AcDbCircle
 10
28.41733165318147
 20
65.3250516839975
 30
0.0
 40
0.425
  0
CIRCLE
  5
146
330
17
100
AcDbEntity
  8
WALL_CURTAIN
100
AcDbCircle
 10
28.41733165318147
 20
64.7250516839975
 30
0.0
 40
0.425
  0
CIRCLE
  5
147
330
17
100
AcDbEntity
  8
WALL_CURTAIN
100
AcDbCircle
 10
28.41733165318147
 20
64.11706147909834
 30
0.0
 40
0.425
  0
CIRCLE
  5
148
330
17
100
AcDbEntity
  8
WALL_CURTAIN
100
AcDbCircle
 10
28.41733165318147
 20
63.51706147909834
 30
0.0
 40
0.425
  0
CIRCLE
  5
149
330
17
100
AcDbEntity
  8
WALL_CURTAIN
100
AcDbCircle
 10
28.41733165318147
 20
62.909071274199185
 30
0.0
 40
0.425
  0
CIRCLE
  5
14A
330
17
100
AcDbEntity
  8
WALL_CURTAIN
100
AcDbCircle
 10
28.41733165318147
 20
62.309071274199184
 30
0.0
 40
0.425
  0
CIRCLE
  5
14B
330
17
100
AcDbEntity
  8
WALL_CURTAIN
100
AcDbCircle
 10
28.41733165318147
 20
61.701081069300024
 30
0.0
 40
0.425
  0
CIRCLE
  5
14C
330
17
100
AcDbEntity
  8
WALL_CURTAIN
100
AcDbCircle
 10
28.41733165318147
 20
61.10108106930002
 30
0.0
 40
0.425
  0
CIRCLE
  5
14D
330
17
100
AcDbEntity
  8
WALL_CURTAIN
100
AcDbCircle
 10
28.41733165318147
 20
60.49309086440086
 30
0.0
 40
0.425
  0
CIRCLE
  5
14E
330
17
100
AcDbEntity
  8
WALL_CURTAIN
100
AcDbCircle
 10
28.41733165318147
 20
59.89309086440086
 30
0.0
 40
0.425
  0
CIRCLE
  5
14F
330
17
100
AcDbEntity
  8
WALL_CURTAIN
100
AcDbCircle
 10
28.41733165318147
 20
59.28510065950171
 30
0.0
 40
0.425
  0
CIRCLE
  5
150
330
17
100
AcDbEntity
  8
WALL_CURTAIN
100
AcDbCircle
 10
28.41733165318147
 20
58.68510065950171
 30
0.0
 40
0.425
  0
CIRCLE
  5
151
330
17
100
AcDbEntity
  8
WALL_CURTAIN
100
AcDbCircle
 10
28.41733165318147
 20
58.07711045460255
 30
0.0
 40
0.425
  0
CIRCLE
  5
152
330
17
100
AcDbEntity
  8
WALL_CURTAIN
100
AcDbCircle
 10
28.41733165318147
 20
57.477110454602546
 30
0.0
 40
0.425
  0
CIRCLE
  5
153
330
17
100
AcDbEntity
  8
WALL_CURTAIN
100
AcDbCircle
 10
28.41733165318147
 20
56.869120249703386
 30
0.0
 40
0.425
  0
CIRCLE
  5
154
330
17
100
AcDbEntity
  8
WALL_CURTAIN
100
AcDbCircle
 10
28.41733165318147
 20
56.269120249703384
 30
0.0
 40
0.425
  0
CIRCLE
  5
155
330
17
100
AcDbEntity
  8
WALL_CURTAIN
100
AcDbCircle
 10
28.41733165318147
 20
55.661130044804224
 30
0.0
 40
0.425
  0
CIRCLE
  5
156
330
17
100
AcDbEntity
  8
WALL_CURTAIN
100
AcDbCircle
 10
28.41733165318147
 20
55.06113004480422
 30
0.0
 40
0.425
  0
CIRCLE
  5
157
330
17
100
AcDbEntity
  8
WALL_CURTAIN
100
AcDbCircle
 10
28.41733165318147
 20
54.45313983990506
 30
0.0
 40
0.425
  0
CIRCLE
  5
158
330
17
100
AcDbEntity
  8
WALL_CURTAIN
100
AcDbCircle
 10
28.41733165318147
 20
53.85313983990506
 30
0.0
 40
0.425
  0
CIRCLE
  5
159
330
17
100
AcDbEntity
  8
WALL_CURTAIN
100
AcDbCircle
 10
28.41733165318147
 20
53.2451496350059
 30
0.0
 40
0.425
  0
CIRCLE
  5
15A
330
17
100
AcDbEntity
  8
WALL_CURTAIN
100
AcDbCircle
 10
28.41733165318147
 20
52.6451496350059
 30
0.0
 40
0.425
  0
CIRCLE
  5
15B
330
17
100
AcDbEntity
  8
WALL_CURTAIN
100
AcDbCircle
 10
28.41733165318147
 20
52.03715943010674
 30
0.0
 40
0.425
  0
CIRCLE
  5
15C
330
17
100
AcDbEntity
  8
WALL_CURTAIN
100
AcDbCircle
 10
28.41733165318147
 20
51.43715943010674
 30
0.0
 40
0.425
  0
CIRCLE
  5
15D
330
17
100
AcDbEntity
  8
WALL_CURTAIN
100
AcDbCircle
 10
28.41733165318147
 20
50.82916922520758
 30
0.0
 40
0.425
  0
CIRCLE
  5
15E
330
17
100
AcDbEntity
  8
WALL_CURTAIN
100
AcDbCircle
 10
28.41733165318147
 20
50.22916922520758
 30
0.0
 40
0.425
  0
CIRCLE
  5
15F
330
17
100
AcDbEntity
  8
WALL_CURTAIN
100
AcDbCircle
 10
28.41733165318147
 20
49.62117902030842
 30
0.0
 40
0.425
  0
CIRCLE
  5
160
330
17
100
AcDbEntity
  8
WALL_CURTAIN
100
AcDbCircle
 10
28.41733165318147
 20
49.021179020308416
 30
0.0
 40
0.425
  0
CIRCLE
  5
161
330
17
100
AcDbEntity
  8
WALL_CURTAIN
100
AcDbCircle
 10
28.41733165318147
 20
48.413188815409264
 30
0.0
 40
0.425
  0
CIRCLE
  5
162
330
17
100
AcDbEntity
  8
WALL_CURTAIN
100
AcDbCircle
 10
28.41733165318147
 20
47.81318881540926
 30
0.0
 40
0.425
  0
CIRCLE
  5
163
330
17
100
AcDbEntity
  8
WALL_CURTAIN
100
AcDbCircle
 10
28.41733165318147
 20
47.2051986105101
 30
0.0
 40
0.425
  0
CIRCLE
  5
164
330
17
100
AcDbEntity
  8
WALL_CURTAIN
100
AcDbCircle
 10
28.41733165318147
 20
46.6051986105101
 30
0.0
 40
0.425
  0
CIRCLE
  5
165
330
17
100
AcDbEntity
  8
WALL_CURTAIN
100
AcDbCircle
 10
28.41733165318147
 20
45.99720840561094
 30
0.0
 40
0.425
  0
CIRCLE
  5
166
330
17
100
AcDbEntity
  8
WALL_CURTAIN
100
AcDbCircle
 10
28.41733165318147
 20
45.39720840561094
 30
0.0
 40
0.425
  0
CIRCLE
  5
167
330
17
100
AcDbEntity
  8
WALL_CURTAIN
100
AcDbCircle
 10
28.41733165318147
 20
44.78921820071179
 30
0.0
 40
0.425
  0
CIRCLE
  5
168
330
17
100
AcDbEntity
  8
WALL_CURTAIN
100
AcDbCircle
 10
28.41733165318147
 20
44.189218200711785
 30
0.0
 40
0.425
  0
CIRCLE
  5
169
330
17
100
AcDbEntity
  8
WALL_CURTAIN
100
AcDbCircle
 10
28.41733165318147
 20
43.581227995812625
 30
0.0
 40
0.425
  0
CIRCLE
  5
16A
330
17
100
AcDbEntity
  8
WALL_CURTAIN
100
AcDbCircle
 10
28.41733165318147
 20
42.981227995812624
 30
0.0
 40
0.425
  0
CIRCLE
  5
16B
330
17
100
AcDbEntity
  8
WALL_CURTAIN
100
AcDbCircle
 10
28.41733165318147
 20
42.373237790913464
 30
0.0
 40
0.425
  0
CIRCLE
  5
16C
330
17
100
AcDbEntity
  8
WALL_CURTAIN
100
AcDbCircle
 10
28.41733165318147
 20
41.77323779091346
 30
0.0
 40
0.425
  0
CIRCLE
  5
16D
330
17
100
AcDbEntity
  8
WALL_CURTAIN
100
AcDbCircle
 10
28.41733165318147
 20
41.1652475860143
 30
0.0
 40
0.425
  0
CIRCLE
  5
16E
330
17
100
AcDbEntity
  8
WALL_CURTAIN
100
AcDbCircle
 10
28.41733165318147
 20
40.5652475860143
 30
0.0
 40
0.425
  0
CIRCLE
  5
16F
330
17
100
AcDbEntity
  8
WALL_CURTAIN
100
AcDbCircle
 10
28.41733165318147
 20
39.95725738111514
 30
0.0
 40
0.425
  0
CIRCLE
  5
170
330
17
100
AcDbEntity
  8
WALL_CURTAIN
100
AcDbCircle
 10
28.41733165318147
 20
39.35725738111514
 30
0.0
 40
0.425
  0
CIRCLE
  5
171
330
17
100
AcDbEntity
  8
WALL_CURTAIN
100
AcDbCircle
 10
28.41733165318147
 20
38.74926717621598
 30
0.0
 40
0.425
  0
CIRCLE
  5
172
330
17
100
AcDbEntity
  8
WALL_CURTAIN
100
AcDbCircle
 10
28.41733165318147
 20
38.14926717621598
 30
0.0
 40
0.425
  0
CIRCLE
  5
173
330
17
100
AcDbEntity
  8
WALL_CURTAIN
100
AcDbCircle
 10
28.41733165318147
 20
37.54127697131682
 30
0.0
 40
0.425
  0
CIRCLE
  5
174
330
17
100
AcDbEntity
  8
WALL_CURTAIN
100
AcDbCircle
 10
28.41733165318147
 20
36.94127697131682
 30
0.0
 40
0.425
  0
CIRCLE
  5
175
330
17
100
AcDbEntity
  8
WALL_CURTAIN
100
AcDbCircle
 10
28.41733165318147
 20
36.33328676641766
 30
0.0
 40
0.425
  0
CIRCLE
  5
176
330
17
100
AcDbEntity
  8
WALL_CURTAIN
100
AcDbCircle
 10
28.41733165318147
 20
35.733286766417656
 30
0.0
 40
0.425
  0
CIRCLE
  5
177
330
17
100
AcDbEntity
  8
WALL_CURTAIN
100
AcDbCircle
 10
28.41733165318147
 20
35.1252965615185
 30
0.0
 40
0.425
  0
CIRCLE
  5
178
330
17
100
AcDbEntity
  8
WALL_CURTAIN
100
AcDbCircle
 10
28.41733165318147
 20
34.5252965615185
 30
0.0
 40
0.425
  0
CIRCLE
  5
179
330
17
100
AcDbEntity
  8
WALL_CURTAIN
100
AcDbCircle
 10
28.41733165318147
 20
33.91730635661934
 30
0.0
 40
0.425
  0
CIRCLE
  5
17A
330
17
100
AcDbEntity
  8
WALL_CURTAIN
100
AcDbCircle
 10
28.41733165318147
 20
33.31730635661934
 30
0.0
 40
0.425
  0
CIRCLE
  5
17B
330
17
100
AcDbEntity
  8
WALL_CURTAIN
100
AcDbCircle
 10
28.41733165318147
 20
32.70931615172018
 30
0.0
 40
0.425
  0
CIRCLE
  5
17C
330
17
100
AcDbEntity
  8
WALL_CURTAIN
100
AcDbCircle
 10
28.41733165318147
 20
32.10931615172018
 30
0.0
 40
0.425
  0
CIRCLE
  5
17D
330
17
100
AcDbEntity
  8
WALL_CURTAIN
100
AcDbCircle
 10
28.41733165318147
 20
31.50132594682102
 30
0.0
 40
0.425
  0
CIRCLE
  5
17E
330
17
100
AcDbEntity
  8
WALL_CURTAIN
100
AcDbCircle
 10
28.41733165318147
 20
30.901325946821018
 30
0.0
 40
0.425
  0
CIRCLE
  5
17F
330
17
100
AcDbEntity
  8
WALL_CURTAIN
100
AcDbCircle
 10
28.41733165318147
 20
30.293335741921858
 30
0.0
 40
0.425
  0
CIRCLE
  5
180
330
17
100
AcDbEntity
  8
WALL_CURTAIN
100
AcDbCircle
 10
28.41733165318147
 20
29.693335741921857
 30
0.0
 40
0.425
  0
CIRCLE
  5
181
330
17
100
AcDbEntity
  8
WALL_CURTAIN
100
AcDbCircle
 10
28.41733165318147
 20
29.085345537022697
 30
0.0
 40
0.425
  0
CIRCLE
  5
182
330
17
100
AcDbEntity
  8
WALL_CURTAIN
100
AcDbCircle
 10
28.41733165318147
 20
28.485345537022695
 30
0.0
 40
0.425
  0
CIRCLE
  5
183
330
17
100
AcDbEntity
  8
WALL_CURTAIN
100
AcDbCircle
 10
28.41733165318147
 20
27.877355332123535
 30
0.0
 40
0.425
  0
CIRCLE
  5
184
330
17
100
AcDbEntity
  8
WALL_CURTAIN
100
AcDbCircle
 10
28.41733165318147
 20
27.277355332123534
 30
0.0
 40
0.425
  0
CIRCLE
  5
185
330
17
100
AcDbEntity
  8
WALL_CURTAIN
100
AcDbCircle
 10
28.41733165318147
 20
26.66936512722438
 30
0.0
 40
0.425
  0
CIRCLE
  5
186
330
17
100
AcDbEntity
  8
WALL_CURTAIN
100
AcDbCircle
 10
28.41733165318147
 20
26.06936512722438
 30
0.0
 40
0.425
  0
CIRCLE
  5
187
330
17
100
AcDbEntity
  8
WALL_CURTAIN
100
AcDbCircle
 10
28.41733165318147
 20
25.46137492232522
 30
0.0
 40
0.425
  0
CIRCLE
  5
188
330
17
100
AcDbEntity
  8
WALL_CURTAIN
100
AcDbCircle
 10
28.41733165318147
 20
24.86137492232522
 30
0.0
 40
0.425
  0
CIRCLE
  5
189
330
17
100
AcDbEntity
  8
WALL_CURTAIN
100
AcDbCircle
 10
28.41733165318147
 20
24.25338471742606
 30
0.0
 40
0.425
  0
CIRCLE
  5
18A
330
17
100
AcDbEntity
  8
WALL_CURTAIN
100
AcDbCircle
 10
28.41733165318147
 20
23.653384717426057
 30
0.0
 40
0.425
  0
CIRCLE
  5
18B
330
17
100
AcDbEntity
  8
WALL_CURTAIN
100
AcDbCircle
 10
28.41733165318147
 20
23.045394512526897
 30
0.0
 40
0.425
  0
CIRCLE
  5
18C
330
17
100
AcDbEntity
  8
WALL_CURTAIN
100
AcDbCircle
 10
28.41733165318147
 20
22.445394512526896
 30
0.0
 40
0.425
  0
CIRCLE
  5
18D
330
17
100
AcDbEntity
  8
WALL_CURTAIN
100
AcDbCircle
 10
28.41733165318147
 20
21.837404307627736
 30
0.0
 40
0.425
  0
CIRCLE
  5
18E
330
17
100
AcDbEntity
  8
WALL_CURTAIN
100
AcDbCircle
 10
28.41733165318147
 20
21.237404307627735
 30
0.0
 40
0.425
  0
CIRCLE
  5
18F
330
17
100
AcDbEntity
  8
WALL_CURTAIN
100
AcDbCircle
 10
28.41733165318147
 20
20.629414102728575
 30
0.0
 40
0.425
  0
CIRCLE
  5
190
330
17
100
AcDbEntity
  8
WALL_CURTAIN
100
AcDbCircle
 10
28.41733165318147
 20
20.029414102728573
 30
0.0
 40
0.425
  0
CIRCLE
  5
191
330
17
100
AcDbEntity
  8
WALL_CURTAIN
100
AcDbCircle
 10
28.41733165318147
 20
19.42142389782942
 30
0.0
 40
0.425
  0
CIRCLE
  5
192
330
17
100
AcDbEntity
  8
WALL_CURTAIN
100
AcDbCircle
 10
28.41733165318147
 20
18.82142389782942
 30
0.0
 40
0.425
  0
CIRCLE
  5
193
330
17
100
AcDbEntity
  8
WALL_CURTAIN
100
AcDbCircle
 10
28.41733165318147
 20
18.21343369293026
 30
0.0
 40
0.425
  0
CIRCLE
  5
194
330
17
100
AcDbEntity
  8
WALL_CURTAIN
100
AcDbCircle
 10
28.41733165318147
 20
17.613433692930258
 30
0.0
 40
0.425
  0
CIRCLE
  5
195
330
17
100
AcDbEntity
  8
WALL_CURTAIN
100
AcDbCircle
 10
28.94233165318147
 20
17.08843369293026
 30
0.0
 40
0.425
  0
CIRCLE
  5
196
330
17
100
AcDbEntity
  8
WALL_CURTAIN
100
AcDbCircle
 10
29.54233165318147
 20
17.08843369293026
 30
0.0
 40
0.425
  0
CIRCLE
  5
197
330
17
100
AcDbEntity
  8
WALL_CURTAIN
100
AcDbCircle
 10
30.142331653181472
 20
17.08843369293026
 30
0.0
 40
0.425
  0
CIRCLE
  5
198
330
17
100
AcDbEntity
  8
WALL_CURTAIN
100
AcDbCircle
 10
30.158547869397683
 20
17.08843369293026
 30
0.0
 40
0.425
  0
CIRCLE
  5
199
330
17
100
AcDbEntity
  8
WALL_CURTAIN
100
AcDbCircle
 10
30.758547869397685
 20
17.08843369293026
 30
0.0
 40
0.425
  0
CIRCLE
  5
19A
330
17
100
AcDbEntity
  8
WALL_CURTAIN
100
AcDbCircle
 10
31.358547869397686
 20
17.08843369293026
 30
0.0
 40
0.425
  0
CIRCLE
  5
19B
330
17
100
AcDbEntity
  8
WALL_CURTAIN
100
AcDbCircle
 10
31.3747640856139
 20
17.08843369293026
 30
0.0
 40
0.425
  0
CIRCLE
  5
19C
330
17
100
AcDbEntity
  8
WALL_CURTAIN
100
AcDbCircle
 10
31.974764085613902
 20
17.08843369293026
 30
0.0
 40
0.425
  0
CIRCLE
  5
19D
330
17
100
AcDbEntity
  8
WALL_CURTAIN
100
AcDbCircle
 10
32.5747640856139
 20
17.08843369293026
 30
0.0
 40
0.425
  0
CIRCLE
  5
19E
330
17
100
AcDbEntity
  8
WALL_CURTAIN
100
AcDbCircle
 10
32.590980301830115
 20
17.08843369293026
 30
0.0
 40
0.425
  0
CIRCLE
  5
19F
330
17
100
AcDbEntity
  8
WALL_CURTAIN
100
AcDbCircle
 10
33.190980301830116
 20
17.08843369293026
 30
0.0
 40
0.425
  0
CIRCLE
  5
1A0
330
17
100
AcDbEntity
  8
WALL_CURTAIN
100
AcDbCircle
 10
33.79098030183012
 20
17.08843369293026
 30
0.0
 40
0.425
  0
CIRCLE
  5
1A1
330
17
100
AcDbEntity
  8
WALL_CURTAIN
100
AcDbCircle
 10
33.80719651804633
 20
17.08843369293026
 30
0.0
 40
0.425
  0
CIRCLE
  5
1A2
330
17
100
AcDbEntity
  8
WALL_CURTAIN
100
AcDbCircle
 10
34.407196518046334
 20
17.08843369293026
 30
0.0
 40
0.425
  0
CIRCLE
  5
1A3
330
17
100
AcDbEntity
  8
WALL_CURTAIN
100
AcDbCircle
 10
35.007196518046335
 20
17.08843369293026
 30
0.0
 40
0.425
  0
CIRCLE
  5
1A4
330
17
100
AcDbEntity
  8
WALL_CURTAIN
100
AcDbCircle
 10
35.02341273426254
 20
17.08843369293026
 30
0.0
 40
0.425
  0
CIRCLE
  5
1A5
330
17
100
AcDbEntity
  8
WALL_CURTAIN
100
AcDbCircle
 10
35.623412734262544
 20
17.08843369293026
 30
0.0
 40
0.425
  0
CIRCLE
  5
1A6
330
17
100
AcDbEntity
  8
WALL_CURTAIN
100
AcDbCircle
 10
36.223412734262546
 20
17.08843369293026
 30
0.0
 40
0.425
  0
CIRCLE
  5
1A7
330
17
100
AcDbEntity
  8
WALL_CURTAIN
100
AcDbCircle
 10
36.23962895047876
 20
17.08843369293026
 30
0.0
 40
0.425
  0
CIRCLE
  5
1A8
330
17
100
AcDbEntity
  8
WALL_CURTAIN
100
AcDbCircle
 10
36.83962895047876
 20
17.08843369293026
 30
0.0
 40
0.425
  0
CIRCLE
  5
1A9
330
17
100
AcDbEntity
  8
WALL_CURTAIN
100
AcDbCircle
 10
37.43962895047876
 20
17.08843369293026
 30
0.0
 40
0.425
  0
CIRCLE
  5
1AA
330
17
100
AcDbEntity
  8
WALL_CURTAIN
100
AcDbCircle
 10
37.45584516669498
 20
17.08843369293026
 30
0.0
 40
0.425
  0
CIRCLE
  5
1AB
330
17
100
AcDbEntity
  8
WALL_CURTAIN
100
AcDbCircle
 10
38.05584516669498
 20
17.08843369293026
 30
0.0
 40
0.425
  0
CIRCLE
  5
1AC
330
17
100
AcDbEntity
  8
WALL_CURTAIN
100
AcDbCircle
 10
38.65584516669498
 20
17.08843369293026
 30
0.0
 40
0.425
  0
CIRCLE
  5
1AD
330
17
100
AcDbEntity
  8
WALL_CURTAIN
100
AcDbCircle
 10
38.67206138291119
 20
17.08843369293026
 30
0.0
 40
0.425
  0
CIRCLE
  5
1AE
330
17
100
AcDbEntity
  8
WALL_CURTAIN
100
AcDbCircle
 10
39.27206138291119
 20
17.08843369293026
 30
0.0
 40
0.425
  0
CIRCLE
  5
1AF
330
17
100
AcDbEntity
  8
WALL_CURTAIN
100
AcDbCircle
 10
39.87206138291119
 20
17.08843369293026
 30
0.0
 40
0.425
  0
CIRCLE
  5
1B0
330
17
100
AcDbEntity
  8
WALL_CURTAIN
100
AcDbCircle
 10
39.888277599127406
 20
17.08843369293026
 30
0.0
 40
0.425
  0
CIRCLE
  5
1B1
330
17
100
AcDbEntity
  8
WALL_CURTAIN
100
AcDbCircle
 10
40.48827759912741
 20
17.08843369293026
 30
0.0
 40
0.425
  0
CIRCLE
  5
1B2
330
17
100
AcDbEntity
  8
WALL_CURTAIN
100
AcDbCircle
 10
41.08827759912741
 20
17.08843369293026
 30
0.0
 40
0.425
  0
CIRCLE
  5
1B3
330
17
100
AcDbEntity
  8
WALL_CURTAIN
100
AcDbCircle
 10
41.10449381534362
 20
17.08843369293026
 30
0.0
 40
0.425
  0
CIRCLE
  5
1B4
330
17
100
AcDbEntity
  8
WALL_CURTAIN
100
AcDbCircle
 10
41.704493815343625
 20
17.08843369293026
 30
0.0
 40
0.425
  0
CIRCLE
  5
1B5
330
17
100
AcDbEntity
  8
WALL_CURTAIN
100
AcDbCircle
 10
42.304493815343626
 20
17.08843369293026
 30
0.0
 40
0.425
  0
CIRCLE
  5
1B6
330
17
100
AcDbEntity
  8
WALL_CURTAIN
100
AcDbCircle
 10
42.320710031559834
 20
17.08843369293026
 30
0.0
 40
0.425
  0
CIRCLE
  5
1B7
330
17
100
AcDbEntity
  8
WALL_CURTAIN
100
AcDbCircle
 10
42.920710031559835
 20
17.08843369293026
 30
0.0
 40
0.425
  0
CIRCLE
  5
1B8
330
17
100
AcDbEntity
  8
WALL_CURTAIN
100
AcDbCircle
 10
43.52071003155984
 20
17.08843369293026
 30
0.0
 40
0.425
  0
CIRCLE
  5
1B9
330
17
100
AcDbEntity
  8
WALL_CURTAIN
100
AcDbCircle
 10
43.53692624777605
 20
17.08843369293026
 30
0.0
 40
0.425
  0
CIRCLE
  5
1BA
330
17
100
AcDbEntity
  8
WALL_CURTAIN
100
AcDbCircle
 10
44.13692624777605
 20
17.08843369293026
 30
0.0
 40
0.425
  0
CIRCLE
  5
1BB
330
17
100
AcDbEntity
  8
WALL_CURTAIN
100
AcDbCircle
 10
44.736926247776054
 20
17.08843369293026
 30
0.0
 40
0.425
  0
CIRCLE
  5
1BC
330
17
100
AcDbEntity
  8
WALL_CURTAIN
100
AcDbCircle
 10
44.75314246399227
 20
17.08843369293026
 30
0.0
 40
0.425
  0
CIRCLE
  5
1BD
330
17
100
AcDbEntity
  8
WALL_CURTAIN
100
AcDbCircle
 10
45.35314246399227
 20
17.08843369293026
 30
0.0
 40
0.425
  0
CIRCLE
  5
1BE
330
17
100
AcDbEntity
  8
WALL_CURTAIN
100
AcDbCircle
 10
45.95314246399227
 20
17.08843369293026
 30
0.0
 40
0.425
  0
CIRCLE
  5
1BF
330
17
100
AcDbEntity
  8
WALL_CURTAIN
100
AcDbCircle
 10
45.96935868020848
 20
17.08843369293026
 30
0.0
 40
0.425
  0
CIRCLE
  5
1C0
330
17
100
AcDbEntity
  8
WALL_CURTAIN
100
AcDbCircle
 10
46.56935868020848
 20
17.08843369293026
 30
0.0
 40
0.425
  0
CIRCLE
  5
1C1
330
17
100
AcDbEntity
  8
WALL_CURTAIN
100
AcDbCircle
 10
47.16935868020848
 20
17.08843369293026
 30
0.0
 40
0.425
  0
CIRCLE
  5
1C2
330
17
100
AcDbEntity
  8
WALL_CURTAIN
100
AcDbCircle
 10
47.185574896424704
 20
17.08843369293026
 30
0.0
 40
0.425
  0
CIRCLE
  5
1C3
330
17
100
AcDbEntity
  8
WALL_CURTAIN
100
AcDbCircle
 10
47.785574896424706
 20
17.08843369293026
 30
0.0
 40
0.425
  0
CIRCLE
  5
1C4
330
17
100
AcDbEntity
  8
WALL_CURTAIN
100
AcDbCircle
 10
48.38557489642471
 20
17.08843369293026
 30
0.0
 40
0.425
  0
CIRCLE
  5
1C5
330
17
100
AcDbEntity
  8
WALL_CURTAIN
100
AcDbCircle
 10
48.401791112640915
 20
17.08843369293026
 30
0.0
 40
0.425
  0
CIRCLE
  5
1C6
330
17
100
AcDbEntity
  8
WALL_CURTAIN
100
AcDbCircle
 10
49.001791112640916
 20
17.08843369293026
 30
0.0
 40
0.425
  0
CIRCLE
  5
1C7
330
17
100
AcDbEntity
  8
WALL_CURTAIN
100
AcDbCircle
 10
49.60179111264092
 20
17.08843369293026
 30
0.0
 40
0.425
  0
CIRCLE
  5
1C8
330
17
100
AcDbEntity
  8
WALL_CURTAIN
100
AcDbCircle
 10
49.618007328857125
 20
17.08843369293026
 30
0.0
 40
0.425
  0
CIRCLE
  5
1C9
330
17
100
AcDbEntity
  8
WALL_CURTAIN
100
AcDbCircle
 10
50.21800732885713
 20
17.08843369293026
 30
0.0
 40
0.425
  0
CIRCLE
  5
1CA
330
17
100
AcDbEntity
  8
WALL_CURTAIN
100
AcDbCircle
 10
50.81800732885713
 20
17.08843369293026
 30
0.0
 40
0.425
  0
CIRCLE
  5
1CB
330
17
100
AcDbEntity
  8
WALL_CURTAIN
100
AcDbCircle
 10
50.83422354507335
 20
17.08843369293026
 30
0.0
 40
0.425
  0
CIRCLE
  5
1CC
330
17
100
AcDbEntity
  8
WALL_CURTAIN
100
AcDbCircle
 10
51.43422354507335
 20
17.08843369293026
 30
0.0
 40
0.425
  0
CIRCLE
  5
1CD
330
17
100
AcDbEntity
  8
WALL_CURTAIN
100
AcDbCircle
 10
52.03422354507335
 20
17.08843369293026
 30
0.0
 40
0.425
  0
CIRCLE
  5
1CE
330
17
100
AcDbEntity
  8
WALL_CURTAIN
100
AcDbCircle
 10
52.05043976128956
 20
17.08843369293026
 30
0.0
 40
0.425
  0
CIRCLE
  5
1CF
330
17
100
AcDbEntity
  8
WALL_CURTAIN
100
AcDbCircle
 10
52.65043976128956
 20
17.08843369293026
 30
0.0
 40
0.425
  0
CIRCLE
  5
1D0
330
17
100
AcDbEntity
  8
WALL_CURTAIN
100
AcDbCircle
 10
53.25043976128956
 20
17.08843369293026
 30
0.0
 40
0.425
  0
CIRCLE
  5
1D1
330
17
100
AcDbEntity
  8
WALL_CURTAIN
100
AcDbCircle
 10
53.26665597750578
 20
17.08843369293026
 30
0.0
 40
0.425
  0
CIRCLE
  5
1D2
330
17
100
AcDbEntity
  8
WALL_CURTAIN
100
AcDbCircle
 10
53.86665597750578
 20
17.08843369293026
 30
0.0
 40
0.425
  0
CIRCLE
  5
1D3
330
17
100
AcDbEntity
  8
WALL_CURTAIN
100
AcDbCircle
 10
54.46665597750578
 20
17.08843369293026
 30
0.0
 40
0.425
  0
CIRCLE
  5
1D4
330
17
100
AcDbEntity
  8
WALL_CURTAIN
100
AcDbCircle
 10
54.482872193721995
 20
17.08843369293026
 30
0.0
 40
0.425
  0
CIRCLE
  5
1D5
330
17
100
AcDbEntity
  8
WALL_CURTAIN
100
AcDbCircle
 10
55.082872193722
 20
17.08843369293026
 30
0.0
 40
0.425
  0
CIRCLE
  5
1D6
330
17
100
AcDbEntity
  8
WALL_CURTAIN
100
AcDbCircle
 10
55.682872193722
 20
17.08843369293026
 30
0.0
 40
0.425
  0
CIRCLE
  5
1D7
330
17
100
AcDbEntity
  8
WALL_CURTAIN
100
AcDbCircle
 10
55.699088409938206
 20
17.08843369293026
 30
0.0
 40
0.425
  0
CIRCLE
  5
1D8
330
17
100
AcDbEntity
  8
WALL_CURTAIN
100
AcDbCircle
 10
56.29908840993821
 20
17.08843369293026
 30
0.0
 40
0.425
  0
CIRCLE
  5
1D9
330
17
100
AcDbEntity
  8
WALL_CURTAIN
100
AcDbCircle
 10
56.89908840993821
 20
17.08843369293026
 30
0.0
 40
0.425
  0
CIRCLE
  5
1DA
330
17
100
AcDbEntity
  8
WALL_CURTAIN
100
AcDbCircle
 10
56.91530462615442
 20
17.08843369293026
 30
0.0
 40
0.425
  0
CIRCLE
  5
1DB
330
17
100
AcDbEntity
  8
WALL_CURTAIN
100
AcDbCircle
 10
57.515304626154425
 20
17.08843369293026
 30
0.0
 40
0.425
  0
CIRCLE
  5
1DC
330
17
100
AcDbEntity
  8
WALL_CURTAIN
100
AcDbCircle
 10
58.115304626154426
 20
17.08843369293026
 30
0.0
 40
0.425
  0
CIRCLE
  5
1DD
330
17
100
AcDbEntity
  8
WALL_CURTAIN
100
AcDbCircle
 10
58.13152084237064
 20
17.08843369293026
 30
0.0
 40
0.425
  0
CIRCLE
  5
1DE
330
17
100
AcDbEntity
  8
WALL_CURTAIN
100
AcDbCircle
 10
58.73152084237064
 20
17.08843369293026
 30
0.0
 40
0.425
  0
CIRCLE
  5
1DF
330
17
100
AcDbEntity
  8
WALL_CURTAIN
100
AcDbCircle
 10
59.331520842370644
 20
17.08843369293026
 30
0.0
 40
0.425
  0
CIRCLE
  5
1E0
330
17
100
AcDbEntity
  8
WALL_CURTAIN
100
AcDbCircle
 10
59.34773705858685
 20
17.08843369293026
 30
0.0
 40
0.425
  0
CIRCLE
  5
1E1
330
17
100
AcDbEntity
  8
WALL_CURTAIN
100
AcDbCircle
 10
59.94773705858685
 20
17.08843369293026
 30
0.0
 40
0.425
  0
CIRCLE
  5
1E2
330
17
100
AcDbEntity
  8
WALL_CURTAIN
100
AcDbCircle
 10
60.547737058586854
 20
17.08843369293026
 30
0.0
 40
0.425
  0
CIRCLE
  5
1E3
330
17
100
AcDbEntity
  8
WALL_CURTAIN
100
AcDbCircle
 10
60.56395327480307
 20
17.08843369293026
 30
0.0
 40
0.425
  0
CIRCLE
  5
1E4
330
17
100
AcDbEntity
  8
WALL_CURTAIN
100
AcDbCircle
 10
61.16395327480307
 20
17.08843369293026
 30
0.0
 40
0.425
  0
CIRCLE
  5
1E5
330
17
100
AcDbEntity
  8
WALL_CURTAIN
100
AcDbCircle
 10
61.76395327480307
 20
17.08843369293026
 30
0.0
 40
0.425
  0
CIRCLE
  5
1E6
330
17
100
AcDbEntity
  8
WALL_CURTAIN
100
AcDbCircle
 10
61.78016949101929
 20
17.08843369293026
 30
0.0
 40
0.425
  0
CIRCLE
  5
1E7
330
17
100
AcDbEntity
  8
WALL_CURTAIN
100
AcDbCircle
 10
62.38016949101929
 20
17.08843369293026
 30
0.0
 40
0.425
  0
CIRCLE
  5
1E8
330
17
100
AcDbEntity
  8
WALL_CURTAIN
100
AcDbCircle
 10
62.98016949101929
 20
17.08843369293026
 30
0.0
 40
0.425
  0
CIRCLE
  5
1E9
330
17
100
AcDbEntity
  8
WALL_CURTAIN
100
AcDbCircle
 10
62.9963857072355
 20
17.08843369293026
 30
0.0
 40
0.425
  0
CIRCLE
  5
1EA
330
17
100
AcDbEntity
  8
WALL_CURTAIN
100
AcDbCircle
 10
63.5963857072355
 20
17.08843369293026
 30
0.0
 40
0.425
  0
CIRCLE
  5
1EB
330
17
100
AcDbEntity
  8
WALL_CURTAIN
100
AcDbCircle
 10
64.19638570723549
 20
17.08843369293026
 30
0.0
 40
0.425
  0
CIRCLE
  5
1EC
330
17
100
AcDbEntity
  8
WALL_CURTAIN
100
AcDbCircle
 10
64.21260192345173
 20
17.08843369293026
 30
0.0
 40
0.425
  0
CIRCLE
  5
1ED
330
17
100
AcDbEntity
  8
WALL_CURTAIN
100
AcDbCircle
 10
64.81260192345172
 20
17.08843369293026
 30
0.0
 40
0.425
  0
CIRCLE
  5
1EE
330
17
100
AcDbEntity
  8
WALL_CURTAIN
100
AcDbCircle
 10
65.41260192345172
 20
17.08843369293026
 30
0.0
 40
0.425
  0
CIRCLE
  5
1EF
330
17
100
AcDbEntity
  8
WALL_CURTAIN
100
AcDbCircle
 10
65.42881813966794
 20
17.08843369293026
 30
0.0
 40
0.425
  0
CIRCLE
  5
1F0
330
17
100
AcDbEntity
  8
WALL_CURTAIN
100
AcDbCircle
 10
66.02881813966793
 20
17.08843369293026
 30
0.0
 40
0.425
  0
CIRCLE
  5
1F1
330
17
100
AcDbEntity
  8
WALL_CURTAIN
100
AcDbCircle
 10
66.62881813966793
 20
17.08843369293026
 30
0.0
 40
0.425
  0
CIRCLE
  5
1F2
330
17
100
AcDbEntity
  8
WALL_CURTAIN
100
AcDbCircle
 10
66.64503435588415
 20
17.08843369293026
 30
0.0
 40
0.425
  0
CIRCLE
  5
1F3
330
17
100
AcDbEntity
  8
WALL_CURTAIN
100
AcDbCircle
 10
67.24503435588414
 20
17.08843369293026
 30
0.0
 40
0.425
  0
CIRCLE
  5
1F4
330
17
100
AcDbEntity
  8
WALL_CURTAIN
100
AcDbCircle
 10
67.84503435588414
 20
17.08843369293026
 30
0.0
 40
0.425
  0
CIRCLE
  5
1F5
330
17
100
AcDbEntity
  8
WALL_CURTAIN
100
AcDbCircle
 10
67.86125057210037
 20
17.08843369293026
 30
0.0
 40
0.425
  0
CIRCLE
  5
1F6
330
17
100
AcDbEntity
  8
WALL_CURTAIN
100
AcDbCircle
 10
68.46125057210037
 20
17.08843369293026
 30
0.0
 40
0.425
  0
CIRCLE
  5
1F7
330
17
100
AcDbEntity
  8
WALL_CURTAIN
100
AcDbCircle
 10
69.06125057210036
 20
17.08843369293026
 30
0.0
 40
0.425
  0
CIRCLE
  5
1F8
330
17
100
AcDbEntity
  8
WALL_CURTAIN
100
AcDbCircle
 10
69.07746678831658
 20
17.08843369293026
 30
0.0
 40
0.425
  0
CIRCLE
  5
1F9
330
17
100
AcDbEntity
  8
WALL_CURTAIN
100
AcDbCircle
 10
69.67746678831658
 20
17.08843369293026
 30
0.0
 40
0.425
  0
CIRCLE
  5
1FA
330
17
100
AcDbEntity
  8
WALL_CURTAIN
100
AcDbCircle
 10
70.27746678831657
 20
17.08843369293026
 30
0.0
 40
0.425
  0
CIRCLE
  5
1FB
330
17
100
AcDbEntity
  8
WALL_CURTAIN
100
AcDbCircle
 10
70.2936830045328
 20
17.08843369293026
 30
0.0
 40
0.425
  0
CIRCLE
  5
1FC
330
17
100
AcDbEntity
  8
WALL_CURTAIN
100
AcDbCircle
 10
70.89368300453279
 20
17.08843369293026
 30
0.0
 40
0.425
  0
CIRCLE
  5
1FD
330
17
100
AcDbEntity
  8
WALL_CURTAIN
100
AcDbCircle
 10
71.49368300453278
 20
17.08843369293026
 30
0.0
 40
0.425
  0
CIRCLE
  5
1FE
330
17
100
AcDbEntity
  8
WALL_CURTAIN
100
AcDbCircle
 10
71.50989922074902
 20
17.08843369293026
 30
0.0
 40
0.425
  0
CIRCLE
  5
1FF
330
17
100
AcDbEntity
  8
WALL_CURTAIN
100
AcDbCircle
 10
72.10989922074901
 20
17.08843369293026
 30
0.0
 40
0.425
  0
CIRCLE
  5
200
330
17
100
AcDbEntity
  8
WALL_CURTAIN
100
AcDbCircle
 10
72.70989922074901
 20
17.08843369293026
 30
0.0
 40
0.425
  0
CIRCLE
  5
201
330
17
100
AcDbEntity
  8
WALL_CURTAIN
100
AcDbCircle
 10
72.72611543696523
 20
17.08843369293026
 30
0.0
 40
0.425
  0
CIRCLE
  5
202
330
17
100
AcDbEntity
  8
WALL_CURTAIN
100
AcDbCircle
 10
73.32611543696522
 20
17.08843369293026
 30
0.0
 40
0.425
  0
CIRCLE
  5
203
330
17
100
AcDbEntity
  8
WALL_CURTAIN
100
AcDbCircle
 10
73.92611543696522
 20
17.08843369293026
 30
0.0
 40
0.425
  0
CIRCLE
  5
204
330
17
100
AcDbEntity
  8
WALL_CURTAIN
100
AcDbCircle
 10
73.94233165318144
 20
17.08843369293026
 30
0.0
 40
0.425
  0
CIRCLE
  5
205
330
17
100
AcDbEntity
  8
WALL_CURTAIN
100
AcDbCircle
 10
74.54233165318144
 20
17.08843369293026
 30
0.0
 40
0.425
  0
CIRCLE
  5
206
330
17
100
AcDbEntity
  8
WALL_CURTAIN
100
AcDbCircle
 10
75.14233165318143
 20
17.08843369293026
 30
0.0
 40
0.425
  0
CIRCLE
  5
207
330
17
100
AcDbEntity
  8
WALL_CURTAIN
100
AcDbCircle
 10
75.15854786939767
 20
17.08843369293026
 30
0.0
 40
0.425
  0
CIRCLE
  5
208
330
17
100
AcDbEntity
  8
WALL_CURTAIN
100
AcDbCircle
 10
75.75854786939766
 20
17.08843369293026
 30
0.0
 40
0.425
  0
CIRCLE
  5
209
330
17
100
AcDbEntity
  8
WALL_CURTAIN
100
AcDbCircle
 10
76.35854786939765
 20
17.08843369293026
 30
0.0
 40
0.425
  0
CIRCLE
  5
20A
330
17
100
AcDbEntity
  8
WALL_CURTAIN
100
AcDbCircle
 10
76.37476408561388
 20
17.08843369293026
 30
0.0
 40
0.425
  0
CIRCLE
  5
20B
330
17
100
AcDbEntity
  8
WALL_CURTAIN
100
AcDbCircle
 10
76.97476408561387
 20
17.08843369293026
 30
0.0
 40
0.425
  0
CIRCLE
  5
20C
330
17
100
AcDbEntity
  8
WALL_CURTAIN
100
AcDbCircle
 10
77.57476408561386
 20
17.08843369293026
 30
0.0
 40
0.425
  0
CIRCLE
  5
20D
330
17
100
AcDbEntity
  8
WALL_CURTAIN
100
AcDbCircle
 10
77.59098030183009
 20
17.08843369293026
 30
0.0
 40
0.425
  0
CIRCLE
  5
20E
330
17
100
AcDbEntity
  8
WALL_CURTAIN
100
AcDbCircle
 10
78.19098030183008
 20
17.08843369293026
 30
0.0
 40
0.425
  0
CIRCLE
  5
20F
330
17
100
AcDbEntity
  8
WALL_CURTAIN
100
AcDbCircle
 10
78.79098030183007
 20
17.08843369293026
 30
0.0
 40
0.425
  0
CIRCLE
  5
210
330
17
100
AcDbEntity
  8
WALL_CURTAIN
100
AcDbCircle
 10
78.80719651804631
 20
17.08843369293026
 30
0.0
 40
0.425
  0
CIRCLE
  5
211
330
17
100
AcDbEntity
  8
WALL_CURTAIN
100
AcDbCircle
 10
79.4071965180463
 20
17.08843369293026
 30
0.0
 40
0.425
  0
CIRCLE
  5
212
330
17
100
AcDbEntity
  8
WALL_CURTAIN
100
AcDbCircle
 10
80.0071965180463
 20
17.08843369293026
 30
0.0
 40
0.425
  0
CIRCLE
  5
213
330
17
100
AcDbEntity
  8
WALL_CURTAIN
100
AcDbCircle
 10
80.02341273426252
 20
17.08843369293026
 30
0.0
 40
0.425
  0
CIRCLE
  5
214
330
17
100
AcDbEntity
  8
WALL_CURTAIN
100
AcDbCircle
 10
80.62341273426252
 20
17.08843369293026
 30
0.0
 40
0.425
  0
CIRCLE
  5
215
330
17
100
AcDbEntity
  8
WALL_CURTAIN
100
AcDbCircle
 10
81.22341273426251
 20
17.08843369293026
 30
0.0
 40
0.425
  0
CIRCLE
  5
216
330
17
100
AcDbEntity
  8
WALL_CURTAIN
100
AcDbCircle
 10
81.23962895047873
 20
17.08843369293026
 30
0.0
 40
0.425
  0
CIRCLE
  5
217
330
17
100
AcDbEntity
  8
WALL_CURTAIN
100
AcDbCircle
 10
81.83962895047873
 20
17.08843369293026
 30
0.0
 40
0.425
  0
CIRCLE
  5
218
330
17
100
AcDbEntity
  8
WALL_CURTAIN
100
AcDbCircle
 10
82.43962895047872
 20
17.08843369293026
 30
0.0
 40
0.425
  0
CIRCLE
  5
219
330
17
100
AcDbEntity
  8
WALL_CURTAIN
100
AcDbCircle
 10
82.45584516669496
 20
17.08843369293026
 30
0.0
 40
0.425
  0
CIRCLE
  5
21A
330
17
100
AcDbEntity
  8
WALL_CURTAIN
100
AcDbCircle
 10
83.05584516669495
 20
17.08843369293026
 30
0.0
 40
0.425
  0
CIRCLE
  5
21B
330
17
100
AcDbEntity
  8
WALL_CURTAIN
100
AcDbCircle
 10
83.65584516669495
 20
17.08843369293026
 30
0.0
 40
0.425
  0
CIRCLE
  5
21C
330
17
100
AcDbEntity
  8
WALL_CURTAIN
100
AcDbCircle
 10
83.67206138291117
 20
17.08843369293026
 30
0.0
 40
0.425
  0
CIRCLE
  5
21D
330
17
100
AcDbEntity
  8
WALL_CURTAIN
100
AcDbCircle
 10
84.27206138291116
 20
17.08843369293026
 30
0.0
 40
0.425
  0
CIRCLE
  5
21E
330
17
100
AcDbEntity
  8
WALL_CURTAIN
100
AcDbCircle
 10
84.87206138291116
 20
17.08843369293026
 30
0.0
 40
0.425
  0
CIRCLE
  5
21F
330
17
100
AcDbEntity
  8
WALL_CURTAIN
100
AcDbCircle
 10
84.88827759912738
 20
17.08843369293026
 30
0.0
 40
0.425
  0
CIRCLE
  5
220
330
17
100
AcDbEntity
  8
WALL_CURTAIN
100
AcDbCircle
 10
85.48827759912737
 20
17.08843369293026
 30
0.0
 40
0.425
  0
CIRCLE
  5
221
330
17
100
AcDbEntity
  8
WALL_CURTAIN
100
AcDbCircle
 10
86.08827759912737
 20
17.08843369293026
 30
0.0
 40
0.425
  0
CIRCLE
  5
222
330
17
100
AcDbEntity
  8
WALL_CURTAIN
100
AcDbCircle
 10
86.1044938153436
 20
17.08843369293026
 30
0.0
 40
0.425
  0
CIRCLE
  5
223
330
17
100
AcDbEntity
  8
WALL_CURTAIN
100
AcDbCircle
 10
86.7044938153436
 20
17.08843369293026
 30
0.0
 40
0.425
  0
CIRCLE
  5
224
330
17
100
AcDbEntity
  8
WALL_CURTAIN
100
AcDbCircle
 10
87.30449381534359
 20
17.08843369293026
 30
0.0
 40
0.425
  0
CIRCLE
  5
225
330
17
100
AcDbEntity
  8
WALL_CURTAIN
100
AcDbCircle
 10
87.32071003155981
 20
17.08843369293026
 30
0.0
 40
0.425
  0
CIRCLE
  5
226
330
17
100
AcDbEntity
  8
WALL_CURTAIN
100
AcDbCircle
 10
87.9207100315598
 20
17.08843369293026
 30
0.0
 40
0.425
  0
CIRCLE
  5
227
330
17
100
AcDbEntity
  8
WALL_CURTAIN
100
AcDbCircle
 10
88.5207100315598
 20
17.08843369293026
 30
0.0
 40
0.425
  0
CIRCLE
  5
228
330
17
100
AcDbEntity
  8
WALL_CURTAIN
100
AcDbCircle
 10
88.53692624777602
 20
17.08843369293026
 30
0.0
 40
0.425
  0
CIRCLE
  5
229
330
17
100
AcDbEntity
  8
WALL_CURTAIN
100
AcDbCircle
 10
89.13692624777602
 20
17.08843369293026
 30
0.0
 40
0.425
  0
CIRCLE
  5
22A
330
17
100
AcDbEntity
  8
WALL_CURTAIN
100
AcDbCircle
 10
89.73692624777601
 20
17.08843369293026
 30
0.0
 40
0.425
  0
CIRCLE
  5
22B
330
17
100
AcDbEntity
  8
WALL_CURTAIN
100
AcDbCircle
 10
89.75314246399225
 20
17.08843369293026
 30
0.0
 40
0.425
  0
CIRCLE
  5
22C
330
17
100
AcDbEntity
  8
WALL_CURTAIN
100
AcDbCircle
 10
90.35314246399224
 20
17.08843369293026
 30
0.0
 40
0.425
  0
CIRCLE
  5
22D
330
17
100
AcDbEntity
  8
WALL_CURTAIN
100
AcDbCircle
 10
90.95314246399224
 20
17.08843369293026
 30
0.0
 40
0.425
  0
CIRCLE
  5
22E
330
17
100
AcDbEntity
  8
WALL_CURTAIN
100
AcDbCircle
 10
90.96935868020846
 20
17.08843369293026
 30
0.0
 40
0.425
  0
CIRCLE
  5
22F
330
17
100
AcDbEntity
  8
WALL_CURTAIN
100
AcDbCircle
 10
91.56935868020845
 20
17.08843369293026
 30
0.0
 40
0.425
  0
CIRCLE
  5
230
330
17
100
AcDbEntity
  8
WALL_CURTAIN
100
AcDbCircle
 10
92.16935868020845
 20
17.08843369293026
 30
0.0
 40
0.425
  0
CIRCLE
  5
231
330
17
100
AcDbEntity
  8
WALL_CURTAIN
100
AcDbCircle
 10
92.18557489642467
 20
17.08843369293026
 30
0.0
 40
0.425
  0
CIRCLE
  5
232
330
17
100
AcDbEntity
  8
WALL_CURTAIN
100
AcDbCircle
 10
92.78557489642466
 20
17.08843369293026
 30
0.0
 40
0.425
  0
CIRCLE
  5
233
330
17
100
AcDbEntity
  8
WALL_CURTAIN
100
AcDbCircle
 10
93.38557489642466
 20
17.08843369293026
 30
0.0
 40
0.425
  0
CIRCLE
  5
234
330
17
100
AcDbEntity
  8
WALL_CURTAIN
100
AcDbCircle
 10
93.4017911126409
 20
17.08843369293026
 30
0.0
 40
0.425
  0
CIRCLE
  5
235
330
17
100
AcDbEntity
  8
WALL_CURTAIN
100
AcDbCircle
 10
94.00179111264089
 20
17.08843369293026
 30
0.0
 40
0.425
  0
CIRCLE
  5
236
330
17
100
AcDbEntity
  8
WALL_CURTAIN
100
AcDbCircle
 10
94.60179111264088
 20
17.08843369293026
 30
0.0
 40
0.425
  0
CIRCLE
  5
237
330
17
100
AcDbEntity
  8
WALL_CURTAIN
100
AcDbCircle
 10
94.61800732885712
 20
17.08843369293026
 30
0.0
 40
0.425
  0
CIRCLE
  5
238
330
17
100
AcDbEntity
  8
WALL_CURTAIN
100
AcDbCircle
 10
95.21800732885711
 20
17.08843369293026
 30
0.0
 40
0.425
  0
CIRCLE
  5
239
330
17
100
AcDbEntity
  8
WALL_CURTAIN
100
AcDbCircle
 10
95.8180073288571
 20
17.08843369293026
 30
0.0
 40
0.425
  0
CIRCLE
  5
23A
330
17
100
AcDbEntity
  8
WALL_CURTAIN
100
AcDbCircle
 10
95.83422354507331
 20
17.08843369293026
 30
0.0
 40
0.425
  0
CIRCLE
  5
23B
330
17
100
AcDbEntity
  8
WALL_CURTAIN
100
AcDbCircle
 10
96.43422354507331
 20
17.08843369293026
 30
0.0
 40
0.425
  0
CIRCLE
  5
23C
330
17
100
AcDbEntity
  8
WALL_CURTAIN
100
AcDbCircle
 10
97.0342235450733
 20
17.08843369293026
 30
0.0
 40
0.425
  0
CIRCLE
  5
23D
330
17
100
AcDbEntity
  8
WALL_CURTAIN
100
AcDbCircle
 10
97.05043976128954
 20
17.08843369293026
 30
0.0
 40
0.425
  0
CIRCLE
  5
23E
330
17
100
AcDbEntity
  8
WALL_CURTAIN
100
AcDbCircle
 10
97.65043976128953
 20
17.08843369293026
 30
0.0
 40
0.425
  0
CIRCLE
  5
23F
330
17
100
AcDbEntity
  8
WALL_CURTAIN
100
AcDbCircle
 10
98.25043976128953
 20
17.08843369293026
 30
0.0
 40
0.425
  0
CIRCLE
  5
240
330
17
100
AcDbEntity
  8
WALL_CURTAIN
100
AcDbCircle
 10
98.26665597750576
 20
17.08843369293026
 30
0.0
 40
0.425
  0
CIRCLE
  5
241
330
17
100
AcDbEntity
  8
WALL_CURTAIN
100
AcDbCircle
 10
98.86665597750576
 20
17.08843369293026
 30
0.0
 40
0.425
  0
CIRCLE
  5
242
330
17
100
AcDbEntity
  8
WALL_CURTAIN
100
AcDbCircle
 10
99.46665597750575
 20
17.08843369293026
 30
0.0
 40
0.425
  0
CIRCLE
  5
243
330
17
100
AcDbEntity
  8
WALL_CURTAIN
100
AcDbCircle
 10
99.48287219372196
 20
17.08843369293026
 30
0.0
 40
0.425
  0
CIRCLE
  5
244
330
17
100
AcDbEntity
  8
WALL_CURTAIN
100
AcDbCircle
 10
100.08287219372195
 20
17.08843369293026
 30
0.0
 40
0.425
  0
CIRCLE
  5
245
330
17
100
AcDbEntity
  8
WALL_CURTAIN
100
AcDbCircle
 10
100.68287219372195
 20
17.08843369293026
 30
0.0
 40
0.425
  0
CIRCLE
  5
246
330
17
100
AcDbEntity
  8
WALL_CURTAIN
100
AcDbCircle
 10
100.69908840993818
 20
17.08843369293026
 30
0.0
 40
0.425
  0
CIRCLE
  5
247
330
17
100
AcDbEntity
  8
WALL_CURTAIN
100
AcDbCircle
 10
101.29908840993818
 20
17.08843369293026
 30
0.0
 40
0.425
  0
CIRCLE
  5
248
330
17
100
AcDbEntity
  8
WALL_CURTAIN
100
AcDbCircle
 10
101.89908840993817
 20
17.08843369293026
 30
0.0
 40
0.425
  0
CIRCLE
  5
249
330
17
100
AcDbEntity
  8
WALL_CURTAIN
100
AcDbCircle
 10
101.91530462615441
 20
17.08843369293026
 30
0.0
 40
0.425
  0
CIRCLE
  5
24A
330
17
100
AcDbEntity
  8
WALL_CURTAIN
100
AcDbCircle
 10
102.5153046261544
 20
17.08843369293026
 30
0.0
 40
0.425
  0
CIRCLE
  5
24B
330
17
100
AcDbEntity
  8
WALL_CURTAIN
100
AcDbCircle
 10
103.1153046261544
 20
17.08843369293026
 30
0.0
 40
0.425
  0
CIRCLE
  5
24C
330
17
100
AcDbEntity
  8
WALL_CURTAIN
100
AcDbCircle
 10
103.1315208423706
 20
17.08843369293026
 30
0.0
 40
0.425
  0
CIRCLE
  5
24D
330
17
100
AcDbEntity
  8
WALL_CURTAIN
100
AcDbCircle
 10
103.7315208423706
 20
17.08843369293026
 30
0.0
 40
0.425
  0
CIRCLE
  5
24E
330
17
100
AcDbEntity
  8
WALL_CURTAIN
100
AcDbCircle
 10
104.3315208423706
 20
17.08843369293026
 30
0.0
 40
0.425
  0
CIRCLE
  5
24F
330
17
100
AcDbEntity
  8
WALL_CURTAIN
100
AcDbCircle
 10
104.34773705858683
 20
17.08843369293026
 30
0.0
 40
0.425
  0
CIRCLE
  5
250
330
17
100
AcDbEntity
  8
WALL_CURTAIN
100
AcDbCircle
 10
104.94773705858682
 20
17.08843369293026
 30
0.0
 40
0.425
  0
CIRCLE
  5
251
330
17
100
AcDbEntity
  8
WALL_CURTAIN
100
AcDbCircle
 10
105.54773705858682
 20
17.08843369293026
 30
0.0
 40
0.425
  0
CIRCLE
  5
252
330
17
100
AcDbEntity
  8
WALL_CURTAIN
100
AcDbCircle
 10
105.56395327480305
 20
17.08843369293026
 30
0.0
 40
0.425
  0
CIRCLE
  5
253
330
17
100
AcDbEntity
  8
WALL_CURTAIN
100
AcDbCircle
 10
106.16395327480305
 20
17.08843369293026
 30
0.0
 40
0.425
  0
CIRCLE
  5
254
330
17
100
AcDbEntity
  8
WALL_CURTAIN
100
AcDbCircle
 10
106.76395327480304
 20
17.08843369293026
 30
0.0
 40
0.425
  0
CIRCLE
  5
255
330
17
100
AcDbEntity
  8
WALL_CURTAIN
100
AcDbCircle
 10
106.78016949101925
 20
17.08843369293026
 30
0.0
 40
0.425
  0
CIRCLE
  5
256
330
17
100
AcDbEntity
  8
WALL_CURTAIN
100
AcDbCircle
 10
107.38016949101925
 20
17.08843369293026
 30
0.0
 40
0.425
  0
CIRCLE
  5
257
330
17
100
AcDbEntity
  8
WALL_CURTAIN
100
AcDbCircle
 10
107.98016949101924
 20
17.08843369293026
 30
0.0
 40
0.425
  0
CIRCLE
  5
258
330
17
100
AcDbEntity
  8
WALL_CURTAIN
100
AcDbCircle
 10
107.99638570723548
 20
17.08843369293026
 30
0.0
 40
0.425
  0
CIRCLE
  5
259
330
17
100
AcDbEntity
  8
WALL_CURTAIN
100
AcDbCircle
 10
108.59638570723547
 20
17.08843369293026
 30
0.0
 40
0.425
  0
CIRCLE
  5
25A
330
17
100
AcDbEntity
  8
WALL_CURTAIN
100
AcDbCircle
 10
109.19638570723546
 20
17.08843369293026
 30
0.0
 40
0.425
  0
CIRCLE
  5
25B
330
17
100
AcDbEntity
  8
WALL_CURTAIN
100
AcDbCircle
 10
109.2126019234517
 20
17.08843369293026
 30
0.0
 40
0.425
  0
CIRCLE
  5
25C
330
17
100
AcDbEntity
  8
WALL_CURTAIN
100
AcDbCircle
 10
109.8126019234517
 20
17.08843369293026
 30
0.0
 40
0.425
  0
CIRCLE
  5
25D
330
17
100
AcDbEntity
  8
WALL_CURTAIN
100
AcDbCircle
 10
110.41260192345169
 20
17.08843369293026
 30
0.0
 40
0.425
  0
CIRCLE
  5
25E
330
17
100
AcDbEntity
  8
WALL_CURTAIN
100
AcDbCircle
 10
110.4288181396679
 20
17.08843369293026
 30
0.0
 40
0.425
  0
CIRCLE
  5
25F
330
17
100
AcDbEntity
  8
WALL_CURTAIN
100
AcDbCircle
 10
111.02881813966789
 20
17.08843369293026
 30
0.0
 40
0.425
  0
CIRCLE
  5
260
330
17
100
AcDbEntity
  8
WALL_CURTAIN
100
AcDbCircle
 10
111.62881813966789
 20
17.08843369293026
 30
0.0
 40
0.425
  0
CIRCLE
  5
261
330
17
100
AcDbEntity
  8
WALL_CURTAIN
100
AcDbCircle
 10
111.64503435588412
 20
17.08843369293026
 30
0.0
 40
0.425
  0
CIRCLE
  5
262
330
17
100
AcDbEntity
  8
WALL_CURTAIN
100
AcDbCircle
 10
112.24503435588412
 20
17.08843369293026
 30
0.0
 40
0.425
  0
CIRCLE
  5
263
330
17
100
AcDbEntity
  8
WALL_CURTAIN
100
AcDbCircle
 10
112.84503435588411
 20
17.08843369293026
 30
0.0
 40
0.425
  0
CIRCLE
  5
264
330
17
100
AcDbEntity
  8
WALL_CURTAIN
100
AcDbCircle
 10
112.86125057210035
 20
17.08843369293026
 30
0.0
 40
0.425
  0
CIRCLE
  5
265
330
17
100
AcDbEntity
  8
WALL_CURTAIN
100
AcDbCircle
 10
113.46125057210034
 20
17.08843369293026
 30
0.0
 40
0.425
  0
CIRCLE
  5
266
330
17
100
AcDbEntity
  8
WALL_CURTAIN
100
AcDbCircle
 10
114.06125057210033
 20
17.08843369293026
 30
0.0
 40
0.425
  0
CIRCLE
  5
267
330
17
100
AcDbEntity
  8
WALL_CURTAIN
100
AcDbCircle
 10
114.07746678831654
 20
17.08843369293026
 30
0.0
 40
0.425
  0
CIRCLE
  5
268
330
17
100
AcDbEntity
  8
WALL_CURTAIN
100
AcDbCircle
 10
114.67746678831654
 20
17.08843369293026
 30
0.0
 40
0.425
  0
CIRCLE
  5
269
330
17
100
AcDbEntity
  8
WALL_CURTAIN
100
AcDbCircle
 10
115.27746678831653
 20
17.08843369293026
 30
0.0
 40
0.425
  0
CIRCLE
  5
26A
330
17
100
AcDbEntity
  8
WALL_CURTAIN
100
AcDbCircle
 10
115.29368300453277
 20
17.08843369293026
 30
0.0
 40
0.425
  0
CIRCLE
  5
26B
330
17
100
AcDbEntity
  8
WALL_CURTAIN
100
AcDbCircle
 10
115.89368300453276
 20
17.08843369293026
 30
0.0
 40
0.425
  0
CIRCLE
  5
26C
330
17
100
AcDbEntity
  8
WALL_CURTAIN
100
AcDbCircle
 10
116.49368300453276
 20
17.08843369293026
 30
0.0
 40
0.425
  0
CIRCLE
  5
26D
330
17
100
AcDbEntity
  8
WALL_CURTAIN
100
AcDbCircle
 10
116.50989922074899
 20
17.08843369293026
 30
0.0
 40
0.425
  0
CIRCLE
  5
26E
330
17
100
AcDbEntity
  8
WALL_CURTAIN
100
AcDbCircle
 10
117.10989922074899
 20
17.08843369293026
 30
0.0
 40
0.425
  0
CIRCLE
  5
26F
330
17
100
AcDbEntity
  8
WALL_CURTAIN
100
AcDbCircle
 10
117.70989922074898
 20
17.08843369293026
 30
0.0
 40
0.425
  0
CIRCLE
  5
270
330
17
100
AcDbEntity
  8
WALL_CURTAIN
100
AcDbCircle
 10
117.72611543696519
 20
17.08843369293026
 30
0.0
 40
0.425
  0
CIRCLE
  5
271
330
17
100
AcDbEntity
  8
WALL_CURTAIN
100
AcDbCircle
 10
118.32611543696518
 20
17.08843369293026
 30
0.0
 40
0.425
  0
CIRCLE
  5
272
330
17
100
AcDbEntity
  8
WALL_CURTAIN
100
AcDbCircle
 10
118.92611543696518
 20
17.08843369293026
 30
0.0
 40
0.425
  0
CIRCLE
  5
273
330
17
100
AcDbEntity
  8
WALL_CURTAIN
100
AcDbCircle
 10
118.94233165318141
 20
17.08843369293026
 30
0.0
 40
0.425
  0
CIRCLE
  5
274
330
17
100
AcDbEntity
  8
WALL_CURTAIN
100
AcDbCircle
 10
119.5423316531814
 20
17.08843369293026
 30
0.0
 40
0.425
  0
CIRCLE
  5
275
330
17
100
AcDbEntity
  8
WALL_CURTAIN
100
AcDbCircle
 10
120.1423316531814
 20
17.08843369293026
 30
0.0
 40
0.425
  0
CIRCLE
  5
276
330
17
100
AcDbEntity
  8
WALL_CURTAIN
100
AcDbCircle
 10
120.6673316531814
 20
17.613433692930258
 30
0.0
 40
0.425
  0
CIRCLE
  5
277
330
17
100
AcDbEntity
  8
WALL_CURTAIN
100
AcDbCircle
 10
120.6673316531814
 20
18.21343369293026
 30
0.0
 40
0.425
  0
CIRCLE
  5
278
330
17
100
AcDbEntity
  8
WALL_CURTAIN
100
AcDbCircle
 10
120.6673316531814
 20
18.81343369293026
 30
0.0
 40
0.425
  0
CIRCLE
  5
279
330
17
100
AcDbEntity
  8
WALL_CURTAIN
100
AcDbCircle
 10
120.6673316531814
 20
18.82555490505147
 30
0.0
 40
0.425
  0
CIRCLE
  5
27A
330
17
100
AcDbEntity
  8
WALL_CURTAIN
100
AcDbCircle
 10
120.6673316531814
 20
19.42555490505147
 30
0.0
 40
0.425
  0
CIRCLE
  5
27B
330
17
100
AcDbEntity
  8
WALL_CURTAIN
100
AcDbCircle
 10
120.6673316531814
 20
20.02555490505147
 30
0.0
 40
0.425
  0
CIRCLE
  5
27C
330
17
100
AcDbEntity
  8
WALL_CURTAIN
100
AcDbCircle
 10
120.6673316531814
 20
20.037676117172683
 30
0.0
 40
0.425
  0
CIRCLE
  5
27D
330
17
100
AcDbEntity
  8
WALL_CURTAIN
100
AcDbCircle
 10
120.6673316531814
 20
20.637676117172685
 30
0.0
 40
0.425
  0
CIRCLE
  5
27E
330
17
100
AcDbEntity
  8
WALL_CURTAIN
100
AcDbCircle
 10
120.6673316531814
 20
21.237676117172686
 30
0.0
 40
0.425
  0
CIRCLE
  5
27F
330
17
100
AcDbEntity
  8
WALL_CURTAIN
100
AcDbCircle
 10
120.6673316531814
 20
21.249797329293894
 30
0.0
 40
0.425
  0
CIRCLE
  5
280
330
17
100
AcDbEntity
  8
WALL_CURTAIN
100
AcDbCircle
 10
120.6673316531814
 20
21.849797329293896
 30
0.0
 40
0.425
  0
CIRCLE
  5
281
330
17
100
AcDbEntity
  8
WALL_CURTAIN
100
AcDbCircle
 10
120.6673316531814
 20
22.449797329293897
 30
0.0
 40
0.425
  0
CIRCLE
  5
282
330
17
100
AcDbEntity
  8
WALL_CURTAIN
100
AcDbCircle
 10
120.6673316531814
 20
22.461918541415105
 30
0.0
 40
0.425
  0
CIRCLE
  5
283
330
17
100
AcDbEntity
  8
WALL_CURTAIN
100
AcDbCircle
 10
120.6673316531814
 20
23.061918541415107
 30
0.0
 40
0.425
  0
CIRCLE
  5
284
330
17
100
AcDbEntity
  8
WALL_CURTAIN
100
AcDbCircle
 10
120.6673316531814
 20
23.66191854141511
 30
0.0
 40
0.425
  0
CIRCLE
  5
285
330
17
100
AcDbEntity
  8
WALL_CURTAIN
100
AcDbCircle
 10
120.6673316531814
 20
23.67403975353632
 30
0.0
 40
0.425
  0
CIRCLE
  5
286
330
17
100
AcDbEntity
  8
WALL_CURTAIN
100
AcDbCircle
 10
120.6673316531814
 20
24.27403975353632
 30
0.0
 40
0.425
  0
CIRCLE
  5
287
330
17
100
AcDbEntity
  8
WALL_CURTAIN
100
AcDbCircle
 10
120.6673316531814
 20
24.874039753536323
 30
0.0
 40
0.425
  0
CIRCLE
  5
288
330
17
100
AcDbEntity
  8
WALL_CURTAIN
100
AcDbCircle
 10
120.6673316531814
 20
24.88616096565753
 30
0.0
 40
0.425
  0
CIRCLE
  5
289
330
17
100
AcDbEntity
  8
WALL_CURTAIN
100
AcDbCircle
 10
120.6673316531814
 20
25.486160965657533
 30
0.0
 40
0.425
  0
CIRCLE
  5
28A
330
17
100
AcDbEntity
  8
WALL_CURTAIN
100
AcDbCircle
 10
120.6673316531814
 20
26.086160965657534
 30
0.0
 40
0.425
  0
CIRCLE
  5
28B
330
17
100
AcDbEntity
  8
WALL_CURTAIN
100
AcDbCircle
 10
120.6673316531814
 20
26.098282177778742
 30
0.0
 40
0.425
  0
CIRCLE
  5
28C
330
17
100
AcDbEntity
  8
WALL_CURTAIN
100
AcDbCircle
 10
120.6673316531814
 20
26.698282177778744
 30
0.0
 40
0.425
  0
CIRCLE
  5
28D
330
17
100
AcDbEntity
  8
WALL_CURTAIN
100
AcDbCircle
 10
120.6673316531814
 20
27.298282177778745
 30
0.0
 40
0.425
  0
CIRCLE
  5
28E
330
17
100
AcDbEntity
  8
WALL_CURTAIN
100
AcDbCircle
 10
120.6673316531814
 20
27.310403389899953
 30
0.0
 40
0.425
  0
CIRCLE
  5
28F
330
17
100
AcDbEntity
  8
WALL_CURTAIN
100
AcDbCircle
 10
120.6673316531814
 20
27.910403389899955
 30
0.0
 40
0.425
  0
CIRCLE
  5
290
330
17
100
AcDbEntity
  8
WALL_CURTAIN
100
AcDbCircle
 10
120.6673316531814
 20
28.510403389899956
 30
0.0
 40
0.425
  0
CIRCLE
  5
291
330
17
100
AcDbEntity
  8
WALL_CURTAIN
100
AcDbCircle
 10
120.6673316531814
 20
28.522524602021168
 30
0.0
 40
0.425
  0
CIRCLE
  5
292
330
17
100
AcDbEntity
  8
WALL_CURTAIN
100
AcDbCircle
 10
120.6673316531814
 20
29.12252460202117
 30
0.0
 40
0.425
  0
CIRCLE
  5
293
330
17
100
AcDbEntity
  8
WALL_CURTAIN
100
AcDbCircle
 10
120.6673316531814
 20
29.72252460202117
 30
0.0
 40
0.425
  0
CIRCLE
  5
294
330
17
100
AcDbEntity
  8
WALL_CURTAIN
100
AcDbCircle
 10
120.6673316531814
 20
29.73464581414238
 30
0.0
 40
0.425
  0
CIRCLE
  5
295
330
17
100
AcDbEntity
  8
WALL_CURTAIN
100
AcDbCircle
 10
120.6673316531814
 20
30.33464581414238
 30
0.0
 40
0.425
  0
CIRCLE
  5
296
330
17
100
AcDbEntity
  8
WALL_CURTAIN
100
AcDbCircle
 10
120.6673316531814
 20
30.93464581414238
 30
0.0
 40
0.425
  0
CIRCLE
  5
297
330
17
100
AcDbEntity
  8
WALL_CURTAIN
100
AcDbCircle
 10
120.6673316531814
 20
30.946767026263593
 30
0.0
 40
0.425
  0
CIRCLE
  5
298
330
17
100
AcDbEntity
  8
WALL_CURTAIN
100
AcDbCircle
 10
120.6673316531814
 20
31.546767026263595
 30
0.0
 40
0.425
  0
CIRCLE
  5
299
330
17
100
AcDbEntity
  8
WALL_CURTAIN
100
AcDbCircle
 10
120.6673316531814
 20
32.146767026263596
 30
0.0
 40
0.425
  0
CIRCLE
  5
29A
330
17
100
AcDbEntity
  8
WALL_CURTAIN
100
AcDbCircle
 10
120.6673316531814
 20
32.158888238384804
 30
0.0
 40
0.425
  0
CIRCLE
  5
29B
330
17
100
AcDbEntity
  8
WALL_CURTAIN
100
AcDbCircle
 10
120.6673316531814
 20
32.758888238384806
 30
0.0
 40
0.425
  0
CIRCLE
  5
29C
330
17
100
AcDbEntity
  8
WALL_CURTAIN
100
AcDbCircle
 10
120.6673316531814
 20
33.35888823838481
 30
0.0
 40
0.425
  0
CIRCLE
  5
29D
330
17
100
AcDbEntity
  8
WALL_CURTAIN
100
AcDbCircle
 10
120.6673316531814
 20
33.371009450506016
 30
0.0
 40
0.425
  0
CIRCLE
  5
29E
330
17
100
AcDbEntity
  8
WALL_CURTAIN
100
AcDbCircle
 10
120.6673316531814
 20
33.97100945050602
 30
0.0
 40
0.425
  0
CIRCLE
  5
29F
330
17
100
AcDbEntity
  8
WALL_CURTAIN
100
AcDbCircle
 10
120.6673316531814
 20
34.57100945050602
 30
0.0
 40
0.425
  0
CIRCLE
  5
2A0
330
17
100
AcDbEntity
  8
WALL_CURTAIN
100
AcDbCircle
 10
120.6673316531814
 20
34.58313066262723
 30
0.0
 40
0.425
  0
CIRCLE
  5
2A1
330
17
100
AcDbEntity
  8
WALL_CURTAIN
100
AcDbCircle
 10
120.6673316531814
 20
35.18313066262723
 30
0.0
 40
0.425
  0
CIRCLE
  5
2A2
330
17
100
AcDbEntity
  8
WALL_CURTAIN
100
AcDbCircle
 10
120.6673316531814
 20
35.78313066262723
 30
0.0
 40
0.425
  0
CIRCLE
  5
2A3
330
17
100
AcDbEntity
  8
WALL_CURTAIN
100
AcDbCircle
 10
120.6673316531814
 20
35.79525187474844
 30
0.0
 40
0.425
  0
CIRCLE
  5
2A4
330
17
100
AcDbEntity
  8
WALL_CURTAIN
100
AcDbCircle
 10
120.6673316531814
 20
36.39525187474844
 30
0.0
 40
0.425
  0
CIRCLE
  5
2A5
330
17
100
AcDbEntity
  8
WALL_CURTAIN
100
AcDbCircle
 10
120.6673316531814
 20
36.99525187474844
 30
0.0
 40
0.425
  0
CIRCLE
  5
2A6
330
17
100
AcDbEntity
  8
WALL_CURTAIN
100
AcDbCircle
 10
120.6673316531814
 20
37.007373086869656
 30
0.0
 40
0.425
  0
CIRCLE
  5
2A7
330
17
100
AcDbEntity
  8
WALL_CURTAIN
100
AcDbCircle
 10
120.6673316531814
 20
37.60737308686966
 30
0.0
 40
0.425
  0
CIRCLE
  5
2A8
330
17
100
AcDbEntity
  8
WALL_CURTAIN
100
AcDbCircle
 10
120.6673316531814
 20
38.20737308686966
 30
0.0
 40
0.425
  0
CIRCLE
  5
2A9
330
17
100
AcDbEntity
  8
WALL_CURTAIN
100
AcDbCircle
 10
120.6673316531814
 20
38.21949429899086
 30
0.0
 40
0.425
  0
CIRCLE
  5
2AA
330
17
100
AcDbEntity
  8
WALL_CURTAIN
100
AcDbCircle
 10
120.6673316531814
 20
38.81949429899086
 30
0.0
 40
0.425
  0
CIRCLE
  5
2AB
330
17
100
AcDbEntity
  8
WALL_CURTAIN
100
AcDbCircle
 10
120.6673316531814
 20
39.41949429899086
 30
0.0
 40
0.425
  0
CIRCLE
  5
2AC
330
17
100
AcDbEntity
  8
WALL_CURTAIN
100
AcDbCircle
 10
120.6673316531814
 20
39.43161551111208
 30
0.0
 40
0.425
  0
CIRCLE
  5
2AD
330
17
100
AcDbEntity
  8
WALL_CURTAIN
100
AcDbCircle
 10
120.6673316531814
 20
40.03161551111208
 30
0.0
 40
0.425
  0
CIRCLE
  5
2AE
330
17
100
AcDbEntity
  8
WALL_CURTAIN
100
AcDbCircle
 10
120.6673316531814
 20
40.63161551111208
 30
0.0
 40
0.425
  0
CIRCLE
  5
2AF
330
17
100
AcDbEntity
  8
WALL_CURTAIN
100
AcDbCircle
 10
120.6673316531814
 20
40.64373672323329
 30
0.0
 40
0.425
  0
CIRCLE
  5
2B0
330
17
100
AcDbEntity
  8
WALL_CURTAIN
100
AcDbCircle
 10
120.6673316531814
 20
41.24373672323329
 30
0.0
 40
0.425
  0
CIRCLE
  5
2B1
330
17
100
AcDbEntity
  8
WALL_CURTAIN
100
AcDbCircle
 10
120.6673316531814
 20
41.84373672323329
 30
0.0
 40
0.425
  0
CIRCLE
  5
2B2
330
17
100
AcDbEntity
  8
WALL_CURTAIN
100
AcDbCircle
 10
120.6673316531814
 20
41.8558579353545
 30
0.0
 40
0.425
  0
CIRCLE
  5
2B3
330
17
100
AcDbEntity
  8
WALL_CURTAIN
100
AcDbCircle
 10
120.6673316531814
 20
42.4558579353545
 30
0.0
 40
0.425
  0
CIRCLE
  5
2B4
330
17
100
AcDbEntity
  8
WALL_CURTAIN
100
AcDbCircle
 10
120.6673316531814
 20
43.0558579353545
 30
0.0
 40
0.425
  0
CIRCLE
  5
2B5
330
17
100
AcDbEntity
  8
WALL_CURTAIN
100
AcDbCircle
 10
120.6673316531814
 20
43.06797914747572
 30
0.0
 40
0.425
  0
CIRCLE
  5
2B6
330
17
100
AcDbEntity
  8
WALL_CURTAIN
100
AcDbCircle
 10
120.6673316531814
 20
43.66797914747572
 30
0.0
 40
0.425
  0
CIRCLE
  5
2B7
330
17
100
AcDbEntity
  8
WALL_CURTAIN
100
AcDbCircle
 10
120.6673316531814
 20
44.26797914747572
 30
0.0
 40
0.425
  0
CIRCLE
  5
2B8
330
17
100
AcDbEntity
  8
WALL_CURTAIN
100
AcDbCircle
 10
120.6673316531814
 20
44.28010035959692
 30
0.0
 40
0.425
  0
CIRCLE
  5
2B9
330
17
100
AcDbEntity
  8
WALL_CURTAIN
100
AcDbCircle
 10
120.6673316531814
 20
44.88010035959692
 30
0.0
 40
0.425
  0
CIRCLE
  5
2BA
330
17
100
AcDbEntity
  8
WALL_CURTAIN
100
AcDbCircle
 10
120.6673316531814
 20
45.480100359596925
 30
0.0
 40
0.425
  0
CIRCLE
  5
2BB
330
17
100
AcDbEntity
  8
WALL_CURTAIN
100
AcDbCircle
 10
120.6673316531814
 20
45.49222157171814
 30
0.0
 40
0.425
  0
CIRCLE
  5
2BC
330
17
100
AcDbEntity
  8
WALL_CURTAIN
100
AcDbCircle
 10
120.6673316531814
 20
46.09222157171814
 30
0.0
 40
0.425
  0
CIRCLE
  5
2BD
330
17
100
AcDbEntity
  8
WALL_CURTAIN
100
AcDbCircle
 10
120.6673316531814
 20
46.69222157171814
 30
0.0
 40
0.425
  0
CIRCLE
  5
2BE
330
17
100
AcDbEntity
  8
WALL_CURTAIN
100
AcDbCircle
 10
120.6673316531814
 20
46.70434278383935
 30
0.0
 40
0.425
  0
CIRCLE
  5
2BF
330
17
100
AcDbEntity
  8
WALL_CURTAIN
100
AcDbCircle
 10
120.6673316531814
 20
47.30434278383935
 30
0.0
 40
0.425
  0
CIRCLE
  5
2C0
330
17
100
AcDbEntity
  8
WALL_CURTAIN
100
AcDbCircle
 10
120.6673316531814
 20
47.904342783839354
 30
0.0
 40
0.425
  0
CIRCLE
  5
2C1
330
17
100
AcDbEntity
  8
WALL_CURTAIN
100
AcDbCircle
 10
120.6673316531814
 20
47.91646399596056
 30
0.0
 40
0.425
  0
CIRCLE
  5
2C2
330
17
100
AcDbEntity
  8
WALL_CURTAIN
100
AcDbCircle
 10
120.6673316531814
 20
48.516463995960564
 30
0.0
 40
0.425
  0
CIRCLE
  5
2C3
330
17
100
AcDbEntity
  8
WALL_CURTAIN
100
AcDbCircle
 10
120.6673316531814
 20
49.116463995960565
 30
0.0
 40
0.425
  0
CIRCLE
  5
2C4
330
17
100
AcDbEntity
  8
WALL_CURTAIN
100
AcDbCircle
 10
120.6673316531814
 20
49.12858520808177
 30
0.0
 40
0.425
  0
CIRCLE
  5
2C5
330
17
100
AcDbEntity
  8
WALL_CURTAIN
100
AcDbCircle
 10
120.6673316531814
 20
49.728585208081775
 30
0.0
 40
0.425
  0
CIRCLE
  5
2C6
330
17
100
AcDbEntity
  8
WALL_CURTAIN
100
AcDbCircle
 10
120.6673316531814
 20
50.328585208081776
 30
0.0
 40
0.425
  0
CIRCLE
  5
2C7
330
17
100
AcDbEntity
  8
WALL_CURTAIN
100
AcDbCircle
 10
120.6673316531814
 20
50.340706420202984
 30
0.0
 40
0.425
  0
CIRCLE
  5
2C8
330
17
100
AcDbEntity
  8
WALL_CURTAIN
100
AcDbCircle
 10
120.6673316531814
 20
50.940706420202986
 30
0.0
 40
0.425
  0
CIRCLE
  5
2C9
330
17
100
AcDbEntity
  8
WALL_CURTAIN
100
AcDbCircle
 10
120.6673316531814
 20
51.54070642020299
 30
0.0
 40
0.425
  0
CIRCLE
  5
2CA
330
17
100
AcDbEntity
  8
WALL_CURTAIN
100
AcDbCircle
 10
120.6673316531814
 20
51.552827632324195
 30
0.0
 40
0.425
  0
CIRCLE
  5
2CB
330
17
100
AcDbEntity
  8
WALL_CURTAIN
100
AcDbCircle
 10
120.6673316531814
 20
52.1528276323242
 30
0.0
 40
0.425
  0
CIRCLE
  5
2CC
330
17
100
AcDbEntity
  8
WALL_CURTAIN
100
AcDbCircle
 10
120.6673316531814
 20
52.7528276323242
 30
0.0
 40
0.425
  0
CIRCLE
  5
2CD
330
17
100
AcDbEntity
  8
WALL_CURTAIN
100
AcDbCircle
 10
120.6673316531814
 20
52.764948844445414
 30
0.0
 40
0.425
  0
CIRCLE
  5
2CE
330
17
100
AcDbEntity
  8
WALL_CURTAIN
100
AcDbCircle
 10
120.6673316531814
 20
53.364948844445415
 30
0.0
 40
0.425
  0
CIRCLE
  5
2CF
330
17
100
AcDbEntity
  8
WALL_CURTAIN
100
AcDbCircle
 10
120.6673316531814
 20
53.964948844445416
 30
0.0
 40
0.425
  0
CIRCLE
  5
2D0
330
17
100
AcDbEntity
  8
WALL_CURTAIN
100
AcDbCircle
 10
120.6673316531814
 20
53.977070056566625
 30
0.0
 40
0.425
  0
CIRCLE
  5
2D1
330
17
100
AcDbEntity
  8
WALL_CURTAIN
100
AcDbCircle
 10
120.6673316531814
 20
54.577070056566626
 30
0.0
 40
0.425
  0
CIRCLE
  5
2D2
330
17
100
AcDbEntity
  8
WALL_CURTAIN
100
AcDbCircle
 10
120.6673316531814
 20
55.17707005656663
 30
0.0
 40
0.425
  0
CIRCLE
  5
2D3
330
17
100
AcDbEntity
  8
WALL_CURTAIN
100
AcDbCircle
 10
120.6673316531814
 20
55.189191268687836
 30
0.0
 40
0.425
  0
CIRCLE
  5
2D4
330
17
100
AcDbEntity
  8
WALL_CURTAIN
100
AcDbCircle
 10
120.6673316531814
 20
55.78919126868784
 30
0.0
 40
0.425
  0
CIRCLE
  5
2D5
330
17
100
AcDbEntity
  8
WALL_CURTAIN
100
AcDbCircle
 10
120.6673316531814
 20
56.38919126868784
 30
0.0
 40
0.425
  0
CIRCLE
  5
2D6
330
17
100
AcDbEntity
  8
WALL_CURTAIN
100
AcDbCircle
 10
120.6673316531814
 20
56.40131248080905
 30
0.0
 40
0.425
  0
CIRCLE
  5
2D7
330
17
100
AcDbEntity
  8
WALL_CURTAIN
100
AcDbCircle
 10
120.6673316531814
 20
57.00131248080905
 30
0.0
 40
0.425
  0
CIRCLE
  5
2D8
330
17
100
AcDbEntity
  8
WALL_CURTAIN
100
AcDbCircle
 10
120.6673316531814
 20
57.60131248080905
 30
0.0
 40
0.425
  0
CIRCLE
  5
2D9
330
17
100
AcDbEntity
  8
WALL_CURTAIN
100
AcDbCircle
 10
120.6673316531814
 20
57.61343369293026
 30
0.0
 40
0.425
  0
CIRCLE
  5
2DA
330
17
100
AcDbEntity
  8
WALL_CURTAIN
100
AcDbCircle
 10
120.6673316531814
 20
58.21343369293026
 30
0.0
 40
0.425
  0
CIRCLE
  5
2DB
330
17
100
AcDbEntity
  8
WALL_CURTAIN
100
AcDbCircle
 10
120.6673316531814
 20
58.81343369293026
 30
0.0
 40
0.425
  0
CIRCLE
  5
2DC
330
17
100
AcDbEntity
  8
WALL_CURTAIN
100
AcDbCircle
 10
120.6673316531814
 20
58.82555490505147
 30
0.0
 40
0.425
  0
CIRCLE
  5
2DD
330
17
100
AcDbEntity
  8
WALL_CURTAIN
100
AcDbCircle
 10
120.6673316531814
 20
59.42555490505147
 30
0.0
 40
0.425
  0
CIRCLE
  5
2DE
330
17
100
AcDbEntity
  8
WALL_CURTAIN
100
AcDbCircle
 10
120.6673316531814
 20
60.02555490505147
 30
0.0
 40
0.425
  0
CIRCLE
  5
2DF
330
17
100
AcDbEntity
  8
WALL_CURTAIN
100
AcDbCircle
 10
120.6673316531814
 20
60.03767611717268
 30
0.0
 40
0.425
  0
CIRCLE
  5
2E0
330
17
100
AcDbEntity
  8
WALL_CURTAIN
100
AcDbCircle
 10
120.6673316531814
 20
60.63767611717268
 30
0.0
 40
0.425
  0
CIRCLE
  5
2E1
330
17
100
AcDbEntity
  8
WALL_CURTAIN
100
AcDbCircle
 10
120.6673316531814
 20
61.23767611717268
 30
0.0
 40
0.425
  0
CIRCLE
  5
2E2
330
17
100
AcDbEntity
  8
WALL_CURTAIN
100
AcDbCircle
 10
120.6673316531814
 20
61.2497973292939
 30
0.0
 40
0.425
  0
CIRCLE
  5
2E3
330
17
100
AcDbEntity
  8
WALL_CURTAIN
100
AcDbCircle
 10
120.6673316531814
 20
61.8497973292939
 30
0.0
 40
0.425
  0
CIRCLE
  5
2E4
330
17
100
AcDbEntity
  8
WALL_CURTAIN
100
AcDbCircle
 10
120.6673316531814
 20
62.4497973292939
 30
0.0
 40
0.425
  0
CIRCLE
  5
2E5
330
17
100
AcDbEntity
  8
WALL_CURTAIN
100
AcDbCircle
 10
120.6673316531814
 20
62.46191854141511
 30
0.0
 40
0.425
  0
CIRCLE
  5
2E6
330
17
100
AcDbEntity
  8
WALL_CURTAIN
100
AcDbCircle
 10
120.6673316531814
 20
63.06191854141511
 30
0.0
 40
0.425
  0
CIRCLE
  5
2E7
330
17
100
AcDbEntity
  8
WALL_CURTAIN
100
AcDbCircle
 10
120.6673316531814
 20
63.66191854141511
 30
0.0
 40
0.425
  0
CIRCLE
  5
2E8
330
17
100
AcDbEntity
  8
WALL_CURTAIN
100
AcDbCircle
 10
120.6673316531814
 20
63.67403975353633
 30
0.0
 40
0.425
  0
CIRCLE
  5
2E9
330
17
100
AcDbEntity
  8
WALL_CURTAIN
100
AcDbCircle
 10
120.6673316531814
 20
64.27403975353633
 30
0.0
 40
0.425
  0
CIRCLE
  5
2EA
330
17
100
AcDbEntity
  8
WALL_CURTAIN
100
AcDbCircle
 10
120.6673316531814
 20
64.87403975353632
 30
0.0
 40
0.425
  0
CIRCLE
  5
2EB
330
17
100
AcDbEntity
  8
WALL_CURTAIN
100
AcDbCircle
 10
120.6673316531814
 20
64.88616096565754
 30
0.0
 40
0.425
  0
CIRCLE
  5
2EC
330
17
100
AcDbEntity
  8
WALL_CURTAIN
100
AcDbCircle
 10
120.6673316531814
 20
65.48616096565753
 30
0.0
 40
0.425
  0
CIRCLE
  5
2ED
330
17
100
AcDbEntity
  8
WALL_CURTAIN
100
AcDbCircle
 10
120.6673316531814
 20
66.08616096565753
 30
0.0
 40
0.425
  0
CIRCLE
  5
2EE
330
17
100
AcDbEntity
  8
WALL_CURTAIN
100
AcDbCircle
 10
120.6673316531814
 20
66.09828217777874
 30
0.0
 40
0.425
  0
CIRCLE
  5
2EF
330
17
100
AcDbEntity
  8
WALL_CURTAIN
100
AcDbCircle
 10
120.6673316531814
 20
66.69828217777874
 30
0.0
 40
0.425
  0
CIRCLE
  5
2F0
330
17
100
AcDbEntity
  8
WALL_CURTAIN
100
AcDbCircle
 10
120.6673316531814
 20
67.29828217777873
 30
0.0
 40
0.425
  0
CIRCLE
  5
2F1
330
17
100
AcDbEntity
  8
WALL_CURTAIN
100
AcDbCircle
 10
120.6673316531814
 20
67.31040338989996
 30
0.0
 40
0.425
  0
CIRCLE
  5
2F2
330
17
100
AcDbEntity
  8
WALL_CURTAIN
100
AcDbCircle
 10
120.6673316531814
 20
67.91040338989995
 30
0.0
 40
0.425
  0
CIRCLE
  5
2F3
330
17
100
AcDbEntity
  8
WALL_CURTAIN
100
AcDbCircle
 10
120.6673316531814
 20
68.51040338989995
 30
0.0
 40
0.425
  0
CIRCLE
  5
2F4
330
17
100
AcDbEntity
  8
WALL_CURTAIN
100
AcDbCircle
 10
120.6673316531814
 20
68.52252460202118
 30
0.0
 40
0.425
  0
CIRCLE
  5
2F5
330
17
100
AcDbEntity
  8
WALL_CURTAIN
100
AcDbCircle
 10
120.6673316531814
 20
69.12252460202117
 30
0.0
 40
0.425
  0
CIRCLE
  5
2F6
330
17
100
AcDbEntity
  8
WALL_CURTAIN
100
AcDbCircle
 10
120.6673316531814
 20
69.72252460202117
 30
0.0
 40
0.425
  0
CIRCLE
  5
2F7
330
17
100
AcDbEntity
  8
WALL_CURTAIN
100
AcDbCircle
 10
120.6673316531814
 20
69.7346458141424
 30
0.0
 40
0.425
  0
CIRCLE
  5
2F8
330
17
100
AcDbEntity
  8
WALL_CURTAIN
100
AcDbCircle
 10
120.6673316531814
 20
70.33464581414239
 30
0.0
 40
0.425
  0
CIRCLE
  5
2F9
330
17
100
AcDbEntity
  8
WALL_CURTAIN
100
AcDbCircle
 10
120.6673316531814
 20
70.93464581414239
 30
0.0
 40
0.425
  0
CIRCLE
  5
2FA
330
17
100
AcDbEntity
  8
WALL_CURTAIN
100
AcDbCircle
 10
120.6673316531814
 20
70.9467670262636
 30
0.0
 40
0.425
  0
CIRCLE
  5
2FB
330
17
100
AcDbEntity
  8
WALL_CURTAIN
100
AcDbCircle
 10
120.6673316531814
 20
71.5467670262636
 30
0.0
 40
0.425
  0
CIRCLE
  5
2FC
330
17
100
AcDbEntity
  8
WALL_CURTAIN
100
AcDbCircle
 10
120.6673316531814
 20
72.14676702626359
 30
0.0
 40
0.425
  0
CIRCLE
  5
2FD
330
17
100
AcDbEntity
  8
WALL_CURTAIN
100
AcDbCircle
 10
120.6673316531814
 20
72.1588882383848
 30
0.0
 40
0.425
  0
CIRCLE
  5
2FE
330
17
100
AcDbEntity
  8
WALL_CURTAIN
100
AcDbCircle
 10
120.6673316531814
 20
72.7588882383848
 30
0.0
 40
0.425
  0
CIRCLE
  5
2FF
330
17
100
AcDbEntity
  8
WALL_CURTAIN
100
AcDbCircle
 10
120.6673316531814
 20
73.3588882383848
 30
0.0
 40
0.425
  0
CIRCLE
  5
300
330
17
100
AcDbEntity
  8
WALL_CURTAIN
100
AcDbCircle
 10
120.6673316531814
 20
73.37100945050602
 30
0.0
 40
0.425
  0
CIRCLE
  5
301
330
17
100
AcDbEntity
  8
WALL_CURTAIN
100
AcDbCircle
 10
120.6673316531814
 20
73.97100945050602
 30
0.0
 40
0.425
  0
CIRCLE
  5
302
330
17
100
AcDbEntity
  8
WALL_CURTAIN
100
AcDbCircle
 10
120.6673316531814
 20
74.57100945050601
 30
0.0
 40
0.425
  0
CIRCLE
  5
303
330
17
100
AcDbEntity
  8
WALL_CURTAIN
100
AcDbCircle
 10
120.6673316531814
 20
74.58313066262724
 30
0.0
 40
0.425
  0
CIRCLE
  5
304
330
17
100
AcDbEntity
  8
WALL_CURTAIN
100
AcDbCircle
 10
120.6673316531814
 20
75.18313066262724
 30
0.0
 40
0.425
  0
CIRCLE
  5
305
330
17
100
AcDbEntity
  8
WALL_CURTAIN
100
AcDbCircle
 10
120.6673316531814
 20
75.78313066262723
 30
0.0
 40
0.425
  0
CIRCLE
  5
306
330
17
100
AcDbEntity
  8
WALL_CURTAIN
100
AcDbCircle
 10
120.6673316531814
 20
75.79525187474846
 30
0.0
 40
0.425
  0
CIRCLE
  5
307
330
17
100
AcDbEntity
  8
WALL_CURTAIN
100
AcDbCircle
 10
120.6673316531814
 20
76.39525187474845
 30
0.0
 40
0.425
  0
CIRCLE
  5
308
330
17
100
AcDbEntity
  8
WALL_CURTAIN
100
AcDbCircle
 10
120.6673316531814
 20
76.99525187474845
 30
0.0
 40
0.425
  0
CIRCLE
  5
309
330
17
100
AcDbEntity
  8
WALL_CURTAIN
100
AcDbCircle
 10
120.6673316531814
 20
77.00737308686966
 30
0.0
 40
0.425
  0
CIRCLE
  5
30A
330
17
100
AcDbEntity
  8
WALL_CURTAIN
100
AcDbCircle
 10
120.6673316531814
 20
77.60737308686966
 30
0.0
 40
0.425
  0
CIRCLE
  5
30B
330
17
100
AcDbEntity
  8
WALL_CURTAIN
100
AcDbCircle
 10
120.6673316531814
 20
78.20737308686965
 30
0.0
 40
0.425
  0
CIRCLE
  5
30C
330
17
100
AcDbEntity
  8
WALL_CURTAIN
100
AcDbCircle
 10
120.6673316531814
 20
78.21949429899087
 30
0.0
 40
0.425
  0
CIRCLE
  5
30D
330
17
100
AcDbEntity
  8
WALL_CURTAIN
100
AcDbCircle
 10
120.6673316531814
 20
78.81949429899086
 30
0.0
 40
0.425
  0
CIRCLE
  5
30E
330
17
100
AcDbEntity
  8
WALL_CURTAIN
100
AcDbCircle
 10
120.6673316531814
 20
79.41949429899086
 30
0.0
 40
0.425
  0
CIRCLE
  5
30F
330
17
100
AcDbEntity
  8
WALL_CURTAIN
100
AcDbCircle
 10
120.6673316531814
 20
79.43161551111208
 30
0.0
 40
0.425
  0
CIRCLE
  5
310
330
17
100
AcDbEntity
  8
WALL_CURTAIN
100
AcDbCircle
 10
120.6673316531814
 20
80.03161551111208
 30
0.0
 40
0.425
  0
CIRCLE
  5
311
330
17
100
AcDbEntity
  8
WALL_CURTAIN
100
AcDbCircle
 10
120.6673316531814
 20
80.63161551111207
 30
0.0
 40
0.425
  0
CIRCLE
  5
312
330
17
100
AcDbEntity
  8
WALL_CURTAIN
100
AcDbCircle
 10
120.6673316531814
 20
80.6437367232333
 30
0.0
 40
0.425
  0
CIRCLE
  5
313
330
17
100
AcDbEntity
  8
WALL_CURTAIN
100
AcDbCircle
 10
120.6673316531814
 20
81.2437367232333
 30
0.0
 40
0.425
  0
CIRCLE
  5
314
330
17
100
AcDbEntity
  8
WALL_CURTAIN
100
AcDbCircle
 10
120.6673316531814
 20
81.84373672323329
 30
0.0
 40
0.425
  0
CIRCLE
  5
315
330
17
100
AcDbEntity
  8
WALL_CURTAIN
100
AcDbCircle
 10
120.6673316531814
 20
81.85585793535452
 30
0.0
 40
0.425
  0
CIRCLE
  5
316
330
17
100
AcDbEntity
  8
WALL_CURTAIN
100
AcDbCircle
 10
120.6673316531814
 20
82.45585793535452
 30
0.0
 40
0.425
  0
CIRCLE
  5
317
330
17
100
AcDbEntity
  8
WALL_CURTAIN
100
AcDbCircle
 10
120.6673316531814
 20
83.05585793535451
 30
0.0
 40
0.425
  0
CIRCLE
  5
318
330
17
100
AcDbEntity
  8
WALL_CURTAIN
100
AcDbCircle
 10
120.6673316531814
 20
83.06797914747571
 30
0.0
 40
0.425
  0
CIRCLE
  5
319
330
17
100
AcDbEntity
  8
WALL_CURTAIN
100
AcDbCircle
 10
120.6673316531814
 20
83.6679791474757
 30
0.0
 40
0.425
  0
CIRCLE
  5
31A
330
17
100
AcDbEntity
  8
WALL_CURTAIN
100
AcDbCircle
 10
120.6673316531814
 20
84.2679791474757
 30
0.0
 40
0.425
  0
CIRCLE
  5
31B
330
17
100
AcDbEntity
  8
WALL_CURTAIN
100
AcDbCircle
 10
120.6673316531814
 20
84.28010035959693
 30
0.0
 40
0.425
  0
CIRCLE
  5
31C
330
17
100
AcDbEntity
  8
WALL_CURTAIN
100
AcDbCircle
 10
120.6673316531814
 20
84.88010035959692
 30
0.0
 40
0.425
  0
CIRCLE
  5
31D
330
17
100
AcDbEntity
  8
WALL_CURTAIN
100
AcDbCircle
 10
120.6673316531814
 20
85.48010035959692
 30
0.0
 40
0.425
  0
CIRCLE
  5
31E
330
17
100
AcDbEntity
  8
WALL_CURTAIN
100
AcDbCircle
 10
120.6673316531814
 20
85.49222157171815
 30
0.0
 40
0.425
  0
CIRCLE
  5
31F
330
17
100
AcDbEntity
  8
WALL_CURTAIN
100
AcDbCircle
 10
120.6673316531814
 20
86.09222157171814
 30
0.0
 40
0.425
  0
CIRCLE
  5
320
330
17
100
AcDbEntity
  8
WALL_CURTAIN
100
AcDbCircle
 10
120.6673316531814
 20
86.69222157171814
 30
0.0
 40
0.425
  0
CIRCLE
  5
321
330
17
100
AcDbEntity
  8
WALL_CURTAIN
100
AcDbCircle
 10
120.6673316531814
 20
86.70434278383937
 30
0.0
 40
0.425
  0
CIRCLE
  5
322
330
17
100
AcDbEntity
  8
WALL_CURTAIN
100
AcDbCircle
 10
120.6673316531814
 20
87.30434278383936
 30
0.0
 40
0.425
  0
CIRCLE
  5
323
330
17
100
AcDbEntity
  8
WALL_CURTAIN
100
AcDbCircle
 10
120.6673316531814
 20
87.90434278383935
 30
0.0
 40
0.425
  0
CIRCLE
  5
324
330
17
100
AcDbEntity
  8
WALL_CURTAIN
100
AcDbCircle
 10
120.6673316531814
 20
87.91646399596058
 30
0.0
 40
0.425
  0
CIRCLE
  5
325
330
17
100
AcDbEntity
  8
WALL_CURTAIN
100
AcDbCircle
 10
120.6673316531814
 20
88.51646399596058
 30
0.0
 40
0.425
  0
CIRCLE
  5
326
330
17
100
AcDbEntity
  8
WALL_CURTAIN
100
AcDbCircle
 10
120.6673316531814
 20
89.11646399596057
 30
0.0
 40
0.425
  0
CIRCLE
  5
327
330
17
100
AcDbEntity
  8
WALL_CURTAIN
100
AcDbCircle
 10
120.6673316531814
 20
89.12858520808177
 30
0.0
 40
0.425
  0
CIRCLE
  5
328
330
17
100
AcDbEntity
  8
WALL_CURTAIN
100
AcDbCircle
 10
120.6673316531814
 20
89.72858520808177
 30
0.0
 40
0.425
  0
CIRCLE
  5
329
330
17
100
AcDbEntity
  8
WALL_CURTAIN
100
AcDbCircle
 10
120.6673316531814
 20
90.32858520808176
 30
0.0
 40
0.425
  0
CIRCLE
  5
32A
330
17
100
AcDbEntity
  8
WALL_CURTAIN
100
AcDbCircle
 10
120.6673316531814
 20
90.34070642020299
 30
0.0
 40
0.425
  0
CIRCLE
  5
32B
330
17
100
AcDbEntity
  8
WALL_CURTAIN
100
AcDbCircle
 10
120.6673316531814
 20
90.94070642020299
 30
0.0
 40
0.425
  0
CIRCLE
  5
32C
330
17
100
AcDbEntity
  8
WALL_CURTAIN
100
AcDbCircle
 10
120.6673316531814
 20
91.54070642020298
 30
0.0
 40
0.425
  0
CIRCLE
  5
32D
330
17
100
AcDbEntity
  8
WALL_CURTAIN
100
AcDbCircle
 10
120.6673316531814
 20
91.55282763232421
 30
0.0
 40
0.425
  0
CIRCLE
  5
32E
330
17
100
AcDbEntity
  8
WALL_CURTAIN
100
AcDbCircle
 10
120.6673316531814
 20
92.1528276323242
 30
0.0
 40
0.425
  0
CIRCLE
  5
32F
330
17
100
AcDbEntity
  8
WALL_CURTAIN
100
AcDbCircle
 10
120.6673316531814
 20
92.7528276323242
 30
0.0
 40
0.425
  0
CIRCLE
  5
330
330
17
100
AcDbEntity
  8
WALL_CURTAIN
100
AcDbCircle
 10
120.6673316531814
 20
92.76494884444543
 30
0.0
 40
0.425
  0
CIRCLE
  5
331
330
17
100
AcDbEntity
  8
WALL_CURTAIN
100
AcDbCircle
 10
120.6673316531814
 20
93.36494884444542
 30
0.0
 40
0.425
  0
CIRCLE
  5
332
330
17
100
AcDbEntity
  8
WALL_CURTAIN
100
AcDbCircle
 10
120.6673316531814
 20
93.96494884444542
 30
0.0
 40
0.425
  0
CIRCLE
  5
333
330
17
100
AcDbEntity
  8
WALL_CURTAIN
100
AcDbCircle
 10
120.6673316531814
 20
93.97707005656662
 30
0.0
 40
0.425
  0
CIRCLE
  5
334
330
17
100
AcDbEntity
  8
WALL_CURTAIN
100
AcDbCircle
 10
120.6673316531814
 20
94.57707005656661
 30
0.0
 40
0.425
  0
CIRCLE
  5
335
330
17
100
AcDbEntity
  8
WALL_CURTAIN
100
AcDbCircle
 10
120.6673316531814
 20
95.1770700565666
 30
0.0
 40
0.425
  0
CIRCLE
  5
336
330
17
100
AcDbEntity
  8
WALL_CURTAIN
100
AcDbCircle
 10
120.6673316531814
 20
95.18919126868784
 30
0.0
 40
0.425
  0
CIRCLE
  5
337
330
17
100
AcDbEntity
  8
WALL_CURTAIN
100
AcDbCircle
 10
120.6673316531814
 20
95.78919126868783
 30
0.0
 40
0.425
  0
CIRCLE
  5
338
330
17
100
AcDbEntity
  8
WALL_CURTAIN
100
AcDbCircle
 10
120.6673316531814
 20
96.38919126868782
 30
0.0
 40
0.425
  0
CIRCLE
  5
339
330
17
100
AcDbEntity
  8
WALL_CURTAIN
100
AcDbCircle
 10
120.6673316531814
 20
96.40131248080905
 30
0.0
 40
0.425
  0
CIRCLE
  5
33A
330
17
100
AcDbEntity
  8
WALL_CURTAIN
100
AcDbCircle
 10
120.6673316531814
 20
97.00131248080905
 30
0.0
 40
0.425
  0
CIRCLE
  5
33B
330
17
100
AcDbEntity
  8
WALL_CURTAIN
100
AcDbCircle
 10
120.6673316531814
 20
97.60131248080904
 30
0.0
 40
0.425
  0
CIRCLE
  5
33C
330
17
100
AcDbEntity
  8
WALL_CURTAIN
100
AcDbCircle
 10
120.6673316531814
 20
97.61343369293027
 30
0.0
 40
0.425
  0
CIRCLE
  5
33D
330
17
100
AcDbEntity
  8
WALL_CURTAIN
100
AcDbCircle
 10
120.6673316531814
 20
98.21343369293027
 30
0.0
 40
0.425
  0
CIRCLE
  5
33E
330
17
100
AcDbEntity
  8
WALL_CURTAIN
100
AcDbCircle
 10
120.6673316531814
 20
98.81343369293026
 30
0.0
 40
0.425
  0
CIRCLE
  5
33F
330
17
100
AcDbEntity
  8
WALL_CURTAIN
100
AcDbCircle
 10
120.1423316531814
 20
99.33843369293027
 30
0.0
 40
0.425
  0
CIRCLE
  5
340
330
17
100
AcDbEntity
  8
WALL_CURTAIN
100
AcDbCircle
 10
119.5423316531814
 20
99.33843369293027
 30
0.0
 40
0.425
  0
CIRCLE
  5
341
330
17
100
AcDbEntity
  8
WALL_CURTAIN
100
AcDbCircle
 10
118.94233165318141
 20
99.33843369293027
 30
0.0
 40
0.425
  0
CIRCLE
  5
342
330
17
100
AcDbEntity
  8
WALL_CURTAIN
100
AcDbCircle
 10
118.33564286834245
 20
99.33843369293027
 30
0.0
 40
0.425
  0
CIRCLE
  5
343
330
17
100
AcDbEntity
  8
WALL_CURTAIN
100
AcDbCircle
 10
117.73564286834245
 20
99.33843369293027
 30
0.0
 40
0.425
  0
CIRCLE
  5
344
330
17
100
AcDbEntity
  8
WALL_CURTAIN
100
AcDbCircle
 10
117.12895408350349
 20
99.33843369293027
 30
0.0
 40
0.425
  0
CIRCLE
  5
345
330
17
100
AcDbEntity
  8
WALL_CURTAIN
100
AcDbCircle
 10
116.52895408350349
 20
99.33843369293027
 30
0.0
 40
0.425
  0
CIRCLE
  5
346
330
17
100
AcDbEntity
  8
WALL_CURTAIN
100
AcDbCircle
 10
115.92226529866451
 20
99.33843369293027
 30
0.0
 40
0.425
  0
CIRCLE
  5
347
330
17
100
AcDbEntity
  8
WALL_CURTAIN
100
AcDbCircle
 10
115.32226529866452
 20
99.33843369293027
 30
0.0
 40
0.425
  0
CIRCLE
  5
348
330
17
100
AcDbEntity
  8
WALL_CURTAIN
100
AcDbCircle
 10
114.71557651382555
 20
99.33843369293027
 30
0.0
 40
0.425
  0
CIRCLE
  5
349
330
17
100
AcDbEntity
  8
WALL_CURTAIN
100
AcDbCircle
 10
114.11557651382556
 20
99.33843369293027
 30
0.0
 40
0.425
  0
CIRCLE
  5
34A
330
17
100
AcDbEntity
  8
WALL_CURTAIN
100
AcDbCircle
 10
113.5088877289866
 20
99.33843369293027
 30
0.0
 40
0.425
  0
CIRCLE
  5
34B
330
17
100
AcDbEntity
  8
WALL_CURTAIN
100
AcDbCircle
 10
112.9088877289866
 20
99.33843369293027
 30
0.0
 40
0.425
  0
CIRCLE
  5
34C
330
17
100
AcDbEntity
  8
WALL_CURTAIN
100
AcDbCircle
 10
112.30219894414762
 20
99.33843369293027
 30
0.0
 40
0.425
  0
CIRCLE
  5
34D
330
17
100
AcDbEntity
  8
WALL_CURTAIN
100
AcDbCircle
 10
111.70219894414763
 20
99.33843369293027
 30
0.0
 40
0.425
  0
CIRCLE
  5
34E
330
17
100
AcDbEntity
  8
WALL_CURTAIN
100
AcDbCircle
 10
111.09551015930866
 20
99.33843369293027
 30
0.0
 40
0.425
  0
CIRCLE
  5
34F
330
17
100
AcDbEntity
  8
WALL_CURTAIN
100
AcDbCircle
 10
110.49551015930867
 20
99.33843369293027
 30
0.0
 40
0.425
  0
CIRCLE
  5
350
330
17
100
AcDbEntity
  8
WALL_CURTAIN
100
AcDbCircle
 10
109.8888213744697
 20
99.33843369293027
 30
0.0
 40
0.425
  0
CIRCLE
  5
351
330
17
100
AcDbEntity
  8
WALL_CURTAIN
100
AcDbCircle
 10
109.2888213744697
 20
99.33843369293027
 30
0.0
 40
0.425
  0
CIRCLE
  5
352
330
17
100
AcDbEntity
  8
WALL_CURTAIN
100
AcDbCircle
 10
108.68213258963074
 20
99.33843369293027
 30
0.0
 40
0.425
  0
CIRCLE
  5
353
330
17
100
AcDbEntity
  8
WALL_CURTAIN
100
AcDbCircle
 10
108.08213258963075
 20
99.33843369293027
 30
0.0
 40
0.425
  0
CIRCLE
  5
354
330
17
100
AcDbEntity
  8
WALL_CURTAIN
100
AcDbCircle
 10
107.47544380479178
 20
99.33843369293027
 30
0.0
 40
0.425
  0
CIRCLE
  5
355
330
17
100
AcDbEntity
  8
WALL_CURTAIN
100
AcDbCircle
 10
106.87544380479179
 20
99.33843369293027
 30
0.0
 40
0.425
  0
CIRCLE
  5
356
330
17
100
AcDbEntity
  8
WALL_CURTAIN
100
AcDbCircle
 10
106.2687550199528
 20
99.33843369293027
 30
0.0
 40
0.425
  0
CIRCLE
  5
357
330
17
100
AcDbEntity
  8
WALL_CURTAIN
100
AcDbCircle
 10
105.66875501995281
 20
99.33843369293027
 30
0.0
 40
0.425
  0
CIRCLE
  5
358
330
17
100
AcDbEntity
  8
WALL_CURTAIN
100
AcDbCircle
 10
105.06206623511385
 20
99.33843369293027
 30
0.0
 40
0.425
  0
CIRCLE
  5
359
330
17
100
AcDbEntity
  8
WALL_CURTAIN
100
AcDbCircle
 10
104.46206623511385
 20
99.33843369293027
 30
0.0
 40
0.425
  0
CIRCLE
  5
35A
330
17
100
AcDbEntity
  8
WALL_CURTAIN
100
AcDbCircle
 10
103.85537745027489
 20
99.33843369293027
 30
0.0
 40
0.425
  0
CIRCLE
  5
35B
330
17
100
AcDbEntity
  8
WALL_CURTAIN
100
AcDbCircle
 10
103.25537745027489
 20
99.33843369293027
 30
0.0
 40
0.425
  0
CIRCLE
  5
35C
330
17
100
AcDbEntity
  8
WALL_CURTAIN
100
AcDbCircle
 10
102.64868866543591
 20
99.33843369293027
 30
0.0
 40
0.425
  0
CIRCLE
  5
35D
330
17
100
AcDbEntity
  8
WALL_CURTAIN
100
AcDbCircle
 10
102.04868866543592
 20
99.33843369293027
 30
0.0
 40
0.425
  0
CIRCLE
  5
35E
330
17
100
AcDbEntity
  8
WALL_CURTAIN
100
AcDbCircle
 10
101.44199988059695
 20
99.33843369293027
 30
0.0
 40
0.425
  0
CIRCLE
  5
35F
330
17
100
AcDbEntity
  8
WALL_CURTAIN
100
AcDbCircle
 10
100.84199988059696
 20
99.33843369293027
 30
0.0
 40
0.425
  0
CIRCLE
  5
360
330
17
100
AcDbEntity
  8
WALL_CURTAIN
100
AcDbCircle
 10
100.235311095758
 20
99.33843369293027
 30
0.0
 40
0.425
  0
CIRCLE
  5
361
330
17
100
AcDbEntity
  8
WALL_CURTAIN
100
AcDbCircle
 10
99.635311095758
 20
99.33843369293027
 30
0.0
 40
0.425
  0
CIRCLE
  5
362
330
17
100
AcDbEntity
  8
WALL_CURTAIN
100
AcDbCircle
 10
99.02862231091903
 20
99.33843369293027
 30
0.0
 40
0.425
  0
CIRCLE
  5
363
330
17
100
AcDbEntity
  8
WALL_CURTAIN
100
AcDbCircle
 10
98.42862231091904
 20
99.33843369293027
 30
0.0
 40
0.425
  0
CIRCLE
  5
364
330
17
100
AcDbEntity
  8
WALL_CURTAIN
100
AcDbCircle
 10
97.82193352608007
 20
99.33843369293027
 30
0.0
 40
0.425
  0
CIRCLE
  5
365
330
17
100
AcDbEntity
  8
WALL_CURTAIN
100
AcDbCircle
 10
97.22193352608008
 20
99.33843369293027
 30
0.0
 40
0.425
  0
CIRCLE
  5
366
330
17
100
AcDbEntity
  8
WALL_CURTAIN
100
AcDbCircle
 10
96.6152447412411
 20
99.33843369293027
 30
0.0
 40
0.425
  0
CIRCLE
  5
367
330
17
100
AcDbEntity
  8
WALL_CURTAIN
100
AcDbCircle
 10
96.0152447412411
 20
99.33843369293027
 30
0.0
 40
0.425
  0
CIRCLE
  5
368
330
17
100
AcDbEntity
  8
WALL_CURTAIN
100
AcDbCircle
 10
95.40855595640214
 20
99.33843369293027
 30
0.0
 40
0.425
  0
CIRCLE
  5
369
330
17
100
AcDbEntity
  8
WALL_CURTAIN
100
AcDbCircle
 10
94.80855595640215
 20
99.33843369293027
 30
0.0
 40
0.425
  0
CIRCLE
  5
36A
330
17
100
AcDbEntity
  8
WALL_CURTAIN
100
AcDbCircle
 10
94.20186717156318
 20
99.33843369293027
 30
0.0
 40
0.425
  0
CIRCLE
  5
36B
330
17
100
AcDbEntity
  8
WALL_CURTAIN
100
AcDbCircle
 10
93.60186717156319
 20
99.33843369293027
 30
0.0
 40
0.425
  0
CIRCLE
  5
36C
330
17
100
AcDbEntity
  8
WALL_CURTAIN
100
AcDbCircle
 10
92.9951783867242
 20
99.33843369293027
 30
0.0
 40
0.425
  0
CIRCLE
  5
36D
330
17
100
AcDbEntity
  8
WALL_CURTAIN
100
AcDbCircle
 10
92.39517838672421
 20
99.33843369293027
 30
0.0
 40
0.425
  0
CIRCLE
  5
36E
330
17
100
AcDbEntity
  8
WALL_CURTAIN
100
AcDbCircle
 10
91.78848960188525
 20
99.33843369293027
 30
0.0
 40
0.425
  0
CIRCLE
  5
36F
330
17
100
AcDbEntity
  8
WALL_CURTAIN
100
AcDbCircle
 10
91.18848960188525
 20
99.33843369293027
 30
0.0
 40
0.425
  0
CIRCLE
  5
370
330
17
100
AcDbEntity
  8
WALL_CURTAIN
100
AcDbCircle
 10
90.58180081704629
 20
99.33843369293027
 30
0.0
 40
0.425
  0
CIRCLE
  5
371
330
17
100
AcDbEntity
  8
WALL_CURTAIN
100
AcDbCircle
 10
89.98180081704629
 20
99.33843369293027
 30
0.0
 40
0.425
  0
CIRCLE
  5
372
330
17
100
AcDbEntity
  8
WALL_CURTAIN
100
AcDbCircle
 10
89.37511203220733
 20
99.33843369293027
 30
0.0
 40
0.425
  0
CIRCLE
  5
373
330
17
100
AcDbEntity
  8
WALL_CURTAIN
100
AcDbCircle
 10
88.77511203220733
 20
99.33843369293027
 30
0.0
 40
0.425
  0
CIRCLE
  5
374
330
17
100
AcDbEntity
  8
WALL_CURTAIN
100
AcDbCircle
 10
88.16842324736837
 20
99.33843369293027
 30
0.0
 40
0.425
  0
CIRCLE
  5
375
330
17
100
AcDbEntity
  8
WALL_CURTAIN
100
AcDbCircle
 10
87.56842324736837
 20
99.33843369293027
 30
0.0
 40
0.425
  0
CIRCLE
  5
376
330
17
100
AcDbEntity
  8
WALL_CURTAIN
100
AcDbCircle
 10
86.96173446252939
 20
99.33843369293027
 30
0.0
 40
0.425
  0
CIRCLE
  5
377
330
17
100
AcDbEntity
  8
WALL_CURTAIN
100
AcDbCircle
 10
86.3617344625294
 20
99.33843369293027
 30
0.0
 40
0.425
  0
CIRCLE
  5
378
330
17
100
AcDbEntity
  8
WALL_CURTAIN
100
AcDbCircle
 10
85.75504567769043
 20
99.33843369293027
 30
0.0
 40
0.425
  0
CIRCLE
  5
379
330
17
100
AcDbEntity
  8
WALL_CURTAIN
100
AcDbCircle
 10
85.15504567769044
 20
99.33843369293027
 30
0.0
 40
0.425
  0
CIRCLE
  5
37A
330
17
100
AcDbEntity
  8
WALL_CURTAIN
100
AcDbCircle
 10
84.54835689285147
 20
99.33843369293027
 30
0.0
 40
0.425
  0
CIRCLE
  5
37B
330
17
100
AcDbEntity
  8
WALL_CURTAIN
100
AcDbCircle
 10
83.94835689285148
 20
99.33843369293027
 30
0.0
 40
0.425
  0
CIRCLE
  5
37C
330
17
100
AcDbEntity
  8
WALL_CURTAIN
100
AcDbCircle
 10
83.3416681080125
 20
99.33843369293027
 30
0.0
 40
0.425
  0
CIRCLE
  5
37D
330
17
100
AcDbEntity
  8
WALL_CURTAIN
100
AcDbCircle
 10
82.7416681080125
 20
99.33843369293027
 30
0.0
 40
0.425
  0
CIRCLE
  5
37E
330
17
100
AcDbEntity
  8
WALL_CURTAIN
100
AcDbCircle
 10
82.13497932317354
 20
99.33843369293027
 30
0.0
 40
0.425
  0
CIRCLE
  5
37F
330
17
100
AcDbEntity
  8
WALL_CURTAIN
100
AcDbCircle
 10
81.53497932317354
 20
99.33843369293027
 30
0.0
 40
0.425
  0
CIRCLE
  5
380
330
17
100
AcDbEntity
  8
WALL_CURTAIN
100
AcDbCircle
 10
80.92829053833458
 20
99.33843369293027
 30
0.0
 40
0.425
  0
CIRCLE
  5
381
330
17
100
AcDbEntity
  8
WALL_CURTAIN
100
AcDbCircle
 10
80.32829053833458
 20
99.33843369293027
 30
0.0
 40
0.425
  0
CIRCLE
  5
382
330
17
100
AcDbEntity
  8
WALL_CURTAIN
100
AcDbCircle
 10
79.72160175349562
 20
99.33843369293027
 30
0.0
 40
0.425
  0
CIRCLE
  5
383
330
17
100
AcDbEntity
  8
WALL_CURTAIN
100
AcDbCircle
 10
79.12160175349563
 20
99.33843369293027
 30
0.0
 40
0.425
  0
CIRCLE
  5
384
330
17
100
AcDbEntity
  8
WALL_CURTAIN
100
AcDbCircle
 10
78.51491296865666
 20
99.33843369293027
 30
0.0
 40
0.425
  0
CIRCLE
  5
385
330
17
100
AcDbEntity
  8
WALL_CURTAIN
100
AcDbCircle
 10
77.91491296865667
 20
99.33843369293027
 30
0.0
 40
0.425
  0
CIRCLE
  5
386
330
17
100
AcDbEntity
  8
WALL_CURTAIN
100
AcDbCircle
 10
77.30822418381769
 20
99.33843369293027
 30
0.0
 40
0.425
  0
CIRCLE
  5
387
330
17
100
AcDbEntity
  8
WALL_CURTAIN
100
AcDbCircle
 10
76.70822418381769
 20
99.33843369293027
 30
0.0
 40
0.425
  0
CIRCLE
  5
388
330
17
100
AcDbEntity
  8
WALL_CURTAIN
100
AcDbCircle
 10
76.10153539897873
 20
99.33843369293027
 30
0.0
 40
0.425
  0
CIRCLE
  5
389
330
17
100
AcDbEntity
  8
WALL_CURTAIN
100
AcDbCircle
 10
75.50153539897873
 20
99.33843369293027
 30
0.0
 40
0.425
  0
CIRCLE
  5
38A
330
17
100
AcDbEntity
  8
WALL_CURTAIN
100
AcDbCircle
 10
74.89484661413977
 20
99.33843369293027
 30
0.0
 40
0.425
  0
CIRCLE
  5
38B
330
17
100
AcDbEntity
  8
WALL_CURTAIN
100
AcDbCircle
 10
74.29484661413977
 20
99.33843369293027
 30
0.0
 40
0.425
  0
CIRCLE
  5
38C
330
17
100
AcDbEntity
  8
WALL_CURTAIN
100
AcDbCircle
 10
73.68815782930079
 20
99.33843369293027
 30
0.0
 40
0.425
  0
CIRCLE
  5
38D
330
17
100
AcDbEntity
  8
WALL_CURTAIN
100
AcDbCircle
 10
73.0881578293008
 20
99.33843369293027
 30
0.0
 40
0.425
  0
CIRCLE
  5
38E
330
17
100
AcDbEntity
  8
WALL_CURTAIN
100
AcDbCircle
 10
72.48146904446183
 20
99.33843369293027
 30
0.0
 40
0.425
  0
CIRCLE
  5
38F
330
17
100
AcDbEntity
  8
WALL_CURTAIN
100
AcDbCircle
 10
71.88146904446184
 20
99.33843369293027
 30
0.0
 40
0.425
  0
CIRCLE
  5
390
330
17
100
AcDbEntity
  8
WALL_CURTAIN
100
AcDbCircle
 10
71.27478025962287
 20
99.33843369293027
 30
0.0
 40
0.425
  0
CIRCLE
  5
391
330
17
100
AcDbEntity
  8
WALL_CURTAIN
100
AcDbCircle
 10
70.67478025962288
 20
99.33843369293027
 30
0.0
 40
0.425
  0
CIRCLE
  5
392
330
17
100
AcDbEntity
  8
WALL_CURTAIN
100
AcDbCircle
 10
70.06809147478391
 20
99.33843369293027
 30
0.0
 40
0.425
  0
CIRCLE
  5
393
330
17
100
AcDbEntity
  8
WALL_CURTAIN
100
AcDbCircle
 10
69.46809147478392
 20
99.33843369293027
 30
0.0
 40
0.425
  0
CIRCLE
  5
394
330
17
100
AcDbEntity
  8
WALL_CURTAIN
100
AcDbCircle
 10
68.86140268994495
 20
99.33843369293027
 30
0.0
 40
0.425
  0
CIRCLE
  5
395
330
17
100
AcDbEntity
  8
WALL_CURTAIN
100
AcDbCircle
 10
68.26140268994496
 20
99.33843369293027
 30
0.0
 40
0.425
  0
CIRCLE
  5
396
330
17
100
AcDbEntity
  8
WALL_CURTAIN
100
AcDbCircle
 10
67.65471390510598
 20
99.33843369293027
 30
0.0
 40
0.425
  0
CIRCLE
  5
397
330
17
100
AcDbEntity
  8
WALL_CURTAIN
100
AcDbCircle
 10
67.05471390510598
 20
99.33843369293027
 30
0.0
 40
0.425
  0
CIRCLE
  5
398
330
17
100
AcDbEntity
  8
WALL_CURTAIN
100
AcDbCircle
 10
66.44802512026702
 20
99.33843369293027
 30
0.0
 40
0.425
  0
CIRCLE
  5
399
330
17
100
AcDbEntity
  8
WALL_CURTAIN
100
AcDbCircle
 10
65.84802512026702
 20
99.33843369293027
 30
0.0
 40
0.425
  0
CIRCLE
  5
39A
330
17
100
AcDbEntity
  8
WALL_CURTAIN
100
AcDbCircle
 10
65.24133633542806
 20
99.33843369293027
 30
0.0
 40
0.425
  0
CIRCLE
  5
39B
330
17
100
AcDbEntity
  8
WALL_CURTAIN
100
AcDbCircle
 10
64.64133633542806
 20
99.33843369293027
 30
0.0
 40
0.425
  0
CIRCLE
  5
39C
330
17
100
AcDbEntity
  8
WALL_CURTAIN
100
AcDbCircle
 10
64.03464755058909
 20
99.33843369293027
 30
0.0
 40
0.425
  0
CIRCLE
  5
39D
330
17
100
AcDbEntity
  8
WALL_CURTAIN
100
AcDbCircle
 10
63.434647550589084
 20
99.33843369293027
 30
0.0
 40
0.425
  0
CIRCLE
  5
39E
330
17
100
AcDbEntity
  8
WALL_CURTAIN
100
AcDbCircle
 10
62.827958765750125
 20
99.33843369293027
 30
0.0
 40
0.425
  0
CIRCLE
  5
39F
330
17
100
AcDbEntity
  8
WALL_CURTAIN
100
AcDbCircle
 10
62.227958765750124
 20
99.33843369293027
 30
0.0
 40
0.425
  0
CIRCLE
  5
3A0
330
17
100
AcDbEntity
  8
WALL_CURTAIN
100
AcDbCircle
 10
61.621269980911165
 20
99.33843369293027
 30
0.0
 40
0.425
  0
CIRCLE
  5
3A1
330
17
100
AcDbEntity
  8
WALL_CURTAIN
100
AcDbCircle
 10
61.021269980911164
 20
99.33843369293027
 30
0.0
 40
0.425
  0
CIRCLE
  5
3A2
330
17
100
AcDbEntity
  8
WALL_CURTAIN
100
AcDbCircle
 10
60.414581196072206
 20
99.33843369293027
 30
0.0
 40
0.425
  0
CIRCLE
  5
3A3
330
17
100
AcDbEntity
  8
WALL_CURTAIN
100
AcDbCircle
 10
59.814581196072204
 20
99.33843369293027
 30
0.0
 40
0.425
  0
CIRCLE
  5
3A4
330
17
100
AcDbEntity
  8
WALL_CURTAIN
100
AcDbCircle
 10
59.20789241123324
 20
99.33843369293027
 30
0.0
 40
0.425
  0
CIRCLE
  5
3A5
330
17
100
AcDbEntity
  8
WALL_CURTAIN
100
AcDbCircle
 10
58.60789241123324
 20
99.33843369293027
 30
0.0
 40
0.425
  0
CIRCLE
  5
3A6
330
17
100
AcDbEntity
  8
WALL_CURTAIN
100
AcDbCircle
 10
58.00120362639427
 20
99.33843369293027
 30
0.0
 40
0.425
  0
CIRCLE
  5
3A7
330
17
100
AcDbEntity
  8
WALL_CURTAIN
100
AcDbCircle
 10
57.40120362639427
 20
99.33843369293027
 30
0.0
 40
0.425
  0
CIRCLE
  5
3A8
330
17
100
AcDbEntity
  8
WALL_CURTAIN
100
AcDbCircle
 10
57.63866777963929
 20
99.43580546936231
 30
0.0
 40
0.425
  0
CIRCLE
  5
3A9
330
17
100
AcDbEntity
  8
WALL_CURTAIN
100
AcDbCircle
 10
57.21139331950252
 20
99.01457330568671
 30
0.0
 40
0.425
  0
CIRCLE
  5
3AA
330
17
100
AcDbEntity
  8
WALL_CURTAIN
100
AcDbCircle
 10
56.78411885936575
 20
98.59334114201111
 30
0.0
 40
0.425
  0
CIRCLE
  5
3AB
330
17
100
AcDbEntity
  8
WALL_CURTAIN
100
AcDbCircle
 10
56.77627771984496
 20
98.58561088786728
 30
0.0
 40
0.425
  0
CIRCLE
  5
3AC
330
17
100
AcDbEntity
  8
WALL_CURTAIN
100
AcDbCircle
 10
56.34900325970819
 20
98.16437872419168
 30
0.0
 40
0.425
  0
CIRCLE
  5
3AD
330
17
100
AcDbEntity
  8
WALL_CURTAIN
100
AcDbCircle
 10
55.92172879957142
 20
97.74314656051608
 30
0.0
 40
0.425
  0
CIRCLE
  5
3AE
330
17
100
AcDbEntity
  8
WALL_CURTAIN
100
AcDbCircle
 10
55.913887660050634
 20
97.73541630637224
 30
0.0
 40
0.425
  0
CIRCLE
  5
3AF
330
17
100
AcDbEntity
  8
WALL_CURTAIN
100
AcDbCircle
 10
55.48661319991386
 20
97.31418414269665
 30
0.0
 40
0.425
  0
CIRCLE
  5
3B0
330
17
100
AcDbEntity
  8
WALL_CURTAIN
100
AcDbCircle
 10
55.05933873977709
 20
96.89295197902105
 30
0.0
 40
0.425
  0
CIRCLE
  5
3B1
330
17
100
AcDbEntity
  8
WALL_CURTAIN
100
AcDbCircle
 10
55.05149760025631
 20
96.88522172487721
 30
0.0
 40
0.425
  0
CIRCLE
  5
3B2
330
17
100
AcDbEntity
  8
WALL_CURTAIN
100
AcDbCircle
 10
54.62422314011954
 20
96.46398956120161
 30
0.0
 40
0.425
  0
CIRCLE
  5
3B3
330
17
100
AcDbEntity
  8
WALL_CURTAIN
100
AcDbCircle
 10
54.19694867998277
 20
96.04275739752602
 30
0.0
 40
0.425
  0
CIRCLE
  5
3B4
330
17
100
AcDbEntity
  8
WALL_CURTAIN
100
AcDbCircle
 10
54.18910754046198
 20
96.03502714338217
 30
0.0
 40
0.425
  0
CIRCLE
  5
3B5
330
17
100
AcDbEntity
  8
WALL_CURTAIN
100
AcDbCircle
 10
53.76183308032521
 20
95.61379497970657
 30
0.0
 40
0.425
  0
CIRCLE
  5
3B6
330
17
100
AcDbEntity
  8
WALL_CURTAIN
100
AcDbCircle
 10
53.33455862018844
 20
95.19256281603097
 30
0.0
 40
0.425
  0
CIRCLE
  5
3B7
330
17
100
AcDbEntity
  8
WALL_CURTAIN
100
AcDbCircle
 10
53.326717480667654
 20
95.18483256188713
 30
0.0
 40
0.425
  0
CIRCLE
  5
3B8
330
17
100
AcDbEntity
  8
WALL_CURTAIN
100
AcDbCircle
 10
52.89944302053088
 20
94.76360039821154
 30
0.0
 40
0.425
  0
CIRCLE
  5
3B9
330
17
100
AcDbEntity
  8
WALL_CURTAIN
100
AcDbCircle
 10
52.47216856039411
 20
94.34236823453594
 30
0.0
 40
0.425
  0
CIRCLE
  5
3BA
330
17
100
AcDbEntity
  8
WALL_CURTAIN
100
AcDbCircle
 10
52.464327420873325
 20
94.3346379803921
 30
0.0
 40
0.425
  0
CIRCLE
  5
3BB
330
17
100
AcDbEntity
  8
WALL_CURTAIN
100
AcDbCircle
 10
52.03705296073655
 20
93.9134058167165
 30
0.0
 40
0.425
  0
CIRCLE
  5
3BC
330
17
100
AcDbEntity
  8
WALL_CURTAIN
100
AcDbCircle
 10
51.60977850059978
 20
93.49217365304091
 30
0.0
 40
0.425
  0
CIRCLE
  5
3BD
330
17
100
AcDbEntity
  8
WALL_CURTAIN
100
AcDbCircle
 10
51.601937361078996
 20
93.48444339889707
 30
0.0
 40
0.425
  0
CIRCLE
  5
3BE
330
17
100
AcDbEntity
  8
WALL_CURTAIN
100
AcDbCircle
 10
51.174662900942224
 20
93.06321123522147
 30
0.0
 40
0.425
  0
CIRCLE
  5
3BF
330
17
100
AcDbEntity
  8
WALL_CURTAIN
100
AcDbCircle
 10
50.74738844080545
 20
92.64197907154588
 30
0.0
 40
0.425
  0
CIRCLE
  5
3C0
330
17
100
AcDbEntity
  8
WALL_CURTAIN
100
AcDbCircle
 10
50.739547301284674
 20
92.63424881740204
 30
0.0
 40
0.425
  0
CIRCLE
  5
3C1
330
17
100
AcDbEntity
  8
WALL_CURTAIN
100
AcDbCircle
 10
50.3122728411479
 20
92.21301665372644
 30
0.0
 40
0.425
  0
CIRCLE
  5
3C2
330
17
100
AcDbEntity
  8
WALL_CURTAIN
100
AcDbCircle
 10
49.88499838101113
 20
91.79178449005084
 30
0.0
 40
0.425
  0
CIRCLE
  5
3C3
330
17
100
AcDbEntity
  8
WALL_CURTAIN
100
AcDbCircle
 10
49.877157241490345
 20
91.784054235907
 30
0.0
 40
0.425
  0
CIRCLE
  5
3C4
330
17
100
AcDbEntity
  8
WALL_CURTAIN
100
AcDbCircle
 10
49.44988278135357
 20
91.36282207223141
 30
0.0
 40
0.425
  0
CIRCLE
  5
3C5
330
17
100
AcDbEntity
  8
WALL_CURTAIN
100
AcDbCircle
 10
49.0226083212168
 20
90.94158990855581
 30
0.0
 40
0.425
  0
CIRCLE
  5
3C6
330
17
100
AcDbEntity
  8
WALL_CURTAIN
100
AcDbCircle
 10
49.014767181696016
 20
90.93385965441198
 30
0.0
 40
0.425
  0
CIRCLE
  5
3C7
330
17
100
AcDbEntity
  8
WALL_CURTAIN
100
AcDbCircle
 10
48.587492721559244
 20
90.51262749073638
 30
0.0
 40
0.425
  0
CIRCLE
  5
3C8
330
17
100
AcDbEntity
  8
WALL_CURTAIN
100
AcDbCircle
 10
48.16021826142247
 20
90.09139532706078
 30
0.0
 40
0.425
  0
CIRCLE
  5
3C9
330
17
100
AcDbEntity
  8
WALL_CURTAIN
100
AcDbCircle
 10
48.15237712190169
 20
90.08366507291693
 30
0.0
 40
0.425
  0
CIRCLE
  5
3CA
330
17
100
AcDbEntity
  8
WALL_CURTAIN
100
AcDbCircle
 10
47.725102661764915
 20
89.66243290924133
 30
0.0
 40
0.425
  0
CIRCLE
  5
3CB
330
17
100
AcDbEntity
  8
WALL_CURTAIN
100
AcDbCircle
 10
47.29782820162814
 20
89.24120074556573
 30
0.0
 40
0.425
  0
CIRCLE
  5
3CC
330
17
100
AcDbEntity
  8
WALL_CURTAIN
100
AcDbCircle
 10
47.28998706210736
 20
89.2334704914219
 30
0.0
 40
0.425
  0
CIRCLE
  5
3CD
330
17
100
AcDbEntity
  8
WALL_CURTAIN
100
AcDbCircle
 10
46.862712601970586
 20
88.8122383277463
 30
0.0
 40
0.425
  0
CIRCLE
  5
3CE
330
17
100
AcDbEntity
  8
WALL_CURTAIN
100
AcDbCircle
 10
46.435438141833814
 20
88.3910061640707
 30
0.0
 40
0.425
  0
CIRCLE
  5
3CF
330
17
100
AcDbEntity
  8
WALL_CURTAIN
100
AcDbCircle
 10
46.427597002313036
 20
88.38327590992687
 30
0.0
 40
0.425
  0
CIRCLE
  5
3D0
330
17
100
AcDbEntity
  8
WALL_CURTAIN
100
AcDbCircle
 10
46.000322542176264
 20
87.96204374625127
 30
0.0
 40
0.425
  0
CIRCLE
  5
3D1
330
17
100
AcDbEntity
  8
WALL_CURTAIN
100
AcDbCircle
 10
45.57304808203949
 20
87.54081158257567
 30
0.0
 40
0.425
  0
CIRCLE
  5
3D2
330
17
100
AcDbEntity
  8
WALL_CURTAIN
100
AcDbCircle
 10
45.56520694251871
 20
87.53308132843183
 30
0.0
 40
0.425
  0
CIRCLE
  5
3D3
330
17
100
AcDbEntity
  8
WALL_CURTAIN
100
AcDbCircle
 10
45.137932482381935
 20
87.11184916475624
 30
0.0
 40
0.425
  0
CIRCLE
  5
3D4
330
17
100
AcDbEntity
  8
WALL_CURTAIN
100
AcDbCircle
 10
44.71065802224516
 20
86.69061700108064
 30
0.0
 40
0.425
  0
CIRCLE
  5
3D5
330
17
100
AcDbEntity
  8
WALL_CURTAIN
100
AcDbCircle
 10
44.70281688272438
 20
86.6828867469368
 30
0.0
 40
0.425
  0
CIRCLE
  5
3D6
330
17
100
AcDbEntity
  8
WALL_CURTAIN
100
AcDbCircle
 10
44.275542422587606
 20
86.2616545832612
 30
0.0
 40
0.425
  0
CIRCLE
  5
3D7
330
17
100
AcDbEntity
  8
WALL_CURTAIN
100
AcDbCircle
 10
43.848267962450834
 20
85.84042241958561
 30
0.0
 40
0.425
  0
CIRCLE
  5
3D8
330
17
100
AcDbEntity
  8
WALL_CURTAIN
100
AcDbCircle
 10
43.84042682293005
 20
85.83269216544176
 30
0.0
 40
0.425
  0
CIRCLE
  5
3D9
330
17
100
AcDbEntity
  8
WALL_CURTAIN
100
AcDbCircle
 10
43.41315236279328
 20
85.41146000176616
 30
0.0
 40
0.425
  0
CIRCLE
  5
3DA
330
17
100
AcDbEntity
  8
WALL_CURTAIN
100
AcDbCircle
 10
42.985877902656505
 20
84.99022783809056
 30
0.0
 40
0.425
  0
CIRCLE
  5
3DB
330
17
100
AcDbEntity
  8
WALL_CURTAIN
100
AcDbCircle
 10
42.97803676313572
 20
84.98249758394672
 30
0.0
 40
0.425
  0
CIRCLE
  5
3DC
330
17
100
AcDbEntity
  8
WALL_CURTAIN
100
AcDbCircle
 10
42.55076230299895
 20
84.56126542027113
 30
0.0
 40
0.425
  0
CIRCLE
  5
3DD
330
17
100
AcDbEntity
  8
WALL_CURTAIN
100
AcDbCircle
 10
42.123487842862176
 20
84.14003325659553
 30
0.0
 40
0.425
  0
CIRCLE
  5
3DE
330
17
100
AcDbEntity
  8
WALL_CURTAIN
100
AcDbCircle
 10
42.1156467033414
 20
84.13230300245169
 30
0.0
 40
0.425
  0
CIRCLE
  5
3DF
330
17
100
AcDbEntity
  8
WALL_CURTAIN
100
AcDbCircle
 10
41.688372243204626
 20
83.7110708387761
 30
0.0
 40
0.425
  0
CIRCLE
  5
3E0
330
17
100
AcDbEntity
  8
WALL_CURTAIN
100
AcDbCircle
 10
41.261097783067854
 20
83.2898386751005
 30
0.0
 40
0.425
  0
CIRCLE
  5
3E1
330
17
100
AcDbEntity
  8
WALL_CURTAIN
100
AcDbCircle
 10
41.25325664354707
 20
83.28210842095666
 30
0.0
 40
0.425
  0
CIRCLE
  5
3E2
330
17
100
AcDbEntity
  8
WALL_CURTAIN
100
AcDbCircle
 10
40.8259821834103
 20
82.86087625728106
 30
0.0
 40
0.425
  0
CIRCLE
  5
3E3
330
17
100
AcDbEntity
  8
WALL_CURTAIN
100
AcDbCircle
 10
40.398707723273525
 20
82.43964409360547
 30
0.0
 40
0.425
  0
CIRCLE
  5
3E4
330
17
100
AcDbEntity
  8
WALL_CURTAIN
100
AcDbCircle
 10
40.39086658375274
 20
82.43191383946163
 30
0.0
 40
0.425
  0
CIRCLE
  5
3E5
330
17
100
AcDbEntity
  8
WALL_CURTAIN
100
AcDbCircle
 10
39.96359212361597
 20
82.01068167578603
 30
0.0
 40
0.425
  0
CIRCLE
  5
3E6
330
17
100
AcDbEntity
  8
WALL_CURTAIN
100
AcDbCircle
 10
39.536317663479196
 20
81.58944951211043
 30
0.0
 40
0.425
  0
CIRCLE
  5
3E7
330
17
100
AcDbEntity
  8
WALL_CURTAIN
100
AcDbCircle
 10
39.52847652395842
 20
81.5817192579666
 30
0.0
 40
0.425
  0
CIRCLE
  5
3E8
330
17
100
AcDbEntity
  8
WALL_CURTAIN
100
AcDbCircle
 10
39.101202063821646
 20
81.160487094291
 30
0.0
 40
0.425
  0
CIRCLE
  5
3E9
330
17
100
AcDbEntity
  8
WALL_CURTAIN
100
AcDbCircle
 10
38.673927603684874
 20
80.7392549306154
 30
0.0
 40
0.425
  0
CIRCLE
  5
3EA
330
17
100
AcDbEntity
  8
WALL_CURTAIN
100
AcDbCircle
 10
38.66608646416408
 20
80.73152467647157
 30
0.0
 40
0.425
  0
CIRCLE
  5
3EB
330
17
100
AcDbEntity
  8
WALL_CURTAIN
100
AcDbCircle
 10
38.23881200402731
 20
80.31029251279597
 30
0.0
 40
0.425
  0
CIRCLE
  5
3EC
330
17
100
AcDbEntity
  8
WALL_CURTAIN
100
AcDbCircle
 10
37.81153754389054
 20
79.88906034912037
 30
0.0
 40
0.425
  0
CIRCLE
  5
3ED
330
17
100
AcDbEntity
  8
WALL_CURTAIN
100
AcDbCircle
 10
37.80369640436976
 20
79.88133009497653
 30
0.0
 40
0.425
  0
CIRCLE
  5
3EE
330
17
100
AcDbEntity
  8
WALL_CURTAIN
100
AcDbCircle
 10
37.37642194423299
 20
79.46009793130094
 30
0.0
 40
0.425
  0
CIRCLE
  5
3EF
330
17
100
AcDbEntity
  8
WALL_CURTAIN
100
AcDbCircle
 10
36.949147484096216
 20
79.03886576762534
 30
0.0
 40
0.425
  0
CIRCLE
  5
3F0
330
17
100
AcDbEntity
  8
WALL_CURTAIN
100
AcDbCircle
 10
36.94130634457543
 20
79.03113551348149
 30
0.0
 40
0.425
  0
CIRCLE
  5
3F1
330
17
100
AcDbEntity
  8
WALL_CURTAIN
100
AcDbCircle
 10
36.51403188443866
 20
78.60990334980589
 30
0.0
 40
0.425
  0
CIRCLE
  5
3F2
330
17
100
AcDbEntity
  8
WALL_CURTAIN
100
AcDbCircle
 10
36.08675742430189
 20
78.18867118613029
 30
0.0
 40
0.425
  0
CIRCLE
  5
3F3
330
17
100
AcDbEntity
  8
WALL_CURTAIN
100
AcDbCircle
 10
36.0789162847811
 20
78.18094093198646
 30
0.0
 40
0.425
  0
CIRCLE
  5
3F4
330
17
100
AcDbEntity
  8
WALL_CURTAIN
100
AcDbCircle
 10
35.65164182464433
 20
77.75970876831086
 30
0.0
 40
0.425
  0
CIRCLE
  5
3F5
330
17
100
AcDbEntity
  8
WALL_CURTAIN
100
AcDbCircle
 10
35.22436736450756
 20
77.33847660463526
 30
0.0
 40
0.425
  0
CIRCLE
  5
3F6
330
17
100
AcDbEntity
  8
WALL_CURTAIN
100
AcDbCircle
 10
35.21652622498678
 20
77.33074635049142
 30
0.0
 40
0.425
  0
CIRCLE
  5
3F7
330
17
100
AcDbEntity
  8
WALL_CURTAIN
100
AcDbCircle
 10
34.78925176485001
 20
76.90951418681583
 30
0.0
 40
0.425
  0
CIRCLE
  5
3F8
330
17
100
AcDbEntity
  8
WALL_CURTAIN
100
AcDbCircle
 10
34.361977304713236
 20
76.48828202314023
 30
0.0
 40
0.425
  0
CIRCLE
  5
3F9
330
17
100
AcDbEntity
  8
WALL_CURTAIN
100
AcDbCircle
 10
34.35413616519244
 20
76.48055176899639
 30
0.0
 40
0.425
  0
CIRCLE
  5
3FA
330
17
100
AcDbEntity
  8
WALL_CURTAIN
100
AcDbCircle
 10
33.92686170505567
 20
76.0593196053208
 30
0.0
 40
0.425
  0
CIRCLE
  5
3FB
330
17
100
AcDbEntity
  8
WALL_CURTAIN
100
AcDbCircle
 10
33.4995872449189
 20
75.6380874416452
 30
0.0
 40
0.425
  0
CIRCLE
  5
3FC
330
17
100
AcDbEntity
  8
WALL_CURTAIN
100
AcDbCircle
 10
33.49174610539812
 20
75.63035718750136
 30
0.0
 40
0.425
  0
CIRCLE
  5
3FD
330
17
100
AcDbEntity
  8
WALL_CURTAIN
100
AcDbCircle
 10
33.06447164526135
 20
75.20912502382576
 30
0.0
 40
0.425
  0
CIRCLE
  5
3FE
330
17
100
AcDbEntity
  8
WALL_CURTAIN
100
AcDbCircle
 10
32.63719718512458
 20
74.78789286015017
 30
0.0
 40
0.425
  0
CIRCLE
  5
3FF
330
17
100
AcDbEntity
  8
WALL_CURTAIN
100
AcDbCircle
 10
32.62935604560379
 20
74.78016260600631
 30
0.0
 40
0.425
  0
CIRCLE
  5
400
330
17
100
AcDbEntity
  8
WALL_CURTAIN
100
AcDbCircle
 10
32.20208158546702
 20
74.35893044233072
 30
0.0
 40
0.425
  0
CIRCLE
  5
401
330
17
100
AcDbEntity
  8
WALL_CURTAIN
100
AcDbCircle
 10
31.77480712533025
 20
73.93769827865512
 30
0.0
 40
0.425
  0
CIRCLE
  5
402
330
17
100
AcDbEntity
  8
WALL_CURTAIN
100
AcDbCircle
 10
31.766965985809463
 20
73.92996802451128
 30
0.0
 40
0.425
  0
CIRCLE
  5
403
330
17
100
AcDbEntity
  8
WALL_CURTAIN
100
AcDbCircle
 10
31.33969152567269
 20
73.50873586083569
 30
0.0
 40
0.425
  0
CIRCLE
  5
404
330
17
100
AcDbEntity
  8
WALL_CURTAIN
100
AcDbCircle
 10
30.91241706553592
 20
73.08750369716009
 30
0.0
 40
0.425
  0
CIRCLE
  5
405
330
17
100
AcDbEntity
  8
WALL_CURTAIN
100
AcDbCircle
 10
30.904575926015138
 20
73.07977344301625
 30
0.0
 40
0.425
  0
CIRCLE
  5
406
330
17
100
AcDbEntity
  8
WALL_CURTAIN
100
AcDbCircle
 10
30.477301465878366
 20
72.65854127934065
 30
0.0
 40
0.425
  0
CIRCLE
  5
407
330
17
100
AcDbEntity
  8
WALL_CURTAIN
100
AcDbCircle
 10
30.050027005741594
 20
72.23730911566506
 30
0.0
 40
0.425
  0
CIRCLE
  5
408
330
17
100
AcDbEntity
  8
WALL_CURTAIN
100
AcDbCircle
 10
30.04218586622081
 20
72.22957886152122
 30
0.0
 40
0.425
  0
CIRCLE
  5
409
330
17
100
AcDbEntity
  8
WALL_CURTAIN
100
AcDbCircle
 10
29.614911406084037
 20
71.80834669784562
 30
0.0
 40
0.425
  0
CIRCLE
  5
40A
330
17
100
AcDbEntity
  8
WALL_CURTAIN
100
AcDbCircle
 10
29.187636945947265
 20
71.38711453417002
 30
0.0
 40
0.425
  0
CIRCLE
  5
40B
330
17
100
AcDbEntity
  8
WALL_CURTAIN
100
AcDbCircle
 10
29.17979580642648
 20
71.37938428002619
 30
0.0
 40
0.425
  0
CIRCLE
  5
40C
330
17
100
AcDbEntity
  8
WALL_CURTAIN
100
AcDbCircle
 10
28.752521346289708
 20
70.95815211635059
 30
0.0
 40
0.425
  0
CIRCLE
  5
40D
330
17
100
AcDbEntity
  8
WALL_CURTAIN
100
AcDbCircle
 10
28.325246886152936
 20
70.53691995267499
 30
0.0
 40
0.425
  0
ENDSEC
  0
SECTION
  2
OBJECTS
  0
DICTIONARY
  5
A
330
0
100
AcDbDictionary
281
1
  3
ACAD_COLOR
350
B
  3
ACAD_GROUP
350
C
  3
ACAD_LAYOUT
350
D
  3
ACAD_MATERIAL
350
E
  3
ACAD_MLEADERSTYLE
350
F
  3
ACAD_MLINESTYLE
350
10
  3
ACAD_PLOTSETTINGS
350
11
  3
ACAD_PLOTSTYLENAME
350
12
  3
ACAD_SCALELIST
350
14
  3
ACAD_TABLESTYLE
350
15
  3
ACAD_VISUALSTYLE
350
16
  3
EZDXF_META
350
2D
  0
DICTIONARY
  5
B
330
A
100
AcDbDictionary
281
1
  0
DICTIONARY
  5
C
330
A
100
AcDbDictionary
281
1
  0
DICTIONARY
  5
D
330
A
100
AcDbDictionary
281
1
  3
Model
350
1A
  3
Layout1
350
1E
  0
DICTIONARY
  5
E
330
A
100
AcDbDictionary
281
1
  3
ByBlock
350
1F
  3
ByLayer
350
20
  3
Global
350
21
  0
DICTIONARY
  5
F
330
A
100
AcDbDictionary
281
1
  3
Standard
350
2C
  0
DICTIONARY
  5
10
330
A
100
AcDbDictionary
281
1
  3
Standard
350
22
  0
DICTIONARY
  5
11
330
A
100
AcDbDictionary
281
1
  0
ACDBDICTIONARYWDFLT
  5
12
330
A
100
AcDbDictionary
281
1
  3
Normal
350
13
100
AcDbDictionaryWithDefault
340
13
  0
ACDBPLACEHOLDER
  5
13
330
12
  0
DICTIONARY
  5
14
330
A
100
AcDbDictionary
281
1
  0
DICTIONARY
  5
15
330
A
100
AcDbDictionary
281
1
  0
DICTIONARY
  5
16
330
A
100
AcDbDictionary
281
1
  0
LAYOUT
  5
1A
330
D
100
AcDbPlotSettings
  1

  4
A3
  6

 40
7.5
 41
20.0
 42
7.5
 43
20.0
 44
420.0
 45
297.0
 46
0.0
 47
0.0
 48
0.0
 49
0.0
140
0.0
141
0.0
142
1.0
143
1.0
 70
1024
 72
1
 73
0
 74
5
  7

 75
16
 76
0
 77
2
 78
300
147
1.0
148
0.0
149
0.0
100
AcDbLayout
  1
Model
 70
1
 71
0
 10
0.0
 20
0.0
 11
420.0
 21
297.0
 12
0.0
 22
0.0
 32
0.0
 14
1e+20
 24
1e+20
 34
1e+20
 15
-1e+20
 25
-1e+20
 35
-1e+20
146
0.0
 13
0.0
 23
0.0
 33
0.0
 16
1.0
 26
0.0
 36
0.0
 17
0.0
 27
1.0
 37
0.0
 76
1
330
17
  0
LAYOUT
  5
1E
330
D
100
AcDbPlotSettings
  1

  4
A3
  6

 40
7.5
 41
20.0
 42
7.5
 43
20.0
 44
420.0
 45
297.0
 46
0.0
 47
0.0
 48
0.0
 49
0.0
140
0.0
141
0.0
142
1.0
143
1.0
 70
0
 72
1
 73
0
 74
5
  7

 75
16
 76
0
 77
2
 78
300
147
1.0
148
0.0
149
0.0
100
AcDbLayout
  1
Layout1
 70
1
 71
1
 10
0.0
 20
0.0
 11
420.0
 21
297.0
 12
0.0
 22
0.0
 32
0.0
 14
1e+20
 24
1e+20
 34
1e+20
 15
-1e+20
 25
-1e+20
 35
-1e+20
146
0.0
 13
0.0
 23
0.0
 33
0.0
 16
1.0
 26
0.0
 36
0.0
 17
0.0
 27
1.0
 37
0.0
 76
1
330
1B
  0
MATERIAL
  5
1F
102
{ACAD_REACTORS
330
E
102
}
330
E
100
AcDbMaterial
  1
ByBlock
  2

 70
0
 40
1.0
 71
1
 41
1.0
 91
-1023410177
 42
1.0
 72
1
  3

 73
1
 74
1
 75
1
 44
0.5
 73
0
 45
1.0
 46
1.0
 77
1
  4

 78
1
 79
1
170
1
 48
1.0
171
1
  6

172
1
173
1
174
1
140
1.0
141
1.0
175
1
  7

176
1
177
1
178
1
143
1.0
179
1
  8

270
1
271
1
272
1
145
1.0
146
1.0
273
1
  9

274
1
275
1
276
1
 42
1.0
 72
1
  3

 73
1
 74
1
 75
1
 94
63
  0
MATERIAL
  5
20
102
{ACAD_REACTORS
330
E
102
}
330
E
100
AcDbMaterial
  1
ByLayer
  2

 70
0
 40
1.0
 71
1
 41
1.0
 91
-1023410177
 42
1.0
 72
1
  3

 73
1
 74
1
 75
1
 44
0.5
 73
0
 45
1.0
 46
1.0
 77
1
  4

 78
1
 79
1
170
1
 48
1.0
171
1
  6

172
1
173
1
174
1
140
1.0
141
1.0
175
1
  7

176
1
177
1
178
1
143
1.0
179
1
  8

270
1
271
1
272
1
145
1.0
146
1.0
273
1
  9

274
1
275
1
276
1
 42
1.0
 72
1
  3

 73
1
 74
1
 75
1
 94
63
  0
MATERIAL
  5
21
102
{ACAD_REACTORS
330
E
102
}
330
E
100
AcDbMaterial
  1
Global
  2

 70
0
 40
1.0
 71
1
 41
1.0
 91
-1023410177
 42
1.0
 72
1
  3

 73
1
 74
1
 75
1
 44
0.5
 73
0
 45
1.0
 46
1.0
 77
1
  4

 78
1
 79
1
170
1
 48
1.0
171
1
  6

172
1
173
1
174
1
140
1.0
141
1.0
175
1
  7

176
1
177
1
178
1
143
1.0
179
1
  8

270
1
271
1
272
1
145
1.0
146
1.0
273
1
  9

274
1
275
1
276
1
 42
1.0
 72
1
  3

 73
1
 74
1
 75
1
 94
63
  0
MLINESTYLE
  5
22
102
{ACAD_REACTORS
330
10
102
}
330
10
100
AcDbMlineStyle
  2
Standard
 70
0
  3

 62
256
 51
90.0
 52
90.0
 71
2
 49
0.5
 62
256
  6
BYLAYER
 49
-0.5
 62
256
  6
BYLAYER
  0
MLEADERSTYLE
  5
2C
102
{ACAD_REACTORS
330
F
102
}
330
F
100
AcDbMLeaderStyle
179
2
170
2
171
1
172
0
 90
2
 40
0.0
 41
0.0
173
1
 91
-1056964608
 92
-2
290
1
 42
2.0
291
1
 43
8.0
  3
Standard
 44
4.0
300

342
29
174
1
175
1
176
0
178
1
 93
-1056964608
 45
4.0
292
0
297
0
 46
4.0
 94
-1056964608
 47
1.0
 49
1.0
140
1.0
294
1
141
0.0
177
0
142
1.0
295
0
296
0
143
3.75
271
0
272
9
273
9
  0
DICTIONARY
  5
2D
330
A
100
AcDbDictionary
280
1
281
1
  3
CREATED_BY_EZDXF
350
2E
  3
WRITTEN_BY_EZDXF
350
410
  0
DICTIONARYVAR
  5
2E
330
2D
100
DictionaryVariables
280
0
  1
1.4.3 @ 2026-06-18T03:44:53.849415+00:00
  0
DICTIONARYVAR
  5
410
330
2D
100
DictionaryVariables
280
0
  1
1.4.3 @ 2026-06-18T03:44:53.870787+00:00
  0
ENDSEC
  0
EOF
